<svg id="Capa_1" data-name="Capa 1" xmlns="http://www.w3.org/2000/svg" viewBox="0 0 53.94 43.23"><defs><style>.cls-1,.cls-2{fill:none;stroke:#000;stroke-linecap:round;}.cls-1{stroke-width:0.7px;}.cls-2{stroke-width:0.3px;}</style></defs><title>602 Conglomerado o grava opción 2</title><path class="cls-1" d="M.14,42.84h0m-.83-2.4h0"/><path class="cls-2" d="M5,44.64a.86.86,0,1,0,0-1.72.86.86,0,1,0,0,1.72Z"/><path class="cls-1" d="M-.67,29.49h0m5.86,10h0m-3,2.68h0m5.14,2h0m.13-2.75h0M3.35,38h0m1,3.84h0M7.7,35.93h0m-2.64.5h0m1-2.26h0M7.32,32h0M5.19,30.46h0m-.88,1.71h0m-4,2.76h0m1.63,1.75h0m.81-6.33h0m-.56,9.84h0M.92,31.54h0"/><path class="cls-2" d="M7.57,39.31a.89.89,0,0,0,.86-.93.9.9,0,0,0-.86-.94.91.91,0,0,0-.86.94A.9.9,0,0,0,7.57,39.31Zm-8.28.13a.93.93,0,0,0,1-.78.93.93,0,0,0-1-.78.92.92,0,0,0-1,.78A.92.92,0,0,0-.71,39.44ZM3,35a.79.79,0,1,0,0-1.56A.79.79,0,1,0,3,35Z"/><line class="cls-1" x1="7.26" y1="29.36" x2="7.26" y2="29.36"/><path class="cls-1" d="M54.29,42.84h0m-.83-2.4h0m-2.57.67h0m-2.23,1.07h0m-2.4-1.24h0m-2.48.88h0m-1.69,1h0m2.43,1.32h0M39.8,41.93h0m.49,2.57h0m-2.11-1.7h0m-1.12-2h0m-2.73.41h0m-2.73-.33h0m1.07,1.82h0m-2.15,0h0m-1.74-1.9h0m-.69,2h0m1.77,1.67h0m3.64-.17h0M21.53,29h0m19,.28h0M21.7,40.48h0m.5,2.23h0M19.76,41.6h0m-.25,2.65h0m-9.36-.41h0m2.07-1.16h0m5-.75h0m-1.57-1.4h0m-1.49,1h0m-2.4-.83h0m-2,.17h0"/><path class="cls-2" d="M16.08,44.45a.78.78,0,1,0-.85-.78A.82.82,0,0,0,16.08,44.45Zm10.16-2.18a.86.86,0,1,0-.93-.86A.91.91,0,0,0,26.24,42.27ZM9.66,30.54a.71.71,0,1,0,0-1.4.71.71,0,1,0,0,1.4Zm35.13.38a.72.72,0,1,0-.86-.71A.8.8,0,0,0,44.79,30.92ZM36,43.73A.78.78,0,1,0,35.1,43,.82.82,0,0,0,36,43.73Zm10.71.3a.86.86,0,1,0-.86-.85A.86.86,0,0,0,46.67,44Zm5.52.15a.79.79,0,1,0-.86-.78A.83.83,0,0,0,52.19,44.18ZM5,1.36A.9.9,0,0,0,6,.5.9.9,0,0,0,5-.36.91.91,0,0,0,4.08.5.9.9,0,0,0,5,1.36ZM2.2-1.12h0m5.27-.71h0m-3.14.37h0m50,1h0M48.68-1.1h0m-4.87-.36h0M44.54.89h0M39.82-1.35h0M32.7-.6h0m-2.16,0h0M19.78-1.68h0m-2.49.33h0m-3.06-.41h0m1.88,2.93A.83.83,0,0,0,17,.39a.83.83,0,0,0-.86-.78.82.82,0,0,0-.86.78A.82.82,0,0,0,16.11,1.17Zm10.16-3.9a.91.91,0,0,0-.94.86.91.91,0,0,0,.94.86.9.9,0,0,0,.93-.86.9.9,0,0,0-.93-.86M36,.45a.81.81,0,0,0,.86-.78A.82.82,0,0,0,36-1.11a.83.83,0,0,0-.86.78A.82.82,0,0,0,36,.45Zm10.71.3a.85.85,0,0,0,.86-.85A.85.85,0,0,0,46.69-1a.86.86,0,0,0-.86.86A.86.86,0,0,0,46.69.75ZM52.21.9a.82.82,0,0,0,.86-.78.81.81,0,0,0-.86-.78.82.82,0,0,0-.86.78A.83.83,0,0,0,52.21.9Z"/><path class="cls-1" d="M25.55,34.81h0M8.9,34.17h0m44.59-4.68h0m-3.35.63h0m-.84,1.55h0m.25,2.63h0m2.42,0h0m.74,2.32h0m-1.27,2.68h0m-1-1.85h0m-2.81-.58h0M49,39.48h0m-2.34-.33h0M45,38.2h0m2.07-5.54h0m.47-3.5h0M44.1,32.41h0m-.83,4.05h0m-.66-2.23h0m-2.73-1.08h0m2.23,5.3h0m-2.51-.64h0m1,2.34h0m-4.2-1.7h0m1.82-1.82h0m-2.57.16h0m-2.73-.24h0m-2.65.57h0m1-2h0m1.83-1.49h0M35.49,35h0m.08-1.65h0M38,34.39h0m-.91-2.23h0m1.66-1.49h0m2,.58h0m2.4-.63h0m-6.35-.5h0m-4.09-.61h0M30,33h0m-2.65.49h0m.83-2h0m2.07-1.16h0M25.88,31h0m1.51-1.55h0m-4.32,1.39h0M24.64,33h0m7,6.2h0m11.68.63h0m-13.88-1h0M27,38.61h0m.42-2.06h0m-1.91.82h0m-1.82-1.32h0m-1.16-2.32h0m-.83,2.15h0m1.49,2.4h0M17.93,38h0m1.24-1.9h0m.83-2.4h0m-4.8-1.9h0m2.65.74h0m-.75,2.32h0m-1.49,1.9h0M24,40.15h0m-5.69-.33h0M14,39h0m-1-1.86h0M10.89,38.2h0m0-2.73h0m.75-2.23h0m42.81,1.69h0M9.4,31.66h0m2.82-.82h0m2.4-1.49h0m2.32.74h0m2.23,0h0m35.91,1.45h0"/><path class="cls-2" d="M14.42,35.3a.94.94,0,0,0,0-1.87.94.94,0,0,0,0,1.87Zm6.78-3a.71.71,0,1,0-.86-.7A.79.79,0,0,0,21.2,32.25Zm32.24,7.19a.81.81,0,1,0,0-1.56.81.81,0,1,0,0,1.56Zm-19-7.14a.79.79,0,1,0,0-1.56.79.79,0,1,0,0,1.56Zm17.33.08a.86.86,0,1,0-.86-.85A.85.85,0,0,0,51.8,32.38Zm-5,3.88c.52,0,.94-.31.94-.7s-.42-.7-.94-.7-.93.31-.93.7S46.28,36.26,46.79,36.26Zm-6.47.32a.86.86,0,1,0-.94-.86A.91.91,0,0,0,40.32,36.58Zm-11.65-.89a.86.86,0,1,0-.94-.85A.9.9,0,0,0,28.67,35.69Zm-7.78,3.2A.86.86,0,1,0,20,38,.85.85,0,0,0,20.89,38.89ZM34.08,39a.78.78,0,1,0-.86-.78A.83.83,0,0,0,34.08,39Z"/><path class="cls-1" d="M4.36,2.53h0m2.57-.74h0m.74,2.32h0m0,2.48h0M5.35,4.93h0M2.54,4.35h0M3.2,6.67h0M0,5.68H0M2,.13H2m-3-.24h0M.22,17.59h0m.16,2.9h0m-1.57,2h0m.08,5h0m2.53.79h0M.8,26.28h0m-.5-1.9h0m2.9.41h0m3.24,2.43h0m-.67-1.85h0m2.07.25h0m-3.23-2.4h0m2.56-1h0M5,20.9H5M2.79,18.09h0m2.56.41h0m1.74-1.32h0m-2.4-1.57h0M4,12.79H4M6.68,14h0m.91-2.64h0m-2-.58h0M3.28,8.66h0M2,11.05H2M.47,13.37h0M-1,14.86h0"/><path class="cls-2" d="M6.76-.14A.86.86,0,0,0,7.62-1a.86.86,0,0,0-.86-.85A.86.86,0,0,0,5.9-1,.86.86,0,0,0,6.76-.14Zm-.5,9.21a.86.86,0,1,0,.12-1.71.91.91,0,0,0-1,.79A.91.91,0,0,0,6.26,9.07ZM.63,2.79c.52,0,.94-.31.94-.7s-.42-.7-.94-.7a.84.84,0,0,0-.93.7C-.3,2.48.11,2.79.63,2.79ZM.47,10.18a.83.83,0,0,0,.78-.86.82.82,0,0,0-.78-.86.82.82,0,0,0-.78.86A.83.83,0,0,0,.47,10.18ZM4.13,27.93a.71.71,0,1,0,0-1.41.71.71,0,1,0,0,1.41Zm3.46-7.37a.82.82,0,1,0-.82-.82A.82.82,0,0,0,7.59,20.56ZM2.12,16.38a.94.94,0,1,0-.93-.94A.94.94,0,0,0,2.12,16.38Zm.09,4.74a.94.94,0,1,0,0,1.87.94.94,0,0,0,0-1.87Z"/><path class="cls-1" d="M45.51,5.93h0m1.82-1.82h0m-2.57.16h0M42,4h0m-2.65.58h0m1-2h0M42.2,1.13h0m2.4,1.32h0M44.68.8h0m2.4,1.07h0M46.17-.36h0m3.65-.91h0M39.13.47h0M36.48,1h0m.83-2h0M33.75.47h0M13.5,23.55h0m.13,2.65h0M15,27.39h0m-3,.21h0m-1.22-1.38h0M9,27.52H9m.33-3.06h0m0-4.76h0m1.17,1.51h0m1.9-2.13h0M15,20h0M13,21.21h0m2.2,3.25h0m.58-2h0m1.57-1.82h0M21.41,19h0m2.73.08h0M22.41,20.9h0m-2.49.17h0M21,23.22h0m-2.65-.33h0m-1,4.88h0m2.85-.55h0M19.42,25h0m2.41-.09h0m.33,2.32h0M24,25.7h0m8.28-7.86h0m-2.82-1.66h0m0,2.07h0m-3.31-.16h0m1.49,1.57h0m-2.15,1.16h0m1,2.23h0m-.33,2.15h0m4,3h0m-2.39-1.33h0m.4-2.14h0m.58-2.4h0M30.44,25h0m3.64,2.81h0m-.91-2.32h0m-1.32-2.4h0m1.74-2.23h0m2,1.57h0m-1.41,1.16h0m.92,2.31h0m1.57,1.91h0m5.46.4h0m-1.34-1.78h0M39,28.23h0M38,26.36h0M39.55,25h0M38.8,22.8h0m-2.15-2.39h0M35.16,18h0m2.48.66h0M40,18.25h0m1.82.75h0m-1.24,1.9h0m1.74,1.41h0M42,24.62h0M45.18,28h0m1.24-2.16h0m-1.66-1.48h0m-.33-2.15h0m1.66-2.65h0m1.57,1.82h0M47.08,23h0m3.32,5.21h0m-2.6-.82h0m1.5-.89h0m-.64-1.68h0m.82-10.43h0m1.58,1.58h0m-2.49,2.73h0m1.49,1.9h0M52,18.5h0m2.4-.91h0m.17,2.9h0m-1.58,2h0m-1.74,2.9h0m1.83,2.07h0M55,26.28h0m-.5-1.9h0m.17-11h0m-1.49,1.49h0M50,11.64h0M52.05,13h0m.66-2.56h0m-.33-2.57h0M50.64,9.65h0m-6.21,7.94h0M42,16.85h0m-2.81-.75h0m-7.46-1.4h0m2.4,1.15h0m-.57-5.7h0m0,2.89h0m2.23-1h0M36.9,14h0m1.16-2.73h0m1,2.24h0m1.08-2.24h0m1.07,3.31h0m2.57,1h0m2.9,1h0m-.41-2.16h0m-2.08-1.07h0m2.32-1.57h0m-2.23-.67h0m1.49-1.73h0M43.11,8h0M41.2,9.24h0M39,8.66h0m1.74-2h0m-3,.33h0M34.25,7h0m1.9-.91h0M36.57,4h0m-1.91.83h0M32.84,3.53h0M31.68,1.21h0m-.83,2.15h0m1.49,2.4h0m-.41,2.15h0m-1,2.24h0m-3.81,5.62h0m1.24-1.9h0m-.08-2.48h0m-2.24,1.9h0M23.48,14h0m-1.24,2.73h0m-2.73,0h0M16.36,18h0m-2.23-.58h0m-3.81.49h0m-1-1.85h0m1-1.37h0M13,14.36h0m2.23.83h0m.42-2.31h0m2.15,2.23h0m2.9-.33h0m.25-2.15h0m2.31-1.08h0M21.16,9.9h0m4.23,1.15h0M29.2,8.33h0m-2,1.4h0M27,7.66h0M27,5.43h0m1.25-1.9h0m.82-2.4h0M24.31-.78h0M26.44.6h0m-.22,1.69h0m-1.5,1.9h0M25,6.59h0m-2.65.49h0M22.16,4.6h0M20,5.68h0m-.41,2.4h0m-2.48,1h0M15,10.56h0M12.8,12.05h0m-2.57.25h0m-.91-2.24h0M9,7.83H9m1.41-2h0M9.82,3.32h0m2.68.5h0m.88,1.94h0M13.88,8h0m2.23-1.07h0M20,3h0M20.75.71h0M17.6,2.29h0M15,3.78h0m-1.25-2h0M13.71-.86h0M10.56,1h0m8-1.82h0m-8.36-.41h0"/><path class="cls-1" d="M34.66,2.29h0M54.12,5.68h0M52.38,3.94h0m-.66-2.23h0M49,.63h0m2.23,5.3h0M49.57,7.75h0m-.91-2.32h0M47.17,7.58h0"/><path class="cls-2" d="M11,24.38a.78.78,0,1,0-.85-.78A.82.82,0,0,0,11,24.38Zm1.45-7.31a.86.86,0,1,0-.94-.86A.9.9,0,0,0,12.44,17.07ZM18.13,12a.94.94,0,1,0-1-.94A1,1,0,0,0,18.13,12ZM11.56,9.77a.92.92,0,0,0,1-.78.92.92,0,0,0-1-.78.93.93,0,0,0-1,.78A.93.93,0,0,0,11.56,9.77ZM24.88,28.52a.72.72,0,1,0-.86-.7A.79.79,0,0,0,24.88,28.52ZM17.3,5.43a.9.9,0,0,0,.94-.86.94.94,0,0,0-1.88,0A.9.9,0,0,0,17.3,5.43Zm5.58-2.84a.9.9,0,0,0,.85-.94.86.86,0,1,0-1.71,0A.9.9,0,0,0,22.88,2.59Zm7.23-3a.79.79,0,0,0,.86-.7.79.79,0,0,0-.86-.7.79.79,0,0,0-.86.7A.79.79,0,0,0,30.11-.46Zm13.47.24A.86.86,0,0,0,44.51-1a.86.86,0,0,0-.93-.78.87.87,0,0,0-.94.78A.87.87,0,0,0,43.58-.22Zm11.2,3c.52,0,.94-.31.94-.7s-.42-.7-.94-.7-.93.32-.93.7S54.27,2.79,54.78,2.79ZM49.43,4.05a.9.9,0,0,0,.94-.85.94.94,0,0,0-1.88,0A.9.9,0,0,0,49.43,4.05ZM37.78,3.17a.9.9,0,0,0,.94-.86.94.94,0,0,0-1.88,0A.9.9,0,0,0,37.78,3.17ZM30,6.37a.86.86,0,1,0-.86-.86A.86.86,0,0,0,30,6.37ZM23.87,9.6a.78.78,0,1,0-.78-.78A.78.78,0,0,0,23.87,9.6Zm30.75.58a.86.86,0,1,0-.78-.86A.83.83,0,0,0,54.62,10.18ZM43.19,6.46a.82.82,0,0,0,.86-.78.86.86,0,0,0-1.72,0A.83.83,0,0,0,43.19,6.46ZM36.12,9.57a.91.91,0,0,0,.94-.86.94.94,0,1,0-.94.86ZM30.38,13a.94.94,0,1,0-.93-.93A.94.94,0,0,0,30.38,13Zm-5.46,3a.77.77,0,0,0,.78-.77.78.78,0,1,0-1.56,0A.77.77,0,0,0,24.92,16.05Zm-6.24,3.37a.78.78,0,1,0-.86-.78A.83.83,0,0,0,18.68,19.42Zm-1.44,6.33a.94.94,0,1,0-.85-.93A.9.9,0,0,0,17.24,25.75Zm6.46-2.06a.86.86,0,1,0-.78-.86A.83.83,0,0,0,23.7,23.69Zm24.51-12.8a.86.86,0,1,0-.85-.85A.85.85,0,0,0,48.21,10.89ZM42,12.71a.86.86,0,1,0-.78-.85A.82.82,0,0,0,42,12.71Zm-4.91,4.66a.94.94,0,1,0-.94-.94A.94.94,0,0,0,37.12,17.37Zm-6.46,4.17a.86.86,0,1,0-.86-.86A.87.87,0,0,0,30.66,21.54Zm1,6.12a.86.86,0,1,0-.93-.86A.9.9,0,0,0,31.65,27.66Zm5.63-2.92a.86.86,0,1,0-.78-.86A.82.82,0,0,0,37.28,24.74Zm6.57-4.19a.86.86,0,1,0-.86-.86A.86.86,0,0,0,43.85,20.55Zm-.6,6.26a.78.78,0,1,0-.86-.78A.83.83,0,0,0,43.25,26.81ZM48.9,17A.94.94,0,1,0,48,16.1.94.94,0,0,0,48.9,17Zm1.16,6.7a.94.94,0,1,0-.93-.94A.94.94,0,0,0,50.06,23.74Z"/></svg>