<svg id="Capa_1" data-name="Capa 1" xmlns="http://www.w3.org/2000/svg" viewBox="0 0 54.03 44.57"><defs><style>.cls-1{fill:#c5d2d0;}.cls-2,.cls-3,.cls-4{stroke:#000;stroke-linecap:round;}.cls-2{stroke-width:0.21px;}.cls-3{fill:none;stroke-width:0.3px;}.cls-4{stroke-width:0.2px;}</style></defs><title>603 Grava o conglomerado con estratificación cruzada</title><path class="cls-1" d="M-.23,44.42c-2.56,0-4.59-.13-7.21-.3-1.44-.09-3.08-.2-5.07-.3v-.3c2,.1,3.62.21,5.07.3a91.54,91.54,0,0,0,14.81,0v.31C4.17,44.34,1.81,44.42-.23,44.42Zm9.05-.65-.22-.21,2-2.15c-3.84,0-8.37,0-13-.16h0c-3.09-.11-6.22-.29-9.26-.56v-.3c3,.26,6.08.44,9.12.56l1.7-2a120,120,0,0,1-15.37-1.55v-.29A121.54,121.54,0,0,0-.51,38.74h0c3.7.1,7.32-.08,9.1-.19a46.09,46.09,0,0,1-5-1.46,102.88,102.88,0,0,1-17.17-1.5l.05-.3A108.82,108.82,0,0,0,2.68,36.8h.17c-3.56-1.4-6.77-2.78-9.46-4l.12-.28C-3.94,33.68-.92,35,2.42,36.31l3-3.2a80.9,80.9,0,0,1-8.7-3.67q-4.41.72-8.36,1.16v-.3c4.19-.46,8.83-1.18,13.78-2.14,1.26-.24,2.53-.5,3.79-.77v0c2.28-.48,4.6-1,6.92-1.56h0l2.23-.54c1.72-.43,3.47-.88,5.22-1.35h-.05l2.95-3.33c-7.24,1.65-16.64,3.57-26.38,5v-.3C-.4,24.91,2.35,24.47,5,24l-.11-.1,2.81-3.18a223.56,223.56,0,0,1-23.86,1v-.3c4.44,0,8.93,0,13.32-.25h0l3.49-4H.62c-3.7,0-7.58-.11-11.58-.33v-.3c14.89.83,28.24.08,35.93-2-1.6-.28-3.22-.6-4.85-.93-6.3,1.21-20.79,1.48-36.34-.36V13a185.15,185.15,0,0,0,26,1.27h0l2.09-2.4-2-.48v.05c-4.38.86-10.48.87-18.13.06v-.3c7.32.78,13.2.79,17.51,0-1.89-.47-3.8-1-5.72-1.51a55.59,55.59,0,0,1-10.32.15v-.3a54.8,54.8,0,0,0,9.5-.07C-3.58,7.7-10,5.67-16.38,3.45l.1-.29c1.71.61,3.42,1.19,5.13,1.76v-.1c3.25-.38,7.6-1.16,12.34-2.19h0L3.41.33C-6,1.8-14.06,2.62-16.17,2.82v-.3A334.39,334.39,0,0,0,18.59-2.77l.06.29C13.76-1.4,8.65-.5,3.89.25L1.75,2.54c1.31-.29,2.64-.6,4-.92l.06-.12L6,1.57C8.16,1,10.41.47,12.63-.13h.06C16-1,19.21-2,22.24-3v.14l.1-.14c1.86.81,7,3,14.38,5.61L38,2.53v.3l-.64.06.67.24-.1.28-1-.34-.35-.13.05-.14-.05.14C29.3.31,24.18-1.83,22.28-2.66c-1.18.38-2.38.75-3.6,1.12,1.61.65,3,1.26,4.38,1.85A58,58,0,0,0,38,5v.3A53.15,53.15,0,0,1,27.7,2.52l-2,2.23A109.3,109.3,0,0,0,38,8.16v.29A109.5,109.5,0,0,1,25.41,5h0c-2.51-.85-4.85-1.72-6.93-2.52L16.06,5.14a188.34,188.34,0,0,0,22,4.92v.29c-4.83-.77-9.9-1.81-14.65-3l.17.15-2.4,2.62c1.54.34,3.1.66,4.69,1,3.87.75,8,1.38,12.13,1.88v.3l-1-.12h0l-2.41,2.58c1.16.14,2.32.28,3.45.4v.3c-1.84-.2-3.73-.43-5.62-.69-5.9,2.16-14.29,3.82-24.27,4.82L5.22,23.88C21.3,21.07,34.81,17.42,36.53,17v0L38,16.54l.09.29-1.41.4L34.32,19.8c1.29-.42,2.51-.83,3.65-1.22l.09.29c-2.08.72-4.5,1.5-7,2.28,1.53.07,3.11.12,4.72.15H38v.3H35.93L31.09,27c2.16-.05,4.48-.17,6.91-.35V27c-3.06.23-5.94.36-8.55.37,0,0-2.92-.1-5.09-.29h0a46.07,46.07,0,0,1-9.26-1.48L13,26.1l-2.52,2.84a66.78,66.78,0,0,0,10.9,1.59V30.4l.54.18,2.15.14h.24C27,30.9,32,30.9,32,30.9c1.86,0,3.87,0,6-.2V31l-.76.05.81.35-.12.28-1.13-.49v-.12l-1.8.09-2.23,2.56c1.7.4,3.48.77,5.29,1.11v.29c-1.91-.35-3.77-.75-5.55-1.17v0c-2.11-.49-4.17-1-6.14-1.63l-4.45-1.44c-7.3-.53-12.68-1.6-16-3.18L4.33,28c5,2.35,16.91,5.73,17,5.77,6,1.44,11.6,2.59,16.67,3.39v.3c-5.08-.81-10.7-2-16.7-3.4l-2.83-.83L16,36c4,1,6.71,1.51,6.77,1.52,4.7,1,9.84,1.79,15.3,2.4v.3c-5.14-.57-10-1.32-14.46-2.22l.1.08-2.55,3.06,1.17.33h0l4.08.8v.13h0v-.14c2.93.35,6.72.68,10.66.94h0l1,.06v.31l-1-.07h0c-3.94-.26-7.73-.59-10.67-.94h-.06l-4.18-.81h0c-.85-.25-1.87-.51-3-.78v.25c-1.83.07-4.66.15-8.07.19Zm17.51-1.32ZM-2.17,41c8.79.32,17.08.11,21.06,0-1.32-.32-2.79-.65-4.29-1-1.88-.43-3.78-.86-5.53-1.28v.15c-1.52.1-5.48.33-9.52.22Zm5.85-4.2a99.22,99.22,0,0,0,11,2.85c2.28.52,4.47,1,6.22,1.46L20.8,41l2.55-3-.68-.14a119.3,119.3,0,0,1-17-4.62l-3,3.21,1,.37ZM.14,30.71a108.1,108.1,0,0,0,15.49,5.23l2.51-2.79c-4-1.2-10.87-3.36-14.19-5v-.08l-1.79.36ZM23.08,31l3.31,1c1.93.58,4,1.12,6,1.61l2.15-2.47H32s-5.07,0-7.72-.17H24ZM-2.8,29.35q1.3.64,2.64,1.23l1.85-2C.16,28.84-1.34,29.11-2.8,29.35ZM6.37,27.6a24.42,24.42,0,0,0,3.73,1.26l2.34-2.64C10.41,26.71,8.37,27.17,6.37,27.6Zm9.28-2.16a49.38,49.38,0,0,0,8.72,1.32h0c2.17.19,5.05.29,5.08.29h1.2L35.5,21.6c-1.82,0-3.61-.1-5.31-.19C25.49,22.84,20.47,24.23,15.65,25.44Zm8-5-3,3.38c3.19-.86,6.37-1.77,9.42-2.7h0c1.28-.39,2.55-.79,3.76-1.18l-.06-.05,2.26-2.51C34.46,17.82,29.91,19,23.69,20.44ZM1.09,17.2l-3.54,3.87c3.56-.17,7.06-.43,10.42-.76H8q3.47-.35,6.65-.8h0l2.64-3.17A137,137,0,0,1,1.09,17.2Zm16.63-.95-2.66,3.2a90.7,90.7,0,0,0,16.68-3.77q-3-.43-6.18-1h0A55,55,0,0,1,17.72,16.25ZM23.52,14c3,.57,6,1.05,8.86,1.45l2,.27-.08-.08,2.37-2.53c-3.69-.46-7.32-1-10.81-1.69Zm8.79,1.46v0ZM12.24,11.89l-2.05,2.36a75.6,75.6,0,0,0,9.14-.76Q15.84,12.76,12.24,11.89ZM3.92,9.44q10,2.74,19.27,4.56h0l2.31-2.57A131.8,131.8,0,0,1,4.32,5.6L1.47,8.75l2.2.62h.24ZM9.17,7q5.49,1.75,11.62,3.13h0l2.48-2.7C19,6.33,15,5.2,11.65,4.09l.06.06ZM-10.49,5.1C-6.6,6.35-2.7,7.56,1.15,8.66L4,5.49C2.28,4.84.58,4.15-1,3.44h0c-3.6.73-6.87,1.29-9.49,1.62Zm14.82.23c1.48.55,3,1.08,4.59,1.59h0L11.43,4A50.87,50.87,0,0,1,5.92,1.89c-2.21.53-4.38,1-6.45,1.44C1,4,2.66,4.67,4.33,5.29v0ZM6.39,1.77a77.3,77.3,0,0,0,9.35,3.28l2.44-2.69C16.67,1.77,15.3,1.22,14.11.74L12.69.16C10.6.73,8.48,1.27,6.39,1.77ZM25.45,4.88Zm0,0ZM13.17,0l1.06.43C17.08,1.61,21,3.18,25.41,4.68l2-2.24C25.93,1.87,24.5,1.25,23,.58s-3-1.28-4.72-2h0C16.57-.92,14.88-.44,13.17,0Z"/><path class="cls-1" d="M26,56A132.32,132.32,0,0,1,4.58,50.14L1.74,53.28,4,53.91l-.08.29C-2.67,52.39-9.35,50.29-16,48l.1-.28q2.55.9,5.12,1.75v-.06c3.25-.39,7.6-1.17,12.34-2.2h0l2.3-2.45c-8,1.29-15.48,2.26-19.76,2.68v-.3c7.68-.75,24.8-3.22,37-5.89l.06.3c-5.29,1.16-11.3,2.25-17,3.17l.13.12L2,47.07l4-.91L6.06,46l.16.07c2.24-.53,4.48-1.11,6.67-1.7H13c3.29-.89,6.5-1.84,9.54-2.81v.14l.06-.13c1.86.8,7,3,14.37,5.6l1.08-.1h0l2.22-.23h0l2.65-2.91-1.21-.06h0c-1.27-.07-2.5-.13-3.68-.21v-.3l1.77.11h0l2.46-2.72c-1.4-.13-2.81-.27-4.2-.42V40c1.49.16,3,.31,4.49.44h0c3.17.29,6.21.49,9.06.63l1.78-2A123.31,123.31,0,0,1,38,37.48v-.3l.77.12h0l1.56-1.76q-1.19-.2-2.37-.42v-.3c.85.16,1.71.31,2.56.45h.07A108.24,108.24,0,0,0,57.06,36.8q-1.89-.75-3.63-1.47a29.64,29.64,0,0,1-7.33-.81h0A49.23,49.23,0,0,1,38,31.68l.11-.28a50.27,50.27,0,0,0,8,2.81l1.31-1.46-2.09-.92L42.5,30.6c-1.56.17-3.06.3-4.48.4v-.3c1.38-.1,2.86-.23,4.38-.39v-.07l.12.05c1.41-.15,2.87-.34,4.38-.55h0l3.7-4.14c-4.48.64-8.71,1.11-12.57,1.4v-.3c2-.15,4.2-.36,6.44-.61L44.36,26l3.83-4.48c-3.38.11-6.79.15-10.18.12v-.3c4.44,0,8.92,0,13.32-.25h0l3.55-3.88h-.06c-3.68,0-7.55-.11-11.54-.33l-.17.1c-1.16.5-2.9,1.15-5,1.89L38,18.58c2-.67,3.56-1.27,4.68-1.74-1.34-.08-2.7-.17-4-.28l-.36.21-.2.06L38,16.54h.07v-.3h.57c1.52.12,3.07.22,4.61.31l.13-.07v.07c2.27.13,4.51.22,6.7.27l2.2-2.4c-4.5-.2-9.34-.57-14.28-1.15V13c15.53,1.83,30,1.57,36.26.36l.06.29c-4.23.82-12.18,1.21-21.67.82l-2.2,2.39c12.24.26,22.85-.59,29.22-2.41l.08.29c-5.54,1.59-14.28,2.44-24.49,2.47l-3.54,3.87c3.58-.18,7.1-.44,10.48-.77v.3c-4.37.43-9,.74-13.67.9L44.73,26c2-.23,4.06-.49,6.18-.8h0a354.33,354.33,0,0,0,39.74-8.27l.08.29A354.08,354.08,0,0,1,51,25.5l-3.74,4.17q4.26-.6,9-1.52v.15l.12.1-2.09,2.3a114.35,114.35,0,0,0,22.6,6.83c4.68,1,9.82,1.79,15.29,2.4v.3c-5.48-.61-10.63-1.42-15.32-2.4-.14,0-14.31-2.58-26-8.4-2.73.45-5.33.82-7.79,1.09l2.33,1,2.29,1c2.86,1.25,6.3,2.73,10.16,4.24l0,.14v.15A101.73,101.73,0,0,1,40.71,35.6l-1.56,1.76A116.44,116.44,0,0,0,53.7,38.73h0a75.44,75.44,0,0,0,8.77-.19v.3c-2.12.14-5,.29-8.73.2L52,41c8.74.41,15.61.26,18.67.15v.3a235,235,0,0,1-28.08-.79L40.1,43.43l1.57.09h0c5.35.26,12.8.48,20.73.25,3.44-.59,7-1.26,10.4-2l.06.3c-2.73.6-5.54,1.15-8.31,1.64,1.66-.06,3.33-.15,5-.26v.3c-2.39.16-4.79.27-7.14.34-11.17,1.91-21.4,3-24.2,3.26h0l-.64.06.67.24v.07c1.64.58,3.29,1.15,4.94,1.69v-.06a161.61,161.61,0,0,0,16.91-3.24l.07.29c-2.22.53-4.4,1-6.49,1.45,1.56.68,3.19,1.34,4.85,2l-.1.28c-1.81-.67-3.57-1.39-5.25-2.13h0c-3.58.73-6.84,1.29-9.47,1.63,4.75,1.57,9.5,3,14.19,4.31l-.08.29c-3.66-1-7.36-2.12-11.07-3.3V51c-2.17-.2-4.11-.43-5.92-.68L38.52,53l-.22-.2,2.23-2.51-2.48-.39h0a52.46,52.46,0,0,1-10-2.81l-2,2.23a105.37,105.37,0,0,0,12.32,3.37l-.06.3a107.23,107.23,0,0,1-12.57-3.46c-2.51-.84-4.85-1.71-6.93-2.52l-2.42,2.67a185.84,185.84,0,0,0,22,4.91l-.05.3a181.88,181.88,0,0,1-26.35-6.26l.07.06-2.54,2.8A139.92,139.92,0,0,0,26.1,55.66Zm-36.23-6.4c3.9,1.28,7.79,2.49,11.65,3.59L4.28,50c-1.73-.63-3.43-1.32-5-2h0C-4.34,48.7-7.6,49.26-10.23,49.6Zm14.82.22c1.49.55,3,1.09,4.6,1.59h0l2.55-2.81a55,55,0,0,1-5.51-2.14C4,47,1.86,47.46-.21,47.9c1.56.68,3.19,1.34,4.85,2V50ZM40.85,50c1.55.22,3.21.42,5,.6-2.59-.84-5.21-1.73-7.85-2.6v-.07l-1.14-.4,0-.14,0,.14c-7.35-2.63-12.46-4.78-14.37-5.61-1.17.38-2.37.75-3.6,1.12,1.61.65,3,1.26,4.38,1.85a58.1,58.1,0,0,0,15,4.74h0c.8.14,1.66.28,2.55.4ZM6.66,46.31A78.86,78.86,0,0,0,16,49.58l2.44-2.69c-1.51-.59-2.88-1.14-4.07-1.62L13,44.7C10.89,45.25,8.77,45.8,6.66,46.31ZM25.72,49.4ZM13.44,44.57,14.5,45c2.85,1.16,6.75,2.73,11.18,4.22l2-2.24c-1.48-.57-2.92-1.19-4.46-1.85l-4.72-2h0C16.83,43.62,15.15,44.1,13.44,44.57Zm29.89-.68-2.63,2.9c4-.43,11.5-1.32,19.7-2.66-6.4.12-12.4,0-17.11-.24Zm3.13-9.59a29.11,29.11,0,0,0,6.24.7c-1.82-.76-3.49-1.49-5-2.15Zm5-4.94c.87.43,1.76.84,2.65,1.23l1.85-2c-1.57.27-3.09.53-4.56.76ZM56.11,12A94.86,94.86,0,0,1,46,11.43h0c-2.53-.27-5.23-.64-8-1.09v-.29c2.76.44,5.43.81,7.94,1.08l1.24-1.34A76.94,76.94,0,0,1,38,8.44l.07-.29h.22l2.19-2.47c-.87-.12-1.7-.26-2.47-.39V5c.85.15,1.77.3,2.74.43,1.55.22,3.2.42,5,.6Q41.89,4.8,38,3.42l.09-.29q2.56.9,5.13,1.76V4.82A161.56,161.56,0,0,0,60.1,1.58l.07.29c-2.22.53-4.41,1-6.49,1.46,1.55.67,3.18,1.33,4.85,2l-.11.28c-1.8-.67-3.57-1.38-5.24-2.12h0c-3.58.73-6.85,1.3-9.47,1.63,4.76,1.57,9.51,3,14.19,4.31v.3a55.17,55.17,0,0,1-10.28.15l-1.25,1.35c7.49.78,13.45.75,17.74-.09l.06.3A43.48,43.48,0,0,1,56.11,12ZM47.55,9.51a53.94,53.94,0,0,0,9.51-.06Q51.94,8,46.75,6.36v.1c-2.19-.21-4.13-.43-5.92-.69L38.61,8.26A72.82,72.82,0,0,0,47.55,9.51ZM38,2.82v-.3l2.22-.23h0l4-4.39.23.21L40.59,2.25c6-.65,19.81-2.31,32.2-5l.07.29A336.24,336.24,0,0,1,38,2.82Z"/><polygon class="cls-1" points="25.69 30.78 25.42 30.65 27.03 27.24 27.3 27.36 25.69 30.78"/><circle class="cls-2" cx="0.21" cy="21.23" r="0.25"/><circle class="cls-2" cx="1.99" cy="21.05" r="0.25"/><circle class="cls-2" cx="3.78" cy="20.86" r="0.25"/><circle class="cls-2" cx="5.56" cy="20.68" r="0.25"/><circle class="cls-2" cx="7.35" cy="20.49" r="0.25"/><circle class="cls-2" cx="9.13" cy="20.3" r="0.25"/><circle class="cls-2" cx="10.92" cy="20.12" r="0.25"/><circle class="cls-2" cx="12.7" cy="19.93" r="0.25"/><circle class="cls-2" cx="14.49" cy="19.75" r="0.25"/><circle class="cls-2" cx="16.24" cy="19.37" r="0.25"/><circle class="cls-2" cx="17.99" cy="18.96" r="0.25"/><circle class="cls-2" cx="19.73" cy="18.55" r="0.25"/><circle class="cls-2" cx="21.48" cy="18.14" r="0.25"/><circle class="cls-2" cx="23.23" cy="17.74" r="0.25"/><circle class="cls-2" cx="24.98" cy="17.33" r="0.25"/><circle class="cls-2" cx="26.73" cy="16.92" r="0.25"/><circle class="cls-2" cx="28.47" cy="16.51" r="0.25"/><circle class="cls-2" cx="30.22" cy="16.1" r="0.25"/><circle class="cls-2" cx="31.97" cy="15.69" r="0.25"/><path class="cls-3" d="M49.41,14.32c.62-.49-1.15-1.48-1.52-.52S48.56,15,49.41,14.32Z"/><path class="cls-2" d="M51.71,14a.26.26,0,0,1-.25.26A.26.26,0,0,1,51.2,14a.26.26,0,0,1,.26-.25A.25.25,0,0,1,51.71,14Z"/><path class="cls-3" d="M44.25,14c.62-.49-1.15-1.48-1.52-.52S43.4,14.66,44.25,14Z"/><path class="cls-2" d="M46.54,13.69a.25.25,0,1,1-.5,0,.25.25,0,1,1,.5,0Z"/><path class="cls-3" d="M39.09,13.53C39.72,13,38,12.05,37.58,13S38.25,14.2,39.09,13.53Z"/><path class="cls-2" d="M41.39,13.24a.25.25,0,1,1-.25-.25A.25.25,0,0,1,41.39,13.24Z"/><path class="cls-3" d="M34,12.89c.62-.49-1.15-1.48-1.52-.51S33.11,13.56,34,12.89Z"/><path class="cls-2" d="M36.25,12.6a.25.25,0,1,1-.25-.25A.25.25,0,0,1,36.25,12.6Z"/><path class="cls-3" d="M28.87,12c.62-.49-1.15-1.48-1.52-.51S28,12.68,28.87,12Z"/><path class="cls-2" d="M31.16,11.72a.25.25,0,1,1-.25-.25A.25.25,0,0,1,31.16,11.72Z"/><path class="cls-3" d="M23.78,11.07c.62-.49-1.15-1.48-1.52-.52S22.93,11.74,23.78,11.07Z"/><path class="cls-2" d="M26.07,10.77a.25.25,0,1,1-.25-.25A.26.26,0,0,1,26.07,10.77Z"/><path class="cls-3" d="M18.73,10c.63-.49-1.14-1.48-1.51-.51S17.89,10.63,18.73,10Z"/><path class="cls-2" d="M21,9.67a.25.25,0,1,1-.5,0,.25.25,0,1,1,.5,0Z"/><path class="cls-3" d="M13.81,8.38c.62-.49-1.15-1.48-1.52-.52S13,9.05,13.81,8.38Z"/><path class="cls-2" d="M16.1,8.08a.25.25,0,1,1-.5,0,.25.25,0,0,1,.5,0Z"/><path class="cls-3" d="M8.88,6.81c.62-.49-1.15-1.48-1.52-.52S8,7.48,8.88,6.81Z"/><path class="cls-2" d="M11.17,6.51a.25.25,0,1,1-.25-.25A.25.25,0,0,1,11.17,6.51Z"/><path class="cls-3" d="M4,5.17c.63-.49-1.14-1.48-1.51-.52S3.12,5.84,4,5.17Z"/><path class="cls-2" d="M6.26,4.88A.25.25,0,1,1,6,4.62.25.25,0,0,1,6.26,4.88Z"/><path class="cls-2" d="M1.32,3.34a.25.25,0,0,1-.5,0,.26.26,0,0,1,.25-.26A.26.26,0,0,1,1.32,3.34Z"/><path class="cls-2" d="M42.45,17.07a.25.25,0,1,1-.25-.25A.25.25,0,0,1,42.45,17.07Z"/><path class="cls-2" d="M40.62,17.82a.25.25,0,0,1-.5,0,.25.25,0,1,1,.5,0Z"/><path class="cls-2" d="M38.8,18.56a.26.26,0,1,1-.51,0,.26.26,0,0,1,.51,0Z"/><path class="cls-2" d="M36.93,19.21a.25.25,0,1,1-.25-.25A.25.25,0,0,1,36.93,19.21Z"/><path class="cls-2" d="M35,19.77a.25.25,0,1,1-.5,0,.25.25,0,1,1,.5,0Z"/><path class="cls-2" d="M33.15,20.32a.26.26,0,0,1-.26.26.26.26,0,0,1-.25-.26.25.25,0,0,1,.25-.25A.26.26,0,0,1,33.15,20.32Z"/><path class="cls-2" d="M31.25,20.88a.25.25,0,1,1-.25-.25A.25.25,0,0,1,31.25,20.88Z"/><path class="cls-2" d="M29.36,21.43a.26.26,0,1,1-.25-.25A.26.26,0,0,1,29.36,21.43Z"/><path class="cls-2" d="M27.46,22a.25.25,0,1,1-.25-.25A.25.25,0,0,1,27.46,22Z"/><path class="cls-2" d="M25.57,22.55a.25.25,0,0,1-.25.25.26.26,0,0,1-.26-.25.26.26,0,0,1,.26-.26A.26.26,0,0,1,25.57,22.55Z"/><path class="cls-2" d="M23.68,23.1a.26.26,0,0,1-.26.26.26.26,0,0,1-.25-.26.25.25,0,0,1,.25-.25A.26.26,0,0,1,23.68,23.1Z"/><path class="cls-2" d="M21.78,23.65a.26.26,0,1,1-.25-.25A.25.25,0,0,1,21.78,23.65Z"/><path class="cls-2" d="M19.86,24.11a.26.26,0,0,1-.25.26.26.26,0,0,1-.26-.26.26.26,0,0,1,.26-.25A.25.25,0,0,1,19.86,24.11Z"/><path class="cls-2" d="M17.94,24.58a.25.25,0,1,1-.25-.25A.25.25,0,0,1,17.94,24.58Z"/><path class="cls-2" d="M16,25a.25.25,0,1,1-.25-.25A.26.26,0,0,1,16,25Z"/><path class="cls-2" d="M14.1,25.51a.25.25,0,1,1-.25-.25A.25.25,0,0,1,14.1,25.51Z"/><path class="cls-2" d="M12.19,26a.26.26,0,0,1-.26.25.25.25,0,0,1-.25-.25.26.26,0,0,1,.25-.26A.26.26,0,0,1,12.19,26Z"/><path class="cls-2" d="M10.27,26.44a.26.26,0,0,1-.26.25.25.25,0,0,1,0-.5A.26.26,0,0,1,10.27,26.44Z"/><path class="cls-2" d="M8.35,26.91a.26.26,0,0,1-.51,0,.26.26,0,1,1,.51,0Z"/><path class="cls-2" d="M6.43,27.37a.25.25,0,0,1-.25.25.25.25,0,1,1,0-.5A.25.25,0,0,1,6.43,27.37Z"/><path class="cls-2" d="M4.51,27.84a.25.25,0,0,1-.5,0,.25.25,0,1,1,.5,0Z"/><path class="cls-2" d="M2.59,28.3a.25.25,0,1,1-.5,0,.25.25,0,0,1,.5,0Z"/><path class="cls-2" d="M.67,28.77A.25.25,0,0,1,.42,29a.25.25,0,1,1,0-.5A.25.25,0,0,1,.67,28.77Z"/><circle class="cls-2" cx="28.02" cy="14.9" r="0.25"/><circle class="cls-2" cx="26.25" cy="14.56" r="0.25"/><circle class="cls-2" cx="24.49" cy="14.21" r="0.25"/><circle class="cls-2" cx="22.73" cy="13.87" r="0.25"/><circle class="cls-2" cx="20.97" cy="13.53" r="0.25"/><circle class="cls-2" cx="19.21" cy="13.19" r="0.25"/><circle class="cls-2" cx="17.45" cy="12.85" r="0.25"/><circle class="cls-2" cx="15.68" cy="12.5" r="0.25"/><circle class="cls-2" cx="13.92" cy="12.15" r="0.25"/><circle class="cls-2" cx="12.17" cy="11.77" r="0.25"/><circle class="cls-2" cx="10.44" cy="11.3" r="0.25"/><circle class="cls-2" cx="8.71" cy="10.83" r="0.25"/><circle class="cls-2" cx="6.97" cy="10.37" r="0.25"/><circle class="cls-2" cx="5.24" cy="9.9" r="0.25"/><circle class="cls-2" cx="3.51" cy="9.43" r="0.25"/><circle class="cls-2" cx="1.77" cy="8.96" r="0.25"/><circle class="cls-2" cx="0.04" cy="8.49" r="0.25"/><circle class="cls-2" cx="52.44" cy="16.97" r="0.25"/><circle class="cls-2" cx="50.64" cy="16.9" r="0.25"/><circle class="cls-2" cx="48.85" cy="16.84" r="0.25"/><circle class="cls-2" cx="47.06" cy="16.77" r="0.25"/><circle class="cls-2" cx="45.27" cy="16.68" r="0.25"/><circle class="cls-2" cx="43.48" cy="16.55" r="0.25"/><circle class="cls-2" cx="41.69" cy="16.42" r="0.25"/><circle class="cls-2" cx="39.9" cy="16.28" r="0.25"/><circle class="cls-2" cx="38.11" cy="16.15" r="0.25"/><circle class="cls-2" cx="36.32" cy="16.02" r="0.25"/><circle class="cls-2" cx="34.53" cy="15.88" r="0.25"/><path class="cls-3" d="M50.61,44.2c.62-.49-1.14-1.48-1.52-.51S49.76,44.87,50.61,44.2Z"/><path class="cls-3" d="M45.44,44.14c.62-.49-1.15-1.48-1.52-.52S44.59,44.81,45.44,44.14Z"/><path class="cls-2" d="M47.73,43.84a.25.25,0,1,1-.25-.25A.25.25,0,0,1,47.73,43.84Z"/><path class="cls-3" d="M40.28,43.86c.62-.49-1.15-1.48-1.52-.52S39.43,44.53,40.28,43.86Z"/><path class="cls-2" d="M42.57,43.56a.25.25,0,1,1-.25-.25A.25.25,0,0,1,42.57,43.56Z"/><path class="cls-3" d="M35.12,43.41c.62-.49-1.15-1.48-1.52-.52S34.27,44.08,35.12,43.41Z"/><path class="cls-2" d="M37.42,43.11a.26.26,0,0,1-.26.26.26.26,0,0,1-.25-.26.25.25,0,0,1,.25-.25A.26.26,0,0,1,37.42,43.11Z"/><path class="cls-3" d="M30,43c.62-.49-1.14-1.48-1.52-.52S29.11,43.64,30,43Z"/><path class="cls-2" d="M32.26,42.67a.26.26,0,0,1-.25.26.26.26,0,0,1-.26-.26.26.26,0,0,1,.26-.25A.25.25,0,0,1,32.26,42.67Z"/><path class="cls-3" d="M24.85,42.18c.62-.49-1.15-1.48-1.52-.52S24,42.85,24.85,42.18Z"/><path class="cls-2" d="M27.15,41.88a.26.26,0,1,1-.51,0,.26.26,0,0,1,.51,0Z"/><path class="cls-3" d="M19.78,41.23c.62-.49-1.15-1.48-1.52-.52S18.93,41.9,19.78,41.23Z"/><path class="cls-2" d="M22.07,40.93a.25.25,0,1,1-.5,0,.25.25,0,0,1,.5,0Z"/><path class="cls-3" d="M14.77,39.9c.63-.49-1.14-1.48-1.52-.52S13.92,40.57,14.77,39.9Z"/><path class="cls-2" d="M17.07,39.6a.25.25,0,1,1-.5,0,.25.25,0,0,1,.5,0Z"/><path class="cls-3" d="M9.78,38.53c.63-.49-1.14-1.48-1.52-.52S8.93,39.2,9.78,38.53Z"/><path class="cls-2" d="M12.08,38.23a.25.25,0,0,1-.25.25.25.25,0,1,1,0-.5A.25.25,0,0,1,12.08,38.23Z"/><path class="cls-3" d="M4.8,37.12c.62-.49-1.14-1.48-1.52-.52S4,37.79,4.8,37.12Z"/><path class="cls-2" d="M7.1,36.82a.26.26,0,0,1-.25.26.26.26,0,0,1-.26-.26.26.26,0,0,1,.26-.25A.25.25,0,0,1,7.1,36.82Z"/><path class="cls-3" d="M-.18,35.7c.63-.49-1.14-1.48-1.52-.51S-1,36.37-.18,35.7Z"/><path class="cls-2" d="M2.12,35.41a.25.25,0,1,1-.25-.25A.25.25,0,0,1,2.12,35.41Z"/><path class="cls-2" d="M52.75,41.28a.25.25,0,1,1-.5,0,.25.25,0,0,1,.5,0Z"/><path class="cls-2" d="M50.78,41.17a.25.25,0,0,1-.5,0,.25.25,0,1,1,.5,0Z"/><path class="cls-2" d="M48.81,41.05a.25.25,0,1,1-.25-.25A.25.25,0,0,1,48.81,41.05Z"/><path class="cls-2" d="M46.84,40.93a.25.25,0,1,1-.25-.25A.25.25,0,0,1,46.84,40.93Z"/><path class="cls-2" d="M44.87,40.81a.25.25,0,1,1-.25-.25A.26.26,0,0,1,44.87,40.81Z"/><path class="cls-2" d="M42.9,40.69a.25.25,0,1,1-.25-.25A.25.25,0,0,1,42.9,40.69Z"/><path class="cls-2" d="M40.94,40.42a.25.25,0,1,1-.25-.25A.25.25,0,0,1,40.94,40.42Z"/><path class="cls-2" d="M39,40.15a.26.26,0,0,1-.25.26.26.26,0,0,1-.26-.26.26.26,0,0,1,.26-.25A.25.25,0,0,1,39,40.15Z"/><path class="cls-2" d="M37,39.89a.25.25,0,0,1-.5,0,.25.25,0,1,1,.5,0Z"/><path class="cls-2" d="M35.08,39.62a.26.26,0,0,1-.26.25.25.25,0,0,1,0-.5A.26.26,0,0,1,35.08,39.62Z"/><path class="cls-2" d="M33.12,39.35a.25.25,0,1,1-.25-.25A.25.25,0,0,1,33.12,39.35Z"/><path class="cls-2" d="M31.17,39.05a.25.25,0,0,1-.5,0,.25.25,0,1,1,.5,0Z"/><path class="cls-2" d="M29.23,38.69a.25.25,0,0,1-.25.25.26.26,0,1,1,0-.51A.26.26,0,0,1,29.23,38.69Z"/><path class="cls-2" d="M27.29,38.32a.26.26,0,0,1-.25.26.26.26,0,0,1-.26-.26.26.26,0,0,1,.26-.25A.25.25,0,0,1,27.29,38.32Z"/><path class="cls-2" d="M25.35,38a.26.26,0,1,1-.51,0,.26.26,0,0,1,.51,0Z"/><path class="cls-2" d="M23.41,37.6a.26.26,0,0,1-.26.25.25.25,0,0,1,0-.5A.26.26,0,0,1,23.41,37.6Z"/><path class="cls-2" d="M21.47,37.24a.26.26,0,0,1-.26.25.25.25,0,0,1,0-.5A.26.26,0,0,1,21.47,37.24Z"/><path class="cls-2" d="M19.53,36.88a.26.26,0,0,1-.26.25.25.25,0,0,1,0-.5A.26.26,0,0,1,19.53,36.88Z"/><path class="cls-2" d="M17.6,36.46a.26.26,0,0,1-.26.26.26.26,0,0,1-.25-.26.25.25,0,0,1,.25-.25A.26.26,0,0,1,17.6,36.46Z"/><path class="cls-2" d="M15.69,35.93a.25.25,0,1,1-.5,0,.25.25,0,0,1,.5,0Z"/><path class="cls-2" d="M13.79,35.41a.25.25,0,1,1-.25-.26A.25.25,0,0,1,13.79,35.41Z"/><path class="cls-2" d="M11.89,34.88a.25.25,0,0,1-.5,0,.25.25,0,1,1,.5,0Z"/><path class="cls-2" d="M10,34.35a.25.25,0,0,1-.25.25.26.26,0,0,1-.26-.25.26.26,0,0,1,.26-.26A.26.26,0,0,1,10,34.35Z"/><path class="cls-2" d="M8.09,33.82a.26.26,0,0,1-.26.25.25.25,0,0,1-.25-.25.26.26,0,0,1,.25-.26A.26.26,0,0,1,8.09,33.82Z"/><path class="cls-2" d="M6.24,33.14a.26.26,0,0,1-.26.25.25.25,0,0,1,0-.5A.26.26,0,0,1,6.24,33.14Z"/><path class="cls-2" d="M4.42,32.36a.25.25,0,1,1-.25-.25A.25.25,0,0,1,4.42,32.36Z"/><path class="cls-2" d="M2.61,31.58a.25.25,0,0,1-.25.25.25.25,0,1,1,0-.5A.25.25,0,0,1,2.61,31.58Z"/><path class="cls-2" d="M.8,30.8a.26.26,0,0,1-.26.25.25.25,0,1,1,0-.5A.26.26,0,0,1,.8,30.8Z"/><path class="cls-2" d="M52.91,29a.26.26,0,0,1-.26.26.26.26,0,0,1,0-.51A.26.26,0,0,1,52.91,29Z"/><path class="cls-2" d="M49,29.71a.26.26,0,0,1-.26.25.25.25,0,0,1,0-.5A.26.26,0,0,1,49,29.71Z"/><path class="cls-2" d="M47.07,30.05a.25.25,0,1,1-.5,0,.25.25,0,0,1,.5,0Z"/><path class="cls-2" d="M45.12,30.33a.25.25,0,1,1-.5,0,.25.25,0,1,1,.5,0Z"/><path class="cls-2" d="M43.15,30.48a.25.25,0,1,1-.25-.25A.25.25,0,0,1,43.15,30.48Z"/><path class="cls-2" d="M41.18,30.63a.25.25,0,1,1-.25-.25A.25.25,0,0,1,41.18,30.63Z"/><path class="cls-2" d="M39.21,30.78a.25.25,0,1,1-.5,0,.25.25,0,1,1,.5,0Z"/><path class="cls-2" d="M37.24,30.88a.25.25,0,1,1-.25-.25A.25.25,0,0,1,37.24,30.88Z"/><path class="cls-2" d="M35.27,30.94a.25.25,0,1,1-.25-.25A.25.25,0,0,1,35.27,30.94Z"/><path class="cls-2" d="M33.3,31a.26.26,0,0,1-.26.25.25.25,0,1,1,0-.5A.26.26,0,0,1,33.3,31Z"/><path class="cls-2" d="M31.32,31.06a.25.25,0,1,1-.25-.25A.25.25,0,0,1,31.32,31.06Z"/><path class="cls-2" d="M29.35,31.12a.25.25,0,1,1-.25-.25A.25.25,0,0,1,29.35,31.12Z"/><path class="cls-2" d="M27.38,31.05a.25.25,0,0,1-.25.25.25.25,0,1,1,0-.5A.25.25,0,0,1,27.38,31.05Z"/><path class="cls-2" d="M25.41,30.92a.26.26,0,0,1-.25.26.26.26,0,0,1-.26-.26.26.26,0,0,1,.26-.25A.25.25,0,0,1,25.41,30.92Z"/><path class="cls-2" d="M23.44,30.8a.25.25,0,0,1-.25.25.26.26,0,0,1-.26-.25.26.26,0,0,1,.26-.26A.26.26,0,0,1,23.44,30.8Z"/><path class="cls-2" d="M21.47,30.67a.25.25,0,0,1-.25.25.25.25,0,1,1,0-.5A.25.25,0,0,1,21.47,30.67Z"/><path class="cls-2" d="M19.5,30.54a.25.25,0,0,1-.25.25.25.25,0,1,1,0-.5A.25.25,0,0,1,19.5,30.54Z"/><path class="cls-2" d="M17.53,30.42a.25.25,0,0,1-.25.25.26.26,0,1,1,0-.51A.26.26,0,0,1,17.53,30.42Z"/><path class="cls-2" d="M15.59,30.08a.25.25,0,0,1-.25.25.26.26,0,0,1-.26-.25.26.26,0,0,1,.26-.26A.26.26,0,0,1,15.59,30.08Z"/><path class="cls-2" d="M13.66,29.66a.25.25,0,0,1-.25.25.26.26,0,1,1,0-.51A.26.26,0,0,1,13.66,29.66Z"/><path class="cls-2" d="M11.73,29.23a.25.25,0,1,1-.5,0,.25.25,0,0,1,.5,0Z"/><path class="cls-2" d="M9.8,28.81a.25.25,0,1,1-.25-.25A.25.25,0,0,1,9.8,28.81Z"/><path class="cls-2" d="M7.87,28.39a.25.25,0,1,1-.25-.25A.25.25,0,0,1,7.87,28.39Z"/><path class="cls-3" d="M53,25.29c.62-.49-1.15-1.48-1.52-.52S52.15,26,53,25.29Z"/><path class="cls-3" d="M47.89,26.07c.62-.49-1.15-1.48-1.52-.51S47,26.74,47.89,26.07Z"/><path class="cls-2" d="M50.19,25.78a.26.26,0,0,1-.26.25.25.25,0,0,1-.25-.25.26.26,0,0,1,.25-.26A.26.26,0,0,1,50.19,25.78Z"/><path class="cls-3" d="M42.74,26.61c.62-.49-1.15-1.47-1.52-.51S41.89,27.28,42.74,26.61Z"/><path class="cls-2" d="M45,26.32a.25.25,0,0,1-.25.25.25.25,0,1,1,0-.5A.25.25,0,0,1,45,26.32Z"/><path class="cls-3" d="M37.6,27.11c.62-.49-1.15-1.48-1.52-.52S36.75,27.78,37.6,27.11Z"/><path class="cls-2" d="M39.9,26.81a.26.26,0,1,1-.51,0,.26.26,0,0,1,.51,0Z"/><path class="cls-3" d="M32.42,27.18c.63-.49-1.14-1.48-1.51-.51S31.58,27.85,32.42,27.18Z"/><path class="cls-2" d="M34.72,26.89a.25.25,0,0,1-.5,0,.25.25,0,1,1,.5,0Z"/><path class="cls-3" d="M27.25,27.23c.62-.49-1.15-1.48-1.52-.52S26.4,27.9,27.25,27.23Z"/><path class="cls-2" d="M29.55,26.93a.26.26,0,0,1-.26.26.26.26,0,0,1,0-.51A.26.26,0,0,1,29.55,26.93Z"/><path class="cls-3" d="M22.09,26.88c.63-.49-1.14-1.48-1.51-.51S21.24,27.55,22.09,26.88Z"/><path class="cls-2" d="M24.39,26.59a.25.25,0,1,1-.5,0,.25.25,0,1,1,.5,0Z"/><path class="cls-3" d="M17,26.27c.63-.49-1.14-1.48-1.51-.52S16.11,26.94,17,26.27Z"/><path class="cls-2" d="M19.25,26a.25.25,0,1,1-.5,0,.25.25,0,1,1,.5,0Z"/><circle class="cls-2" cx="23.35" cy="15.15" r="0.25"/><circle class="cls-2" cx="21.58" cy="15.42" r="0.25"/><circle class="cls-2" cx="19.8" cy="15.69" r="0.25"/><circle class="cls-2" cx="18.03" cy="15.97" r="0.25"/><circle class="cls-2" cx="16.25" cy="16.17" r="0.25"/><circle class="cls-2" cx="14.46" cy="16.37" r="0.25"/><circle class="cls-2" cx="12.68" cy="16.58" r="0.25"/><circle class="cls-2" cx="10.9" cy="16.78" r="0.25"/><circle class="cls-2" cx="9.11" cy="16.93" r="0.25"/><circle class="cls-2" cx="7.32" cy="16.93" r="0.25"/><circle class="cls-2" cx="5.52" cy="16.93" r="0.25"/><circle class="cls-2" cx="3.73" cy="16.93" r="0.25"/><circle class="cls-2" cx="1.93" cy="16.93" r="0.25"/><circle class="cls-2" cx="0.14" cy="16.93" r="0.25"/><circle class="cls-2" cx="7.12" cy="11.67" r="0.25"/><circle class="cls-2" cx="5.33" cy="11.8" r="0.25"/><circle class="cls-2" cx="3.54" cy="11.91" r="0.25"/><circle class="cls-2" cx="1.74" cy="11.91" r="0.25"/><circle class="cls-2" cx="-0.05" cy="11.91" r="0.25"/><path class="cls-3" d="M15.5,14.34c.63-.49-1.14-1.48-1.52-.52S14.65,15,15.5,14.34Z"/><path class="cls-2" d="M17.8,14a.26.26,0,0,1-.25.26.26.26,0,0,1-.26-.26.26.26,0,0,1,.26-.25A.25.25,0,0,1,17.8,14Z"/><path class="cls-3" d="M10.34,14.73c.62-.49-1.14-1.48-1.52-.52S9.49,15.4,10.34,14.73Z"/><path class="cls-2" d="M12.64,14.43a.25.25,0,0,1-.25.25.25.25,0,1,1,0-.5A.25.25,0,0,1,12.64,14.43Z"/><path class="cls-3" d="M5.17,14.59c.62-.5-1.15-1.48-1.52-.52S4.32,15.26,5.17,14.59Z"/><path class="cls-2" d="M7.47,14.29a.26.26,0,0,1-.26.25.25.25,0,0,1,0-.5A.26.26,0,0,1,7.47,14.29Z"/><path class="cls-3" d="M0,14.49C.62,14-1.15,13-1.52,14S-.85,15.16,0,14.49Z"/><path class="cls-2" d="M2.29,14.2A.25.25,0,1,1,2,13.94.25.25,0,0,1,2.29,14.2Z"/><path class="cls-3" d="M11.66.44C12.28,0,10.51-1,10.14-.07S10.81,1.11,11.66.44Z"/><path class="cls-2" d="M14,.15A.26.26,0,0,1,13.7.4a.25.25,0,0,1-.25-.25A.25.25,0,0,1,13.7-.1.26.26,0,0,1,14,.15Z"/><path class="cls-3" d="M6.63,1.66c.62-.49-1.15-1.48-1.52-.52S5.78,2.33,6.63,1.66Z"/><path class="cls-2" d="M8.93,1.36a.26.26,0,0,1-.26.26.26.26,0,0,1-.25-.26.25.25,0,0,1,.25-.25A.26.26,0,0,1,8.93,1.36Z"/><path class="cls-3" d="M1.6,2.9C2.23,2.41.46,1.42.08,2.38S.75,3.57,1.6,2.9Z"/><path class="cls-2" d="M3.9,2.6a.25.25,0,0,1-.25.25.25.25,0,1,1,0-.5A.25.25,0,0,1,3.9,2.6Z"/><path class="cls-2" d="M52.18,11.81a.25.25,0,1,1-.5,0,.25.25,0,0,1,.5,0Z"/><path class="cls-2" d="M50.21,11.72a.25.25,0,1,1-.25-.25A.25.25,0,0,1,50.21,11.72Z"/><path class="cls-2" d="M48.25,11.54a.26.26,0,0,1-.26.25.25.25,0,0,1-.25-.25.26.26,0,0,1,.25-.26A.26.26,0,0,1,48.25,11.54Z"/><path class="cls-2" d="M46.28,11.35a.25.25,0,0,1-.25.25.25.25,0,1,1,0-.5A.25.25,0,0,1,46.28,11.35Z"/><path class="cls-2" d="M44.33,11.07a.26.26,0,0,1-.26.26.26.26,0,0,1-.25-.26.25.25,0,0,1,.25-.25A.26.26,0,0,1,44.33,11.07Z"/><path class="cls-2" d="M42.37,10.79a.25.25,0,1,1-.5,0,.25.25,0,0,1,.5,0Z"/><path class="cls-2" d="M40.42,10.51a.26.26,0,1,1-.26-.25A.26.26,0,0,1,40.42,10.51Z"/><path class="cls-2" d="M38.46,10.23a.25.25,0,1,1-.25-.25A.25.25,0,0,1,38.46,10.23Z"/><path class="cls-2" d="M36.51,10a.25.25,0,0,1-.25.25A.26.26,0,0,1,36,10a.26.26,0,0,1,.26-.26A.26.26,0,0,1,36.51,10Z"/><path class="cls-2" d="M34.57,9.59a.25.25,0,0,1-.25.25.25.25,0,1,1,0-.5A.25.25,0,0,1,34.57,9.59Z"/><path class="cls-2" d="M32.64,9.17a.26.26,0,0,1-.25.26.26.26,0,0,1-.26-.26.26.26,0,0,1,.26-.25A.25.25,0,0,1,32.64,9.17Z"/><path class="cls-2" d="M30.71,8.75a.26.26,0,0,1-.25.26.26.26,0,1,1,0-.51A.25.25,0,0,1,30.71,8.75Z"/><path class="cls-2" d="M28.78,8.34a.25.25,0,1,1-.5,0,.25.25,0,1,1,.5,0Z"/><path class="cls-2" d="M26.85,7.92a.25.25,0,1,1-.25-.25A.25.25,0,0,1,26.85,7.92Z"/><path class="cls-2" d="M24.92,7.5a.25.25,0,1,1-.25-.25A.25.25,0,0,1,24.92,7.5Z"/><path class="cls-2" d="M23,7a.26.26,0,0,1-.26.25.25.25,0,0,1,0-.5A.26.26,0,0,1,23,7Z"/><path class="cls-2" d="M21.1,6.51a.25.25,0,0,1-.25.25.25.25,0,1,1,0-.5A.25.25,0,0,1,21.1,6.51Z"/><path class="cls-2" d="M19.19,6a.25.25,0,1,1-.25-.25A.25.25,0,0,1,19.19,6Z"/><path class="cls-2" d="M17.28,5.49a.25.25,0,1,1-.5,0,.25.25,0,0,1,.5,0Z"/><path class="cls-2" d="M15.38,5a.26.26,0,1,1-.51,0,.26.26,0,0,1,.51,0Z"/><path class="cls-2" d="M13.49,4.4a.25.25,0,1,1-.25-.25A.25.25,0,0,1,13.49,4.4Z"/><path class="cls-2" d="M11.62,3.77a.26.26,0,0,1-.25.26.26.26,0,1,1,0-.51A.25.25,0,0,1,11.62,3.77Z"/><path class="cls-2" d="M9.75,3.15a.26.26,0,0,1-.26.25.25.25,0,0,1,0-.5A.26.26,0,0,1,9.75,3.15Z"/><path class="cls-2" d="M7.87,2.53a.25.25,0,1,1-.5,0,.25.25,0,1,1,.5,0Z"/><circle class="cls-2" cx="51.91" cy="9.83" r="0.25"/><circle class="cls-2" cx="50.12" cy="9.75" r="0.25"/><circle class="cls-2" cx="48.32" cy="9.67" r="0.25"/><circle class="cls-2" cx="46.54" cy="9.51" r="0.25"/><circle class="cls-2" cx="44.76" cy="9.27" r="0.25"/><circle class="cls-2" cx="42.98" cy="9.03" r="0.25"/><circle class="cls-2" cx="41.2" cy="8.79" r="0.25"/><circle class="cls-2" cx="39.42" cy="8.55" r="0.25"/><circle class="cls-2" cx="37.66" cy="8.24" r="0.25"/><circle class="cls-2" cx="35.91" cy="7.82" r="0.25"/><circle class="cls-2" cx="34.17" cy="7.39" r="0.25"/><circle class="cls-2" cx="32.43" cy="6.97" r="0.25"/><circle class="cls-2" cx="30.7" cy="6.47" r="0.25"/><circle class="cls-2" cx="28.99" cy="5.94" r="0.25"/><circle class="cls-2" cx="27.27" cy="5.41" r="0.25"/><circle class="cls-2" cx="25.56" cy="4.88" r="0.25"/><circle class="cls-2" cx="23.84" cy="4.35" r="0.25"/><circle class="cls-2" cx="22.13" cy="3.82" r="0.25"/><circle class="cls-2" cx="20.46" cy="3.18" r="0.25"/><circle class="cls-2" cx="18.79" cy="2.52" r="0.25"/><circle class="cls-2" cx="17.12" cy="1.86" r="0.25"/><circle class="cls-2" cx="15.45" cy="1.2" r="0.25"/><circle class="cls-2" cx="13.78" cy="0.54" r="0.25"/><path class="cls-3" d="M41.84,6c.62-.49-1.15-1.48-1.52-.51S41,6.69,41.84,6Z"/><path class="cls-2" d="M44.14,5.73a.26.26,0,0,1-.26.25.25.25,0,0,1,0-.5A.26.26,0,0,1,44.14,5.73Z"/><path class="cls-3" d="M36.74,5.13c.62-.49-1.15-1.48-1.52-.51S35.89,5.8,36.74,5.13Z"/><path class="cls-2" d="M39,4.84a.26.26,0,0,1-.26.25.25.25,0,0,1,0-.5A.26.26,0,0,1,39,4.84Z"/><path class="cls-3" d="M31.7,4c.62-.5-1.15-1.48-1.52-.52S30.85,4.71,31.7,4Z"/><path class="cls-2" d="M34,3.74a.25.25,0,1,1-.25-.25A.25.25,0,0,1,34,3.74Z"/><path class="cls-3" d="M26.74,2.57c.62-.49-1.15-1.48-1.52-.51S25.89,3.24,26.74,2.57Z"/><path class="cls-2" d="M29,2.28A.25.25,0,1,1,28.78,2,.25.25,0,0,1,29,2.28Z"/><path class="cls-3" d="M22.07.33c.62-.49-1.15-1.48-1.52-.51S21.22,1,22.07.33Z"/><path class="cls-2" d="M24.37,0a.25.25,0,0,1-.25.25A.26.26,0,0,1,23.86,0a.26.26,0,0,1,.26-.25A.25.25,0,0,1,24.37,0Z"/><circle class="cls-2" cx="52.27" cy="7.83" r="0.25"/><circle class="cls-2" cx="50.57" cy="7.26" r="0.25"/><circle class="cls-2" cx="48.87" cy="6.68" r="0.25"/><circle class="cls-2" cx="47.17" cy="6.11" r="0.25"/><circle class="cls-2" cx="45.47" cy="5.53" r="0.25"/><circle class="cls-2" cx="43.77" cy="4.95" r="0.25"/><circle class="cls-2" cx="42.07" cy="4.38" r="0.25"/><circle class="cls-2" cx="40.37" cy="3.8" r="0.25"/><circle class="cls-2" cx="38.67" cy="3.23" r="0.25"/><circle class="cls-2" cx="36.97" cy="2.65" r="0.25"/><circle class="cls-2" cx="35.27" cy="2.07" r="0.25"/><circle class="cls-2" cx="33.57" cy="1.5" r="0.25"/><circle class="cls-2" cx="31.87" cy="0.92" r="0.25"/><circle class="cls-2" cx="30.17" cy="0.35" r="0.25"/><path class="cls-3" d="M1.64,24.91c.63-.49-1.14-1.48-1.51-.52S.8,25.58,1.64,24.91Z"/><path class="cls-2" d="M3.94,24.61a.25.25,0,1,1-.25-.25A.25.25,0,0,1,3.94,24.61Z"/><path class="cls-3" d="M6.73,24c.62-.49-1.15-1.48-1.52-.52S5.88,24.62,6.73,24Z"/><path class="cls-2" d="M9,23.66a.25.25,0,0,1-.25.25.26.26,0,0,1-.26-.25.26.26,0,0,1,.26-.26A.26.26,0,0,1,9,23.66Z"/><path class="cls-3" d="M11.82,23c.63-.49-1.14-1.48-1.51-.52S11,23.7,11.82,23Z"/><path class="cls-2" d="M14.12,22.73a.25.25,0,1,1-.5,0,.25.25,0,0,1,.5,0Z"/><path class="cls-3" d="M16.9,22c.63-.49-1.14-1.48-1.52-.52S16.05,22.7,16.9,22Z"/><path class="cls-2" d="M19.2,21.74a.25.25,0,0,1-.5,0,.25.25,0,1,1,.5,0Z"/><path class="cls-3" d="M22,21c.62-.49-1.15-1.48-1.52-.52S21.13,21.67,22,21Z"/><path class="cls-2" d="M24.27,20.7a.25.25,0,1,1-.25-.25A.25.25,0,0,1,24.27,20.7Z"/><path class="cls-3" d="M27,19.71c.62-.49-1.15-1.48-1.52-.52S26.14,20.38,27,19.71Z"/><path class="cls-2" d="M29.29,19.41a.26.26,0,1,1-.26-.25A.26.26,0,0,1,29.29,19.41Z"/><path class="cls-3" d="M32,18.5C32.65,18,30.88,17,30.5,18S31.17,19.17,32,18.5Z"/><path class="cls-2" d="M34.32,18.2a.25.25,0,1,1-.25-.25A.26.26,0,0,1,34.32,18.2Z"/><path class="cls-3" d="M37,17.24c.63-.49-1.14-1.48-1.51-.51S36.2,17.91,37,17.24Z"/><path class="cls-2" d="M39.34,17a.25.25,0,1,1-.25-.25A.25.25,0,0,1,39.34,17Z"/><circle class="cls-2" cx="52.39" cy="1.01" r="0.25"/><circle class="cls-2" cx="50.61" cy="1.24" r="0.25"/><circle class="cls-2" cx="48.83" cy="1.47" r="0.25"/><circle class="cls-2" cx="47.05" cy="1.7" r="0.25"/><circle class="cls-2" cx="45.27" cy="1.93" r="0.25"/><circle class="cls-2" cx="43.49" cy="2.16" r="0.25"/><circle class="cls-2" cx="41.71" cy="2.39" r="0.25"/><circle class="cls-2" cx="39.93" cy="2.62" r="0.25"/><circle class="cls-4" cx="52.85" cy="21.23" r="0.24"/><circle class="cls-4" cx="51.29" cy="21.28" r="0.24"/><circle class="cls-4" cx="49.58" cy="21.33" r="0.24"/><circle class="cls-4" cx="47.86" cy="21.39" r="0.24"/><circle class="cls-4" cx="46.15" cy="21.44" r="0.24"/><circle class="cls-4" cx="44.43" cy="21.47" r="0.24"/><circle class="cls-4" cx="42.72" cy="21.47" r="0.24"/><circle class="cls-4" cx="41" cy="21.47" r="0.24"/><circle class="cls-4" cx="39.28" cy="21.47" r="0.24"/><circle class="cls-4" cx="37.57" cy="21.47" r="0.24"/><circle class="cls-4" cx="35.85" cy="21.47" r="0.24"/><circle class="cls-2" cx="51.35" cy="34.17" r="0.25"/><circle class="cls-2" cx="49.7" cy="33.46" r="0.25"/><circle class="cls-2" cx="48.05" cy="32.75" r="0.25"/><circle class="cls-2" cx="46.41" cy="32.04" r="0.25"/><circle class="cls-2" cx="44.76" cy="31.33" r="0.25"/><path class="cls-2" d="M52.82,36.85a.26.26,0,0,1-.51,0,.26.26,0,1,1,.51,0Z"/><path class="cls-2" d="M50.85,36.73a.26.26,0,0,1-.26.25.25.25,0,0,1,0-.5A.26.26,0,0,1,50.85,36.73Z"/><path class="cls-2" d="M48.88,36.62a.26.26,0,0,1-.26.25.25.25,0,0,1,0-.5A.26.26,0,0,1,48.88,36.62Z"/><path class="cls-2" d="M46.91,36.43a.25.25,0,1,1-.5,0,.25.25,0,0,1,.5,0Z"/><path class="cls-2" d="M45,36.08a.25.25,0,1,1-.25-.25A.25.25,0,0,1,45,36.08Z"/><path class="cls-2" d="M43,35.72a.25.25,0,0,1-.25.25.25.25,0,1,1,0-.5A.25.25,0,0,1,43,35.72Z"/><path class="cls-2" d="M41.09,35.37a.26.26,0,1,1-.26-.26A.26.26,0,0,1,41.09,35.37Z"/><path class="cls-2" d="M39.15,35a.26.26,0,0,1-.26.25.25.25,0,0,1,0-.5A.26.26,0,0,1,39.15,35Z"/><path class="cls-2" d="M37.2,34.65a.25.25,0,1,1-.5,0,.25.25,0,1,1,.5,0Z"/><path class="cls-2" d="M35.28,34.2a.25.25,0,1,1-.25-.26A.25.25,0,0,1,35.28,34.2Z"/><path class="cls-2" d="M33.36,33.74a.25.25,0,1,1-.25-.26A.25.25,0,0,1,33.36,33.74Z"/><path class="cls-2" d="M31.44,33.28a.25.25,0,1,1-.25-.26A.25.25,0,0,1,31.44,33.28Z"/><path class="cls-2" d="M29.52,32.81a.25.25,0,1,1-.25-.25A.26.26,0,0,1,29.52,32.81Z"/><path class="cls-2" d="M27.6,32.35a.25.25,0,1,1-.25-.25A.26.26,0,0,1,27.6,32.35Z"/><path class="cls-2" d="M25.68,31.89a.25.25,0,1,1-.25-.25A.26.26,0,0,1,25.68,31.89Z"/><path class="cls-3" d="M49.78,39c.62-.5-1.15-1.48-1.52-.52S48.93,39.68,49.78,39Z"/><path class="cls-2" d="M51.47,38.82a.25.25,0,0,1-.25.25.26.26,0,0,1-.26-.25.26.26,0,0,1,.26-.26A.26.26,0,0,1,51.47,38.82Z"/><path class="cls-3" d="M44.63,38.52C45.25,38,43.48,37,43.11,38S43.78,39.19,44.63,38.52Z"/><path class="cls-2" d="M46.93,38.22a.26.26,0,0,1-.26.26.26.26,0,0,1-.25-.26.25.25,0,0,1,.25-.25A.26.26,0,0,1,46.93,38.22Z"/><path class="cls-3" d="M39.51,37.76c.62-.49-1.15-1.48-1.52-.52S38.66,38.43,39.51,37.76Z"/><path class="cls-2" d="M41.81,37.46a.25.25,0,0,1-.25.25.25.25,0,1,1,0-.5A.25.25,0,0,1,41.81,37.46Z"/><path class="cls-3" d="M34.4,36.92c.63-.49-1.14-1.48-1.52-.52S33.55,37.59,34.4,36.92Z"/><path class="cls-2" d="M36.7,36.63a.25.25,0,0,1-.25.25.26.26,0,0,1-.26-.25.26.26,0,0,1,.26-.26A.26.26,0,0,1,36.7,36.63Z"/><path class="cls-3" d="M29.28,36.2c.62-.49-1.15-1.48-1.52-.52S28.43,36.87,29.28,36.2Z"/><path class="cls-2" d="M31.57,35.9a.25.25,0,1,1-.25-.25A.25.25,0,0,1,31.57,35.9Z"/><path class="cls-3" d="M24.17,35.36c.62-.49-1.15-1.48-1.52-.52S23.32,36,24.17,35.36Z"/><path class="cls-2" d="M26.47,35.06a.26.26,0,0,1-.26.26.26.26,0,0,1-.25-.26.25.25,0,0,1,.25-.25A.26.26,0,0,1,26.47,35.06Z"/><path class="cls-3" d="M19.15,34.2c.62-.49-1.15-1.47-1.52-.51S18.3,34.87,19.15,34.2Z"/><path class="cls-2" d="M21.45,33.91a.26.26,0,0,1-.26.25.25.25,0,1,1,0-.5A.26.26,0,0,1,21.45,33.91Z"/><path class="cls-3" d="M14.18,32.76c.62-.49-1.15-1.48-1.52-.51S13.33,33.43,14.18,32.76Z"/><path class="cls-2" d="M16.47,32.47a.25.25,0,1,1-.25-.25A.25.25,0,0,1,16.47,32.47Z"/><path class="cls-3" d="M9.22,31.27c.62-.49-1.15-1.48-1.52-.52S8.37,31.94,9.22,31.27Z"/><path class="cls-2" d="M11.52,31A.26.26,0,0,1,11,31a.26.26,0,1,1,.51,0Z"/><path class="cls-3" d="M4.27,29.74c.63-.49-1.14-1.48-1.51-.51S3.43,30.41,4.27,29.74Z"/><path class="cls-2" d="M6.57,29.45a.25.25,0,1,1-.25-.25A.25.25,0,0,1,6.57,29.45Z"/><path class="cls-3" d="M5.06,39.15c.63-.49-1.14-1.48-1.51-.52S4.22,39.82,5.06,39.15Z"/><path class="cls-2" d="M7.36,38.86a.25.25,0,0,1-.5,0,.25.25,0,1,1,.5,0Z"/><path class="cls-3" d="M-.1,39.16c.62-.49-1.15-1.48-1.52-.52S-.95,39.83-.1,39.16Z"/><path class="cls-2" d="M2.2,38.87a.26.26,0,0,1-.26.25.25.25,0,0,1-.25-.25.26.26,0,0,1,.25-.26A.26.26,0,0,1,2.2,38.87Z"/><path class="cls-3" d="M51.6,3.78c.63-.49-1.14-1.48-1.52-.51S50.75,4.45,51.6,3.78Z"/><path class="cls-2" d="M53.9,3.49a.25.25,0,1,1-.25-.25A.25.25,0,0,1,53.9,3.49Z"/><path class="cls-3" d="M46.49,4.62c.63-.49-1.14-1.48-1.51-.52S45.65,5.29,46.49,4.62Z"/><path class="cls-2" d="M48.79,4.33a.25.25,0,1,1-.25-.26A.25.25,0,0,1,48.79,4.33Z"/><circle class="cls-2" cx="16.48" cy="41.2" r="0.25"/><circle class="cls-2" cx="14.68" cy="41.22" r="0.25"/><circle class="cls-2" cx="12.89" cy="41.24" r="0.25"/><circle class="cls-2" cx="11.09" cy="41.26" r="0.25"/><circle class="cls-2" cx="9.3" cy="41.27" r="0.25"/><circle class="cls-2" cx="7.51" cy="41.27" r="0.25"/><circle class="cls-2" cx="5.71" cy="41.27" r="0.25"/><circle class="cls-2" cx="3.92" cy="41.27" r="0.25"/><circle class="cls-2" cx="2.12" cy="41.27" r="0.25"/><circle class="cls-2" cx="0.33" cy="41.27" r="0.25"/><path class="cls-3" d="M15.37,42.75c.62-.49-1.14-1.48-1.52-.51S14.52,43.42,15.37,42.75Z"/><path class="cls-2" d="M17.67,42.46a.25.25,0,0,1-.25.25.25.25,0,1,1,0-.5A.25.25,0,0,1,17.67,42.46Z"/><path class="cls-3" d="M10.3,43.77c.62-.49-1.15-1.48-1.52-.51S9.45,44.44,10.3,43.77Z"/><path class="cls-2" d="M12.59,43.48a.25.25,0,1,1-.5,0,.25.25,0,1,1,.5,0Z"/><path class="cls-3" d="M5.17,44.34c.62-.49-1.15-1.48-1.52-.51S4.32,45,5.17,44.34Z"/><path class="cls-2" d="M7.46,44.05a.25.25,0,1,1-.25-.25A.25.25,0,0,1,7.46,44.05Z"/><path class="cls-3" d="M0,44.39c.63-.49-1.14-1.48-1.52-.51S-.86,45.06,0,44.39Z"/><path class="cls-2" d="M2.29,44.1a.25.25,0,0,1-.5,0,.25.25,0,1,1,.5,0Z"/><circle class="cls-2" cx="25.78" cy="43.2" r="0.25"/><circle class="cls-2" cx="27.45" cy="43.85" r="0.25"/><circle class="cls-2" cx="29.13" cy="44.49" r="0.25"/><circle class="cls-2" cx="3.6" cy="9.47" r="0.25"/><circle class="cls-2" cx="1.83" cy="9.8" r="0.25"/><circle class="cls-2" cx="0.04" cy="9.92" r="0.25"/><path class="cls-2" d="M46.28,24.17a.25.25,0,1,1-.5,0,.25.25,0,0,1,.5,0Z"/><path class="cls-2" d="M44.31,24.11a.25.25,0,0,1-.25.25.26.26,0,1,1,0-.51A.26.26,0,0,1,44.31,24.11Z"/><path class="cls-2" d="M42.34,24a.26.26,0,0,1-.26.25.25.25,0,0,1-.25-.25.26.26,0,0,1,.25-.26A.26.26,0,0,1,42.34,24Z"/><path class="cls-2" d="M40.36,24a.25.25,0,1,1-.25-.25A.25.25,0,0,1,40.36,24Z"/><path class="cls-2" d="M38.39,23.9a.25.25,0,1,1-.25-.25A.25.25,0,0,1,38.39,23.9Z"/><path class="cls-2" d="M36.42,23.83a.26.26,0,1,1-.51,0,.26.26,0,0,1,.51,0Z"/><path class="cls-2" d="M34.44,23.77a.25.25,0,1,1-.25-.26A.25.25,0,0,1,34.44,23.77Z"/><path class="cls-2" d="M32.47,23.67a.25.25,0,1,1-.5,0,.25.25,0,0,1,.5,0Z"/><path class="cls-2" d="M30.5,23.52a.25.25,0,1,1-.25-.25A.25.25,0,0,1,30.5,23.52Z"/><path class="cls-2" d="M28.54,23.36a.26.26,0,0,1-.26.26.26.26,0,0,1,0-.51A.26.26,0,0,1,28.54,23.36Z"/><path class="cls-2" d="M26.57,23.21a.25.25,0,0,1-.25.25.25.25,0,1,1,0-.5A.25.25,0,0,1,26.57,23.21Z"/><path class="cls-3" d="M11.67,45c.62-.49-1.14-1.48-1.52-.52S10.82,45.67,11.67,45Z"/><path class="cls-2" d="M14,44.7a.26.26,0,0,1-.25.26.26.26,0,0,1-.26-.26.26.26,0,0,1,.26-.25A.25.25,0,0,1,14,44.7Z"/><path class="cls-3" d="M22.08,44.89c.63-.49-1.14-1.48-1.52-.52S21.23,45.56,22.08,44.89Z"/><path class="cls-2" d="M24.38,44.59a.25.25,0,1,1-.25-.25A.25.25,0,0,1,24.38,44.59Z"/><circle class="cls-2" cx="54.25" cy="21.23" r="0.25"/><circle class="cls-2" cx="54.09" cy="8.49" r="0.25"/><path class="cls-3" d="M53.87,35.69c.62-.49-1.15-1.48-1.52-.51S53,36.36,53.87,35.69Z"/><path class="cls-2" d="M53,30a.26.26,0,0,1-.26.26.26.26,0,0,1-.25-.26.25.25,0,0,1,.25-.25A.26.26,0,0,1,53,30Z"/><path class="cls-2" d="M51.21,29.23a.25.25,0,1,1-.5,0,.25.25,0,1,1,.5,0Z"/><circle class="cls-2" cx="54.18" cy="16.92" r="0.25"/><circle class="cls-2" cx="53.99" cy="11.9" r="0.25"/><path class="cls-3" d="M54,14.48C54.66,14,52.89,13,52.52,14S53.19,15.15,54,14.48Z"/><path class="cls-3" d="M55.65,2.89c.62-.49-1.15-1.48-1.52-.52s.67,1.19,1.52.52"/><path class="cls-3" d="M55.69,24.9c.62-.49-1.15-1.48-1.52-.52s.67,1.19,1.52.52"/><path class="cls-3" d="M53.94,39.15c.63-.49-1.14-1.48-1.52-.51S53.09,39.82,53.94,39.15Z"/><path class="cls-2" d="M54.62,41.26a.25.25,0,1,1-.25-.25.26.26,0,0,1,.25.25"/><path class="cls-3" d="M54,44.38c.62-.49-1.15-1.48-1.52-.51S53.19,45.05,54,44.38Z"/><circle class="cls-2" cx="54.09" cy="9.91" r="0.25"/><line class="cls-2" x1="52.25" y1="44.57" x2="54.5" y2="44.57"/><path class="cls-3" d="M54-.18c.62-.49-1.15-1.48-1.52-.52S53.18.49,54-.18Z"/></svg>