<svg id="Capa_1" data-name="Capa 1" xmlns="http://www.w3.org/2000/svg" viewBox="0 0 54 43.17"><defs><style>.cls-1,.cls-2{fill:none;stroke:#000;}.cls-1{stroke-linecap:round;stroke-width:0.7px;}.cls-2{stroke-width:0.28px;}</style></defs><title>605 Brecha 1ra opción</title><path class="cls-1" d="M2.64,37h0M.86,30.29h0m-2.23,3.86h0M4.27,33h0M6.4,30h0M10,33.15h0m1.26-3.76h0m6,.25h0m4.52,3.51h0m.5,7.65h0m-3.76-3.89h0M7.41,36.16h0M9,43.56H9m2.26-3.89h0m5.14,1.38h0M4.61,42.71h0"/><path class="cls-2" d="M13.8,32.23l-1.58,2.25,1.13.91L19,34.71l-1.13-1.58H15.61ZM2.65,38.31l2-.45-.22,2.93-2,.9-.67-1.8Zm10.13,2.2-.91,2.16,1.45.55,1.62-1.09-.72-1.26Z"/><path class="cls-1" d="M41.79,42.23h0m-5.22,2.33h0M48.11,29.39h0m5,.43h0m-.41,4.33h0m-24,6.77h0m3.89,2h0M31.3,37.54h0m-5.52-2h0M24.4,29.89h0m4.51-.25h0m11.55-.37h0M34.18,30.9h0m2.13,5.64h0M39,32.78h0m5.39-1h0m-2.63,4.14h0m3.76,4.39h0m1.13-4.39h0m5.11,2.59h0"/><path class="cls-2" d="M50,31.22l-1.49,2.16,1.9.27.68-.54-.27-1.35Zm1.34,8.5L50,42.52l-2-.26ZM39.5,36.48l.68,4.06-4.74.68-.23-2.71,2.48-.45ZM30,32.24l2,1.58L29.13,35l-2.26-2.48Zm-4.43,6.1,1.5,4.26-3.51.25Z"/><path class="cls-1" d="M20.08,1.22h0M15.31-1h0M9.67-.41h0M3.11.67h0M-1.37-.16h0m2,4h0m6.28-.38h0m5.14.63h0m-.12,4.76h0m5,.25h0m5.15,1.26h0m-5.15,3.51h0m4.14,1.63h0M22,22.4h0m-3.89,1.88h0m-4.26,2.51h0m1.13-4.64h0m-1.51-3.89h0m-7.78,8.9h0M2,25.41H2m.76-4h0m6-1h0m.63-5.13h0M6.53,11.12h0M.88,9h0m1.76,4.38h0M-.5,16.13h0"/><path class="cls-2" d="M-4.21,24.39l1.36,2.25,2.48-2.25-2-.91Zm24.88,1.19v2.25h-2Zm-18-8.95,1.09,2.16,3.07-1.26-.36-1.62Zm11.07-5.82L10.82,13l2.53,2,1.27-2.34ZM3.78,5.17,6.94,7,5.59,8.1,4,6.75ZM13.89,2.24,15.9,6l3.26-1.5-2.26-2ZM6.66,22.05l5.22,1.6-.81,3L8.66,25.05A4.23,4.23,0,0,1,6.66,22.05Zm11.62-4.48c1,.51,2.76.76,2.26,2s-2.51,1-2.51,1Z"/><path class="cls-1" d="M52.87.64h0m-4.38,3h0m6.27.25h0M55,9h0m-3,3.63h0m1.63,3.51h0m-2.89,4.52h0m-2.13,5.51h0m-6.52-.25h0M45.35,21h0m-5-1.63h0m4-3h0M47,11.24h0M43.72,7.36h0m.88-4.77h0m-5.15,1h0M38.7,10h0m-1.76,6.39h0m-.75,5.52h0m-3.76,3.63h0M31.3,21h0m-6,.75h0m2.51-4.26h0m-2.63-4.14h0M30,13.25h0m4.14-2.51h0M30,8h0M24.52,6.61h0m-.38-6h0M27.66,3.1h0m5,.5h0M36.06-.29h0M30.79-.54h0"/><path class="cls-2" d="M49.92,24.39l1.35,2.25,2.48-2.25-2-.91ZM31.34,16.7l.22,1.8h3.17l-.68-2Zm8.09,6.39.65,4.55L37.8,25ZM36,4.27l1.13,2.25L35.55,7.88l-.46-2.26ZM49.55,18.93l1.13-2.48-2.26-.9-1.36,2,.68,1.35ZM50.69,4.49l1.9,2.17-.81,3.52L48.52,8.55,50.15,7.2ZM26.29,8.32l2.35,1.45-1.45,1.08H24.48Zm14,3.77,1.35,2.33,2.11-2.71ZM45.92.22h1V2.1l-2-.75.25-.88Zm-18,22-2.51,2,4,1.75s.76-2,0-2.51A11.69,11.69,0,0,1,27.93,22.17Z"/></svg>