<svg id="Capa_1" data-name="Capa 1" xmlns="http://www.w3.org/2000/svg" viewBox="0 0 54 43.17"><defs><style>.cls-1,.cls-2{fill:none;stroke:#000;}.cls-1{stroke-width:0.3px;}.cls-2{stroke-linecap:round;stroke-width:0.7px;}</style></defs><title>606 Brecha 2da opción</title><path class="cls-1" d="M10.08,27.3H8.9m44.35,23L56,47.05l-2.25-2.32L53,42l-4.51-.9-1.29,6.12Zm1-11.78L52,36.77,48.48,37,51,39.78Zm-7.09-4L43.9,33.32l-2,1.25-.75,2,1,3,3.77-.75ZM35.68,31l-.5-3.51L33.92,29Zm2.14-3.7L37.94,29l-.5,3L41,33.26l2.26-3L41.37,27.3m-10.54,0-1.17.94-3.51-.5.3-.44M3.23,28.43,6.32,28l-.11-.69M18,27.3l.15.69,6,2,.5-2.26-.29-.44M54,31l-3.51-2.26-4.27-.31-1.26,3,4,.81,1.26,2.26ZM3.23,43.87l3.46-.24-2-3.35-1.28-.86M10.08,27.3v1.19H7.83L8.9,27.3m3.92,0L11.59,29l.75,2.76,2-.75,2.26,2.51.75-3.26L14.6,27.3M3.23,36l1.33-.25L5.07,38l3-.25,1.25-7-4.26-1-1.84,1m4.71,8.86-.11,3.14,1.34.27.66-1.48.62-.92Zm7.89-3.4-2.21-1.6-3.21,1,1.41,1.8v2Zm23.62.16-2.17-1.69-1.21,3.85L37.76,41l1.69-1.45Zm-2.3,7,3.36-1.56,2.89,1.75M14.13,40,10,43.37l5.95,2.32-.27-.4.19-2.08Zm6.19,2.33,3.38-2.16L23.94,37l-6.27-2.41V37s1,1.92,1.69,2.16S20.32,42.32,20.32,42.32Zm8.23-6.88-2.2,4,4.21,1.8L31,42.41l1.4-2-1.28-3Zm-3.41-3.75h-2l-1.5.5L21.13,34l4,1.5Zm8.16.57L31.86,29.6l-3.07.82.62,4.09,4.71,1.23,1.43-2.46Z"/><path class="cls-2" d="M26.77,43.79h0M32,28.12h0m2.14,3h0m19.57,2.47h0m-.13,2h0M49,35.18h0M46.8,33h0m-3.17-4.52h0m-.5,4.1h0M53.5,28.87h0m-4.64-1.38h0m5.56,15.29h0m-.25-2.92h0m-2.6,1.25h0m-2.92,1.17h0m.66-2.42h0m-2.67,0h0m-3.85,1h0m2.32.9h0m-4.75,1.86h0m-1.17-2.09h0m1.76-2h0m-4.6,2.26h0m4-5.93h0m-.58-2h0m-3.1-4.76h0m-.12,4.68h0M34.68,37h0m-2.26-.13h0m1.76,3h0m-1.76,2.51h0m-3.89-.5h0m-6.27.75h0m2.63-1.88h0m1-3.64h0m1.51-2.5h0m-.5-3.14h0m-1.26-2.88h0M12.72,44.41h0M16,38.52h0M17.35,41h0m-12-1.6h0m4.39-1.88h0m11.92-6.9h0m-3-1h0m.5,3.26h0m-2.89,2.26h0M6.07,28.87h0m7.78,4.26h0m-3.51-3.26h0m.25,2.8h0"/><path class="cls-1" d="M3.43,19.17,1,19.5l-2.76,3,3.27,1.25,1.92-1.44m0,3.13L1,25.89l.13,1.57M3.43,7,2,6l.5,5,.92.37m0-15.83L3-4.82l-1.25,3L1,1.45H3.43M-.88,18l2.26-5.51-3.51-2-3.77,1,1.76,3.76Zm1-13.13L-2,2.45l-.61,3L-4.44,7-.83,8.77Z"/><path class="cls-2" d="M1.88,24.76h0m-.42-6.93h0m.42-2.51h0m-1.17-5h0m0-2.92h0M1.76,4h0M-.71,1.61h0"/><path class="cls-1" d="M57.55,19.17l-2.42.33-2.76,3,3.26,1.25,1.92-1.44M37.82,27.46l-.13-1.82,1.76-1.25,1.92,3.07m-14.92,0,2.45-3.58,1.51,1,.5,2.5-.08.07m-27.6-2,.33-.06,2-1.76.64,3.83m18.14,0-2.72-4.08-4.52.25L18,27.46m-5.1-.17.74-.9,1,.9M46,23.51l-2.26,2,3.77,1L52,25ZM3.23,22.32l1.08-.82L4.56,19l-1.33.18M53.5-.06,51-2.57,47.73-3.82,46.22-1.31,50,1.45ZM13.1,13.48l1.5,3,4.27-1.76-.5-2.25ZM53.25,18l2.26-5.51-3.52-2-3.76,1L50,15.23Zm-13.8,1,2,3.77,3.26-1.51-2.25-2Zm-6.53,6.78L36.18,25l1.26-3.76-2.26-3-4-1.25-1.25,4ZM23.58,22.6l1.5,2.5,2.76-2.5-2.26-1Zm-7.72-4.48.25,2h3.51l-.75-2.25ZM7.7,22.38l.75,2,3.77.25,3.26-.76-.5-3-2.76-1.76Zm43-.88L49.48,19l-1,1.51L49,23ZM6.82,12l3.52-.26L8.83,7.46ZM3.44,7,5.32,8.47,4.82,12l-1.4-.62M5.69,4.14l.76,2,2.26-1L9,1.88,6.7,2.39ZM3.23,1.45H4.82L7.58-1.06,3.23-4.49m7.61,5.84,3,1.6,3.21-1.2L14.65-1.66l-4-1.21-1,1.81ZM54.2,4.86,52.09,2.45l-.6,3L49.68,7,53.3,8.77Zm-8.28,9.52-2.21-1.2-1,3,1.8,1.8,4,.2L47.73,15ZM35.18,16.24,38,18.44l1.4-2.6-1-2Zm-14.81,1.7,2,1.81L26,20l3.22-1.41-2.41-2.6L24,15.34l-3,.2Zm-14.55.29,2.95,1.08,2.07-4.44-1.92-.51-1.39.8-1.82-.34ZM24.24,8.36l.6,2,.4,3.21L26.65,12V8.77ZM11.83,9.42c1,1.2,4.22,1,4.22,1L15.24,8,12.83,4.6C11.43,5.81,10.83,8.21,11.83,9.42Zm18.83,3,1.21,2.41s2.81,1.4,3.21-.4a4.9,4.9,0,0,0-.4-3.22l-4.42-1.8L28.86,12ZM40,10.72s1.2,2.21,2,2.21a3.87,3.87,0,0,0,3-2.41c.41-1.4-1-2.61-1-2.61l-4-.6-2,2.61ZM44.46,6h3l1.6-1.2L46.47,3.15ZM36.18,7.71l3-2L36.38,3.9l-1.2-.4-1,1.61Zm3-5.51,3.21,2,.41-4.81-4.22-1.2L37-.81ZM22,10.14c.5-1.26-1.25-1.51-2.26-2l-.25,3S21.46,11.39,22,10.14ZM31.16.69l1.51,2.59L35,.28ZM26.65,5.21l4,1.75s.76-2,0-2.51a11.69,11.69,0,0,1-1.5-1.25ZM24,.68,21.91,2.73l-2.05.51V5.11a2.49,2.49,0,0,0,1.2,1c.68.17,3.07.34,3.92-.52s.86-3.4.86-3.4Z"/><path class="cls-2" d="M35.18-1.19h0m-6.78,10h0m2.51-.5h0m2.89-.88h0m5-3.63h0M36.43,2.32h0M32,4.45h0m0-5.51h0M29-3.83h0M26.24-2.37h0M30.16,1.7h0m-9.54,11h0m2.77,1.38h0m-.13-3.89h0m2.51-3h0m-4,.38h0m-9.53,9.65h0m-8,0h0m-.25-4h0m2.76.5h0m3.89-.25h0m3-1.13h0m-2.51-2.13h0m6.65.88h0m-.5-3h0m1.38-2.26h0M15.1,5.58h0M10.71,3.83h0M10.21,7h0M7,8.21H7m-2-1.75h0M4.82,3.08h0M8.33.82h0m8.91,2.51h0M20,2h0m7.15-.76h0M24.39-.31h0M42.21,26.14h0M9.83,19.83h0m-3.59.75h0M4.56,23.17h0m3.14,2h0m4.89.37h0m3.18.59h0m-1.09-6.69h0m1.93,3.43h0m1.92-1.67h0m6.19,5.43h0M27,24.85h0m-4.52-2.18h0m2.1-1.5h0m-3.77-1.25h0m-3.76-3h0m3-1.59h0M27.32,15h0m.5-3h0m1.92,1.83h0m-.08,2.76h0m-1.42,4.1h0m1.33,2.17h0m1.93,2.34h0m4.68,1.25h0m-3.26-9.94h0m3.35,1.59h0m1.84,5.76h0m0-3.34h0m2.59,3.13h0m3.51-.37h0m8.16,3h0m-1-2.89h0M46.3,21.67h0m-12.79-12h0m1.84-.84h0m1.42,1.59h0m.16,2.92h0m2.77-.75h0m1.5,2.26h0m-1.5,3.09h0m2.67-.25h0m2.18,1.84h0m2.84,0h0m5.27.16h0m-2.59-2.17h0m-1.26-2.67h0m-1.5-2h0m-2.6-.5h0m1.68-2.09h0M38.61,7.38h0m4.68-.5h0M41.2,5.62h0M44.05,4h0m1.84,3.59h0m2.67,1.5h0m.09-2.5h0M51.07,9.3h0m3.76,1h0m0-2.92h0M53.41,1.61h0M49.82,3.37h0m-2.6-1.76h0m-3.09.17h0m.08-2.67h0m-26.6.58h0"/><path class="cls-1" d="M3.43,28.43l-2.18.31L1.13,27.3m2.3,12.12-1.54-.9-1,2.76.76,3,1.79-.42m0-13.09L1.25,32,2,36.27,3.43,36M-.88,50.3l2.76-3.25-2-2.26-1-2.76-3.51,1.26,1,5.26Zm1-11.78-2.26-1.75L-5.65,37l2.51,2.76ZM-.13,31l-3.51-2.26-4.26-.31-1.26,3,4,.81,1.25,2.26Z"/><path class="cls-2" d="M2.13,37.39h0m-2.51-3.8h0m-.12,2h0M2.76,30h0M-.63,28.87h0M.29,42.78h0M0,39.86H0"/></svg>