<svg id="Capa_1" data-name="Capa 1" xmlns="http://www.w3.org/2000/svg" viewBox="0 0 54 43.17"><defs><style>.cls-1{fill:none;stroke:#000;stroke-linecap:round;stroke-width:0.7px;}</style></defs><title>607 Arenisca o arena maciza</title><path class="cls-1" d="M.77,42.35h0M.6,40.27h0M.51,21.44h0m.07-4.88h0m-1,9.69h0M.66,30h0M-.79,32.14h0M.77,42.35h0M.48,37.54h0M-1,23h0m.52,11.42h0m-.69,9.69h0"/><path class="cls-1" d="M16.1,26.8h0M7.73,23.2h0m2,12.11h0M48.2,28.5h0M23.09,21.93h0m-7.45-6.06h0m13-.86h0M50.28,40.27h0m-.35-18.86h0m0-4.85h0m-14.37-1.9h0M21.7,44.42h0M16.33,37h0m-10.74.35h0m.18-17.65h0m12.12,1.38h0m-5.54,8.31h0M33.13,35h0M8.19,20.2h0M6.11,43.56h0M42,37h0M28.46,42.17h0m-3.29-2.59h0m-7.1-25.09h0M39.71,38.37h0m2.08,4.46h0m1.74-10.35h0m-16.63,1h0m-7.8,3.81h0m5.55,0h0M6.29,31.1h0M3,35.94H3m27.54-19h0M12.87,15.7h0M3,23H3m39,5.19h0M35.39,16.91h0M10.1,27.64h0m17.32-1.56h0M38,24.18h0m9,17.65h0M29.84,37.67h0m-13.51,5h0m30.83-3.11h0m-43.64-24h0M7,17.43H7M6.11,24.7h0M46.82,36.29h0M8.89,39.23h0m4-5.71h0M26.73,44.6h0m10.39-1h0M30.54,33.35h0m-5-3.46h0m-6.93.86h0m30.66-4.5h0M44.57,15.18h0m.86,3.11h0M39,18.47h0M33.83,29.54h0m-.7-8.65h0m-4.15,0h0m-9.36-4.5h0m1.74,4.33h0m-7.8,1.9h0M2,25.39H2M50.34,30h0M48.9,32.14h0m1.55,10.21h0m-.69-4.68h0M10.27,17.26h0M2.48,34h0m42.25,8.73h0M39,42.69h0m-14.37-.17h0M31.75,41h0M34,37.16h0m3.64-.7h0m4.67-1.38h0m3.81-3.46h0m-6.58-4.85h0m0,3.46h0m3.29,0h0m2.26-10h0M47.86,18h0m-5.2-.87h0M41.79,19h0m.52,2.25h0m-.86,2.24h0m.86,2.25h0m-6.23.52h0m-5-.17h0M37.12,29h0m-16.8.18h0m10.56-1h0m.52,2.94h0m-6.58,1.38h0m-1.39,2.77h0m-4.5,8.65h0m-9-1.55h0m2.26-1.56h0m1-2.42h0m2.08-3.29h0M3.34,28h0M4.73,39.4h0M8.37,37h0m3.81-1.21h0M6.11,33h0m12.13-6.75h0m10-2.07h0m-2.42-2.77h0M36.6,20h0m-5.37-5.19h0m-4.16,1.91h0M26.73,19h0m-7.8-.35h0m-8,.87h0m-5-3.81h0M4.56,21.61h0m6.75,4.12h0m2.77-1h0m3.12-1.22h0M48.72,23h0m-45,19h0M39.37,16.39h0M9.23,15h0m5.54,17.13h0m5.37-9h0M28.8,39.92h0m8.49.18h0M7.15,41.65h0M1.61,44.42h0m14.2-5h0m-1.9-12.28h0m-4-3.46h0M3.69,18h0m9.7.52h0M2.13,20h0M49.24,34.39h0m-3.64-.18h0M3.17,31.62h0m6.06-1.56h0M7.85,26.77h0M5.59,28h0M22.22,41.31h0M26.9,35.6h0m2.94,0h0m-10.39-.87h0m-8.66,2.6h0M13,42.8h0M2.82,38.19h0M5.25,35.6h0m3.06-2.74h0M21.7,38.37h0m-1.85,3.57h0m24-1.15h0m4.68,3.29h0m-14.2.34h0m0-2.07h0m.17-2.77h0m5.89,1.21h0m4-2.42h0m-7.27-4.16h0m-.52-2.94h0m2.77,1.91h0M34,32.66h0m-5.89-1.73h0M15.29,29.37h0M48.2,28.5h0m-2.6.87h0m-.17-1.91h0m.87-2.76h0m-.7-2.43h0m2.6-1.38h0M47.86,15h0m-7.62-.7h0M39,21.41h0M35.9,23.14h0m-7.79,5h0m5.54-1h0m0-3.46h0m-3.11-.52h0m2.07-4.67h0m-2.77.17h0m-5.19-4h0m-2.08,1.56h0m.86,2.42h0m-.34,3.29h0m1.56,2.25h0m0,3.28h0m-3.29-1h0m1.38,3.46h0m-1,2.59h0m-4,0h0M10.27,32h0m7.45-3.63h0m-6.58-7.09h0m4-.18h0m.52-2.42h0m0-2.77h0"/><path class="cls-1" d="M18.41,39.64h0M42,37h0m8.48,5.37h0m-18-3.73h0M42.66,17.08h0m-6.58,9.17h0M24.82,32.48h0"/><path class="cls-1" d="M55.27,37.33h0m-2.59-1.39h0m0-13h0m.52-7.44h0m-1.56,9.86h0M52.16,34h0M53,28h0M54.41,39.4h0m.45-17.69h0M53.37,42h0m-2.08,2.42h0M53.37,18h0M51.81,20h0m1,11.6h0M55.27,28h0M52.5,38.19h0m2.43-2.59h0"/><path class="cls-1" d="M.77,7.72h0M1-.93H1M.77,7.72h0M-.61,12.91h0M-.44,1.66h0m0,8h0"/><path class="cls-1" d="M50.45,7.72h0M31.92,13.43h0M10.44,9.62h0m28.76-8h0M22.57,5h0M50.63-.93h0m-.18,8.65h0M16,11.18h0M44.91,1.32h0M20.66,10.53h0m11.26,2.9h0M43.18,9.62h0m5.89,3.29h0M41.79,3.57h0M16.33,1h0M10.44,9.62h0M8,5.47H8m1.62-5h0M4.73,12.39h0M47.86,3.74h0M18.93,12.57h0M31.58,7.72h0M47.51.48h0M39.2,9.28h0M35.39,7.89h0m1.9-2.42h0M30,2.18h0m-5.2,8.14h0m1.56-4.68h0M20.84-.59h0m-5.2,8.31h0m-2.25,4.67h0m-10-2.77h0M4.56,3.39h0M3,13.43H3M1.44,4.09h0M47.86,6.86h0M3.17-.59h0m17.67,14h0m11.25-3.29h0m5.55,2.25h0m6.75.35h0m2.25-1.39h0M46,9.45h0m3.81-4.33h0M45.09,6.86h0m4.15-5.2h0M38.85-.93h0m3.81.17h0m2.08,4.33h0m-17.67,9h0m-4.16-1h0M22.05,7.2h0M26.38.63h0M26,7.55h0m2.77,0h0M30.19,5.3h0m3.12-1.91h0M32.82.52h0M17.89,3.91h0M16.51,5.64h0m.52,4h0m-.87,3.46h0m-5.72-.86h0m-3.11-1h0M2.65,7h0m2.6,1h0m6.58-3.46h0M8.71,1.84h0m25.64,10h0M36.6,10h0M19.45,5.3h0M4.21,5.64h0m24.94,5.54h0m11.78.69h0m8.31-2.25h0M41.45,6.68h0M39.37,4.43h0m-5.2,1.39h0M36.6,3.05h0m2.6-1.39h0M36-.56h0M30-.76h0M26,3.05h0M19.1,8.24h0M22.57,5h0m.69-2.25h0M20,1.66h0M23.61-.76h0m-12.3.17h0m3.12,0h0M12.35,2h0M9.58,7h0m5-2.94h0M12.35,7.2h0m1.56,2.25h0m-5.2,3.81h0M1.78,11.18h0M7.85,8.41h0M2.65,1.84h0m3.46,0h0M6,.54H6"/><path class="cls-1" d="M54.41,12.39h0M53,9.62h0m1.75-6.1h0m-2.09,9.91h0M51.12,4.09h0M52.85-.59h0M52.33,7h0m2.6,1h0M53.66,5.66h0m-2.2,5.52h0m.87-9.34h0"/></svg>