<svg id="Capa_1" data-name="Capa 1" xmlns="http://www.w3.org/2000/svg" xmlns:xlink="http://www.w3.org/1999/xlink" viewBox="0 0 54 40.45"><defs><style>.cls-1,.cls-3{fill:none;}.cls-2{clip-path:url(#clip-path);}.cls-3{stroke:#000;stroke-linecap:round;stroke-width:0.7px;}.cls-4{clip-path:url(#clip-path-2);}.cls-5{clip-path:url(#clip-path-3);}.cls-6{clip-path:url(#clip-path-4);}</style><clipPath id="clip-path"><rect id="SVGID" class="cls-1" y="16.58" width="26.9" height="24.44"/></clipPath><clipPath id="clip-path-2"><rect id="SVGID-2" data-name="SVGID" class="cls-1" x="26.7" y="16.58" width="27.3" height="24.44"/></clipPath><clipPath id="clip-path-3"><rect id="SVGID-3" data-name="SVGID" class="cls-1" y="-2.18" width="26.9" height="18.91"/></clipPath><clipPath id="clip-path-4"><rect id="SVGID-4" data-name="SVGID" class="cls-1" x="26.7" y="-2.18" width="27.3" height="18.91"/></clipPath></defs><title>608 Arenisca o arena estratificada</title><g class="cls-2"><path class="cls-3" d="M17.12,41.58h0M10.73,29.92h0m12.5,1.68h0M2.64,17.71h0m23.14,7h0M10.16,17.33h0m7,24.25h0m1.7-4.89h0M.76,37.82h0m25.12,2.27h0m-2,0h0m-2,0h0m-2,0h0m-2,0h0m-2,0h0m-2,0h0m-2,0h0m-2,0h0m-2,0h0m-2,0h0m-2,0h0m-2,0h0m-2,0h0m26.14-6.72h0m-2,0h0m-2,0h0m-2,0h0m-2,0h0m-2,0h0m-2,0h0m-2,0h0m-2,0h0m-2,0h0m-2,0h0m-2,0h0m-2,0h0m-2,0h0m26.09-6.82h0m-2,0h0m-2,0h0m-2,0h0m-2,0h0m-2,0h0m-2,0h0m-2,0h0m-2,0h0m-2,0h0m-2,0h0m-2,0h0m-2,0h0m-2,0h0M26,19.78h0m-2,0h0m-2,0h0m-2,0h0m-2,0h0m-2,0h0m-2,0h0m-2,0h0m-2,0h0m-2,0h0m-2,0h0m-2,0h0m-2,0h0m-2,0h0M17.12,32h0M1.32,29.74h0M12.8,27.67h0M4,42.33H4m18.44-.7h0m-17.68-4h0M25,29.92h0m-5.08-12h0m.94,3.39h0m-6.95.19h0M7.53,24.1h0M3,24.1H3M24.65,36.31h0m.94,6h0M8.47,41.77h0M12,42h0m10-7h0m-7.56-4.45h0m-.3,4.79h0m3-.17h0m3.31-11.76h0m3-2.45h0M16.93,22h0m.57,2.44h0m0,4.89h0m-6.77.56h0m-3.9-1.16h0M5.08,32h0m.57,3.2h0M2.26,27.67h0m-2.63-3h0m11.66-1.5h0M5.46,17.52h0M.57,22h0M25,38.76h0m-3.95-.19h0M1,42.13H1m10.88-3.56h0m-.57-3.2h0M15.36,38h0M8.47,36.88h0M2.07,35h0m18.68-4.51h0m1.08-2.26h0m.22-3.32h0m1.46-1.7h0m0-5.5h0M15.24,17h0m-1.31,7.71h0M1,31.6H1m7.69-.34h0M7,21.47H7m-3,.18H4"/></g><g class="cls-4"><path class="cls-3" d="M52.48,36.69h0m-8.57-6.6h0m6.69-4.87h0m-8.1-6.57h0m.76,22.93h0M31.59,42h0m.19-19.17h0M45,24.28h0m-10.53-.93h0m10.72-6.21h0m9.59,20.68h0M46.27,42h0m6,0h0M32.35,35.19h0m21.41,4.9h0m-2,0h0m-2,0h0m-2,0h0m-2,0h0m-2,0h0m-2,0h0m-2,0h0m-2,0h0m-2,0h0m-2,0h0m-2,0h0m-2,0h0m-2,0h0m26.17-6.72h0m-2,0h0m-2,0h0m-2,0h0m-2,0h0m-2,0h0m-2,0h0m-2,0h0m-2,0h0m-2,0h0m-2,0h0m-2,0h0m-2,0h0m-2,0h0m26.11-6.82h0m-2,0h0m-2,0h0m-2,0h0m-2,0h0m-2,0h0m-2,0h0m-2,0h0m-2,0h0m-2,0h0m-2,0h0m-2,0h0m-2,0h0m-2,0h0m26.17-6.77h0m-2,0h0m-2,0h0m-2,0h0m-2,0h0m-2,0h0m-2,0h0m-2,0h0m-2,0h0m-2,0h0m-2,0h0m-2,0h0m-2,0h0m-2,0h0M39.5,18.46h0m-3,13h0M55.3,29.74h0m-26-11.47h0m2.82,10h0m7.34,9.59h0m6.2-3h0m3-10.9h0M27.64,29h0m.57,9.4h0m24.27-1.69h0M29.15,31.8h0m5.45,9.78h0m-2.44-4.33h0m13.76-8.83h0m7.69-3.76h0M54.55,22h0m-8.47-.38h0m-9.53-.08h0M32,18.46h0m-.75,6.76h0m5.16,3.2h0m4.72-.57h0M35.55,17.71h0m6,18.6h0m-1-5.45h0M29.69,21.74h0m10.37-.27h0M27.83,23.16h0m.55,11.75h0m7.47-.07h0M34,30.49h0m-2.68.77h0M55,42.13h0m-8.36-4h0M37.24,42h0m-2.36-3.66h0M55,31.6h0M52.29,17.33h0M49.6,18.56h0M51,21.65h0m-.37,3.57h0m1.69,2.45h0M50.94,31.6h0m-2.23-1.49h0m.38,6.58h0m-4.33,0h0M37,36.91h0m7.78-4.73h0m-7.15-7.71h0m4.33-.19h0m.56-2.63h0m0-3h0"/></g><g class="cls-5"><path class="cls-3" d="M26.34,9.78h0M6.21,16h0M14.11,3.2h0m-10.06-5h0m22.19,3h0m.1,8.59h0m-6-7h0M6.21,16h0m12.23-4.13h0m6.4,3.57h0M16.93,5.27h0m8.78,7.92h0m-2,0h0m-2,0h0m-2,0h0m-2,0h0m-2,0h0m-2,0h0m-2,0h0m-2,0h0m-2,0h0m-2,0h0m-2,0h0m-2,0h0m-2,0h0m26.1-6.77h0m-2,0h0m-2,0h0m-2,0h0m-2,0h0m-2,0h0m-2,0h0m-2,0h0m-2,0h0m-2,0h0m-2,0h0m-2,0h0m-2,0h0m-2,0h0M25.76-.35h0m-2,0h0m-2,0h0m-2,0h0m-2,0h0m-2,0h0m-2,0h0m-2,0h0m-2,0h0m-2,0h0m-2,0h0m-2,0h0m-2,0h0m-2,0h0M23.52,5.46h0M5.83,9.78h0M7.14-2.15h0m16,3.47h0m-9,10.15h0M10,10h0m2.21-2.26h0m-8-3.95h0M.33,7.9h0m23.19.94h0M4.78,11.91h0m7.64,2.94h0m7.34.38h0m1.69-3.57h0m-.94-2.82h0M25,3.2h0m-11.33-2h0m4,.5h0m2.43,3.58h0M.94,15h0m-.75-13h0m.28,8.81h0M2.83,9.59h0M4.47,7.52h0M7.72,5.08h0M7.15,1.7h0m1.7,12.59h0m.82-2.57h0M21.45-3.19h0M16,14.29h0m9-2.44h0M17.12-2.81h0M16.56,8.65h0M8.8,8.08h0M11.29,4.7h0m2.82-1.5h0m0-5.45h0m-3.77.1h0m.2,3.28h0M3.43,1.2h0M-.18,4.7h0"/></g><g class="cls-6"><path class="cls-3" d="M36.86,11.85h0m-.78-10.4h0m7.18,1h0m-6.4,9.4h0M34.37,7.71h0M29.15-2.06h0M53.59,13.19h0m-2,0h0m-2,0h0m-2,0h0m-2,0h0m-2,0h0m-2,0h0m-2,0h0m-2,0h0m-2,0h0m-2,0h0m-2,0h0m-2,0h0m-2,0h0M53.59,6.42h0m-2,0h0m-2,0h0m-2,0h0m-2,0h0m-2,0h0m-2,0h0m-2,0h0m-2,0h0m-2,0h0m-2,0h0m-2,0h0m-2,0h0m-2,0h0M53.65-.35h0m-2,0h0m-2,0h0m-2,0h0m-2,0h0m-2,0h0m-2,0h0m-2,0h0m-2,0h0m-2,0h0m-2,0h0m-2,0h0m-2,0h0m-2,0h0m3.11,15.2h0M46.08,15h0M54.31,7.9h0M47.09,1.69h0M42.5-3.57h0m0,13.35h0m-2.44,5.07h0m-10.91-3h0m1.31-6.77h0m2.26-7.33h0M28.77,16h0M29,.76h0M48.15,16h0M54.92,15h0M49.47,9.22h0m4.7-7.15h0m.28,8.81h0m-8-12.57h0M43.59,7.9h0m7.68,3.65h0m-8.2,4.06h0m-6.21-.94h0M28.4,9h0m2.82,1.12h0m4.31-6.1h0m.77-6.68h0M46.78,7.52h0M30.23,7.9h0M51.16-2.25h0m2.63,7h0m-7.52,5.64h0m4.51-6h0m-5.2,0h0m5.53-2.67h0M38.93-2.06h0m.13,3.58h0M41.19.76h0M39.48,4.24h0M35.92,9h0m3,.19h0m1.69,2.44h0M35,15.79h0M34,10.53h0M28.4,3.39h0m4.31.66h0M32,1.7h0"/></g></svg>