<svg id="Capa_1" data-name="Capa 1" xmlns="http://www.w3.org/2000/svg" viewBox="0 0 54.03 44.57"><defs><style>.cls-1{fill:#c5d2d0;}.cls-2{stroke:#000;stroke-linecap:round;stroke-width:0.21px;}</style></defs><title>609 Arenisca o arena con estratificación cruzada 1ra opción</title><path class="cls-1" d="M-.23,44.42c-2.56,0-4.59-.13-7.21-.3-1.44-.09-3.08-.2-5.07-.3v-.3c2,.1,3.62.21,5.07.3a91.54,91.54,0,0,0,14.81,0v.31C4.17,44.34,1.81,44.42-.23,44.42Zm9.05-.65-.22-.21,2-2.15c-3.84,0-8.37,0-13-.16h0c-3.09-.11-6.22-.29-9.26-.56v-.3c3,.26,6.08.44,9.12.56l1.7-2a120,120,0,0,1-15.37-1.55v-.29A121.54,121.54,0,0,0-.51,38.74h0c3.7.1,7.32-.08,9.1-.19a46.09,46.09,0,0,1-5-1.46,102.88,102.88,0,0,1-17.17-1.5l.05-.3A108.82,108.82,0,0,0,2.68,36.8h.17c-3.56-1.4-6.77-2.78-9.46-4l.12-.28C-3.94,33.68-.92,35,2.42,36.31l3-3.2a80.9,80.9,0,0,1-8.7-3.67q-4.41.72-8.36,1.16v-.3c4.19-.46,8.83-1.18,13.78-2.14,1.26-.24,2.53-.5,3.79-.77v0c2.28-.48,4.6-1,6.92-1.56h0l2.23-.54c1.72-.43,3.47-.88,5.22-1.35h-.05l2.95-3.33c-7.24,1.65-16.64,3.57-26.38,5v-.3C-.4,24.91,2.35,24.47,5,24l-.11-.1,2.81-3.18a223.56,223.56,0,0,1-23.86,1v-.3c4.44,0,8.93,0,13.32-.25h0l3.49-4H.62c-3.7,0-7.58-.11-11.58-.33v-.3c14.89.83,28.24.08,35.93-2-1.6-.28-3.22-.6-4.85-.93-6.3,1.21-20.79,1.48-36.34-.36V13a185.15,185.15,0,0,0,26,1.27h0l2.09-2.4-2-.48v.05c-4.38.86-10.48.87-18.13.06v-.3c7.32.78,13.2.79,17.51,0-1.89-.47-3.8-1-5.72-1.51a55.59,55.59,0,0,1-10.32.15v-.3a54.8,54.8,0,0,0,9.5-.07C-3.58,7.7-10,5.67-16.38,3.45l.1-.29c1.71.61,3.42,1.19,5.13,1.76v-.1c3.25-.38,7.6-1.16,12.34-2.19h0L3.41.33C-6,1.8-14.06,2.62-16.17,2.82v-.3A334.39,334.39,0,0,0,18.59-2.77l.06.29C13.76-1.4,8.65-.5,3.89.25L1.75,2.54c1.31-.29,2.64-.6,4-.92l.06-.12L6,1.57C8.16,1,10.41.47,12.63-.13h.06C16-1,19.21-2,22.24-3v.14l.1-.14c1.86.81,7,3,14.38,5.61L38,2.53v.3l-.64.06.67.24-.1.28-1-.34-.35-.13.05-.14-.05.14C29.3.31,24.18-1.83,22.28-2.66c-1.18.38-2.38.75-3.6,1.12,1.61.65,3,1.26,4.38,1.85A58,58,0,0,0,38,5v.3A53.15,53.15,0,0,1,27.7,2.52l-2,2.23A109.3,109.3,0,0,0,38,8.16v.29A109.5,109.5,0,0,1,25.41,5h0c-2.51-.85-4.85-1.72-6.93-2.52L16.06,5.14a188.34,188.34,0,0,0,22,4.92v.29c-4.83-.77-9.9-1.81-14.65-3l.17.15-2.4,2.62c1.54.34,3.1.66,4.69,1,3.87.75,8,1.38,12.13,1.88v.3l-1-.12h0l-2.41,2.58c1.16.14,2.32.28,3.45.4v.3c-1.84-.2-3.73-.43-5.62-.69-5.9,2.16-14.29,3.82-24.27,4.82L5.22,23.88C21.3,21.07,34.81,17.42,36.53,17v0L38,16.54l.09.29-1.41.4L34.32,19.8c1.29-.42,2.51-.83,3.65-1.22l.09.29c-2.08.72-4.5,1.5-7,2.28,1.53.07,3.11.12,4.72.15H38v.3H35.93L31.09,27c2.16-.05,4.48-.17,6.91-.35V27c-3.06.23-5.94.36-8.55.37,0,0-2.92-.1-5.09-.29h0a46.07,46.07,0,0,1-9.26-1.48L13,26.1l-2.52,2.84a66.78,66.78,0,0,0,10.9,1.59V30.4l.54.18,2.15.14h.24C27,30.9,32,30.9,32,30.9c1.86,0,3.87,0,6-.2V31l-.76.05.81.35-.12.28-1.13-.49v-.12l-1.8.09-2.23,2.56c1.7.4,3.48.77,5.29,1.11v.29c-1.91-.35-3.77-.75-5.55-1.17v0c-2.11-.49-4.17-1-6.14-1.63l-4.45-1.44c-7.3-.53-12.68-1.6-16-3.18L4.33,28c5,2.35,16.91,5.73,17,5.77,6,1.44,11.6,2.59,16.67,3.39v.3c-5.08-.81-10.7-2-16.7-3.4l-2.83-.83L16,36c4,1,6.71,1.51,6.77,1.52,4.7,1,9.84,1.79,15.3,2.4v.3c-5.14-.57-10-1.32-14.46-2.22l.1.08-2.55,3.06,1.17.33h0l4.08.8v.13h0v-.14c2.93.35,6.72.68,10.66.94h0l1,.06v.31l-1-.07h0c-3.94-.26-7.73-.59-10.67-.94h-.06l-4.18-.81h0c-.85-.25-1.87-.51-3-.78v.25c-1.83.07-4.66.15-8.07.19Zm17.51-1.32ZM-2.17,41c8.79.32,17.08.11,21.06,0-1.32-.32-2.79-.65-4.29-1-1.88-.43-3.78-.86-5.53-1.28v.15c-1.52.1-5.48.33-9.52.22Zm5.85-4.2a99.22,99.22,0,0,0,11,2.85c2.28.52,4.47,1,6.22,1.46L20.8,41l2.55-3-.68-.14a119.3,119.3,0,0,1-17-4.62l-3,3.21,1,.37ZM.14,30.71a108.1,108.1,0,0,0,15.49,5.23l2.51-2.79c-4-1.2-10.87-3.36-14.19-5v-.08l-1.79.36ZM23.08,31l3.31,1c1.93.58,4,1.12,6,1.61l2.15-2.47H32s-5.07,0-7.72-.17H24ZM-2.8,29.35q1.3.64,2.64,1.23l1.85-2C.16,28.84-1.34,29.11-2.8,29.35ZM6.37,27.6a24.42,24.42,0,0,0,3.73,1.26l2.34-2.64C10.41,26.71,8.37,27.17,6.37,27.6Zm9.28-2.16a49.38,49.38,0,0,0,8.72,1.32h0c2.17.19,5.05.29,5.08.29h1.2L35.5,21.6c-1.82,0-3.61-.1-5.31-.19C25.49,22.84,20.47,24.23,15.65,25.44Zm8-5-3,3.38c3.19-.86,6.37-1.77,9.42-2.7h0c1.28-.39,2.55-.79,3.76-1.18l-.06-.05,2.26-2.51C34.46,17.82,29.91,19,23.69,20.44ZM1.09,17.2l-3.54,3.87c3.56-.17,7.06-.43,10.42-.76H8q3.47-.35,6.65-.8h0l2.64-3.17A137,137,0,0,1,1.09,17.2Zm16.63-.95-2.66,3.2a90.7,90.7,0,0,0,16.68-3.77q-3-.43-6.18-1h0A55,55,0,0,1,17.72,16.25ZM23.52,14c3,.57,6,1.05,8.86,1.45l2,.27-.08-.08,2.37-2.53c-3.69-.46-7.32-1-10.81-1.69Zm8.79,1.46v0ZM12.24,11.89l-2.05,2.36a75.6,75.6,0,0,0,9.14-.76Q15.84,12.76,12.24,11.89ZM3.92,9.44q10,2.74,19.27,4.56h0l2.31-2.57A131.8,131.8,0,0,1,4.32,5.6L1.47,8.75l2.2.62h.24ZM9.17,7q5.49,1.75,11.62,3.13h0l2.48-2.7C19,6.33,15,5.2,11.65,4.09l.06.06ZM-10.49,5.1C-6.6,6.35-2.7,7.56,1.15,8.66L4,5.49C2.28,4.84.58,4.15-1,3.44h0c-3.6.73-6.87,1.29-9.49,1.62Zm14.82.23c1.48.55,3,1.08,4.59,1.59h0L11.43,4A50.87,50.87,0,0,1,5.92,1.89c-2.21.53-4.38,1-6.45,1.44C1,4,2.66,4.67,4.33,5.29v0ZM6.39,1.77a77.3,77.3,0,0,0,9.35,3.28l2.44-2.69C16.67,1.77,15.3,1.22,14.11.74L12.69.16C10.6.73,8.48,1.27,6.39,1.77ZM25.45,4.88Zm0,0ZM13.17,0l1.06.43C17.08,1.61,21,3.18,25.41,4.68l2-2.24C25.93,1.87,24.5,1.25,23,.58s-3-1.28-4.72-2h0C16.57-.92,14.88-.44,13.17,0Z"/><path class="cls-1" d="M26,56A132.32,132.32,0,0,1,4.58,50.14L1.74,53.28,4,53.91l-.08.29C-2.67,52.39-9.35,50.29-16,48l.1-.28q2.55.9,5.12,1.75v-.06c3.25-.39,7.6-1.17,12.34-2.2h0l2.3-2.45c-8,1.29-15.48,2.26-19.76,2.68v-.3c7.68-.75,24.8-3.22,37-5.89l.06.3c-5.29,1.16-11.3,2.25-17,3.17l.13.12L2,47.07l4-.91L6.06,46l.16.07c2.24-.53,4.48-1.11,6.67-1.7H13c3.29-.89,6.5-1.84,9.54-2.81v.14l.06-.13c1.86.8,7,3,14.37,5.6l1.08-.1h0l2.22-.23h0l2.65-2.91-1.21-.06h0c-1.27-.07-2.5-.13-3.68-.21v-.3l1.77.11h0l2.46-2.72c-1.4-.13-2.81-.27-4.2-.42V40c1.49.16,3,.31,4.49.44h0c3.17.29,6.21.49,9.06.63l1.78-2A123.31,123.31,0,0,1,38,37.48v-.3l.77.12h0l1.56-1.76q-1.19-.2-2.37-.42v-.3c.85.16,1.71.31,2.56.45h.07A108.24,108.24,0,0,0,57.06,36.8q-1.89-.75-3.63-1.47a29.64,29.64,0,0,1-7.33-.81h0A49.23,49.23,0,0,1,38,31.68l.11-.28a50.27,50.27,0,0,0,8,2.81l1.31-1.46-2.09-.92L42.5,30.6c-1.56.17-3.06.3-4.48.4v-.3c1.38-.1,2.86-.23,4.38-.39v-.07l.12.05c1.41-.15,2.87-.34,4.38-.55h0l3.7-4.14c-4.48.64-8.71,1.11-12.57,1.4v-.3c2-.15,4.2-.36,6.44-.61L44.36,26l3.83-4.48c-3.38.11-6.79.15-10.18.12v-.3c4.44,0,8.92,0,13.32-.25h0l3.55-3.88h-.06c-3.68,0-7.55-.11-11.54-.33l-.17.1c-1.16.5-2.9,1.15-5,1.89L38,18.58c2-.67,3.56-1.27,4.68-1.74-1.34-.08-2.7-.17-4-.28l-.36.21-.2.06L38,16.54h.07v-.3h.57c1.52.12,3.07.22,4.61.31l.13-.07v.07c2.27.13,4.51.22,6.7.27l2.2-2.4c-4.5-.2-9.34-.57-14.28-1.15V13c15.53,1.83,30,1.57,36.26.36l.06.29c-4.23.82-12.18,1.21-21.67.82l-2.2,2.39c12.24.26,22.85-.59,29.22-2.41l.08.29c-5.54,1.59-14.28,2.44-24.49,2.47l-3.54,3.87c3.58-.18,7.1-.44,10.48-.77v.3c-4.37.43-9,.74-13.67.9L44.73,26c2-.23,4.06-.49,6.18-.8h0a354.33,354.33,0,0,0,39.74-8.27l.08.29A354.08,354.08,0,0,1,51,25.5l-3.74,4.17q4.26-.6,9-1.52v.15l.12.1-2.09,2.3a114.35,114.35,0,0,0,22.6,6.83c4.68,1,9.82,1.79,15.29,2.4v.3c-5.48-.61-10.63-1.42-15.32-2.4-.14,0-14.31-2.58-26-8.4-2.73.45-5.33.82-7.79,1.09l2.33,1,2.29,1c2.86,1.25,6.3,2.73,10.16,4.24l0,.14v.15A101.73,101.73,0,0,1,40.71,35.6l-1.56,1.76A116.44,116.44,0,0,0,53.7,38.73h0a75.44,75.44,0,0,0,8.77-.19v.3c-2.12.14-5,.29-8.73.2L52,41c8.74.41,15.61.26,18.67.15v.3a235,235,0,0,1-28.08-.79L40.1,43.43l1.57.09h0c5.35.26,12.8.48,20.73.25,3.44-.59,7-1.26,10.4-2l.06.3c-2.73.6-5.54,1.15-8.31,1.64,1.66-.06,3.33-.15,5-.26v.3c-2.39.16-4.79.27-7.14.34-11.17,1.91-21.4,3-24.2,3.26h0l-.64.06.67.24v.07c1.64.58,3.29,1.15,4.94,1.69v-.06a161.61,161.61,0,0,0,16.91-3.24l.07.29c-2.22.53-4.4,1-6.49,1.45,1.56.68,3.19,1.34,4.85,2l-.1.28c-1.81-.67-3.57-1.39-5.25-2.13h0c-3.58.73-6.84,1.29-9.47,1.63,4.75,1.57,9.5,3,14.19,4.31l-.08.29c-3.66-1-7.36-2.12-11.07-3.3V51c-2.17-.2-4.11-.43-5.92-.68L38.52,53l-.22-.2,2.23-2.51-2.48-.39h0a52.46,52.46,0,0,1-10-2.81l-2,2.23a105.37,105.37,0,0,0,12.32,3.37l-.06.3a107.23,107.23,0,0,1-12.57-3.46c-2.51-.84-4.85-1.71-6.93-2.52l-2.42,2.67a185.84,185.84,0,0,0,22,4.91l-.05.3a181.88,181.88,0,0,1-26.35-6.26l.07.06-2.54,2.8A139.92,139.92,0,0,0,26.1,55.66Zm-36.23-6.4c3.9,1.28,7.79,2.49,11.65,3.59L4.28,50c-1.73-.63-3.43-1.32-5-2h0C-4.34,48.7-7.6,49.26-10.23,49.6Zm14.82.22c1.49.55,3,1.09,4.6,1.59h0l2.55-2.81a55,55,0,0,1-5.51-2.14C4,47,1.86,47.46-.21,47.9c1.56.68,3.19,1.34,4.85,2V50ZM40.85,50c1.55.22,3.21.42,5,.6-2.59-.84-5.21-1.73-7.85-2.6v-.07l-1.14-.4,0-.14,0,.14c-7.35-2.63-12.46-4.78-14.37-5.61-1.17.38-2.37.75-3.6,1.12,1.61.65,3,1.26,4.38,1.85a58.1,58.1,0,0,0,15,4.74h0c.8.14,1.66.28,2.55.4ZM6.66,46.31A78.86,78.86,0,0,0,16,49.58l2.44-2.69c-1.51-.59-2.88-1.14-4.07-1.62L13,44.7C10.89,45.25,8.77,45.8,6.66,46.31ZM25.72,49.4ZM13.44,44.57,14.5,45c2.85,1.16,6.75,2.73,11.18,4.22l2-2.24c-1.48-.57-2.92-1.19-4.46-1.85l-4.72-2h0C16.83,43.62,15.15,44.1,13.44,44.57Zm29.89-.68-2.63,2.9c4-.43,11.5-1.32,19.7-2.66-6.4.12-12.4,0-17.11-.24Zm3.13-9.59a29.11,29.11,0,0,0,6.24.7c-1.82-.76-3.49-1.49-5-2.15Zm5-4.94c.87.43,1.76.84,2.65,1.23l1.85-2c-1.57.27-3.09.53-4.56.76ZM56.11,12A94.86,94.86,0,0,1,46,11.43h0c-2.53-.27-5.23-.64-8-1.09v-.29c2.76.44,5.43.81,7.94,1.08l1.24-1.34A76.94,76.94,0,0,1,38,8.44l.07-.29h.22l2.19-2.47c-.87-.12-1.7-.26-2.47-.39V5c.85.15,1.77.3,2.74.43,1.55.22,3.2.42,5,.6Q41.89,4.8,38,3.42l.09-.29q2.56.9,5.13,1.76V4.82A161.56,161.56,0,0,0,60.1,1.58l.07.29c-2.22.53-4.41,1-6.49,1.46,1.55.67,3.18,1.33,4.85,2l-.11.28c-1.8-.67-3.57-1.38-5.24-2.12h0c-3.58.73-6.85,1.3-9.47,1.63,4.76,1.57,9.51,3,14.19,4.31v.3a55.17,55.17,0,0,1-10.28.15l-1.25,1.35c7.49.78,13.45.75,17.74-.09l.06.3A43.48,43.48,0,0,1,56.11,12ZM47.55,9.51a53.94,53.94,0,0,0,9.51-.06Q51.94,8,46.75,6.36v.1c-2.19-.21-4.13-.43-5.92-.69L38.61,8.26A72.82,72.82,0,0,0,47.55,9.51ZM38,2.82v-.3l2.22-.23h0l4-4.39.23.21L40.59,2.25c6-.65,19.81-2.31,32.2-5l.07.29A336.24,336.24,0,0,1,38,2.82Z"/><polygon class="cls-1" points="25.69 30.78 25.42 30.65 27.03 27.24 27.3 27.36 25.69 30.78"/><circle class="cls-2" cx="1.05" cy="2.72" r="0.25"/><circle class="cls-2" cx="2.8" cy="2.32" r="0.25"/><circle class="cls-2" cx="4.55" cy="1.92" r="0.25"/><circle class="cls-2" cx="6.31" cy="1.53" r="0.25"/><circle class="cls-2" cx="8.06" cy="1.13" r="0.25"/><circle class="cls-2" cx="9.81" cy="0.74" r="0.25"/><circle class="cls-2" cx="11.57" cy="0.44" r="0.25"/><circle class="cls-2" cx="29.75" cy="0.2" r="0.25"/><circle class="cls-2" cx="31.42" cy="0.87" r="0.25"/><circle class="cls-2" cx="33.08" cy="1.55" r="0.25"/><circle class="cls-2" cx="34.78" cy="2.13" r="0.25"/><circle class="cls-2" cx="36.48" cy="2.7" r="0.25"/><circle class="cls-2" cx="38.18" cy="3.26" r="0.25"/><circle class="cls-2" cx="39.89" cy="3.82" r="0.25"/><circle class="cls-2" cx="41.59" cy="4.39" r="0.25"/><circle class="cls-2" cx="43.3" cy="4.95" r="0.25"/><circle class="cls-2" cx="45" cy="5.51" r="0.25"/><circle class="cls-2" cx="46.7" cy="6.08" r="0.25"/><circle class="cls-2" cx="48.41" cy="6.64" r="0.25"/><circle class="cls-2" cx="50.11" cy="7.2" r="0.25"/><circle class="cls-2" cx="51.82" cy="7.77" r="0.25"/><circle class="cls-2" cx="53.52" cy="8.33" r="0.25"/><circle class="cls-2" cx="41.86" cy="5.84" r="0.25"/><circle class="cls-2" cx="40.09" cy="5.55" r="0.25"/><circle class="cls-2" cx="38.34" cy="5.16" r="0.25"/><circle class="cls-2" cx="36.59" cy="4.77" r="0.25"/><circle class="cls-2" cx="34.84" cy="4.38" r="0.25"/><circle class="cls-2" cx="33.08" cy="4" r="0.25"/><circle class="cls-2" cx="31.33" cy="3.61" r="0.25"/><circle class="cls-2" cx="29.58" cy="3.22" r="0.25"/><circle class="cls-2" cx="27.89" cy="2.62" r="0.25"/><circle class="cls-2" cx="26.24" cy="1.94" r="0.25"/><circle class="cls-2" cx="24.59" cy="1.21" r="0.25"/><circle class="cls-2" cx="22.98" cy="0.43" r="0.25"/><circle class="cls-2" cx="21.36" cy="-0.36" r="0.25"/><path class="cls-2" d="M53.48,16.91a.26.26,0,0,1-.26.25.25.25,0,0,1,0-.5A.26.26,0,0,1,53.48,16.91Z"/><path class="cls-2" d="M51.5,16.86a.25.25,0,1,1-.5,0,.25.25,0,0,1,.5,0Z"/><path class="cls-2" d="M49.53,16.82a.26.26,0,0,1-.51,0,.26.26,0,1,1,.51,0Z"/><path class="cls-2" d="M47.55,16.77a.25.25,0,1,1-.25-.25A.25.25,0,0,1,47.55,16.77Z"/><path class="cls-2" d="M45.58,16.69a.25.25,0,0,1-.5,0,.25.25,0,1,1,.5,0Z"/><path class="cls-2" d="M43.62,16.51a.26.26,0,0,1-.26.25.25.25,0,0,1,0-.5A.26.26,0,0,1,43.62,16.51Z"/><path class="cls-2" d="M41.65,16.33a.26.26,0,0,1-.25.26.26.26,0,0,1-.26-.26.26.26,0,0,1,.26-.25A.25.25,0,0,1,41.65,16.33Z"/><path class="cls-2" d="M39.68,16.16a.25.25,0,1,1-.5,0,.25.25,0,1,1,.5,0Z"/><path class="cls-2" d="M37.72,16a.26.26,0,1,1-.26-.25A.26.26,0,0,1,37.72,16Z"/><path class="cls-2" d="M35.75,15.8a.25.25,0,1,1-.5,0,.25.25,0,1,1,.5,0Z"/><path class="cls-2" d="M33.78,15.63a.25.25,0,1,1-.5,0,.25.25,0,1,1,.5,0Z"/><path class="cls-2" d="M31.82,15.45a.25.25,0,0,1-.25.25.25.25,0,1,1,0-.5A.25.25,0,0,1,31.82,15.45Z"/><path class="cls-2" d="M29.87,15.13a.25.25,0,1,1-.25-.25A.25.25,0,0,1,29.87,15.13Z"/><path class="cls-2" d="M27.93,14.77a.25.25,0,1,1-.5,0,.25.25,0,1,1,.5,0Z"/><path class="cls-2" d="M26,14.4a.25.25,0,1,1-.5,0,.25.25,0,0,1,.5,0Z"/><path class="cls-2" d="M24.05,14a.25.25,0,1,1-.25-.25A.25.25,0,0,1,24.05,14Z"/><path class="cls-2" d="M22.11,13.68a.25.25,0,0,1-.25.25.25.25,0,1,1,0-.5A.25.25,0,0,1,22.11,13.68Z"/><path class="cls-2" d="M20.17,13.32a.25.25,0,0,1-.25.25.26.26,0,1,1,0-.51A.26.26,0,0,1,20.17,13.32Z"/><path class="cls-2" d="M18.23,13a.25.25,0,0,1-.25.25.25.25,0,1,1,0-.5A.25.25,0,0,1,18.23,13Z"/><path class="cls-2" d="M16.29,12.57a.25.25,0,1,1-.25-.25A.25.25,0,0,1,16.29,12.57Z"/><path class="cls-2" d="M14.37,12.1a.25.25,0,1,1-.5,0,.25.25,0,0,1,.5,0Z"/><path class="cls-2" d="M12.46,11.64a.26.26,0,0,1-.26.25.25.25,0,0,1,0-.5A.26.26,0,0,1,12.46,11.64Z"/><path class="cls-2" d="M10.54,11.17a.26.26,0,0,1-.26.26.26.26,0,0,1-.25-.26.25.25,0,0,1,.25-.25A.26.26,0,0,1,10.54,11.17Z"/><path class="cls-2" d="M8.62,10.71a.26.26,0,1,1-.25-.25A.25.25,0,0,1,8.62,10.71Z"/><path class="cls-2" d="M6.7,10.24a.26.26,0,0,1-.25.26.26.26,0,1,1,0-.51A.25.25,0,0,1,6.7,10.24Z"/><path class="cls-2" d="M4.78,9.78a.25.25,0,0,1-.25.25.25.25,0,1,1,0-.5A.25.25,0,0,1,4.78,9.78Z"/><path class="cls-2" d="M2.89,9.22A.26.26,0,1,1,2.64,9,.25.25,0,0,1,2.89,9.22Z"/><path class="cls-2" d="M1,8.64a.26.26,0,0,1-.25.26.26.26,0,0,1-.26-.26.26.26,0,0,1,.26-.25A.25.25,0,0,1,1,8.64Z"/><path class="cls-2" d="M52.26,14.44a.26.26,0,0,1-.26.25.25.25,0,0,1,0-.5A.26.26,0,0,1,52.26,14.44Z"/><path class="cls-2" d="M49.75,14.29a.25.25,0,0,1-.25.25.25.25,0,1,1,0-.5A.25.25,0,0,1,49.75,14.29Z"/><path class="cls-2" d="M47.24,14.14a.25.25,0,0,1-.25.25.26.26,0,0,1-.26-.25.26.26,0,0,1,.26-.26A.26.26,0,0,1,47.24,14.14Z"/><path class="cls-2" d="M44.73,14a.25.25,0,1,1-.5,0,.25.25,0,1,1,.5,0Z"/><path class="cls-2" d="M42.22,13.83a.25.25,0,1,1-.25-.25A.25.25,0,0,1,42.22,13.83Z"/><path class="cls-2" d="M39.73,13.59a.26.26,0,0,1-.26.25.25.25,0,0,1-.25-.25.26.26,0,0,1,.25-.26A.26.26,0,0,1,39.73,13.59Z"/><path class="cls-2" d="M37.25,13.17a.26.26,0,1,1-.51,0,.26.26,0,0,1,.51,0Z"/><path class="cls-2" d="M34.77,12.76a.25.25,0,0,1-.25.25.25.25,0,1,1,0-.5A.25.25,0,0,1,34.77,12.76Z"/><path class="cls-2" d="M32.29,12.35a.25.25,0,1,1-.5,0,.25.25,0,1,1,.5,0Z"/><path class="cls-2" d="M29.81,11.93a.25.25,0,1,1-.5,0,.25.25,0,1,1,.5,0Z"/><path class="cls-2" d="M27.33,11.52a.25.25,0,1,1-.25-.25A.25.25,0,0,1,27.33,11.52Z"/><path class="cls-2" d="M24.86,11.11a.26.26,0,0,1-.26.25.25.25,0,0,1,0-.5A.26.26,0,0,1,24.86,11.11Z"/><path class="cls-2" d="M22.42,10.51a.26.26,0,0,1-.26.25.25.25,0,0,1,0-.5A.26.26,0,0,1,22.42,10.51Z"/><path class="cls-2" d="M20,9.9a.25.25,0,0,1-.25.25.26.26,0,0,1-.26-.25.26.26,0,0,1,.26-.26A.26.26,0,0,1,20,9.9Z"/><path class="cls-2" d="M17.54,9.28a.25.25,0,1,1-.5,0,.25.25,0,0,1,.5,0Z"/><path class="cls-2" d="M15.11,8.67a.26.26,0,0,1-.26.25.25.25,0,0,1,0-.5A.26.26,0,0,1,15.11,8.67Z"/><path class="cls-2" d="M12.67,8.06a.25.25,0,0,1-.25.25.26.26,0,1,1,0-.51A.26.26,0,0,1,12.67,8.06Z"/><path class="cls-2" d="M10.28,7.29a.26.26,0,1,1-.51,0,.26.26,0,0,1,.51,0Z"/><path class="cls-2" d="M7.91,6.46a.26.26,0,0,1-.26.26.26.26,0,0,1-.25-.26.25.25,0,0,1,.25-.25A.26.26,0,0,1,7.91,6.46Z"/><path class="cls-2" d="M5.53,5.63a.25.25,0,1,1-.5,0,.25.25,0,0,1,.5,0Z"/><path class="cls-2" d="M3.16,4.8a.25.25,0,1,1-.25-.25A.25.25,0,0,1,3.16,4.8Z"/><path class="cls-2" d="M.79,4a.25.25,0,1,1-.25-.25A.25.25,0,0,1,.79,4Z"/><path class="cls-2" d="M8.38,2.58a.25.25,0,1,1-.25-.26A.25.25,0,0,1,8.38,2.58Z"/><path class="cls-2" d="M10.25,3.21a.25.25,0,1,1-.5,0,.25.25,0,1,1,.5,0Z"/><path class="cls-2" d="M12.13,3.84a.26.26,0,0,1-.26.25.25.25,0,0,1,0-.5A.26.26,0,0,1,12.13,3.84Z"/><path class="cls-2" d="M14,4.47a.26.26,0,0,1-.26.25.25.25,0,0,1,0-.5A.26.26,0,0,1,14,4.47Z"/><path class="cls-2" d="M15.89,5a.25.25,0,0,1-.25.25.25.25,0,1,1,0-.5A.25.25,0,0,1,15.89,5Z"/><path class="cls-2" d="M17.79,5.54a.25.25,0,1,1-.5,0,.25.25,0,1,1,.5,0Z"/><path class="cls-2" d="M19.7,6.06a.25.25,0,0,1-.25.25.25.25,0,1,1,0-.5A.25.25,0,0,1,19.7,6.06Z"/><path class="cls-2" d="M21.61,6.58a.26.26,0,0,1-.26.25.26.26,0,0,1,0-.51A.26.26,0,0,1,21.61,6.58Z"/><path class="cls-2" d="M23.52,7.06a.25.25,0,0,1-.25.25A.26.26,0,0,1,23,7.06a.26.26,0,0,1,.26-.26A.26.26,0,0,1,23.52,7.06Z"/><path class="cls-2" d="M25.45,7.49a.26.26,0,0,1-.26.25.25.25,0,0,1-.25-.25.26.26,0,0,1,.25-.26A.26.26,0,0,1,25.45,7.49Z"/><path class="cls-2" d="M27.37,7.92a.25.25,0,0,1-.5,0,.25.25,0,1,1,.5,0Z"/><path class="cls-2" d="M29.3,8.35a.25.25,0,0,1-.25.25.26.26,0,0,1-.26-.25.26.26,0,0,1,.26-.26A.26.26,0,0,1,29.3,8.35Z"/><path class="cls-2" d="M31.23,8.78A.26.26,0,0,1,31,9a.25.25,0,0,1-.25-.25A.26.26,0,0,1,31,8.52.26.26,0,0,1,31.23,8.78Z"/><path class="cls-2" d="M33.15,9.21a.25.25,0,0,1-.5,0,.25.25,0,1,1,.5,0Z"/><path class="cls-2" d="M35.08,9.63a.25.25,0,1,1-.5,0,.25.25,0,0,1,.5,0Z"/><path class="cls-2" d="M37,9.9a.26.26,0,0,1-.51,0,.26.26,0,1,1,.51,0Z"/><path class="cls-2" d="M39,10.16a.25.25,0,1,1-.25-.25A.25.25,0,0,1,39,10.16Z"/><path class="cls-2" d="M41,10.42a.25.25,0,1,1-.5,0,.25.25,0,0,1,.5,0Z"/><path class="cls-2" d="M42.91,10.69a.26.26,0,0,1-.51,0,.26.26,0,1,1,.51,0Z"/><path class="cls-2" d="M44.86,11a.25.25,0,1,1-.25-.25A.25.25,0,0,1,44.86,11Z"/><path class="cls-2" d="M46.82,11.21a.25.25,0,0,1-.5,0,.25.25,0,1,1,.5,0Z"/><path class="cls-2" d="M48.78,11.46a.25.25,0,0,1-.25.25.25.25,0,1,1,0-.5A.25.25,0,0,1,48.78,11.46Z"/><path class="cls-2" d="M50.74,11.72a.26.26,0,0,1-.26.25.25.25,0,0,1-.25-.25.26.26,0,0,1,.25-.26A.26.26,0,0,1,50.74,11.72Z"/><path class="cls-2" d="M52.7,11.88a.25.25,0,1,1-.5,0,.25.25,0,1,1,.5,0Z"/><path class="cls-2" d="M52.12,9.88a.26.26,0,0,1-.26.26.26.26,0,0,1,0-.51A.26.26,0,0,1,52.12,9.88Z"/><path class="cls-2" d="M50.14,9.85a.25.25,0,1,1-.5,0,.25.25,0,0,1,.5,0Z"/><path class="cls-2" d="M48.17,9.81a.25.25,0,0,1-.25.25.25.25,0,1,1,0-.5A.25.25,0,0,1,48.17,9.81Z"/><path class="cls-2" d="M46.22,9.5a.26.26,0,0,1-.25.26.26.26,0,0,1-.26-.26A.26.26,0,0,1,46,9.25.25.25,0,0,1,46.22,9.5Z"/><path class="cls-2" d="M44.27,9.2a.25.25,0,0,1-.25.25.26.26,0,0,1-.26-.25A.26.26,0,0,1,44,8.94.26.26,0,0,1,44.27,9.2Z"/><path class="cls-2" d="M42.32,8.89a.25.25,0,0,1-.25.25.26.26,0,0,1-.26-.25.26.26,0,0,1,.26-.26A.26.26,0,0,1,42.32,8.89Z"/><path class="cls-2" d="M40.38,8.54a.26.26,0,0,1-.51,0,.26.26,0,1,1,.51,0Z"/><path class="cls-2" d="M38.45,8.1a.25.25,0,1,1-.25-.25A.25.25,0,0,1,38.45,8.1Z"/><path class="cls-2" d="M36.53,7.67a.26.26,0,0,1-.26.25.26.26,0,0,1,0-.51A.26.26,0,0,1,36.53,7.67Z"/><path class="cls-2" d="M34.6,7.23A.25.25,0,1,1,34.35,7,.25.25,0,0,1,34.6,7.23Z"/><path class="cls-2" d="M32.68,6.76a.25.25,0,1,1-.25-.25A.26.26,0,0,1,32.68,6.76Z"/><path class="cls-2" d="M30.8,6.19a.26.26,0,0,1-.26.25.25.25,0,0,1-.25-.25.26.26,0,0,1,.25-.26A.26.26,0,0,1,30.8,6.19Z"/><path class="cls-2" d="M28.91,5.61a.25.25,0,0,1-.25.25.25.25,0,1,1,0-.5A.25.25,0,0,1,28.91,5.61Z"/><path class="cls-2" d="M27,5a.25.25,0,1,1-.25-.25A.25.25,0,0,1,27,5Z"/><path class="cls-2" d="M25.13,4.45a.25.25,0,1,1-.25-.25A.25.25,0,0,1,25.13,4.45Z"/><path class="cls-2" d="M23.25,3.87a.26.26,0,0,1-.26.26.26.26,0,0,1-.25-.26A.25.25,0,0,1,23,3.62.26.26,0,0,1,23.25,3.87Z"/><path class="cls-2" d="M21.36,3.29a.26.26,0,1,1-.51,0,.26.26,0,0,1,.51,0Z"/><path class="cls-2" d="M19.53,2.56a.26.26,0,0,1-.26.25.25.25,0,0,1,0-.5A.26.26,0,0,1,19.53,2.56Z"/><path class="cls-2" d="M17.69,1.82a.25.25,0,1,1-.25-.25A.25.25,0,0,1,17.69,1.82Z"/><path class="cls-2" d="M15.86,1.08a.25.25,0,1,1-.25-.25A.26.26,0,0,1,15.86,1.08Z"/><path class="cls-2" d="M14,.35a.25.25,0,0,1-.5,0,.25.25,0,1,1,.5,0Z"/><path class="cls-2" d="M51.7,1.08a.25.25,0,1,1-.25-.25A.25.25,0,0,1,51.7,1.08Z"/><path class="cls-2" d="M49.23,1.52A.25.25,0,1,1,49,1.27.25.25,0,0,1,49.23,1.52Z"/><path class="cls-2" d="M46.73,1.79a.25.25,0,1,1-.25-.25A.25.25,0,0,1,46.73,1.79Z"/><path class="cls-2" d="M44.23,2a.25.25,0,0,1-.5,0,.25.25,0,1,1,.5,0Z"/><path class="cls-2" d="M41.73,2.28A.25.25,0,1,1,41.48,2,.25.25,0,0,1,41.73,2.28Z"/><path class="cls-2" d="M39.23,2.53a.25.25,0,1,1-.5,0,.25.25,0,1,1,.5,0Z"/><circle class="cls-2" cx="52.24" cy="3.47" r="0.25"/><circle class="cls-2" cx="50.47" cy="3.79" r="0.25"/><circle class="cls-2" cx="48.7" cy="4.04" r="0.25"/><circle class="cls-2" cx="46.92" cy="4.28" r="0.25"/><circle class="cls-2" cx="45.14" cy="4.52" r="0.25"/><circle class="cls-2" cx="0.85" cy="28.6" r="0.25"/><circle class="cls-2" cx="2.6" cy="28.22" r="0.25"/><circle class="cls-2" cx="4.36" cy="27.85" r="0.25"/><circle class="cls-2" cx="6.11" cy="27.47" r="0.25"/><circle class="cls-2" cx="7.86" cy="27.06" r="0.25"/><circle class="cls-2" cx="9.61" cy="26.64" r="0.25"/><circle class="cls-2" cx="11.35" cy="26.22" r="0.25"/><circle class="cls-2" cx="13.09" cy="25.8" r="0.25"/><circle class="cls-2" cx="14.84" cy="25.37" r="0.25"/><circle class="cls-2" cx="16.58" cy="24.93" r="0.25"/><circle class="cls-2" cx="18.31" cy="24.48" r="0.25"/><circle class="cls-2" cx="20.05" cy="24.02" r="0.25"/><circle class="cls-2" cx="21.79" cy="23.57" r="0.25"/><circle class="cls-2" cx="23.53" cy="23.12" r="0.25"/><circle class="cls-2" cx="25.25" cy="22.63" r="0.25"/><circle class="cls-2" cx="26.97" cy="22.11" r="0.25"/><circle class="cls-2" cx="28.68" cy="21.58" r="0.25"/><circle class="cls-2" cx="30.4" cy="21.06" r="0.25"/><circle class="cls-2" cx="32.12" cy="20.53" r="0.25"/><circle class="cls-2" cx="33.83" cy="20.01" r="0.25"/><circle class="cls-2" cx="35.54" cy="19.44" r="0.25"/><circle class="cls-2" cx="37.23" cy="18.84" r="0.25"/><circle class="cls-2" cx="38.92" cy="18.23" r="0.25"/><circle class="cls-2" cx="40.61" cy="17.63" r="0.25"/><circle class="cls-2" cx="42.29" cy="17.02" r="0.25"/><path class="cls-2" d="M30.55,16.22a.26.26,0,1,1-.26-.25A.26.26,0,0,1,30.55,16.22Z"/><path class="cls-2" d="M28.16,17a.25.25,0,1,1-.5,0,.25.25,0,0,1,.5,0Z"/><path class="cls-2" d="M25.72,17.6a.25.25,0,1,1-.5,0,.25.25,0,0,1,.5,0Z"/><path class="cls-2" d="M23.28,18.2a.25.25,0,1,1-.5,0,.25.25,0,1,1,.5,0Z"/><path class="cls-2" d="M20.81,18.64a.25.25,0,0,1-.25.25.25.25,0,1,1,0-.5A.25.25,0,0,1,20.81,18.64Z"/><path class="cls-2" d="M18.34,19.08a.26.26,0,0,1-.26.25.25.25,0,0,1,0-.5A.26.26,0,0,1,18.34,19.08Z"/><path class="cls-2" d="M15.86,19.52a.25.25,0,1,1-.5,0,.25.25,0,1,1,.5,0Z"/><path class="cls-2" d="M13.37,19.83a.25.25,0,0,1-.25.25.26.26,0,0,1-.26-.25.26.26,0,0,1,.26-.26A.26.26,0,0,1,13.37,19.83Z"/><path class="cls-2" d="M10.87,20.11a.25.25,0,1,1-.25-.25A.25.25,0,0,1,10.87,20.11Z"/><path class="cls-2" d="M8.38,20.39a.26.26,0,0,1-.26.26.26.26,0,0,1-.25-.26.25.25,0,0,1,.25-.25A.26.26,0,0,1,8.38,20.39Z"/><path class="cls-2" d="M5.87,20.63a.25.25,0,0,1-.5,0,.25.25,0,1,1,.5,0Z"/><path class="cls-2" d="M3.37,20.81a.26.26,0,0,1-.25.26.26.26,0,0,1-.26-.26.26.26,0,0,1,.26-.25A.25.25,0,0,1,3.37,20.81Z"/><path class="cls-2" d="M.86,21a.25.25,0,1,1-.25-.25A.25.25,0,0,1,.86,21Z"/><circle class="cls-2" cx="23.53" cy="15.1" r="0.25"/><circle class="cls-2" cx="21.78" cy="15.5" r="0.25"/><circle class="cls-2" cx="20.01" cy="15.82" r="0.25"/><circle class="cls-2" cx="18.24" cy="16.11" r="0.25"/><circle class="cls-2" cx="16.47" cy="16.37" r="0.25"/><circle class="cls-2" cx="14.67" cy="16.48" r="0.25"/><circle class="cls-2" cx="12.88" cy="16.58" r="0.25"/><circle class="cls-2" cx="11.09" cy="16.69" r="0.25"/><circle class="cls-2" cx="9.3" cy="16.79" r="0.25"/><circle class="cls-2" cx="7.5" cy="16.84" r="0.25"/><circle class="cls-2" cx="5.71" cy="16.87" r="0.25"/><circle class="cls-2" cx="3.92" cy="16.89" r="0.25"/><circle class="cls-2" cx="2.12" cy="16.91" r="0.25"/><circle class="cls-2" cx="0.33" cy="16.93" r="0.25"/><circle class="cls-2" cx="16.46" cy="13.97" r="0.25"/><circle class="cls-2" cx="14.68" cy="14.21" r="0.25"/><circle class="cls-2" cx="12.89" cy="14.3" r="0.25"/><circle class="cls-2" cx="11.09" cy="14.33" r="0.25"/><circle class="cls-2" cx="9.3" cy="14.36" r="0.25"/><circle class="cls-2" cx="7.51" cy="14.37" r="0.25"/><circle class="cls-2" cx="5.71" cy="14.37" r="0.25"/><circle class="cls-2" cx="3.92" cy="14.37" r="0.25"/><circle class="cls-2" cx="2.12" cy="14.37" r="0.25"/><circle class="cls-2" cx="0.33" cy="14.37" r="0.25"/><circle class="cls-2" cx="7.69" cy="11.49" r="0.25"/><circle class="cls-2" cx="5.91" cy="11.7" r="0.25"/><circle class="cls-2" cx="4.13" cy="11.91" r="0.25"/><circle class="cls-2" cx="2.33" cy="11.91" r="0.25"/><circle class="cls-2" cx="0.54" cy="11.91" r="0.25"/><circle class="cls-2" cx="0.52" cy="10.01" r="0.25"/><circle class="cls-2" cx="52.84" cy="21.04" r="0.25"/><circle class="cls-2" cx="51.04" cy="21.11" r="0.25"/><circle class="cls-2" cx="49.25" cy="21.18" r="0.25"/><circle class="cls-2" cx="47.46" cy="21.25" r="0.25"/><circle class="cls-2" cx="45.66" cy="21.32" r="0.25"/><circle class="cls-2" cx="43.87" cy="21.39" r="0.25"/><circle class="cls-2" cx="42.08" cy="21.46" r="0.25"/><circle class="cls-2" cx="40.28" cy="21.46" r="0.25"/><circle class="cls-2" cx="38.49" cy="21.44" r="0.25"/><circle class="cls-2" cx="36.69" cy="21.42" r="0.25"/><circle class="cls-2" cx="34.9" cy="21.4" r="0.25"/><circle class="cls-2" cx="33.11" cy="21.38" r="0.25"/><circle class="cls-2" cx="53.71" cy="28.78" r="0.25"/><circle class="cls-2" cx="51.94" cy="29.1" r="0.25"/><circle class="cls-2" cx="50.18" cy="29.43" r="0.25"/><circle class="cls-2" cx="48.41" cy="29.76" r="0.25"/><circle class="cls-2" cx="46.64" cy="29.99" r="0.25"/><circle class="cls-2" cx="44.85" cy="30.16" r="0.25"/><circle class="cls-2" cx="43.06" cy="30.32" r="0.25"/><circle class="cls-2" cx="41.27" cy="30.48" r="0.25"/><circle class="cls-2" cx="39.49" cy="30.64" r="0.25"/><circle class="cls-2" cx="37.7" cy="30.81" r="0.25"/><circle class="cls-2" cx="35.91" cy="30.87" r="0.25"/><circle class="cls-2" cx="34.11" cy="30.88" r="0.25"/><circle class="cls-2" cx="32.32" cy="30.9" r="0.25"/><circle class="cls-2" cx="30.52" cy="30.92" r="0.25"/><circle class="cls-2" cx="28.73" cy="30.94" r="0.25"/><circle class="cls-2" cx="26.93" cy="30.89" r="0.25"/><circle class="cls-2" cx="25.14" cy="30.79" r="0.25"/><circle class="cls-2" cx="23.35" cy="30.69" r="0.25"/><circle class="cls-2" cx="21.56" cy="30.59" r="0.25"/><circle class="cls-2" cx="19.77" cy="30.48" r="0.25"/><circle class="cls-2" cx="17.98" cy="30.38" r="0.25"/><circle class="cls-2" cx="16.18" cy="30.27" r="0.25"/><circle class="cls-2" cx="14.43" cy="29.88" r="0.25"/><circle class="cls-2" cx="12.68" cy="29.48" r="0.25"/><circle class="cls-2" cx="10.93" cy="29.09" r="0.25"/><circle class="cls-2" cx="9.18" cy="28.69" r="0.25"/><circle class="cls-2" cx="7.43" cy="28.29" r="0.25"/><path class="cls-2" d="M52.35,41.2a.25.25,0,0,1-.25.25.25.25,0,1,1,0-.5A.25.25,0,0,1,52.35,41.2Z"/><path class="cls-2" d="M49.84,41.08a.26.26,0,0,1-.25.26.26.26,0,0,1-.26-.26.26.26,0,0,1,.26-.25A.25.25,0,0,1,49.84,41.08Z"/><path class="cls-2" d="M47.33,41a.25.25,0,0,1-.25.25.26.26,0,0,1-.26-.25.26.26,0,0,1,.26-.26A.26.26,0,0,1,47.33,41Z"/><path class="cls-2" d="M44.82,40.79a.25.25,0,1,1-.25-.25A.26.26,0,0,1,44.82,40.79Z"/><path class="cls-2" d="M42.33,40.53a.26.26,0,0,1-.26.25.25.25,0,1,1,0-.5A.26.26,0,0,1,42.33,40.53Z"/><path class="cls-2" d="M39.83,40.27a.26.26,0,0,1-.26.25.25.25,0,0,1-.25-.25.26.26,0,0,1,.25-.26A.26.26,0,0,1,39.83,40.27Z"/><path class="cls-2" d="M37.33,40a.26.26,0,0,1-.25.26.26.26,0,0,1-.26-.26.26.26,0,0,1,.26-.25A.25.25,0,0,1,37.33,40Z"/><path class="cls-2" d="M34.83,39.74a.25.25,0,0,1-.25.25.25.25,0,1,1,0-.5A.25.25,0,0,1,34.83,39.74Z"/><path class="cls-2" d="M32.35,39.36a.26.26,0,0,1-.26.25.25.25,0,0,1,0-.5A.26.26,0,0,1,32.35,39.36Z"/><path class="cls-2" d="M29.87,38.93a.25.25,0,1,1-.25-.25A.25.25,0,0,1,29.87,38.93Z"/><path class="cls-2" d="M27.39,38.5a.25.25,0,1,1-.5,0,.25.25,0,0,1,.5,0Z"/><path class="cls-2" d="M24.92,38.08a.25.25,0,0,1-.25.25.26.26,0,0,1-.26-.25.26.26,0,0,1,.26-.26A.26.26,0,0,1,24.92,38.08Z"/><path class="cls-2" d="M22.45,37.61a.25.25,0,1,1-.25-.25A.25.25,0,0,1,22.45,37.61Z"/><path class="cls-2" d="M20,37a.25.25,0,1,1-.25-.25A.25.25,0,0,1,20,37Z"/><path class="cls-2" d="M17.56,36.47a.26.26,0,0,1-.51,0,.26.26,0,1,1,.51,0Z"/><path class="cls-2" d="M15.11,35.89a.25.25,0,1,1-.5,0,.25.25,0,0,1,.5,0Z"/><path class="cls-2" d="M12.66,35.32a.25.25,0,1,1-.25-.25A.25.25,0,0,1,12.66,35.32Z"/><path class="cls-2" d="M10.26,34.6a.25.25,0,1,1-.25-.25A.25.25,0,0,1,10.26,34.6Z"/><path class="cls-2" d="M7.91,33.71a.25.25,0,1,1-.25-.25A.25.25,0,0,1,7.91,33.71Z"/><path class="cls-2" d="M5.56,32.82a.25.25,0,1,1-.25-.25A.25.25,0,0,1,5.56,32.82Z"/><path class="cls-2" d="M3.21,31.93A.25.25,0,1,1,3,31.68.25.25,0,0,1,3.21,31.93Z"/><path class="cls-2" d="M.86,31a.25.25,0,1,1-.25-.25A.25.25,0,0,1,.86,31Z"/><circle class="cls-2" cx="52.02" cy="38.91" r="0.25"/><circle class="cls-2" cx="50.23" cy="38.77" r="0.25"/><circle class="cls-2" cx="48.45" cy="38.61" r="0.25"/><circle class="cls-2" cx="46.66" cy="38.46" r="0.25"/><circle class="cls-2" cx="44.87" cy="38.28" r="0.25"/><circle class="cls-2" cx="43.1" cy="38.02" r="0.25"/><circle class="cls-2" cx="41.32" cy="37.75" r="0.25"/><circle class="cls-2" cx="39.55" cy="37.49" r="0.25"/><circle class="cls-2" cx="37.77" cy="37.23" r="0.25"/><circle class="cls-2" cx="36" cy="36.95" r="0.25"/><circle class="cls-2" cx="34.23" cy="36.62" r="0.25"/><circle class="cls-2" cx="32.47" cy="36.29" r="0.25"/><circle class="cls-2" cx="30.71" cy="35.96" r="0.25"/><circle class="cls-2" cx="28.94" cy="35.63" r="0.25"/><circle class="cls-2" cx="27.18" cy="35.3" r="0.25"/><circle class="cls-2" cx="25.42" cy="34.95" r="0.25"/><circle class="cls-2" cx="23.68" cy="34.52" r="0.25"/><circle class="cls-2" cx="21.93" cy="34.08" r="0.25"/><circle class="cls-2" cx="20.19" cy="33.65" r="0.25"/><circle class="cls-2" cx="18.45" cy="33.22" r="0.25"/><circle class="cls-2" cx="16.71" cy="32.79" r="0.25"/><circle class="cls-2" cx="15" cy="32.24" r="0.25"/><circle class="cls-2" cx="13.31" cy="31.63" r="0.25"/><circle class="cls-2" cx="11.63" cy="31.02" r="0.25"/><circle class="cls-2" cx="9.94" cy="30.41" r="0.25"/><circle class="cls-2" cx="8.25" cy="29.8" r="0.25"/><circle class="cls-2" cx="6.56" cy="29.19" r="0.25"/><circle class="cls-2" cx="4.87" cy="28.58" r="0.25"/><circle class="cls-2" cx="53.37" cy="36.8" r="0.25"/><circle class="cls-2" cx="51.58" cy="36.69" r="0.25"/><circle class="cls-2" cx="49.79" cy="36.58" r="0.25"/><circle class="cls-2" cx="48" cy="36.47" r="0.25"/><circle class="cls-2" cx="46.22" cy="36.26" r="0.25"/><circle class="cls-2" cx="44.44" cy="36.01" r="0.25"/><circle class="cls-2" cx="42.66" cy="35.77" r="0.25"/><circle class="cls-2" cx="40.88" cy="35.53" r="0.25"/><circle class="cls-2" cx="39.12" cy="35.18" r="0.25"/><circle class="cls-2" cx="37.36" cy="34.81" r="0.25"/><circle class="cls-2" cx="35.61" cy="34.44" r="0.25"/><circle class="cls-2" cx="33.85" cy="34.07" r="0.25"/><circle class="cls-2" cx="32.1" cy="33.68" r="0.25"/><circle class="cls-2" cx="30.36" cy="33.23" r="0.25"/><circle class="cls-2" cx="28.62" cy="32.79" r="0.25"/><circle class="cls-2" cx="26.89" cy="32.34" r="0.25"/><circle class="cls-2" cx="25.15" cy="31.89" r="0.25"/><circle class="cls-2" cx="52.41" cy="34.73" r="0.25"/><circle class="cls-2" cx="50.77" cy="34.01" r="0.25"/><circle class="cls-2" cx="49.13" cy="33.29" r="0.25"/><circle class="cls-2" cx="47.48" cy="32.57" r="0.25"/><circle class="cls-2" cx="45.83" cy="31.85" r="0.25"/><circle class="cls-2" cx="44.19" cy="31.14" r="0.25"/><circle class="cls-2" cx="52.15" cy="30.19" r="0.25"/><circle class="cls-2" cx="53.35" cy="43.93" r="0.25"/><circle class="cls-2" cx="51.56" cy="43.93" r="0.25"/><circle class="cls-2" cx="49.76" cy="43.93" r="0.25"/><circle class="cls-2" cx="47.97" cy="43.9" r="0.25"/><circle class="cls-2" cx="46.17" cy="43.83" r="0.25"/><circle class="cls-2" cx="44.38" cy="43.76" r="0.25"/><circle class="cls-2" cx="42.59" cy="43.69" r="0.25"/><circle class="cls-2" cx="40.79" cy="43.62" r="0.25"/><circle class="cls-2" cx="39" cy="43.55" r="0.25"/><circle class="cls-2" cx="37.22" cy="43.36" r="0.25"/><circle class="cls-2" cx="35.43" cy="43.15" r="0.25"/><circle class="cls-2" cx="33.65" cy="42.95" r="0.25"/><circle class="cls-2" cx="31.87" cy="42.74" r="0.25"/><circle class="cls-2" cx="30.09" cy="42.53" r="0.25"/><circle class="cls-2" cx="28.3" cy="42.33" r="0.25"/><circle class="cls-2" cx="26.52" cy="42.12" r="0.25"/><circle class="cls-2" cx="24.75" cy="41.84" r="0.25"/><circle class="cls-2" cx="22.99" cy="41.49" r="0.25"/><circle class="cls-2" cx="21.23" cy="41.15" r="0.25"/><circle class="cls-2" cx="19.47" cy="40.8" r="0.25"/><circle class="cls-2" cx="17.71" cy="40.45" r="0.25"/><circle class="cls-2" cx="15.94" cy="40.11" r="0.25"/><circle class="cls-2" cx="14.18" cy="39.76" r="0.25"/><circle class="cls-2" cx="12.44" cy="39.34" r="0.25"/><circle class="cls-2" cx="10.72" cy="38.81" r="0.25"/><circle class="cls-2" cx="9.01" cy="38.29" r="0.25"/><circle class="cls-2" cx="7.29" cy="37.77" r="0.25"/><circle class="cls-2" cx="5.57" cy="37.25" r="0.25"/><circle class="cls-2" cx="3.86" cy="36.73" r="0.25"/><circle class="cls-2" cx="2.14" cy="36.21" r="0.25"/><circle class="cls-2" cx="0.42" cy="35.68" r="0.25"/><circle class="cls-2" cx="5.99" cy="38.9" r="0.25"/><circle class="cls-2" cx="4.2" cy="38.96" r="0.25"/><circle class="cls-2" cx="2.4" cy="39.03" r="0.25"/><circle class="cls-2" cx="0.61" cy="39.09" r="0.25"/><circle class="cls-2" cx="14.85" cy="41.2" r="0.25"/><circle class="cls-2" cx="13.06" cy="41.33" r="0.25"/><circle class="cls-2" cx="11.27" cy="41.47" r="0.25"/><circle class="cls-2" cx="9.48" cy="41.53" r="0.25"/><circle class="cls-2" cx="7.69" cy="41.46" r="0.25"/><circle class="cls-2" cx="5.9" cy="41.39" r="0.25"/><circle class="cls-2" cx="4.1" cy="41.32" r="0.25"/><circle class="cls-2" cx="2.31" cy="41.25" r="0.25"/><circle class="cls-2" cx="0.52" cy="41.18" r="0.25"/><circle class="cls-2" cx="14.56" cy="44.12" r="0.25"/><circle class="cls-2" cx="16.28" cy="43.62" r="0.25"/><circle class="cls-2" cx="18" cy="43.12" r="0.25"/><circle class="cls-2" cx="19.73" cy="42.62" r="0.25"/><circle class="cls-2" cx="21.45" cy="42.13" r="0.25"/><circle class="cls-2" cx="27.93" cy="43.97" r="0.25"/><circle class="cls-2" cx="26.26" cy="43.33" r="0.25"/><circle class="cls-2" cx="24.58" cy="42.69" r="0.25"/><circle class="cls-2" cx="16.71" cy="42.27" r="0.25"/><circle class="cls-2" cx="14.97" cy="42.68" r="0.25"/><circle class="cls-2" cx="13.2" cy="42.96" r="0.25"/><circle class="cls-2" cx="11.42" cy="43.25" r="0.25"/><circle class="cls-2" cx="9.65" cy="43.53" r="0.25"/><circle class="cls-2" cx="7.87" cy="43.72" r="0.25"/><circle class="cls-2" cx="6.08" cy="43.84" r="0.25"/><circle class="cls-2" cx="4.29" cy="43.96" r="0.25"/><circle class="cls-2" cx="2.5" cy="44.09" r="0.25"/><circle class="cls-2" cx="0.71" cy="44.21" r="0.25"/><circle class="cls-2" cx="53.49" cy="26.15" r="0.25"/><circle class="cls-2" cx="51.71" cy="26.38" r="0.25"/><circle class="cls-2" cx="49.93" cy="26.61" r="0.25"/><circle class="cls-2" cx="48.15" cy="26.85" r="0.25"/><circle class="cls-2" cx="46.37" cy="27.08" r="0.25"/><circle class="cls-2" cx="44.59" cy="27.31" r="0.25"/><circle class="cls-2" cx="42.81" cy="27.56" r="0.25"/><circle class="cls-2" cx="41.03" cy="27.81" r="0.25"/><circle class="cls-2" cx="39.24" cy="27.94" r="0.25"/><circle class="cls-2" cx="37.45" cy="28.07" r="0.25"/><circle class="cls-2" cx="35.66" cy="28.17" r="0.25"/><circle class="cls-2" cx="33.87" cy="28.27" r="0.25"/><circle class="cls-2" cx="32.08" cy="28.37" r="0.25"/><circle class="cls-2" cx="30.29" cy="28.47" r="0.25"/><circle class="cls-2" cx="28.49" cy="28.56" r="0.25"/><circle class="cls-2" cx="26.71" cy="28.41" r="0.25"/><circle class="cls-2" cx="24.93" cy="28.18" r="0.25"/><circle class="cls-2" cx="23.15" cy="27.95" r="0.25"/><circle class="cls-2" cx="21.37" cy="27.72" r="0.25"/><circle class="cls-2" cx="19.59" cy="27.48" r="0.25"/><circle class="cls-2" cx="17.81" cy="27.25" r="0.25"/><circle class="cls-2" cx="16.03" cy="27.01" r="0.25"/><circle class="cls-2" cx="14.25" cy="26.78" r="0.25"/><path class="cls-2" d="M53.43,23.5a.25.25,0,0,1-.25.25.25.25,0,1,1,0-.5A.25.25,0,0,1,53.43,23.5Z"/><path class="cls-2" d="M51,23.93a.25.25,0,1,1-.25-.26A.25.25,0,0,1,51,23.93Z"/><path class="cls-2" d="M48.48,24.35a.26.26,0,0,1-.26.25.25.25,0,0,1,0-.5A.26.26,0,0,1,48.48,24.35Z"/><path class="cls-2" d="M46,24.55a.26.26,0,1,1-.51,0,.26.26,0,0,1,.51,0Z"/><path class="cls-2" d="M43.47,24.63a.26.26,0,0,1-.26.26.26.26,0,0,1-.25-.26.25.25,0,0,1,.25-.25A.26.26,0,0,1,43.47,24.63Z"/><path class="cls-2" d="M41,24.71a.25.25,0,1,1-.25-.25A.25.25,0,0,1,41,24.71Z"/><path class="cls-2" d="M38.44,24.79a.25.25,0,1,1-.25-.25A.25.25,0,0,1,38.44,24.79Z"/><path class="cls-2" d="M35.93,24.87a.25.25,0,1,1-.25-.25A.25.25,0,0,1,35.93,24.87Z"/><path class="cls-2" d="M33.42,25a.25.25,0,1,1-.5,0,.25.25,0,1,1,.5,0Z"/><path class="cls-2" d="M30.91,24.84a.25.25,0,0,1-.5,0,.25.25,0,1,1,.5,0Z"/><path class="cls-2" d="M28.41,24.6a.25.25,0,1,1-.25-.25A.25.25,0,0,1,28.41,24.6Z"/><path class="cls-2" d="M25.91,24.36a.25.25,0,1,1-.5,0,.25.25,0,0,1,.5,0Z"/><path class="cls-2" d="M23.41,24.13a.25.25,0,0,1-.5,0,.25.25,0,1,1,.5,0Z"/><circle class="cls-2" cx="38.86" cy="16.91" r="0.25"/><circle class="cls-2" cx="37.15" cy="17.46" r="0.25"/><circle class="cls-2" cx="35.44" cy="18.01" r="0.25"/><circle class="cls-2" cx="33.74" cy="18.56" r="0.25"/><circle class="cls-2" cx="32.01" cy="19.05" r="0.25"/><circle class="cls-2" cx="30.28" cy="19.54" r="0.25"/><circle class="cls-2" cx="28.55" cy="20.02" r="0.25"/><circle class="cls-2" cx="26.83" cy="20.51" r="0.25"/><circle class="cls-2" cx="25.1" cy="21" r="0.25"/><circle class="cls-2" cx="23.37" cy="21.48" r="0.25"/><circle class="cls-2" cx="21.64" cy="21.97" r="0.25"/><circle class="cls-2" cx="19.92" cy="22.45" r="0.25"/><circle class="cls-2" cx="18.19" cy="22.94" r="0.25"/><circle class="cls-2" cx="16.44" cy="23.34" r="0.25"/><circle class="cls-2" cx="14.67" cy="23.64" r="0.25"/><circle class="cls-2" cx="12.9" cy="23.94" r="0.25"/><circle class="cls-2" cx="11.13" cy="24.24" r="0.25"/><circle class="cls-2" cx="9.36" cy="24.54" r="0.25"/><circle class="cls-2" cx="7.59" cy="24.84" r="0.25"/><circle class="cls-2" cx="5.82" cy="25.14" r="0.25"/><circle class="cls-2" cx="4.05" cy="25.44" r="0.25"/><circle class="cls-2" cx="2.29" cy="25.74" r="0.25"/><circle class="cls-2" cx="0.52" cy="26.04" r="0.25"/><path class="cls-2" d="M32.4,17.2a.25.25,0,1,1-.25-.25A.25.25,0,0,1,32.4,17.2Z"/><path class="cls-2" d="M30.06,18.09a.26.26,0,0,1-.26.25.25.25,0,0,1,0-.5A.26.26,0,0,1,30.06,18.09Z"/><path class="cls-2" d="M27.69,18.91a.26.26,0,0,1-.26.26.26.26,0,0,1-.25-.26.25.25,0,0,1,.25-.25A.26.26,0,0,1,27.69,18.91Z"/><path class="cls-2" d="M25.24,19.49a.25.25,0,1,1-.25-.25A.25.25,0,0,1,25.24,19.49Z"/><path class="cls-2" d="M22.8,20.07a.26.26,0,0,1-.26.25.25.25,0,0,1,0-.5A.26.26,0,0,1,22.8,20.07Z"/><path class="cls-2" d="M20.35,20.65a.25.25,0,0,1-.25.25.26.26,0,0,1-.26-.25.26.26,0,0,1,.26-.26A.26.26,0,0,1,20.35,20.65Z"/><path class="cls-2" d="M17.9,21.22a.25.25,0,1,1-.25-.25A.26.26,0,0,1,17.9,21.22Z"/><path class="cls-2" d="M15.46,21.8a.26.26,0,0,1-.25.26A.26.26,0,0,1,15,21.8a.26.26,0,0,1,.26-.25A.25.25,0,0,1,15.46,21.8Z"/><path class="cls-2" d="M13,22.34a.26.26,0,0,1-.25.26.26.26,0,1,1,0-.51A.25.25,0,0,1,13,22.34Z"/><path class="cls-2" d="M10.5,22.54a.25.25,0,1,1-.5,0,.25.25,0,0,1,.5,0Z"/><path class="cls-2" d="M8,22.74a.25.25,0,0,1-.25.25.25.25,0,1,1,0-.5A.25.25,0,0,1,8,22.74Z"/><path class="cls-2" d="M5.49,22.94a.25.25,0,1,1-.25-.25A.25.25,0,0,1,5.49,22.94Z"/><path class="cls-2" d="M3,23.14a.25.25,0,0,1-.25.25.25.25,0,1,1,0-.5A.25.25,0,0,1,3,23.14Z"/><path class="cls-2" d="M.48,23.34a.25.25,0,0,1-.25.25A.25.25,0,0,1,0,23.34a.26.26,0,0,1,.25-.26A.26.26,0,0,1,.48,23.34Z"/></svg>