<svg id="Capa_1" data-name="Capa 1" xmlns="http://www.w3.org/2000/svg" viewBox="0 0 54 43.17"><defs><style>.cls-1{fill:none;stroke:#000;stroke-linecap:round;stroke-width:0.7px;}</style></defs><title>610 Arenisca o arena con estratificación cruzada 2daa opción</title><path class="cls-1" d="M12.31,42.45h0m-2,.11h0m-4.07,0h0m2,.08h0m-4-.08h0m-2,0h0m-2-.08h0m1.52-2.75h0m-2.13.13h0M19,32.32h0m-1.88-.74h0M15.14,31h0m-1.88-.6h0m-1.91-.82h0m-1.84-.65h0M7.66,28.1h0m24.92,7.83h0m-1.94-.36h0m-2-.58h0m-1.92-.42h0M24.8,34h0m-3.88-1h0m-2-.64h0m3.94,1.28h0m-2-.64h0M17,35.08h0m-1.91-.64h0m-2-.52h0m-1.9-.5h0m-2-.72h0m-1.88-.56h0m-1.88-.69h0m-3.8-1.34h0m1.91.78h0m-1.91-.78h0m31,8.16h0m-1.9-.3h0m-1.95-.26h0m-2-.47h0m-1.93-.32h0m-2-.46h0M19,35.61h0m-2-.53h0m4,1.07h0m-2-.54h0M29.89,41h0m2.07.29h0M28,40.66h0M8.32,36.33h0m-1.89-.69h0m-1.94-.59h0M2.6,34.5h0M.68,33.72h0m-1.87-.62h0M26,40.44h0M24,40h0m-2-.34h0m-1.94-.32h0m-2-.53h0m-1.92-.38h0m-1.94-.52h0m-3.91-1h0m-2-.6h0m4,1.2h0m-2-.6h0M16,28.09h0m2.35.86h0m2.43.68h0m-6.92-2.79h0m8.9,3.26h0m2.44.52h0m2.51.34h0m2,.19h0m-5.83-5.61h0m2.5.42h0m2,.26h0m4.14.21h0m-2.07-.11h0M18.32,44.06h0m-2,.23h0m-2,.17h0m-2,.1h0M32.13,22.44h0m-2,0h0m.33,3.83h0M22.78,30.1h0m7,1h0m-1.32-4.93h0m4.14.21h0m-2.07-.11h0M32,31.13h0M19.77,18.91h0m-1.88.38h0m-1.94.5h0m-2,.3h0m-2,.24h0m-4,.46H8m2-.17h0m-4,.47H6m-2,.1h0m-2,.17H2M.05,21.6h0M29.88,19h0m-4,1h0m2-.43h0M24,20.44h0m-2,.49h0m-2,.42h0m-2,.36h0m-4,.72h0m2-.29h0m-4,.72h0m-2,.23h0m-2,.3h0m-1.89.37h0M4.22,24h0m-1.95.3h0m-2,.23h0M32.76,20h0m-3.85,1.3h0m1.93-.56h0M27.05,21.9h0m-1.93.62h0m-1.93.56h0m-1.93.5h0m-3.92,1h0m2-.43h0m-3.92,1h0m-2,.38h0m-1.93.43h0m-1.87.49h0m-2.06.38h0m-1.93.43h0m-2,.37h0m-4,.75h0M1.68,28h0m28.76,16.5h0m-2-.19h0m-3.95-.57h0m2.07.32h0m-4.14-.69h0M20.56,43h0m-1.93-.45h0m-1.9-.36h0m-2-.56h0m-1.93-.44h0m-2-.53h0M6.9,39.64h0m2,.56h0M5,39.1H5m-1.86-.52h0m-2-.61h0m-1.84-.56h0"/><path class="cls-1" d="M33.65,32.77h0m10,2.75h0m-2-.31h0m-2-.44h0m-2-.44h0m-2-.69h0m18.68,8.84h0m-2-.15h0m-4-.3h0m2,.22h0m-4-.3h0m-1.79-.09h0m-2-.06h0m-2.13-.06h0m-2.07-.07h0m-2.07-.18h0m-2.13-.07h0m6.13-4h0m2.15.32h0m-4-.72h0m6.19,1h0m6.84.06h0m-2.32-.06h0M46.93,38h0m6.71,1.82h0M51.19,40h0m-2.26-.06h0m-2.19-.13h0m-4.1-.18h0m2,.08h0M36.33,36.8h0m-2-.49h0m4.14,2.79h0m2.08.23h0m-3.94-.54h0m-2-.15h0m20.07-4.92h0m-1.87-.62h0M51,32.35h0M47.19,30.9h0m1.9.84h0m-1.9-.84h0m6.86-9.3h0M52,21.7h0m-2,.17h0M48,22h0m-4.06.2h0M46,22.09h0m-4,.09h0m-2,.16h0m-2,0h0m-2,.1h0m-2,.11h0m20.29,2h0m-4,.47h0m2.08-.23h0m-4,.35h0m-2,.3h0m-2,.1h0m-2,.24h0m-2,.24h0m-2.08,0h0m-2,.18h0m-2,0h0m19.34,2.11h0m-1.87.24h0m-2,.44h0m-2,.25h0m-2,.37h0M43.82,30h0m-2.07.19h0m-1.93.31h0m-2,.18h0m-4,.44h0M35.88,31h0m-2.07.13h0M55.08,38h0m-1.84-.56h0m-1.93-.57h0m-1.92-.66h0m-1.87-.56h0M45.61,35h0m-3.78-1.45h0m-3.94-1.49h0m2,.71h0m3.83,1.57h0m-1.92-.79h0"/><path class="cls-1" d="M24.87,16.62h0m-2.07-.31h0m-2.13-.44h0m-2-.31h0m-1.88-.38h0m-2.05-.39h0M13,14.3h0m-1.82-.44h0m-3.89-1h0m1.95.57h0M5.24,12.3h0m-1.82-.57h0m-1.95-.62h0M-.6,10.42h0m31.24,6.89h0m-1.88-.19h0m-1.82-.25h0m5.33.63h0M15.88,1.08h0M18.14,2h0m2.39.62h0M13.69.14h0m9.22,3.13h0m2.2.44h0M27.62,4h0M23.79-1.3h0m2.13.44h0m2.13.37h0m4,4.77h0m-2.14-.07h0m-17.62,11h0m-2,.19h0m-4,.23h0m2-.1h0m-4,.1h0m-2,0h0m-2-.08h0m-1-4.07h0m5.33,1.88h0M2.08,13.3h0m-2.51-.12h0M19,5.4h0m-1.88-.74h0M15.14,4h0m-1.88-.6h0m-1.91-.82h0M9.51,2h0m-1.85-.8h0M32.58,9h0m-1.94-.35h0m-2-.58h0m-1.92-.42h0M24.8,7.09h0M20.92,6h0M19,5.4h0m3.94,1.27h0m-2-.63h0M17,8.16h0m-1.91-.64h0m-2-.53h0m-1.9-.49h0m-2-.72h0M7.41,5.22h0M5.53,4.53h0M1.73,3.19h0M3.64,4h0M1.73,3.19h0m31,8.16h0M30.82,11h0m-1.95-.25h0m-2-.48h0M24.92,10h0m-2-.45h0M19,8.69h0m-2-.53h0m4,1.06h0m-2-.53h0M29.89,14.1h0m2.07.3h0M28,13.74h0M8.32,9.41h0M6.43,8.72h0M4.49,8.13h0M2.6,7.58h0M.68,6.79h0m-1.87-.61h0M26,13.52h0m-2-.46h0m-2-.33h0m-1.94-.32h0m-2-.54h0m-1.92-.37h0M14.22,11h0m-3.91-1h0m-2-.6h0m4,1.19h0m-2-.59h0M5.74.36h0m-2,.37h0m-4,.75h0m2.06-.37h0M17.7,16.62h0M16,16.81h0M14.06,17h0m-1.88.25h0M8,17.63H8m2.14-.19h0m-4.08.31h0m-2,.06h0m-2,.13h0m-1.79.13h0m23.09-.32h0m-1.69.63h0"/><path class="cls-1" d="M40.1,5h0m2,.94h0M53.4,10.42h0m-2-.75h0M49.64,9h0m-1.76-.69h0M46,7.54h0m-2-.82h0m10.2,8.83h0m-2.06,0h0m-4.07-.19h0m2.07.06h0m-4-.12h0m-1.94-.13h0m-2-.12h0m-1.88-.25h0m-2.07-.06h0m-2-.13h0m-2.19-.12h0m9.21-5.65h0m2.11.41h0m-4-.85h0m-1.88-.5h0m-1.82-.5h0m-2-.56h0m-1.92-.77h0m6.63,4.28h0m2.07.25h0M38.33,10h0m6.33.88h0m6.65.5h0m1.95.06h0m-4.08-.12h0m-2.25-.24h0m6.64,2.06h0m-2.69-.13h0m-2.2-.12h0m-2-.07h0m-4.08-.37h0m2,.18h0m-8.28-3h0m-2-.29h0m4.15,2.73h0m1.94.19h0m-3.81-.43h0m-2-.16h0M54.68,6.79h0m-1.87-.61h0M51,5.43h0M47.19,4h0m1.9.83h0M47.19,4h0m1.3-5.28h0M46.61-1h0M44.48-.8h0m-2,.25h0m-1.95.19h0m-2.13.12h0M53.75,1.48h0m-1.88.24h0m-2,.44h0m-2,.25h0m-2,.37h0M44,3.15h0m-2.07.19h0m-1.94.31h0M38.08,4h0m-4.14.3h0M36,4.14h0m-2.06.12h0M54.26,18.07h0m-2.07.06h0m-2,0h0m-2,0h0m-4.06-.06h0m2.09,0h0M42.09,18h0M39.9,18h0m-2.07-.06h0m-2-.13h0M34,17.69h0"/><line class="cls-1" x1="30.42" y1="1.33" x2="30.42" y2="1.33"/><line class="cls-1" x1="28.41" y1="1.13" x2="28.41" y2="1.13"/><line class="cls-1" x1="24.46" y1="0.57" x2="24.46" y2="0.57"/><line class="cls-1" x1="26.53" y1="0.88" x2="26.53" y2="0.88"/><line class="cls-1" x1="36.5" y1="2.13" x2="36.5" y2="2.13"/><line class="cls-1" x1="34.49" y1="1.94" x2="34.49" y2="1.94"/><line class="cls-1" x1="32.61" y1="1.69" x2="32.61" y2="1.69"/><line class="cls-1" x1="22.39" y1="0.19" x2="22.39" y2="0.19"/></svg>