<svg id="Capa_1" data-name="Capa 1" xmlns="http://www.w3.org/2000/svg" xmlns:xlink="http://www.w3.org/1999/xlink" viewBox="0 0 54 43.2"><defs><style>.cls-1,.cls-3,.cls-6{fill:none;}.cls-2{clip-path:url(#clip-path);}.cls-3,.cls-6{stroke:#000;}.cls-3{stroke-linecap:round;stroke-width:0.7px;}.cls-4{clip-path:url(#clip-path-2);}.cls-5{clip-path:url(#clip-path-3);}.cls-6{stroke-width:0.3px;}.cls-7{clip-path:url(#clip-path-4);}</style><clipPath id="clip-path"><rect id="SVGID" class="cls-1" x="-0.14" y="42.47" width="23.35" height="0.72"/></clipPath><clipPath id="clip-path-2"><rect id="SVGID-2" data-name="SVGID" class="cls-1" x="23" y="42.47" width="30.86" height="0.72"/></clipPath><clipPath id="clip-path-3"><rect id="SVGID-3" data-name="SVGID" class="cls-1" x="0.02" y="-0.01" width="23.35" height="42.63"/></clipPath><clipPath id="clip-path-4"><rect id="SVGID-4" data-name="SVGID" class="cls-1" x="23.16" y="-0.01" width="30.86" height="42.63"/></clipPath></defs><title>612 Arenisca arcillosa o argilizada</title><g class="cls-2"><path class="cls-3" d="M18.85,43.54h0M7.3,43.37h0m4.85.51h0m-11,.66h0"/></g><g class="cls-4"><path class="cls-3" d="M48.71,43.21h0m6.53,1.33h0M28.47,43.21h0m-3.34,1h0m8.19,0h0m9.54-.67h0"/></g><g class="cls-5"><path class="cls-6" d="M13.53,35.55h9.83M1.45,2.64h15.9M8.8,12.6H23.15M-7.54,18.78H9.9m.67,6.6H23.15M-7.53,31.6H11.68M1.73,39.3H-15.71"/><path class="cls-3" d="M.6,27.36h0M.08,22.09h0m3.75,0h0m.66,3.2h0m3.65-.77h0M7.47,21h0m3.1,1.1h0m4.25.76h0m2.68-2.34h0m1.57,2.79h0m2.54-1.21h0m-.55-3.75h0m.55-3.75h0m-2.87,2.1h0M16.2,14.81h0M15.42,18h0M12,18.56h0m0-3.42h0M8.58,16.8h0M5.93,14.26h0M1.84,9.18h0m1.44,2.54h0m4-1.21h0m4-.11h0m4.42.55h0m4.74.44h0M13.66,7.64h0M9.64,5h0M8.3,7.8h0M-1.25,40.62h0m0-5h0M3.5,41.4h0M2,37.09H2m-.22-3.86h0M4.6,35.11h0m1.86,4.78h0M8.3,37.72h0m.28-4h0M9.9,41.06h0m1.33-5.84h0m3.53,2.43h0m0,3.75h0m3-2.21h0m1.93,2h0m2.35-2h0M21,36.43h0M-.9-.55h0m16,34.78h0m3.09-2.76h0m3,1.74h0M21.61,29h0m-.78-2.87h0m-3.64,2h0M14.1,30.25h0m-1.44-2.86h0M8.13,29.2h0m-4.68,1h0M22.35,2.29h0M3.61,17.35h0M1.4,15h0M-.7,11.94h0M1.73,6h0M4.62,4.46h0M3.45,1h0m9.7,3.34h0M8.63.11h0M21.72,8.74h0M18.07,8.3h0m-1.54-3h0M20.61,5h0M15.2,1.41h0m4.31-.33h0"/></g><g class="cls-7"><path class="cls-6" d="M37.47,2.86H23.33m11.33,6H49.9M38.19,17.24H23.62m23,1.54H64m-17.23,7H32M46.6,31.6H65.81M23.16,35.55h7.3m25.4,3.75H38.41"/><path class="cls-3" d="M42.39,20.88h0m-2.1,3.2h0m3.53.77h0M46,21.65h0m2.21,2.76h0m3.09,1.1h0m-.88-4.19h0m4.28,6h0m-.53-5.27h0M25.94,41h0m-.56-3.65h0M29.8,39h0m2.76,2.54h0m-.11-4.64h0m3.76,1h0m1.21,3.64h0m15.46-.89h0m-6,1h0m-4.53-1h0m-4-5.62h0m2.21,3.09h0m1.44-3.64h0m3.31,2.42h0m4.53,1.22h0m-1.77-3.42h0m3.2-2.1h0m1.55,3.09h0M53.22-.55h0M49-.72h0M24.28,31h0m-.17-4.18h0m27.1,2.5h0m-5.84,1.45h0m1.43-2.65h0m-4-.55h0m-1,3.53h0M38.3,31h0m-3,2.42h0m2.87-5.84h0m-4.41,1.54h0M31.57,33h0m-2-2.53h0m-3,2.75h0M28.13,28h0m-2.68-4.52h0M41.85-.39h0M24.28,19.55h0m3.2,1.88h0m2.32,2.76h0m.11-5.41h0m1.88,2.65h0m2.32,2.43h0m1.32-4.2h0m2.21,3h0m1.88-3h0M52,17.13h0m-4.41,0h0m2.76-3.75h0m-2.87-2.65h0m-1,3.31h0m-3.31,3.09h0M43,11.65h0m-2.84,4.59h0m-.77-3.86h0M36.21,15h0m-.34-3.53h0m-3.31,2.1h0m-4-.44h0m1,3h0m-5.19-.22h0M24.17,13h0m12-14.1h0M26.49,10h0m4.3,0h0m5.75-3h0m-4.31-.66h0M28.46,5h0M24.61,6.54h0m.51-7.76h0M28.63.45h0m3.05,1.12h0M35,5h0m4-2.73h0m2.09,3.86h0m2.65-2.75h0m1.22,3.42h0m2.43-4.31h0m2.43,3.31h0m1.43,3.86h0m2.21,2.32h0M51.77,3h0"/></g></svg>