<svg id="Capa_1" data-name="Capa 1" xmlns="http://www.w3.org/2000/svg" xmlns:xlink="http://www.w3.org/1999/xlink" viewBox="0 0 54 43.2"><defs><style>.cls-1,.cls-3,.cls-4{fill:none;}.cls-2{clip-path:url(#clip-path);}.cls-3,.cls-4{stroke:#000;}.cls-3{stroke-linecap:round;stroke-width:0.7px;}.cls-4{stroke-width:0.3px;}.cls-5{clip-path:url(#clip-path-2);}</style><clipPath id="clip-path"><rect id="SVGID" class="cls-1" width="3.43" height="43.2"/></clipPath><clipPath id="clip-path-2"><rect id="SVGID-2" data-name="SVGID" class="cls-1" x="3.22" width="50.77" height="43.2"/></clipPath></defs><title>613 Arenisca calcárea</title><g class="cls-2"><path class="cls-3" d="M1.67,22.81h0m-.55-3.75h0m.55-3.75h0M-1.2,17.4h0M.46,12.11h0M1.41-1h0M-.26,42h0m2.34-2h0M1,37.15H1m.23-3.22h0m.43-4.17h0M.9,26.89h0M2.41,3h0M1.78,9.46h0M.68,5.71h0M-.43,1.79h0"/><path class="cls-4" d="M1.66,36V33.63m1.76,2.19h-5.3m-9.26-22.5H3.22M-9.37,26.1H3.22"/></g><g class="cls-5"><path class="cls-3" d="M22.45,21.59h0m-2.1,3.2h0m3.54.77h0m2.2-3.2h0m2.21,2.76h0m3.09,1.11h0M30.51,22h0m4.28,6h0m-.53-5.27h0m3.76,0h0m.66,3.2h0m3.64-.78h0m-.66-3.53h0m3.09,1.11h0m6.94-1.59h0m-.16,3.07h0m3.71-5.23h0M52.92,17.4h0m-2.54-1.87h0m-.77,3.19h0m-3.42.56h0m0-3.42h0m-3.42,1.65h0M40.12,15h0M36,9.9h0m1.44,2.54h0m4-1.22h0m8.39.44h0m4.75.45h0M47.85,8.36h0m-4-2.68h0M42.49,8.52h0M6,41.67H6M5.45,38h0m4.41,1.65h0m2.76,2.54h0m-.11-4.63h0m3.76,1h0m1.21,3.64h0m15.46-.88h0m-6,1h0m-4.53-1h0m-4-5.63h0m3.64-.55h0m3.31,2.43h0M30,38.8h0m-1.77-3.42h0m3.2-2.09h0m1.55,3.09h0m4.75,5.73h0m-1.55-4.3h0M35.92,34h0m2.87,1.87h0m1.85,4.79h0m10-41.79h0M42.49,38.44h0m.28-4h0m1.32,7.39h0m1.33-5.85h0M49,38.36h0m0,3.75h0m3-2.2h0m1.93,2h0m1.27-4.8h0M33.28.16h0m16,34.78h0m3.09-2.76h0m3,1.75h0m-.35-7h0m-3.64,2h0M48.29,31h0M46.85,28.1h0m-4.53,1.81h0M29.1,0h0m8.53,30.93h0m-33.29.83h0m-.16-4.18h0m28.28,3.07h0m-7,.88h0m1.44-2.65h0m-4-.55h0m-1,3.53h0m-3.54-.11h0m-3,2.43h0m2.87-5.85h0m-4.41,1.55h0m-2.21,3.86h0m-2-2.54h0M6.66,34h0m1.53-5.21h0M5.51,24.23h0M21.91.33h0M4.34,20.27h0m3.2,1.87h0M9.86,24.9h0M10,19.5h0m1.88,2.64h0m27.47,6.33h0M15.49,20.38h0m2.21,3h0m1.88-3h0M37.8,18.06h0m-2.21-2.31h0m-3.53,2.09h0m-4.42,0h0m2.76-3.75h0m-1.62-2.84h0m-2.24,3.5h0m-3.32,3.09h0m-.14-5.48h0M20.24,17h0m-.77-3.86h0m-3.2,2.65h0m-.33-3.53h0m-3.32,2.09h0m-4-.44h0m1,3h0m-5.19-.22h0m-.22-2.87h0m12-14.1h0m-9.67,11h0m4.31,0h0M12.29,7h0M8.52,5.68h0M4.67,7.25h0M5.18-.51h0M8.69,1.16h0m3.05,1.13h0m3.31,3.39h0M19,3h0m0,4.12h0m4.71-3h0M25,7.47h0m2.43-4.3h0m2.86,4.07h0M14.22,9.91h0m19.27,2.75h0m2.43-6h0m-4.08-3h0m7,1.46h0M37.63,1.67h0M47.34,5h0M42.82.83h0M52.26,9h0M50.72,6h0m4.08-.33h0M49.39,2.12h0m4.31-.33h0"/><path class="cls-4" d="M21.63,40V37.63m8.53-5.43V29.85M15.29,26.41V24.07m33.1,2.12V23.85M6.59,18V15.66M29.8,19.47V17.12m16.25-3.89V10.89M21.81,9.37V7M6.07,3.56V1.22M39.21,3.36V1M57.54,35.82h-5.3M35.64,3.36h15.9m-34,.22H3.4M34,9.42H18.78M43,13.32H57.34M18.25,18H3.68m23,1.55H44.09m-17.22,7H12.07m32.68-.44H57.34M45.87,32.31H26.66M15.05,35.82H3.21M18.48,40H35.92"/></g></svg>