<svg id="Capa_1" data-name="Capa 1" xmlns="http://www.w3.org/2000/svg" xmlns:xlink="http://www.w3.org/1999/xlink" viewBox="0 0 54 43.2"><defs><style>.cls-1,.cls-3,.cls-4{fill:none;}.cls-2{clip-path:url(#clip-path);}.cls-3,.cls-4{stroke:#000;}.cls-3{stroke-linecap:round;stroke-width:0.7px;}.cls-4{stroke-width:0.3px;}.cls-5{clip-path:url(#clip-path-2);}</style><clipPath id="clip-path"><rect id="SVGID" class="cls-1" width="37.64" height="43.2"/></clipPath><clipPath id="clip-path-2"><rect id="SVGID-2" data-name="SVGID" class="cls-1" x="37.44" width="16.56" height="43.2"/></clipPath></defs><title>614 Arenisca dolomítica</title><g class="cls-2"><path class="cls-3" d="M2.54,21.6h0M.44,24.8h0M4,25.57H4m2.21-3.2h0m2.21,2.76h0m3.09,1.1h0M10.6,22h0m4.28,6h0m-.53-5.27h0m3.76,0h0m.66,3.2h0m3.64-.77h0m-.66-3.53h0m3.09,1.1h0m6.93-1.58h0m-.15,3.06h0m4.26-1.48h0m-.55-3.75h0m.55-3.75h0M33,17.41h0m-2.54-1.88h0m-.77,3.2h0m-3.42.55h0m0-3.42h0m-3.43,1.66h0M20.2,15h0M16.12,9.91h0m1.43,2.53h0m4-1.21h0m8.39.44h0m4.75.44h0M27.93,8.36h0m-4-2.68h0M22.57,8.53h0M13,41.35h0m-6,1h0m-4.53-1h0m-.33-6.18h0M5.52,37.6h0m4.53,1.21h0M8.28,35.39h0m3.2-2.1h0M13,36.38h0m4.75,5.74h0m-1.55-4.3h0M16,34h0m2.87,1.88h0m1.85,4.79h0M35.62-1h0m-4.85-.17h0m-8.2,39.61h0m.28-4h0m1.33,7.39h0m1.32-5.85h0M29,38.37h0m0,3.75h0m3-2.21h0M34,42h0m2.34-2h0m-1.07-2.8h0M13.37.17h0M29.37,35h0m3.09-2.76h0M33.83,34h0m2.05-4.23h0m-.77-2.87h0m-3.65,2h0M28.37,31h0m-1.43-2.87h0M22.4,29.92h0M9.19,0h0m8.53,30.92h0m-5.17-.27h0m-7,.88h0M7,28.88H7m-4-.55H3M2,31.86H2M36.62,3h0M2,.34H2M19.4,28.47h0M-.33,20.39h0m18.21-2.32h0m-2.2-2.32h0m-3.54,2.1h0m-4.41,0h0m2.76-3.75h0M8.86,11.26h0m-2.24,3.5h0M3.31,17.85h0m-.14-5.48h0M.33,17h0M-.44,13.1h0M-.89,3h0m.05,4.12h0m4.7-3h0M5.08,7.48h0m2.43-4.3h0m2.86,4.06h0m3.21,5.42h0M16,6.71h0m-4.09-3h0m7,1.45h0M17.72,1.67h0M27.42,5h0M22.91.84h0M36,9.46h0M32.35,9h0M30.8,6h0m4.09-.33h0M29.48,2.13h0m4.31-.33h0"/><path class="cls-4" d="M1.71,40,3.39,37.5M34.62,36l1.67-2.48m-26-1.3,1.68-2.47M28.48,26.2l1.67-2.48M9.89,19.47,11.56,17m14.58-3.76,1.67-2.48M1.9,9.37,3.58,6.9M19.3,3.36,21,.89M37.63,35.83H31.08M15.73,3.36H31.62M14.1,9.43H-1.13m24.2,3.9H37.43M6.73,19.5H24.18M7,26.54H-7.84m32.68-.44H37.43M26,32.32H6.75M-1.44,40H16"/></g><g class="cls-5"><path class="cls-3" d="M54.56,24.8h0M40.21,41.68h0M39.66,38h0m4.42,1.65h0m2.76,2.54h0m-.11-4.63h0m3.75,1h0m1.21,3.64h0m1-6.51h0m-14.14-4h0m-.16-4.18h0m14.19,4.17h0m-3,2.43h0m2.87-5.85h0m-4.42,1.54h0m-2.21,3.86h0m-2-2.53h0m-3,2.75h0m1.53-5.2h0m-2.67-4.51h0m-1.18-4h0m3.21,1.87h0m2.32,2.76h0m.11-5.41h0m1.87,2.65h0m3.65-1.76h0m2.21,3h0m1.87-3h0M54.45,17h0m-.77-3.87h0m-3.2,2.65h0m-.33-3.53h0m-3.31,2.1h0m-4-.44h0m1,3h0m-5.18-.23h0m-.22-2.86h0m2.31-3.09h0m4.31,0h0M46.5,7h0M42.74,5.68h0M38.89,7.26h0m0-6.37h0m11.21.34h0M46,2.29h0m3.31,3.39h0m4-2.72h0m0,4.12h0M48.43,9.92h0"/><path class="cls-4" d="M49.5,26.42l1.68-2.48M40.8,18l1.68-2.47m-2.2-12L42,1.1m9.78,2.48H37.61M68.23,9.43H53M52.47,18H37.89m23.19,8.58H46.28M48,35.83H37.43M52.69,40H70.13"/></g></svg>