<svg id="Capa_1" data-name="Capa 1" xmlns="http://www.w3.org/2000/svg" xmlns:xlink="http://www.w3.org/1999/xlink" viewBox="0 0 54 43.2"><defs><style>.cls-1,.cls-3,.cls-4{fill:none;}.cls-2{clip-path:url(#clip-path);}.cls-3,.cls-4{stroke:#000;}.cls-3{stroke-width:0.3px;}.cls-4{stroke-linecap:round;stroke-width:0.7px;}.cls-5{clip-path:url(#clip-path-2);}</style><clipPath id="clip-path"><rect id="SVGID" class="cls-1" width="17.72" height="42.63"/></clipPath><clipPath id="clip-path-2"><rect id="SVGID-2" data-name="SVGID" class="cls-1" x="17.52" width="36.48" height="42.63"/></clipPath></defs><title>616 Limo, limolita o limo arcilloso</title><g class="cls-2"><path class="cls-3" d="M13.75,41.3h4m-2.59-6h2.59m-4-6.14h4m-6.48-6h6.48m-6.11-6h6.11m0-6.14h-4.1m.13-6h4M4.26,41.3H-4.86m19.15-3.14H5.17m-8-2.88H6.26M5.17,32h9.12m-19-2.88H4.38m-1.09-3h9.12M-7,23.12H2.12M1.16,20h9.12M-6.62,17.1H2.5M3.29,14h9.12M-4.74,11H4.38m.79-3.13h9.12M-4.61,4.94H4.51m9.78-3.13H5.17"/><path class="cls-4" d="M6.79,41.32h0m4.69,0h0m-2.29,0h0m7.24-3.14h0m-13.17,0h0M1,38.18H1M8.43,35.3h0m4.68,0h0m-2.29,0h0M16.37,32h0M3.2,32h0M.91,32h0m5.82-2.82h0m4.69,0h0m-2.29,0h0m5.23-3h0m2.4,0h0m-15.57,0h0m-2.29,0h0m5.45-3h0m4.68,0H9m-2.29,0h0M12.17,20h0m4.68,0h0m-2.29,0h0M-1,20h0m5.67-3h0m4.69,0h0m-2.29,0h0m7.24-3.13h0m2.39,0h0m-15.56,0h0m-2.29,0h0m7.89-3h0m4.69,0h0m-2.29,0h0m7-3.07h0M3,7.85H3m-2.29,0h0M6.86,5h0m4.68,0h0M9.25,5h0m7-3.13h0m-13.17,0h0m-2.29,0h0m7.8-3h0m4.68,0h0M11-1.17h0"/></g><g class="cls-5"><path class="cls-3" d="M58.38,41.3H49.26m-8.82,0H31.32m-13.8,0h5.1m9.79-3.14H23.29m27.31,0H41.48m9.79-2.88h9.12m-27.31,0h9.11M24,35.28H17.52m15-3.26H23.42M50.6,32H41.48m7.91-2.88H58.5m-27.06,0h9.12m-17.94,0h-5.1m12.88-3H21.28m18.07,0h9.12m-1.34-3h9.12m-18.07,0H29.06m-8.95,0H17.52M28.39,20H19.27m18,0h9.11M47.5,17.1h9.12m-18.19,0H29.31m-11.79,0h3M30.15,14H21m27.44,0H39.35m10-3H58.5M31.32,11h9.12M22.5,11h-5m5.9-3.13h9.11m8.83,0h9.12m-1-2.89h9.12m-17.94,0H31.57m-14,0h5.1m9.54-3.13H23m27.31,0H41.23"/><path class="cls-4" d="M24.66,41.32h0m4.68,0h0m-2.29,0h0m15.55,0h0m4.68,0h0m-2.28,0h0m7.7-3.14h0m2.4,0h0m-34,0h0m-2.29,0h0m15.55,0h0m4.69,0h0m-2.29,0h0M26.29,35.3h0m4.68,0h0m-2.29,0h0m15.55,0h0m4.69,0h0m-2.29,0h0m6-3.32h0M55,32h0m-34,0h0m-2.29,0h0m15.55,0h0M39,32h0m-2.29,0h0M24.59,29.16h0m4.69,0h0m-2.29,0h0m15.55,0h0m4.68,0h0m-2.29,0h0m5.7-3h0m4.68,0h0m-2.28,0h0m-34,0h0m13.26,0h0m4.69,0h0m-2.29,0h0m-12.5-3h0m4.68,0h0m-2.28,0h0m15.54,0h0m4.69,0h0m-2.29,0h0M48.44,20h0m4.68,0h0m-2.29,0h0M30.12,20h0m4.68,0h0m-2.29,0h0m-10-3h0m4.69,0h0m-2.29,0h0m15.55,0h0m4.68,0h0m-2.29,0h0m7.71-3.13h0m4.68,0h0m-2.29,0h0m-34,0h0m13.26,0h0m4.68,0h0m-2.29,0h0m-10-3h0m4.69,0h0m-2.29,0h0m15.55,0h0m4.68,0h0m-2.29,0h0m7.46-3.07h0m2.39,0h0m-34,0h0m-2.29,0h0m15.55,0h0m4.68,0h0m-2.29,0h0M24.72,5h0M29.4,5h0M27.12,5h0M42.66,5h0m4.69,0h0M45.06,5h0m7.45-3.13h0m2.4,0h0m-34,0h0m-2.28,0h0m15.54,0h0m4.69,0h0m-2.29,0h0m-10.15-3h0m4.68,0h0m-2.28,0h0m15.54,0h0m4.69,0h0m-2.29,0h0"/></g></svg>