<svg id="Capa_1" data-name="Capa 1" xmlns="http://www.w3.org/2000/svg" xmlns:xlink="http://www.w3.org/1999/xlink" viewBox="0 0 54 42.1"><defs><style>.cls-1,.cls-3,.cls-4{fill:none;}.cls-2{clip-path:url(#clip-path);}.cls-3,.cls-4{stroke:#000;}.cls-3{stroke-width:0.3px;}.cls-4{stroke-linecap:round;stroke-width:0.7px;}.cls-5{clip-path:url(#clip-path-2);}.cls-6{clip-path:url(#clip-path-3);}.cls-7{clip-path:url(#clip-path-4);}</style><clipPath id="clip-path"><rect id="SVGID" class="cls-1" y="3.77" width="28.97" height="38.96"/></clipPath><clipPath id="clip-path-2"><rect id="SVGID-2" data-name="SVGID" class="cls-1" x="28.77" y="3.77" width="25.23" height="38.96"/></clipPath><clipPath id="clip-path-3"><rect id="SVGID-3" data-name="SVGID" class="cls-1" y="-0.47" width="28.97" height="4.4"/></clipPath><clipPath id="clip-path-4"><rect id="SVGID-4" data-name="SVGID" class="cls-1" x="28.77" y="-0.47" width="25.23" height="4.4"/></clipPath></defs><title>617 Limolita calcárea</title><g class="cls-2"><path class="cls-3" d="M26.19,43.3v1.23m-2.51-7.25v1.23M29,38.7H22.53m1.53-7.43v1.22m4.91.19H22.91m3.15-6.33V25.13M29,26.54H24.91m1.28-7.43v1.23M25,20.52H29m-1-7.55v1.22m1,.19H26.8M27.94,8.3V7.07M26.8,8.49H29M7.7,43.3v1.23M-3.49,41.71H5.63m10.1-1.42v1.23m-1.15.19H23.7M5.44,37.28v1.23m-1.15.19h9.12M3.5,35.57H-5.62M13.6,34.15v1.23m8,.19H12.45m-6.63-4.3v1.22m-1.15.19h9.12M5.63,29.55H-3.49m19.22-1.42v1.23m-1.15.19H23.7m-16-4.42v1.22m-1.15.19h9.12m-16-3.32V22m-1.15,1.42H7.64m10-.19V22m8,1.42H16.47M7.83,20.34V19.11M6.68,20.52H15.8M-.45,17.2V16M-1.6,17.39H7.52m10.1-.19V16m-1.15,1.42h9.11m-16-3.2V13M8.43,14.38h9.12m-27.18,0H-.51m20.26-4.3v1.23m-1.15.19h9.12M1.81,10.08v1.23m8,.19H.66M9.71,8.3V7.07m8,1.42H8.56m-9.07,0H-9.63m27.5-3.31V4M16.72,5.37h9.11M-.33,5.18V4M-1.48,5.37H7.64"/><path class="cls-4" d="M25.62,41.75h0m2.4,0h0m-20.26,0h0m4.69,0h0m-2.29,0h0m5.45-3h0m4.68,0h0m-2.29,0h0m-16,0H2m-2.29,0h0M23.43,35.6h0m4.68,0h0m-2.29,0h0m-20.25,0h0m4.68,0h0M8,35.6H8m8-2.94h0m4.68,0h0m-2.28,0h0m-16,0h0M0,32.66H0m25.56-3.14h0m2.39,0h0m-20.25,0h0m4.69,0h0m-2.29,0h0m7.89-3h0m4.69,0h0m-2.29,0h0m-20.72,0h0m4.69,0h0m-2.29,0h0m25.31-3.07h0m-17.86,0h0m4.69,0h0m-2.29,0h0m6.2-2.88h0m4.68,0h0m-2.29,0h0m-20.71,0h0m4.68,0h0m-2.29,0h0M27.5,17.43h0m-17.85,0h0m4.68,0h0m-2.29,0h0m7.8-3h0m4.68,0h0m-2.29,0h0m-20.71,0h0m4.68,0h0m-2.29,0h0m23.72-9h0m-17.86,0h0m4.69,0h0m-2.29,0h0m-.31,6.06h0m4.69,0h0m-2.29,0h0m5.55-3h0m4.68,0h0m-2.28,0h0M1.66,8.5h0m4.68,0h0m-2.29,0h0"/></g><g class="cls-5"><path class="cls-3" d="M43.89,44.53V43.3M33.72,41.52V40.29m8,1.42H32.57m19.22-1.42v1.23m-1.15.19h9.12M41.5,38.51V37.28m8,1.42H40.35m-11.58,0H31.4m.32-3.32V34.15m8,1.42H30.57m19.09-.19V34.15m8,1.42H48.51m-6.76-4.3v1.22m8,.19H40.6m-8.82,0h-3m4.7-3.32V28.13m8,1.42H32.32m19.47-.19V28.13m8,1.42H50.64m-6.88-3.2V25.13m-1.15,1.41h9.12m-23,0h5m2.07-3.32V22m8,1.42H34.71m19.09-.19V22m-1.15,1.42h9.12M44,19.11v1.23m8,.18H42.86m-9,0H28.77m6.71-3.32V16m8,1.42H34.33m19.34-.19V16m-1.15,1.42h9.12m-16-3.2V13m-1.15,1.41h9.12m-24.84,0h6.9m2.19-4.3v1.23m8,.19H36.71m8.93-3.2V7.07m8,1.42H44.49m-8.82,0h-6.9m25-3.31V4M52.65,5.37h9.12M35.61,5.18V4M34.46,5.37h9.11"/><path class="cls-4" d="M30.31,41.75h0m13.26,0h0m4.69,0h0m-2.29,0h0m-12.5-3h0m4.68,0h0m-2.29,0h0m15.55,0h0m2.4,0h0M41.38,35.6h0m4.68,0h0m-2.29,0h0m-10-2.94h0m4.69,0h0m-2.29,0h0m15.55,0h0m2.39,0h0M30.25,29.52h0m13.26,0h0m4.68,0h0m-2.29,0h0m-10-3h0m4.69,0h0m-2.29,0h0m15.55,0h0M32.07,23.44h0m-2.29,0h0m15.55,0h0m4.68,0h0m-2.29,0h0M36,20.56h0m4.68,0h0m-2.29,0h0m15.55,0h0M32.19,17.43h0m-2.29,0h0m15.55,0h0m4.69,0h0m-2.29,0h0m-10.15-3h0m4.68,0h0m-2.28,0h0m-7.78-9h0M30,5.45h0m15.55,0h0m4.68,0h0M48,5.45h0M29.89,11.51h0m4.69,0h0m-2.29,0h0m15.63,0h0m4.69,0h0m-2.29,0h0m-12.61-3h0m4.69,0h0m-2.29,0h0"/></g><g class="cls-6"><path class="cls-3" d="M26.19,1.34V2.56M25,2.75H29M7.58,2.56V1.34m8,1.41H6.43M-.2-1.8V-.57m8,.19H-1.35m19-1.42V-.57m8,.19H16.47"/><path class="cls-4" d="M18.05,2.79h0m4.69,0h0m-2.29,0h0m-20.71,0h0m4.68,0h0m-2.29,0h0M27.69-.35h0M9.83-.35h0m4.69,0h0m-2.29,0h0"/></g><g class="cls-7"><path class="cls-3" d="M43.76,1.34V2.56m8,.19H42.61m-13.84,0h5.14M35.73-1.8V-.57m8,.19H34.58M53.92-1.8V-.57m8,.19H52.77"/><path class="cls-4" d="M35.92,2.79h0m4.68,0h0m-2.29,0h0m15.55,0h0M32.38-.35h0m-2.29,0h0m15.55,0h0m4.69,0h0M48-.35h0"/></g></svg>