<svg id="Capa_1" data-name="Capa 1" xmlns="http://www.w3.org/2000/svg" xmlns:xlink="http://www.w3.org/1999/xlink" viewBox="0 0 54 41.95"><defs><style>.cls-1,.cls-3,.cls-4{fill:none;}.cls-2{clip-path:url(#clip-path);}.cls-3,.cls-4{stroke:#000;}.cls-3{stroke-width:0.3px;}.cls-4{stroke-linecap:round;stroke-width:0.7px;}.cls-5{clip-path:url(#clip-path-2);}</style><clipPath id="clip-path"><rect id="SVGID" class="cls-1" y="0.78" width="9.05" height="41.41"/></clipPath><clipPath id="clip-path-2"><rect id="SVGID-2" data-name="SVGID" class="cls-1" x="8.85" y="0.78" width="45.15" height="41.41"/></clipPath></defs><title>618 Limolita dolomítica</title><g class="cls-2"><path class="cls-3" d="M7.07,40.36,6.25,41.5m-1.13.07H9.05M4.56,34.34l-.82,1.15m5.31.06H2.61m2.32-7.22-.81,1.14m4.93.06H3m3.14-6.2.81-1.15m2.11,1.21H5m1.25-6.08.82-1.14m-1.95,1.2H9.05M8.82,10,8,11.17m1,.06H6.88M8,5.27l.81-1.14M6.88,5.34H9.05M-5.33,38.56H3.78M1.65,32.41H-7.47m2.14-6H3.78m-7.23-6.14H5.67m-9.12-6H5.67m-5-7.1L-.19,8.28m-1.13.07H7.8m-11-6.21H5.92"/><path class="cls-4" d="M2.8,41.6h0m-2.29,0h0m5.23-3h0m2.4,0h0m-7.73-3h0m3.14-3.14h0m4.68,0h0m-2.29,0h0M.73,29.51h0m4.95-3.14h0m2.4,0h0m-5.28-3h0m-2.29,0h0m7-3.07h0M2.92,17.41h0m-2.28,0h0m7-3.13h0M0,11.27H0m4.68,0h0m-2.28,0h0m5.39-9h0M-.07,5.35h0m4.69,0h0m-2.29,0h0"/></g><g class="cls-5"><path class="cls-3" d="M42.7,40.36l-.81,1.14m-1.13.07h9.12M24,41.5l.81-1.14m-1.94,1.21h9.12M14,41.57H8.85m4.94-3.08.81-1.14m7.17,1.21H12.66m20-1.21-.82,1.14m-1.13.07h9.12m10.89-1.21-.81,1.14m-1.13.07h9.12M40.45,34.34l-.82,1.15m-1.13.06h9.12m-26-.06.81-1.15m7.17,1.21H20.44m-9,0H8.85m3.74-4.34-.81,1.14m8,.06H10.65m19.07-.06.81-1.14m-1.94,1.2h9.12m10.89-1.2-.81,1.14m8,.06H46.66m-5.84-4.08L40,29.47m-1.13.06H48m-25.37-1.2-.81,1.14m8,.06H20.69m-11.84,0h3m1.68-3.19.81-1.15m7.17,1.21H12.41m20.26-1.21-.82,1.15m8,.06H30.72m20-1.21-.81,1.15m-1.13.06h9.12M42.7,22.18l-.81,1.15m-1.13.06h9.12m-26.06-.06.82-1.15m-1.95,1.21h9.12m-17.94,0h-5m7.07-3.2.81-1.14m-1.94,1.21h9.12m10-.07.81-1.14m7.18,1.21H32.73m19.07-.07.82-1.14m-1.95,1.21h9.12m-17-4.09L42,17.31m-1.13.06H50m-25.11-1.2-.81,1.14m8,.06H22.94m-14.09,0H14M16.36,13l-.82,1.15m8,.06H14.41m19.33-.06L34.55,13m-1.94,1.21h9.11m10.08-.06L52.62,13m-1.95,1.21h9.12m-16-3.07L44.59,10m-2,1.21h9.12m-26-.06L26.52,10m-1.94,1.21h9.11m-17.94,0H8.85m45.9-4.09-.81,1.14m-1.13.07h9.11M36.81,7.14,36,8.28m8,.07H34.86M18.74,7.14l-.81,1.14m8,.07H16.8M43.9,5.27l.81-1.14m7.18,1.21H42.77M25.71,5.27l.81-1.14m7.17,1.21H24.58m-8.83,0H8.85m43.2-3.26L52.87.94m-1.95,1.2H60M33.86,2.08,34.67.94m-1.94,1.2h9.12M15.67,2.08,16.48.94m-1.94,1.2h9.12"/><path class="cls-4" d="M52.24,41.6h0m2.39,0h0M16,41.6h0m4.68,0h0m-2.29,0h0m15.55,0h0m4.69,0h0m-2.29,0h0m5.69-3h0m4.69,0h0m-2.29,0h0m-34,0h0m13.25,0h0m4.69,0h0m-2.29,0h0m23.77-3h0m4.68,0h0m-2.29,0h0m-38.66,0h0m4.69,0h0m-2.29,0h0m15.55,0h0m4.68,0h0m-2.29,0h0m5.89-3.14h0m4.68,0h0m-2.29,0h0m-20.71,0h0m4.68,0h0m-2.29,0h0m26.28-2.94h0m4.68,0h0m-2.29,0h0m-38.65,0h0m4.68,0h0m-2.29,0h0m15.55,0h0m4.68,0h0m-2.28,0h0M42,26.37h0m4.68,0h0m-2.28,0h0m-34,0h0m13.26,0h0m4.69,0h0m-2.29,0h0m26.21-3h0m2.39,0h0M16,23.36h0m4.68,0h0m-2.29,0h0m15.55,0h0m4.69,0h0m-2.29,0h0m7.45-3.07h0m4.68,0h0m-2.28,0h0m-34,0h0m-2.29,0h0m15.55,0h0m4.69,0h0m-2.29,0h0m24.51-2.88h0m2.4,0h0m-38.66,0h0m4.69,0h0m-2.29,0h0m15.55,0h0m4.68,0h0m-2.29,0h0m7.46-3.13h0m4.68,0h0m-2.29,0h0m-34,0h0m-2.29,0h0m15.55,0h0m4.68,0h0m-2.29,0h0m26.11-3h0m-36.26,0h0m4.69,0h0m-2.29,0h0m15.55,0h0m4.68,0h0m-2.29,0h0m5.86-9h0m4.69,0h0m-2.29,0h0m-34,0h0m-2.29,0h0m15.55,0h0m4.69,0h0m-2.29,0h0M10,8.36h0m4.68,0h0m-2.29,0h0M28,8.36h0m4.69,0h0m-2.29,0h0m15.67,0h0m4.69,0h0m-2.29,0h0m5.55-3h0m-18.15,0h0m4.68,0h0m-2.29,0h0m-20.46,0h0m4.68,0h0m-2.29,0h0"/></g></svg>