<svg id="Capa_1" data-name="Capa 1" xmlns="http://www.w3.org/2000/svg" xmlns:xlink="http://www.w3.org/1999/xlink" viewBox="0 0 53.59 41.88"><defs><style>.cls-1,.cls-3,.cls-4{fill:none;}.cls-2{clip-path:url(#clip-path);}.cls-3,.cls-4{stroke:#000;}.cls-3{stroke-width:0.3px;}.cls-4{stroke-linecap:round;stroke-width:0.7px;}</style><clipPath id="clip-path"><rect id="SVGID" class="cls-1" x="-0.6" y="-0.79" width="47.05" height="43.2"/></clipPath></defs><title>619 Lutita arenosa o limosa</title><g class="cls-2"><path class="cls-3" d="M44.13,42.17h2.32m-11.27,0h5.76m-14.71,0H32m-14.72,0H23m-14.72,0h5.77m-8.95,0H-.63m44.45-2.8H38.05m-8.95,0h5.77m-8.95,0H20.15m-3.18,0H11.2M8,39.37H2.25m-3.18,0H-6.7m49.87-3h3.28m-12.23,0H40m-14.71,0H31m-14.71,0h5.76m-14.71,0h5.76m-14.72,0H4.18m34.67-3h5.77m-8.95,0H29.9m-8.95,0h5.77m-8.95,0H12m-3.18,0H3.05m-3.18,0H-5.9M44,30.27h2.48M35,30.27h5.76m-14.72,0h5.77m-14.71,0h5.76m-8.95,0H8.16M5,30.27H-.79M40,27.45h5.77M31,27.45h5.77m-14.72,0h5.77m-8.95,0H13.12m-3.18,0H4.17m-8.95,0H1m43.46-3.14h2m-5.19,0H35.49m-3.18,0H26.55m-9,0h5.77m-14.72,0h5.77m-8.95,0H-.31m39-3h5.77m-14.72,0h5.77m-14.72,0h5.77m-8.95,0H11.84m-3.18,0H2.89m-3.18,0H-6.06m49.23-3.21h3.28m-12.23,0H40m-14.71,0H31m-14.71,0h5.76m-8.95,0H7.37m-3.19,0H-1.59M46.2,15.23h.25m-9.2,0H43m-14.72,0h5.77m-14.72,0h5.77m-8.95,0H10.4m-3.18,0H1.45m41.24-3h3.76m-12.71,0H39.5m-14.71,0h5.76m-14.71,0H21.6m-9,0H6.89m-8.95,0H3.7m41.4-3H39.33m-3.18,0H30.38m-3.18,0H21.43m-3.18,0H12.48m-3.18,0H3.53m-3.18,0H-5.42M43,6.43h3.44m-12.39,0h5.76m-14.71,0h5.76m-14.71,0h5.76m-14.71,0H13m-9,0H-1.75m41.88-3H45.9M37,3.45H31.18M28,3.45H22.23m-3.18,0H13.28m-3.18,0H4.33m-3.18,0H-4.62M44.77.31h1.68M35.81.31h5.77M26.86.31h5.77M17.91.31h5.77M9,.31h5.77M0,.31H5.78"/><path class="cls-4" d="M42.58,42.24h0m-9,0h0m-8.92,0h0m-9,0h0m-8.95,0h0M45.43,39.4h0m-9,0h0m-8.92,0h0m-9,0h0m-9,0h0m-9,0h0m41.07-2.93h0m-9,0h0m-8.92,0h0m-9,0h0m-8.95,0h0m40.27-3h0m-9,0h0m-8.93,0h0m-9,0h0m-8.95,0h0m-9,0h0m41.22-3.2h0m-9,0h0m-8.92,0h0m-9,0h0m-8.95,0h0M38.32,27.5h0m-8.92,0h0m-9,0h0m-9,0h0m-9,0h0m40.4-3.15h0m-9,0h0m-8.92,0h0m-9,0h0M7,24.35H7m-9,0h0m48.16-3.09h0m-9,0h0m-8.92,0h0m-9,0h0m-9,0h0m-9,0h0m40.24-3.18h0m-9,0h0m-8.92,0h0m-9,0h0m-8.95,0h0m39-2.84h0m-9,0h0m-8.92,0h0m-9,0h0m-9,0h0m-9,0h0m41.27-3h0m-9,0h0m-8.92,0h0m-9,0h0m-9,0h0M37.9,9.31h0m-9,0h0M20,9.31h0m-9,0h0m-8.95,0h0M41.55,6.47h0m-9,0h0m-8.92,0h0m-9,0h0m-8.95,0h0m32.85-3h0m-9,0h0m-8.92,0h0m-9,0h0m-8.95,0h0M43.28.37h0m-9,0h0m-8.92,0h0m-9,0h0M7.45.37h0m-9,0h0"/></g><path class="cls-3" d="M58.73,42.17H53m-3.22,0H46.25m6.4-2.8H46.88m5.12-3h5.77m-9,0H46.25m7.2-3H47.68m10.89-3.14H52.8m-3.22,0H46.25m2.55-2.82h5.77M59,24.31H53.28m-3.22,0H46.25m7-3H47.52m10.25-3.21H52m-3.22,0H46.25m5.6-2.89h-5.6m0,0h-.16m5.43-3h5.77m-9,0h-2m7.68-3H48.16m9.45-2.81H51.84m-3.22,0H46.25m8.48-3H49M53.6.31h5.76m-9,0H46.25"/><path class="cls-4" d="M51.33,42.24h0m2.84-2.84h0m-3.76-2.93h0m.81-6.21h0m-4-2.76h0m4.36-3.15h0m-1.29-6.27h0m3.13-2.84h0m-3.57-3h0M46.64,9.31h0M50.3,6.47h0m-3-3h0M52,.37h0"/></svg>