<svg id="Capa_1" data-name="Capa 1" xmlns="http://www.w3.org/2000/svg" xmlns:xlink="http://www.w3.org/1999/xlink" viewBox="0 0 54.03 41.87"><defs><style>.cls-1,.cls-3{fill:none;}.cls-2{clip-path:url(#clip-path);}.cls-3{stroke:#1d1d1b;stroke-width:0.3px;}.cls-4{clip-path:url(#clip-path-2);}</style><clipPath id="clip-path"><rect id="SVGID" class="cls-1" y="-0.68" width="26.59" height="43.2"/></clipPath><clipPath id="clip-path-2"><rect id="SVGID-2" data-name="SVGID" class="cls-1" x="26.39" y="-0.68" width="27.61" height="43.2"/></clipPath></defs><title>620 Arcilla o lutita</title><g class="cls-2"><path class="cls-3" d="M23.3,41.72h3.29m-5.85,0H14.35m-8.95,0h6.39m-15.34,0H2.84m23.75-2.8h-.42m-9,0h6.4m-15.35,0h6.4m-15.35,0h6.4m16.62-3h4.25m-13.2,0h6.39m-15.34,0h6.39m-15.34,0H1.88M18,33h6.4m-9,0H9.07m-9,0H6.51m16.63-3.14h3.45m-12.4,0h6.39m-15.34,0h6.39m-15.34,0H2.68m16.46-3.1h6.4m-9,0H10.19m-8.95,0H7.63m16-2.86h3m-11.92,0h6.39m-15.34,0h6.39m-8.95,0h-6.4m21.1-3h6.4m-15.35,0h6.4M0,20.88h6.4M26.59,18H22.34m-2.56,0H13.39m-2.56,0H4.44M1.88,18H-4.51m31.1-3.18H25.38m-9,0h6.4m-15.35,0h6.4m-15.35,0h6.4m16.94-3h4.73m-13.68,0H19.3M4,11.77h6.39M-5,11.77H1.4m17.1-3h6.4M16,8.79H9.55M7,8.79H.6M22.18,6h4.41M13.23,6h6.39M4.28,6h6.39M-4.67,6H1.72M19.3,3h6.4m-9,0H10.35M7.79,3H1.4M26.59-.14H23.94m-9,0h6.39M6-.14h6.39m-15.35,0h6.4"/></g><g class="cls-4"><path class="cls-3" d="M50,41.72h6.39m-15.34,0h6.39m-8.95,0H32.13m-5.74,0h3.15m23.37-2.8H59.3m-8.95,0H44m-2.56,0H35m-2.56,0H26.39m22.68-3h6.39m-9,0H40.12m-8.95,0h6.39m-11.17,0h2.19m25.13-3H60.1m-9,0H44.76M42.2,33H35.8m-2.55,0H26.86m23-3.14h6.39m-15.34,0h6.39m-9,0H32m-2.59,0h-3m25.88-3.1h-6.4m-2.55,0h-6.4m-2.55,0H28m28.77-2.86H50.35m-2.56,0H41.4m-8.95,0h6.39m-9,0H26.39m27.16-3h6.39m-8.95,0H44.6m-2.56,0H35.65m-2.56,0H26.7M55.46,18H49.07m-9,0h6.39m-8.95,0H31.17m-2.59,0H26.39m25.72-3.18H58.5m-9,0H43.16m-2.56,0H34.21m-2.56,0H26.39m22.2-3H55m-8.95,0H39.64m-8.95,0h6.39m-9,0H26.39m34.19-3h-6.4m-2.55,0h-6.4m-2.55,0H36.29m-2.56,0h-6.4M48.91,6H55.3M40,6h6.39m-9,0H31M26.39,6h2m24-3H46M43.48,3h-6.4M34.53,3h-6.4M50.67-.14h6.39m-15.34,0h6.39m-15.34,0h6.39m-9,0H26.39"/></g></svg>