<svg id="Capa_1" data-name="Capa 1" xmlns="http://www.w3.org/2000/svg" xmlns:xlink="http://www.w3.org/1999/xlink" viewBox="0 0 54.03 41.9"><defs><style>.cls-1,.cls-2{fill:none;}.cls-2{stroke:#000;stroke-width:0.3px;}.cls-3{clip-path:url(#clip-path);}</style><clipPath id="clip-path"><rect id="SVGID" class="cls-1" x="7.01" y="-1.33" width="46.99" height="43.2"/></clipPath></defs><title>621 Lutita chert o chert pizarroso</title><path class="cls-2" d="M3.05,37.3c-3.16.11-4.74,1.54.12,1.43S6.69,37.19,3.05,37.3ZM2.17,26.87C7,26.75,5.69,25.32,2,25.43-1.11,25.54-2.69,27,2.17,26.87Zm.54-7.62c-3.16.11-4.73,1.54.12,1.43S6.36,19.14,2.71,19.25Zm-1.17-6c-3.16.11-4.74,1.54.12,1.43S5.18,13.12,1.54,13.23Zm-3.61-6c-3.16.11-4.74,1.55.12,1.44S1.57,7.1-2.07,7.21ZM2.5,2.46C7.36,2.35,6,.92,2.38,1-.78,1.14-2.36,2.57,2.5,2.46ZM5.07,41H-1.32m5.24-6.12h3.3M-5,34.87H1.36m1.4-2.8H7.22M3,29.09H7.22m-6.81,0H-6M-.39,23H6M4.24,17h3M-4.71,17H1.68M3,10.82H7.22M-6,10.82H.41M3.72,7.93h3.5m-4.74-3H7.22m-13.69,0h6.4M5.14-.87H7.22m-11,0H2.58"/><g class="cls-3"><path class="cls-2" d="M46.65,41.74c4.85-.11,3.52-1.54-.13-1.43C43.37,40.42,41.79,41.85,46.65,41.74Zm-26.93,0c4.86-.11,3.52-1.54-.12-1.43C16.44,40.42,14.86,41.85,19.72,41.74ZM56.63,37.3c-3.16.11-4.74,1.54.12,1.43S60.27,37.19,56.63,37.3Zm-26.8,1.43c4.86-.11,3.52-1.54-.12-1.43C26.55,37.41,25,38.84,29.83,38.73Zm13.25-3.12c4.86-.11,3.53-1.55-.12-1.44C39.8,34.28,38.23,35.72,43.08,35.61Zm-26.92,0c4.86-.11,3.52-1.55-.12-1.44C12.88,34.28,11.3,35.72,16.16,35.61ZM50.7,32.72c4.86-.12,3.53-1.55-.12-1.44C47.42,31.39,45.85,32.82,50.7,32.72Zm-26.92,0c4.86-.12,3.52-1.55-.12-1.44C20.5,31.39,18.92,32.82,23.78,32.72Zm18.13-4.28c-3.16.11-4.74,1.54.12,1.43S45.55,28.33,41.91,28.44ZM15,28.44c-3.15.11-4.73,1.54.13,1.43S18.63,28.33,15,28.44Zm40.77-1.57c4.86-.12,3.52-1.55-.12-1.44C52.47,25.54,50.89,27,55.75,26.87Zm-26.92,0c4.85-.12,3.52-1.55-.13-1.44C25.55,25.54,24,27,28.83,26.87Zm10.05-3.18c4.86-.11,3.52-1.55-.12-1.43C35.6,22.37,34,23.8,38.88,23.69ZM11.83,22.26c-3.15.11-4.73,1.54.13,1.43S15.48,22.14,11.83,22.26Zm44.47-3c-3.16.11-4.74,1.54.12,1.43S59.94,19.14,56.3,19.25Zm-26.93,0c-3.16.11-4.73,1.54.12,1.43S33,19.14,29.37,19.25Zm13.88-3c-3.16.11-4.74,1.54.12,1.43S46.89,16.13,43.25,16.24ZM16.44,17.67c4.86-.11,3.53-1.54-.12-1.43C13.17,16.35,11.59,17.78,16.44,17.67Zm38.69-4.44c-3.16.11-4.74,1.54.12,1.43S58.77,13.12,55.13,13.23Zm-26.93,0c-3.16.11-4.74,1.54.12,1.43S31.85,13.12,28.2,13.23Zm13.66-1.74c4.86-.11,3.53-1.55-.12-1.44C38.58,10.16,37,11.6,41.86,11.49Zm-26.92,0c4.86-.11,3.52-1.55-.12-1.44C11.66,10.16,10.08,11.6,14.94,11.49ZM51.51,7.21c-3.16.11-4.74,1.55.12,1.44S55.15,7.1,51.51,7.21Zm-26.92,0c-3.16.11-4.74,1.55.12,1.44S28.23,7.1,24.59,7.21ZM41.41,4c-3.16.11-4.74,1.54.12,1.43S45.05,3.93,41.41,4ZM14.48,4c-3.16.11-4.73,1.54.12,1.43S18.13,3.93,14.48,4Zm41.6-1.58C60.94,2.35,59.61.92,56,1,52.8,1.14,51.23,2.57,56.08,2.46ZM29,1c-3.16.11-4.74,1.54.12,1.43S32.68.92,29,1ZM44.13-1.58C41-1.47,39.39,0,44.25-.15S47.77-1.7,44.13-1.58ZM17.32-.15c4.86-.11,3.53-1.55-.12-1.43C14.05-1.47,12.47,0,17.32-.15ZM58.65,41H52.26M40.75,41H34.36M31.8,41H25.41M13.87,41H7.48m43.63-3H44.72m-2.56,0H35.77M24.26,38H17.87m-2.56,0H8.92m39.63-3.14H55m-24.3,0h6.4m-15.35,0h6.4m-17.94,0H7m37.82-2.8H38.44m-8.95,0h6.39m-17.9,0H11.59M7,32.07H9m45-3H47.6m-17.9,0h6.39m-15.35,0h6.4m-17.93,0H7m36.27-3h6.4m-15.35,0h6.39m-24.29,0h6.39m-9,0H7.48M53.19,23h6.39m-8.95,0H44.24M32.73,23H26.34m-2.56,0H17.39m27-2.81h6.39m-8.95,0H35.45m-17.9,0h6.39m-9,0H8.6M48.88,17h6.39M31,17h6.4m-8.95,0H22M10.48,17H7m36.11-3h6.4M34.17,14h6.39m-17.9,0H16.27m-2.56,0H7.32M47.6,10.82H54m-24.29,0h6.39m-9,0h-6.4m-11.53,0H7m32.4-2.89H45.8m-15.34,0h6.39m-24.3,0H19M10,7.93H7m40.11-3h6.39m-24.29,0h6.39m-15.34,0h6.39m-17.93,0H7m36.75-3h6.39m-8.95,0H34.81m-11.51,0H16.91m-2.56,0H8M49.77-.87h6.39m-24.29,0h6.39m-15.34,0h6.39m-17.93,0H7"/></g></svg>