<svg id="Capa_1" data-name="Capa 1" xmlns="http://www.w3.org/2000/svg" viewBox="0 0 54.03 44.91"><defs><style>.cls-1{fill:none;stroke:#1d1d1b;stroke-width:0.3px;}</style></defs><title>622 Lutita dolomítica</title><path class="cls-1" d="M36,39l-1.09,1.42M14.29,42,13.2,43.41m17.8,0L32.09,42M17.72,39l-1.09,1.42m-17.94,0L-.22,39M12.6,35.8l-1.09,1.42m17.94,0,1.09-1.42M6.45,33.08,5.36,34.5h0m17.88,0h0m0,0,1.09-1.42M29.56,30l-1.09,1.42m-17.76,0L11.81,30M6.16,28.5l1.09-1.41m18,0L24.12,28.5M30.23,24l-1.09,1.42m-17.69,0L12.54,24M7.39,22.56l1.09-1.42m16.79,1.42,1.09-1.42m12.34-1.7h0m0,0L39.78,18M20.69,19.44h0m0,0L21.78,18M3.69,18,2.6,19.44m0,0h0M16.05,15,15,16.42M33.82,15l-1.09,1.42M2.52,11.87,1.45,13.25m0,0,0,0m35.86,0,0,0m0,0,1.07-1.38m-17.84,0-1.06,1.38m0,0,0,0M14.69,8.92,13.6,10.34M32.51,8.92l-1.09,1.42M10,7.37l0,0m0,0L11.11,6m16.76,1.4L29,6m-1.08,1.4v0M6.8,4.32,7.89,2.9M24.62,4.32,25.71,2.9m2.57-1.3,0,0L29.37.19M10.44,1.6l0,0m0,0L11.53.19M38.65,43.42h1.69m-10.64,0h6.39m-15.34,0h6.39m-15.34,0h6.39m-15.34,0H9.24m-15.34,0H.29m32.92-3h6.4m-8.95,0h-6.4m-2.55,0h-6.4m-2.55,0H6.36m-2.55,0h-6.4M37.05,37.3h3.29m-12.24,0h6.39m-15.34,0h6.39m-15.34,0h6.39m-15.34,0H7.64m32.7-2.8h-.41M31,34.5h6.39m-14.13,0h5.18m-5.18,0H22m-2.56,0H13.08m-2.56,0H5.36m0,0H4.13m32-3h4.25m-13.2,0h6.39m-15.34,0h6.39m-15.34,0h6.39m-9,0H.29m31.49-3h6.39m-9,0H22.83m-8.95,0h6.39m-8.95,0H4.92m-2.55,0H-4M36.89,25.4h3.45m-12.4,0h6.39M19,25.4h6.39M10,25.4h6.39m-15.34,0H7.48M32.9,22.58h6.39m-8.95,0h-6.4m-2.55,0H15m-2.55,0H6m-2.55,0h-6.4m40.28-3.14h3m-11.92,0h6.39m-14.12,0H19.47m1.22,0h5.17m-15.34,0h6.39M8,19.44H2.6m-1,0h1m29-3H38m-15.34,0h6.39m-15.35,0h6.4m-8.95,0H4.76m-2.55,0H-4.18m40.27-3.21h4.25m-6.81,0H27.14m-2.56,0h-5.1m0,0H18.19m-2.56,0H9.24m-2.56,0H1.45m-1.16,0H1.45m37.68-2.89h1.21m-10.16,0h6.39m-15.34,0h6.39m-8.95,0H12.28m-8.95,0H9.72m-9,0H-5.62m41.23-3h4.73m-13.68,0h1.21m0,0h5.19m-15.35,0H24.1M10,7.35h5.11M10,7.35H8.76m-2.56,0H-.19m38.84-3H32.26m-2.56,0H23.31m-2.56,0h-6.4m-2.55,0H5.4m-2.55,0h-6.4M35.93,1.56h4.41m-12,0h5.06m-5.06,0H27M18,1.56h6.39m-13.95,0H9.08m1.39,0h5M.13,1.56H6.52"/><path class="cls-1" d="M49.75,42l-1.09,1.42m3.62-3L53.36,39M48.14,35.8l-1.09,1.42m-4.48-4.14L41.49,34.5m0,0h0m6-4.53-1.09,1.42M41.84,28.5l1.09-1.41m4.16-1.7L48.18,24m-5.13-1.41,1.09-1.42m6.52-4.72L51.75,15m-2.53-4.66,1.09-1.42M45.5,7.37v0L46.59,6M42.36,4.32,43.45,2.9M46.1,1.6l0,0,1-1.37m.29,43.23h6.39m-9,0H40.14m17.25-3H51m-2.56,0H42.05M52.28,37.3h-6.4m-5.74,0h3.15m5.47-2.8h6.39m-8.95,0H41.49m-1.35,0h1.35m9.83-3h-6.4m-2.59,0H40.14m15.81-3H49.56m-2.56,0H40.61M52.12,25.4h-6.4m-2.59,0h-3m16.93-2.82H50.68m-9,0h6.39m4.48-3.14H46.2m-2.59,0H40.14m15.65-3H49.4m-2.56,0H40.45m10.87-3.21h-6.4m-2.59,0H40.14m14.21-2.89H48m-2.56,0H40.14m4.3-3h6.4m-9,0H40.14m16.29-3H50m-2.56,0H41.09M51.16,1.56h-5m-1.38,0h1.38m-4,0h-2"/></svg>