<svg id="Capa_1" data-name="Capa 1" xmlns="http://www.w3.org/2000/svg" viewBox="0 0 54.03 44.39"><defs><style>.cls-1{fill:none;stroke:#1d1d1b;stroke-width:0.3px;}</style></defs><title>623 Lutita calcárea o marmol</title><path class="cls-1" d="M13.7,39.6v1.71m-3.87,3v-1.7M8.27,38.12V36.41m-6.22-1h0m0,0V33.7M7.3,30.59v1.7M3,27.7v1.7m5-4.81v1.7M4.09,23.46v-1.7m13.41-1.42h0m0,0V18.65m-18,1.69V18.65m0,1.69h0m12.05-4.73v1.7m4.56-3.17V12.48m0,1.67v0M10.24,9.54v1.7m-3.56-3V6.57m0,1.68v0m-3.24-3V3.52m3.65-1v0m0,0V.8M17.47,44.32h1.69m-10.64,0h6.39m-15.34,0H6m6.08-3h6.39m-8.95,0H3.08m-2.55,0h-6.4M15.87,38.2h3.29m-12.24,0h6.39M-2,38.2H4.36m14.8-2.8h-.41m-8.95,0h6.39m-14.13,0H.85m1.21,0H7.24m7.67-3h4.25M6,32.42h6.39M-3,32.42H3.4m7.2-3H17M8,29.44H1.65M15.71,26.3h3.45m-12.4,0h6.39m-15.34,0H4.2m7.51-2.82h6.4m-8.95,0H2.76m-2.55,0h-6.4m22.38-3.14h1.32m0,0h1.65m-11.92,0h6.39m-14.12,0H-1.71m1.22,0H4.68m5.76-3h6.39m-15.34,0H7.88m7-3.21h4.25m-6.81,0H6m-2.56,0H-1.73M18,11.26h1.21M9,11.26h6.39m-15.34,0H6.44m8-3h4.73m-13.68,0h1.2m0,0h5.2m-15.35,0H2.92m14.55-3H11.08m-2.56,0H2.13m-2.56,0H-6.82M14.75,2.46h4.41M7.1,2.46H5.8m1.3,0h5.1m-15.35,0H3.24"/><path class="cls-1" d="M27.49,42.61v1.7m18.14-1.7v1.7m3.44-4.71v1.71m-17.94,0V39.6m-5.23-1.48V36.41m18,0v1.71M20.3,35.4V33.7m0,1.7h0m17.47-1.7v1.7h0m5.35-3.11v-1.7M25.2,32.29v-1.7M20.66,29.4V27.7m17.89,1.7V27.7m5.28-1.41v-1.7m-17.94,0v1.7m-4-2.83v-1.7m17.91,1.7v-1.7m13.29-1.42V18.65m0,1.69h0M35,18.65v1.69m0,0h0m-5.52-3v-1.7m17.88,0v1.7M33.83,14.18v0m0-1.67v1.67m18-1.67v1.7M28,11.24V9.54m18,0v1.7m-21.68-3V6.57m18.11,1.7v0m0,0V6.57M21.18,5.22V3.52m18,1.7V3.52m3.63-1V.8M24.92,2.5V.8M53.15,44.32h6.4m-15.35,0h6.39m-15.34,0h6.39m-15.34,0h6.39M19,44.32h4.75m30.4-3H47.72m-2.56,0H38.77m-2.56,0H29.82m-2.56,0H20.87M51.55,38.2H58m-15.35,0H49m-15.35,0h6.4m-8.95,0H24.7m-2.59,0H19m36.69-2.8H54.43m-2.56,0H45.48m-2.56,0H36.53M34,35.4H27.58M25,35.4H20.3m0,0H19m31.63-3H57m-15.35,0H48m-8.95,0h-6.4m-8.95,0h6.4M19,32.42h2.19m25.13-3h6.39m-9,0H37.33m-2.56,0H28.38m-2.56,0H19.43m32-3.14h6.4m-15.35,0h6.4m-15.35,0h6.4m-8.95,0h-6.4M22,26.3H19m34.83-2.82H47.4m-2.56,0H38.45m-2.56,0H29.5m-8.95,0h6.39m26.15-3.14H51.87m1.22,0h5.18m-15.35,0h6.4M34,20.34h1m5.37,0H35m-3.58,0H25m-2.59,0H19m27.16-3h6.39m-8.95,0H37.17m-2.56,0H28.22m-2.56,0H19.27M57,14.15h-6.4m-2.55,0h-6.4m-2.55,0H33.83m-1.14,0h1.14m-3.69,0h-6.4m-2.59,0H19m34.67-2.89H60m-9,0H44.68m-9,0h6.39m-8.95,0H26.78m-2.56,0H19m31.16-3h6.39m-14.08,0H41.16m1.27,0h5.13m-9,0h-6.4m-8.95,0h1.06m0,0h5.34m-9,0H19m34.19-3H46.76m-2.56,0H37.81m-2.56,0H28.86m-2.56,0H19.91M50.44,2.46h6.39m-14,0h5m-5,0H41.49m-9,0h6.4M30,2.46H24.92m-1.34,0h1.34M21,2.46H19"/></svg>