<svg id="Capa_1" data-name="Capa 1" xmlns="http://www.w3.org/2000/svg" xmlns:xlink="http://www.w3.org/1999/xlink" viewBox="0 0 23 41.36"><defs><style>.cls-1,.cls-3{fill:none;}.cls-2{clip-path:url(#clip-path);}.cls-3{stroke:#1d1d1b;stroke-width:0.3px;}.cls-4{clip-path:url(#clip-path-2);}</style><clipPath id="clip-path"><rect id="SVGID" class="cls-1" x="-0.55" y="10.38" width="24.15" height="31.78"/></clipPath><clipPath id="clip-path-2"><rect id="SVGID-2" data-name="SVGID" class="cls-1" x="-0.55" y="-1.04" width="24.15" height="11.58"/></clipPath></defs><title>624 Lutita carbonosa</title><g class="cls-2"><path class="cls-3" d="M53.77,41.53H-.55m54.32-1.59H-.55m54.32-1.6H-.55M53.77,19.2H-.55m54.32-1.59H-.55M53.77,16H-.55m54.32-1.6H-.55m54.32-1.59H-.55m0-1.6H53.77m0,25.53H-.55m54.32-1.6H-.55m54.32-1.59H-.55M53.77,32H-.55m54.32-1.59H-.55m54.32-1.6H-.55m54.32-1.59H-.55m54.32-1.6H-.55M53.77,24H-.55m54.32-1.6H-.55M53.77,20.8H-.55"/></g><g class="cls-4"><path class="cls-3" d="M53.77,9.74H-.55m54.32-1.6H-.55M53.77,6.55H-.55M53.77,5H-.55M53.77,3.36H-.55m54.32-1.6H-.55M53.77.17H-.55m54.32-1.6H-.55"/></g></svg>