<svg id="Capa_1" data-name="Capa 1" xmlns="http://www.w3.org/2000/svg" xmlns:xlink="http://www.w3.org/1999/xlink" viewBox="0 0 54 43.2"><defs><style>.cls-1,.cls-11,.cls-3,.cls-4,.cls-5,.cls-6,.cls-7,.cls-8{fill:none;}.cls-2{clip-path:url(#clip-path);}.cls-11,.cls-3,.cls-4,.cls-5,.cls-6,.cls-7,.cls-8{stroke:#1d1d1b;}.cls-3{stroke-width:4.01px;}.cls-4{stroke-width:2.01px;}.cls-5{stroke-width:0.8px;}.cls-6{stroke-width:0.7px;}.cls-7{stroke-width:0.4px;}.cls-8{stroke-width:0.3px;}.cls-9{clip-path:url(#clip-path-2);}.cls-10{clip-path:url(#clip-path-3);}.cls-11{stroke-width:4.51px;}.cls-12{clip-path:url(#clip-path-4);}</style><clipPath id="clip-path"><rect id="SVGID" class="cls-1" y="11.06" width="10.13" height="32.14"/></clipPath><clipPath id="clip-path-2"><rect id="SVGID-2" data-name="SVGID" class="cls-1" x="9.93" y="11.06" width="44.07" height="32.14"/></clipPath><clipPath id="clip-path-3"><rect id="SVGID-3" data-name="SVGID" class="cls-1" width="10.13" height="11.22"/></clipPath><clipPath id="clip-path-4"><rect id="SVGID-4" data-name="SVGID" class="cls-1" x="9.93" width="44.07" height="11.22"/></clipPath></defs><title>625 Pizarra petrolífera</title><g class="cls-2"><path class="cls-3" d="M-44.19,11.07H10.14M-44.19,22.48H10.14"/><line class="cls-4" x1="10.14" y1="41.02" x2="-44.19" y2="41.02"/><line class="cls-5" x1="10.14" y1="36.01" x2="-44.19" y2="36.01"/><path class="cls-6" d="M10.14,28.48H-44.19m0-12.64H10.14m0,15.65H-44.19"/><path class="cls-7" d="M10.14,30.61H-44.19m54.33,7.78H-44.19m54.33,5.14H-44.19"/><path class="cls-8" d="M10.14,42.77H-44.19m54.33-5.64H-44.19m54.33-2.25H-44.19m54.33-1.13H-44.19m0-19.74H10.14M-44.19,27.35H10.14m-54.33-1H10.14"/><line class="cls-6" x1="-44.19" y1="19.37" x2="10.14" y2="19.37"/><line class="cls-7" x1="-44.19" y1="18.12" x2="10.14" y2="18.12"/><line class="cls-8" x1="-44.19" y1="16.97" x2="10.14" y2="16.97"/></g><g class="cls-9"><path class="cls-3" d="M9.93,11.07H64.26M9.93,22.48H64.26"/><line class="cls-4" x1="64.26" y1="41.02" x2="9.93" y2="41.02"/><line class="cls-5" x1="64.26" y1="36.01" x2="9.93" y2="36.01"/><path class="cls-6" d="M64.26,28.48H9.93m0-12.64H64.26m0,15.65H9.93"/><path class="cls-7" d="M64.26,30.61H9.93m54.33,7.78H9.93m54.33,5.14H9.93"/><path class="cls-8" d="M64.26,42.77H9.93m54.33-5.64H9.93m54.33-2.25H9.93m54.33-1.13H9.93M9.93,14H64.26M9.93,27.35H64.26m-54.33-1H64.26"/><line class="cls-6" x1="9.93" y1="19.37" x2="64.26" y2="19.37"/><line class="cls-7" x1="9.93" y1="18.12" x2="64.26" y2="18.12"/><line class="cls-8" x1="9.93" y1="16.97" x2="64.26" y2="16.97"/></g><g class="cls-10"><line class="cls-3" x1="10.14" y1="11.07" x2="-44.19" y2="11.07"/><line class="cls-11" x1="10.14" y1="1.38" x2="-44.19" y2="1.38"/><line class="cls-7" x1="10.14" y1="6.07" x2="-44.19" y2="6.07"/><path class="cls-8" d="M10.14,4.45H-44.19M10.14,7H-44.19"/></g><g class="cls-12"><line class="cls-3" x1="64.26" y1="11.07" x2="9.93" y2="11.07"/><line class="cls-11" x1="64.26" y1="1.38" x2="9.93" y2="1.38"/><line class="cls-7" x1="64.26" y1="6.07" x2="9.93" y2="6.07"/><path class="cls-8" d="M64.26,4.45H9.93M64.26,7H9.93"/></g></svg>