<svg id="Capa_1" data-name="Capa 1" xmlns="http://www.w3.org/2000/svg" viewBox="0 0 54.03 45.05"><defs><style>.cls-1{fill:none;stroke:#000;stroke-width:0.3px;}</style></defs><title>626 Creta</title><path class="cls-1" d="M42.59,39.43v2.34M28.54,39.43v2.34M39,24.37v2.35M17.12,42.44v2.34m1.5-12.14V30.3m.88-6v2.34m19.62,15.2h4.14m-4-6h4M41,23.8h2.26m-54,21.06H1.57m5.05,0H26.36m4.64,0H41.08m-22.25-3H35.39m-20.07,0H2.74m5.89-3.14H-9.61m39.61,0H40.79m-14.3,0H13.94m7-2.88h16M3,35.84H15.82M3.57,32.7h-13m33.79,0H8.8m33,0H28.37m-2-3H43.09m-26.6,0H-4.42m33.29-2.89H42m-30.33,0H25M6,26.81H-8.94m46.17-3H22.81m-5.15,0h-13m-5,0H-11.06m37.59-3.19H41.42m-32.62,0H21.89m-32,0H3.7m3.51,3.17V21.44"/><path class="cls-1" d="M47.4,30.33v2.35m6,6V36.31M43.35,44.86H55.69m-2.81-3H43.06m19.69-3.14H44.52m6.36-2.88H43.06M57.7,32.7h-13m25.93-3H49.7m10.38-2.89H45.19m8.53-3H43.06m1-3.19h13.8"/><path class="cls-1" d="M28.66,15.54v2.34M11.1,12V9.65M.68,8.73V6.39M26.15,3.52V5.87m13.1,12.2h4m-2.63-6h2.63m-4-6.14h4m-8.7,12.16H20.68m-6.44,0H5.12m-16.18,0h11m7.19-3.14H-9.1m22,0H26m4.69,0h9.11m-3.77-2.88H19.5m-4.68,0h-13M8,8.79H-7.43M26,8.79H12.69m16.73,0H40.25M22.47,5.91H36.06m-31.53,0h14M6.62,2.9H-8.94m33,0H10.77m30.81,0H28.83"/><path class="cls-1" d="M43.68,11.93V9.58m8.49-6.72V.52M43.06,18.07h11m7.2-3.14H45m4.52-2.88H43.06M62.17,8.79H46.69m6.19-2.88H43.06m17.68-3H45.19"/></svg>