<svg id="Capa_1" data-name="Capa 1" xmlns="http://www.w3.org/2000/svg" viewBox="0 0 54.03 38.77"><defs><style>.cls-1{fill:none;stroke:#000;stroke-width:0.3px;}</style></defs><title>627 Caliza</title><path class="cls-1" d="M17.86,39V43M2.93,39V43m20.26-7.5V39M10.4,35.52V39M1.06,32.21v3.31m14.68-3.31v3.31m6.89-7.32v4m-13.3-4v4M18,24.14V28.2M3,24.14V28.2m20.15-8.44V24M10.27,19.76V24m5.47-7.94v3.76M1.31,16.06v3.76M-31,39H23.35M-31,35.53H23.35M-31,32.24H23.35m-54.33-4H23.35M-31,24H23.35M-31,19.82H23.35"/><path class="cls-1" d="M43.38,39V43M29.83,39V43m20.89-7.5V39M35.66,35.52V39m-6.57-6.74v3.31m12.8-3.31v3.31M35.1,28.2v4M50,28.2v4m-6.52-8.07V28.2m-13.3-4.06V28.2m20.51-8.44V24M35.79,19.76V24m6.1-7.94v3.76m-12.8-3.76v3.76M23.14,39H77.47M23.14,35.53H77.47M23.14,32.24H77.47m-54.33-4H77.47M23.14,24H77.47M23.14,19.82H77.47"/><path class="cls-1" d="M15.32,7.61V12M.71,7.61V12m20.23,0v3.47M7.52,12v3.47M-31,12H23.35M23,3.83V7.61M9.45,3.83V7.61M17.83.21V3.78M2.9.21V3.78M11.38-3V.15m4.36,15.22v.85M1.31,15.37v.85M-31,15.38H23.35M-31,.16H23.35M-31,7.57H23.35M-31,3.78H23.41"/><path class="cls-1" d="M40.78,7.61V12m-13-4.36V12M48,12v3.47M33.48,12v3.47M23.14,12H77.47M35.05,3.83V7.61m14.6-3.78V7.61M43.35.21V3.78M30.05.21V3.78M23.65-3V.15M36.11-3V.15M51.3-3V.15M41.89,15.37v.85m-12.8-.85v.85m-5.95-.84H77.47M23.14.16H77.47M23.14,7.57H77.47M23.14,3.78H77.53"/></svg>