<svg id="Capa_1" data-name="Capa 1" xmlns="http://www.w3.org/2000/svg" xmlns:xlink="http://www.w3.org/1999/xlink" viewBox="0 0 54 38.58"><defs><style>.cls-1,.cls-2,.cls-4{fill:none;}.cls-2,.cls-4{stroke:#000;}.cls-2{stroke-width:0.8px;}.cls-3{clip-path:url(#clip-path);}.cls-4{stroke-width:0.3px;}.cls-5{clip-path:url(#clip-path-2);}.cls-6{clip-path:url(#clip-path-3);}.cls-7{clip-path:url(#clip-path-4);}.cls-8{clip-path:url(#clip-path-5);}.cls-9{clip-path:url(#clip-path-6);}</style><clipPath id="clip-path"><rect class="cls-1" x="-48.07" y="17.17" width="30.86" height="25.47"/></clipPath><clipPath id="clip-path-2"><rect class="cls-1" x="-48.07" y="-0.57" width="30.86" height="17.89"/></clipPath><clipPath id="clip-path-3"><rect class="cls-1" x="-0.01" y="18.97" width="3.43" height="23.67"/></clipPath><clipPath id="clip-path-4"><rect class="cls-1" x="3.22" y="18.97" width="50.77" height="23.67"/></clipPath><clipPath id="clip-path-5"><rect class="cls-1" x="-0.01" y="-0.57" width="3.43" height="19.69"/></clipPath><clipPath id="clip-path-6"><rect class="cls-1" x="3.22" y="-0.57" width="50.77" height="19.69"/></clipPath></defs><title>628 Caliza clástica</title><polygon class="cls-2" points="213.71 277.13 213.71 -321.67 -302.13 -321.67 -302.13 277.16 213.71 277.13"/><g class="cls-3"><path class="cls-4" d="M-27.83,40.06v4.06m-13.55-4.06v4.06m20.89-7.5v3.44m-15.06-3.44v3.44m-6.57-6.75v3.31m12.79-3.31v3.31m-6.78-7.32v4m14.93-4v4m-6.53-8.07V29.3M-41,25.24V29.3m20.52-8.43V25.1m-14.93-4.23V25.1m6.09-7.93v3.76m-12.79-3.76v3.76m-6,19.14H6.26m-54.33-3.43H6.26m-54.33-3.3H6.26m-54.33-4H6.26m-54.33-4.2H6.26m-54.33-4.18H6.26"/></g><g class="cls-5"><path class="cls-4" d="M-30.43,8.71v4.36m-13-4.36v4.36m20.24,0v3.48m-14.5-3.48v3.48M-48.07,13.1H6.26M-36.17,4.94V8.71m14.61-3.77V8.71m-6.3-7.4V4.89m-13.3-3.58V4.89m-6.4-6.81V1.25M-35.1-1.92V1.25m15.18-3.17V1.25m-9.41,15.22v.85m-12.79-.85v.85m-6-.84H6.26M-48.07,1.26H6.26M-48.07,8.67H6.26M-48.07,4.89H6.32"/></g><g class="cls-6"><path class="cls-4" d="M2.48,37.75,1.35,36m.82,7.21L.29,44.83M1.42,30-.47,28.41m3.39-6.82L1.79,19.84M-.4,19.9l-1.89,1.63m4,2.74L-.72,25.78M1.67,39.44l-2.39,1.5M1,32.55l-2.39,1.5m4.62,4.37v3.44M2.71,31.1v4m.51-12.45V26.9m-54.13,15H3.42m-54.33-3.43H3.42m-54.33-3.29H3.42m-54.33-4H3.42m-54.33-4.2H3.42m-54.33-4.19H3.42"/></g><g class="cls-7"><path class="cls-4" d="M53.28,36.06,51.4,37.69M5,44.89,3.91,43.14m52.38.06-1.88,1.63M42.3,25.65l-2.38-1.5m-2.2-.07-1.13,1.76m-2.19-.06-1.88-1.63M14,25.71l-2.39-1.5m-2.19-.06L8.24,25.9m-1.65-.06L4.71,24.21m15.76-2.87-2.38-1.5m-2.2-.06-1.13,1.75m-2.19-.06-1.89-1.63m36.83,1.75-2.38-1.5M42.93,20,41.8,21.78m-2.19-.06-1.89-1.63M14,40.88l-2.39-1.5m-2.19-.07L8.24,41.07M6.69,41,4.81,39.38m15.6-1.76L18,36.12m-2.19-.06L14.7,37.81m-2.2-.06-1.88-1.63m32.12,4.82-2.38-1.5m-2.2-.06L37,41.13m-2.19-.06L33,39.44m14.42-1.88L45,36.06M42.8,36l-1.12,1.76m-2.2-.06L37.6,36.06m4.2-2.2-2.38-1.5m-2.2-.07-1.13,1.76M33.9,34,32,32.36m-18.52,1.5-2.38-1.5m-2.2-.07L7.78,34.05M6.09,34,4.21,32.36M35.4,30,33,28.47m-2.13-.06-1.13,1.75M27.12,30l-1.88-1.63M8.49,29.91l-2.38-1.5m-1.45-.06L3.53,30.1m52-.06-1.88-1.63M7.42,20,5,21.47M53.72,19.9l-1.88,1.63M33.9,20l-2.39,1.51m-2.19.06-1.13-1.75m-2.2.06-1.88,1.63m31.68,2.8-2.38,1.51m-2.2.06-1.13-1.76m-2.19.07L46,25.78M28.19,24.15l-2.39,1.5m-2.19.06L22.48,24m-2.2.06L18.4,25.65M6.86,36.18,4.47,37.69m51.32,1.75-2.38,1.5m-2.2.07-1.13-1.76m-2.19.06L46,40.94M35,43.2l-2.38,1.51m-2.2.06L29.25,43m-2.19.07-1.88,1.63m2.88-5.14-2.38,1.5m-2.2.06-1.13-1.75m-2.19.06-1.88,1.63M8.49,43.2,7,44.92m26.6-8.86-2.38,1.5m-2.2.06-1.13-1.75m-2.19.06L23.8,37.56m3.89-5.14-2.39,1.5M23.11,34,22,32.23m-2.2.06L17.9,33.92m37.26-1.37-2.38,1.5m-2.2.06-1.13-1.75m-2.19.06-1.88,1.63M50,28.41l-2.38,1.5m-2.7.07-1.13-1.76m-2.2.06-1.88,1.63m-17.5-1.5-2.39,1.5M17.65,30l-1.13-1.76m-2.2.06-1.88,1.63m39.62,12v4.06M37.13,41.86v4.06M23.46,41.86v4.06M9.91,41.86v4.06m34.69-7.5v3.44M30.8,38.42v3.44M15.74,38.42v3.44M9.17,35.12v3.3M22,35.12v3.3m13.3-3.3v3.3m14.68-3.3v3.3M15.18,31.1v4m14.93-4v4m13.42-4v4M52.19,27V31.1M37.2,27V31.1M23.58,27V31.1M10.28,27V31.1m34.19-8.43V26.9M30.8,22.67V26.9M15.87,22.67V26.9M49.94,19v3.76M35.51,19v3.76M22,19v3.76M9.17,19v3.76M3.22,41.87H57.55M3.22,38.44H57.55M3.22,35.15H57.55m-54.33-4H57.55M3.22,26.92H57.55M3.22,22.73H57.55"/></g><g class="cls-8"><path class="cls-4" d="M1.54,11.89.41,13.65M4.7,17.53,2.82,15.9M4.3,4.06,3.17,5.81M1,5.75-.91,4.12M1.23,9.38l-2.39-1.5M2.09.73-.29,2.24M1,14.87v3.48M-50.91,14.9H3.42M3,6.74v3.77m-53.94,7.77H3.42M-50.91,3.07H3.42M-50.91-.17H3.48M-50.91,10.47H3.42M-50.91,6.69H3.48"/></g><g class="cls-9"><path class="cls-4" d="M55.67,11.89l-1.13,1.76m-2.2-.07L50.46,12m4.64-6.2L53.22,4.12M5.92,13.46,3.53,12m8.62,5.46L9.77,15.9m-1.95-.06L6.69,17.59M4.5,17.53,2.62,15.9m37.11,1.57L37.35,16m-2.2-.07L34,17.66m-2.19-.07L29.94,16m2.64-2.45L30.2,12M28,12l-1.13,1.76m-2.2-.06L22.79,12M55.35,9.38,53,7.88m-2.2-.06L49.64,9.57m-2.19-.06L45.56,7.88M27,9.38l-2.39-1.5m-2.19-.06L21.29,9.57m-2.2-.06L17.21,7.88M8.68,5.62,6.29,4.12M4.1,4.06,3,5.81m32-.06L32.58,4.24m-2.2-.06L29.25,5.94m-2.19-.07L25.18,4.24m18.25-2L41.05.73M38.85.67,37.72,2.43m-2.19-.07L33.65.73m-19,1.45L12.25.67M10.63.61,9.5,2.36M7.44,2.3,5.55.67M28.94.86l-2.38,1.5m-2.2.07L23.23.67M21,.73,19.15,2.36M56.22.73,53.83,2.24m-1.59.06L51.11.55M49.27.61,47.38,2.24m1.95,1.94L47,5.69m-2.2.06L43.62,4m-2.2.07L39.54,5.69M21.85,4.37l-2.38,1.5m-2.2.07L16.14,4.18M14,4.24,12.06,5.87m1.45,2-2.39,1.5m-2.19.06L7.8,7.63m-1.69.06L4.22,9.32M41.86,7.94,39.48,9.45m-2.2.06L36.15,7.75M34,7.82,32.08,9.45M47.26,12.2l-2.39,1.51m-2.19.06L41.55,12m-2.2.06-1.88,1.63m15.69,2.13-2.39,1.5m-2.19.07-1.13-1.76m-2.2.06-1.88,1.63M25.8,16l-2.38,1.5m-2.2.06-1.13-1.75m-2.19.06L16,17.53m3.32-5.45L17,13.58m-2.2.07-1.13-1.76M11.44,12,9.56,13.58m40-3.07v4.36M34.91,10.51v4.36m-14-4.36v4.36m-13-4.36v4.36m33.91,0v3.48M28.05,14.87v3.48m-14.5-3.48v3.48M3.22,14.9H57.55M15.12,6.74v3.77M29.73,6.74v3.77M43.65,6.74v3.77M52,3.12V6.69M37.1,3.12V6.69M23.43,3.12V6.69M10.13,3.12V6.69M3.73-.12V3.05M16.19-.12V3.05M31.37-.12V3.05M45.58-.12V3.05m4.21-7.38V-.18M35.49-4.33V-.18M21.81-4.33V-.18m-13-4.15V-.18M49.94,18.27v.85m-14.43-.85v.85M22,18.27v.85M9.17,18.27v.85m-5.95-.84H57.55M3.22,3.07H57.55M3.22-.17H57.61M3.22,10.47H57.55M3.22,6.69H57.61"/></g></svg>