<svg id="Capa_1" data-name="Capa 1" xmlns="http://www.w3.org/2000/svg" xmlns:xlink="http://www.w3.org/1999/xlink" viewBox="0 0 54 38.77"><defs><style>.cls-1,.cls-2,.cls-4{fill:none;}.cls-2{stroke:#000;stroke-width:0.8px;}.cls-3{clip-path:url(#clip-path);}.cls-4{stroke:#1d1d1b;stroke-width:0.3px;}.cls-5{clip-path:url(#clip-path-2);}.cls-6{clip-path:url(#clip-path-3);}.cls-7{clip-path:url(#clip-path-4);}</style><clipPath id="clip-path"><rect class="cls-1" x="-0.01" y="15.73" width="37.64" height="25.11"/></clipPath><clipPath id="clip-path-2"><rect class="cls-1" x="37.43" y="15.73" width="16.56" height="25.11"/></clipPath><clipPath id="clip-path-3"><rect class="cls-1" x="-0.01" y="-2.37" width="37.64" height="18.25"/></clipPath><clipPath id="clip-path-4"><rect class="cls-1" x="37.43" y="-2.37" width="16.56" height="18.25"/></clipPath></defs><title>629 Caliza fosilifera clástica</title><polygon class="cls-2" points="142.5 275.33 142.5 -323.47 -373.34 -323.47 -373.34 275.36 142.5 275.33"/><g class="cls-3"><path class="cls-4" d="M-.39,16.37l.75,2m9,2.72L7.26,22.45M5.66,32.79,3.77,34.42M.87,32.91-1,34.54m.63-7.71L1.49,25.2m11,7.59,1.13,1.75M12,29l.63,2.14m4.39,3.26,1.88-1.63M20,30.59l2.39-1.5m-15.62,2,1.44-1.88M5,25l2,1.51m7,.44,1.88-1.63m-3.34-4.2,1.13,1.75m3.22-6.39.75,1.85M3.92,16.43l1.44,2M24.58,30.34,27,29M19.12,26.9,21.32,25m0-2.5,1.88-1.63m3.51-2.89,1.88-1.63m-16,1.76,1.88-1.63m17.25-.06,1.13,1.75M35.5,30.78,34.37,29m-5.27-4,1.13,1.75m-4.4-6.08,1.38,1.45m6.28,4.7,1.38-1.7m-.69-2.65,1.88-1.63m-8.59,13.5-1.13-1.76M29.6,41.5l-1.13-1.75M27,37.87,25.9,36.11m5.52-1.63,1.88-1.63m2.1,7-1.89,1.63m2.81-5.23-1.88,1.63m-20.34.09L13,36.17M20.63,40l-1.88,1.63m4.32-5.33-1.88,1.63m-12-1.69L7.33,37.87m-.69,3.88L4.88,39.87M16,40l-1.88,1.63M2,39.87.07,41.5m37.56-1.62a3,3,0,0,0-1.44,1.56A9.49,9.49,0,0,1,37.63,41m0-15.93A2.9,2.9,0,0,0,36,26.69a8.93,8.93,0,0,1,1.66-.52m0-9.07a4.63,4.63,0,0,1-3-.47,2.46,2.46,0,0,0,3,1.64m0,15a4.81,4.81,0,0,1-2.87-.5,2.49,2.49,0,0,0,2.87,1.68M28.38,22.2c2-.79,2.71-.79,4.74.22C32.22,19.94,29.51,19.71,28.38,22.2ZM33,38c-.9-2.49-3.61-2.71-4.74-.23C30.24,37,30.92,37,33,38Zm-8.28-3.33c-.9-2.48-3.61-2.7-4.74-.22C22,33.63,22.64,33.63,24.67,34.64Zm-5.73-3.72c-.91-2.48-3.62-2.7-4.74-.22C16.23,29.91,16.91,29.91,18.94,30.92ZM13,26.79c-.9-2.48-3.61-2.71-4.74-.23C10.29,25.77,11,25.77,13,26.79Zm12-8.32c-.91-2.48-3.62-2.71-4.75-.23C22.3,17.45,23,17.45,25,18.47ZM1,22.38c2-.79,2.71-.79,4.75.23C4.84,20.13,2.13,19.9,1,22.38Zm7,19c2-.79,2.71-.79,4.74.22C11.85,39.16,9.14,38.94,8,41.42ZM5.75,38.05c-.91-2.48-3.62-2.71-4.75-.23C3,37,3.71,37,5.75,38.05Zm5.54-21.56c-2,1-2.71,1-4.74.23C7.67,19.2,10.38,19,11.29,16.49ZM15.06,21c1.13,2.48,3.84,2.25,4.74-.23C17.77,21.82,17.09,21.82,15.06,21Zm12.16,3.91c-2,1-2.71,1-4.74.22C23.61,27.64,26.32,27.42,27.22,24.94ZM33,29c-2,1-2.71,1-4.74.22C29.36,31.68,32.07,31.45,33,29ZM5.71,28.86c-2,1-2.71,1-4.75.23C2.09,31.57,4.8,31.35,5.71,28.86Zm.92,4c1.13,2.48,3.84,2.25,4.74-.23C9.34,33.62,8.66,33.62,6.63,32.83Zm13.63,3.29c-2,1-2.71,1-4.74.22C16.65,38.82,19.36,38.6,20.26,36.12Zm1.87,3.94c1.12,2.48,3.83,2.26,4.74-.23C24.83,40.85,24.16,40.85,22.13,40.06Zm10-1.43h0m0,0v4M17.22,38.62h0m0,0v4M3.54,38.62h0v4M37.48,35.2v3.42m0-3.42v0m-12.8,0v3.42m0-3.42v0m-13.8,0v0m0,0v3.42M2.05,31.9v3.28m0-3.28v0m13.29,0v3.28m0-3.28v0M30,31.9v3.28m0-3.28v0m6.89,0v-4m0,0h0m-26.72,0v4m0-4h0m13.42,0h0m0,0v4m8.66-4V23.8m-15,4.06V23.8M3.66,27.86V23.8m33.77-4.31v4.17m0-4.17v-.06m-12.87.06v-.06m0,.06v4.17M10.88,19.49v-.06m0,.06v4.17M30,15.73v3.76M15.6,15.73v3.76M2.05,15.73v3.76m30.1,19.14H17.22m0,0H3.54m0,0H-10m42.16,0h5.48m-13-3.43h12.8m0,0h.15m-13,0H10.88m-15.06,0H10.88m4.46-3.3H30m-14.68,0H2.05m0,0h-12.8M30,31.9h7.61m0-4h-.72m-13.3,0H-4.74m28.35,0h13.3m.72-4.19H-16.7m27.58-4.19H2.05m8.83,0H15.6m21.83,0h.2m-13.07,0H30m7.41,0H30m-5.46,0h-9M-4,19.49h6.1"/></g><g class="cls-5"><path class="cls-4" d="M53.74,16.37l.75,2m-1.28,4.35L52.08,21m-3.22,0L47,22.63M40.17,18l1.88-1.63m3,1.56L47,16.3m-6.79,6.46L39,21m2.53,4.14L42.7,26.9m3.13,7.58L44.7,32.73m-6.52-3.58,1.13,1.76m6.9-6.08L47,27m-5.08,5.83-1.88,1.63m0,1.63-1.49,1.63M55,32.91l-1.88,1.63m-6.59-3.69,1.88-1.63m5.34-2.39,1.88-1.63m-3.7,3.89,1.13,1.76m.29,7.2L52.21,36.3m-9.15,5.6-1.13-1.76m4.91-4.07,1.63,1.67M46.58,41.5l-1.12-1.75m10.62.12L54.2,41.5M37.43,39.86c1.21-.52,2.65.13,3.26,1.8-1.45-.72-2.21-.93-3.26-.7m15-22.37c-.91-2.49-3.62-2.71-4.75-.23C49.7,17.57,50.37,17.57,52.41,18.59ZM47,34.25c2-.79,2.71-.79,4.75.23C50.79,32,48.08,31.77,47,34.25ZM45.3,30.82c-.91-2.48-3.62-2.71-4.75-.23C42.59,29.8,43.26,29.8,45.3,30.82Zm-7.87-4.65a4.64,4.64,0,0,1,3,.74c-.58-1.57-1.88-2.24-3-1.88m0-6.77a3,3,0,0,0,1.68-1.85,8.66,8.66,0,0,1-1.68.68m3.89,3.77c1.13,2.48,3.84,2.25,4.74-.23C44,21.65,43.35,21.65,41.32,20.86ZM52.85,25c-2,1-2.71,1-4.75.23C49.23,27.75,51.94,27.52,52.85,25ZM37.43,34.46a2.86,2.86,0,0,0,1.82-1.9,7.59,7.59,0,0,1-1.82.72m8.47,2.65c-2,1-2.71,1-4.74.22C42.29,38.63,45,38.41,45.9,35.93Zm2.29,4c1.13,2.48,3.84,2.26,4.74-.22C50.9,40.7,50.22,40.7,48.19,39.91Zm-4.08-1.29h0v4M50,35.2v3.42m0-3.42v0M43.37,31.9v3.28m0-3.28v0m6-4v4m0-4h0m-4.89,0V23.8m5.58-4.31v4.17m0-4.17v-.06m-6.7-3.7v3.76M57.66,38.63H37.43M50,35.2H37.43M50,35.2H65m-8.83-3.3H37.43m26.88-4H49.38m0,0h-12m54.32-4.19H37.43m0-4.19h5.94m6.7,0h-6.7m6.7,0h6.1"/></g><g class="cls-6"><path class="cls-4" d="M28.47.85,29.6,2.61M36.5-.9,35.37-2.66M35.31,1,33.43,2.61m-5-5.27L27.24-1M.43.85,1.56,2.61m10.6,3.88L11,4.74M-.14-2.35-2.08-1m10.6.19L7.39-2.6m8,1.51L13.75-2.66m5.06,5.2L20.69.91m3.43-3.44L22.24-.9M5.4.85,6.53,2.61m7.51,0L15.92,1M26.78,6.43,25,4.8m11.29,7.65,1.13,1.75m-4.9-3.38L31.35,9.06M-.38,8.8l-1.88,1.63m10-5.69L5.82,6.37m14.49,6.2L18.43,14.2M5.94,12.57,4.75,14.39m-.81-4L2.81,8.62m9.72-.18-1.06,1.94m-.19,4-1.13-1.75m8.22-2L17.24,8.87m4.45-4.2L20.38,6.43m13.36-.06,1.88-1.63M28.24,9,26,10.32m-1.84,4-1.13-1.76m10.36.13-1.26,1.63M37.63.88a3.06,3.06,0,0,0-1.33,1.5,12.31,12.31,0,0,1,1.33-.45m0,7.16c-1.55.69-2.29.61-4.08-.09.92,2,2.89,2.25,4.08.91M1.15-1c2-.79,2.71-.79,4.74.22C5-3.26,2.28-3.49,1.15-1ZM12.58,2.64C11.68.16,9-.06,7.84,2.42,9.88,1.63,10.55,1.63,12.58,2.64ZM13.8,6.05c2-.79,2.71-.79,4.74.23C17.64,3.8,14.93,3.57,13.8,6.05Zm6.4,4c2-.79,2.71-.79,4.74.22C24,7.81,21.33,7.58,20.2,10.07Zm-17,4.3c-.9-2.49-3.61-2.71-4.74-.23C.47,13.35,1.14,13.35,3.17,14.37ZM29.57-1c2-.79,2.71-.79,4.75.22C33.41-3.29,30.7-3.51,29.57-1Zm1.29,15.41c-.9-2.48-3.61-2.71-4.74-.22C28.15,13.37,28.83,13.37,30.86,14.38ZM17.53,12.47c-2,1-2.71,1-4.74.23C13.91,15.18,16.63,15,17.53,12.47ZM0,4.6c1.13,2.48,3.84,2.25,4.74-.23C2.71,5.39,2,5.39,0,4.6ZM16.92-2.55c1.13,2.48,3.84,2.25,4.74-.23C19.63-1.76,19-1.76,16.92-2.55Zm10,3.28c-2,1-2.71,1-4.74.23C23.25,3.44,26,3.21,26.87.73Zm6,3.85c-2,1-2.71,1-4.74.22C29.23,7.28,31.94,7.06,32.85,4.58ZM5.31,8.9c1.13,2.48,3.84,2.25,4.74-.23C8,9.69,7.34,9.69,5.31,8.9Zm24.3-1.63v4.36M15,7.27v4.36M.94,7.27v4.36m34.29,0V15m0-3.38v0m0,3.41v.07M21.8,11.66v0m0,3.41v.07m0-.07V11.66M8.13,15v.07m0-3.45v0m-14.5,0H8.13V15M21.8,11.66H8.13m13.67,0H35.23m0,0h2.4m-.39-4.43V3.5m0,3.73v0m-27.43,0v0m0,0V3.5M23.74,7.23V3.5m0,3.73v0m8.38-3.82V-.13M17.19,3.45V-.13M3.51,3.45V-.13m8-3.23V-.19m14.2-3.17V-.19M30,15.88V15m0,0h0m-14.42.84V15m0,0h0m-13.55.84V15m0,0h0m33.18,0h2.4M8.13,15H2.05m-8.42,0H2.05m33.18,0H30M8.13,15H15.6m6.2,0H30M21.8,15H15.6M-16.7-.18H37.63M23.74,7.23h13.5m-42,0H9.81m0,0H23.74m13.5,0h.39M32.12,3.45h5.57m-47.48,0h27m0,0H32.12"/></g><g class="cls-7"><path class="cls-4" d="M40.81-2.41l-1.5,1.32M54.55.85l1.13,1.76m-7.8,3.55L46.25,4.53M41.69.79l1.13,1.75m6.4-3.76-1.51-1.5M39.93,4.67,38.42,6.24m7.22-3.63L47.53,1M54-2.35,52-1M44.55,10.44,43.42,8.69m8.75-2.32-.69-1.95M41.25,9.06l-1.88,1.63M53.75,8.8l-1.88,1.63m-1,3.83-1.13-1.75m-3.25.06L44.65,14.2M37.43,1.92c1.11-.26,1.87-.07,3.37.68C40.17.87,38.66.24,37.43.85m3.31,5.2c2-.79,2.71-.79,4.74.23C44.58,3.8,41.87,3.57,40.74,6.05ZM46,10.19c2-.79,2.71-.79,4.74.23C49.86,7.93,47.15,7.71,46,10.19ZM57.3,14.37c-.9-2.49-3.61-2.71-4.74-.23C54.59,13.35,55.27,13.35,57.3,14.37ZM44,12.47c-2,1-2.72,1-4.75.23C40.41,15.18,43.12,15,44,12.47ZM42-2.59c1.13,2.48,3.84,2.26,4.74-.22C44.71-1.8,44-1.8,42-2.59ZM53.22.67c-2,1-2.71,1-4.74.22C49.61,3.38,52.32,3.15,53.22.67Zm.91,3.93c1.12,2.48,3.83,2.25,4.74-.23C56.84,5.39,56.16,5.39,54.13,4.6ZM37.43,9.86A3.45,3.45,0,0,0,38,8.77c-.22.12-.42.21-.61.3M42,7.27v4.36m5.75,0v3.45m0-3.45v0m-10.33,0H62.25M49.33,7.23v0m0,0V3.5m-5,0V-.13m-6.4-3.23V-.19M50.4-3.36V-.19M43.37,15h0m0,.84V15m4.39,0H43.37m4.39,0h8.41M37.43,15h5.94M37.43-.18H91.75M49.33,7.23H37.43m11.9,0h14.6M44.34,3.45H37.43m6.91,0H57.63"/></g></svg>