<svg id="Capa_1" data-name="Capa 1" xmlns="http://www.w3.org/2000/svg" xmlns:xlink="http://www.w3.org/1999/xlink" viewBox="0 0 53.99 39.08"><defs><style>.cls-1,.cls-2,.cls-4{fill:none;}.cls-2{stroke:#000;stroke-width:0.8px;}.cls-3{clip-path:url(#clip-path);}.cls-4{stroke:#1d1d1b;stroke-width:0.3px;}.cls-5{clip-path:url(#clip-path-2);}.cls-6{clip-path:url(#clip-path-3);}.cls-7{clip-path:url(#clip-path-4);}.cls-8{clip-path:url(#clip-path-5);}.cls-9{clip-path:url(#clip-path-6);}</style><clipPath id="clip-path"><rect class="cls-1" x="-33.78" y="17.94" width="16.56" height="25.11"/></clipPath><clipPath id="clip-path-2"><rect class="cls-1" x="-33.78" y="-0.16" width="16.56" height="18.25"/></clipPath><clipPath id="clip-path-3"><rect class="cls-1" x="-0.01" y="17.94" width="17.52" height="25.11"/></clipPath><clipPath id="clip-path-4"><rect class="cls-1" x="17.31" y="17.94" width="36.68" height="25.11"/></clipPath><clipPath id="clip-path-5"><rect class="cls-1" x="-0.01" y="-0.16" width="17.52" height="18.25"/></clipPath><clipPath id="clip-path-6"><rect class="cls-1" x="17.31" y="-0.16" width="36.68" height="18.25"/></clipPath></defs><title>630 Caliza nodular o con estratificación irregular</title><polygon class="cls-2" points="71.29 277.54 71.29 -321.26 -444.54 -321.26 -444.54 277.57 71.29 277.54"/><g class="cls-3"><path class="cls-4" d="M-17.47,18.58l.75,2M-18,25l-1.13-1.76m-3.23,0-1.88,1.63M-31,20.21l1.88-1.63m3,1.56,1.89-1.63M-31,25l-1.13-1.76m2.52,4.14,1.13,1.76m3.14,7.58-1.13-1.75M-33,31.36l1.13,1.76M-25,27l.82,2.19m-5.08,5.83-1.88,1.63m0,1.63L-32.65,40m16.44-4.83-1.89,1.63m-6.58-3.69,1.88-1.63M-17.47,29l1.88-1.63m-3.7,3.89,1.13,1.76m.29,7.2L-19,38.51m-9.16,5.6-1.12-1.76m4.9-4.07L-22.74,40m-1.88,3.76L-25.75,42m10.62.12L-17,43.71m-16.77-1.64c1.22-.52,2.65.13,3.26,1.8-1.45-.72-2.21-.93-3.26-.7m15-22.37c-.9-2.49-3.61-2.71-4.74-.23C-21.51,19.78-20.83,19.78-18.8,20.8Zm-5.45,15.66c2-.79,2.71-.79,4.74.23C-20.41,34.2-23.12,34-24.25,36.46ZM-25.91,33c-.9-2.48-3.61-2.71-4.74-.23C-28.62,32-27.94,32-25.91,33Zm-7.87-4.65a4.63,4.63,0,0,1,3,.74,2.53,2.53,0,0,0-3-1.88m0-6.77a3,3,0,0,0,1.68-1.85,8.42,8.42,0,0,1-1.68.68m3.89,3.77c1.13,2.48,3.84,2.25,4.75-.23C-27.18,23.86-27.85,23.86-29.89,23.07Zm11.53,4.18c-2,1-2.71,1-4.74.23C-22,30-19.26,29.73-18.36,27.25Zm-15.42,9.42a2.89,2.89,0,0,0,1.83-1.9,7.64,7.64,0,0,1-1.83.72m8.48,2.65c-2,1-2.71,1-4.74.22C-28.92,40.84-26.21,40.62-25.3,38.14Zm2.28,4c1.13,2.48,3.84,2.26,4.74-.22C-20.31,42.91-21,42.91-23,42.12Zm-4.07-1.29h0v4m5.83-7.48v3.42m0-3.42v0m-6.57-3.28v3.28m0-3.28v0m6-4v4m0-4h0m-4.9,0V26m5.59-4.31v4.17m0-4.17v-.06m-6.7-3.7V21.7m14.29,19.14H-33.78m12.52-3.43H-33.78m12.52,0H-6.2M-15,34.11H-33.78m26.89-4H-21.82m0,0h-12m54.33-4.19H-33.78m0-4.19h6m6.7,0h-6.7m6.7,0H-15"/></g><g class="cls-5"><path class="cls-4" d="M-30.39-.2-31.9,1.12m15.25,1.94,1.13,1.76m-7.8,3.55-1.63-1.63M-29.51,3l1.13,1.75M-22,1l-1.5-1.5m-7.78,7.39-1.52,1.57m7.23-3.63,1.88-1.63m6.46-3.33-1.94,1.32m-7.49,11.47-1.13-1.75M-19,8.58l-.69-1.95m-10.22,4.64-1.88,1.63M-17.46,11l-1.88,1.63m-.95,3.83-1.13-1.75m-3.25.06-1.88,1.63M-33.78,4.13c1.11-.26,1.88-.07,3.38.68-.63-1.73-2.14-2.36-3.38-1.75m3.32,5.2c2-.79,2.71-.79,4.74.23C-26.62,6-29.33,5.78-30.46,8.26Zm5.27,4.14c2-.79,2.72-.79,4.75.23C-21.35,10.14-24.06,9.92-25.19,12.4Zm11.28,4.18c-.9-2.49-3.61-2.71-4.74-.23C-16.61,15.56-15.94,15.56-13.91,16.58Zm-13.27-1.9c-2,1-2.71,1-4.74.23C-30.79,17.39-28.08,17.16-27.18,14.68Zm-2-15.06c1.13,2.48,3.84,2.26,4.74-.22C-26.5.41-27.18.41-29.21-.38ZM-18,2.88c-2,1-2.71,1-4.75.22C-21.6,5.59-18.89,5.36-18,2.88Zm.9,3.93c1.13,2.48,3.84,2.25,4.74-.23C-14.37,7.6-15,7.6-17.08,6.81Zm-16.7,5.26A3.46,3.46,0,0,0-33.16,11c-.22.12-.43.21-.62.3m4.59-1.8v4.36m5.74,0v3.45m0-3.45v0m-10.33,0H-8.95M-21.88,9.44v0m0,0V5.71m-5,0V2.08m-6.4-3.23V2m12.46-3.17V2m-7,15.22h0m0,.84v-.84m4.38,0h-4.38m4.38,0H-15m-18.75,0h6M-33.78,2H20.55M-21.88,9.44h-11.9m11.9,0H-7.27m-19.6-3.78h-6.91m6.91,0h13.3"/></g><g class="cls-6"><path class="cls-4" d="M12.17,43.22l-.09,0,.12.06,0,0m0,0a3.89,3.89,0,0,0-1.68-.41m1.68.41c2.6,1,3.1.44,4.42,0a3.3,3.3,0,0,1,.87-.27m-20.77.71a6,6,0,0,0,2-.39,5.76,5.76,0,0,1,4.52,0,6.19,6.19,0,0,0,4.52,0,5.41,5.41,0,0,1,2.8-.48M6,39.22a7.1,7.1,0,0,0-2.43.48,6,6,0,0,1-2,.39m13.3-.88a4.63,4.63,0,0,1,2.19.42m0,0-.1,0,.13.06,0,0m0,0,.39.14M6,39.22a4.41,4.41,0,0,1,2.09.43,6.19,6.19,0,0,0,4.52.05,4.91,4.91,0,0,1,2.3-.49m-22.46.92a5.17,5.17,0,0,0,2-.48,5.4,5.4,0,0,1,4.51-.06,5.43,5.43,0,0,0,2.64.5m-4.77-3.75a6.53,6.53,0,0,0,2.09-.4,5.76,5.76,0,0,1,4.52,0A6.34,6.34,0,0,0,6,36.35a4.18,4.18,0,0,0,2-.41,5.67,5.67,0,0,1,4.48-.07m0,0-.09,0,.12.06,0,0a6.5,6.5,0,0,0,2.46.55m0,0a6.51,6.51,0,0,0,2-.53,3.21,3.21,0,0,1,.62-.22m-30.81-4.4a5.7,5.7,0,0,1,2.88.59,6,6,0,0,0,4.52-.11,5.42,5.42,0,0,1,4.52-.06,5.06,5.06,0,0,0,2.26.51,6.37,6.37,0,0,0,2.34-.4,7.36,7.36,0,0,1,2.05-.46m0,0a4.7,4.7,0,0,1,2.47.41,6.11,6.11,0,0,0,4.51.05,5.79,5.79,0,0,1,4.49-.07c.28.11.54.19.77.27m-.77-.27-.1,0,.13.06,0,0M-3.94,28.31a6.14,6.14,0,0,0,2.34-.39,5.81,5.81,0,0,1,4.52-.06,6.11,6.11,0,0,0,4.51.06,5.75,5.75,0,0,1,4.49-.08m0,0-.09,0,.12.05,0,0m0,0c2.59,1,3.1.45,4.42,0a3.93,3.93,0,0,1,1.12-.31m-26-3.2a5.29,5.29,0,0,0,2.38-.5,5.41,5.41,0,0,1,4.52-.05,5.23,5.23,0,0,0,2.26.5m15.86-.47-.1,0,.13.05,0,0M.58,24.3a6,6,0,0,0,2.34-.4,5.82,5.82,0,0,1,4.51,0,6.14,6.14,0,0,0,4.52,0,5.79,5.79,0,0,1,4.49-.07,9.34,9.34,0,0,0,1,.34m-5.62-4.48c2.59,1,3.1.45,4.42,0a4.31,4.31,0,0,1,1.2-.33m-12.37.79a6.06,6.06,0,0,1-2.26-.46,5.82,5.82,0,0,0-4.51.05,6.21,6.21,0,0,1-2.39.4m9.16,0a4.51,4.51,0,0,0,2.26-.41,5.25,5.25,0,0,1,2.38-.49m2.11.42-.1,0,.13.06,0,0m0,0a4.54,4.54,0,0,0-2.11-.42M1.58,40.05v2.62m8.91.17v0m0-2.69v2.69M6,39.22v.11m0-.11v-3m8.91,3h0m0,0V36.42m0,0v-.1M.83,32.2v3.25m0-3.25h0M10,35.45V32.32m-4.77-1v.1m0-.1v-2.9m8.91.12v2.75M.58,24.3v3.12m0-3.12h0m8.9,3.12v-3M.83,19.2V17.94m8.9,1.38V17.94m4.77,2.29v3.08M5.09,20.17V23.3m0-3.13v-.12"/></g><g class="cls-7"><path class="cls-4" d="M37.23,42.78a5.79,5.79,0,0,1,2,.56,5.1,5.1,0,0,0,2.26.39,5.17,5.17,0,0,0,2.26-.49,5.19,5.19,0,0,1,2.88-.5m-9.41,0a4.45,4.45,0,0,0-2.59.46,4.27,4.27,0,0,1-1.92.45m-9.54,0A6.6,6.6,0,0,1,21,43.24a6.74,6.74,0,0,0-2.09-.39m9.53,0a3.93,3.93,0,0,1,1.67.37,6.19,6.19,0,0,0,2.6.51m-13.8-.84a7.6,7.6,0,0,0-1.56.12m5.82.7a5.46,5.46,0,0,0,2.43-.49,6.74,6.74,0,0,1,2.84-.37m18.19-.07a4.67,4.67,0,0,1,1.63.44,5.43,5.43,0,0,0,2.64.5m0,0a6,6,0,0,0,2-.39,5.75,5.75,0,0,1,4.52,0,6.19,6.19,0,0,0,4.52,0,5.41,5.41,0,0,1,2.8-.48M41.62,39.16a6,6,0,0,1,2.51.59,5.37,5.37,0,0,0,2.51.38m-13.8-.92a6.2,6.2,0,0,0-2.34.38,6,6,0,0,1-4.6.06,6.71,6.71,0,0,0-4.52,0,5.06,5.06,0,0,1-2.46.51m27.72,0a5.12,5.12,0,0,0,2-.48,5.42,5.42,0,0,1,4.52-.06,5.35,5.35,0,0,0,2.63.5m-36.88.07a7.64,7.64,0,0,1-1.56-.39m24.26-.61a4.29,4.29,0,0,0-2.09.49A5.58,5.58,0,0,1,35,39.59a4.78,4.78,0,0,0-2.18-.38M51,36.34a6.64,6.64,0,0,0,2.1-.4,5.73,5.73,0,0,1,4.51,0,6.34,6.34,0,0,0,2.55.46m-27.35,0a6.29,6.29,0,0,1-2.47-.51,6.75,6.75,0,0,0-4.51,0,5.58,5.58,0,0,1-2.55.49,7,7,0,0,1-2-.43,6.92,6.92,0,0,0-2.47-.39m22.83.88A5.33,5.33,0,0,0,44,35.89a5.42,5.42,0,0,1,4.52-.06,5.32,5.32,0,0,0,2.5.51m-9.41,0A4.85,4.85,0,0,1,39.49,36a5.77,5.77,0,0,0-2.63-.59m-4,.94a4.39,4.39,0,0,0,2-.45,4.17,4.17,0,0,1,2-.49m-18.07.1a6.84,6.84,0,0,0-1.43.17m5.19-4.28a7.2,7.2,0,0,1,3,.36,6.46,6.46,0,0,0,1.8.41m13.55-.89a5.74,5.74,0,0,1,2.89.59,6,6,0,0,0,4.51-.11,5.42,5.42,0,0,1,4.52-.06,5.1,5.1,0,0,0,2.26.51m-14.18-.93a4.14,4.14,0,0,0-1.71.48,5.61,5.61,0,0,1-4.52-.06,6.84,6.84,0,0,0-4.52,0,5.47,5.47,0,0,1-2.8.47m-4.77-.77a4.42,4.42,0,0,0-1.54.36c-1.18.38-1.71.85-3.65.25m32.92-3.69a6.11,6.11,0,0,0,2.34-.39,5.81,5.81,0,0,1,4.52-.06,6.14,6.14,0,0,0,4.52.06,5.72,5.72,0,0,1,4.48-.08m-48.78-.29a4.63,4.63,0,0,1,.55-.06m32.37.82a5.27,5.27,0,0,1-2.26-.5,5.39,5.39,0,0,0-4.51.05A6,6,0,0,1,39,28a5.8,5.8,0,0,0-2.76-.59m0,0a4.27,4.27,0,0,0-1.84.48,5.65,5.65,0,0,1-4.52-.05,6.75,6.75,0,0,0-4.51,0,6,6,0,0,1-4.61.05,7.06,7.06,0,0,0-2.84-.37m9.54-3.21a6.36,6.36,0,0,1-2.18-.43,6.78,6.78,0,0,0-4.52,0,4.35,4.35,0,0,1-3.39.32m10.09.11a5.43,5.43,0,0,0,2.42-.48,6.71,6.71,0,0,1,4.52,0,5.65,5.65,0,0,0,4.52.05,5.23,5.23,0,0,1,4.6.11,5.16,5.16,0,0,0,2.13.39,5.26,5.26,0,0,0,2.38-.5,5.41,5.41,0,0,1,4.52-.05,5.27,5.27,0,0,0,2.26.5m4.52-4.13a6,6,0,0,1-2.26-.46,5.85,5.85,0,0,0-4.52.05,6.2,6.2,0,0,1-2.38.4,5.22,5.22,0,0,1-2.22-.51,5.46,5.46,0,0,0-4.52.06,6,6,0,0,1-4.51.11,5.23,5.23,0,0,0-4.6-.11,4.35,4.35,0,0,1-2.1.45m0,0a6.06,6.06,0,0,1-2.42-.51,6.84,6.84,0,0,0-4.52,0,5.36,5.36,0,0,1-2.47.49m0,0a6.68,6.68,0,0,1-2.13-.43,7.42,7.42,0,0,0-3.31-.33m5.82,24.29v-.1m9.54.12v-.08m18.19.07v-.07m-32-3.45v2.7m0-2.7v0m9.53,2.72v0m0,0V40.1m8.78,2.68v.06m0-.06V40.22m9.41,2.52V40.13m0,0v0m0,2.64v.1M23.31,36.32v-.11m0,.11v2.89m9.53-2.87v2.87m0-2.87v-.21m8.78.25v-.12m0,.12v2.83M51,36.34v-.21m0,.21v2.74M27.32,35.45V32.16m0,0v-.11m9.54,3.4V35.4m0,0V32.2m8.78.12v3m-26.85.18V32.32m0,3.18v.07m3.76-4.18V28.28m0,3.11v.05m9.54-.26V28.31m8.78,3v0m0,0V28.44m9.41-.13v2.87m0-2.87h0m-32.37-.76v-.06m0-3.06v3.06m9.54-3.21v-.1m0,.1v3.14m8.78,0v0m0,0V24.3m9.41,3V24.35m0,0v-.17M18.16,19.32V17.94m9.54,1.13V17.94m8.78,1.26V17.94m9.41,1.13V17.94m4.27,2.22v3m0-3v-.07M41,23.3V20.22m-8.79-.06V23.3m0-3.14v-.05m-9.41,0v-.07m0,.07v3.24"/></g><g class="cls-8"><path class="cls-4" d="M.83,16.22v1.87m8.9-1.9v1.9m0-1.9v0m-22.58-.91a5.68,5.68,0,0,1,2.18.58,5.94,5.94,0,0,0,4.51-.11,5.41,5.41,0,0,1,4.52-.05,6,6,0,0,0,4.6.11,6.84,6.84,0,0,1,2.76-.47m10.76.39-.1,0,.13.05,0,0c.37.14.69.25,1,.33M5.72,15.32a4.34,4.34,0,0,1,1.76.41,6,6,0,0,0,2.25.46m6.75-.48a5.75,5.75,0,0,0-4.49.08,4.49,4.49,0,0,1-2.26.4m4.9-3.43a7.3,7.3,0,0,1-2.29-.56l-.1,0,.13.05,0,0m-6.62.49a4.46,4.46,0,0,0,2.13-.41,5.75,5.75,0,0,1,4.49-.08m-6.62.49a6.17,6.17,0,0,1-2.38-.47,5.81,5.81,0,0,0-4.52.06,6.33,6.33,0,0,1-2.26.39m18.07.09a5.73,5.73,0,0,0,2.13-.54,3.83,3.83,0,0,1,.7-.23M6.22,7.69a4,4,0,0,1,1.51.4,6.16,6.16,0,0,0,4.51.05,5.7,5.7,0,0,1,4.49-.07l-.09,0,.12.06,0,0M1.2,8.54A5.44,5.44,0,0,1-1.39,8,4.59,4.59,0,0,0-2.94,7.6m4.14.94a6.64,6.64,0,0,0,2-.4,6.76,6.76,0,0,1,3-.45m10.51.38.73.25M1.33,3.77a7.26,7.26,0,0,0-2.43.47,6.07,6.07,0,0,1-1.84.39m15.37-.45a4.5,4.5,0,0,0-2.19-.43m-8.91,0a4.58,4.58,0,0,1,2.09.42,6.53,6.53,0,0,0,2.8.46m6.21-.47-.1,0,.12.05h0m-2.19-.43a5.13,5.13,0,0,0-2.3.49,4,4,0,0,1-1.72.41m6.21-.47a5.87,5.87,0,0,0,2.7.53M17.46,4a3.22,3.22,0,0,0-.62.21,8.72,8.72,0,0,1-1.71.52M6.6.17A4.11,4.11,0,0,1,7.94.56a6.16,6.16,0,0,0,4.51,0A5.7,5.7,0,0,1,16.94.54l-.1,0L17,.56l0,0m0,0,.52.18M-2.56.1A4.17,4.17,0,0,1-1.18.5a6,6,0,0,0,4.6.11A6.82,6.82,0,0,1,6.6.17M5.72,12.69v-.14m0,2.77v.1m0-.1V12.69m8.91.07v2.53m0-2.53v-.09M1.2,8.54v0m0,0v3.24m8.91-3.16v3m-3.89-4v.08m0-.08v-3m0-.13v.13m8.91,3V4.71m0-.06v.06M1.33,3.77v.12m0-.12V1m8.91.13V3.75m0,0h0M6.6.17v-3m0,3V.25m8.91-3V.13"/></g><g class="cls-9"><path class="cls-4" d="M18.16,16.23v1.86m9.54-1.92v0m0,0v1.92m8.78-2v.07m0,0v1.92m9.41-1.83v1.83m-4.52-2.83a5.68,5.68,0,0,1,2.18.58,6,6,0,0,0,4.52-.11,5.39,5.39,0,0,1,4.51-.05,6,6,0,0,0,4.6.11,6.86,6.86,0,0,1,2.76-.47m-18.57-.06a4.46,4.46,0,0,0-2.42.47,4.51,4.51,0,0,1-2.47.44,6.09,6.09,0,0,1-2-.49,6.77,6.77,0,0,0-4.52,0,5.38,5.38,0,0,1-2.21.49M17.36,16c1.77.51,2.3.06,3.44-.31a5.38,5.38,0,0,1,2.26-.38m0,0a6.85,6.85,0,0,1,2.25.38,6.42,6.42,0,0,0,2.39.44m13.67-3.45a4.88,4.88,0,0,1-2-.39,5.74,5.74,0,0,0-2.55-.59m-4.27.94a4.4,4.4,0,0,0,2.22-.46,4.35,4.35,0,0,1,2-.48M17.36,12a6.9,6.9,0,0,1,1.18-.15m41.4.85a6.17,6.17,0,0,1-2.38-.47,5.81,5.81,0,0,0-4.52.06,6.29,6.29,0,0,1-2.26.39m-32.24-.83a7.11,7.11,0,0,1,2.63.38,6,6,0,0,0,4.6-.05,6.77,6.77,0,0,1,4.52,0,6.22,6.22,0,0,0,2.3.51m18.19,0a5.18,5.18,0,0,1-2.34-.5,5.39,5.39,0,0,0-4.51.05,5.51,5.51,0,0,1-2.56.5m-24-4.4a6.2,6.2,0,0,0,1.18.27m23.34-1a4.65,4.65,0,0,0-2.68.46A5.65,5.65,0,0,1,34.68,8a6.75,6.75,0,0,0-4.51,0,6,6,0,0,1-4.61.06,6.68,6.68,0,0,0-4.51,0,5,5,0,0,1-2.51.5m27.73,0a5.2,5.2,0,0,0,2-.49,5.14,5.14,0,0,1,3-.49m4.14.94A5.46,5.46,0,0,1,52.83,8a4.59,4.59,0,0,0-1.54-.43m-5,1a5.44,5.44,0,0,1-2.47-.39,5.93,5.93,0,0,0-1.92-.56M55.55,3.77a7.21,7.21,0,0,0-2.42.47,6.14,6.14,0,0,1-1.84.39m0,0a5.38,5.38,0,0,1-2.76-.49,5.1,5.1,0,0,0-2.14-.47m0,0A5,5,0,0,0,44,4.19a4.91,4.91,0,0,1-2.13.49M18.66,3.81a5.69,5.69,0,0,0-1.3.17m24.52.7a5.25,5.25,0,0,1-2.39-.38A5.8,5.8,0,0,0,37,3.7m-18.32.11a7,7,0,0,1,2.6.38,6,6,0,0,0,4.6-.05,6,6,0,0,1,2.34-.39M37,3.7a4.4,4.4,0,0,0-2.09.49,4,4,0,0,1-1.8.45m0,0a6.32,6.32,0,0,1-2.72-.5,4.68,4.68,0,0,0-2.17-.39M42.25.13A5.87,5.87,0,0,1,44,.66a5.33,5.33,0,0,0,2.38.39M28.2,1A6.62,6.62,0,0,1,25.77.56a6.68,6.68,0,0,0-4.51,0c-1.23.39-1.75.88-3.9.16M51.66.1a5.12,5.12,0,0,0-3.13.46,5.26,5.26,0,0,1-2.14.49M51.66.1A4.1,4.1,0,0,1,53,.5a6,6,0,0,0,4.6.11A6.82,6.82,0,0,1,60.82.17M42.25.13a4.55,4.55,0,0,0-2.84.43A5.65,5.65,0,0,1,34.89.5a6.77,6.77,0,0,0-4.52,0A5.23,5.23,0,0,1,28.2,1M23.06,15.35V12.67m0,2.68v.07m9.53-2.74v2.61m0-2.61v0m8.78,0v.06m0,2.54V12.72m0,2.54v.16m9.41-2.94v2.69M18.54,11.84V8.59m0,0v0m0,3.32v-.07m9.53-3.3v3.12m8.79.08v0m0,0V8.66m9.41-.08v0m0,0v3.08m-22.71-7v3M33.09,4.4v.24m0,0v3m8.79,0V4.68m0-.16v.16m0,3v0m9.41-.05v.05m0-3.25v.23m0,3v-3M18.66,3.81V1.14m0,2.67v.08M28.2,1V3.75m0,0h0M28.2,1V.89M37,1V3.76m9.41-2.71V.89m0,.16V3.76M23.93-3V.13m9.54-3.08V.13m8.78,0h0m0,0v-3m9.41,3v0m0,0V-3"/></g></svg>