<svg id="Capa_1" data-name="Capa 1" xmlns="http://www.w3.org/2000/svg" viewBox="0 0 54.12 39.17"><defs><style>.cls-1{fill:none;stroke:#000;stroke-width:0.3px;}</style></defs><title>631 Caliza, rellenos irregulares -madrigueras- de dolomita sacaroidal</title><path class="cls-1" d="M31.39,32.41H29.14l-.79,1.24h3m0,7H30.8L30,41.91h1.38m-12.27-9.5H14.71l-.79,1.24h4.41Zm-13.93,0H.79L0,33.65H4.4ZM23.5,36.47l-.79,1.24h4.4l.79-1.24ZM9.16,37.71h4.4l.79-1.24H10Zm-2,2.95H2.79L2,41.9H6.41Zm13.82,0h-4.4l-.79,1.24h4.4Zm5,2.7V39.29M11,43.35V39.29M31.19,35v4.17m0-4.17v-.06M18.31,35v-.06m0,.06v4.17m-13.67,0V35m0-.06V35m19.14-3.76V35M9.35,31.22V35m22,4.19H-22.94M18.31,35h-9m9,0h5.47m7.41,0H23.78m-28,0H4.64m26.55,0h.2m-22,0H4.64"/><path class="cls-1" d="M31.18,33.65h1.37l.79-1.24H31.18m14.17,1.24.79-1.24h-4.4L41,33.65Zm14-1.24H54.91l-.79,1.24h4.4ZM48.6,37.71H53l.8-1.24H49.39ZM35.46,36.47l-.79,1.24h4.41l.79-1.24Zm-4.28,5.44h3L35,40.67H31.18m16.48,0h-4.4l-.8,1.24h4.41Zm13.66,0h-4.4l-.79,1.24h4.4Zm-9.77,2.69V39.29m-13.3,4.06V39.29m5.58-4.37V35m0,0v4.17M49.93,35V31.22m-12.8,0V35m48.38,4.19H31.18M49.93,35h-6.1M31.18,35h6m6.7,0h-6.7m12.8,0h8.83"/><path class="cls-1" d="M31.39,24.45H27.84l-.79,1.25h4.34m0-9.14h-.87l-.79,1.24h1.66m0-8.51H28.47l-.8,1.24h3.72m0-9.12h-1l-.79,1.24h1.78M24.12,29.46l.79-1.24h-4.4l-.79,1.24Zm-13.3,0,.79-1.24H7.21l-.79,1.24ZM18,25.7l.79-1.25H14.36l-.79,1.25Zm-19.09,0H3.3l.79-1.25H-.32Zm9.58-5.51-.8,1.24h4.41l.79-1.24Zm18.58,0H22.64l-.79,1.24h4.41Zm-6.28-3.63h-4.4l-.79,1.24H20Zm-14.17,0H2.19L1.4,17.8H5.81Zm2.83-2.27h4.41l.79-1.24H10.22Zm14,0h4.4l.79-1.24h-4.4Zm-9.54-3.76h4.41l.79-1.24H14.71ZM0,10.53H4.4l.79-1.24H.79Zm7.9-4h4.4l.8-1.24H8.69Zm13.55,0h4.4l.8-1.24H22.24ZM15.81,2.65h4.4L21,1.41H16.6Zm-14.06,0H6.16L7,1.41H2.54ZM13.31-1.1l.79-1.24H9.69L8.9-1.1ZM23-2.34,22.2-1.1h4.41l.79-1.24Zm.37,29.46V22.76m-14.61,0v4.36m20.24,0v0m0,3.41v.07m0-.07V27.15m-13.43,0v0m0,3.38v.07m0-.07V27.15m-13.68,0v0m0,0V30.6m0-3.45H-12.61m41.6,0h2.4m-2.4,0H15.56m0,0H1.88M31,22.72v0m0,0V19M3.57,22.72v0m0,0V19m13.92,3.73V19m0,3.73v0m8.38-3.82V15.36M10.94,18.94V15.36M5.21,12.13V15.3m14.21-3.17V15.3m4.21-7.38v4.15M9.33,7.92v4.15M30.52,7.86V4.11m-26.65,0V7.86M17.25,4.11V7.86M25.9,0V4.05m0-4V0M11,0V0m0,0V4.05M31.24-3.44V0M18.44-3.44V0M4.64-3.44V0M23.78,31.37v-.84m0,0h0m-14.43.84v-.84m0,0h0m-7.47,0H9.35m-7.47,0H-4.2m33.19,0h2.4m-2.4,0H23.78m-8.22,0h8.22m-8.22,0H9.35M-22.94,15.31H31.39m0-3.23H-22.94m0-4.21H31.39M-22.94,4.06H31.39M25.9,0h5.49M25.9,0H-2.7M17.49,22.72H31m-13.5,0H3.57m0,0H-11m42,0h.4m-5.52-3.78h5.52m-34.12,0H10.94m0,0H25.87"/><path class="cls-1" d="M46.12,29.46h4.4l.79-1.24h-4.4Zm-8.23-1.24H33.48l-.79,1.24H37.1ZM53,25.7h4.4l.79-1.25h-4.4Zm-9.15,0,.79-1.25h-4.4l-.79,1.25Zm-12.69,0h.07L32,24.45h-.86m2.64-3h4.4L39,20.19h-4.4Zm13.93,0h4.4l.79-1.24h-4.4Zm13-4.87h-4.4l-.79,1.24h4.4Zm-13.17,0H43.14l-.79,1.24h4.41ZM31.18,17.8h2.75l.79-1.24H31.18m4-2.27h4.4l.79-1.24H36Zm13.8,0h4.41l.79-1.24H49.79ZM31.18,10.53h.7l.79-1.24H31.18m22.94,1.24h4.4l.8-1.24H54.91Zm-13.67,0h4.4l.79-1.24h-4.4Zm-6.91-4H38l.79-1.24H34.33Zm14.06,0H52l.79-1.24h-4.4Zm8.28-3.89h4.4l.79-1.24h-4.4Zm-24.7,0h2.63l.79-1.24H31.18M41.83,2.65h4.4L47,1.41h-4.4ZM39.22-1.08,40-2.32H35.6l-.79,1.24Zm14.16,0,.79-1.24h-4.4L49-1.1ZM48.82,22.76v4.36m-13-4.36v4.36m20.24,0v0m0,0V30.6m-14.49,0v-.07m0-3.41v0m14.49,0H41.52v3.38M31.18,27.15H41.52m28.17,0H56M43.09,19v3.73m0,0v0m8.3-3.82V15.36m-13.3,3.58V15.36m-6.4-3.23V15.3m12.47-3.17V15.3m5.62-7.38v4.15M36.73,7.92v4.15m6.21-8V7.86M51.42,0V4.05M37.87,0V0m0,0V4.05M43.7-3.44V0m6.23,31.39v-.84m0,0h0m-12.8.84v-.84m0,0h0m0,0h4.39m14.49,0h7.47m-7.47,0H49.93m0,0H41.52m-10.34,0h6m-6-15.22H85.51m0-3.23H31.18m0-4.21H85.51M31.18,4.06H85.51M51.42,0H37.87m0,0H31.18M65.1,0H51.42m6.27,22.72H31.18m6.91-3.78h13.3m-13.3,0H31.18m20.21,0H65.07"/></svg>