<svg id="Capa_1" data-name="Capa 1" xmlns="http://www.w3.org/2000/svg" viewBox="0 0 82.24 42.5"><defs><style>.cls-1,.cls-2,.cls-3{fill:none;}.cls-2,.cls-3{stroke:#000;}.cls-2{stroke-width:0.3px;}.cls-3{stroke-width:0.22px;}</style></defs><title>633 Caliza chert con estratificación cruzada</title><rect class="cls-1" x="0.02" y="-20.3" width="82.2" height="85.04"/><path class="cls-2" d="M123.24,54.7l-.5-3m0,0h0m-12,8.29v0m0,0-.12,1.66m-24.5-9.27v0m-1.3,2.23,1.3-2.23M96.8,58.77l.32-1.38m-7-2.75,1.56-2.74m0,0v0m11.84,7,.36-2.06v-.07M113.41,58V55.2M97.68,51.33h0m0,0-1.31,3.25m12.2-3.21-.49,3.21m.49-3.21v0m-5.51-1.19,1.38-3.76m10,5.51.06-3.06m-5.76-1.19.5-2.18m0,0v0m-22,13.1L87.72,61m-.43-2.48v0m5.52,1.39,1.06,4.25M92.8,59.91h0M100,62.65v-.06m0,.06L101.13,67m-12.85-2,.13,3.17m-.13-3.17v0m6.21,3v0m0,0,.31,2.66M108,65.53v0l.8,2.58m-8.64,2.07.62,2.82M85.09,70.54v.09l.06,2.92m33-6.84v0m0,0v2.08m-3.82,2.75.56-2.88m6.58-.18.62,3.32m12.6,1.06L134,71m-13.53,4.07.06-3.13M108,74.24l1.19-3.56m0,0h0M110.77,78h0m0,0,.44-3.06m12.66,0v0m0,0,.31,3.85m10.46-1.5-.94-4.07m-6.07,5.41.25,2.79m-.25-2.79v0M114.78,81l.19-2.44m-17.35-.83.88-2.62m-.88,2.62h0M90,75l-1.07,2.69m11.59.88-.5,2.25m12-.11h0m0,0-.19,2.3m12.84-1.44.13,2.38m12.53-3.43.37,2.12m-.37-2.12h0M86.43,83.73v.09m0,0,.14,2.2M83.5,80.23l-.08,3.25m25.48.67-.26-1.5m-7.76-.36v-.14m0,.14v2m-10.19-3v2.78m0-2.78v0m6.76-.67.09,1.42M87,79.09l-.17,1.55M87,79.09v0m5.09-.25v-.09m0,.09-.16,1.25m-5.51,3.76c-1.93-.16-3.83-.34-5.68-.56m33.65.15c-3.56.91-10.58,1.2-18.37,1l-5.34-.24c-1.42-.08-2.85-.19-4.26-.3m28-.41.13,0m-13.65-1.09a97.1,97.1,0,0,1-10.19-1m0,0c-3.39-.47-6.86-1.09-9.94-1.77m20.13,2.72a21.78,21.78,0,0,0,4.63-.22m0,0h0m-18.5-3c-2.3-.57-4.41-1.23-6.26-1.89M87,79.09a52.74,52.74,0,0,0,11.74,1.57m-10-37.4c2.57-.45,4.3-.8,6.71-1.42m-6.71,1.42c-2.68.47-5.39.82-8,1m56.59,36.21A86.39,86.39,0,0,1,112,80.7a99.18,99.18,0,0,1-14.41-3m0,0c-4.75-1.38-8.24-2.86-9.77-3.93m49.49,6.71a60,60,0,0,0,10.9-2.88s5.37-2.57,9.44-4.75m-30.05,5.77A70,70,0,0,1,110.77,78m16.86.66A36.18,36.18,0,0,0,140,75.49s4.54-1.91,8.9-3.9M110.77,78a63.1,63.1,0,0,1-15.5-4.19m43.51-2.07A69.06,69.06,0,0,1,123.87,75m0,0c-9,.93-16.93-.06-20.05-2.57m26.6-2a39.75,39.75,0,0,1-21.21.26m-.31-.07h0m0,0,.3.07m13.06-2.41h.06m-.06,0c-1.55.38-5.73,1.18-8.6,0m0,0-.08,0m40.49-15.43c-4.45,3.31-6.4,4-6.4,4a92.59,92.59,0,0,1-18.8,3.33M85.53,52l.55.38M110.71,60a103.07,103.07,0,0,0,18.17.14M85.5,52l0,0m25.18,8c-9.39-1-18.21-3.34-24.63-7.58M90.83,51a7.77,7.77,0,0,0,.83.91m29.7,6.27a68.9,68.9,0,0,0,18-2.54,60.2,60.2,0,0,0,6.15-2.9M90.83,51l-.07-.11m.9,1c2.36,2.24,6.8,3.89,12.21,4.94a85.09,85.09,0,0,0,17.49,1.33m14-6.42C119,57.82,104.2,54.9,97.68,51.33m37.64.42.08,0M95.27,49.66a11.93,11.93,0,0,0,2.41,1.67m10.89,0a30.18,30.18,0,0,1-9.94-3m9.94,3a56.53,56.53,0,0,0,14.17.33M128,50.6a25.7,25.7,0,0,1-5.23,1.1M98.63,48.39l-.07,0m21.14-.1c-7.08,1.49-9.73-.34-16-2.21l-.15,0m10.88.27a49.88,49.88,0,0,1-5.15-.82m0,0a16.48,16.48,0,0,1-2.91-.86m8.06,1.68h.11m49.85,27.11C150.85,73,129,66.57,123.18,62.81m13,8.52A42.75,42.75,0,0,1,119,63.84m-1.74-1.34c.57.45,1.15.9,1.74,1.34m7.3-13.75c-3.26-1.54-8.52-5.41-12-8.46m12,8.46.29.13m-2.06-5.45a31.75,31.75,0,0,0,13.34,7.15M124.5,44.77c-1.34-1.16-2.45-2.4-3.34-3.29m4.34.05a46,46,0,0,0,7.77,4.75m29.53,6.26c-14.33-1.11-21.9-2.73-29.53-6.26m3.38,15.33,0,0M164.38,68c-8.93-.89-21.39-3-27.18-6.05m-.55-.29c.18.1.36.2.55.29m27.18,8.64c-10.3-.5-23.49-4.25-23.49-4.25-6-1.36-10.83-2.72-13.58-3.57m-40-4.17a34.27,34.27,0,0,0,4.22-1.09m-4.22,1.09a20.59,20.59,0,0,1-6.54.23M132.2,41a32.62,32.62,0,0,0,7.67,4s14.31,2.56,23,2l1.42-.09M105.22,60.79l.1,0m-17,4.19a47.25,47.25,0,0,1-7.53,0m7.53,0A53.55,53.55,0,0,0,100,62.65m5.21-1.86c-1.76.71-3.49,1.33-5.21,1.86M92.8,59.91a32.76,32.76,0,0,1-12,1.53m12-1.53a28.86,28.86,0,0,0,3.1-1.22m0,0h0m-8.8-2.91a45.63,45.63,0,0,1-4.83.51m4.83-.51h.09M108,65.58A68.65,68.65,0,0,1,94.49,68m0,0a91.31,91.31,0,0,1-12.16.11M108,65.58a45.2,45.2,0,0,0,5.19-1.83m2.07,1.5c-7.34,4.82-18.59,6-30.2,5.38m0,0c-1.44-.07-2.9-.17-4.34-.29m22.81-28.41A82.12,82.12,0,0,1,80.75,47m4.78,5a36.7,36.7,0,0,1-4.71.35m10-1.39a60,60,0,0,0,7.8-2.6M103.69,46c-1.64.85-3.33,1.64-5.06,2.35M103.69,46c1.6-.83,3.15-1.73,4.62-2.67M90.83,51a46.74,46.74,0,0,1-5.3,1m22.78-8.66c.88-.57,1.73-1.15,2.54-1.74m-1.94,29c-11.43,4.82-20,2.87-28.16,2.81m36.41-7.23,0,0q-1.77,1.14-3.45,2.07m-4.76,2.32a49.21,49.21,0,0,0,4.76-2.32m.75-22a76.54,76.54,0,0,0,11.85,3.82m-11.85-3.82c-2-.86-4.09-1.82-6.11-2.9m0,0-.17-.1m18.13,6.82a90.26,90.26,0,0,0,9,1.66c13,1.74,21.17.81,27.29.79m-51.27,9.14.08.12m6.75,4.91c-.36-.16-.71-.32-1-.49m0,0a15.08,15.08,0,0,1-5.7-4.42m6.75,4.91a38.15,38.15,0,0,0,4.1,1.56c6.52,2.13,14.78,3.39,22.51,4.13l2.1-.06M136.65,61.61c10.77-1.63,20.66-4.68,26.43-9.07m-26.43,9.07a97.14,97.14,0,0,1-13.28,1.2m-18.15-2c-3.12-.59-6.29-1.29-9.32-2.1m9.32,2.1c2.11.39,4.2.73,6.2,1a91.75,91.75,0,0,0,12,1M95.9,58.69a73.21,73.21,0,0,1-8.8-2.91m0,0a28.32,28.32,0,0,1-6.28-3.4m24.69,29.69A116.25,116.25,0,0,1,92.1,78.81m0,0c-4.68-1.48-8.75-3.25-11.35-5.26m83.66,1-1.61-1.07C154.65,79.07,141.44,82,141.44,82c-2.75.52-5.47.94-8,1.26a84.51,84.51,0,0,1-10.06.76L122,84c-2.13-.06-4.72-.26-7.57-.6m-8.89-1.34c3.08.56,6.11,1,8.89,1.34M103.32,42.24l1.69,3m-11.9-.13,1.31,4.76M84.34,52.13l-.63-5.38m16.41-3.57L99.74,42m-11,1.24v0l.56,2.49m4.34-4.12.11.61m-9.21,1.63-.3-2.66"/><path class="cls-2" d="M41,54.7l-.5-3m0,0h0M28.51,60v0m0,0-.13,1.66M3.89,52.38l0,0m-1.3,2.23,1.3-2.23M14.6,58.77l.31-1.38m-7-2.75L9.45,51.9m0,0v0m11.84,7,.37-2.06v-.07M31.2,58V55.2M15.47,51.33h0m0,0-1.31,3.25m12.21-3.21-.49,3.21m.49-3.21v0m-5.52-1.19,1.38-3.76m10,5.51.06-3.06m-5.77-1.19.5-2.18m0,0v0m-22,13.1L5.51,61m-.43-2.48v0m5.51,1.39,1.06,4.25m-1.06-4.25h0m7.22,2.75,0-.06m0,.06L18.92,67m-12.84-2L6.2,68.1m-.12-3.17v0m6.2,3v0m0,0,.31,2.66m13.22-5.08,0,0,.8,2.58M18,70.23l.63,2.82M2.88,70.54v.09L3,73.55m33-6.84v0m0,0v2.08m-3.82,2.75.56-2.88m6.58-.18.63,3.32M52.5,72.86,51.81,71M38.28,75.11,38.34,72M25.81,74.24,27,70.68m0,0h0M28.57,78h0m0,0L29,74.93m12.65,0v0m0,0L42,78.81m10.46-1.5-.94-4.07m-6.07,5.41.24,2.79m-.24-2.79v0M32.58,81l.19-2.44m-17.35-.83.87-2.62m-.87,2.62h0M7.77,75,6.71,77.68m11.59.88-.51,2.25m12-.11h0m0,0L29.63,83m12.85-1.44.12,2.38m12.53-3.43.38,2.12m-.38-2.12h0M4.22,83.73v.09m0,0L4.36,86M1.3,80.23l-.09,3.25m25.48.67-.25-1.5m-7.77-.36v-.14m0,.14v2m-10.19-3v2.78m0-2.78v0m6.77-.67.08,1.42m-10.53-3-.16,1.55m.16-1.55v0m5.08-.25v-.09m0,.09-.16,1.25m-5.5,3.76c-1.93-.16-3.84-.34-5.69-.56m33.66.15c-3.57.91-10.59,1.2-18.37,1l-5.35-.24c-1.42-.08-2.84-.19-4.25-.3m28-.41.13,0M18.67,82.29a97.1,97.1,0,0,1-10.19-1m0,0c-3.38-.47-6.85-1.09-9.94-1.77m20.13,2.72a21.74,21.74,0,0,0,4.63-.22m0,0h0m-18.51-3C2.51,78.52.39,77.86-1.46,77.2M4.8,79.09a52.82,52.82,0,0,0,11.74,1.57m-10-37.4c2.58-.45,4.3-.8,6.72-1.42M6.58,43.26c-2.67.47-5.39.82-8,1M55.13,80.51a86.39,86.39,0,0,1-25.31.19,99,99,0,0,1-14.4-3m0,0c-4.76-1.38-8.24-2.86-9.78-3.93m49.49,6.71A60.08,60.08,0,0,0,66,77.63s5.36-2.57,9.44-4.75M45.43,78.65A70,70,0,0,1,28.57,78m16.86.66a36.24,36.24,0,0,0,12.34-3.16s4.54-1.91,8.9-3.9M28.57,78A63.07,63.07,0,0,1,13.06,73.8m43.51-2.07A69,69,0,0,1,41.67,75m0,0c-9,.93-16.93-.06-20-2.57m26.59-2A39.75,39.75,0,0,1,27,70.68m-.31-.07h0m0,0,.29.07m13.06-2.41h.07m-.07,0c-1.55.38-5.72,1.18-8.59,0m0,0-.08,0M71.88,52.83c-4.45,3.31-6.4,4-6.4,4a92.59,92.59,0,0,1-18.8,3.33M3.33,52l.54.38M28.51,60a103.06,103.06,0,0,0,18.17.14M3.29,52l0,0m25.18,8c-9.4-1-18.22-3.34-24.64-7.58M8.63,51a6.88,6.88,0,0,0,.82.91m29.71,6.27A68.76,68.76,0,0,0,57.1,55.63a61,61,0,0,0,6.16-2.9M8.63,51l-.08-.11m.9,1c2.36,2.24,6.8,3.89,12.22,4.94a85,85,0,0,0,17.49,1.33m14-6.42C36.78,57.82,22,54.9,15.47,51.33m37.65.42.07,0M13.06,49.66a11.93,11.93,0,0,0,2.41,1.67m10.9,0a30.11,30.11,0,0,1-9.94-3m9.94,3a56.51,56.51,0,0,0,14.17.33m5.23-1.1a25.7,25.7,0,0,1-5.23,1.1M16.43,48.39l-.08,0m21.15-.1c-7.09,1.49-9.73-.34-16-2.21l-.15,0m10.88.27a50.31,50.31,0,0,1-5.15-.82m0,0a17,17,0,0,1-2.91-.86m8.06,1.68h.12M82.17,73.39C68.64,73,46.8,66.57,41,62.81m13,8.52a42.62,42.62,0,0,1-17.24-7.49M35,62.5c.57.45,1.15.9,1.75,1.34m7.3-13.75c-3.27-1.54-8.53-5.41-12-8.46m12,8.46.29.13M42.3,44.77a31.7,31.7,0,0,0,13.33,7.15M42.3,44.77C41,43.61,39.85,42.37,39,41.48m4.33.05a46.1,46.1,0,0,0,7.78,4.75m29.52,6.26c-14.32-1.11-21.89-2.73-29.52-6.26m3.37,15.33,0,0M82.17,68c-8.92-.89-21.38-3-27.18-6.05m-.55-.29c.18.1.36.2.55.29m27.18,8.64c-10.29-.5-23.49-4.25-23.49-4.25-6-1.36-10.82-2.72-13.57-3.57m-40-4.17a34.39,34.39,0,0,0,4.23-1.09M5.08,58.55a20.59,20.59,0,0,1-6.54.23M50,41a32.9,32.9,0,0,0,7.68,4s14.3,2.56,23,2l1.42-.09M23,60.79l.1,0m-17,4.19a47.37,47.37,0,0,1-7.54,0m7.54,0a53.78,53.78,0,0,0,11.73-2.28M23,60.79q-2.64,1.07-5.21,1.86m-7.22-2.74a32.71,32.71,0,0,1-12,1.53m12.05-1.53a29,29,0,0,0,3.11-1.22m0,0h0M4.89,55.78a45.47,45.47,0,0,1-4.82.51m4.82-.51H5m20.85,9.81A68.62,68.62,0,0,1,12.28,68m0,0a91.14,91.14,0,0,1-12.15.11m25.7-2.48A45,45,0,0,0,31,63.75m2.07,1.5c-7.34,4.82-18.59,6-30.19,5.38m0,0c-1.45-.07-2.9-.17-4.35-.29M21.35,41.93A82,82,0,0,1-1.46,47m4.79,5a36.7,36.7,0,0,1-4.71.35M8.63,51a60.45,60.45,0,0,0,7.8-2.6M21.48,46c-1.63.85-3.33,1.64-5.05,2.35M21.48,46c1.61-.83,3.16-1.73,4.63-2.67M8.63,51a47.62,47.62,0,0,1-5.3,1m22.78-8.66c.87-.57,1.72-1.15,2.53-1.74m-1.93,29c-11.44,4.82-20,2.87-28.17,2.81M35,66.19l0,0q-1.77,1.14-3.45,2.07m-4.76,2.32a51.58,51.58,0,0,0,4.76-2.32m.74-22a76.65,76.65,0,0,0,11.86,3.82M32.21,46.27c-2.05-.86-4.08-1.82-6.1-2.9m0,0-.17-.1m18.13,6.82a90.26,90.26,0,0,0,9,1.66c13,1.74,21.16.81,27.28.79M29.13,61.68l.09.12M36,66.71l-1-.49m0,0a15.08,15.08,0,0,1-5.7-4.42M36,66.71a39,39,0,0,0,4.1,1.56c6.52,2.13,14.78,3.39,22.52,4.13l2.1-.06M54.44,61.61C65.22,60,75.11,56.93,80.88,52.54M54.44,61.61a97,97,0,0,1-13.28,1.2M23,60.79c-3.13-.59-6.3-1.29-9.32-2.1M23,60.79c2.1.39,4.19.73,6.2,1a91.76,91.76,0,0,0,11.94,1M13.7,58.69a74,74,0,0,1-8.81-2.91m0,0a28.23,28.23,0,0,1-6.27-3.4M23.3,82.07A116.76,116.76,0,0,1,9.89,78.81m0,0c-4.68-1.48-8.74-3.25-11.35-5.26m83.66,1-1.61-1.07C72.45,79.07,59.24,82,59.24,82c-2.76.52-5.47.94-8,1.26A84.51,84.51,0,0,1,41.16,84l-1.39,0c-2.14-.06-4.73-.26-7.57-.6m-8.9-1.34c3.08.56,6.11,1,8.9,1.34M21.11,42.24l1.7,3M10.9,45.12l1.32,4.76M2.13,52.13l-.62-5.38m16.41-3.57L17.53,42m-11,1.24v0l.56,2.49m4.34-4.12.11.61M2.38,43.87l-.29-2.66"/><path class="cls-2" d="M-41.17,54.7l-.5-3m0,0h0M-53.7,60v0m0,0-.12,1.66m-24.5-9.27v0m-1.3,2.23,1.3-2.23m10.72,6.36.32-1.38m-7-2.75,1.56-2.74m0,0v0m11.84,7,.36-2.06v-.07M-51,58V55.2m-15.73-3.87h0m0,0L-68,54.58m12.2-3.21-.49,3.21m.49-3.21v0m-5.51-1.19L-60,46.37m10,5.51.06-3.06m-5.76-1.19.5-2.18m0,0v0m-22,13.1.43,2.48m-.43-2.48v0m5.52,1.39,1.06,4.25m-1.06-4.25h0m7.22,2.75v-.06m0,.06L-63.28,67m-12.85-2L-76,68.1m-.13-3.17v0m6.21,3v0m0,0,.31,2.66m13.22-5.08v0l.8,2.58m-8.64,2.07.62,2.82m-15.72-2.51v.09l.06,2.92m33-6.84v0m0,0v2.08m-3.82,2.75.56-2.88m6.58-.18.62,3.32m12.6,1.06L-30.39,71m-13.53,4.07.06-3.13m-12.53,2.26,1.19-3.56m0,0h0M-53.64,78h0m0,0,.44-3.06m12.66,0v0m0,0,.31,3.85m10.46-1.5-.94-4.07m-6.07,5.41.25,2.79m-.25-2.79v0M-49.63,81l.19-2.44m-17.35-.83.88-2.62m-.88,2.62h0M-74.43,75l-1.07,2.69m11.59.88-.5,2.25m12-.11h0m0,0-.19,2.3m12.84-1.44.13,2.38m12.53-3.43.37,2.12m-.37-2.12h0M-78,83.73v.09m0,0,.14,2.2m-3.07-5.79L-81,83.48m25.48.67-.26-1.5m-7.76-.36v-.14m0,.14v2m-10.19-3v2.78m0-2.78v0m6.76-.67.09,1.42m-10.53-3-.17,1.55m.17-1.55v0m5.09-.25v-.09m0,.09-.16,1.25M-78,83.82c-1.93-.16-3.83-.34-5.68-.56m33.65.15c-3.56.91-10.58,1.2-18.37,1l-5.34-.24c-1.42-.08-2.85-.19-4.26-.3m28-.41.13,0m-13.65-1.09a97.1,97.1,0,0,1-10.19-1m0,0c-3.39-.47-6.86-1.09-9.94-1.77m20.13,2.72a21.78,21.78,0,0,0,4.63-.22m0,0h0m-18.5-3c-2.3-.57-4.41-1.23-6.26-1.89m6.26,1.89a52.74,52.74,0,0,0,11.74,1.57m-10-37.4c2.57-.45,4.3-.8,6.71-1.42m-6.71,1.42c-2.68.47-5.39.82-8,1m56.59,36.21a86.39,86.39,0,0,1-25.31.19,99.18,99.18,0,0,1-14.41-3m0,0c-4.75-1.38-8.24-2.86-9.77-3.93m49.49,6.71a60,60,0,0,0,10.9-2.88s5.37-2.57,9.44-4.75m-30,5.77A70,70,0,0,1-53.64,78m16.86.66a36.18,36.18,0,0,0,12.34-3.16s4.55-1.91,8.9-3.9M-53.64,78a63.1,63.1,0,0,1-15.5-4.19m43.51-2.07A69.06,69.06,0,0,1-40.54,75m0,0c-9,.93-16.93-.06-20.05-2.57m26.6-2a39.75,39.75,0,0,1-21.21.26m-.31-.07h0m0,0,.3.07m13.06-2.41h.06m-.06,0c-1.55.38-5.73,1.18-8.6,0m0,0-.08,0m40.49-15.43c-4.45,3.31-6.4,4-6.4,4a92.59,92.59,0,0,1-18.8,3.33M-78.88,52l.55.38M-53.7,60a103.07,103.07,0,0,0,18.17.14M-78.91,52l0,0m25.18,8c-9.39-1-18.21-3.34-24.63-7.58M-73.58,51a7.77,7.77,0,0,0,.83.91M-43,58.17A68.9,68.9,0,0,0-25.1,55.63a60.2,60.2,0,0,0,6.15-2.9M-73.58,51l-.07-.11m.9,1c2.36,2.24,6.8,3.89,12.21,4.94A85.09,85.09,0,0,0-43,58.17m14-6.42c-16.33,6.07-31.12,3.15-37.64-.42m37.64.42.08,0m-40.13-2.07a11.93,11.93,0,0,0,2.41,1.67m10.89,0a30.18,30.18,0,0,1-9.94-3m9.94,3a56.53,56.53,0,0,0,14.17.33m5.23-1.1a25.7,25.7,0,0,1-5.23,1.1m-24.11-3.31-.07,0m21.14-.1c-7.08,1.49-9.73-.34-16-2.21l-.15,0m10.88.27a49.88,49.88,0,0,1-5.15-.82m0,0A16.48,16.48,0,0,1-58,44.59M-50,46.27h.11M0,73.39C-13.56,73-35.4,66.57-41.23,62.81m13,8.52a42.75,42.75,0,0,1-17.24-7.49m-1.74-1.34c.57.45,1.15.9,1.74,1.34m7.3-13.75c-3.26-1.54-8.52-5.41-12-8.46m12,8.46.29.13m-2.06-5.45a31.75,31.75,0,0,0,13.34,7.15m-13.34-7.15c-1.34-1.16-2.45-2.4-3.34-3.29m4.34.05a46,46,0,0,0,7.77,4.75m29.53,6.26c-14.33-1.11-21.9-2.73-29.53-6.26m3.38,15.33,0,0M0,68c-8.93-.89-21.39-3-27.18-6.05m-.55-.29c.18.1.36.2.55.29M0,70.54c-10.3-.5-23.49-4.25-23.49-4.25-6-1.36-10.83-2.72-13.58-3.57m-40-4.17a34.27,34.27,0,0,0,4.22-1.09m-4.22,1.09a20.59,20.59,0,0,1-6.54.23M-32.21,41a32.62,32.62,0,0,0,7.67,4s14.31,2.56,23,2,1.43-.09,1.43-.09m-59.1,13.93.1,0m-17,4.19a47.25,47.25,0,0,1-7.53,0m7.53,0A53.55,53.55,0,0,0-64.4,62.65m5.21-1.86c-1.76.71-3.49,1.33-5.21,1.86m-7.21-2.74a32.76,32.76,0,0,1-12,1.53m12-1.53a28.86,28.86,0,0,0,3.1-1.22m0,0h0m-8.8-2.91a45.63,45.63,0,0,1-4.83.51m4.83-.51h.09m20.84,9.81A68.65,68.65,0,0,1-69.92,68m0,0a91.31,91.31,0,0,1-12.16.11m25.7-2.48a45.2,45.2,0,0,0,5.19-1.83m2.07,1.5c-7.34,4.82-18.59,6-30.2,5.38m0,0c-1.44-.07-2.9-.17-4.34-.29m22.81-28.41A82.12,82.12,0,0,1-83.66,47m4.78,5a36.7,36.7,0,0,1-4.71.35m10-1.39a60,60,0,0,0,7.8-2.6M-60.72,46c-1.64.85-3.33,1.64-5.06,2.35M-60.72,46c1.6-.83,3.15-1.73,4.62-2.67M-73.58,51a46.74,46.74,0,0,1-5.3,1m22.78-8.66c.88-.57,1.73-1.15,2.54-1.74m-1.94,29c-11.43,4.82-20,2.87-28.16,2.81m36.41-7.23,0,0q-1.77,1.14-3.45,2.07m-4.76,2.32a49.21,49.21,0,0,0,4.76-2.32m.75-22a76.54,76.54,0,0,0,11.85,3.82M-50,46.27c-2-.86-4.09-1.82-6.11-2.9m0,0-.17-.1m18.13,6.82a90.26,90.26,0,0,0,9.05,1.66c13,1.74,21.17.81,27.29.79m-51.27,9.14.08.12m6.75,4.91c-.36-.16-.71-.32-1-.49m0,0A15.08,15.08,0,0,1-53,61.8m6.75,4.91a38.15,38.15,0,0,0,4.1,1.56c6.52,2.13,14.78,3.39,22.51,4.13l2.1-.06M-27.76,61.61C-17,60-7.1,56.93-1.33,52.54m-26.43,9.07A97.14,97.14,0,0,1-41,62.81m-18.15-2c-3.12-.59-6.29-1.29-9.32-2.1m9.32,2.1c2.11.39,4.2.73,6.2,1a91.75,91.75,0,0,0,12,1m-27.47-4.12a73.21,73.21,0,0,1-8.8-2.91m0,0a28.32,28.32,0,0,1-6.28-3.4M-58.9,82.07a116.25,116.25,0,0,1-13.41-3.26m0,0c-4.68-1.48-8.75-3.25-11.35-5.26M0,74.52l-1.61-1.07C-9.76,79.07-23,82-23,82c-2.75.52-5.47.94-8,1.26A84.51,84.51,0,0,1-41,84l-1.4,0c-2.13-.06-4.72-.26-7.57-.6m-8.89-1.34c3.08.56,6.11,1,8.89,1.34M-61.09,42.24l1.69,3m-11.9-.13L-70,49.88m-10.08,2.25-.63-5.38m16.41-3.57L-64.67,42m-11,1.24v0l.56,2.49m4.34-4.12.11.61m-9.21,1.63-.3-2.66"/><path class="cls-2" d="M123.24,12.18l-.5-3m0,0h0m-12,8.29v0m0,0-.12,1.66M86.09,9.87v0m-1.3,2.23,1.3-2.23M96.8,16.25l.32-1.37m-7-2.76,1.56-2.74m0,0h0m11.84,7,.36-2.06v-.07m9.53,1.19V12.68M97.68,8.81h0m0,0-1.31,3.25m12.2-3.21-.49,3.21m.49-3.21v0m-5.51-1.19,1.38-3.75m10,5.51.06-3.07m-5.76-1.19.5-2.17m0,0v0M87.29,16l.43,2.48M87.29,16v0m5.52,1.39,1.06,4.25M92.8,17.39h0M100,20.13v-.06m0,.06,1.12,4.33M88.28,22.41l.13,3.17m-.13-3.17v0m6.21,3v0m0,0,.31,2.66M108,23v0l.8,2.58m-8.64,2.07.62,2.82M85.09,28v.1L85.15,31m33-6.84v-.05m0,.05v2.08M114.35,29l.56-2.88m6.58-.19.62,3.32m12.6,1.06L134,28.52m-13.53,4.07.06-3.13M108,31.72l1.19-3.56m0,0h0m1.56,7.31h0m0,0,.44-3.06m12.66,0v0m0,0,.31,3.85m10.46-1.5-.94-4.07m-6.07,5.41.25,2.79m-.25-2.79v0m-12.85,2.38L115,36m-17.35-.83.88-2.62m-.88,2.62h0M90,32.47l-1.07,2.69M100.5,36l-.5,2.25m12-.1v0m0,0-.19,2.29M124.68,39l.13,2.38M137.34,38l.37,2.12M137.34,38h0M86.43,41.22v.08m0,0,.14,2.2M83.5,37.71,83.42,41m25.48.67-.26-1.5m-7.76-.36v-.14m0,.14v2m-10.19-3V41.6m0-2.78v0m6.76-.66.09,1.42M87,36.57l-.17,1.56M87,36.57v0m5.09-.25v-.08m0,.08-.16,1.25M86.43,41.3c-1.93-.16-3.83-.34-5.68-.56m33.65.15c-3.56.91-10.58,1.2-18.37,1l-5.34-.24c-1.42-.08-2.85-.18-4.26-.3m28-.41.13,0m-13.65-1.09a97.1,97.1,0,0,1-10.19-1m0,0c-3.39-.47-6.86-1.09-9.94-1.77m20.13,2.72a21.78,21.78,0,0,0,4.63-.22m0,0h0m-18.5-3a63,63,0,0,1-6.26-1.89M87,36.57a52.74,52.74,0,0,0,11.74,1.57M88.79.74c2.57-.45,4.3-.8,6.71-1.42M88.79.74c-2.68.47-5.39.82-8,1M137.34,38a86.75,86.75,0,0,1-25.31.2,99.09,99.09,0,0,1-14.41-3m0,0c-4.75-1.38-8.24-2.86-9.77-3.93M137.34,38a60,60,0,0,0,10.9-2.88s5.37-2.57,9.44-4.75m-30.05,5.77a69.52,69.52,0,0,1-16.86-.66m16.86.66A36.18,36.18,0,0,0,140,33s4.54-1.91,8.9-3.9m-38.1,6.4a63.1,63.1,0,0,1-15.5-4.19m43.51-2.07a69.06,69.06,0,0,1-14.91,3.23m0,0c-9,.93-16.93-.06-20.05-2.57m26.6-2a39.75,39.75,0,0,1-21.21.26m-.31-.07h0m0,0,.3.07m13.06-2.4.06,0m-.06,0c-1.55.37-5.73,1.17-8.6,0m0,0-.08,0m40.49-15.43c-4.45,3.31-6.4,4-6.4,4a91.9,91.9,0,0,1-18.8,3.33M85.53,9.51l.55.38m24.63,7.58a103.07,103.07,0,0,0,18.17.14M85.5,9.49l0,0m25.18,8c-9.39-.94-18.21-3.34-24.63-7.58m4.75-1.42a7.77,7.77,0,0,0,.83.91m29.7,6.27a68.9,68.9,0,0,0,18-2.54,60.2,60.2,0,0,0,6.15-2.9M90.83,8.47l-.07-.11m.9,1c2.36,2.24,6.8,3.89,12.21,4.94a84.4,84.4,0,0,0,17.49,1.33m14-6.42C119,15.3,104.2,12.38,97.68,8.81m37.64.42.08,0M95.27,7.14a11.93,11.93,0,0,0,2.41,1.67m10.89,0a30.18,30.18,0,0,1-9.94-3m9.94,3a56.53,56.53,0,0,0,14.17.33M128,8.08a25,25,0,0,1-5.23,1.1M98.63,5.87l-.07,0m21.14-.1c-7.08,1.49-9.73-.34-16-2.21l-.15,0m10.88.27a49.79,49.79,0,0,1-5.15-.81m0,0a17.31,17.31,0,0,1-2.91-.87m8.06,1.68h.11m49.85,27.11c-13.53-.38-35.37-6.82-41.2-10.58m13,8.52A42.75,42.75,0,0,1,119,21.32M117.23,20c.57.45,1.15.9,1.74,1.34m7.3-13.75C123,6,117.75,2.16,114.26-.89m12,8.46.29.14M124.5,2.25A31.75,31.75,0,0,0,137.84,9.4M124.5,2.25c-1.34-1.16-2.45-2.4-3.34-3.29M125.5-1a46,46,0,0,0,7.77,4.75M162.8,10c-14.33-1.11-21.9-2.73-29.53-6.26m3.38,15.33,0,0m27.76,6.37c-8.93-.9-21.39-3-27.18-6.05m-.55-.3.55.3M164.38,28c-10.3-.5-23.49-4.25-23.49-4.25-6-1.36-10.83-2.72-13.58-3.57M87.29,16a32.56,32.56,0,0,0,4.22-1.09M87.29,16a20.59,20.59,0,0,1-6.54.23M132.2-1.53a32.62,32.62,0,0,0,7.67,4s14.31,2.56,23,2,1.42-.1,1.42-.1M105.22,18.27l.1,0m-17,4.18a47.25,47.25,0,0,1-7.53,0m7.53,0A53.55,53.55,0,0,0,100,20.13m5.21-1.86c-1.76.71-3.49,1.33-5.21,1.86M92.8,17.39a32.76,32.76,0,0,1-12,1.53m12-1.53a28.86,28.86,0,0,0,3.1-1.22m0,0h0m-8.8-2.91a45.63,45.63,0,0,1-4.83.51m4.83-.51h.09M108,23.06a68.65,68.65,0,0,1-13.54,2.37m0,0a91.31,91.31,0,0,1-12.16.11M108,23.06a43.37,43.37,0,0,0,5.19-1.83m2.07,1.5c-7.34,4.82-18.59,6-30.2,5.39m0,0c-1.44-.08-2.9-.18-4.34-.3M103.56-.59a82.12,82.12,0,0,1-22.81,5.1m4.78,5a36.7,36.7,0,0,1-4.71.35m10-1.39a60,60,0,0,0,7.8-2.6m5.06-2.35c-1.64.85-3.33,1.64-5.06,2.35m5.06-2.35c1.6-.83,3.15-1.73,4.62-2.67M90.83,8.47a46.74,46.74,0,0,1-5.3,1M108.31.85C109.19.28,110-.3,110.85-.89m-1.94,29c-11.43,4.82-20,2.87-28.16,2.82m36.41-7.24,0,0q-1.77,1.14-3.45,2.07m-4.76,2.32a47,47,0,0,0,4.76-2.32m.75-22a76.54,76.54,0,0,0,11.85,3.82M114.42,3.75c-2-.86-4.09-1.82-6.11-2.9m0,0-.17-.09m18.13,6.81a90.26,90.26,0,0,0,9,1.66c13,1.74,21.17.81,27.29.79m-51.27,9.14.08.12m6.75,4.91c-.36-.16-.71-.32-1-.49m0,0a15.08,15.08,0,0,1-5.7-4.42m6.75,4.91a40.37,40.37,0,0,0,4.1,1.57c6.52,2.12,14.78,3.38,22.51,4.12l2.1-.06M136.65,19.09c10.77-1.63,20.66-4.68,26.43-9.07m-26.43,9.07a97.14,97.14,0,0,1-13.28,1.2m-18.15-2c-3.12-.59-6.29-1.29-9.32-2.1m9.32,2.1c2.11.39,4.2.73,6.2,1a91.75,91.75,0,0,0,12,1M95.9,16.17a73.21,73.21,0,0,1-8.8-2.91m0,0a28.32,28.32,0,0,1-6.28-3.4m24.69,29.69A114.23,114.23,0,0,1,92.1,36.29m0,0C87.42,34.81,83.35,33,80.75,31m83.66,1-1.61-1.07c-8.15,5.62-21.36,8.58-21.36,8.58-2.75.51-5.47.93-8,1.25a84.51,84.51,0,0,1-10.06.76l-1.4,0c-2.13-.06-4.72-.26-7.57-.6m-8.89-1.34c3.08.56,6.11,1,8.89,1.34M103.32-.28l1.69,3M93.11,2.6l1.31,4.76M84.34,9.62l-.63-5.39M100.12.66,99.74-.52M88.78.72v0l.56,2.49M93.69-.89l.11.61M84.59,1.35l-.3-2.66"/><path class="cls-2" d="M41,12.18l-.5-3m0,0h0m-12,8.29v0m0,0-.13,1.66M3.89,9.87l0,0m-1.3,2.23,1.3-2.23M14.6,16.25l.31-1.37m-7-2.76L9.45,9.38m0,0h0m11.84,7,.37-2.06v-.07m9.52,1.19V12.68M15.47,8.81h0m0,0-1.31,3.25M26.37,8.85l-.49,3.21m.49-3.21v0M20.86,7.61l1.38-3.75m10,5.51.06-3.07M26.56,5.11l.5-2.17m0,0v0M5.08,16l.43,2.48M5.08,16v0m5.51,1.39,1.06,4.25m-1.06-4.25h0m7.22,2.75,0-.06m0,.06,1.11,4.33M6.08,22.41l.12,3.17m-.12-3.17v0m6.2,3v0m0,0,.31,2.66M25.81,23l0,0,.8,2.58M18,27.71l.63,2.82M2.88,28v.1L3,31m33-6.84v-.05m0,.05v2.08M32.14,29l.56-2.88M39.28,26l.63,3.32M52.5,30.34l-.69-1.82M38.28,32.59l.06-3.13M25.81,31.72,27,28.16m0,0h0m1.57,7.31h0m0,0L29,32.41m12.65,0v0m0,0L42,36.29m10.46-1.5-.94-4.07m-6.07,5.41.24,2.79m-.24-2.79v0M32.58,38.48,32.77,36m-17.35-.83.87-2.62m-.87,2.62h0M7.77,32.47,6.71,35.16M18.3,36l-.51,2.25m12-.1v0m0,0-.19,2.29M42.48,39l.12,2.38M55.13,38l.38,2.12M55.13,38h0M4.22,41.22v.08m0,0,.13,2.2M1.3,37.71,1.21,41m25.48.67-.25-1.5m-7.77-.36v-.14m0,.14v2m-10.19-3V41.6m0-2.78v0m6.77-.66.08,1.42m-10.53-3-.16,1.56m.16-1.56v0m5.08-.25v-.08m0,.08-.16,1.25M4.23,41.3C2.3,41.14.39,41-1.46,40.74m33.66.15c-3.57.91-10.59,1.2-18.37,1L8.48,41.6c-1.42-.08-2.84-.18-4.25-.3m28-.41.13,0M18.67,39.77a97.1,97.1,0,0,1-10.19-1m0,0c-3.38-.47-6.85-1.09-9.94-1.77m20.13,2.72a21.74,21.74,0,0,0,4.63-.22m0,0h0m-18.51-3a63.86,63.86,0,0,1-6.26-1.89M4.8,36.57a52.82,52.82,0,0,0,11.74,1.57M6.58.74c2.58-.45,4.3-.8,6.72-1.42M6.58.74c-2.67.47-5.39.82-8,1M55.13,38a86.75,86.75,0,0,1-25.31.2,98.94,98.94,0,0,1-14.4-3m0,0c-4.76-1.38-8.24-2.86-9.78-3.93M55.13,38A60.08,60.08,0,0,0,66,35.11s5.36-2.57,9.44-4.75M45.43,36.13a69.48,69.48,0,0,1-16.86-.66m16.86.66A36.24,36.24,0,0,0,57.77,33s4.54-1.91,8.9-3.9m-38.1,6.4a63.07,63.07,0,0,1-15.51-4.19m43.51-2.07a69,69,0,0,1-14.9,3.23m0,0c-9,.93-16.93-.06-20-2.57m26.59-2A39.75,39.75,0,0,1,27,28.16m-.31-.07h0m0,0,.29.07m13.06-2.4.07,0m-.07,0c-1.55.37-5.72,1.17-8.59,0m0,0-.08,0M71.88,10.31c-4.45,3.31-6.4,4-6.4,4a91.9,91.9,0,0,1-18.8,3.33M3.33,9.51l.54.38m24.64,7.58a103.06,103.06,0,0,0,18.17.14M3.29,9.49l0,0m25.18,8c-9.4-.94-18.22-3.34-24.64-7.58M8.63,8.47a6.88,6.88,0,0,0,.82.91m29.71,6.27A68.76,68.76,0,0,0,57.1,13.11a61,61,0,0,0,6.16-2.9M8.63,8.47l-.08-.11m.9,1c2.36,2.24,6.8,3.89,12.22,4.94a84.34,84.34,0,0,0,17.49,1.33m14-6.42C36.78,15.3,22,12.38,15.47,8.81m37.65.42.07,0M13.06,7.14a11.93,11.93,0,0,0,2.41,1.67m10.9,0a30.11,30.11,0,0,1-9.94-3m9.94,3a56.51,56.51,0,0,0,14.17.33m5.23-1.1a25,25,0,0,1-5.23,1.1M16.43,5.87l-.08,0m21.15-.1c-7.09,1.49-9.73-.34-16-2.21l-.15,0m10.88.27a50.21,50.21,0,0,1-5.15-.81m0,0a17.9,17.9,0,0,1-2.91-.87m8.06,1.68h.12M82.17,30.87C68.64,30.49,46.8,24.05,41,20.29m13,8.52a42.62,42.62,0,0,1-17.24-7.49M35,20c.57.45,1.15.9,1.75,1.34m7.3-13.75C40.8,6,35.54,2.16,32.05-.89m12,8.46.29.14M42.3,2.25A31.7,31.7,0,0,0,55.63,9.4M42.3,2.25C41,1.09,39.85-.15,39-1M43.29-1a46.1,46.1,0,0,0,7.78,4.75M80.59,10C66.27,8.91,58.7,7.29,51.07,3.76m3.37,15.33,0,0m27.76,6.37c-8.92-.9-21.38-3-27.18-6.05m-.55-.3.55.3M82.17,28c-10.29-.5-23.49-4.25-23.49-4.25-6-1.36-10.82-2.72-13.57-3.57M5.08,16a32.68,32.68,0,0,0,4.23-1.09M5.08,16a20.59,20.59,0,0,1-6.54.23M50-1.53a32.9,32.9,0,0,0,7.68,4s14.3,2.56,23,2,1.42-.1,1.42-.1M23,18.27l.1,0m-17,4.18a47.37,47.37,0,0,1-7.54,0m7.54,0a53.78,53.78,0,0,0,11.73-2.28M23,18.27q-2.64,1.07-5.21,1.86m-7.22-2.74a32.71,32.71,0,0,1-12,1.53m12.05-1.53a29,29,0,0,0,3.11-1.22m0,0h0M4.89,13.26a45.47,45.47,0,0,1-4.82.51m4.82-.51H5m20.85,9.81a68.62,68.62,0,0,1-13.55,2.37m0,0a91.14,91.14,0,0,1-12.15.11m25.7-2.48A43.21,43.21,0,0,0,31,21.23m2.07,1.5c-7.34,4.82-18.59,6-30.19,5.39m0,0Q.71,28-1.46,27.82M21.35-.59A82,82,0,0,1-1.46,4.51m4.79,5a36.7,36.7,0,0,1-4.71.35m10-1.39a60.45,60.45,0,0,0,7.8-2.6m5.05-2.35c-1.63.85-3.33,1.64-5.05,2.35m5.05-2.35c1.61-.83,3.16-1.73,4.63-2.67M8.63,8.47a47.62,47.62,0,0,1-5.3,1M26.11.85C27,.28,27.83-.3,28.64-.89m-1.93,29C15.27,32.91,6.74,31-1.46,30.91M35,23.67l0,0q-1.77,1.14-3.45,2.07m-4.76,2.32a49.14,49.14,0,0,0,4.76-2.32m.74-22A76.65,76.65,0,0,0,44.07,7.57M32.21,3.75c-2.05-.86-4.08-1.82-6.1-2.9m0,0L25.94.76M44.07,7.57a90.26,90.26,0,0,0,9,1.66C66.14,11,74.28,10,80.4,10M29.13,19.16l.09.12M36,24.19l-1-.49m0,0a15.08,15.08,0,0,1-5.7-4.42M36,24.19a41.3,41.3,0,0,0,4.1,1.57c6.52,2.12,14.78,3.38,22.52,4.12l2.1-.06M54.44,19.09C65.22,17.46,75.11,14.41,80.88,10M54.44,19.09a97,97,0,0,1-13.28,1.2M23,18.27c-3.13-.59-6.3-1.29-9.32-2.1M23,18.27c2.1.39,4.19.73,6.2,1a91.76,91.76,0,0,0,11.94,1M13.7,16.17a74,74,0,0,1-8.81-2.91m0,0a28.23,28.23,0,0,1-6.27-3.4M23.3,39.55A114.72,114.72,0,0,1,9.89,36.29m0,0C5.21,34.81,1.15,33-1.46,31M82.2,32l-1.61-1.07c-8.14,5.62-21.35,8.58-21.35,8.58-2.76.51-5.47.93-8,1.25a84.51,84.51,0,0,1-10.07.76l-1.39,0c-2.14-.06-4.73-.26-7.57-.6m-8.9-1.34c3.08.56,6.11,1,8.9,1.34M21.11-.28l1.7,3M10.9,2.6l1.32,4.76M2.13,9.62,1.51,4.23M17.92.66,17.53-.52M6.58.72v0l.56,2.49M11.48-.89l.11.61M2.38,1.35,2.09-1.31"/><path class="cls-2" d="M52.78,2.13c.31-.84-3.21-2.45-3.66-1.52C48.5,1.85,52.34,3.32,52.78,2.13ZM35,7.7c0,1.38,4.07,1.09,4-.18C38.84,6.64,35,6.67,35,7.7ZM25,32.91c0-.71-3-1.12-3.16-.3C21.69,33.7,25,33.92,25,32.91Zm32.2-7.85c.16-.69-2.79-1.62-3.06-.84C53.8,25.27,57,26.05,57.22,25.06Zm-8.78,8.51c-.08-.88-3.94-.86-4,.18C44.45,35.13,48.55,34.83,48.44,33.57Zm0,0c-.08-.88-3.94-.86-4,.18C44.45,35.13,48.55,34.83,48.44,33.57Zm-42-13.34c-.07-.88-3.94-.85-4,.18C2.48,21.79,6.57,21.5,6.46,20.23Zm4.89,9.27c-.07-.88-3.94-.86-4,.18C7.36,31.06,11.46,30.76,11.35,29.5Zm9.64-8c.38,1.69,5.26.13,4.76-1.38C25.4,19.08,20.71,20.25,21,21.51ZM9.65,5.23c-.35-1.05-5,.12-4.76,1.38C5.26,8.3,10.15,6.74,9.65,5.23ZM51.07,3.76v0m0,0L49.41,7.07M42.3,2.25l-2.16,2.9m2.16-2.9v0m-9.1,1.83,1.17-2.83m1.08,22.62,1.31-2.53,0-.06m9.6,5.18,1.17-3M55,19.34l0,.05m-1.15,3.12L55,19.39m-8.31-1.78v0m0,0,.18,2.27m-7.64-2-.06-2.23v0m7.7-4.45.75,3.76"/><line class="cls-2" x1="60.07" y1="32" x2="61.71" y2="36.55"/><line class="cls-2" x1="57.1" y1="13.11" x2="58.05" y2="15.99"/><line class="cls-2" x1="65.48" y1="14.28" x2="66.38" y2="16.56"/><path class="cls-2" d="M82.2,22.44a61.84,61.84,0,0,1-10.51-1.71,60.4,60.4,0,0,1-8.81-3.22"/><path class="cls-2" d="M82.2,19l-1.61-.18s-5.68-.86-7.67-1.43a11.77,11.77,0,0,1-3.5-1.7"/><path class="cls-2" d="M72.35,43.37a62,62,0,0,1-13.92-3.6"/><path class="cls-2" d="M82.11,41.1s-9.57-1-11.56-1.8-4.07-1.9-4.07-1.9"/><path class="cls-2" d="M82.11,37.4a45.32,45.32,0,0,1-5.21-1.23,13.44,13.44,0,0,1-3.6-1.42"/><path class="cls-2" d="M82.11,35.22s-3-1.23-4.74-2.17"/><line class="cls-2" x1="70.74" y1="20.45" x2="69.89" y2="23.76"/><line class="cls-2" x1="64.96" y1="25.47" x2="64.11" y2="28.31"/><line class="cls-2" x1="72.26" y1="39.96" x2="71.69" y2="43.37"/><line class="cls-2" x1="58.62" y1="6.8" x2="60.32" y2="2.92"/><path class="cls-2" d="M71.4,4.25,72.35,1a24.69,24.69,0,0,1,4,.29,44,44,0,0,0,5.87.28"/><line class="cls-2" x1="73.49" y1="4.44" x2="72.83" y2="9.08"/><ellipse class="cls-3" cx="76" cy="38.21" rx="1.47" ry="2.79" transform="translate(17.34 99.81) rotate(-73.1)"/><ellipse class="cls-3" cx="63.45" cy="12.68" rx="2.04" ry="1.09" transform="translate(-0.79 20.37) rotate(-18.13)"/><path class="cls-3" d="M82.17,16.47s-.94-.07-2-.26-6-2.27-6-2.27"/><path class="cls-3" d="M82.17,13.75s-3.09-1.07-4.23-1.64"/><line class="cls-3" x1="79.58" y1="18.8" x2="79.08" y2="22.15"/><line class="cls-3" x1="78.83" y1="24.99" x2="78.57" y2="27.71"/><ellipse class="cls-2" cx="22.08" cy="12.9" rx="1.01" ry="1.55" transform="matrix(0.26, -0.97, 0.97, 0.26, 3.94, 30.92)"/><path class="cls-2" d="M-41.17,12.18l-.5-3m0,0h0m-12,8.29v0m0,0-.12,1.66m-24.5-9.26v0m-1.3,2.23,1.3-2.23m10.72,6.36.32-1.37m-7-2.76,1.56-2.74m0,0h0m11.84,7,.36-2.06v-.07M-51,15.44V12.68M-66.73,8.81h0m0,0L-68,12.06m12.2-3.21-.49,3.21m.49-3.21v0m-5.51-1.19L-60,3.86m10,5.51.06-3.07m-5.76-1.19.5-2.17m0,0v0M-77.12,16l.43,2.48M-77.12,16v0m5.52,1.39,1.06,4.25m-1.06-4.25h0m7.22,2.75v-.06m0,.06,1.12,4.33m-12.85-2.05.13,3.17m-.13-3.17v0m6.21,3v0m0,0,.31,2.66M-56.39,23v0l.8,2.58m-8.64,2.07.62,2.82M-79.32,28v.1l.06,2.91m33-6.84v-.05m0,.05v2.08M-50.06,29l.56-2.88m6.58-.19.62,3.32m12.6,1.06-.69-1.82m-13.53,4.07.06-3.13m-12.53,2.26,1.19-3.56m0,0h0m1.56,7.31h0m0,0,.44-3.06m12.66,0v0m0,0,.31,3.85m10.46-1.5-.94-4.07m-6.07,5.41.25,2.79m-.25-2.79v0m-12.85,2.38.19-2.44m-17.35-.83.88-2.62m-.88,2.62h0m-7.64-2.75-1.07,2.69m11.59.88-.5,2.25m12-.1v0m0,0-.19,2.29M-39.73,39l.13,2.38M-27.07,38l.37,2.12M-27.07,38h0M-78,41.22v.08m0,0,.14,2.2m-3.07-5.79L-81,41m25.48.67-.26-1.5m-7.76-.36v-.14m0,.14v2m-10.19-3V41.6m0-2.78v0m6.76-.66.09,1.42m-10.53-3-.17,1.56m.17-1.56v0m5.09-.25v-.08m0,.08-.16,1.25M-78,41.3c-1.93-.16-3.83-.34-5.68-.56m33.65.15c-3.56.91-10.58,1.2-18.37,1l-5.34-.24c-1.42-.08-2.85-.18-4.26-.3m28-.41.13,0m-13.65-1.09a97.1,97.1,0,0,1-10.19-1m0,0c-3.39-.47-6.86-1.09-9.94-1.77m20.13,2.72a21.78,21.78,0,0,0,4.63-.22m0,0h0m-18.5-3a63,63,0,0,1-6.26-1.89m6.26,1.89a52.74,52.74,0,0,0,11.74,1.57m-10-37.4c2.57-.45,4.3-.8,6.71-1.42M-75.62.74c-2.68.47-5.39.82-8,1M-27.07,38a86.75,86.75,0,0,1-25.31.2,99.09,99.09,0,0,1-14.41-3m0,0c-4.75-1.38-8.24-2.86-9.77-3.93M-27.07,38a60,60,0,0,0,10.9-2.88s5.37-2.57,9.44-4.75m-30,5.77a69.52,69.52,0,0,1-16.86-.66m16.86.66A36.18,36.18,0,0,0-24.44,33s4.55-1.91,8.9-3.9m-38.1,6.4a63.1,63.1,0,0,1-15.5-4.19m43.51-2.07a69.06,69.06,0,0,1-14.91,3.23m0,0c-9,.93-16.93-.06-20.05-2.57m26.6-2a39.75,39.75,0,0,1-21.21.26m-.31-.07h0m0,0,.3.07m13.06-2.4.06,0m-.06,0c-1.55.37-5.73,1.17-8.6,0m0,0-.08,0m40.49-15.43c-4.45,3.31-6.4,4-6.4,4a91.9,91.9,0,0,1-18.8,3.33m-43.35-8.1.55.38m24.63,7.58a103.07,103.07,0,0,0,18.17.14M-78.91,9.49l0,0m25.18,8c-9.39-.94-18.21-3.34-24.63-7.58m4.75-1.42a7.77,7.77,0,0,0,.83.91M-43,15.65A68.9,68.9,0,0,0-25.1,13.11a60.2,60.2,0,0,0,6.15-2.9M-73.58,8.47l-.07-.11m.9,1c2.36,2.24,6.8,3.89,12.21,4.94A84.4,84.4,0,0,0-43,15.65m14-6.42c-16.33,6.07-31.12,3.15-37.64-.42m37.64.42.08,0M-69.14,7.14a11.93,11.93,0,0,0,2.41,1.67m10.89,0a30.18,30.18,0,0,1-9.94-3m9.94,3a56.53,56.53,0,0,0,14.17.33m5.23-1.1a25,25,0,0,1-5.23,1.1M-65.78,5.87l-.07,0m21.14-.1c-7.08,1.49-9.73-.34-16-2.21l-.15,0M-50,3.75a49.79,49.79,0,0,1-5.15-.81m0,0A17.31,17.31,0,0,1-58,2.07M-50,3.75h.11M0,30.87c-13.53-.38-35.37-6.82-41.2-10.58m13,8.52a42.75,42.75,0,0,1-17.24-7.49M-47.18,20c.57.45,1.15.9,1.74,1.34m7.3-13.75C-41.4,6-46.66,2.16-50.15-.89m12,8.46.29.14m-2.06-5.46A31.75,31.75,0,0,0-26.57,9.4M-39.91,2.25C-41.25,1.09-42.36-.15-43.25-1m4.34.05a46,46,0,0,0,7.77,4.75M-1.61,10c-14.33-1.11-21.9-2.73-29.53-6.26m3.38,15.33,0,0M0,25.44c-8.93-.9-21.39-3-27.18-6.05m-.55-.3.55.3M0,28c-10.3-.5-23.49-4.25-23.49-4.25-6-1.36-10.83-2.72-13.58-3.57m-40-4.17a32.56,32.56,0,0,0,4.22-1.09M-77.12,16a20.59,20.59,0,0,1-6.54.23M-32.21-1.53a32.62,32.62,0,0,0,7.67,4s14.31,2.56,23,2,1.43-.1,1.43-.1m-59.1,13.93.1,0m-17,4.18a47.25,47.25,0,0,1-7.53,0m7.53,0A53.55,53.55,0,0,0-64.4,20.13m5.21-1.86c-1.76.71-3.49,1.33-5.21,1.86m-7.21-2.74a32.76,32.76,0,0,1-12,1.53m12-1.53a28.86,28.86,0,0,0,3.1-1.22m0,0h0m-8.8-2.91a45.63,45.63,0,0,1-4.83.51m4.83-.51h.09m20.84,9.81a68.65,68.65,0,0,1-13.54,2.37m0,0a91.31,91.31,0,0,1-12.16.11m25.7-2.48a43.37,43.37,0,0,0,5.19-1.83m2.07,1.5c-7.34,4.82-18.59,6-30.2,5.39m0,0c-1.44-.08-2.9-.18-4.34-.3M-60.85-.59a82.12,82.12,0,0,1-22.81,5.1m4.78,5a36.7,36.7,0,0,1-4.71.35m10-1.39a60,60,0,0,0,7.8-2.6m5.06-2.35c-1.64.85-3.33,1.64-5.06,2.35m5.06-2.35c1.6-.83,3.15-1.73,4.62-2.67M-73.58,8.47a46.74,46.74,0,0,1-5.3,1M-56.1.85c.88-.57,1.73-1.15,2.54-1.74m-1.94,29c-11.43,4.82-20,2.87-28.16,2.82m36.41-7.24,0,0q-1.77,1.14-3.45,2.07m-4.76,2.32a47,47,0,0,0,4.76-2.32m.75-22A76.54,76.54,0,0,0-38.14,7.57M-50,3.75c-2-.86-4.09-1.82-6.11-2.9m0,0-.17-.09m18.13,6.81a90.26,90.26,0,0,0,9.05,1.66C-16.07,11-7.92,10-1.8,10m-51.27,9.14.08.12m6.75,4.91c-.36-.16-.71-.32-1-.49m0,0A15.08,15.08,0,0,1-53,19.28m6.75,4.91a40.37,40.37,0,0,0,4.1,1.57c6.52,2.12,14.78,3.38,22.51,4.12l2.1-.06M-27.76,19.09C-17,17.46-7.1,14.41-1.33,10m-26.43,9.07A97.14,97.14,0,0,1-41,20.29m-18.15-2c-3.12-.59-6.29-1.29-9.32-2.1m9.32,2.1c2.11.39,4.2.73,6.2,1a91.75,91.75,0,0,0,12,1m-27.47-4.12a73.21,73.21,0,0,1-8.8-2.91m0,0a28.32,28.32,0,0,1-6.28-3.4M-58.9,39.55a114.23,114.23,0,0,1-13.41-3.26m0,0C-77,34.81-81.06,33-83.66,31M0,32l-1.61-1.07C-9.76,36.55-23,39.51-23,39.51c-2.75.51-5.47.93-8,1.25A84.51,84.51,0,0,1-41,41.52l-1.4,0c-2.13-.06-4.72-.26-7.57-.6m-8.89-1.34c3.08.56,6.11,1,8.89,1.34M-61.09-.28l1.69,3M-71.3,2.6-70,7.36M-80.07,9.62l-.63-5.39M-64.29.66l-.38-1.18m-11,1.24v0l.56,2.49m4.34-4.12.11.61m-9.21,1.63-.3-2.66"/><path class="cls-2" d="M123.24-30.34l-.5-3m0,0h0m-12,8.29v0m0,0-.12,1.66m-24.5-9.26v0m-1.3,2.23,1.3-2.23M96.8-26.27l.32-1.37m-7-2.76,1.56-2.74m0,0h0m11.84,7,.36-2.06v-.07m9.53,1.19v-2.76M97.68-33.71h0m0,0-1.31,3.25m12.2-3.21-.49,3.21m.49-3.21v0m-5.51-1.19,1.38-3.75m10,5.51.06-3.07m-5.76-1.19.5-2.17m0,0v0m-22,13.09L87.72-24m-.43-2.48v0m5.52,1.39,1.06,4.25M92.8-25.13h0M100-22.39v-.06m0,.06,1.12,4.33M88.28-20.11l.13,3.17m-.13-3.17v0m6.21,3v0m0,0,.31,2.66M108-19.51v.05l.8,2.58m-8.64,2.07.62,2.82M85.09-14.5v.1l.06,2.91m33-6.84v-.05m0,.05v2.08m-3.82,2.76.56-2.88m6.58-.19.62,3.32m12.6,1.06L134-14M120.49-9.93l.06-3.13M108-10.8l1.19-3.56m0,0h0M110.77-7h0m0,0,.44-3.06m12.66,0v0m0,0,.31,3.85m10.46-1.5-.94-4.07m-6.07,5.41.25,2.79m-.25-2.79v0M114.78-4,115-6.48M97.62-7.31l.88-2.62m-.88,2.62h0M90-10,88.91-7.36m11.59.88L100-4.23m12-.1v0m0,0L111.84-2m12.84-1.44.13,2.38m12.53-3.43.37,2.12m-.37-2.12h0M86.43-1.3v.08m0,0L86.57,1M83.5-4.81l-.08,3.25m25.48.67-.26-1.5m-7.76-.36v-.14m0,.14v2m-10.19-3V-.92m0-2.78v0m6.76-.66L97.54-3M87-5.95l-.17,1.56M87-5.95v0m5.09-.25v-.08m0,.08L91.94-5M86.43-1.22c-1.93-.16-3.83-.34-5.68-.56m33.65.15c-3.56.91-10.58,1.2-18.37.95L90.69-.92c-1.42-.08-2.85-.18-4.26-.3m28-.41.13,0M100.88-2.75a97.1,97.1,0,0,1-10.19-1m0,0c-3.39-.47-6.86-1.09-9.94-1.77m20.13,2.72A21.78,21.78,0,0,0,105.51-3m0,0h0M87-5.95a63,63,0,0,1-6.26-1.89M87-5.95A52.74,52.74,0,0,0,98.75-4.38m-10-37.4c2.57-.45,4.3-.8,6.71-1.42m-6.71,1.42c-2.68.47-5.39.82-8,1M137.34-4.53a86.75,86.75,0,0,1-25.31.2,99.09,99.09,0,0,1-14.41-3m0,0c-4.75-1.38-8.24-2.86-9.77-3.93m49.49,6.71a60,60,0,0,0,10.9-2.88s5.37-2.57,9.44-4.75M127.63-6.39A69.52,69.52,0,0,1,110.77-7m16.86.66A36.18,36.18,0,0,0,140-9.55s4.54-1.91,8.9-3.9M110.77-7a63.1,63.1,0,0,1-15.5-4.19m43.51-2.07a69.06,69.06,0,0,1-14.91,3.23m0,0c-9,.93-16.93-.06-20.05-2.57m26.6-2a39.75,39.75,0,0,1-21.21.26m-.31-.07h0m0,0,.3.07m13.06-2.4.06,0m-.06,0c-1.55.37-5.73,1.17-8.6,0m0,0-.08,0m40.49-15.43c-4.45,3.31-6.4,4-6.4,4a91.9,91.9,0,0,1-18.8,3.33M85.53-33l.55.38M110.71-25a103.07,103.07,0,0,0,18.17.14M85.5-33l0,0m25.18,8c-9.39-.94-18.21-3.34-24.63-7.58M90.83-34a7.77,7.77,0,0,0,.83.91m29.7,6.27a68.9,68.9,0,0,0,18-2.54,60.2,60.2,0,0,0,6.15-2.9M90.83-34l-.07-.11m.9,1c2.36,2.24,6.8,3.89,12.21,4.94a84.4,84.4,0,0,0,17.49,1.33m14-6.42c-16.33,6.07-31.12,3.15-37.64-.42m37.64.42.08,0M95.27-35.38a11.93,11.93,0,0,0,2.41,1.67m10.89,0a30.18,30.18,0,0,1-9.94-3m9.94,3a56.53,56.53,0,0,0,14.17.33m5.23-1.1a25,25,0,0,1-5.23,1.1M98.63-36.65l-.07,0m21.14-.1c-7.08,1.49-9.73-.34-16-2.21l-.15,0m10.88.27a49.79,49.79,0,0,1-5.15-.81m0,0a17.31,17.31,0,0,1-2.91-.87m8.06,1.68h.11m49.85,27.11C150.85-12,129-18.47,123.18-22.23m13,8.52A42.75,42.75,0,0,1,119-21.2m-1.74-1.34c.57.45,1.15.9,1.74,1.34m7.3-13.75c-3.26-1.54-8.52-5.41-12-8.46m12,8.46.29.14m-2.06-5.46a31.75,31.75,0,0,0,13.34,7.15M124.5-40.27c-1.34-1.16-2.45-2.4-3.34-3.29m4.34.05a46,46,0,0,0,7.77,4.75M162.8-32.5c-14.33-1.11-21.9-2.73-29.53-6.26m3.38,15.33,0,0m27.76,6.37c-8.93-.9-21.39-3-27.18-6.05m-.55-.3.55.3m27.18,8.63c-10.3-.5-23.49-4.25-23.49-4.25-6-1.36-10.83-2.72-13.58-3.57m-40-4.17a32.56,32.56,0,0,0,4.22-1.09m-4.22,1.09a20.59,20.59,0,0,1-6.54.23M132.2-44a32.62,32.62,0,0,0,7.67,4s14.31,2.56,23,2,1.42-.1,1.42-.1M105.22-24.25l.1,0m-17,4.18a47.25,47.25,0,0,1-7.53,0m7.53,0A53.55,53.55,0,0,0,100-22.39m5.21-1.86c-1.76.71-3.49,1.33-5.21,1.86M92.8-25.13a32.76,32.76,0,0,1-12,1.53m12-1.53a28.86,28.86,0,0,0,3.1-1.22m0,0h0m-8.8-2.91a45.63,45.63,0,0,1-4.83.51m4.83-.51h.09M108-19.46a68.65,68.65,0,0,1-13.54,2.37m0,0A91.31,91.31,0,0,1,82.33-17M108-19.46a43.37,43.37,0,0,0,5.19-1.83m2.07,1.5C108-15,96.7-13.82,85.09-14.4m0,0c-1.44-.08-2.9-.18-4.34-.3m22.81-28.41A82.12,82.12,0,0,1,80.75-38m4.78,5a36.7,36.7,0,0,1-4.71.35m10-1.39a60,60,0,0,0,7.8-2.6M103.69-39c-1.64.85-3.33,1.64-5.06,2.35M103.69-39c1.6-.83,3.15-1.73,4.62-2.67M90.83-34a46.74,46.74,0,0,1-5.3,1m22.78-8.66c.88-.57,1.73-1.15,2.54-1.74m-1.94,29c-11.43,4.82-20,2.87-28.16,2.82m36.41-7.24,0,0q-1.77,1.14-3.45,2.07m-4.76,2.32a47,47,0,0,0,4.76-2.32m.75-22a76.54,76.54,0,0,0,11.85,3.82m-11.85-3.82c-2-.86-4.09-1.82-6.11-2.9m0,0-.17-.09m18.13,6.81a90.26,90.26,0,0,0,9,1.66c13,1.74,21.17.81,27.29.79m-51.27,9.14.08.12m6.75,4.91c-.36-.16-.71-.32-1-.49m0,0a15.08,15.08,0,0,1-5.7-4.42m6.75,4.91a40.37,40.37,0,0,0,4.1,1.57c6.52,2.12,14.78,3.38,22.51,4.12l2.1-.06M136.65-23.43c10.77-1.63,20.66-4.68,26.43-9.07m-26.43,9.07a97.14,97.14,0,0,1-13.28,1.2m-18.15-2c-3.12-.59-6.29-1.29-9.32-2.1m9.32,2.1c2.11.39,4.2.73,6.2,1a91.75,91.75,0,0,0,12,1M95.9-26.35a73.21,73.21,0,0,1-8.8-2.91m0,0a28.32,28.32,0,0,1-6.28-3.4M105.51-3A114.23,114.23,0,0,1,92.1-6.23m0,0c-4.68-1.48-8.75-3.25-11.35-5.26m83.66,1-1.61-1.07C154.65-6,141.44-3,141.44-3c-2.75.51-5.47.93-8,1.25A84.51,84.51,0,0,1,123.37-1L122-1c-2.13-.06-4.72-.26-7.57-.6M105.51-3c3.08.56,6.11,1,8.89,1.34M103.32-42.8l1.69,3m-11.9-.13,1.31,4.76M84.34-32.9l-.63-5.39m16.41-3.57L99.74-43m-11,1.24v0l.56,2.49m4.34-4.12.11.61m-9.21,1.63-.3-2.66"/><path class="cls-2" d="M41-30.34l-.5-3m0,0h0M28.51-25v0m0,0-.13,1.66M3.89-32.65l0,0M2.57-30.4l1.3-2.23M14.6-26.27l.31-1.37m-7-2.76,1.55-2.74m0,0h0m11.84,7,.37-2.06v-.07m9.52,1.19v-2.76M15.47-33.71h0m0,0-1.31,3.25m12.21-3.21-.49,3.21m.49-3.21v0m-5.52-1.19,1.38-3.75m10,5.51.06-3.07m-5.77-1.19.5-2.17m0,0v0m-22,13.09L5.51-24m-.43-2.48v0m5.51,1.39,1.06,4.25m-1.06-4.25h0m7.22,2.75,0-.06m0,.06,1.11,4.33M6.08-20.11l.12,3.17m-.12-3.17v0m6.2,3v0m0,0,.31,2.66m13.22-5.08,0,.05.8,2.58M18-14.81,18.61-12M2.88-14.5v.1L3-11.49m33-6.84v-.05m0,.05v2.08m-3.82,2.76.56-2.88m6.58-.19.63,3.32M52.5-12.18,51.81-14M38.28-9.93l.06-3.13M25.81-10.8,27-14.36m0,0h0M28.57-7h0m0,0L29-10.11m12.65,0v0m0,0L42-6.23m10.46-1.5L51.5-11.8M45.43-6.39l.24,2.79m-.24-2.79v0M32.58-4l.19-2.44M15.42-7.31l.87-2.62m-.87,2.62h0M7.77-10,6.71-7.36m11.59.88-.51,2.25m12-.1v0m0,0L29.63-2M42.48-3.48,42.6-1.1M55.13-4.53l.38,2.12m-.38-2.12h0M4.22-1.3v.08m0,0L4.36,1M1.3-4.81,1.21-1.56m25.48.67-.25-1.5m-7.77-.36v-.14m0,.14v2M8.48-3.7V-.92m0-2.78v0m6.77-.66L15.33-3M4.8-5.95,4.64-4.39M4.8-5.95v0m5.08-.25v-.08m0,.08L9.73-5M4.23-1.22C2.3-1.38.39-1.56-1.46-1.78m33.66.15c-3.57.91-10.59,1.2-18.37.95L8.48-.92C7.06-1,5.64-1.1,4.23-1.22m28-.41.13,0M18.67-2.75a97.1,97.1,0,0,1-10.19-1m0,0C5.1-4.17,1.63-4.79-1.46-5.47M18.67-2.75A21.74,21.74,0,0,0,23.3-3m0,0h0M4.8-5.95A63.86,63.86,0,0,1-1.46-7.84M4.8-5.95A52.82,52.82,0,0,0,16.54-4.38m-10-37.4c2.58-.45,4.3-.8,6.72-1.42M6.58-41.78c-2.67.47-5.39.82-8,1M55.13-4.53a86.75,86.75,0,0,1-25.31.2,98.94,98.94,0,0,1-14.4-3m0,0c-4.76-1.38-8.24-2.86-9.78-3.93M55.13-4.53A60.08,60.08,0,0,0,66-7.41S71.4-10,75.48-12.16M45.43-6.39A69.48,69.48,0,0,1,28.57-7m16.86.66A36.24,36.24,0,0,0,57.77-9.55s4.54-1.91,8.9-3.9M28.57-7a63.07,63.07,0,0,1-15.51-4.19m43.51-2.07a69,69,0,0,1-14.9,3.23m0,0c-9,.93-16.93-.06-20-2.57m26.59-2A39.75,39.75,0,0,1,27-14.36m-.31-.07h0m0,0,.29.07m13.06-2.4.07,0m-.07,0c-1.55.37-5.72,1.17-8.59,0m0,0-.08,0M71.88-32.21c-4.45,3.31-6.4,4-6.4,4a91.9,91.9,0,0,1-18.8,3.33M3.33-33l.54.38M28.51-25a103.06,103.06,0,0,0,18.17.14M3.29-33l0,0m25.18,8c-9.4-.94-18.22-3.34-24.64-7.58M8.63-34a6.88,6.88,0,0,0,.82.91m29.71,6.27A68.76,68.76,0,0,0,57.1-29.41a61,61,0,0,0,6.16-2.9M8.63-34l-.08-.11m.9,1c2.36,2.24,6.8,3.89,12.22,4.94a84.34,84.34,0,0,0,17.49,1.33m14-6.42C36.78-27.22,22-30.14,15.47-33.71m37.65.42.07,0M13.06-35.38a11.93,11.93,0,0,0,2.41,1.67m10.9,0a30.11,30.11,0,0,1-9.94-3m9.94,3a56.51,56.51,0,0,0,14.17.33m5.23-1.1a25,25,0,0,1-5.23,1.1M16.43-36.65l-.08,0m21.15-.1c-7.09,1.49-9.73-.34-16-2.21l-.15,0m10.88.27a50.21,50.21,0,0,1-5.15-.81m0,0a17.9,17.9,0,0,1-2.91-.87m8.06,1.68h.12M82.17-11.65C68.64-12,46.8-18.47,41-22.23m13,8.52A42.62,42.62,0,0,1,36.77-21.2M35-22.54c.57.45,1.15.9,1.75,1.34m7.3-13.75c-3.27-1.54-8.53-5.41-12-8.46m12,8.46.29.14M42.3-40.27a31.7,31.7,0,0,0,13.33,7.15M42.3-40.27C41-41.43,39.85-42.67,39-43.56m4.33.05a46.1,46.1,0,0,0,7.78,4.75M80.59-32.5c-14.32-1.11-21.89-2.73-29.52-6.26m3.37,15.33,0,0m27.76,6.37c-8.92-.9-21.38-3-27.18-6.05m-.55-.3.55.3M82.17-14.5c-10.29-.5-23.49-4.25-23.49-4.25-6-1.36-10.82-2.72-13.57-3.57m-40-4.17a32.68,32.68,0,0,0,4.23-1.09M5.08-26.49a20.59,20.59,0,0,1-6.54.23M50-44a32.9,32.9,0,0,0,7.68,4s14.3,2.56,23,2,1.42-.1,1.42-.1M23-24.25l.1,0m-17,4.18a47.37,47.37,0,0,1-7.54,0m7.54,0a53.78,53.78,0,0,0,11.73-2.28M23-24.25q-2.64,1.07-5.21,1.86m-7.22-2.74a32.71,32.71,0,0,1-12,1.53m12.05-1.53a29,29,0,0,0,3.11-1.22m0,0h0M4.89-29.26a45.47,45.47,0,0,1-4.82.51m4.82-.51H5m20.85,9.81a68.62,68.62,0,0,1-13.55,2.37m0,0A91.14,91.14,0,0,1,.13-17m25.7-2.48A43.21,43.21,0,0,0,31-21.29m2.07,1.5c-7.34,4.82-18.59,6-30.19,5.39m0,0q-2.18-.12-4.35-.3M21.35-43.11A82,82,0,0,1-1.46-38m4.79,5a36.7,36.7,0,0,1-4.71.35M8.63-34a60.45,60.45,0,0,0,7.8-2.6M21.48-39c-1.63.85-3.33,1.64-5.05,2.35M21.48-39c1.61-.83,3.16-1.73,4.63-2.67M8.63-34a47.62,47.62,0,0,1-5.3,1m22.78-8.66c.87-.57,1.72-1.15,2.53-1.74m-1.93,29c-11.44,4.82-20,2.87-28.17,2.82M35-18.85l0,0q-1.77,1.14-3.45,2.07m-4.76,2.32a49.14,49.14,0,0,0,4.76-2.32m.74-22a76.65,76.65,0,0,0,11.86,3.82M32.21-38.77c-2.05-.86-4.08-1.82-6.1-2.9m0,0-.17-.09m18.13,6.81a90.26,90.26,0,0,0,9,1.66c13,1.74,21.16.81,27.28.79M29.13-23.36l.09.12M36-18.33l-1-.49m0,0a15.08,15.08,0,0,1-5.7-4.42M36-18.33a41.3,41.3,0,0,0,4.1,1.57c6.52,2.12,14.78,3.38,22.52,4.12l2.1-.06M54.44-23.43c10.78-1.63,20.67-4.68,26.44-9.07M54.44-23.43a97,97,0,0,1-13.28,1.2M23-24.25c-3.13-.59-6.3-1.29-9.32-2.1M23-24.25c2.1.39,4.19.73,6.2,1a91.76,91.76,0,0,0,11.94,1M13.7-26.35a74,74,0,0,1-8.81-2.91m0,0a28.23,28.23,0,0,1-6.27-3.4M23.3-3A114.72,114.72,0,0,1,9.89-6.23m0,0C5.21-7.71,1.15-9.48-1.46-11.49m83.66,1-1.61-1.07C72.45-6,59.24-3,59.24-3c-2.76.51-5.47.93-8,1.25A84.51,84.51,0,0,1,41.16-1L39.77-1c-2.14-.06-4.73-.26-7.57-.6M23.3-3c3.08.56,6.11,1,8.9,1.34M21.11-42.8l1.7,3M10.9-39.92l1.32,4.76M2.13-32.9l-.62-5.39m16.41-3.57L17.53-43m-11,1.24v0l.56,2.49m4.34-4.12.11.61M2.38-41.17l-.29-2.66"/><path class="cls-2" d="M72.35.85a62,62,0,0,1-13.92-3.6"/><line class="cls-2" x1="72.26" y1="-2.56" x2="71.69" y2="0.85"/><path class="cls-2" d="M-41.17-30.34l-.5-3m0,0h0M-53.7-25v0m0,0-.12,1.66m-24.5-9.26v0m-1.3,2.23,1.3-2.23m10.72,6.36.32-1.37m-7-2.76,1.56-2.74m0,0h0m11.84,7,.36-2.06v-.07M-51-27.08v-2.76m-15.73-3.87h0m0,0L-68-30.46m12.2-3.21-.49,3.21m.49-3.21v0m-5.51-1.19L-60-38.66m10,5.51.06-3.07m-5.76-1.19.5-2.17m0,0v0m-22,13.09.43,2.48m-.43-2.48v0m5.52,1.39,1.06,4.25m-1.06-4.25h0m7.22,2.75v-.06m0,.06,1.12,4.33m-12.85-2.05.13,3.17m-.13-3.17v0m6.21,3v0m0,0,.31,2.66m13.22-5.08v.05l.8,2.58m-8.64,2.07L-63.6-12M-79.32-14.5v.1l.06,2.91m33-6.84v-.05m0,.05v2.08m-3.82,2.76.56-2.88m6.58-.19.62,3.32m12.6,1.06L-30.39-14M-43.92-9.93l.06-3.13M-56.39-10.8l1.19-3.56m0,0h0M-53.64-7h0m0,0,.44-3.06m12.66,0v0m0,0,.31,3.85m10.46-1.5-.94-4.07m-6.07,5.41.25,2.79m-.25-2.79v0M-49.63-4l.19-2.44m-17.35-.83.88-2.62m-.88,2.62h0M-74.43-10-75.5-7.36m11.59.88-.5,2.25m12-.1v0m0,0L-52.57-2m12.84-1.44.13,2.38m12.53-3.43.37,2.12m-.37-2.12h0M-78-1.3v.08m0,0,.14,2.2m-3.07-5.79L-81-1.56m25.48.67-.26-1.5m-7.76-.36v-.14m0,.14v2m-10.19-3V-.92m0-2.78v0M-67-4.39-66.87-3m-10.53-3-.17,1.56m.17-1.56v0m5.09-.25v-.08m0,.08L-72.47-5M-78-1.22c-1.93-.16-3.83-.34-5.68-.56M-50-1.63c-3.56.91-10.58,1.2-18.37.95l-5.34-.24C-75.14-1-76.57-1.1-78-1.22m28-.41.13,0M-63.53-2.75a97.1,97.1,0,0,1-10.19-1m0,0c-3.39-.47-6.86-1.09-9.94-1.77m20.13,2.72A21.78,21.78,0,0,0-58.9-3m0,0h0m-18.5-3a63,63,0,0,1-6.26-1.89m6.26,1.89A52.74,52.74,0,0,0-65.66-4.38m-10-37.4c2.57-.45,4.3-.8,6.71-1.42m-6.71,1.42c-2.68.47-5.39.82-8,1M-27.07-4.53a86.75,86.75,0,0,1-25.31.2,99.09,99.09,0,0,1-14.41-3m0,0c-4.75-1.38-8.24-2.86-9.77-3.93m49.49,6.71a60,60,0,0,0,10.9-2.88S-10.8-10-6.73-12.16m-30,5.77A69.52,69.52,0,0,1-53.64-7m16.86.66A36.18,36.18,0,0,0-24.44-9.55s4.55-1.91,8.9-3.9M-53.64-7a63.1,63.1,0,0,1-15.5-4.19m43.51-2.07a69.06,69.06,0,0,1-14.91,3.23m0,0c-9,.93-16.93-.06-20.05-2.57m26.6-2a39.75,39.75,0,0,1-21.21.26m-.31-.07h0m0,0,.3.07m13.06-2.4.06,0m-.06,0c-1.55.37-5.73,1.17-8.6,0m0,0-.08,0m40.49-15.43c-4.45,3.31-6.4,4-6.4,4a91.9,91.9,0,0,1-18.8,3.33M-78.88-33l.55.38M-53.7-25a103.07,103.07,0,0,0,18.17.14M-78.91-33l0,0m25.18,8c-9.39-.94-18.21-3.34-24.63-7.58M-73.58-34a7.77,7.77,0,0,0,.83.91M-43-26.87A68.9,68.9,0,0,0-25.1-29.41a60.2,60.2,0,0,0,6.15-2.9M-73.58-34l-.07-.11m.9,1c2.36,2.24,6.8,3.89,12.21,4.94A84.4,84.4,0,0,0-43-26.87m14-6.42c-16.33,6.07-31.12,3.15-37.64-.42m37.64.42.08,0m-40.13-2.07a11.93,11.93,0,0,0,2.41,1.67m10.89,0a30.18,30.18,0,0,1-9.94-3m9.94,3a56.53,56.53,0,0,0,14.17.33m5.23-1.1a25,25,0,0,1-5.23,1.1m-24.11-3.31-.07,0m21.14-.1c-7.08,1.49-9.73-.34-16-2.21l-.15,0m10.88.27a49.79,49.79,0,0,1-5.15-.81m0,0A17.31,17.31,0,0,1-58-40.45M-50-38.77h.11M0-11.65C-13.56-12-35.4-18.47-41.23-22.23m13,8.52A42.75,42.75,0,0,1-45.44-21.2m-1.74-1.34c.57.45,1.15.9,1.74,1.34m7.3-13.75c-3.26-1.54-8.52-5.41-12-8.46m12,8.46.29.14m-2.06-5.46a31.75,31.75,0,0,0,13.34,7.15m-13.34-7.15c-1.34-1.16-2.45-2.4-3.34-3.29m4.34.05a46,46,0,0,0,7.77,4.75M-1.61-32.5c-14.33-1.11-21.9-2.73-29.53-6.26m3.38,15.33,0,0M0-17.08c-8.93-.9-21.39-3-27.18-6.05m-.55-.3.55.3M0-14.5c-10.3-.5-23.49-4.25-23.49-4.25-6-1.36-10.83-2.72-13.58-3.57m-40-4.17a32.56,32.56,0,0,0,4.22-1.09m-4.22,1.09a20.59,20.59,0,0,1-6.54.23M-32.21-44a32.62,32.62,0,0,0,7.67,4s14.31,2.56,23,2,1.43-.1,1.43-.1m-59.1,13.93.1,0m-17,4.18a47.25,47.25,0,0,1-7.53,0m7.53,0A53.55,53.55,0,0,0-64.4-22.39m5.21-1.86c-1.76.71-3.49,1.33-5.21,1.86m-7.21-2.74a32.76,32.76,0,0,1-12,1.53m12-1.53a28.86,28.86,0,0,0,3.1-1.22m0,0h0m-8.8-2.91a45.63,45.63,0,0,1-4.83.51m4.83-.51h.09m20.84,9.81a68.65,68.65,0,0,1-13.54,2.37m0,0A91.31,91.31,0,0,1-82.08-17m25.7-2.48a43.37,43.37,0,0,0,5.19-1.83m2.07,1.5c-7.34,4.82-18.59,6-30.2,5.39m0,0c-1.44-.08-2.9-.18-4.34-.3m22.81-28.41A82.12,82.12,0,0,1-83.66-38m4.78,5a36.7,36.7,0,0,1-4.71.35m10-1.39a60,60,0,0,0,7.8-2.6M-60.72-39c-1.64.85-3.33,1.64-5.06,2.35M-60.72-39c1.6-.83,3.15-1.73,4.62-2.67M-73.58-34a46.74,46.74,0,0,1-5.3,1m22.78-8.66c.88-.57,1.73-1.15,2.54-1.74m-1.94,29c-11.43,4.82-20,2.87-28.16,2.82m36.41-7.24,0,0q-1.77,1.14-3.45,2.07m-4.76,2.32a47,47,0,0,0,4.76-2.32m.75-22a76.54,76.54,0,0,0,11.85,3.82M-50-38.77c-2-.86-4.09-1.82-6.11-2.9m0,0-.17-.09m18.13,6.81a90.26,90.26,0,0,0,9.05,1.66c13,1.74,21.17.81,27.29.79m-51.27,9.14.08.12m6.75,4.91c-.36-.16-.71-.32-1-.49m0,0A15.08,15.08,0,0,1-53-23.24m6.75,4.91a40.37,40.37,0,0,0,4.1,1.57c6.52,2.12,14.78,3.38,22.51,4.12l2.1-.06M-27.76-23.43C-17-25.06-7.1-28.11-1.33-32.5m-26.43,9.07A97.14,97.14,0,0,1-41-22.23m-18.15-2c-3.12-.59-6.29-1.29-9.32-2.1m9.32,2.1c2.11.39,4.2.73,6.2,1a91.75,91.75,0,0,0,12,1m-27.47-4.12a73.21,73.21,0,0,1-8.8-2.91m0,0a28.32,28.32,0,0,1-6.28-3.4M-58.9-3A114.23,114.23,0,0,1-72.31-6.23m0,0C-77-7.71-81.06-9.48-83.66-11.49M0-10.52l-1.61-1.07C-9.76-6-23-3-23-3c-2.75.51-5.47.93-8,1.25A84.51,84.51,0,0,1-41-1l-1.4,0c-2.13-.06-4.72-.26-7.57-.6M-58.9-3c3.08.56,6.11,1,8.89,1.34M-61.09-42.8l1.69,3m-11.9-.13L-70-35.16M-80.07-32.9l-.63-5.39m16.41-3.57L-64.67-43m-11,1.24v0l.56,2.49m4.34-4.12.11.61m-9.21,1.63-.3-2.66"/></svg>