<svg id="Capa_1" data-name="Capa 1" xmlns="http://www.w3.org/2000/svg" xmlns:xlink="http://www.w3.org/1999/xlink" viewBox="0 0 54 43.2"><defs><style>.cls-1,.cls-3{fill:none;}.cls-2{clip-path:url(#clip-path);}.cls-3{stroke:#000;stroke-width:0.3px;}.cls-4{clip-path:url(#clip-path-2);}.cls-5{clip-path:url(#clip-path-3);}.cls-6{clip-path:url(#clip-path-4);}</style><clipPath id="clip-path"><rect id="SVGID" class="cls-1" y="8.52" width="26.64" height="34.68"/></clipPath><clipPath id="clip-path-2"><rect id="SVGID-2" data-name="SVGID" class="cls-1" x="26.44" y="8.52" width="27.56" height="34.68"/></clipPath><clipPath id="clip-path-3"><rect id="SVGID-3" data-name="SVGID" class="cls-1" width="26.64" height="8.67"/></clipPath><clipPath id="clip-path-4"><rect id="SVGID-4" data-name="SVGID" class="cls-1" x="26.44" width="27.56" height="8.67"/></clipPath></defs><title>635 Caliza oolitica</title><g class="cls-2"><path class="cls-3" d="M26.64,40.82a1,1,0,1,0,0,1.08m0-8.94a1,1,0,0,0-.14.5.92.92,0,0,0,.14.5m0-8.57h0a1,1,0,1,0,0,1.91h0m0-18a1,1,0,0,0-.34-.06,1,1,0,1,0,0,1.91,1,1,0,0,0,.34-.06M21.29,29.73a1,1,0,1,0-1,1A1,1,0,0,0,21.29,29.73Zm-14.14,1a1,1,0,1,0-1-1A1,1,0,0,0,7.15,30.69ZM11,41.36a1,1,0,1,0,1-1A1,1,0,0,0,11,41.36Zm7.28-3.88a1,1,0,1,0,1-1A1,1,0,0,0,18.24,37.48Zm-13.17,0a1,1,0,1,0,1-1A1,1,0,0,0,5.07,37.48Zm7.65-4a1,1,0,1,0,1-1A1,1,0,0,0,12.72,33.46Zm-13.93,0a1,1,0,0,0,1,1,1,1,0,0,0,1-1,1,1,0,0,0-1-1A1,1,0,0,0-1.21,33.46ZM13,26.34a1,1,0,1,0-1,1A1,1,0,0,0,13,26.34Zm6.57-2.7a1,1,0,1,0-1-1A1,1,0,0,0,19.58,23.64Zm-12.35-1a1,1,0,0,0-1.91,0,1,1,0,1,0,1.91,0Zm7.66-4.08a1,1,0,1,0-1,.95A1,1,0,0,0,14.89,18.6ZM.71,18.6a1,1,0,0,0-1-1,1,1,0,0,0-1,1,1,1,0,0,0,1,.95A1,1,0,0,0,.71,18.6Zm20.58-4.21a1,1,0,1,0-1,.95A1,1,0,0,0,21.29,14.39Zm-15.6,0a1,1,0,1,0,1-1A1,1,0,0,0,5.69,14.39Zm5.52-4.19a1,1,0,1,0,1-1A1,1,0,0,0,11.21,10.2ZM.47,43.56v3.17m14.2-3.17v3.17m4.22-7.39v4.15M4.58,39.34v4.15m21.2-4.21V35.53m-13.28,0v3.75m8.65-7.87h0v4M6.23,31.41h0v4M26.49,28v3.42m0-3.42v0m-12.8,0v3.42m0-3.42v0M-.11,28v0m0,0v3.42M4.36,24.7V28m0-3.27v0M19,24.7v0m0,0V28m6.88-3.31v-4m0,0v0m-13.3,4v-4m0,0v0m8.66,0V16.59m-15,4.06V16.59m20.15-4.31v4.17m0-4.17v-.06m-12.87,0v.06m0,4.17V12.28M-.11,12.22v4.23M19,8.52v3.76m-14.43,0V8.52m-32.3,35H26.64m-54.33-4.22H26.64m-54.33-3.81H26.64m-5.49-4.06H6.23m0,0H-7.45m34.09,0H21.15M13.69,28H-.11m13.8,0h12.8M-.11,28H-15.17m41.66,0h.15M-8.94,24.7H4.36M19,24.7H4.36M19,24.7h7.6m-27.44-4H25.92m0,0h.72m0-4.2H-27.69m32.3-4.19H-.11m19.15,0H13.57m-9,0h9m12.87,0H19m7.4,0h.2m-26.75,0H-8.94"/></g><g class="cls-4"><path class="cls-3" d="M46.73,30.69a1,1,0,1,0-1-1A1,1,0,0,0,46.73,30.69Zm4.18,10.67a1,1,0,1,0,1-1A1,1,0,0,0,50.91,41.36Zm-13.3,0a1,1,0,1,0,1-1A1,1,0,0,0,37.61,41.36Zm-11.17.54a1,1,0,0,0,0-1.08m18.07-3.34a1,1,0,1,0,1-1A1,1,0,0,0,44.51,37.48Zm-13.67,0a1,1,0,1,0,1-1A1,1,0,0,0,30.84,37.48Zm22.08-4a1,1,0,1,0,1.91,0,1,1,0,0,0-1.91,0Zm-13.8,0a1,1,0,1,0,1.91,0,1,1,0,0,0-1.91,0ZM26.44,33a1,1,0,0,1,.81-.45,1,1,0,1,1,0,1.91.93.93,0,0,1-.81-.46m5.15-4.23a1,1,0,1,0,1-1A1,1,0,0,0,31.59,29.73Zm19.32-3.39a1,1,0,1,0,1-.95A1,1,0,0,0,50.91,26.34Zm-13,0a1,1,0,1,0,1-.95A1,1,0,0,0,37.86,26.34Zm-11.42,1a1,1,0,0,0,0-1.91M46.8,22.68a1,1,0,0,0-1.91,0,1,1,0,1,0,1.91,0Zm-13.8,0a1,1,0,0,0-1.91,0,1,1,0,1,0,1.91,0ZM54.83,18.6a1,1,0,1,0-.95.95A1,1,0,0,0,54.83,18.6ZM41,18.6a1,1,0,1,0-1,.95A1,1,0,0,0,41,18.6Zm-12.39,0a1,1,0,1,0-1,.95A1,1,0,0,0,28.64,18.6ZM46,14.39a1,1,0,1,0,1-1A1,1,0,0,0,46,14.39Zm-14.43,0a1,1,0,1,0,1-1A1,1,0,0,0,31.59,14.39ZM53,10.2a1,1,0,1,0-1.91,0,1,1,0,0,0,1.91,0Zm-13.17,0a1,1,0,1,0-1,1A1,1,0,0,0,39.78,10.2Zm-13.34.89a1,1,0,0,0,.62-.89,1,1,0,0,0-.62-.9M27,43.56v3.17m12.46-3.17v3.17m15.18-3.17v3.17M45,39.34v4.15M32,39.34v4.15m6.21-8v3.75m15.06-3.75v3.75m-6.58-7.87h0m0,0v4M33.12,31.41h0m0,0v4M54,28v0m0,0v3.42M39,28v0m0,0v3.42M32.38,24.7v0m0,0V28m12.8-3.27v0m0,0V28m-6.79-3.31v-4m14.93,0v4m0-4v0m-6.52,0V16.59M33.5,20.65V16.59M54,12.22v4.23M39.08,12.28v-.06m0,.06v4.17m6.1-7.93v3.76M32.38,8.52v3.76M26.44,43.51H80.76M26.44,39.29H80.76M26.44,35.48H80.76M33.12,31.42H26.44m33.91,0H46.67m0,0H33.12M67.82,28H54m0,0H39m0,0H26.44M45.18,24.7H32.38m0,0H26.44m18.74,0h13.3m-5.16-4H66.75m-13.43,0H38.39m-11.95,0h12m42.37-4.2H26.44m32.29-4.19H54m-14.93,0h-6.7m-5.94,0h5.94m6.7,0h6.1m8.83,0H45.18"/></g><g class="cls-5"><path class="cls-3" d="M17.11,6.24a1,1,0,1,0,1-1A1,1,0,0,0,17.11,6.24ZM5,6.24a1,1,0,1,0-1,1A1,1,0,0,0,5,6.24Zm5.61-3.83a1,1,0,1,0,1-1A1,1,0,0,0,10.59,2.41Zm13.9,0a1,1,0,1,0,1-1A1,1,0,0,0,24.49,2.41ZM18.62.06V4.42M4,.06V4.42M24.24,7.9V7.83m0-3.41V7.83m-13.43,0V7.9m0-.07V4.45m0,0v0m0,0H24.24m-13.43,0H-2.86m29.5,0h-2.4m2-4.43V-3.71m0,3.73v0M12.74,0v0m0,0V-3.71M19,8.67V7.83m0,0h0M4.61,8.67V7.83m0,0h0m-7.47,0H4.61m6.2,0H4.61m6.2,0H24.24m2.4,0h-2.4M-1.18,0H26.64"/></g><g class="cls-6"><path class="cls-3" d="M43.13,6.24a1,1,0,1,0,1-1A1,1,0,0,0,43.13,6.24Zm-13.05,0a1,1,0,1,0,1-1A1,1,0,0,0,30.08,6.24ZM50.16,2.41a1,1,0,1,0,1-1A1,1,0,0,0,50.16,2.41Zm-12.47.95a1,1,0,1,0-1-.95A1,1,0,0,0,37.69,3.36ZM44.07.06V4.42M31,.06V4.42M51.26,7.9V7.83m0-3.38V7.83m0-3.38v0m-14.49,0v0m0,3.45V7.83M26.44,4.45H36.77V7.83M64.94,4.45H36.77m1.57-8.16V0m0,0v0m14.6,0v0m0,0V-3.71M45.18,7.83v.84m0-.84h0m-12.8.85V7.83m0,0h0m12.8,0h6.08m0,0h7.47m-13.55,0H36.77m-10.33,0H36.77M52.94,0H26.44m26.5,0H66.87"/></g></svg>