<svg id="Capa_1" data-name="Capa 1" xmlns="http://www.w3.org/2000/svg" xmlns:xlink="http://www.w3.org/1999/xlink" viewBox="0 0 54 43.2"><defs><style>.cls-1,.cls-3,.cls-4{fill:none;}.cls-2{clip-path:url(#clip-path);}.cls-3,.cls-4{stroke:#000;}.cls-3{stroke-width:0.3px;}.cls-4{stroke-linecap:round;stroke-width:0.7px;}.cls-5{clip-path:url(#clip-path-2);}.cls-6{clip-path:url(#clip-path-3);}.cls-7{clip-path:url(#clip-path-4);}</style><clipPath id="clip-path"><rect id="SVGID" class="cls-1" y="30.21" width="37.89" height="12.99"/></clipPath><clipPath id="clip-path-2"><rect id="SVGID-2" data-name="SVGID" class="cls-1" x="37.69" y="30.21" width="16.32" height="12.99"/></clipPath><clipPath id="clip-path-3"><rect id="SVGID-3" data-name="SVGID" class="cls-1" width="37.89" height="30.36"/></clipPath><clipPath id="clip-path-4"><rect id="SVGID-4" data-name="SVGID" class="cls-1" x="37.69" width="16.32" height="30.36"/></clipPath></defs><title>636 Caliza arenosa</title><g class="cls-2"><path class="cls-3" d="M37.17,42.34v4m-26.72-4v4m13.42-4v4m8.66-8.07v4.06m-15-4.06v4.06M3.92,38.28v4.06M37.69,33.9v4.24M24.82,33.9v4.24M11.14,33.9v4.24m19.15-7.93V34M15.86,30.21V34M2.31,30.21V34m-18.75,8.38H37.89m-54.33-4.2H37.89M-16.44,34H37.89"/><path class="cls-4" d="M35.09,33.13h0m-3.18-2.26h0m-3.77,2.26h0m-3.26-1.92h0M21.62,33.3h0m-3.35-2.43h0M32.08,43.41h0m-6.28,0h0m-7.19-.08h0m-6.69.29h0m-7.78-.29h0M30,41.11h0m-4-1.75h0M22.33,41h0m-3.51-1.51h0m-3.89,1.26h0m-3-1.68h0m-3.14,1.8h0m-3-1.8h0M2,41.4H2m-2.46-2h0m37.43,1.88h0m-2.76-2h0m2.09-2.51h0m-3.39-1.5h0m-3,1.63h0M26.6,35.47h0m-3.73,1.67h0M19.82,35.6h0M15.68,37h0M13,35.14h0M8.91,36.85h0M4.39,35.22h0M1,36.85H1m12.34-3.72h0m-3.6-1.92h0M6.31,32.88h0M3.89,31.29h0M.29,32.8h0"/></g><g class="cls-5"><path class="cls-3" d="M49.64,42.34v4m-4.89-8.07v4.06m5.58-8.44v4.24m-6.7-7.93V34m-5.94,8.38H92m-54.32-4.2H92M37.69,34H92"/><path class="cls-4" d="M51.24,43.74h0m-5.9,0h0m-6.27.13h0m14.55-4.51h0m-3.51,1.75h0m-3.64-1.88h0m-4.18,2.09h0M39.36,39h0m-.84-7.77h0m2.68,2h0m-2.09,2h0M42,36.85h0m3.1-1.63h0m2.67,1.92h0M52,35.3h0m3.14,1.55h0m-.71-4.05h0M51,31h0m-3.52,1.92h0M45.05,31h0"/></g><g class="cls-6"><path class="cls-3" d="M29.87,21.75v4.36M15.25,21.75v4.36m-14-4.36v4.36m34.29,0v3.47M22.06,26.11v3.47M8.39,26.11v3.47m-24.83-3.44H37.89M37.5,18v3.77M10.07,18v3.77M24,18v3.77m8.38-7.4v3.58M17.45,14.35v3.58M3.77,14.35v3.58m8-6.81v3.17m14.2-3.17v3.17m4.22-7.38v4.15M15.83,6.91v4.15M2.15,6.91v4.15M37,3.1V6.84M10.37,3.1V6.84M23.75,3.1V6.84M32.41-1V3M17.48-1V3M3.8-1V3M30.29,29.51v.85m-14.43-.85v.85M2.31,29.51v.85m-18.75-.84H37.89M-16.44,14.3H37.89m-54.33-3.23H38M-16.44,6.86H37.89M-16.44,3.05H37.89M-16.44,21.71H37.89m-54.33-3.78H38"/><path class="cls-4" d="M22,5.92h0M19.61,4.16h0M15.43,6h0M12.08,4.24h0M7.57,5.92h0M3.89,4.08h0M.29,5.92h0M-.46.07h0M2.13,1.65h0M5.73.32h0m2.8,1.46h0M12.34.32h0M14.93,1.9h0m8.7-.16h0M19.11.32h0M27.22.23h0M21.2,10h0M18.11,8.09h0M9,12.18H9m-5.27.5h0m-4.39.26h0m37.77,3.38h0M1.5,16.57h0m4.14-1.38h0M10,16.36h0m4.69.17h0m4.39-1.21h0m5.48.88h0m5.94.37h0m3.18-1h0M.25,9.68h0M4.05,8h0m6.11,0h0M6.9,9.8h0m6.52-.12h0m.25,3.13h0m5-.75h0m4.9.75h0m12.79,0h0m-3.89-.63h0m-3.89.63h0m4.15,14.92h0m-4.35.33h0m-4.31-1h0M20.2,28.36h0M16.94,27.1h0m-3.77,1.38h0M9.78,27.23h0m-3.13,1h0M1.8,27.39h0m34.71-.29h0m-1.34-2h0M32.08,22.8h0M28,24.59h0m-3.6-1.79h0m-3.93,2.05h0M17.27,22.8h0m-4.1,2.05h0M9.74,22.71h0m-4,2.14h0M2.88,22.63h0M-1,25h0m36.63-4.26h0m-3.09-1.92h0M29,20.58h0m-3-1.79h0m-4.14,1.54h0M18.94,18.7h0m-4.51,1.76h0M12,18.87h0M7.53,20.46h0M4.22,18.87h0m-4,1.84h0M25,7.92h0m3.27,1.76h0m6.4-.13h0M31.57,7.92h0m3.27-2.17h0M31.66,4h0M28.23,5.83h0M25.47,4h0m5.18-2h0m5.86-.09h0M33.5,0h0"/></g><g class="cls-7"><path class="cls-3" d="M42.27,21.75v4.36m5.75,0v3.47M37.69,26.14H92M49.59,18v3.77m-5-7.4v3.58m-6.4-6.81v3.17m12.46-3.17v3.17M43.23,6.91v4.15m6.21-8V6.84M44.37-1V3m-.74,26.48v.85m-5.94-.84H92M37.69,14.3H92M37.69,11.07H92.08M37.69,6.86H92M37.69,3.05H92M37.69,21.71H92M37.69,17.93H92.08"/><path class="cls-4" d="M54.42,5.92h0M51.4,4h0M47.56,5.92h0M44.38,4.24h0m-3.18,2h0M38.56,4.16h0M39.07.28h0M42.45,1.9h0M46.22.4h0M50.07,2h0M53.66.07h0M53.5,12.94h0m-5.27.37h0m-2,2.72h0m5-.34h0m-11.3-.25h0m3.27,1.09h0m.5-4.35h0m-4.14.63h0m-1.3-5h0m2.85,2h0m4-1.83h0m3.18,2.09h0m3-2.09h0m3,1.67h0M50.23,27.39h0m-4,.67h0m-3.1-1.17h0m-4.3,1.47h0M53.16,25h0M50.4,22.46h0m-3.3,2.26h0m-2.89-2h0m-4.14,2h0m14.26-4h0m-3-1.92h0m-3.51,2h0m-3.6-1.42h0M39,20.21h0"/></g></svg>