<svg id="Capa_1" data-name="Capa 1" xmlns="http://www.w3.org/2000/svg" xmlns:xlink="http://www.w3.org/1999/xlink" viewBox="0 0 53.99 39.16"><defs><style>.cls-1,.cls-2,.cls-4,.cls-7{fill:none;}.cls-2,.cls-4,.cls-7{stroke:#000;}.cls-2{stroke-width:0.8px;}.cls-3{clip-path:url(#clip-path);}.cls-4{stroke-width:0.3px;}.cls-5{clip-path:url(#clip-path-2);}.cls-6{clip-path:url(#clip-path-3);}.cls-7{stroke-linecap:round;stroke-width:0.7px;}.cls-8{clip-path:url(#clip-path-4);}.cls-9{clip-path:url(#clip-path-5);}.cls-10{clip-path:url(#clip-path-6);}</style><clipPath id="clip-path"><rect class="cls-1" x="-33.53" y="28.31" width="16.32" height="12.99"/></clipPath><clipPath id="clip-path-2"><rect class="cls-1" x="-33.53" y="-1.89" width="16.32" height="30.36"/></clipPath><clipPath id="clip-path-3"><rect class="cls-1" x="-0.01" y="31.38" width="17.49" height="9.93"/></clipPath><clipPath id="clip-path-4"><rect class="cls-1" x="17.28" y="31.38" width="36.72" height="9.93"/></clipPath><clipPath id="clip-path-5"><rect class="cls-1" x="-0.01" y="-1.89" width="17.49" height="33.43"/></clipPath><clipPath id="clip-path-6"><rect class="cls-1" x="17.28" y="-1.89" width="36.72" height="33.43"/></clipPath></defs><title>637 Caliza limosa</title><polygon class="cls-2" points="71.29 181.65 71.29 -417.15 -444.54 -417.15 -444.54 181.68 71.29 181.65"/><g class="cls-3"><path class="cls-4" d="M-21.57,40.45v4m-4.9-8.07v4.06M-20.88,32v4.24m-6.7-7.94v3.76m-6,8.39H20.8m-54.33-4.2H20.8m-54.33-4.19H20.8"/></g><g class="cls-5"><path class="cls-4" d="M-28.94,19.86v4.36m5.74,0v3.47m-10.33-3.45H20.8m-42.43-8.16v3.78m-5-7.4V16M-33,9.23V12.4m12.46-3.17V12.4M-28,5V9.16m6.21-8V5m-5.07-7.87V1.14m-.74,26.48v.85m-6-.84H20.8M-33.53,12.41H20.8M-33.53,9.17H20.86M-33.53,5H20.8M-33.53,1.15H20.8M-33.53,19.82H20.8M-33.53,16H20.86"/></g><g class="cls-6"><path class="cls-7" d="M.45,37.35h0m.51,4H1m6.86,0h0m-3.18,0h0m9.7-8.31h0m2.34,0h0"/><path class="cls-4" d="M14.54,41.39h2.82M7.26,37.31h7.28M-.89,33H6.38m5.68,6.41v4.06m5.16-8.44v4.24M4.34,35.07v4.24m5.47-7.93v3.76m-46.72,4.18H17.42m-54.33-4.18H17.42"/></g><g class="cls-8"><path class="cls-7" d="M48.67,37.35h0m6,0h0m-34.47,0h0m35,4h0m-27.27,0h0m6.19,0h0m-3,0h0m-4.75-4h0m-2.95,0h0m28.44,0h0M19.23,33.07h0m26.3,0h0m-5.89,0h0m3.13,0h0"/><path class="cls-4" d="M17.28,41.39h4.5m19.15,0h7.28M33.65,37.31h7.28M53.35,33h7.28M26.12,33H33.4m17.91,6.41v4.06M37.7,39.45v4.06M24.4,39.45v4.06m20.51-8.44v4.24M30,35.07v4.24m19.65-7.93v3.76M36.08,31.38v3.76m-12.8-3.76v3.76m-6,4.18H71.66M17.33,35.14H71.66"/></g><g class="cls-9"><path class="cls-7" d="M13.17,10.22h0m3.18,0h0m-3.18,15h0m3.18,0h0M5.17,29h0m6.19,0h0m-3,0h0m-8.56-8h0M1.63,17.4h0m6.19,0h0m-3,0h0m4-3.51h0m6.19,0h0m-3,0h0M-.21,6.21h0m1.67-4h0m6.19,0h0m-3,0h0M.79-1.62h0"/><path class="cls-4" d="M14.54,17.46h2.82M-1.47,25.23H5.81M6.94,21.1h7.27M-5.11,13.84H2.17M-1,10.08H6.31m.12-4h7.28m.88-3.76h2.79M7.44-1.58h7.28M9.4,22.92v4.36m5.62,0v3.48M1.59,27.28v3.48m-38.5-3.45H17.42M17,19.15v3.77M3.52,19.15v3.77m8.39-7.4V19.1M5.45,12.29v3.17M9.66,8.08v4.15m6.9-8V8M3.28,4.27V8M11.93.14V4.2m5.34-7.49V.14M4.47-3.29V.14M9.81,30.68v.85m-46.72-.84H17.42M-36.91,15.47H17.42m-54.33-3.23H17.48M-36.91,8H17.42M-36.91,4.22H17.42M-36.91.15H17.42M-36.91,22.88H17.42M-36.91,19.1H17.48"/></g><g class="cls-10"><path class="cls-7" d="M19.73,10.22h0m-.67,15h0M32.28,29h0m6.19,0h0m-3,0h0m3.85-3.8h0m6.19,0h0m-3,0h0m5.36-4.11h0m6.19,0h0m-3,0h0m-31.12,0h0m6.19,0h0m-3,0h0m5-3.68h0m6.19,0h0m-3,0h0m3.84-3.51h0m6.19,0h0m-3,0h0m1.51-3.67h0m6.19,0h0m-3,0h0m-23.42-4h0m6.18,0h0m-3,0h0m25.1,0h0m6.19,0h0m-3,0h0m-23.26-4h0m6.19,0h0m-3,0h0M20.23-1.62h0m6.19,0h0m-3,0h0m25.43,0h0m6.19,0h0m-3,0h0"/><path class="cls-4" d="M17.34,2.31H20M45.37,29h7.28m.12-3.77h7.28M17.28,17.46h3.87M20.53,14H27.8m-2-3.76h7.27m.13-4h7.28m.25-4H48M33.32-1.59H40.6M17.52,29.06h7.27m-.12-3.69h7.27M32.82,21H40.1M41,17.35h7.28m.87-3.51h7.28m-3.14-3.76h7.28M49,22.92v4.36M35,22.92v4.36m-13-4.36v4.36m20.24,0v3.48M27.67,27.28v3.48M17.33,27.31H71.66M29.23,19.15v3.77m14.61-3.77v3.77m7.38-7.4V19.1M37.54,15.52V19.1m-13.3-3.58V19.1m-6.4-6.81v3.17m12.47-3.17v3.17m15.18-3.17v3.17M49.6,8.08v4.15M35.93,8.08v4.15m-13-4.15v4.15m6.21-8V8M44.14,4.27V8M51.25.14V4.2M37.57.14V4.2M24,.14V4.2M44.91-3.29V.14M29.85-3.29V.14M49.63,30.68v.85m-13.55-.85v.85m-12.8-.85v.85m-6-.84H71.66M17.33,15.47H71.66M17.33,12.24H71.72M17.33,8H71.66M17.33,4.22H71.66M17.33.15H71.66M17.33,22.88H71.66M17.33,19.1H71.72"/></g></svg>