<svg id="Capa_1" data-name="Capa 1" xmlns="http://www.w3.org/2000/svg" xmlns:xlink="http://www.w3.org/1999/xlink" viewBox="0 0 54.25 45.75"><defs><style>.cls-1,.cls-2,.cls-3{fill:none;}.cls-2,.cls-3{stroke:#000;}.cls-2{stroke-width:0.8px;}.cls-3{stroke-width:0.3px;}.cls-4{clip-path:url(#clip-path);}</style><clipPath id="clip-path"><rect class="cls-1" x="71.07" y="0.27" width="8.82" height="43.2"/></clipPath></defs><title>638 Caliza lutítica o arcillosa</title><polygon class="cls-2" points="498.4 90.92 498.4 -507.88 -17.43 -507.88 -17.43 90.94 498.4 90.92"/><path class="cls-3" d="M24.72,32.46h2.83M24.72,2.26h2.83M1.31,44H8.59m.12-3.76H16m1.13-4.14H24.4M-3.33,17.16H4m-7,15.19H4.2m.88-3.51h7.27M9.22,25.07h7.27m.13-4H23.9m.87-3.76h2.8m-9.95-3.88H24.9M8.84,10h7.28M3.57,6.52h7.28m-14-4.26H4.15M19.58,37.92v4.36M5,37.92v4.36m20.24,0v3.47M11.78,42.28v3.47M-26.73,42.3H27.6m-.39-8.16v3.78M-.22,34.14v3.78m13.93-3.78v3.78m8.38-7.4v3.57M7.16,30.52v3.57m-5.73-6.8v3.17m14.2-3.17v3.17m4.22-7.39v4.15M5.54,23.07v4.15m21.2-8V23M.09,19.26V23m13.37-3.75V23m8.66-7.87V19.2M7.19,15.14V19.2m20.26-7.5v3.44M14.65,11.7v3.44M.85,11.7v3.44M5.32,8.39V11.7M20,8.39V11.7m6.89-7.32v4M.16,4.38v4m13.43-4v4M22.24.32V4.38M7.25.32V4.38M27.4-4V.18M14.53-4V.18M.85-4V.18M-26.73,30.47H27.6m-54.33-3.24H27.66M-26.73,23H27.6m-54.33-3.81H27.6m-54.33-4.06H27.6m-54.33-3.43H27.6m-54.33-3.3H27.6M-26.73,37.88H27.6m-54.33-3.79H27.66M-26.73,4.39H27.6M-26.73.19H27.6"/><path class="cls-3" d="M27.52,17.3h2.64m-2.7,15.16h3.88M30.71,29H38m-2-3.76h7.28m.12-4h7.28m.25-4h7.28M43.51,13.4h7.28M36.11,10.14h7.27M27.7,44.05H35m-.13-3.68h7.28M43,36h7.27m.88-3.63h7.28M29.33,6.52h7.28M27.46,2.26H32m19.14,0h7.28M45.15,37.92v4.36m-13-4.36v4.36m20.24,0v3.47M37.85,42.28v3.47M27.52,42.3H81.84M39.42,34.14v3.78M54,34.14v3.78m-6.3-7.4v3.57m-13.3-3.57v3.57M28,27.29v3.17m12.46-3.17v3.17m5.62-7.39v4.15m-13-4.15v4.15m6.21-8V23m15.06-3.75V23m-6.58-7.87V19.2M34.2,15.14V19.2M40,11.7v3.44M33.46,8.39V11.7m12.8-3.31V11.7M39.47,4.38v4m14.93-4v4M47.88.32V4.38M34.58.32V4.38M40.16-4V.18M27.52,30.47H81.84M27.52,27.23H81.91M27.52,23H81.84M27.52,19.21H81.84M27.52,15.15H81.84M27.52,11.72H81.84M27.52,8.42H81.84M27.52,37.88H81.84M27.52,34.09H81.91M27.52,4.39H81.84M27.52.19H81.84"/><g class="cls-4"><path class="cls-3" d="M79.89,41.08a5.56,5.56,0,0,0-1.73-.25c-1.32,0-2.39.36-2.39.8s1.07.79,2.39.79a5.59,5.59,0,0,0,1.73-.24m0-9.22c-1,.1-1.74.41-1.74.77s.74.67,1.74.77m0-8.52a7.4,7.4,0,0,0-1-.07c-1.32,0-2.39.36-2.39.8s1.07.8,2.39.8a7.4,7.4,0,0,0,1-.07m0-9.53c-1.07.08-1.86.4-1.86.78s.79.69,1.86.77m0-8.67-.57,0c-1.33,0-2.4.36-2.4.8s1.07.79,2.4.79a5.43,5.43,0,0,0,.57,0m0-9.29c-.81.13-1.36.4-1.36.72s.55.59,1.36.72m-9.52,33c0,.44,1.07.8,2.4.8s2.39-.36,2.39-.8-1.07-.8-2.39-.8S70.37,37.05,70.37,37.49Zm1.13-7.27c0,.44,1.07.8,2.4.8s2.39-.36,2.39-.8-1.07-.8-2.39-.8S71.5,29.78,71.5,30.22Zm-1.88-7.65c0,.44,1.07.8,2.39.8s2.4-.36,2.4-.8-1.08-.79-2.4-.79S69.62,22.13,69.62,22.57Zm3.65-7c1.32,0,2.39-.36,2.39-.8s-1.07-.8-2.39-.8-2.39.36-2.39.8S72,15.6,73.27,15.6ZM73,8.7c1.32,0,2.39-.35,2.39-.79s-1.07-.8-2.39-.8-2.39.36-2.39.8S71.7,8.7,73,8.7ZM71-.37c0,.44,1.07.8,2.39.8s2.4-.36,2.4-.8-1.07-.79-2.4-.79S71-.81,71-.37Zm.86,44V39.28m5.63,7.78V43.67m0,0v0m0,0h2.4m-2.4,0H64.06m15.43-8.16v3.74m0,0v0m-5.12-3.82V31.89m-2.24-7.45v4.15M79,24.38V20.63M74.4,16.52h0m0,0v4.05m5.34-7.49h0m0,0v3.43M72.28,9.79v0m0,0v3.28m6.89-7.31v4m0-4h0m-4.64,0V1.69m5.16-4.31V1.55M25.56,31.84H79.89M25.56,28.6H79.89M25.56,24.39H79.89M25.56,20.58H79.89M74.4,16.52h5.49m-5.49,0H59.47m7.47-3.44h12.8m0,0h.15M57.6,9.79H72.28m0,0h7.61M66,39.25h13.9M59.44,35.46H79.89m-14-29.7h13.3m0,0h.72M25.56,1.56H79.89"/></g></svg>