<svg id="Capa_1" data-name="Capa 1" xmlns="http://www.w3.org/2000/svg" xmlns:xlink="http://www.w3.org/1999/xlink" viewBox="0 0 53.98 42.1"><defs><style>.cls-1,.cls-2,.cls-4{fill:none;}.cls-2,.cls-4{stroke:#000;}.cls-2{stroke-width:0.8px;}.cls-3{clip-path:url(#clip-path);}.cls-4{stroke-width:0.3px;}.cls-5{clip-path:url(#clip-path-2);}.cls-6{clip-path:url(#clip-path-3);}</style><clipPath id="clip-path"><rect class="cls-1" x="-43.6" y="-1.1" width="26.4" height="43.2"/></clipPath><clipPath id="clip-path-2"><rect class="cls-1" y="-1.1" width="8.82" height="43.2"/></clipPath><clipPath id="clip-path-3"><rect class="cls-1" x="8.62" y="-1.1" width="45.38" height="43.2"/></clipPath></defs><title>639 Caliza con chert 1ra opción</title><polygon class="cls-2" points="427.34 89.54 427.34 -509.25 -88.5 -509.25 -88.5 89.57 427.34 89.54"/><g class="cls-3"><path class="cls-4" d="M-43.54,15.93h2.63M-43.6,31.08h3.87m-.62-3.51h7.27m-2-3.76h7.27m.13-4h7.28m.25-4h7.27M-27.56,12h7.28M-35,8.77h7.28M-43.36,42.68h7.27M-36.21,39h7.27m.88-4.38h7.28M-19.9,31h7.27M-41.73,5.15h7.27M-43.6.89h4.5m19.15,0h7.27M-25.91,36.54V40.9m-13-4.36V40.9m20.24,0v3.48M-33.21,40.9v3.48m-10.34-3.45H10.78m-42.43-8.16v3.77M-17,32.77v3.77m-6.3-7.39v3.57m-13.3-3.57v3.57M-43,25.91v3.17m12.46-3.17v3.17m5.63-7.38v4.15M-38,21.7v4.15m6.21-8v3.75m15.05-3.75v3.75m-6.57-7.88v4.07m-13.55-4.07v4.07m5.83-7.5v3.43M-37.6,7v3.31M-24.8,7v3.31M-31.59,3V7m14.93-4V7M-23.19-1V3M-36.49-1V3m5.59-8.44v4.24M-43.55,29.1H10.78m-54.33-3.24H10.84m-54.39-4.21H10.78m-54.33-3.81H10.78m-54.33-4.06H10.78m-54.33-3.44H10.78M-43.55,7.05H10.78M-43.55,36.5H10.78m-54.33-3.78H10.84M-43.55,3H10.78m-54.33-4.2H10.78"/></g><g class="cls-5"><path class="cls-4" d="M8.82,39.7a5.47,5.47,0,0,0-1.72-.24c-1.32,0-2.4.35-2.4.79s1.08.8,2.4.8a5.47,5.47,0,0,0,1.72-.24m0-9.22c-1,.1-1.73.4-1.73.77s.73.67,1.73.76m0-8.51a5.82,5.82,0,0,0-1-.07c-1.32,0-2.39.36-2.39.8s1.07.79,2.39.79a5.82,5.82,0,0,0,1-.07m0-9.52c-1.06.08-1.86.39-1.86.77s.8.7,1.86.78m0-8.67a5.24,5.24,0,0,0-.57,0c-1.32,0-2.39.35-2.39.79s1.07.8,2.39.8l.57,0m0-9.29c-.8.13-1.35.4-1.35.72S8,3,8.82,3.11m-9.51,33c0,.44,1.07.79,2.39.79s2.4-.35,2.4-.79-1.08-.8-2.4-.8S-.69,35.68-.69,36.12ZM.44,28.85c0,.44,1.07.79,2.39.79s2.39-.35,2.39-.79-1.07-.8-2.39-.8S.44,28.41.44,28.85ZM-1.44,21.2c0,.44,1.07.8,2.39.8s2.39-.36,2.39-.8S2.27,20.4,1,20.4-1.44,20.76-1.44,21.2Zm3.64-7c1.33,0,2.4-.35,2.4-.79s-1.07-.8-2.4-.8-2.39.36-2.39.8S.88,14.22,2.2,14.22ZM2,7.33c1.32,0,2.4-.36,2.4-.8S3.27,5.74,2,5.74s-2.39.35-2.39.79S.63,7.33,2,7.33Zm-2-9.07c0,.44,1.07.8,2.39.8s2.39-.36,2.39-.8-1.07-.8-2.39-.8S-.06-2.18-.06-1.74Zm.86,44V37.91m5.62,7.77V42.3m0,0v0m0,0h2.4m-2.4,0H-7M8.43,34.14v3.73m0,0v0M3.31,34.09V30.51M1.07,23.07v4.15M8,23V19.26M3.34,15.14h0m0,0v4.05m5.33-7.48h0m0,0v3.42M1.22,8.42v0m0,0V11.7M8.11,4.39v4m0-4h0m-4.65,0V.32M8.62-4V.18M-45.51,30.46H8.82m-54.33-3.23H8.82M-45.51,23H8.82m-54.33-3.81H8.82M3.34,15.14H8.82m-5.48,0H-11.59m7.46-3.43H8.67m0,0h.15M-13.46,8.42H1.22m0,0h7.6M-5.07,37.87H8.82m-20.44-3.78H8.82m-14-29.7H8.11m0,0h.71M-45.51.19H8.82"/></g><g class="cls-6"><path class="cls-4" d="M47.55,41.05c1.32,0,2.39-.36,2.39-.8s-1.07-.79-2.39-.79-2.4.35-2.4.79S46.23,41.05,47.55,41.05Zm-11.79-.8c0-.44-1.07-.79-2.39-.79s-2.39.35-2.39.79,1.07.8,2.39.8S35.76,40.69,35.76,40.25Zm-16.19.8c1.32,0,2.39-.36,2.39-.8s-1.07-.79-2.39-.79-2.39.35-2.39.79S18.25,41.05,19.57,41.05Zm-11-.24c.41-.15.67-.34.67-.56s-.26-.4-.67-.55m44.82-3.58c0,.44,1.07.79,2.39.79s2.39-.35,2.39-.79-1.07-.8-2.39-.8S53.44,35.68,53.44,36.12Zm-13.81,0c0,.44,1.07.79,2.4.79s2.39-.35,2.39-.79-1.07-.8-2.39-.8S39.63,35.68,39.63,36.12Zm-12.16-.8c-1.32,0-2.39.36-2.39.8s1.07.79,2.39.79,2.39-.35,2.39-.79S28.79,35.32,27.47,35.32Zm-16.32.8c0,.44,1.07.79,2.39.79s2.4-.35,2.4-.79-1.07-.8-2.4-.8S11.15,35.68,11.15,36.12ZM52.2,32.36c0-.44-1.07-.8-2.4-.8s-2.39.36-2.39.8,1.07.79,2.39.79S52.2,32.8,52.2,32.36Zm-14.43,0c0-.44-1.07-.8-2.39-.8s-2.4.36-2.4.8,1.07.79,2.4.79S37.77,32.8,37.77,32.36Zm-13.55,0c0-.44-1.07-.8-2.39-.8s-2.4.36-2.4.8,1.07.79,2.4.79S24.22,32.8,24.22,32.36Zm-15.6.76q.32,0,.66,0c1.32,0,2.39-.35,2.39-.79s-1.07-.8-2.39-.8q-.34,0-.66,0m45.94-2.74c0,.44,1.08.79,2.4.79s2.39-.35,2.39-.79-1.07-.8-2.39-.8S54.56,28.41,54.56,28.85ZM41,28.85c0,.44,1.07.79,2.4.79s2.39-.35,2.39-.79-1.07-.8-2.39-.8S41,28.41,41,28.85Zm-14.68,0c0,.44,1.07.79,2.4.79s2.39-.35,2.39-.79-1.07-.8-2.39-.8S26.33,28.41,26.33,28.85Zm-13.55,0c0,.44,1.07.79,2.4.79s2.39-.35,2.39-.79-1.07-.8-2.39-.8S12.78,28.41,12.78,28.85Zm32.63-3.51c0,.44,1.07.79,2.39.79s2.39-.35,2.39-.79-1.07-.8-2.39-.8S45.41,24.9,45.41,25.34Zm-13.93,0c0,.44,1.07.79,2.39.79s2.39-.35,2.39-.79-1.07-.8-2.39-.8S31.48,24.9,31.48,25.34Zm-13.3,0c0,.44,1.07.79,2.39.79S23,25.78,23,25.34s-1.07-.8-2.39-.8S18.18,24.9,18.18,25.34Zm-9.56.72c.84-.12,1.42-.4,1.42-.72s-.58-.61-1.42-.73M52.68,21.2c0,.44,1.07.8,2.39.8s2.4-.36,2.4-.8-1.07-.8-2.4-.8S52.68,20.76,52.68,21.2Zm-13.17,0c0,.44,1.07.8,2.39.8s2.39-.36,2.39-.8-1.07-.8-2.39-.8S39.51,20.76,39.51,21.2ZM25,21.2c0,.44,1.07.8,2.4.8s2.39-.36,2.39-.8-1.07-.8-2.39-.8S25,20.76,25,21.2ZM11,21.2c0,.44,1.07.8,2.39.8s2.39-.36,2.39-.8-1.07-.8-2.39-.8S11,20.76,11,21.2Zm36.63-3.89c0,.44,1.07.8,2.4.8s2.39-.36,2.39-.8-1.07-.79-2.39-.79S47.66,16.87,47.66,17.31Zm-14.55,0c0,.44,1.07.8,2.39.8s2.39-.36,2.39-.8-1.07-.79-2.39-.79S33.11,16.87,33.11,17.31Zm-13.68,0c0,.44,1.07.8,2.4.8s2.39-.36,2.39-.8-1.07-.79-2.39-.79S19.43,16.87,19.43,17.31Zm-10.81.78.53,0c1.32,0,2.4-.36,2.4-.8s-1.08-.79-2.4-.79a4.61,4.61,0,0,0-.53,0m47.71-2.32c1.32,0,2.39-.35,2.39-.79s-1.07-.8-2.39-.8-2.39.36-2.39.8S55,14.22,56.33,14.22Zm-13.3,0c1.32,0,2.39-.35,2.39-.79s-1.07-.8-2.39-.8-2.39.36-2.39.8S41.71,14.22,43,14.22Zm-12.41-.79c0-.44-1.07-.8-2.4-.8s-2.39.36-2.39.8,1.07.79,2.39.79S30.62,13.87,30.62,13.43Zm-13.93,0c0-.44-1.07-.8-2.39-.8s-2.39.36-2.39.8,1.07.79,2.39.79S16.69,13.87,16.69,13.43ZM47.92,11c1.32,0,2.4-.36,2.4-.8s-1.08-.79-2.4-.79-2.39.35-2.39.79S46.6,11,47.92,11Zm-11.16-.8c0-.44-1.07-.79-2.39-.79S32,9.75,32,10.19s1.07.8,2.39.8S36.76,10.63,36.76,10.19Zm-18.2,0c0,.44,1.07.8,2.39.8s2.39-.36,2.39-.8S22.27,9.4,21,9.4,18.56,9.75,18.56,10.19ZM8.62,11c1.05-.09,1.82-.4,1.82-.78s-.77-.69-1.82-.77M56.08,7.33c1.32,0,2.39-.36,2.39-.8s-1.07-.79-2.39-.79-2.39.35-2.39.79S54.76,7.33,56.08,7.33Zm-13.68,0c1.32,0,2.39-.36,2.39-.8s-1.07-.79-2.39-.79S40,6.09,40,6.53,41.08,7.33,42.4,7.33Zm-16.82-.8c0,.44,1.07.8,2.39.8s2.4-.36,2.4-.8-1.08-.79-2.4-.79S25.58,6.09,25.58,6.53Zm-13.8,0c0,.44,1.07.8,2.39.8s2.39-.36,2.39-.8-1.07-.79-2.39-.79S11.78,6.09,11.78,6.53ZM54.06-1.74c0,.44,1.07.8,2.39.8s2.4-.36,2.4-.8-1.07-.8-2.4-.8S54.06-2.18,54.06-1.74Zm-13.55,0c0,.44,1.07.8,2.39.8s2.4-.36,2.4-.8-1.07-.8-2.4-.8S40.51-2.18,40.51-1.74Zm-14.18,0c0,.44,1.07.8,2.4.8s2.39-.36,2.39-.8-1.07-.8-2.39-.8S26.33-2.18,26.33-1.74Zm-14,0c0,.44,1.07.8,2.39.8s2.4-.36,2.4-.8-1.07-.8-2.4-.8S12.28-2.18,12.28-1.74ZM52.7,2.4c0-.44-1.07-.8-2.39-.8s-2.4.36-2.4.8,1.08.79,2.4.79S52.7,2.84,52.7,2.4Zm-14.3,0c0-.44-1.08-.8-2.4-.8s-2.39.36-2.39.8,1.07.79,2.39.79S38.4,2.84,38.4,2.4Zm-13.68,0c0-.44-1.07-.8-2.39-.8s-2.39.36-2.39.8,1.07.79,2.39.79S24.72,2.84,24.72,2.4Zm-16.1.71a6.56,6.56,0,0,0,1,.08c1.32,0,2.39-.35,2.39-.79S11,1.6,9.66,1.6a6.56,6.56,0,0,0-1,.08M40.31,37.91v4.36m-14-4.36v4.36m-13,0V37.91m33.91,7.77V42.3m0,0v0m-13.67,0v0m0,3.38V42.3M19,45.68V42.3m0,0v0m41.6,0H8.62m11.9-4.43v0m0,0V34.14m14.61,0v3.73m0,0v0m13.92,0v0m0,0V34.14m-6.55,0V30.51M28.83,34.09V30.51m-13.3,3.58V30.51m-6.4-3.23v3.17m12.46-3.17v3.17m15.18-3.17v3.17M51,27.28v3.17M40.89,23.07v4.15M27.21,23.07v4.15m-13-4.15v4.15m6.21-8V23m15.05-3.75V23m13.38-3.75V23m-6.28-7.88h0m0,0v4.05M28.86,15.13h0v4.05M15.31,15.13h0m0,0v4.05M50,11.71h0m0,0v3.42M36.2,11.7h0m0,0v3.42M21.14,11.71v3.42m0-3.42h0M14.57,8.42V11.7m0-3.28v0m12.79,0v0m0,0V11.7m13.3-3.28v0m0,0V11.7M20.58,4.39h0m0,0v4m14.93-4v4m0-4h0m13.42,0v4m0-4h0m-6.33,0V.32M29,4.38V.32M15.68,4.38V.32M49.87-4V.18M36.2-4V.18M21.27-4V.18M8.62,30.46H63M8.62,27.23H63M8.62,23H63M8.62,19.21H63M15.31,15.14H8.62m48.84,0H28.86m0,0H15.31m5.83-3.43H8.62m41.38,0H62.8m-12.8,0H36.2m0,0H21.14m6.22-3.29H8.62m18.74,0h28M20.52,37.87H8.62m40.43,0H35.13m13.92,0h13.5m-27.42,0H20.52m8.31-3.78H8.62m20.21,0H42.5m0,0H57.43m-8.5-29.7H8.62m40.31,0h13.3M8.62.19H63"/></g></svg>