<svg id="Capa_1" data-name="Capa 1" xmlns="http://www.w3.org/2000/svg" xmlns:xlink="http://www.w3.org/1999/xlink" viewBox="0 0 54.01 42.1"><defs><style>.cls-1,.cls-2,.cls-4{fill:none;}.cls-2,.cls-4{stroke:#000;}.cls-2{stroke-width:0.8px;}.cls-3{clip-path:url(#clip-path);}.cls-4{stroke-width:0.3px;}.cls-5{clip-path:url(#clip-path-2);}.cls-6{clip-path:url(#clip-path-3);}</style><clipPath id="clip-path"><rect class="cls-1" y="-1.1" width="43.03" height="43.2"/></clipPath><clipPath id="clip-path-2"><rect class="cls-1" x="42.82" y="-1.1" width="11.17" height="43.2"/></clipPath><clipPath id="clip-path-3"><rect class="cls-1" x="71.21" y="-1.1" width="22.99" height="43.2"/></clipPath></defs><title>640 Caliza con chert 2da opción</title><polygon class="cls-2" points="356.13 89.54 356.13 -509.25 -159.71 -509.25 -159.71 89.57 356.13 89.54"/><g class="cls-3"><path class="cls-4" d="M43,31.87a5.56,5.56,0,0,0-1.73-.25c-1.32,0-2.39.36-2.39.8s1.07.8,2.39.8A5.56,5.56,0,0,0,43,33M43,1.68c-.81.13-1.36.4-1.36.72s.55.59,1.36.71M27.63,41.05c1.32,0,2.39-.36,2.39-.8s-1.07-.79-2.39-.79-2.4.35-2.4.79S26.31,41.05,27.63,41.05ZM8.3,35.32c-1.32,0-2.39.36-2.39.8s1.07.79,2.39.79,2.4-.35,2.4-.79S9.63,35.32,8.3,35.32Zm12.79-6.47c0,.44,1.07.79,2.4.79s2.39-.35,2.39-.79-1.07-.8-2.39-.8S21.09,28.41,21.09,28.85ZM-1.74,25.34c0,.44,1.07.79,2.39.79S3,25.78,3,25.34,2,24.54.65,24.54-1.74,24.9-1.74,25.34Zm34.5-4.14c0,.44,1.07.8,2.39.8s2.4-.36,2.4-.8-1.07-.8-2.4-.8S32.76,20.76,32.76,21.2ZM13.19,17.31c0,.44,1.07.8,2.39.8s2.39-.36,2.39-.8-1.07-.79-2.39-.79S13.19,16.87,13.19,17.31ZM30.4,10.19c0-.44-1.08-.79-2.4-.79s-2.39.35-2.39.79,1.07.8,2.39.8S30.4,10.63,30.4,10.19ZM9.59,6.53c0-.44-1.07-.79-2.39-.79s-2.39.35-2.39.79,1.07.8,2.39.8S9.59,7,9.59,6.53ZM7.1-1.76c0,.44,1.07.8,2.39.8s2.4-.36,2.4-.8-1.08-.8-2.4-.8S7.1-2.2,7.1-1.76ZM35,37.91v4.36M20.39,37.91v4.36m-14-4.36v4.36m34.29,0v0m0,0v3.38M27.2,42.27v3.41M13.53,42.3v3.38m0-3.38v0m27.1,0H43m-2.4,0H27.2m-13.67,0H-1m14.5,0H27.2m15.43-4.43v0m0,0V34.14M.6,37.87V34.14m0,3.73v0m14.61-3.77v3.77m13.92-3.77v3.73m0,0v0m8.38-3.78V30.51m-14.93,0v3.58m-13.67,0V30.51M1.67,27.28v3.17m15.18-3.17v3.17m14.21,0V27.28m4.21-4.21v4.15M21,23.07v4.15M7.29,23.07v4.15M42.17,23V19.26m-41.71,0V23m15.05-3.75V23m13.38-3.75V23m8.65-7.87v4.05m0-4.05h0m-14.93,0h0m0,0v4.05M8.94,15.13h0m0,0v4.05m33.94-7.48v3.42m0-3.42h0m-12.8,0h0v3.42m-13.8-3.42v3.42m0-3.42h0m-15.06,0v3.42m0-3.42h0M7.44,8.42V11.7m0-3.28v0m13.3,0V11.7m0-3.28v0m14.68,0V11.7m0-3.28v0m6.89-4h0m0,0v4M.66,4.39h0m0,0v4m14.93,0v-4m0,0h0M29,4.38h0m0,4v-4m8.66,0V.32m-15,4.06V.32M9.06,4.38V.32M42.83-4V.18M30,.18V-4M16.28-4V.18M1.35-4V.18M-11.3,30.46H43M-11.3,27.23H43M-11.3,23H43M-11.3,19.21H43m-5.49-4.07H22.61m0,0H8.94m0,0H-4.61m42.15,0H43M1.22,11.71H16.28m0,0h13.8m-28.86,0H-11.3m54.18,0H30.08m12.8,0H43M7.44,8.42H-5.35m26.09,0H35.42m0,0H43m-22.29,0H7.44M42.63,37.87H29.13m-13.92,0H.6m-11.9,0H.6m14.61,0H29.13m13.5,0H43m-5.52-3.78H22.58m-13.67,0H-4.39m13.3,0H22.58m14.93,0H43M15.59,4.39H29M.66,4.39h-12m53.61,0H29m13.3,0H43M.66,4.39H15.59M43,.19H-11.3"/></g><g class="cls-5"><path class="cls-4" d="M42.82,33c.42-.14.67-.33.67-.55s-.25-.41-.67-.55m9.56-6.53c0,.44,1.07.79,2.4.79s2.39-.35,2.39-.79-1.07-.8-2.39-.8S52.38,24.9,52.38,25.34ZM46.11,13.43c0,.44,1.07.79,2.39.79s2.4-.35,2.4-.79-1.08-.8-2.4-.8S46.11,13,46.11,13.43ZM42.82,3.11a6.76,6.76,0,0,0,1,.08c1.32,0,2.39-.35,2.39-.79s-1.07-.8-2.39-.8a6.76,6.76,0,0,0-1,.08m4.59,36.23v4.36m5.75,0v0m-10.34,0H53.16v3.38M67.65,42.3H53.16M49.73,30.51v3.58m-6.4-6.81v3.17m5-7.38v4.15m6.21-8V23m-5.07-7.88h0m0,0v4.05m-.74-7.49V8.42m0,0v0m1.12-4V.32M42.82,30.46H97.15M42.82,27.23H97.15M42.82,23H97.15M42.82,19.21H97.15M63.06,15.14H42.82m12.53-3.43H42.82m0-3.29h6m12.8,0H48.77m-6,29.45H54.73M63,34.09H42.82m12-29.7h-12M97.15.19H42.82"/></g><g class="cls-6"><path class="cls-4" d="M87.29,39.66,84.66,44M71.55,39.64V44M93.8,39.6V35.86m0,3.74v0m-15,0,0,0m0,0,2.3-3.79,0,0m7.54,0V32.24M72.24,35.81l2.25-3.61m6.23,0L82.65,29m3.79-.07V24.79M70.63,28.94l2.61-4.13m20.09-.08V21M78.55,24.73,80.83,21m7.88-4.11v4.05m0-4.05h0m-13.9.05-2.54,4M94,13.42v0m-2.16,3.41L94,13.44m-12.79,0v3.42m0-3.42v0m-9.33,0V10.11m15.13,0h0m0,0-2,3.27m8.4-7.32h0m0,4v-4m-14.81,4,2.5-4,0,0m7.63,0V2M72.33,6.1l2.54-4.17M94-2.27V1.9M82.21-2.21,79.61,1.9M94.19,32.19H39.86M94.19,29H39.86m54.33-4.22H39.86m54.33-3.81H39.86m48.85-4.06H60.1m28.61,0h5.48m-13-3.43H94m.16,0H94m-12.79,0H68m19-3.29h7.15m-7.15,0H71.91m-26.1,0h26.1M78.82,39.6H94.19m-15.37,0H66.37m-6.3-3.79H94.19M66.75,6.11H81.17m0,0H93.48m.71,0h-.71m.71-4.19H39.86"/></g></svg>