<svg id="Capa_1" data-name="Capa 1" xmlns="http://www.w3.org/2000/svg" xmlns:xlink="http://www.w3.org/1999/xlink" viewBox="0 0 53.99 37.68"><defs><style>.cls-1,.cls-2,.cls-4{fill:none;}.cls-2,.cls-4{stroke:#000;}.cls-2{stroke-width:0.8px;}.cls-3{clip-path:url(#clip-path);}.cls-4{stroke-width:0.3px;}.cls-5{clip-path:url(#clip-path-2);}.cls-6{clip-path:url(#clip-path-3);}.cls-7{clip-path:url(#clip-path-4);}</style><clipPath id="clip-path"><rect class="cls-1" x="-28.38" y="-2.87" width="11.17" height="43.2"/></clipPath><clipPath id="clip-path-2"><rect class="cls-1" y="-2.87" width="22.99" height="43.2"/></clipPath><clipPath id="clip-path-3"><rect class="cls-1" x="22.78" y="-2.87" width="31.22" height="43.2"/></clipPath><clipPath id="clip-path-4"><rect class="cls-1" x="71.7" y="-2.87" width="3.43" height="43.2"/></clipPath></defs><title>641 Caliza dolomítica, dolomita calcárea, dolomía calcárea</title><polygon class="cls-2" points="284.92 87.78 284.92 -511.02 -230.92 -511.02 -230.92 87.8 284.92 87.78"/><g class="cls-3"><path class="cls-4" d="M-28.38,31.2c.41-.14.66-.33.66-.55s-.25-.41-.66-.55m9.55-6.53c0,.44,1.08.8,2.4.8S-14,24-14,23.57s-1.07-.8-2.39-.8S-18.83,23.13-18.83,23.57ZM-25.1,11.66c0,.44,1.07.8,2.39.8s2.4-.36,2.4-.8-1.08-.8-2.4-.8S-25.1,11.22-25.1,11.66ZM-28.38,1.35a6.58,6.58,0,0,0,1,.07C-26,1.42-25,1.07-25,.63s-1.07-.8-2.39-.8a6.53,6.53,0,0,0-1,.08m4.58,36.23V40.5m5.75,0v0m-10.33,0H-18v3.38m14.49-3.38H-18m-3.43-11.78v3.57m-6.39-6.81v3.17m5-7.38v4.15m6.21-8v3.75m-5.07-7.87h0m0,0v4m-.74-7.5V6.65m0,0v0m1.12-4V-1.45M-28.38,28.7H25.94m-54.32-3.24H25.94m-54.32-4.21H25.94m-54.32-3.81H25.94M-8.15,13.38H-28.38m12.52-3.44H-28.38m0-3.29h5.94m12.8,0h-12.8M-28.38,36.1h11.9m8.3-3.78h-20.2m12-29.7H-28.38m54.32-4.2H-28.38"/></g><g class="cls-5"><path class="cls-4" d="M16.08,37.89l-2.62,4.34M.34,37.87v4.36m22.25-4.4V34.1m0,3.73v0m-15,0,0,0m0,0L9.91,34l0,0m7.54,0V30.47M1,34l2.25-3.61m6.23,0,1.93-3.17m3.79-.07V23M-.58,27.17,2,23M22.12,23V19.21M7.34,23l2.28-3.75M17.5,15.1v4m0-4h0m-13.9.05-2.54,4m21.77-7.5v0m-2.16,3.41,2.16-3.41M10,11.67v3.42m0-3.42v0m-9.33,0V8.35m15.13,0h0m0,0-2,3.27m8.4-7.32v0m0,4v-4m-14.81,4,2.5-4,0,0m7.62,0V.27M1.13,4.33,3.66.16M22.78-4V.13M11-4,8.4.13M23,30.42H-31.35M23,27.19H-31.35M23,23H-31.35M23,19.16H-31.35M17.5,15.1H-11.11m28.61,0H23M10,11.67H22.82m.16,0h-.16M10,11.67H-3.2m19-3.29H23m-7.15,0H.7m-26.1,0H.7M7.61,37.83H23m-15.37,0H-4.84M-11.14,34H23M-4.46,4.35H10m0,0H22.27m.71,0h-.71M23,.15H-31.35"/></g><g class="cls-6"><path class="cls-4" d="M54.47,37.87v4.36M41.6,38l-2.69,4.27m-11.54,0V37.87m5.83,0L35.49,34l0,0M33.2,37.83l0,0m16.11,0V34.1m0,3.73v0M43,34V30.47M28.18,34l2.32-3.61m-7.21,0V27.24m11,3.17,1.89-3.11m14.79,3.11V27.24m2.61-.07L56.15,23M41.37,27.17V23M26.82,27.17l2.55-4.07M33,23l2.3-3.75M49.59,23V19.21M43,15.1h0m0,0v4M28,19.15l2.54-4m20.42-3.47,0,0m0,0-2.07,3.42M35.3,11.67v0m0,0v3.42M28.73,8.38v3.27m0-3.27v0M40,11.65l2-3.22m-8.81-.08,2.47-4m14,0v4m0-4v0m-6.53,0V.27M28.34,4.33,30.93.16M50.36-4V.13M36.46-4,33.92.13M77.11,30.42H22.78m54.33-3.23H22.78M77.11,23H22.78m54.33-3.82H22.78M71.62,15.1H22.78m41.38-3.43H35.3m0,0H22.78m5.95-3.29H22.78m5.95,0H54.82M33.2,37.83H22.78m10.42,0H49.29m12.44,0H49.29M28.18,34h-5.4m5.4,0h7.31m0,0H43m0,0H55.16M49.67,4.35H22.78m26.89,0H64.09m13-4.2H22.78"/></g><g class="cls-7"><path class="cls-4" d="M74.91-4,72.29.1m.07,8.27,2.43-4,0,0M72.71,15.1l0,0m0,0,2.21-3.43m0,0v0m.14,7.5v0m0,0-2.25,3.74m0,7.51,2.05-3.21m-2.05,3.21v0m-.59,7.39,2.47-3.78m-2.47,3.78,0,.06m2.51-3.84v0m-1.88-3.61h2.31m-2.31,0h-52m54.33-3.23H20.8M75.13,23H20.8m54.26-3.81H61.82m13.24,0h.07M72.71,15.1H70.54m2.17,0h2.42m-.21-3.43H62.81m12.11,0h.21m-6.9-3.29h6.9M72.22,37.83H68m4.18,0h2.91M62.06,34.05H75.13M61.93,4.35h13.2m0-4.2H55.72"/></g></svg>