<svg id="Capa_1" data-name="Capa 1" xmlns="http://www.w3.org/2000/svg" xmlns:xlink="http://www.w3.org/1999/xlink" viewBox="0 0 53.97 37.68"><defs><style>.cls-1,.cls-2,.cls-4{fill:none;}.cls-2,.cls-4{stroke:#000;}.cls-2{stroke-width:0.8px;}.cls-3{clip-path:url(#clip-path);}.cls-4{stroke-width:0.3px;}.cls-5{clip-path:url(#clip-path-2);}.cls-6{clip-path:url(#clip-path-3);}</style><clipPath id="clip-path"><rect class="cls-1" x="-48.94" y="-2.87" width="31.22" height="43.2"/></clipPath><clipPath id="clip-path-2"><rect class="cls-1" x="-0.01" y="-2.87" width="3.43" height="43.2"/></clipPath><clipPath id="clip-path-3"><rect class="cls-1" x="3.21" y="-2.87" width="50.77" height="43.2"/></clipPath></defs><title>642 Dolomita o dolomía</title><polygon class="cls-2" points="213.2 87.78 213.2 -511.02 -302.63 -511.02 -302.63 87.8 213.2 87.78"/><g class="cls-3"><path class="cls-4" d="M-17.25,37.87v4.36M-30.12,38l-2.69,4.27m-11.54,0V37.87m5.83,0,2.3-3.79,0,0m-2.32,3.82,0,0m16.11,0V34.1m0,3.73v0M-28.73,34V30.47M-43.53,34l2.31-3.61m-7.21,0V27.24m11,3.17,1.9-3.11m14.79,3.11V27.24m2.61-.07L-15.56,23m-14.78,4.13V23M-44.9,27.17l2.55-4.07m3.66-.14,2.3-3.75M-22.12,23V19.21M-28.7,15.1h0m0,0v4m-15,0,2.53-4m20.43-3.47,0,0m0,0-2.07,3.42m-13.55-3.42v0m0,0v3.42M-43,8.38v3.27m0-3.27v0m11.29,3.3,2-3.22m-8.8-.08,2.47-4m14,0v4m0-4v0m-6.52,0V.27M-43.38,4.33l2.6-4.17M-21.36-4V.13M-35.26-4-37.79.13M5.39,30.42H-48.94M5.39,27.19H-48.94M5.39,23H-48.94M5.39,19.16H-48.94M-.09,15.1H-48.94m41.38-3.43H-36.41m0,0H-48.94M-43,8.38h-5.95m5.95,0h26.1M-38.52,37.83H-48.94m10.42,0h16.09m12.45,0H-22.43M-43.53,34h-5.41m5.41,0h7.31m0,0h7.49m0,0h12.17M-22,4.35H-48.94m26.89,0H-7.63m13-4.2H-48.94"/></g><g class="cls-5"><path class="cls-4" d="M3.19-4,.57.1M.64,8.37l2.43-4,0,0M1,15.1l0,0m0,0L3.2,11.67m0,0,0,0m.13,7.5v0m0,0L1.1,22.91m0,7.51,2.05-3.21m-2,3.21v0M.51,37.83,3,34.05M.51,37.83l0,.06M3,34.05l0,0M1.1,30.42H3.42m-2.32,0h-52M3.42,27.19H-50.91M3.42,23H-50.91M3.35,19.17H-9.89m13.24,0h.07M1,15.1H-1.18M1,15.1H3.42M3.2,11.67H-8.9m12.1,0h.22M-3.49,8.38H3.42M.51,37.83H-3.67m4.18,0H3.42M-9.66,34.05H3.42M-9.79,4.35H3.42m0-4.2H-16"/></g><g class="cls-6"><path class="cls-4" d="M16.72-4,14.19.1M29.12.1,31.67-4M45.39-4,42.86.1M11.21.15,8.67,4.3M11.21.15l0,0M21.91,4.3,24.42.16m13.71,0L35.58,4.3M38.13.15l0,0M16,4.35l0,0m0,0-2.42,4m17.29-4-2.42,4m2.42-4,0,0m11,4.07,2.42-4m0,0,0,0M9.86,8.38h0m0,0-2,3.25M22.6,8.37h0m-2,3.25,2-3.25M36,8.38l-2,3.25m2-3.25h0M16.3,11.67l0,0m0,0-2,3.41m17-3.41,0,0m0,0-2,3.41m13.87,0,2-3.41m0,0,0,0M10.73,15.1v0m0,0-2.44,4m15.94-4.07,0,0m-2.43,4,2.43-4M38,15.1l-2.43,4m2.43-4,0,0M15.75,19.17v0m0,0L13.5,22.91m17.32-3.76v0l-2.25,3.74m15.68-3.76v0m0,0L42,22.91M7.1,27.11,9.68,23m10.47,4.07L22.72,23m11.11,4.07L36.4,23M13.94,30.37l2-3.13m13.17,3.13L31,27.24m12.36,3.13,2-3.13M8.73,34l2.14-3.57M22,34l2.14-3.57M35.77,34l2.14-3.57M13.5,37.89l0-.06m2.32-3.78-2.32,3.78m2.32-3.78,0,0m12.17,3.88,0-.06,2.33-3.78m0,0,0,0m11.67,3.88,0-.06m0,0,2.32-3.78m0,0,0,0M49.57,4.3,52.24.18m-1.6,8.2h0m0,0-2,3.25M53,15.1l-2.44,4m2.44-4v0m-4.77,12L50.77,23M50.7,34l2.14-3.57m-2.39,7.39h0l-2.64,4.4m-12-4.4-2.6,4.4m2.6-4.4,0-.06m-16.7,4.46,2.61-4.4,0-.06M8.7,37.83l-2.6,4.4m2.6-4.4,0-.06m46.5-7.35h-52m54.33-3.23H3.21M57.54,23H3.21m54.26-3.81H44.23m-28.48,0H3.21m41,0H30.81m0,0H15.75m-5-4.07H24.21m30.91,0H53m-15,0H24.21M38,15.1H53m-42.22,0H3.21M16.3,11.67H3.21m54.12,0H45.22m-13.86,0H45.22m-13.86,0H16.3M50.64,8.38H36m0,0H22.59m28.05,0h6.9m-47.68,0H22.59m-12.73,0H3.21M35.8,37.83h6.35m12.48,0H42.15m-33.45,0H3.21m18.54,0h6.34m7.71,0H28.09m-19.39,0H21.75m8.67-3.78h14m-28.61,0H3.21m41.26,0H57.1m-41.24,0H30.42M16,4.35H3.21m27.64,0H57.2m-26.35,0H16M11.21.15h-8m54.33,0H38.13m0,0H11.21"/></g></svg>