<svg id="Capa_1" data-name="Capa 1" xmlns="http://www.w3.org/2000/svg" viewBox="0 0 54.03 44.57"><defs><style>.cls-1{fill:#1d1d1b;}</style></defs><title>643 Dolomita o dolomía con estratificación cruzada</title><path class="cls-1" d="M-.23,44.42c-2.56,0-4.59-.13-7.21-.3-1.44-.09-3.08-.2-5.07-.3l0-.3c2,.1,3.62.21,5.07.3a92.22,92.22,0,0,0,14.81,0l0,.31C4.17,44.34,1.81,44.42-.23,44.42Zm9.05-.65-.22-.21,2-2.15c-3.84,0-8.37,0-13-.16h0c-3.09-.11-6.22-.29-9.26-.56l0-.3c3,.26,6.08.44,9.12.56L-.84,39a119.85,119.85,0,0,1-15.37-1.55l0-.29A121.27,121.27,0,0,0-.51,38.74v0c3.7.1,7.32-.08,9.1-.19a45.47,45.47,0,0,1-5-1.46,102.91,102.91,0,0,1-17.17-1.5l.05-.3A108.09,108.09,0,0,0,2.68,36.8h.17c-3.56-1.4-6.77-2.78-9.46-4l.12-.28C-3.94,33.68-.92,35,2.42,36.31l3-3.2a81.66,81.66,0,0,1-8.7-3.67q-4.41.72-8.36,1.16l0-.3c4.19-.46,8.83-1.18,13.78-2.14,1.26-.24,2.53-.5,3.79-.77l0,.14,0-.14c2.28-.48,4.6-1,6.92-1.56l0,0h0l2.23-.54c1.72-.43,3.47-.88,5.22-1.35l-.05,0,2.95-3.33c-7.24,1.65-16.64,3.57-26.38,5l0-.3c2.78-.4,5.53-.84,8.21-1.3l-.11-.1,2.81-3.18a223.37,223.37,0,0,1-23.86,1v-.3c4.44,0,8.93,0,13.32-.25h0L.68,17.2H.62c-3.7,0-7.58-.11-11.58-.33v-.3c14.89.83,28.24.08,35.93-2-1.6-.28-3.22-.6-4.85-.93-6.3,1.21-20.79,1.48-36.34-.36l0-.3a185.64,185.64,0,0,0,26,1.27l0,0,2.09-2.4c-.66-.15-1.31-.32-2-.48v.05c-4.38.86-10.48.87-18.13.06l0-.3c7.32.78,13.2.79,17.51,0-1.89-.47-3.8-1-5.72-1.51a55.08,55.08,0,0,1-10.32.15l0-.3a54.54,54.54,0,0,0,9.5-.07c-6.29-1.75-12.71-3.78-19.09-6l.1-.29c1.71.61,3.42,1.19,5.13,1.76V4.82c3.25-.38,7.6-1.16,12.34-2.19l0,0L3.41.33C-6,1.8-14.06,2.62-16.17,2.82l0-.3A333.54,333.54,0,0,0,18.59-2.77l.06.29C13.76-1.4,8.65-.5,3.89.25L1.75,2.54c1.31-.29,2.64-.6,4-.92l.06-.12L6,1.57C8.16,1,10.41.47,12.63-.13l0,0,.06,0C16-1,19.21-2,22.24-3l0,.14L22.34-3c1.86.81,7,3,14.38,5.61L38,2.53l0,.3-.64.06.67.24-.1.28-1-.34-.35-.13.05-.14-.05.14C29.3.31,24.18-1.83,22.28-2.66c-1.18.38-2.38.75-3.6,1.12,1.61.65,3,1.26,4.38,1.85A57.9,57.9,0,0,0,38,5l0,.3a52.61,52.61,0,0,1-10.3-2.78l-2,2.23A109.42,109.42,0,0,0,38,8.16L38,8.45A108.88,108.88,0,0,1,25.41,5h0c-2.51-.85-4.85-1.72-6.93-2.52L16.06,5.14a189.23,189.23,0,0,0,22,4.92l0,.29c-4.83-.77-9.9-1.81-14.65-3l.17.15-2.4,2.62c1.54.34,3.1.66,4.69,1C29.74,11.87,33.85,12.5,38,13l0,.3-1-.12h0l-2.41,2.58c1.16.14,2.32.28,3.45.4l0,.3c-1.84-.2-3.73-.43-5.62-.69-5.9,2.16-14.29,3.82-24.27,4.82L5.22,23.88C21.3,21.07,34.81,17.42,36.53,17l0,.14,0-.14L38,16.54l.09.29-1.41.4L34.32,19.8c1.29-.42,2.51-.83,3.65-1.22l.09.29c-2.08.72-4.5,1.5-7,2.28,1.53.07,3.11.12,4.72.15h.07l2.19,0v.3l-2.11,0L31.09,27c2.16-.05,4.48-.17,6.91-.35l0,.3c-3.06.23-5.94.36-8.55.37,0,0-2.92-.1-5.09-.29h0a45.84,45.84,0,0,1-9.26-1.48L13,26.1l-2.52,2.84a66.2,66.2,0,0,0,10.9,1.59l0-.13.54.18,2.15.14h.24C27,30.9,32,30.9,32,30.9c1.86,0,3.87,0,6-.2l0,.3-.76.05.81.35-.12.28-1.13-.49,0-.12L35,31.16l-2.23,2.56c1.7.4,3.48.77,5.29,1.11l0,.29c-1.91-.35-3.77-.75-5.55-1.17l0-.13,0,.13c-2.11-.49-4.17-1-6.14-1.63l-4.45-1.44c-7.3-.53-12.68-1.6-16-3.18L4.33,28c5,2.35,16.91,5.73,17,5.77,6,1.44,11.6,2.59,16.67,3.39l0,.3c-5.08-.81-10.7-1.95-16.7-3.4l-2.83-.83L16,36c4,1,6.71,1.51,6.77,1.52,4.7,1,9.84,1.79,15.3,2.4l0,.3c-5.14-.57-10-1.32-14.46-2.22l.1.08-2.55,3.06,1.17.33v0l4.08.8v.13h0l0-.14c2.93.35,6.72.68,10.66.94h0l1,.06v.31l-1-.07v0c-3.94-.26-7.73-.59-10.67-.94h-.06l-4.18-.81v0c-.85-.25-1.87-.51-3-.78v.25c-1.83.07-4.66.15-8.07.19Zm17.51-1.32v0ZM-2.17,41c8.79.32,17.08.11,21.06,0-1.32-.32-2.79-.65-4.29-1-1.88-.43-3.78-.86-5.53-1.28v.15c-1.52.1-5.48.33-9.52.22ZM3.68,36.8a97.52,97.52,0,0,0,11,2.85c2.28.52,4.47,1,6.22,1.46L20.8,41,23.35,38l-.68-.14a119.81,119.81,0,0,1-17-4.62l-3,3.21,1,.37ZM.14,30.71a107.93,107.93,0,0,0,15.49,5.23l2.51-2.79c-4-1.2-10.87-3.36-14.19-5l0-.08-1.79.36ZM23.08,31,26.39,32c1.93.58,4,1.12,6,1.61l2.15-2.47c-.88,0-1.73,0-2.56,0,0,0-5.07,0-7.72-.17H24ZM-2.8,29.35q1.3.64,2.64,1.23l1.85-2C.16,28.84-1.34,29.11-2.8,29.35ZM6.37,27.6a23.83,23.83,0,0,0,3.73,1.26l2.34-2.64C10.41,26.71,8.37,27.17,6.37,27.6Zm9.28-2.16a49.78,49.78,0,0,0,8.72,1.32h0c2.17.19,5.05.29,5.08.29h1.2L35.5,21.6c-1.82,0-3.61-.1-5.31-.19C25.49,22.84,20.47,24.23,15.65,25.44Zm-.55,0Zm8.59-5-3,3.38c3.19-.86,6.37-1.77,9.42-2.7h0c1.28-.39,2.55-.79,3.76-1.18l-.06-.05,2.26-2.51C34.46,17.82,29.91,19,23.69,20.44ZM1.09,17.2l-3.54,3.87c3.56-.17,7.06-.43,10.42-.76v0H8v0q3.47-.35,6.65-.8l0,0,2.64-3.17A137.49,137.49,0,0,1,1.09,17.2Zm16.63-.95-2.66,3.2a90.43,90.43,0,0,0,16.68-3.77q-3-.43-6.18-1l0,0A54.4,54.4,0,0,1,17.72,16.25ZM23.52,14c3,.57,6,1.05,8.86,1.45l2,.27-.08-.08,2.37-2.53c-3.69-.46-7.32-1-10.81-1.69Zm8.79,1.46,0,.14ZM12.24,11.89l-2.05,2.36a74.6,74.6,0,0,0,9.14-.76Q15.84,12.76,12.24,11.89ZM3.92,9.44C10.58,11.27,17,12.78,23.19,14h0l2.31-2.57A132.07,132.07,0,0,1,4.32,5.6L1.47,8.75l2.2.62.24,0ZM9.17,7q5.49,1.76,11.62,3.13v0l2.48-2.7C19,6.33,15,5.2,11.65,4.09l.06.06Zm-19.66-1.9C-6.6,6.35-2.7,7.56,1.15,8.66L4,5.49C2.28,4.84.58,4.15-1,3.44h0C-4.6,4.17-7.87,4.73-10.49,5.06Zm14.82.23c1.48.55,3,1.08,4.59,1.59l0,0L11.43,4A51.59,51.59,0,0,1,5.92,1.89c-2.21.53-4.38,1-6.45,1.44C1,4,2.66,4.67,4.33,5.29l0,.09ZM6.39,1.77a77,77,0,0,0,9.35,3.28l2.44-2.69C16.67,1.77,15.3,1.22,14.11.74L12.69.16C10.6.73,8.48,1.27,6.39,1.77ZM25.45,4.88h0Zm0,0h0ZM13.17,0l1.06.43C17.08,1.61,21,3.18,25.41,4.68l2-2.24c-1.48-.57-2.91-1.19-4.45-1.86s-3-1.28-4.72-2h0C16.57-.92,14.88-.44,13.17,0Z"/><path class="cls-1" d="M26,56A133.42,133.42,0,0,1,4.58,50.14L1.74,53.28,4,53.91l-.08.29C-2.67,52.39-9.35,50.29-16,48l.1-.28q2.55.9,5.12,1.75v-.06c3.25-.39,7.6-1.17,12.34-2.2l0,0,2.3-2.45c-8,1.29-15.48,2.26-19.76,2.68l0-.3c7.68-.75,24.8-3.22,37-5.89l.06.3c-5.29,1.16-11.3,2.25-17,3.17l.13.12L2,47.07c1.3-.29,2.63-.59,4-.91L6.06,46l.16.07c2.24-.53,4.48-1.11,6.67-1.7l0,0,.06,0c3.29-.89,6.5-1.84,9.54-2.81l0,.14.06-.13c1.86.8,7,3,14.37,5.6l1.08-.1v0l2.22-.23,0,0,2.65-2.91-1.21-.06v0c-1.27-.07-2.5-.13-3.68-.21v-.3l1.77.11,0,0,2.46-2.72c-1.4-.13-2.81-.27-4.2-.42l0-.3c1.49.16,3,.31,4.49.44v0c3.17.29,6.21.49,9.06.63l1.78-2A121.85,121.85,0,0,1,38,37.48l0-.3.77.12h0l1.56-1.76q-1.19-.2-2.37-.42l0-.3c.85.16,1.71.31,2.56.45h0l.07,0v0A108.64,108.64,0,0,0,57.06,36.8q-1.89-.75-3.63-1.47a29.7,29.7,0,0,1-7.33-.81h0A50.38,50.38,0,0,1,38,31.68l.11-.28a51.37,51.37,0,0,0,8,2.81l1.31-1.46-2.09-.92L42.5,30.6c-1.56.17-3.06.3-4.48.4v-.3c1.38-.1,2.86-.23,4.38-.39l0-.07.12.05c1.41-.15,2.87-.34,4.38-.55l0,0,3.7-4.14c-4.48.64-8.71,1.11-12.57,1.4l0-.3c2-.15,4.2-.36,6.44-.61L44.36,26l3.83-4.48c-3.38.11-6.79.15-10.18.12v-.3c4.44,0,8.92,0,13.32-.25h0l3.55-3.88h-.06c-3.68,0-7.55-.11-11.54-.33l-.17.1c-1.16.5-2.9,1.15-5,1.89L38,18.58c2-.67,3.56-1.27,4.68-1.74-1.34-.08-2.7-.17-4-.28l-.36.21-.2.06L38,16.54l.07,0h0l0-.3.52,0h.05c1.52.12,3.07.22,4.61.31l.13-.07,0,.07c2.27.13,4.51.22,6.7.27l2.2-2.4c-4.5-.2-9.34-.57-14.28-1.15l0-.3c15.53,1.83,30,1.57,36.26.36l.06.29c-4.23.82-12.18,1.21-21.67.82l-2.2,2.39c12.24.26,22.85-.59,29.22-2.41l.08.29c-5.54,1.59-14.28,2.44-24.49,2.47l-3.54,3.87c3.58-.18,7.1-.44,10.48-.77l0,.3c-4.37.43-9,.74-13.67.9L44.73,26c2-.23,4.06-.49,6.18-.8l0,0,0,0a354,354,0,0,0,39.74-8.27l.08.29a355.31,355.31,0,0,1-39.75,8.28l-3.74,4.17c2.84-.4,5.84-.91,9-1.52l0,.15.12.1-2.09,2.3a114.94,114.94,0,0,0,22.6,6.83c4.68,1,9.82,1.79,15.29,2.4l0,.3c-5.48-.61-10.63-1.42-15.32-2.4-.14,0-14.31-2.58-26-8.4q-4.1.68-7.79,1.09l2.33,1,2.29,1c2.86,1.25,6.3,2.73,10.16,4.24l-.05.14v.15A102.2,102.2,0,0,1,40.71,35.6l-1.56,1.76A116.57,116.57,0,0,0,53.7,38.73v0c3.71.11,6.64,0,8.77-.19l0,.3c-2.12.14-5,.29-8.73.2L52,41c8.74.41,15.61.26,18.67.15v.3a234.71,234.71,0,0,1-28.08-.79L40.1,43.43l1.57.09,0,0,0,0c5.35.26,12.8.48,20.73.25,3.44-.59,7-1.26,10.4-2l.06.3c-2.73.6-5.54,1.15-8.31,1.64,1.66-.06,3.33-.15,5-.26l0,.3c-2.39.16-4.79.27-7.14.34-11.17,1.91-21.4,3-24.2,3.26v0l-.64.06.67.24,0,.07c1.64.58,3.29,1.15,4.94,1.69v-.06a161.08,161.08,0,0,0,16.91-3.24l.07.29c-2.22.53-4.4,1-6.49,1.45,1.56.68,3.19,1.34,4.85,2l-.1.28c-1.81-.67-3.57-1.39-5.25-2.13h0c-3.58.73-6.84,1.29-9.47,1.63,4.75,1.57,9.5,3,14.19,4.31l-.08.29c-3.66-1-7.36-2.12-11.07-3.3V51c-2.17-.2-4.11-.43-5.92-.68L38.52,53l-.22-.2,2.23-2.51-2.48-.39v0A52.51,52.51,0,0,1,28,47.09l-2,2.23a105.87,105.87,0,0,0,12.32,3.37l-.06.3a107,107,0,0,1-12.57-3.46c-2.51-.84-4.85-1.71-6.93-2.52l-2.42,2.67a187.31,187.31,0,0,0,22,4.91l-.05.3a182.44,182.44,0,0,1-26.35-6.26l.07.06-2.54,2.8a140.2,140.2,0,0,0,16.63,4.17ZM-10.23,49.6c3.9,1.28,7.79,2.49,11.65,3.59L4.28,50C2.55,49.37.85,48.68-.76,48h0C-4.34,48.7-7.6,49.26-10.23,49.6Zm14.82.22c1.49.55,3,1.09,4.6,1.59l0,0,2.55-2.81a55.49,55.49,0,0,1-5.51-2.14c-2.2.53-4.37,1-6.44,1.44,1.56.68,3.19,1.34,4.85,2l0,.09ZM40.85,50c1.55.22,3.21.42,5,.6C43.26,49.76,40.64,48.87,38,48l0-.07-1.14-.4.05-.14-.05.14c-7.35-2.63-12.46-4.78-14.37-5.61-1.17.38-2.37.75-3.6,1.12,1.61.65,3,1.26,4.38,1.85a58.09,58.09,0,0,0,15,4.74v0c.8.14,1.66.28,2.55.4ZM6.66,46.31A79,79,0,0,0,16,49.58l2.44-2.69c-1.51-.59-2.88-1.14-4.07-1.62L13,44.7C10.89,45.25,8.77,45.8,6.66,46.31ZM25.72,49.4h0ZM13.44,44.57,14.5,45c2.85,1.16,6.75,2.73,11.18,4.22l2-2.24c-1.48-.57-2.92-1.19-4.46-1.85s-3-1.28-4.72-2h0Q16,43.86,13.44,44.57ZM37,47.34Zm6.33-3.45-2.63,2.9c4-.43,11.5-1.32,19.7-2.66C54,44.25,48,44.1,43.29,43.89Zm10.4-5Zm-7.27-4.59A29,29,0,0,0,52.7,35c-1.82-.76-3.49-1.49-5-2.15Zm5-4.94c.87.43,1.76.84,2.65,1.23l1.85-2Q53.61,29,51.4,29.35ZM56.11,12A95.9,95.9,0,0,1,46,11.43v0c-2.53-.27-5.23-.64-8-1.09l0-.29c2.76.44,5.43.81,7.94,1.08l1.24-1.34A76.92,76.92,0,0,1,38,8.44l.07-.29.22,0,2.19-2.47c-.87-.12-1.7-.26-2.47-.39L38,5c.85.15,1.77.3,2.74.43,1.55.22,3.2.42,5,.6Q41.89,4.8,38,3.42l.09-.29q2.56.9,5.13,1.76V4.82A162.17,162.17,0,0,0,60.1,1.58l.07.29c-2.22.53-4.41,1-6.49,1.46,1.55.67,3.18,1.33,4.85,2l-.11.28c-1.8-.67-3.57-1.38-5.24-2.12h0c-3.58.73-6.85,1.3-9.47,1.63,4.76,1.57,9.51,3,14.19,4.31l0,.15,0,.15a54.67,54.67,0,0,1-10.28.15l-1.25,1.35c7.49.78,13.45.75,17.74-.09l.06.3A43.32,43.32,0,0,1,56.11,12ZM47.55,9.51a54.68,54.68,0,0,0,9.51-.06Q51.94,8,46.75,6.36v.1c-2.19-.21-4.13-.43-5.92-.69L38.61,8.26a73.42,73.42,0,0,0,8.94,1.25ZM38,2.82l0-.3,2.22-.23,0,0,4-4.39.23.21L40.59,2.25c6-.65,19.81-2.31,32.2-5l.07.29A334.35,334.35,0,0,1,38,2.82Z"/><polygon class="cls-1" points="25.69 30.78 25.42 30.65 27.03 27.24 27.3 27.36 25.69 30.78"/></svg>