<svg id="Capa_1" data-name="Capa 1" xmlns="http://www.w3.org/2000/svg" xmlns:xlink="http://www.w3.org/1999/xlink" viewBox="0 0 54.02 37.91"><defs><style>.cls-1,.cls-2,.cls-4{fill:none;}.cls-2,.cls-4{stroke:#000;}.cls-2{stroke-width:0.8px;}.cls-3{clip-path:url(#clip-path);}.cls-4{stroke-width:0.3px;}.cls-5{clip-path:url(#clip-path-2);}.cls-6{clip-path:url(#clip-path-3);}</style><clipPath id="clip-path"><rect class="cls-1" x="-33.88" y="-3.96" width="16.19" height="43.2"/></clipPath><clipPath id="clip-path-2"><rect class="cls-1" x="0.01" y="-3.96" width="17.72" height="43.2"/></clipPath><clipPath id="clip-path-3"><rect class="cls-1" x="17.53" y="-3.96" width="36.48" height="43.2"/></clipPath></defs><title>644 Dolomita o dolomía oolítica</title><polygon class="cls-2" points="70.81 86.68 70.81 -512.12 -445.02 -512.12 -445.02 86.7 70.81 86.68"/><g class="cls-3"><path class="cls-4" d="M-25.76,30.58l1.52-1.68,0,0m-1.54,1.7h0m-5.42,1,0,.06m-1.75,2,1.75-2m-.8,8,2.65-2.94m0,0,0,0m11.18-1.65h0m0,0-2,2.27m4.67-12.85L-17.8,27m1.1-13.69-3.76,4.12m-3.9-11.52h0m0,0-1.5,1.62,0,0M-31.12,1.8l0,0m-2.41,2.72,2.41-2.72m10.23,19.75.07-.09m-.07.09-4,4.45m1.48-8.42-4,4.7m-.21-28.12-4,4.38m3,14.36.16-.09m-.16.09-.22.12c-1.09.48-2.81,1.12-5,1.89m12.17-1.78,2.38-2.59m-14,2.06.05,0m-.05,0-.37.21-.2.06M2.42,9.7c-5.79,1.12-20.07,1.56-36.3-.36M-21,25.5c11.79,5.89,26,8.39,26,8.39,5,1.06,10.22,1.84,15.31,2.4m-46.08-5.71a50.9,50.9,0,0,1-8.12-2.83m8.12,2.83a29.34,29.34,0,0,0,7.31.81m-15.43-.21c.89.16,1.77.32,2.64.46m17.17,1.5a101.49,101.49,0,0,1-17.17-1.5M-9.42,34.9c-2.45.16-5.29.28-8.79.19m-15.67-1.55a119.62,119.62,0,0,0,15.67,1.55m-15.67,1.2c1.5.17,3,.32,4.49.45m28.14.79a233.71,233.71,0,0,1-28.14-.79m8.48-15.17a355.9,355.9,0,0,0,39.78-8.28m-39.78,8.28c-4.38.63-8.76,1.14-13,1.46m24.22-6.38a224.83,224.83,0,0,1-24.22,1m.57-5.07c1.53.11,3.09.22,4.66.3,13.66.76,28,.29,36.49-2.13m-41.15,1.83-.57,0m0-11.18c.86.15,1.77.29,2.74.43m6,.69c-2.24-.21-4.22-.44-6-.69m6.78,4.05A76,76,0,0,1-33.88,4.5m9.52,1.37A53.92,53.92,0,0,0-14,5.72M-25.86,7.49c-2.63-.28-5.32-.65-8-1.09m8,1.09c6.94.74,13.38.86,18.08-.06m-5.64-5.8q-2.67-1-5.24-2.13M-33.88,39.67l3.68.2m27.93-.07a248.32,248.32,0,0,1-27.93.07m-3.68-41A331.93,331.93,0,0,0,.93-6.42M-14,5.72c-7.34-2-14.1-4.22-19.84-6.24m4.5,27.17c-1.53.17-3,.3-4.5.4m4.5-.4c4.45-.48,9.12-1.23,13.8-2.14m1.51,8.63c-3.72-1.44-7.13-2.9-10.17-4.24l-5.14-2.25-.16-.07m-.66,13.29.08,0M-28.7,1.18A160.62,160.62,0,0,0-11.76-2.07"/></g><g class="cls-5"><path class="cls-4" d="M17.73,27.1a.85.85,0,0,0-.23,0,1,1,0,1,0,0,1.91.85.85,0,0,0,.23,0m0-16.92a1.09,1.09,0,0,0-.26,0,1,1,0,0,0,0,1.91,1.09,1.09,0,0,0,.26,0m0-16.67a1,1,0,0,0-.84,1,1,1,0,0,0,.84,1M7.23,39.78a1,1,0,1,0,1-1A1,1,0,0,0,7.23,39.78ZM1.08,35.9a1,1,0,1,0,1-1A1,1,0,0,0,1.08,35.9Zm13.55,0a1,1,0,1,0,1-1A1,1,0,0,0,14.63,35.9Zm-3.35-4.12a1,1,0,1,0-1,1A1,1,0,0,0,11.28,31.78ZM5.51,28a1,1,0,1,0-1,1A1,1,0,0,0,5.51,28Zm6.14-3.41a1,1,0,0,0-1.91,0,1,1,0,1,0,1.91,0ZM1.33,21a1,1,0,1,0,1-1A1,1,0,0,0,1.33,21Zm13.8,0a1,1,0,1,0,1-1A1,1,0,0,0,15.13,21ZM8.61,16.89a1,1,0,1,0,1-1A1,1,0,0,0,8.61,16.89Zm-4.44-3a1,1,0,1,0-1-.95A1,1,0,0,0,4.17,13.91ZM9.61,9.22a1,1,0,1,0,1-1A1,1,0,0,0,9.61,9.22ZM3.25,5.94a1,1,0,1,0-1,.95A1,1,0,0,0,3.25,5.94Zm14.43,0a1,1,0,1,0-1,.95A1,1,0,0,0,17.68,5.94Zm-7-3.61a1,1,0,1,0-1,.95A1,1,0,0,0,10.65,2.33ZM5.38-1.84a1,1,0,0,0-1-.95,1,1,0,0,0-1,1,1,1,0,0,0,1,1A1,1,0,0,0,5.38-1.84Zm.2-6.39L3.05-4.09M4.53.16l0,0m0,.05-2.42,4m3.31,3.3,0,0m0,0-2,3.41m1,4.08h0m0,0L2.18,18.72m1.38,7.46L5.5,23.05M2.34,33.64l0,.06m0-.06,2.32-3.79m0,0,0,0M14.89-4.09l2.62-4.12M9.77.11,12.43-4m5,4.17,0,0m0,.05L15,4.18m-4.13,0-2,3.25m2-3.25h0m6.7,3.28v0m0,0-2.21,3.43m0,0,0,0m-2.16,0v0L10.71,15m4.7,3.76L17.66,15m0,0h0M15.42,26.23h0m0,0,2-3.21M11,18.85,8.39,22.92m2.51,6.9L13,26.24m1.8,7.4,2.46-3.79m0,0v0m-2.47,3.81-.05.06M.56,41.45l2.05-3.36M14,41.45,16,38.09m-5.4-4.45L8,38m-44.6,0H17.73M15.42,26.23h-52m52,0h2.31M17.8,23h-.07m-54.32,0H17.73m-54.32-4.22H17.73M4.43,15H17.66M4.43,15H-9m26.66,0h.07m-2.42-4.06h2.42m-19.58,0h15m0,0h2.17m2.21-3.43h.21m-12.31,0H-8.45m13.87,0h12.1M-3.85,4.19H17.73m-2.9,29.45H10.64m-8.3,0H-4m6.35,0h8.3m4.19,0h2.9M4.66,29.85h-14m14.05,0H17.8M17.39.16h.34m-.34,0H-9M17.73-4H-1.68"/></g><g class="cls-6"><path class="cls-4" d="M47.55,39.78a1,1,0,1,0,1-1A1,1,0,0,0,47.55,39.78Zm-14,0a1,1,0,1,0,1-1A1,1,0,0,0,33.5,39.78Zm-13.8,0a1,1,0,1,0,1-1A1,1,0,0,0,19.7,39.78Zm7.15-3.88a1,1,0,1,0,1-1A1,1,0,0,0,26.85,35.9Zm13.8,0a1,1,0,1,0,1-1A1,1,0,0,0,40.65,35.9Zm9.74-3.16a1,1,0,1,0-1-1A1,1,0,0,0,50.39,32.74Zm-13.34-1a1,1,0,1,0-1,1A1,1,0,0,0,37.05,31.78Zm-14.18,0a1,1,0,1,0-1,1A1,1,0,0,0,22.87,31.78ZM31.65,28a1,1,0,1,0-1,1A1,1,0,0,0,31.65,28ZM45.2,28a1,1,0,1,0-1,1A1,1,0,0,0,45.2,28ZM17.53,29a1,1,0,0,0,0-1.85m34.7-2.49a1,1,0,1,0-1,1A1,1,0,0,0,52.23,24.61Zm-15.06,0a1,1,0,1,0-1,1A1,1,0,0,0,37.17,24.61Zm-14.3,0a1,1,0,1,0-1,1A1,1,0,0,0,22.87,24.61ZM28,21a1,1,0,1,0,1-1A1,1,0,0,0,28,21ZM41,21a1,1,0,1,0,1-1A1,1,0,0,0,41,21Zm8.4-4.09a1,1,0,1,0,1-1A1,1,0,0,0,49.43,16.89Zm-14,0a1,1,0,1,0,1-1A1,1,0,0,0,35.38,16.89ZM21,16.89a1,1,0,1,0,1-1A1,1,0,0,0,21,16.89Zm-3.42-3a1,1,0,0,0,0-1.85M43,13a1,1,0,1,0,1-1A1,1,0,0,0,43,13Zm-12.59.95a1,1,0,1,0-1-.95A1,1,0,0,0,30.44,13.91ZM50.31,9.22a1,1,0,1,0,1-1A1,1,0,0,0,50.31,9.22ZM36,9.22a1,1,0,1,0,1-1A1,1,0,0,0,36,9.22Zm-14.56,0a1,1,0,1,0,1-1A1,1,0,0,0,21.45,9.22Zm7-3.28a1,1,0,1,0,1-1A1,1,0,0,0,28.48,5.94Zm14.84,0a1,1,0,1,0-1,.95A1,1,0,0,0,43.32,5.94ZM20.83,2.33a1,1,0,1,0,1-1A1,1,0,0,0,20.83,2.33Zm16.34,0a1,1,0,1,0-1.91,0,1,1,0,0,0,1.91,0Zm14.31,0a1,1,0,1,0-1,.95A1,1,0,0,0,51.48,2.33ZM45.16-1.84a1,1,0,0,0-1-.95,1,1,0,0,0-1,1,1,1,0,0,0,1,1A1,1,0,0,0,45.16-1.84Zm-27.63,1h.11a1,1,0,0,0,1-1,1,1,0,0,0-1-.95h-.11m13.75,1a1,1,0,0,0-1-.95,1,1,0,0,0-1,1,1,1,0,0,0,1,1A1,1,0,0,0,31.28-1.84ZM31-8.19l-2.53,4.1M46-8.23,43.44-4.09M25.53-4l0,0m0,0L23,.11m13.24,0L38.73-4M52.44-4l0,0m0,0L49.9.11M30.33.11l0,.05-2.42,4m14.87,0,2.42-4m0,0,0,0m-21,4.08-2,3.25m2-3.25h0m12.73,0-2,3.25m2-3.25h0m13.35,0h0m0,0-2,3.25m-17.65,0-2,3.41m2-3.41,0,0m15.06,0,0,0m0,0-2,3.41M25,10.91,22.61,15M25,10.91l0,0m13.47,0L36.1,15m2.43-4.05,0,0m13.72,0,0,0m0,0L49.84,15M30.08,15h0m0,0-2.25,3.75M45.13,15h0l-2.25,3.75M24,18.85l-2.57,4.07M37,18.85l-2.57,4.07m16.25-4.07-2.58,4.07M28.26,26.18l1.94-3.13m13.18,3.13,1.94-3.13M23.05,29.82l2.13-3.58m11.17,3.58,2.13-3.58m11.61,3.58,2.13-3.58m-22,3.61-2.32,3.79m0,0,0,.06m2.36-3.85,0,0m12.21,3.82,0,.06m0-.06,2.32-3.79,0,0M26.58,41.45l2.05-3.36M41,41.45l2-3.36m7.15-4.51,0,.06m0,0L47.51,38M36.1,33.58l0,.06L33.46,38M23.05,33.58l0,.06m0,0L20.41,38m-2.88,0H71.86M69.55,26.23h-52m0-3.23H71.86M17.53,18.78H71.86M30.07,15H17.53m41,0H45.13m0,0H30.07m8.46-4.06H25m13.49,0H52.27m0,0h15M25,10.91H17.53m42-3.43H45.68m0,0H30.62m0,0H17.53M36.91,4.19H24.18m26.09,0H65m-14.68,0H36.91m-12.73,0H17.53M23,33.64H17.53m24.88,0H36.06m20.4,0H50.12m-22.26,0H23m4.85,0h8.2m6.35,0h7.71m8.67-3.79H44.73m0,0H17.53M30.3.16H17.53M30.3.16H45.17m13.48,0H45.17M71.86-4H25.53m0,0h-8"/></g></svg>