<svg id="Capa_1" data-name="Capa 1" xmlns="http://www.w3.org/2000/svg" xmlns:xlink="http://www.w3.org/1999/xlink" viewBox="0 0 54.03 37.91"><defs><style>.cls-1,.cls-3,.cls-4{fill:none;}.cls-2{clip-path:url(#clip-path);}.cls-3,.cls-4{stroke:#000;}.cls-3{stroke-width:0.3px;}.cls-4{stroke-linecap:round;stroke-width:0.7px;}.cls-5{clip-path:url(#clip-path-2);}</style><clipPath id="clip-path"><rect id="SVGID" class="cls-1" y="-0.45" width="46.11" height="42.44"/></clipPath><clipPath id="clip-path-2"><rect id="SVGID-2" data-name="SVGID" class="cls-1" x="45.9" y="-0.45" width="8.09" height="42.44"/></clipPath></defs><title>645 Dolomita o dolomía arenosa</title><g class="cls-2"><path class="cls-3" d="M11.92,41.24l-.45.75m13.94-.75L25,42m14.88-.75-.45.75M-.22-4.34-2.76-.19m13.23,0L13-4.33m13.7,0L24.15-.19m-19.6,0,0,0m0,0-2.42,4m17.29-4L17,3.88m2.42-4,0,0m11,4.07,2.41-4m0,0,0,0M9.16,7.14l2-3.25m0,0h0m13.36,0h0m0,0-2,3.25m-17.65,0-2,3.41m2-3.41,0,0m15,0,0,0m0,0-2,3.41m13.87,0,2-3.41m0,0,0,0m-21,3.41,0,0m-2.43,4.05,2.43-4.05m13.74,0-2.43,4.05m2.43-4.05,0,0M4.32,14.68v0m0,0L2.07,18.42m17.31-3.76v0l-2.25,3.74m15.68-3.76v0l-2.25,3.74M8.72,22.62l2.57-4.07M22.4,22.62,25,18.55M2.51,25.88l1.94-3.13m13.18,3.13,1.94-3.13m12.36,3.13,2-3.13M-2.7,29.52-.57,26M10.6,29.52,12.73,26m11.61,3.57L26.47,26M2.07,33.4l0-.06m2.32-3.78,0,0m0,0L2.11,33.34m14.51.06,0-.06L19,29.56m0,0,0,0M30.68,33.4l0-.06L33,29.56l0,0M38.14-.19l2.67-4.12m2.52,8.19,2.43-4,0,0M39.2,3.89l-2,3.25m2-3.25h0m4.48,6.73,0,0m0,0,2.2-3.43m0,0,0,0m-4.4,3.45,0,0m0,0-2.43,4.05m7,0v0m0,0-2.25,3.74m0,7.51,2.06-3.21m-2.06,3.21v0m-7-3.33,2.57-4.07m-.06,11L41.4,26m1.8,7.39,2.46-3.78m0,0,0,0M43.2,33.34l0,.06M.83,41.15l2.05-3.36m-2,3.36,0,0m14.38,0v0m0,0,2.06-3.36m11.68,3.36v0m0,0L31,37.79m11.37,3.36,0,0m0,0,2-3.36M39,33.34l-2.64,4.4m-12-4.4,0-.06m0,.06-2.6,4.4m-14,0,2.6-4.4,0-.06m35.76,4.49H-8.22m37.15,3.38H42.36m-41.53,0H15.19m0,0H28.93m-28.1,0h-9m50.58,0h3.75M43.79,25.93h-52m52,0h2.32m0-3.23H-8.22m54.33-4.21H-8.22m41-3.81H19.38m0,0H-8.22m54.26,0h.07m-.07,0H32.8M-.71,10.61H12.78m30.91,0H41.51m-15,0h15m2.18,0h2.42m-19.59,0H12.78M4.87,7.18H-8.22m28.15,0H33.79m-13.86,0H4.87m41,0h.22m-.22,0H33.79M39.2,3.89H24.52m-26.09,0H11.16m28,0h6.91m-21.59,0H11.16m32,29.45H39m-14.66,0h6.35m-33.45,0H10.31m28.71,0H30.71m12.49,0h2.91m-35.8,0h6.35m7.7,0h-7.7M19,29.56H45.66m0,0h.45m-41.68,0H-8.22m12.65,0H19m27.19,0h-.06M4.55-.14H-8.22m27.64,0H32.9m0,0H45.76m0,0h.35m-26.69,0H4.55"/><path class="cls-4" d="M41.59-1.3h0M5.81-1.22h0M-.57-1.3h0m20.26.08h0M13.32-1.3h0m20.59.08h0M27.54-1.3h0M42.69,1h0M39.27,2.8h0M36.34,1h0M32.89,2.71h0M29.48,1h0M26.05,2.8h0M23.12,1h0M19.68,2.71h0M.71,1h0M15.26,1h0M11.83,2.8h0M8.9,1h0M5.46,2.71h0m39.08,9.11h0m-3.45,1.76h0M37,11.91h0m-3.43,1.75h0m-2.93-1.84h0M27.2,13.58h0M23,11.91h0m-3.43,1.75h0M16.6,11.82h0m-3.45,1.76h0M9.24,11.91h0M5.81,13.66h0M2.88,11.82h0M-.57,13.58h0m1.78,2.34h0m14.55,0h0m-3.43,1.75h0M9.4,15.83h0M6,17.59H6m23.35-1.67h0m-3.43,1.75h0M23,15.83h0m-3.45,1.76h0m23.35-1.67h0m-3.43,1.75h0m-2.92-1.84h0m-3.45,1.76h0M45.12,36.73h0m-2.93-1.84h0m-3.44,1.75h0M20.85,5.19h0M17,6.39h0m-4.35-1h0m32.12,1h0m-4.35-1h0M.94,8.36h0m6.69-2.1h0M3.78,5.05h0m-4.35,1h0m35.3.17h0M30.88,5.05h0m-4.34,1h0M42.93,9.43h0m-3.85-1.2h0m-4.35,1h0m-19.4,0h0m-3.85-1.2h0m-4.35,1h0M.94,25h0m28.61,0h0M25.7,23.77h0m-4.35,1h0M9,28.32H9m-3.85-1.2h0m-4.35,1h0m36.14,0h0M33.06,27h0m-4.35,1h0M45.27,39.69h0M-.9,39.85h0m27.94,0h0m-3.85-1.2h0m-4.35,1h0M30.38,8.36h0M26.54,9.57h0m-4.35-1h0M15.33,23.74h0m-3.85,1.2h0m-4.35-1h0m35.8-.17h0m-3.85,1.2h0m-4.35-1h0m7.53,3.51h0m-20.07-.17h0m-3.85,1.2h0m-4.35-1h0m-.34,11.23h0m-3.84,1.2h0m-4.35-1h0m35.8-.17h0m-3.85,1.2h0m-4.35-1h0M35,35h0m-3.43,1.76h0m-2.93-1.84h0m-3.45,1.75h0M21,35h0m-3.43,1.76h0m-2.93-1.84h0m-3.45,1.75h0M7.06,35h0M3.63,36.73h0M.71,34.89h0M2,30.63H2m-3.43,1.75h0m17-1.75h0m-3.42,1.75h0M9.24,30.54h0M5.79,32.3h0m23.69-1.67h0m-3.43,1.75h0m-2.93-1.84h0M19.68,32.3h0M43,30.63h0M39.6,32.38h0m-2.93-1.84h0M33.23,32.3h0M45.62,21.6h0m-2.93-1.84h0m-3.44,1.76h0M7.9,19.84h0M4.47,21.6h0M1.54,19.76h0m19.74.08h0M17.85,21.6h0m-2.92-1.84h0m-3.45,1.76h0m23.84-1.68h0M31.89,21.6h0M29,19.76h0m-3.45,1.76h0"/></g><g class="cls-5"><path class="cls-3" d="M53.25,41.24l-.46.75M53.9-4.34,51.36-.19m1.19,4.08h0m0,0-2,3.25m2.87,3.47L51,14.66m2.43-4.05v0m-3.64,12,2.58-4.07m-.94,11L53.56,26m-2.17,7.39,0-.06m0,.06-2.6,4.4m51.44,0H45.9M55,41.15H45.9m52-15.22h-52m54.33-3.23H45.9m54.33-4.21H45.9m12.54-3.81H45.9m7.52-4.07H66.91m-13.49,0H45.9M59,7.18H45.9m6.65-3.29H65.29m-12.74,0H45.9m5.49,29.45h4.84m-4.84,0H45.9m12.66-3.78H45.9M58.67-.14H45.9"/><path class="cls-4" d="M46.72-1.22h0m6.84-.08h0M54.83,1h0M51.4,2.8h0M48.47,1h0m1.68,11h0m-3.43,1.75h0m6.84-.08h0m1.77,2.34h0M51.9,17.67h0M49,15.83h0m.24-10.64h0m5.86,3.17h0M51.22,9.57h0m-4.35-1h0m6.69-2.44h0M48,21h0m7,4h0m-3.85-1.21h0m-4.35,1h0m8,3.34h0m-1.68,11.7h0m-3.84-1.2h0m1.34-11.4h0m-3.85,1.2h0m8,6.44h0m-3.45,1.75h0m1.36-4.26h0m-2.93-1.84h0M46.36,32.3h0m5.86-10.78h0"/></g></svg>