<svg id="Capa_1" data-name="Capa 1" xmlns="http://www.w3.org/2000/svg" xmlns:xlink="http://www.w3.org/1999/xlink" viewBox="0 0 54.03 42.13"><defs><style>.cls-1,.cls-3,.cls-4{fill:none;}.cls-2{clip-path:url(#clip-path);}.cls-3,.cls-4{stroke:#000;}.cls-3{stroke-width:0.3px;}.cls-4{stroke-linecap:round;stroke-width:0.6px;}.cls-5{clip-path:url(#clip-path-2);}</style><clipPath id="clip-path"><rect id="SVGID" class="cls-1" y="-0.73" width="25.94" height="43.2"/></clipPath><clipPath id="clip-path-2"><rect id="SVGID-2" data-name="SVGID" class="cls-1" x="25.74" y="-0.73" width="28.26" height="43.2"/></clipPath></defs><title>646 Dolomita o dolomía limosa</title><g class="cls-2"><path class="cls-3" d="M22.32,32.16h3.62M22,2h3.92m-12.2,38H6.46m8.31-4.14h7.28M-5.39,16.87H1.89M-5.48,32.05H1.8m7.28-3.51H1.81m12.37-3.76H6.9m14.55-4H14.17M23,17h2.94m-2.89-3.89H15.77M14,9.74H6.69M8.25,6.23H1M-5.49,2H1.79M-2.48-.17.07-4.31m13.72,0L11.26-.17M6.52-.12,4,4M6.52-.12l0-.05M10.32,8.1l2.42-4m0,0,0,0M4.36,8.11h0m0,0-2,3.25m-2.59,0-2,3.41m2-3.41,0,0m13.84,0-2,3.41m2-3.41,0,0M6.35,14.83l0,0m0,0-2.43,4m8.72,0h0l-2.25,3.75m-5.58.13L2.23,26.84M-.6,27-2.54,30.1M13.71,27l-2,3.13M4.17,33.74l2.14-3.58m6.56,3.61,0,0m0,0-2.32,3.79m0,0,0,.06M23.1-.17l2.62-4.12M18,4,20.64-.09m5,4.17,0,0m0,0-2.44,4M17,11.36l2-3.25m0,0h0m6.69,3.29v0m0,0-2.21,3.43m0,0,0,0m-2.17,0-2.44,4m2.44-4v0m4.51,4.08-2.25,3.75m2.25-3.75h0M23.62,30.16h0m2.05-3.21-2.05,3.21m-4.46-7.38-2.58,4.07m2.51,6.9,2.14-3.58M23,37.56l0,.06m0-.06,2.47-3.79m0,0v0M8.77,45.37,10.82,42m11.37,3.36L24.25,42m-5.4-4.45L16.21,42M1.6,42l2.6-4.4m0-.06,0,.06M-28.39,42H25.94M-28.39,30.15h52m0,0h2.31m-54.33-3.23H25.94m.06,0h-.06m0-4.22H-28.39m54.26-3.81h.07m-.07,0H-.79m7.14-4.06h15m0,0h4.59m-19.59,0H-7.39M25.94,11.4h-.21m-26,0H13.62m0,0H25.73m-26,0H-15.3M4.36,8.11H-9m35,0H19m-14.68,0H19M10.55,37.56H4.2m-7.71,0H4.2m18.83,0H18.85m-8.3,0h8.3m4.18,0h2.91m0-3.79H26m-13.13,0H25.5m-12.63,0h-14m26.68,0h.44M25.6,4.08h.34m-26.69,0H12.74m0,0H25.6m.34-4.2H-20.39"/><path class="cls-4" d="M13.31,43.66h0m6.19,0h0m-3,0h0m4.66-3.76h0m3.17,0h0M-.2,9.81h0M9,1.92H9m6.19,0h0m-3,0h0m2.85,4.26h0m6.19,0h0m-3,0h0m3.48,3.63h0m3.18,0h0M2.52,13.07h0m6.19,0h0m-3,0h0m3.72,3.76h0m6.19,0h0m-3,0h0m-11.21,4h0m6.19,0h0m-3,0h0m17.27,3.89h0m3.18,0h0m-25.09,0h0m15.64,3.76h0m6.19,0h0m-3,0h0M9.67,32.05h0m6.19,0h0m-3,0h0M1.64,35.89h0m6.19,0h0m-3,0h0m-6,4h0"/></g><g class="cls-5"><path class="cls-3" d="M28.27,17H25.74m3.08,15.15H25.74m8.58-3.51H27m13.9-3.76H33.66m14.43-4H40.82m7.92-4H56m-7-3.76H41.77M33.84,9.85h7.28M39.76,40.07H32.48m8.23-4.38H48m.66-3.64h7.27M26.61,6.23h7.28M29.15,2H25.74M48.63,2h7.28M39.25-4.27,36.72-.17m14.93,0,2.54-4.14M33.74-.12,31.2,4M33.74-.12l0-.05M44.43,4,46.94-.11M38.51,4.08l-2.42,4m2.42-4,0,0m14.83,0,0,0m0,0L51,8.1m-18.58,0h0m0,0-2,3.25m12.74,0,2-3.25m0,0h0M38.83,11.4l0,0m0,0-2,3.41m17-3.41-2,3.41m2-3.41,0,0M33.25,14.83l0,0m0,0-2.43,4m15.93-4.07v0m-2.43,4,2.43-4m-8.46,4.06h0m0,0L36,22.64m17.31-3.76h0m0,0-2.25,3.75m-18.88.13-2.57,4.07m15.62-4.07-2.57,4.07M38.41,27,36.46,30.1M53.53,27l-2,3.13M31.26,33.74l2.13-3.58m11.17,3.58,2.13-3.58m-8.3,3.61-2.33,3.79m2.33-3.79,0,0m-2.35,3.82,0,.06M53,33.74l0,0m0,0-2.32,3.79m0,.06,0-.06M34.79,45.37,36.84,42m12.31,3.36L51.21,42m-6.9-4.51,0,.06L41.67,42M31.26,37.5l0,.06m0,0L28.62,42m-2.88,0H80.07M25.74,30.15h52m-52-3.23H80.07m0-4.22H25.74m27.59-3.81h-15m0,0H25.74m41,0H53.33M33.25,14.83H25.74m7.51,0H46.74m13.74,0H46.74m7.14-3.43H67.75m-13.87,0H25.74M58.48,8.11H45.12m-12.74,0H25.74m6.64,0H45.12M36.06,37.56h8.21m-8.21,0H31.22m19.4,0h7.7m-27.1,0H25.74m18.53,0h6.35M38.39,33.77H25.74m41.25,0h-14m-14.55,0H52.94m.43-29.69H38.51m14.86,0H66.86m-28.35,0H25.74M60.65-.12H25.74"/><path class="cls-4" d="M27,39.9h0M47.74,9.81h0m6.19,0h0m-3,0h0M35.69,1.92h0m6.19,0h0m-3,0h0m2.59,4.26h0m6.19,0h0m-3,0h0M28,9.81h0m.21,3.26h0m6.19,0h0m-3,0h0m4.23,3.76h0m6.19,0h0m-3,0h0m-11.33,4h0m6.19,0h0m-3,0h0M28,24.73h0m19.91,0h0m6.19,0h0m-3,0h0m-9.2,3.76h0m6.19,0h0m-3,0h0m-9.2,3.56h0m6.19,0h0m-3,0h0M27.54,35.89h0m6.19,0h0m-3,0h0m16.06,4h0m6.19,0h0m-3,0h0m-9.87,3.76h0m6.19,0h0m-3,0h0"/></g></svg>