<svg id="Capa_1" data-name="Capa 1" xmlns="http://www.w3.org/2000/svg" viewBox="0 0 70.3 38.67"><defs><style>.cls-1,.cls-2{fill:none;}.cls-1{stroke:#1d1d1b;stroke-width:0.3px;}</style></defs><title>652 Roca fosilífera</title><path class="cls-1" d="M54.18,25.68c-1.24.47-2,.33-3.6-.29.81,1.77,2.42,2.17,3.6,1.35"/><path class="cls-1" d="M54.18,1.59a2.61,2.61,0,0,0-2.47,1.75,5.76,5.76,0,0,1,2.47-.56"/><path class="cls-1" d="M45,2.08c1.13,2.48,3.84,2.25,4.74-.23C47.67,2.87,47,2.87,45,2.08Z"/><path class="cls-1" d="M38.19,3.34c2-.79,2.71-.79,4.74.23C42,1.08,39.32.86,38.19,3.34Z"/><path class="cls-1" d="M31.41,2.08c1.13,2.48,3.84,2.25,4.74-.23C34.12,2.87,33.44,2.87,31.41,2.08Z"/><path class="cls-1" d="M24.64,3.34c2-.79,2.71-.79,4.74.23C28.47,1.08,25.76.86,24.64,3.34Z"/><path class="cls-1" d="M17.86,2.08C19,4.56,21.7,4.33,22.6,1.85,20.57,2.87,19.89,2.87,17.86,2.08Z"/><path class="cls-1" d="M44.84,37.44c2-.79,2.71-.79,4.74.22C48.68,35.18,46,35,44.84,37.44Z"/><path class="cls-1" d="M12.29,30.35c-.9-2.48-3.61-2.7-4.74-.22C9.58,29.34,10.26,29.34,12.29,30.35Z"/><path class="cls-1" d="M16.86,21.89c-.91-2.48-3.62-2.7-4.75-.22C14.15,20.88,14.82,20.88,16.86,21.89Z"/><path class="cls-1" d="M38.06,20.7c2-.79,2.71-.79,4.74.23C41.9,18.45,39.19,18.22,38.06,20.7Z"/><path class="cls-1" d="M8.68,12.58c-.9-2.48-3.61-2.7-4.74-.22C6,11.57,6.65,11.57,8.68,12.58Z"/><path class="cls-1" d="M11.08,3.34c2-.79,2.71-.79,4.75.23C14.92,1.08,12.21.86,11.08,3.34Z"/><path class="cls-1" d="M27.32,28.62c1.13,2.48,3.84,2.25,4.74-.23C30,29.41,29.35,29.41,27.32,28.62Z"/><path class="cls-1" d="M45.82,7.93c-2,1-2.72,1-4.75.23C42.2,10.64,44.91,10.41,45.82,7.93Z"/><path class="cls-1" d="M27.62,13.39c-2,1-2.71,1-4.74.22C24,16.09,26.72,15.87,27.62,13.39Z"/><path class="cls-1" d="M4.31,2.08c1.13,2.48,3.84,2.25,4.74-.23C7,2.87,6.34,2.87,4.31,2.08Z"/><line class="cls-1" x1="54.18" y1="0.36" y2="0.36"/><line class="cls-1" y1="4.63" x2="54.18" y2="4.63"/><polygon class="cls-2" points="4.47 1.69 52.18 -1.31 54.18 37.52 5.47 36.52 4.47 1.69"/><path class="cls-1" d="M18.84,35.44c2-.79,2.71-.79,4.74.22C22.68,33.18,20,33,18.84,35.44Z"/><line class="cls-2" x1="28.18" y1="35.52" x2="-18.53" y2="31.52"/><path class="cls-1" d="M67.27,32.35c-.9-2.48-3.61-2.7-4.74-.22,2-.79,2.71-.79,4.74.22"/><path class="cls-1" d="M64.66,9.58c-.9-2.48-3.61-2.7-4.74-.22,2-.79,2.71-.79,4.74.22"/><path class="cls-1" d="M54,26.74a3.26,3.26,0,0,0,1.15-1.57,10.31,10.31,0,0,1-1.15.51"/><path class="cls-1" d="M58.29,2.08c1.13,2.48,3.84,2.25,4.74-.23C61,2.87,60.32,2.87,58.29,2.08Z"/><path class="cls-1" d="M54,2.78a6.14,6.14,0,0,1,2.27.79,2.73,2.73,0,0,0-2.27-2"/><line class="cls-1" x1="108.16" y1="0.36" x2="53.98" y2="0.36"/><line class="cls-1" x1="53.98" y1="4.63" x2="108.16" y2="4.63"/><polygon class="cls-2" points="53.98 -2.31 62.47 -2.31 62.47 35.52 53.98 37.52 53.98 -2.31"/></svg>