<svg id="Capa_1" data-name="Capa 1" xmlns="http://www.w3.org/2000/svg" xmlns:xlink="http://www.w3.org/1999/xlink" viewBox="0 0 54 43.2"><defs><style>.cls-1,.cls-3,.cls-7{fill:none;}.cls-2{clip-path:url(#clip-path);}.cls-3{stroke:#1d1d1b;stroke-width:0.3px;}.cls-4{clip-path:url(#clip-path-2);}.cls-5{clip-path:url(#clip-path-3);}.cls-6{clip-path:url(#clip-path-4);}.cls-7{stroke:#000;stroke-linecap:round;stroke-width:0.7px;}</style><clipPath id="clip-path"><rect id="SVGID" class="cls-1" y="19.3" width="30.82" height="23.9"/></clipPath><clipPath id="clip-path-2"><rect id="SVGID-2" data-name="SVGID" class="cls-1" x="30.62" y="19.3" width="23.39" height="23.9"/></clipPath><clipPath id="clip-path-3"><rect id="SVGID-3" data-name="SVGID" class="cls-1" width="30.82" height="19.46"/></clipPath><clipPath id="clip-path-4"><rect id="SVGID-4" data-name="SVGID" class="cls-1" x="30.62" width="23.39" height="19.46"/></clipPath></defs><title>654 Subgrauvaca</title><g class="cls-2"><path class="cls-3" d="M29.39,38.13h1.43m-13.11,3H12.05m10.44-3H16.91m-16.23,0H7.42m2.76-2.89h5.47m10.83-5.77h4.34m-35.34,0H1.23m21.3-2.95H16.91M8.44,23.58h7.21M-6,23.58H.94m6.67,8.69H.68m19.84,0h6.92M2,20.61H9.87m12,0H29.7"/></g><g class="cls-4"><path class="cls-3" d="M41,41.14H34.66m-.08-3h-4m16.81,0h6.74M41.28,35.24H35m7.27-5.77H48m-9.34-3H32.32m8.44-2.88h6.93m-9.28,8.69H31.32m23,0H47.43M33,20.61h6.92m8.85,0h7.86"/></g><g class="cls-5"><path class="cls-3" d="M26.22,11.86h4.6M27.45,5.93h3.37M1.23,17.63H-4.18m21.64,0H12.05m5.61-5.77H12.05m-12.76,0H4.84M20.52,8.94h5.64m-21.88,0h7.57m3.8-3h5.61m-18.08,0H-2.38M11.51,3.17h5.4m.35,11.41h6.86M10.25.22H3.07m19.8,0H30"/></g><g class="cls-6"><path class="cls-3" d="M42.15,9.06H36.6M48,17.63H42.57M30.62,11.86h1m14.4,0h5.55M51,8.94H58.6m-8.67-3H44.37m-10.92,0H30.62M46,3.17H39.68m5.54,11.41H38.41M41,.22H35.35M57,.22H49.82"/></g><g class="cls-2"><path class="cls-7" d="M27.73,44h0m1.81,0h0m-3.61,0h0m-9,0h0M13.3,44h0m1.8,0h0M9.7,44h0m1.8,0h0M6.09,44h0m1.8,0h0m19.84-5.84h0m-3.61,0h0m1.81,0h0m-12.63,0h0m1.8,0h0m-5.4,0h0m1.8,0h0m-12.63,0h0m30.67-5.91h0m-12.63,0h0m1.8,0h0m-5.41,0h0m1.8,0h0m-5.4,0h0m1.8,0h0m-12.63,0h0M27.73,26.5h0m1.81,0h0m-5.42,0h0m1.81,0h0m-12.63,0h0m1.8,0h0m-5.4,0h0m1.8,0h0m-5.41,0h0m1.8,0h0m-5.41,0h0m1.8,0h0m-5.41,0h0m1.81,0h0m19.84-5.89h0m-3.61,0h0m1.8,0h0m-5.41,0h0m1.8,0h0m-3.6,0h0m-12.63,0h0m1.81,0h0M30.09,41.08h0m-3.61,0h0m1.8,0h0m-5.41,0h0m1.81,0h0m-5.41,0h0m1.8,0h0m-12.63,0h0m1.81,0h0m-5.41,0h0m1.8,0h0m-5.41,0h0m1.8,0H3m-3.61,0h0m30.67-5.91h0m-3.61,0h0m1.8,0h0m-5.41,0h0m1.81,0h0m-5.41,0h0m1.8,0h0m-3.61,0h0m-9,0h0m-3.6,0h0m1.8,0h0m-5.41,0h0m1.8,0H3m-3.61,0h0m23.45-5.71h0m1.81,0h0m-5.41,0h0m1.8,0h0m-5.42,0h0m1.81,0h0m-5.41,0h0m1.8,0h0m-5.41,0h0m1.81,0h0m-5.41,0h0m1.8,0h0M3,29.46H3m27.06-5.9h0m-3.61,0h0m1.8,0h0m-5.41,0h0m1.81,0h0m-5.41,0h0m1.8,0h0m-3.61,0h0m-12.62,0h0m1.8,0h0M3,23.56H3"/></g><g class="cls-4"><path class="cls-7" d="M52.84,44h0m1.81,0h0M42,44h0m-3.61,0h0m1.8,0h0M34.8,44h0m1.8,0h0m-5.41,0h0M33,44h0m12.63-5.84h0m-3.6,0h0m1.8,0h0m-5.41,0h0m1.8,0h0m-3.61,0h0m9-5.91h0m-3.6,0h0m1.8,0h0m-3.61,0h0M52.84,26.5h0m1.81,0h0m-5.42,0h0m1.8,0h0m-5.41,0h0m1.81,0h0M42,26.5h0m1.8,0h0m-3.61,0h0m-9,0h0m14.43-5.89h0m1.81,0h0m-5.41,0h0m1.8,0h0m-12.63,0h0m24,20.47h0m-3.61,0h0m1.8,0h0m-5.41,0h0m1.8,0h0m-5.41,0h0m1.8,0h0m-3.6,0h0m-9,0h0m-1.8,0h0M55.2,35.17h0m-3.61,0h0m1.8,0h0m-5.41,0h0m1.8,0h0m-5.41,0h0m1.8,0h0m-3.6,0h0m-9,0h0m-1.8,0h0M55.2,29.46h0m-3.61,0h0m1.8,0h0m-3.61,0h0m-9,0h0m-3.6,0h0m1.8,0h0m-5.42,0h0m1.81,0h0m-3.61,0h0m19.85-5.9h0m1.8,0h0m-3.61,0h0m-12.62,0h0m1.8,0h0m-5.42,0h0m1.81,0h0m-3.61,0h0"/></g><g class="cls-5"><path class="cls-7" d="M27.73,14.67h0m1.81,0h0m-3.61,0h0m-12.63,0h0m1.8,0h0m-5.4,0h0m1.8,0h0m-5.41,0h0m1.8,0h0m-5.41,0h0m1.8,0h0m-3.6,0h0M27.73,8.89h0m1.81,0h0m-12.63,0h0m1.8,0h0m-5.41,0h0m1.8,0h0m-12.62,0h0m-3.61,0h0m1.81,0h0M27.73,3h0m1.81,0h0M24.12,3h0m1.81,0h0M20.52,3h0m1.8,0h0M18.71,3h0m-9,0h0M6.09,3h0m1.8,0h0M2.48,3h0m1.8,0h0M.68,3h0M30.09,17.62h0m-3.61,0h0m1.8,0h0m-5.41,0h0m1.81,0h0m-5.41,0h0m1.8,0h0m-12.63,0h0m1.81,0h0m-5.41,0h0m1.8,0h0M3,17.62H3m19.84-5.77h0m1.81,0h0m-5.41,0h0m1.8,0h0m-12.63,0h0m1.81,0h0m-3.61,0h0M26.48,6h0M22.87,6h0m1.81,0h0M12.05,6h0m1.8,0h0M8.44,6h0m1.81,0h0M4.84,6h0m1.8,0h0M19.27.17h0m1.8,0h0m-5.42,0h0m1.81,0h0m-5.41,0h0m1.8,0h0M1.23.17h0M-.58.17h0"/></g><g class="cls-6"><path class="cls-7" d="M52.84,14.67h0m1.81,0h0m-5.42,0h0m1.8,0h0m-3.6,0h0m-12.63,0h0m1.8,0h0m-5.41,0h0m1.8,0h0M49.23,8.89h0m-3.61,0h0m1.81,0h0m-3.61,0h0m-9,0h0m-3.61,0h0m1.8,0h0M52.84,3h0m1.81,0h0M49.23,3h0M51,3h0m-3.6,0h0m-9,0h0M34.8,3h0m1.8,0h0M31.19,3h0M33,3h0M55.2,17.62h0m-3.61,0h0m1.8,0h0m-3.61,0h0m-9,0h0m-3.6,0h0m1.8,0h0m-5.42,0h0m1.81,0h0m-3.61,0h0M55.2,11.85h0m-1.81,0h0m-9,0h0m-3.61,0h0m1.81,0h0m-5.41,0h0m1.8,0h0m-5.42,0h0m1.81,0h0M55.2,6h0M51.59,6h0m1.8,0h0M40.76,6h0m1.81,0h0M37.16,6h0M39,6h0M35.35,6h0M48,.17h0m-3.61,0h0m1.8,0h0m-3.6,0h0m-9,0h0m-1.8,0h0"/></g></svg>