<svg id="Capa_1" data-name="Capa 1" xmlns="http://www.w3.org/2000/svg" viewBox="0 0 70.3 44.1"><defs><style>.cls-1,.cls-2,.cls-3{fill:none;}.cls-1,.cls-2{stroke:#000;}.cls-1,.cls-3{stroke-linecap:round;stroke-width:0.7px;}.cls-2{stroke-width:0.3px;}.cls-3{stroke:#1d1d1b;}</style></defs><title>655 Subgrauvaca con estratificación cruzada</title><path class="cls-1" d="M8.85,43.31h0"/><path class="cls-1" d="M43.25,43.16h0m-5-.06h0M54,42.91h0m-1.38.69h0M50.52,43h0m-3.89.13h0m-10.72.58h0"/><path class="cls-1" d="M22.89,14.6h0m.31,4.07h0M22.07,22.3h0m-5.26-.25h0m-5.14-.5h0m-5-.38h0m16.48,4.51h0m-3,0h0m-3.13,0h0m-3.07-.19h0M3,24.49H3m18.79,5h0m-4.26,0h0m-3.82-.12h0m-3.82-.25h0m-4.26-.38h0m-4.33-.69h0M2.94,3.58h0m3.57,1h0m4,.88h0m3.83.62h0m3.88.44h0M3.86,18.44h0m2.07-.5h0m1.88-.44h0m2-.56h0m1.88-.57h0m2-.56h0m1.87-.63h0m2-.69h0m1.81-.81h0M21.09,13h0m1.75-1.06h0m-6.34-.11h0m-2.43.92h0m-2.55.86h0m-2.44.69h0m-3,.87h0m-3.14.63h0m-.83,2.9h0M13,11.05h0m-2.76.63h0m-2.63.56h0m-2.76.56h0m-2.94.57h0m-.5-4.45h0m3.76.88h0m-2,.88h0m-2.25.87h0m3.63,8h0m-1.94.75h0m-1.76.75h0M23.47,31.84h0m-1.75-.13h0m-2.13.13h0m-2.07-.06h0m-1.94,0h0m-2-.07h0m-2.13,0h0m-2,0h0m-1.95,0h0m-2.06,0h0m-1.94-.18h0m-2-.07h0m.88,1.88h0M.35,34h0m8-.25h0m1.9,5.76h0m2.59,1.08h0m2.88.76h0m2.8.58h0m2.42.25h0m2.51.15h0m.25-3.07h0m-3.13-.57h0M17.77,38h0m5.51-2.31h0m-1.19-2.38h0m-1.82.88h0M18.46,35h0m-1.88.75h0m-1.82.63h0m-2.17-1.84h0m2.32-1.19h0m-9.23,1.4h0m-3,1h0M1.38,38.45h0m2,2.91h0m2.51,1.06h0m6.91-5.53h0m-2.09.5h0m-2.42.75h0m-2.51.71h0m-2.42.46h0m-2.17.59h0M4.34,8.26h0M2.25,7.59h0M13.32,9.86h0m2,.31h0m2.15.17h0m1.88.13h0m2.19.12h0m2.13.13h0M21.93,6.83h0M8.62,1.41h0m2.82.5h0m3.13.31h0m3,.38h0m3,.19h0m3,.06h0"/><path class="cls-2" d="M1.18-.62A40.84,40.84,0,0,0,6.75,1.21M4.51,37.58A42.42,42.42,0,0,0,10,35.68m4.64-18a32.13,32.13,0,0,0,4.44.56M7.22,25a18.92,18.92,0,0,0,3.91.27M6.67,8.72A31.59,31.59,0,0,0,11.76,9.8"/><path class="cls-1" d="M42.75,40.9h0m-2.07,1.19h0m2.07-1.19h0m-2.07,1.19h0M45.44,42h0m3.14,0h0m-21.37-23h0M26,22.3h0m18.3,2h0m-3.39.32h0M37.86,25h0m-3.19.19h0m-3.07.19h0m-3,.19h0m24,.62h0m-2.89.57h0m-2.94.5h0m-3.32.5h0m21.45-4.27h0m-2.84.75h0m-2.9.68h0m-3.29.7h0M40.18,28.19h0m-3.38.43h0M32.73,29h0m-3.7.25h0m-3.76.19h0M26,25.68h0m3.7-3.5h0m4-.13h0m3.88-.13h0m3.63-.25h0m3.14-.37h0m2.75-.25h0m3-.38h0m-8.4-1.75h0M38.55,19h0M28.4,15.41h0m-2.63-.31h0m5.33.63h0M40.66.41h0M25.88,2.85h0M29,2.91h0M31.89,3h0m3-.07h0M37.9,3h0m3-.06h0m3-.12h0m5.51-.38h0m-2.51.25h0M59.62,1h0m3-.43h0m2.87,43.18h0m3-.5h0m-67-1h0M42.12,6.65h0m-3.19.25h0m-13.12,0h0m19.63-.65h0M49,5.83h0m3.89-.62h0m6.53-1h0m-3.17.47h0m6.45-1.08h0m3.54-.68h0M48.37,12.93h0m5.45-2.69h0M51,9.61h0m-5.64,2.48h0m-3.84-1h0m-7.35,1h0m3.63,1.32h0m3.82,1.25h0m4.07,1.07h0m4.51.87h0m4.14.63h0m.71,2.63h0m-2-.17h0m-1.94-.31h0m-1.88-.31h0m-2-.32h0M65,21h0m-2-.08h0m-2-.22h0m-1.89-.23h0m-2-.22h0M45.23,18.38h0M63.8,11.83h0m-2-.19h0M60,11.44h0m9.23.42h0m-2,0h0m-1.91,0h0m-7.37-.66h0M56,11h0M43.29,17.88h0m-1.88-.5h0m-2.06-.51h0m-1.76-.5h0m-1.88-.62h0M65.82,9.67h0M63.9,9.38h0m-2.11-.26h0M60,8.82h0m-1.94-.4h0m-24.34,6.7h0m-1.94-.69h0M30,13.68h0m25,15h0m-2.07.37h0M51,29.4h0m-2,.31h0m12.69-2.43h0m-1.88.31h0m-2,.32h0M47.05,30h0m13.7,1.19h0m-2,.31h0m-2,.25h0m-11.63-1.5h0m-2,.31h0m-2,.13h0m-2,.25h0M37.09,31h0m-1.88.26h0m-2,.12h0m-.23,2h0m3.57,1.26h0m3.51,1.25h0m4.19,1.25h0m4.39,1.06h0m-7.73-5.3h0M53,39.08h0m4.29.88h0m4.5-.38h0M66.12,39h0M48.43,32.21h0m2.82.94h0m2.94.94h0M52.31,36.6h0m2.89.62h0m-.32-6.32h0m-.5,10.39h0M52.44,41h0M50.5,40.6h0m-2.13-.43h0m-1.94-.38h0m-1.76-.38h0M42.6,39h0m-1.94-.5h0m-1.94-.57h0m-1.88-.62h0M35,36.6h0M33.08,36h0m-1.94-.75h0m-1.82-.81h0m5.33,3.88h0m-2.88.56h0m-3,.32h0m11.53.69h0m-2.64.62h0m-2.94.63h0m-2.88.5h0m-3,.31h0m-3,.25h0m-.12-2.94h0m.81-3.13h0m.94-2.51h0m-2.13-1.81h0M26.5,11.93h0m1.63.81h0m-2.55-2h0m2.2-.25h0m2-.25h0m2.07-.07h0M34,10h0m2.29-.3h0m1.88-.25h0m2-.31h0m1.94-.19h0M44,8.67h0m2-.31h0m2-.25h0m2-.32h0m1.94-.31h0m1.94-.31h0"/><path class="cls-2" d="M47.1,23.87a42,42,0,0,0,5.83-.7m-22.8-4.08a42.23,42.23,0,0,0,5.87.09m15.28-17a40.48,40.48,0,0,0,5.82-.74M29.33,6.9a41.28,41.28,0,0,0,5.87-.06M43.67,33.9a44.1,44.1,0,0,0,5.7,2m-22.23-4a24,24,0,0,0,4.38-.31M50.7,13.42a32.49,32.49,0,0,0,5.13.85"/><path class="cls-1" d="M92.89,14.6h0m.31,4.07h0M92.07,22.3h0m-5.26-.25h0m-5.14-.5h0m-5-.38h0m16.48,4.51h0m-3,0h0m-3.13,0h0m-3.07-.19h0m-10.9-1h0m-4-.62h0M91.82,29.5h0m-4.26,0h0m-3.82-.12h0m-3.82-.25h0m-4.26-.38h0m-4.33-.69h0m8.59,1.07h0m-4.26-.38h0m-4.33-.69h0m-2-25.86h0m3.63,1.38h0m3.57,1h0m4,.88h0m3.83.62h0m3.88.44h0M73.86,18.44h0m2.07-.5h0m1.88-.44h0m2-.56h0m1.88-.57h0m2-.56h0m1.87-.63h0m1.95-.69h0m1.81-.81h0M91.09,13h0m1.75-1.06h0m-6.34-.11h0m-2.43.92h0m-2.55.86h0m-2.44.69h0m-3,.87h0m-3.14.63h0m-3.19.56h0m2.36,2.34h0m-2.44.83h0M83,11.05h0m-2.76.63h0m-2.63.56h0m-2.76.56h0m-2.94.57h0m-3,.56h0m-3,.51h0m-3,0h0m-3,0h0M71.42,8.92h0m-1.88.5h0m5.64.38h0m-2,.88h0m-2.25.87h0m3.63,8h0m-1.94.75h0m-1.76.75h0M69,21.76h0M93.47,31.84h0m-1.75-.13h0m-2.13.13h0m-2.07-.06h0m-1.94,0h0m-2-.07h0m-2.13,0h0m-2,0h0m-2,0h0m-2.06,0h0m-1.94-.18h0m-2-.07h0m-8.07-1h0M61.5,30h0m-2-.41h0m-1.87-.57h0m14.75,4.28h0m-2.94,1h0m9-.58h0m1.9,5.76h0m2.59,1.08h0m2.88.76h0m2.8.58h0m2.42.25h0m2.51.15h0m.25-3.07h0m-3.13-.57h0M87.77,38h0m5.51-2.31h0m-1.19-2.38h0m-1.82.88h0M88.46,35h0m-1.88.75h0m-1.82.63h0m-2.17-1.84h0m2.32-1.19h0m-9.23,1.4h0m-3,1h0m-2.76.75h0m1.47,1.92h0m2,2.91h0m2.51,1.06h0m6.91-5.53h0m-2.09.5h0m-2.42.75h0m-2.51.71h0m-2.42.46h0m-2.17.59h0m-2.07.58h0M74.34,8.26h0m-2.09-.67h0M69.86,7h0M68,6.32h0m-2.09-.66h0m17.44,4.2h0m2,.31h0m2.15.17h0m1.88.13h0m2.19.12h0m2.13.13h0M91.93,6.83h0M78.62,1.41h0m2.82.5h0m3.13.31h0m3,.38h0m3,.19h0m3,.06h0"/><path class="cls-2" d="M71.18-.62a40.84,40.84,0,0,0,5.57,1.83M65.41,30.77c1.37.24,2.7.43,4.2.56m4.9,6.25A42.42,42.42,0,0,0,80,35.68m4.64-18a32.13,32.13,0,0,0,4.44.56M77.22,25a18.92,18.92,0,0,0,3.91.27M76.67,8.72A31.59,31.59,0,0,0,81.76,9.8"/><line class="cls-1" x1="58.43" y1="22.02" x2="58.43" y2="22.02"/><line class="cls-1" x1="55" y1="22.83" x2="55" y2="22.83"/><line class="cls-1" x1="64.81" y1="18.04" x2="64.81" y2="18.04"/><line class="cls-1" x1="66.86" y1="22.76" x2="66.86" y2="22.76"/><line class="cls-1" x1="67.67" y1="20.27" x2="67.67" y2="20.27"/><line class="cls-1" x1="67.34" y1="18.01" x2="67.34" y2="18.01"/><line class="cls-1" x1="61.84" y1="18.51" x2="61.84" y2="18.51"/><line class="cls-1" x1="57.9" y1="18.05" x2="57.9" y2="18.05"/><line class="cls-1" x1="67.71" y1="27.44" x2="67.71" y2="27.44"/><line class="cls-1" x1="63.55" y1="26.47" x2="63.55" y2="26.47"/><line class="cls-1" x1="65.77" y1="25.7" x2="65.77" y2="25.7"/><line class="cls-1" x1="67.64" y1="24.89" x2="67.64" y2="24.89"/><line class="cls-1" x1="66.86" y1="41" x2="66.86" y2="41"/><line class="cls-1" x1="64.98" y1="41.32" x2="64.98" y2="41.32"/><line class="cls-1" x1="62.98" y1="41.63" x2="62.98" y2="41.63"/><line class="cls-1" x1="58.87" y1="41.82" x2="58.87" y2="41.82"/><line class="cls-1" x1="61.04" y1="41.88" x2="61.04" y2="41.88"/><line class="cls-1" x1="56.79" y1="41.69" x2="56.79" y2="41.69"/><line class="cls-1" x1="58.46" y1="37.02" x2="58.46" y2="37.02"/><line class="cls-1" x1="62.41" y1="37.02" x2="62.41" y2="37.02"/><line class="cls-1" x1="66.04" y1="36.89" x2="66.04" y2="36.89"/><line class="cls-1" x1="66.83" y1="34.8" x2="66.83" y2="34.8"/><line class="cls-1" x1="64.02" y1="34.84" x2="64.02" y2="34.84"/><line class="cls-1" x1="61.02" y1="34.84" x2="61.02" y2="34.84"/><line class="cls-1" x1="57.96" y1="34.83" x2="57.96" y2="34.83"/><line class="cls-1" x1="55.87" y1="6.76" x2="55.87" y2="6.76"/><line class="cls-1" x1="57.88" y1="6.51" x2="57.88" y2="6.51"/><line class="cls-1" x1="59.88" y1="6.2" x2="59.88" y2="6.2"/><line class="cls-1" x1="61.83" y1="5.89" x2="61.83" y2="5.89"/><line class="cls-1" x1="63.77" y1="5.57" x2="63.77" y2="5.57"/><path class="cls-3" d="M12.14.36h0"/><path class="cls-3" d="M40.62.35m3.82.19h0M32.87.39h0"/><path class="cls-3" d="M18.74,1.11h0m3.43.36h0M15.63.86h0"/><path class="cls-3" d="M30.43.52h0m-2.95.63h0m-2.88.5h0"/></svg>