<svg id="Capa_1" data-name="Capa 1" xmlns="http://www.w3.org/2000/svg" viewBox="0 0 54.01 44.1"><defs><style>.cls-1,.cls-2{fill:none;stroke:#000;}.cls-1{stroke-width:0.3px;}.cls-2{stroke-linecap:round;stroke-width:0.7px;}</style></defs><title>656 Subgrauvaca con estratificación ondulada</title><path class="cls-1" d="M33.22,41.09a10.65,10.65,0,0,0,1.84.15M33.81,21.57a11.68,11.68,0,0,0,1.25-.37m-4.39-9.87a16.1,16.1,0,0,0,4.39,0M13.4,40.46c3.6-.67,6,.92,7.53,1.09M2.78,40.46c-3.18-.42-4.94.67-6.19.92m33.46-11a7.26,7.26,0,0,0-4.44-.08c-1.25.33-2.34,1.08-3.85,1.08M3.53,30.72a8.9,8.9,0,0,0,6.86.25m23.92-4.55c-.42-.08-2.26.42-3.62-.5a7.22,7.22,0,0,0-3.57-.5m-10.88.08a7.23,7.23,0,0,0-4.43-.08C10.55,25.75,9.47,26.5,8,26.5M.68,16.31c1.18.25,5.19.33,7.37-.76m2.42-4.93c3.6-.66,6,.92,7.53,1.09M-.15,10.62c-3.18-.41-4.94.67-6.19.92M27.33,35.32a7.34,7.34,0,0,1,3.57.5c1.36.92,3.2.42,3.62.5m-26.35.09c1.51,0,2.6-.76,3.85-1.09a7.38,7.38,0,0,1,4.43.08m6.78-14.75c-2.18,1.09-6.19,1-7.36.75m-19.58-.75c3.6-.67,6,.92,7.53,1.09m15.27-5.22c1.25-.25,3-1.34,6.19-.92m-7.2-9.11c1.17.25,5.19.33,7.36-.76m-26.93,0c3.6-.66,6,.92,7.53,1.09"/><path class="cls-2" d="M7.08,38.82h0m-1.73-.37h0M3.4,38h0m-2-.13h0M-.49,38h0m34.31-6.64h0M32.08,31h0m1.46,2.77h0M31.6,33.4h0M29.67,33h0m-2.13-.21h0m-1.94.13h0m-1.82.62h0m-2.07.32h0m-1.86-2.43h0m-1.91-.37h0m-2-.44h0m-2-.13h0m-1.94.13h0m7.63,3.11h0m-1.91-.37h0m-2-.44h0m-1.95-.13h0M12,32.94h0m-1.82.62h0m-2.07.32h0m-2-.07h0m-1.74-.37h0M2.4,33h0m-2-.12h0m33.68-4.06h0m-1.77-.07h0m-2.25-.37h0m-2-.45h0m-2.85-2.5h0M23.48,26h0m-2.07.32h0m-2-.12h0m-1.91-.37h0M26.2,27.8h0m-1.94.12h0m-1.82.62h0m-2.06.32h0m-2-.12h0m-1.91-.37h0m-1.94-.45h0m-2-.12h0m-1.94.12h0m-1.82.62h0M6,26.44H6m-1.74-.37h0m-1.95-.44h0M.32,25.5h0m6.44,3.36h0m-2-.07h0M2.32,30.56h0m-1.53.05h0m-2-.12h0M3,28.42H3M1.06,28h0m-2-.13h0M34,24.13h0m-1.61-2.45h0m-1.74-.37h0m-1.94-.45h0m-2-.12h0M25,20.61h0m7,3.45h0m-1.73-.37h0m-1.95-.45h0m-2-.12h0m-1.93.12h0m-1.82.62h0m-2.07.32h0m-2-.12h0m-1.91-.37h0m-2-2.66h0m-1.95-.41h0m-1.91-.21h0M8.92,21h0m-2.06.32h0m-2,.26h0m9.87,1.63h0m-2-.12h0m-1.93.12h0M9,23.86H9m-2.07.32h0m-2-.06h0m-1.74-.38h0M1.23,23.3h0m-2-.13h0m35.05-6.84h0m-2.07.32h0m-2-.07h0m-1.74-.37h0m-1.95-.45h0m7.15,2.87h0M31.66,19h0m-2-.07h0m-1.74-.37h0M26,18.06h0m-2-.12h0m-1.93.12h0m-1.83.62h0M18.2,19h0m-.78-2.34h0m-1.91-.37h0m-1.94-.44h0m-2-.13h0m-1.85-.21h0m6.45,3.37h0m-1.91-.37h0m-1.94-.45h0m-2-.12h0m-1.93.12h0m-1.83.62h0M4.58,19h0m-2-.07h0m-3-2.76h0M.83,18.56h0m-1.95-.44h0m34.68-4.34h0m-2.07.32h0m-2-.07h0m-.24-2.86h0m-1.94-.45h0m-2-.12h0m-1.93.12h0m-1.83.62h0m-2.06.32h0m8.23,2h0m-2-.45h0m-2-.12h0m-1.93.12h0m-1.82.63h0M18,14.15h0m-2-.12h0m-1.91-.37h0m-2-.45h0m-2-.12h0M9,10.75H9m-1.91.37h0M5,11.44H5m-2-.07H3M1.28,11h0m7,2.21h0m-1.82.63h0m-2.07.31h0m-2-.06h0M.66,13.72h0m-1.94-.45h0M34.29,6.74h0m-2-.06h0M30.56,6.3h0m-1.95-.44h0m-1.95-.13h0m7,3.35h0m-2-.07h0m-1.74-.37h0M28,8.2h0m-2-.13h0M24.1,8.2h0m-1.83.62h0m-2.06.32h0m-2-.13h0m-1.13-3h0m-1.94-.44h0m-2-.13h0m-1.93.13h0m-1.83.62h0m-2.06.32h0m8.94,2.09h0M14.37,8.2h0m-2-.13h0m-1.93.13h0m-1.83.62h0m-2.06.32h0m-2-.07h0M2.84,8.7h0M.89,8.26h0m-2-.13h0m34.38-4h0m-1.74-.37h0M29.63,3.3h0m-2-.13h0m-1.93.13h0m-1.83.62h0m-2.06.32h0m-2-.13h0M18,3.74h0M16,3.3h0m-2-.13h0m-1.93.13h0m-1.83.62h0m-2.06.32h0m-2-.07h0M4.48,3.8h0m-2-.45h0m-2-.12h0m-1.93.12h0"/><path class="cls-2" d="M14.79,45.39h0m-14.6,0h0M34,43.61h0m-1.92-2.86h0m-1.94-.44h0m-2-.13h0m-1.93.13h0m-1.83.62h0m-2.06.32h0m9.9,2h0m-1.94-.44h0m-2-.13h0m-1.93.13h0m-1.83.62h0m-2.06.32h0m-2-.13h0m-1.91-.37h0m-1.94-.44h0m-2-.13h0m-2.65-2h0m-2,.28h0m-2.06.32h0m-2-.06H6m-1.74-.37h0m8.53,2h0M11,43.42h0m-2.06.32h0m-2-.07h0M5.18,43.3h0m-1.95-.44h0m-1.95-.13h0m-1.94.13h0m34.84-4.09h0m-1.74-.37h0M30.49,38h0m-1.95-.12h0M26,35.57h0m-2,.37h0m-2.07.32h0m-2-.13h0M18,35.76h0M26.61,38h0m-1.83.62h0m-2.06.32h0m-2-.12h0m-1.91-.37h0M16.88,38h0m-2-.12h0M13,38h0m-1.83.62h0m-2.06.32h0M7,36.35H7M5.21,36h0m-1.95-.45h0m-1.95-.12h0m-1.94.12h0"/><path class="cls-1" d="M48,31.43c-.42-.08-2.26.42-3.63-.5a7.3,7.3,0,0,0-3.57-.5m-.46,9.9a13.23,13.23,0,0,1-5.52.91m22-.78c-3.18-.42-4.93.67-6.19.92m0-15.3a8.9,8.9,0,0,1-6.86-.25M35.24,15.55c3.59-.66,6,.92,7.53,1.09m11.2-6c-3.17-.41-4.93.67-6.19.92m-3.72,24.2a10.5,10.5,0,0,0,7.45.16M50.42,20.65c3.6-.67,6,.92,7.53,1.09M39.8,20.65a10.24,10.24,0,0,0-4.94.55m3-10.62a9.23,9.23,0,0,1-3,.78M52.64,5.73c3.59-.66,6,.92,7.52,1.09M35.82,6.65c1.26-.25,3-1.33,6.19-.92"/><path class="cls-2" d="M54.32,45.39h0m1.08-2.66h0m-1.93.13h0m-1.83.62h0m-2.06.32h0m-.42-2.46h0m-1.77-.56h0m-2-.45h0m-1.95-.12h0m-1.94.12h0m6,3.34h0m-1.85-.37h0m-1.95-.44h0m-2-.13h0m-1.93.13h0M38,43.48h0m-2,.32h0M53.5,35.53h0M53.64,38h0m-1.83.62h0M49.75,39h0m-2-.13h0m-1.85-.37h0m-2-.44h0m-2-.13h0M40,38h0m-1.82.62h0m-2,.32h0m18.38-6.08h0M52.63,33h0m-1.82.63h0m-2.07.31h0m-2-.12h0m-1.86-.37h0M42.3,35.57h0m-1.95-.13h0m-1.93.13h0m-1.89.62h0M42.91,33h0m-2-.12h0m-1.57-2.31h0m-1.83.62h0m-1.85.32h0M39,33h0m-1.83.63h0m-1.85.31h0m19.1-8.43h0m-1.93.13h0m2.41,5h0m-2-.12h0M51,30.61h0m-1.82.62h0m6-3.25h0m-2-.13h0M51.29,28h0m-1.82.62h0m-2.07.32h0m-2-.13h0m-1.85-.37h0m-1.38-3.05h0m-2.07-.12h0m-2,.18h0m-2,.74h0M41.57,28h0m-2-.13h0M37.68,28h0m-1.82.62h0m19.49-5.3h0m-2-.13h0m-1.93.13h0M49,21.2h0m-2.07.57h0m-2-.13h0M43,21.27h0m-1.94-.44h0m8.54,3.09h0m-2.07.32h0m-2-.12h0m-1.86-.38h0m-1.94-.44h0m-2-.13h0m-1.93.13h0M36,23.92h0m17.71-7.75h0m-1.94-.45h0m-2-.12h0m-1.93.12h0m-1.82.62h0M44,16.66h0M55,18.56h0M53,18.12h0m-2-.13h0m-1.93.13h0m-1.83.62h0m-2.06.32h0m-2-.13h0m-1.85-.37h0m-2-.44h0m-2-.13h0m-1.93.13h0m19.28-4.4h0m-1.95-.45h0m-2-.12h0M49,13.27h0m-1.82.62h0m-.46-2.16h0m-2-.12h0m-1.85-.37h0m-2-.45h0m-1.95-.12h0m6.18,3.54h0m-2-.12h0m-1.86-.37h0m-1.94-.45h0m-2-.12h0m-1.93.12h0M55,8.26h0m-2-.13h0m-2-2.28h0m-1.83.42h0m-2.06.32h0m-2-.12h0M43.31,6.1h0m7.82,2.16h0m-1.83.62h0m-2.06.32h0m-2-.13h0M43.35,8.7h0m-2-.44h0m-1.95-.13h0m-1.94.13h0m-1.82.62h0m19-5.65h0m-1.93.12h0M50.94,4h0m-2.06.32h0m-2-.12h0M45,3.8h0m-2-.45h0m-1.95-.12h0m-1.94.12h0M37.33,4h0m-2,.32h0"/><path class="cls-1" d="M29.25,1.34a9.41,9.41,0,0,0,5.81.59m-15.55,0c-.42-.08-2.26.42-3.63-.5a7.19,7.19,0,0,0-3.57-.5M1.44,1A7.34,7.34,0,0,0-3,.92C-4.25,1.25-5.34,2-6.84,2"/><path class="cls-2" d="M33.45-.48h0m-2-.07h0M27.33,1h0m-2-.12h0M23.44,1h0m-1.83.62h0M20-.43h0M18-.55h0m-7.23,1.8h0m-1.83.62h0m-2.06.32h0m-2-.07h0M3.12,1.75h0M6.37-.43h0m-2-.06h0"/><path class="cls-1" d="M55.56,1A7.31,7.31,0,0,0,51.13.92C49.88,1.25,48.79,2,47.28,2M34.86,1.93a9.81,9.81,0,0,0,1-.34"/><path class="cls-2" d="M47-.37h0M45.48,1.92h0m-1.85-.37h0m-1.94-.44h0m-2-.13h0m-1.93.13h0M45-.49h0"/></svg>