<svg id="Capa_1" data-name="Capa 1" xmlns="http://www.w3.org/2000/svg" viewBox="0 0 54.01 43.28"><title>657 Turba_Mesa de trabajo 1_Mesa de trabajo 1</title><path d="M-8.86,54.76l-.21-.21L6.25,39.26H3.06L-.79,43.1-1,42.89l3.64-3.63H1.54V39h1.4l5-5,.21.21L3.36,39H6.55l5-5,.21.21L7,39h3.18l5-5,.21.21L10.59,39h1.86v.3H10.29l-8,8L2.08,47l7.78-7.76H6.67ZM9.48,50.87l-.21-.21,13.07-13,.22.22Zm-3.61,0-.21-.21,15.23-15.2H17.71L5.9,47.24,5.69,47l11.7-11.67v-.19h.19L18.73,34l.21.21-.93.94h3.18L22.34,34l.21.21-1.14,1.15v.09h-.09Zm14-6.77-.21-.21,2.67-2.67.22.21Zm-24.28-1-.21-.21L4.29,34l.21.21ZM-3.86,39l-.22-.21L.67,34l.22.21Z"/><path d="M18.77,41l-1-.84s1-1,0-1.67A8.26,8.26,0,0,1,16.09,37l-1,.67-1.67-.5-.17,2.17,1,.33-.5,1.17,3,1.17,2-1"/><path d="M3.56,34.12,3,35.35l2.35.5,1.84-1.67a2.26,2.26,0,0,1-.55-.06H3.56"/><path d="M22.35,63.07l-.21-.22L51,34l.21.21-9,9h.06v.3H42ZM41.92,43.33Zm-4.3,15.32-.21-.22L53,42.89l.13.13L53,42.89,56.87,39l.22.21ZM26.94,54.88l-.21-.21L46.15,35.29H43L30.11,48.12l-.21-.22,8.49-8.47H35.21L26.5,48.12l-.21-.22,8.49-8.47H32.3v-.3h2.78l3.84-3.84h-.76V35h1.07l1-1,.21.21-.77.77h3.19l1-1,.21.21-.77.77h3.19l1-1,.21.21-.77.77h2.21v.3H46.57Zm8.57-15.75h3.18l3.85-3.84H39.35Zm9.61,15.63-.21-.21L56.59,42.89l.21.21ZM38.06,51l-.22-.21L49.64,39h-.56v-.3H50l4.7-4.7.21.21-4.49,4.49h2.09V39H50.07Zm3.61,0-.21-.21,7.91-7.9.1.1-.1-.1L58.26,34l.22.21ZM26.91,44.1l-.21-.21L36.6,34l.21.21Zm-3.61,0-.22-.21L33,34l.21.21Zm-.95-2.66-.21-.21L29.37,34l.22.21Zm0-3.6-.21-.22L25.76,34l.22.21Z"/><path d="M44.66,39.8l2.51-1.34-2.17-2L42.82,38.8l-1.33-.67-1,2.34a1.37,1.37,0,0,0,1.84.67A1.9,1.9,0,0,1,44.5,42l.16-2.17"/><path d="M31.55,40.45l-2-3.51-3.84.5,1.84,2.84s0-.67,1-.84,3,1,3,1"/><path d="M11.67,34.38l-.21-.21,2.76-2.76H11l-3,3-.21-.21,2.81-2.81v-.25h.25l8.61-8.6H16.33L11,27.85h.55v.3h-.85L4.45,34.38l-.22-.21,6-6H7.07L.83,34.38l-.21-.21,6-6H3.46l-6.24,6.23L-3,34.17l6-6H2.88v-.3h.45l9-9H9.65v-.3h3l9.71-9.7.22.21L13,18.59v.29h-.29l-9,9H7L22.34,12.48l.22.22-2.92,2.91h2.81v.3H19.34l-12,11.94h3.19l5.35-5.34H15.8v-.3h.41l6.13-6.12.22.21-5.92,5.91h3.18l2.52-2.51.22.21-2.31,2.3h.07v.3H20l-8.62,8.6h3.19l7.82-7.81.22.22L15,31.11h2.11v.3H14.64Zm-18.06,0-.22-.21L5.07,22.51H2.88v-.3H5.37L12,15.62H10.16v-.3h2.12l7.11-7.1H16.2L13,11.43h1.43v.3H12.68L-1,25.35h.45v.3h-.81V25.5l-.11-.11L12.26,11.73H9.07L-4.83,25.6-5,25.39,8.64,11.73H7.4v-.3H9l7.23-7.22H13L-8.44,25.6l-.21-.21L12.57,4.21H11.41v-.3h1.46L16.08.7H12.9L5.26,8.32v.15H5.11L-2,15.57l-.21-.21,6.9-6.89H1.5l-7.12,7.1-.21-.21,6.9-6.89H-2.18V8.32l-.1-.1L9.27-3.32l.21.22L-1.81,8.17H1.37L16.53-6.95l.21.21L1.8,8.17H5L12.47.7H10.78V.4h2l7.37-7.35.21.21L13.2.4h3.19l5.95-5.95.22.22L16.81.4h2.5V.7h-2.8L13.3,3.91h3.18l5.86-5.85.22.21L16.91,3.91h1.4v.3h-1.7L9.37,11.43h3.19l3.37-3.36V7.92h.15l6.26-6.26.22.22-6.06,6h3.19l2.65-2.65.22.21L20.12,7.92h1.7v.3h-2l-7.11,7.1h.59v.3H12.4L5.8,22.21H7.27v.3H5.5ZM1.44,8.32Zm18.31-.25ZM15.29,34.38l-.22-.21,7.27-7.26.22.21Zm3.61,0-.21-.21,3.65-3.66.22.22ZM-5,4.17-5.24,4,2.05-3.32l.21.22Zm3.61,0L-1.63,4,1.88.45H.37V.15H2.18L5.66-3.32l.21.22L2.61.15H4.38v.3H2.31ZM-5.24.78-5.46.57,2.08-6.95l.21.21Zm-3.62,0L-9.07.57,2.61-11.09l.21.21Z"/><path d="M4.89,4.56l1.38-1.5a9.25,9.25,0,0,1,1.88.37c.62.25,1.5.25.75-.12a1.43,1.43,0,0,1-.63-1.38C7.14,2.18,6,1.55,6.14.55A3.47,3.47,0,0,1,5,1.8l-2.63.76,2.51,2"/><path d="M9.4,8.82a9.34,9.34,0,0,0,4.77,1.63l1.88-.12L14.3,9.7V9.07L12.79,7.45A3.55,3.55,0,0,1,9.4,8.82"/><path d="M4.38,12.33l-1.25-2S2,11.21,1.25,10.2A3,3,0,0,0-.63,9.07l-.26,1.38L-2.52,11a2.27,2.27,0,0,0,1.38.62c.76,0,.88,1.13.88,1.13s2.51-1.88,4.64-.38"/><path d="M-5.53,29.13S-4,30.64-4,31s4.89-.75,4.89-.75L-1.89,27.5a4.11,4.11,0,0,1-3.64,1.63"/><path d="M-5.65,20.86a8,8,0,0,1,4,2.88c.38.5.63-1.63,1.88-2.25C-1,21-1.14,20.73-1.14,19.73s-1,1.25-2,0c-.38.88-3.61.82-2.51,1.13"/><path d="M2.86,17.6A1.49,1.49,0,0,1,4,19.73L7.14,19l1.51-2.63-1.88-.51A3.77,3.77,0,0,1,2.86,17.6"/><path d="M8.27,23.74l1.13,1s1.38-.75,1.76.51l2.13-.63s-.75-.63,0-2.13l-1.5.37L9.4,22.74l-1.13,1"/><path d="M15.17,16.47l1.76,1.88,1.63-1,2.76-.5L18.18,16s-.75-2.26-.75-1.25-2.26,1.75-2.26,1.75"/><path d="M15.8,27.75s2.26,1.88,3.51,2.76c.26-.75,1.76-2.13,1.26-2.13s-.75-.88-.38-1.88c-.5,1-4.39,1.25-4.39,1.25"/><polyline points="22.45 2.36 21.49 1.93 19.73 2.43 20.98 4.69 22.45 3.75 22.45 2.36"/><path d="M3.57,34.27l.31-.75,1.51-.67A1.73,1.73,0,0,0,6.6,34.27h-3"/><path d="M51.2,34.38,51,34.17l6.29-6.27.21.21Zm-3.62,0-.21-.21L59.3,22.26l.22.21Zm-18.06,0-.21-.21L40.73,22.76H37.54L25.91,34.38l-.22-.21L37.12,22.76h-.59v-.3h.89L47.67,12.23h-1.1v-.3H48l3.49-3.48V8.17h.28L63.25-3.32l.21.22L52.16,8.17h3.25v.15l.11.11-6.9,6.89H51.8l7.12-7.1.21.21-6.9,6.89H53v.3h-1l-6.86,6.84h.24v.3h-.54l-8.49,8.48h3.19l5.6-5.59H43.56v-.3h1.81L66.8,4l.22.22L45.8,25.35H49l13.9-13.88.21.22L49.41,25.35h3.18l13.9-13.88.22.22L53,25.35h.45v.3h-.75L44,34.38l-.21-.21,8.53-8.52H49.11l-5.6,5.59h.55v.3H43.2l-2.84,2.84-.21-.21,2.63-2.63H39.59l-2.84,2.84-.22-.21,2.63-2.63H36l-2.85,2.84-.21-.21,2.89-2.89.09.09-.09-.09,8.53-8.52H41.16Zm6.39-3h0Zm4-.14h3.19l5.6-5.59H45.49Zm4.42-8.78h.33l6.86-6.84H48.32L45.23,18.7H48V19h-3l-3.46,3.46Zm-6.46,0H41L44.5,19H41.31Zm3.76-3.76H44.8l3.09-3.08H44.7Zm10.26-3.23Zm-7.23,0Zm.36-.15h3.19l6.86-6.85H51.86L48.4,11.93h1.68v.3h-2Zm-22.65,19-.21-.21L30.24,26H27.05l-4.7,4.7-.21-.22L26.63,26H24.74v-.3h2.19L48.48,4.21H46.82v-.3h2L56-3.32l.22.22-7,7h3.18L55.86.45H54.35V.15h1.88V.3l.1.11-3.51,3.5h1.9v.3h-2.2L31,25.72h2.3V26h-2.6ZM27,25.87Zm.37-.15h3.18L52.09,4.21H48.91Zm-5,1.39-.21-.21L30.05,19H30v-.3h.35L48.26.83H45.08L38,7.92h1.19v.3H37.67L34,11.93H34v.3h-.37L22.35,23.51l-.21-.22L33.22,12.23H30l-3.39,3.38h.26v.3h-.56l-4,4-.21-.21,3.79-3.78H22.74l-.39.39-.21-.21.18-.18h-.07v-.3h.37L33.54,4.71H30.38v0l-8,8-.21-.21L37.84-3.19l.22.21L30.65,4.41h3.19l7.62-7.6.21.21L34.26,4.41h3.19L53-11.09l.21.21L41.77.52H45L56.59-11.09l.21.21L45.38.52h3.18l7.5-7.47.21.21L49,.52h.21V.83h-.51L30.78,18.7h2.36V19H30.48ZM23,15.61h3.19l3.38-3.38h-3V12Zm7.3-3.68h3.18l3.72-3.71H34.06Zm-3.61,0h3.18l3.72-3.71h-.86v-.3h1.16l3.22-3.21H34ZM37.61,8.07Zm-3.25-.15h3.18L44.65.83H41.47L37.88,4.41h.28v.3h-.59Zm2.17,14.84H34.4v-.3h2.13ZM22.35,9.09l-.21-.21L41.81-10.76l.21.22Zm0-3.61-.21-.21L26.47,1H23.86V.65h2.91L38.2-10.76l.21.22L27.2.65h1.68V1h-2Zm0-3.6-.21-.21L29.9-6.08l.21.22Z"/><path d="M44.64,3.6a2.93,2.93,0,0,1-2.46-1,4.41,4.41,0,0,1-3.39,1l4.14,1.38A2.9,2.9,0,0,1,44.64,3.6"/><path d="M58.36,12.33l-1.25-2s-1.13.88-1.89-.13a3,3,0,0,0-1.88-1.13l-.25,1.38L51.46,11a2.27,2.27,0,0,0,1.38.62c.75,0,.88,1.13.88,1.13s2.51-1.88,4.64-.38"/><path d="M41.3,12.71s2,1,2.63-1.63c1.38-1,1.13-1.5.5-1.75a3.48,3.48,0,0,1-1.13-.88s.38.75-.62.75-2,.13-1.38.88a1.1,1.1,0,0,1-.13,1.63c-.25.12.13,1,.13,1"/><path d="M26.11,8.82s1.26.51,1.51,1.13-.13-.25,1.13-.5a3.46,3.46,0,0,0,1.88-1l-1-1.13-1.51-.63-2,2.13"/><path d="M34.29,16a7.61,7.61,0,0,1,1,1.51c.62-.38,2.13.75,2.13.75-.5-1.88.62-1.38.62-1.38s0-2.63-.5-1.63-3.26.75-3.26.75"/><path d="M24,20.48s3.26,1,4,2a8.35,8.35,0,0,1,2.26-1s-.13-.38-.88-.63-1.38-.63-.75-2a2.71,2.71,0,0,1-2.26-.75l-1-.12s.76,1-1.38,2.5"/><path d="M25.11,30.14l1.13,1.75s2.64-.88,4.52-.13a5.78,5.78,0,0,1,1-1,1.41,1.41,0,0,1-1.38-.62,3.32,3.32,0,0,1-3.51-.88l-1.76.88"/><path d="M35.27,27.13c1.13.87,2.51,3,3,2.25a4.93,4.93,0,0,1,2.51-1.5c.37,0-.63-1.13-.51-1.51s-1.75,0-2.13-.62-.38,1.25-2.89,1.38"/><path d="M48.45,29.13S50,30.64,50,31s4.9-.75,4.9-.75L52.09,27.5a4.11,4.11,0,0,1-3.64,1.63"/><path d="M48.32,20.86a8,8,0,0,1,4,2.88c.37.5.63-1.63,1.88-2.25-1.25-.51-1.38-.76-1.38-1.76s-1,1.25-2,0c-.37.88-3.6.82-2.51,1.13"/><polyline points="22.25 3.75 23.54 2.93 22.25 2.36 22.25 3.75"/><polyline points="3.14 40.88 2.17 40.46 0.42 40.96 1.67 43.21 3.14 42.28 3.14 40.88"/></svg>