<svg xmlns="http://www.w3.org/2000/svg" viewBox="0 0 54.07 42.51"><defs><style>.cls-1{fill:#1d1d1b;}.cls-2{fill:#fff;}.cls-3,.cls-4,.cls-5,.cls-6{fill:none;stroke:#1d1d1b;}.cls-3{stroke-width:0.28px;}.cls-4{stroke-width:0.3px;}.cls-5{stroke-width:0.24px;}.cls-6{stroke-width:0.32px;}</style></defs><title>659 Carbón con huesos o carbón impuro</title><g id="Capa_4" data-name="Capa 4"><rect class="cls-1" x="-0.29" y="-0.03" width="56.37" height="45"/></g><g id="Capa_2" data-name="Capa 2"><path class="cls-2" d="M12.8,42.52c2-.88,7.31-1.34,13.37-1.34,1.62,0,3.49,1.14,4.93,1a19.47,19.47,0,0,1,7.11.32"/><path class="cls-2" d="M38.21-.08C39.1.21,39.56.6,39.56,1c0,1-2.38,1.48-6.88,1.9-1.91.17-5.1-.37-9.85-1.27-2.34-.44-3.74.63-6.07.32C13.35,1.53,12,1.56,12,.73c0-.3.3-.57.84-.81"/><path class="cls-2" d="M21.06,7.8c0,.57-1.33,1.52-3.4,1.74-1.24.13-2.87-.35-4.31-.35-3.84,0-6.19-.48-6.19-1.39s3.44-1.48,7.52-1.07C18.5,7.11,21.06,6.89,21.06,7.8Z"/><path class="cls-2" d="M50.11,7.17c0,.58-.81.72-2.72,1a32.19,32.19,0,0,1-4,.13c-3.73,0-6.38.08-6.38-.83s2.59-1.07,6.32-1.07S50.11,6.26,50.11,7.17Z"/><path class="cls-2" d="M37.08,13.85c0,1.46-3.09,2.34-8,1.8-5.18-.57-9.54-.23-8.48-1.23,1.9-1.8,1.37-3.27,3.7-3.75a23.77,23.77,0,0,1,4.7-.09C33.94,10.58,37.08,12.38,37.08,13.85Z"/><path class="cls-2" d="M46.83,24.73c0,.69-2.9,2.44-5.69,2.9-2.52.42-4.74-.36-8.53-1.2C26.18,25,24,25.1,24,23.78s2.19-1.58,8.78-1.58c2.58,0,4.27,1.06,6.63.88C43.54,22.77,46.83,23.92,46.83,24.73Z"/><path class="cls-2" d="M23.58,28.58c0,.79-2.34.63-6.38.82-.78,0-4.1.24-4.92.44-4,1-7.64-.32-7.64-1.26s4.24-1.71,9.47-1.71S23.58,27.64,23.58,28.58Z"/><path class="cls-2" d="M38.61,34.77c0,1.29-2.4,2-7.7,2A49.2,49.2,0,0,1,25,36c-2.84-.41-5.56-.34-5.56-1.2,0-1.29,2.91-2,8.22-2a21.88,21.88,0,0,1,4,.57C34.47,33.78,38.61,33.9,38.61,34.77Z"/><path class="cls-2" d="M54.5,37.07l-.92,0c-2.54,0-4.61-1-4.61-2.34s2.07-2.34,4.61-2.34h1.08"/><path class="cls-2" d="M-.08,32.44c.52.05,2.26,2,4.83,1.78,5.29-.43,8.34.94,8.34,1.65C13.09,37.08,1.21,37,0,37.09"/><path class="cls-2" d="M0,20.06c6.72.08,10.6.5,10.6,1.63S6.14,23.23,0,23.36"/><path class="cls-2" d="M54.1,23.36c-.34,0-.71,0-1.09,0-2.26,0-3.66-.2-3.66-1.45s1.84-1.9,4.11-1.9h.65"/><path class="cls-2" d="M54.09,14.36c-1.07-.11-2.41-.31-3.92-.43-4.73-.38-6.85-1-5.93-1.65s-.21-1.11,3.34-.56l3,.12a19.06,19.06,0,0,1,2.4.51q.61.18,1.14.3"/><path class="cls-2" d="M0,12.65c2.83.69,4.61,1,4.66,1.71s-2,.38-4.57,0"/></g><g id="Capa_3" data-name="Capa 3"><line class="cls-3" x1="15.86" y1="1.91" x2="17.14" y2="0.02"/><line class="cls-3" x1="13.92" y1="1.63" x2="14.96" y2="0.02"/><line class="cls-4" x1="18.09" y1="2.01" x2="19.46" y2="-0.03"/><line class="cls-5" x1="20.74" y1="1.63" x2="21.83" y2="0.02"/><line class="cls-5" x1="23.06" y1="1.67" x2="24.15" y2="0.06"/><line class="cls-6" x1="24.96" y1="2.15" x2="26.38" y2="-0.03"/><line class="cls-6" x1="27.39" y1="2.46" x2="28.89" y2="0.06"/><line class="cls-6" x1="29.5" y1="2.76" x2="31.26" y2="0.06"/><line class="cls-6" x1="31.78" y1="3.05" x2="33.72" y2="-0.17"/><line class="cls-6" x1="34.15" y1="2.81" x2="35.9" y2="-0.03"/><line class="cls-6" x1="36.28" y1="2.62" x2="38.03" y2="-0.22"/><line class="cls-3" x1="16.86" y1="42.91" x2="17.8" y2="41.52"/><line class="cls-3" x1="14.92" y1="42.63" x2="15.44" y2="41.82"/><line class="cls-4" x1="19.09" y1="43.01" x2="20.21" y2="41.34"/><line class="cls-5" x1="21.74" y1="42.63" x2="22.67" y2="41.24"/><line class="cls-5" x1="24.06" y1="42.67" x2="25.01" y2="41.28"/><line class="cls-6" x1="25.96" y1="43.15" x2="27.17" y2="41.29"/><line class="cls-6" x1="28.39" y1="43.46" x2="29.35" y2="41.93"/><line class="cls-6" x1="30.5" y1="43.76" x2="31.51" y2="42.22"/><line class="cls-6" x1="32.78" y1="44.05" x2="34" y2="42.03"/><line class="cls-6" x1="35.15" y1="43.81" x2="36.19" y2="42.11"/><line class="cls-3" x1="25.62" y1="24.96" x2="27.44" y2="22.35"/><line class="cls-3" x1="24.03" y1="24.3" x2="25.07" y2="22.69"/><line class="cls-4" x1="27.75" y1="25.41" x2="29.91" y2="22.26"/><line class="cls-5" x1="29.65" y1="25.76" x2="32.16" y2="22.21"/><line class="cls-5" x1="31.68" y1="26.21" x2="34.43" y2="22.4"/><line class="cls-6" x1="33.89" y1="26.71" x2="36.4" y2="22.86"/><line class="cls-6" x1="36.11" y1="27.23" x2="38.74" y2="23.12"/><line class="cls-6" x1="38.48" y1="27.7" x2="41.08" y2="23.15"/><line class="cls-6" x1="40.94" y1="27.61" x2="43.48" y2="23.21"/><line class="cls-6" x1="43.26" y1="27.04" x2="45.28" y2="23.65"/><line class="cls-6" x1="52.29" y1="23.27" x2="54.03" y2="20.19"/><line class="cls-6" x1="50.35" y1="23.13" x2="52.09" y2="20.04"/><line class="cls-6" x1="49.92" y1="36.25" x2="51.86" y2="32.7"/><line class="cls-6" x1="51.63" y1="36.82" x2="53.93" y2="32.62"/><line class="cls-4" x1="21.95" y1="15.13" x2="25.36" y2="10.53"/><line class="cls-5" x1="24.22" y1="15.24" x2="27.56" y2="10.56"/><line class="cls-5" x1="26.5" y1="15.39" x2="29.91" y2="10.56"/><line class="cls-6" x1="28.89" y1="15.6" x2="31.92" y2="10.84"/><line class="cls-6" x1="31.45" y1="15.72" x2="34.19" y2="11.41"/><line class="cls-6" x1="34.08" y1="15.62" x2="35.92" y2="12.24"/><line class="cls-5" x1="39.05" y1="8.23" x2="40.35" y2="6.48"/><line class="cls-6" x1="41.58" y1="8.33" x2="42.74" y2="6.36"/><line class="cls-6" x1="44.12" y1="8.26" x2="45.25" y2="6.39"/><line class="cls-6" x1="46.75" y1="8.19" x2="47.65" y2="6.43"/><line class="cls-5" x1="44.9" y1="13.08" x2="46.44" y2="11.53"/><line class="cls-6" x1="47.39" y1="13.54" x2="48.82" y2="11.76"/><line class="cls-6" x1="49.91" y1="13.83" x2="51.3" y2="12.14"/><line class="cls-6" x1="52.52" y1="14.14" x2="53.67" y2="12.54"/><line class="cls-5" x1="7.6" y1="8.42" x2="8.63" y2="6.92"/><line class="cls-5" x1="9.63" y1="8.95" x2="11.25" y2="6.63"/><line class="cls-5" x1="0.47" y1="14.32" x2="1.32" y2="13.09"/><line class="cls-5" x1="1.98" y1="14.61" x2="2.84" y2="13.37"/><line class="cls-6" x1="12.03" y1="9.13" x2="13.6" y2="6.55"/><line class="cls-6" x1="14.52" y1="9.24" x2="16" y2="6.82"/><line class="cls-6" x1="16.89" y1="9.52" x2="18.26" y2="6.96"/><line class="cls-6" x1="19.53" y1="9.03" x2="20.57" y2="7.28"/><line class="cls-5" x1="7.26" y1="29.97" x2="8.99" y2="27.13"/><line class="cls-5" x1="9.31" y1="30.19" x2="11.29" y2="27.02"/><line class="cls-6" x1="11.96" y1="29.97" x2="13.63" y2="26.81"/><line class="cls-6" x1="14.55" y1="29.56" x2="16.04" y2="26.93"/><line class="cls-6" x1="17.2" y1="29.34" x2="18.25" y2="27.13"/><line class="cls-6" x1="19.59" y1="29.25" x2="20.53" y2="27.44"/><line class="cls-5" x1="22.28" y1="35.63" x2="24.36" y2="33.03"/><line class="cls-5" x1="24.69" y1="35.81" x2="26.84" y2="32.91"/><line class="cls-6" x1="26.95" y1="36.22" x2="29.2" y2="32.97"/><line class="cls-6" x1="29.43" y1="36.57" x2="31.6" y2="33.32"/><line class="cls-6" x1="31.76" y1="36.66" x2="33.85" y2="33.6"/><line class="cls-6" x1="34.73" y1="36.47" x2="36.34" y2="33.92"/><line class="cls-5" x1="0.04" y1="36.82" x2="1.54" y2="33.38"/><line class="cls-6" x1="1.94" y1="36.96" x2="3.55" y2="34.17"/><line class="cls-6" x1="4.13" y1="37.04" x2="6.31" y2="33.79"/><line class="cls-6" x1="6.47" y1="37.14" x2="8.55" y2="34.07"/><line class="cls-6" x1="9.44" y1="36.95" x2="11.05" y2="34.39"/><line class="cls-6" x1="1.04" y1="23.24" x2="2.96" y2="20.08"/><line class="cls-6" x1="3.5" y1="23.21" x2="5.33" y2="20.24"/><line class="cls-6" x1="6.15" y1="22.96" x2="7.57" y2="20.43"/><line class="cls-6" x1="8.73" y1="22.67" x2="9.77" y2="20.92"/></g></svg>