<svg id="Capa_1" data-name="Capa 1" xmlns="http://www.w3.org/2000/svg" xmlns:xlink="http://www.w3.org/1999/xlink" viewBox="0 0 54 43.2"><defs><style>.cls-1,.cls-3{fill:none;}.cls-2{clip-path:url(#clip-path);}.cls-3{stroke:#000;stroke-width:0.3px;}.cls-4{clip-path:url(#clip-path-2);}.cls-5{clip-path:url(#clip-path-3);}.cls-6{clip-path:url(#clip-path-4);}</style><clipPath id="clip-path"><rect id="SVGID" class="cls-1" y="19.12" width="25.94" height="24.08"/></clipPath><clipPath id="clip-path-2"><rect id="SVGID-2" data-name="SVGID" class="cls-1" x="25.74" y="19.12" width="28.26" height="24.08"/></clipPath><clipPath id="clip-path-3"><rect id="SVGID-3" data-name="SVGID" class="cls-1" width="25.94" height="19.28"/></clipPath><clipPath id="clip-path-4"><rect id="SVGID-4" data-name="SVGID" class="cls-1" x="25.74" width="28.26" height="19.28"/></clipPath></defs><title>660 Paleosuelo, arcilla basal, underclay</title><g class="cls-2"><path class="cls-3" d="M24,39.39a7.42,7.42,0,0,1,.12-1.5,3.84,3.84,0,0,1,.38-1.38H23.26m-2.07,2.88a6.86,6.86,0,0,1,.13-1.5,3.79,3.79,0,0,1,.37-1.38H20.44m-2.13,2.88a7.42,7.42,0,0,1,.12-1.5,3.84,3.84,0,0,1,.38-1.38H17.55m-2.06,2.88a7.42,7.42,0,0,1,.12-1.5A3.84,3.84,0,0,1,16,36.51H14.73M12.6,39.39a7.42,7.42,0,0,1,.12-1.5,3.84,3.84,0,0,1,.38-1.38H11.85M9.78,39.39a7.42,7.42,0,0,1,.12-1.5,3.84,3.84,0,0,1,.38-1.38H9M6.89,39.39A7.42,7.42,0,0,1,7,37.89a3.84,3.84,0,0,1,.38-1.38H6.14M4,39.39a6.86,6.86,0,0,1,.13-1.5,3.64,3.64,0,0,1,.38-1.38H3.25M1.18,39.39a6.86,6.86,0,0,1,.13-1.5,3.79,3.79,0,0,1,.37-1.38H.43m23.33-6.06c.13-.5.59-1.13.34-1.76s-.71-1.12-.34-1.88.14-.75,0-1.5,0-.5.49-1.48H22.64m-2.2,6.62c.13-.5.58-1.13.33-1.76s-.71-1.12-.33-1.88.14-.75,0-1.5,0-.5.49-1.48H19.31M17,30.45c.13-.5.58-1.13.33-1.76s-.71-1.12-.33-1.88.14-.75,0-1.5,0-.5.49-1.48H15.86M13.6,30.45c.13-.5.58-1.13.33-1.76s-.7-1.12-.33-1.88.14-.75,0-1.5,0-.5.49-1.48H12.47m-2.26,6.62c.13-.5.59-1.13.33-1.76s-.7-1.12-.33-1.88.14-.75,0-1.5,0-.5.49-1.48H9.09M6.83,30.45c.12-.5.58-1.13.33-1.76s-.71-1.12-.33-1.88.13-.75,0-1.5,0-.5.49-1.48H5.7M3.44,30.45c.13-.5.58-1.13.33-1.76s-.71-1.12-.33-1.88.14-.75,0-1.5,0-.5.49-1.48H2.31M0,30.45c.12-.5.58-1.13.33-1.76S-.39,27.57,0,26.81s.14-.75,0-1.5,0-.5.49-1.48H-1.14m-27.25-1.47H25.94m-54.33,13H25.94"/></g><g class="cls-4"><path class="cls-3" d="M55.31,39.39a7.42,7.42,0,0,1,.12-1.5,3.84,3.84,0,0,1,.38-1.38H54.55m-2.13,2.88a6.86,6.86,0,0,1,.13-1.5,3.79,3.79,0,0,1,.37-1.38H51.67M49.6,39.39a7.42,7.42,0,0,1,.12-1.5,3.84,3.84,0,0,1,.38-1.38H48.85m-2.14,2.88a6.86,6.86,0,0,1,.13-1.5,3.79,3.79,0,0,1,.37-1.38H46m-2.07,2.88a7.42,7.42,0,0,1,.12-1.5,3.84,3.84,0,0,1,.38-1.38H43.14M41,39.39a6.86,6.86,0,0,1,.13-1.5,3.79,3.79,0,0,1,.37-1.38H40.25m-2.07,2.88a7.42,7.42,0,0,1,.12-1.5,3.84,3.84,0,0,1,.38-1.38H37.43m-2.2,2.88a6.86,6.86,0,0,1,.13-1.5,3.79,3.79,0,0,1,.37-1.38H34.48m-2.07,2.88a7.42,7.42,0,0,1,.12-1.5,3.84,3.84,0,0,1,.38-1.38H31.65m-2.13,2.88a6.86,6.86,0,0,1,.13-1.5A3.79,3.79,0,0,1,30,36.51H28.77M26.7,39.39a7.42,7.42,0,0,1,.12-1.5,3.84,3.84,0,0,1,.38-1.38H26m28.16-6.06c.13-.5.58-1.13.33-1.76s-.7-1.12-.33-1.88.14-.75,0-1.5,0-.5.49-1.48H53m-2.2,6.62c.12-.5.58-1.13.33-1.76s-.71-1.12-.33-1.88.14-.75,0-1.5,0-.5.49-1.48H49.66M47.4,30.45c.13-.5.58-1.13.33-1.76s-.71-1.12-.33-1.88.14-.75,0-1.5,0-.5.49-1.48H46.27M44,30.45c.13-.5.58-1.13.33-1.76s-.71-1.12-.33-1.88.14-.75,0-1.5,0-.5.49-1.48H42.82m-2.26,6.62c.13-.5.58-1.13.33-1.76s-.7-1.12-.33-1.88.14-.75,0-1.5,0-.5.5-1.48H39.43m-2.25,6.62c.12-.5.58-1.13.33-1.76s-.71-1.12-.33-1.88.13-.75,0-1.5,0-.5.49-1.48H36.05m-2.32,6.62c.12-.5.58-1.13.33-1.76s-.71-1.12-.33-1.88.13-.75,0-1.5,0-.5.49-1.48H32.6m-2.26,6.62c.12-.5.58-1.13.33-1.76s-.71-1.12-.33-1.88.13-.75,0-1.5,0-.5.49-1.48H29.21M27,30.45c.13-.5.58-1.13.33-1.76s-.71-1.12-.33-1.88.14-.75,0-1.5,0-.5.49-1.48H25.82m-.08-1.47H80.07m-54.33,13H80.07"/></g><g class="cls-5"><path class="cls-3" d="M23.76-.24A2.83,2.83,0,0,0,23.64-2a2,2,0,0,1,.12-1.88c.38-.75.26-.75.13-1.5s-.13-.51.38-1.49H22.64M20.44-.24A2.83,2.83,0,0,0,20.32-2a2,2,0,0,1,.12-1.88c.38-.75.25-.75.13-1.5s-.13-.51.37-1.49H19.31M17-.24A2.77,2.77,0,0,0,16.86-2,2,2,0,0,1,17-3.87c.38-.75.25-.75.13-1.5s-.13-.51.37-1.49H15.86M13.6-.24A2.83,2.83,0,0,0,13.48-2a2,2,0,0,1,.12-1.88c.38-.75.25-.75.13-1.5s-.13-.51.37-1.49H12.47M10.21-.24A2.83,2.83,0,0,0,10.09-2a2,2,0,0,1,.12-1.88c.38-.75.26-.75.13-1.5s-.13-.51.38-1.49H9.09M6.83-.24A2.91,2.91,0,0,0,6.7-2a2,2,0,0,1,.13-1.88c.37-.75.25-.75.12-1.5s-.12-.51.38-1.49H5.7M3.44-.24A2.77,2.77,0,0,0,3.31-2a2,2,0,0,1,.13-1.88c.38-.75.25-.75.13-1.5s-.13-.51.37-1.49H2.31M0-.24A2.91,2.91,0,0,0-.14-2,2,2,0,0,1,0-3.87c.38-.75.25-.75.12-1.5S0-5.88.49-6.86H-1.14M23,17.69a9.78,9.78,0,0,1,.13-2.51,2.62,2.62,0,0,0-.13-2,1.86,1.86,0,0,1,0-1.63,2.4,2.4,0,0,0,0-1.63c-.12-.75,0-1,.75-2.51H21.88M18.81,17.69a9.55,9.55,0,0,1,.12-2.51,2.58,2.58,0,0,0-.12-2,1.86,1.86,0,0,1,0-1.63c.25-.63.12-.88,0-1.63s0-1,.75-2.51H17.68M14.73,17.69a9.78,9.78,0,0,1,.13-2.51,2.62,2.62,0,0,0-.13-2,1.86,1.86,0,0,1,0-1.63,2.4,2.4,0,0,0,0-1.63c-.12-.75,0-1,.76-2.51H13.6M10.53,17.69a9.55,9.55,0,0,1,.12-2.51,2.63,2.63,0,0,0-.12-2,1.86,1.86,0,0,1,0-1.63c.25-.63.12-.88,0-1.63s0-1,.75-2.51H9.4m-3,10.28a9.55,9.55,0,0,1,.12-2.51,2.63,2.63,0,0,0-.12-2,1.86,1.86,0,0,1,0-1.63c.25-.63.12-.88,0-1.63s0-1,.75-2.51H5.26M2.18,17.69a9.78,9.78,0,0,1,.13-2.51,2.58,2.58,0,0,0-.13-2,1.86,1.86,0,0,1,0-1.63c.26-.63.13-.88,0-1.63s0-1,.76-2.51H1.06M-28.39,5.85H25.94"/></g><g class="cls-6"><path class="cls-3" d="M54.11-.24A2.83,2.83,0,0,0,54-2a2,2,0,0,1,.12-1.88c.38-.75.25-.75.13-1.5s-.13-.51.38-1.49H53M50.79-.24A2.91,2.91,0,0,0,50.66-2a2,2,0,0,1,.13-1.88c.38-.75.25-.75.12-1.5s-.12-.51.38-1.49H49.66M47.4-.24A2.83,2.83,0,0,0,47.28-2a2,2,0,0,1,.12-1.88c.38-.75.25-.75.13-1.5s-.13-.51.37-1.49H46.27M44-.24A2.83,2.83,0,0,0,43.83-2,2,2,0,0,1,44-3.87c.38-.75.25-.75.13-1.5s-.13-.51.37-1.49H42.82M40.56-.24A2.83,2.83,0,0,0,40.44-2a2,2,0,0,1,.12-1.88c.38-.75.26-.75.13-1.5s-.13-.51.38-1.49H39.43M37.18-.24A2.91,2.91,0,0,0,37.05-2a2,2,0,0,1,.13-1.88c.37-.75.25-.75.12-1.5s-.12-.51.38-1.49H36.05M33.73-.24A2.91,2.91,0,0,0,33.6-2a2,2,0,0,1,.13-1.88c.37-.75.25-.75.12-1.5s-.12-.51.38-1.49H32.6M30.34-.24A2.91,2.91,0,0,0,30.21-2a2,2,0,0,1,.13-1.88c.37-.75.25-.75.12-1.5s-.12-.51.38-1.49H29.21M27-.24A2.77,2.77,0,0,0,26.82-2,2,2,0,0,1,27-3.87c.38-.75.25-.75.13-1.5s-.13-.51.37-1.49H25.82M52.17,17.69a9.55,9.55,0,0,1,.12-2.51,2.58,2.58,0,0,0-.12-2,1.86,1.86,0,0,1,0-1.63c.25-.63.12-.88,0-1.63s0-1,.75-2.51H51M48,17.69a9.55,9.55,0,0,1,.12-2.51,2.63,2.63,0,0,0-.12-2,1.8,1.8,0,0,1,0-1.63c.25-.63.12-.88,0-1.63s0-1,.75-2.51H46.84M43.76,17.69a9.78,9.78,0,0,1,.13-2.51,2.62,2.62,0,0,0-.13-2,1.86,1.86,0,0,1,0-1.63,2.4,2.4,0,0,0,0-1.63c-.12-.75,0-1,.76-2.51H42.63m-3,10.28a9.78,9.78,0,0,1,.13-2.51,2.62,2.62,0,0,0-.13-2,1.86,1.86,0,0,1,0-1.63,2.4,2.4,0,0,0,0-1.63c-.12-.75,0-1,.76-2.51H38.49M35.42,17.69a9.55,9.55,0,0,1,.12-2.51,2.58,2.58,0,0,0-.12-2,1.86,1.86,0,0,1,0-1.63c.25-.63.12-.88,0-1.63s0-1,.75-2.51H34.29m-3,10.28a9.55,9.55,0,0,1,.12-2.51,2.63,2.63,0,0,0-.12-2,1.86,1.86,0,0,1,0-1.63c.25-.63.12-.88,0-1.63s0-1,.75-2.51H30.15M27.08,17.69a9.55,9.55,0,0,1,.12-2.51,2.63,2.63,0,0,0-.12-2,1.8,1.8,0,0,1,0-1.63c.25-.63.12-.88,0-1.63s0-1,.75-2.51H26m-.21-1.56H80.07"/></g></svg>