<svg id="Capa_1" data-name="Capa 1" xmlns="http://www.w3.org/2000/svg" xmlns:xlink="http://www.w3.org/1999/xlink" viewBox="0 0 52.18 42.5"><defs><style>.cls-1,.cls-3{fill:none;}.cls-2{clip-path:url(#clip-path);}.cls-3{stroke:#000;stroke-width:0.3px;}.cls-4{clip-path:url(#clip-path-2);}.cls-5{clip-path:url(#clip-path-3);}.cls-6{clip-path:url(#clip-path-4);}</style><clipPath id="clip-path"><rect id="SVGID" class="cls-1" x="-0.98" y="18.51" width="6.02" height="24.08"/></clipPath><clipPath id="clip-path-2"><rect id="SVGID-2" data-name="SVGID" class="cls-1" x="4.84" y="18.51" width="48.18" height="24.08"/></clipPath><clipPath id="clip-path-3"><rect id="SVGID-3" data-name="SVGID" class="cls-1" x="-0.98" y="-0.61" width="6.02" height="19.28"/></clipPath><clipPath id="clip-path-4"><rect id="SVGID-4" data-name="SVGID" class="cls-1" x="4.84" y="-0.61" width="48.18" height="19.28"/></clipPath></defs><title>661 Flintclay o pedernal</title><g class="cls-2"><path class="cls-3" d="M-1.74,19.48l1-1m1,1-1,1m0,0-1,1m2.91-2.9-1,1m1.94,0-1,1m0,0-1,1m0,0-1,1-1,1m3.88-3.87,1-1M5,41.77l-1,.95m0,0-1,1m-1-1-1,1M5,39.83,3.12,41.75m0,0-1,1m-1-1-1,1M5,37.89l-1,1M2.15,40.78l-1,1m2.91-2.9-1,1m0,0-1,1M.21,42.72l-1,1m1-2.91-1,1M5,36l-1,.95-1,1M-.76,41.75l-1,1m2.91-2.91-1,1m2.91-2.9-1,1m0,0-1,1m-1.94,0-1,1M5,34l-1,.95m0,0-1,1-1,1m0,0-1,1m0,0-1,1m0,0-1,1m1.94-3.87-1,1-1,1M5,32.08l-1,1M-.76,37.88l-1,1M4.09,33,2.15,35l-1,1M4.09,31.1l-1,1M1.18,34l-1,1m0,0-1,1m0,0-1,1m4.85-4.84-1,1M5,30.14l-1,1M2.15,33l-1,1m-1-1-1,1-1,1M5,28.2l-1,1m0,0-1,1-1,1m0,0-1,1m0,0-1,1m1-2.9-1,1m0,0-1,1-1,1M5,26.27l-1,.95m0,0-1,1m0,0-1,1m0,0-1,1m-1-1-1,1m3.87-3.87-1,1m0,0-1,1m2.9-2.9-1,1M-.76,30.13l-1,1m2.91-2.91-1,1M5,24.33l-1,1m1-2.9-1,1m-2.91,2.9-1,1m3.87-3.87-1,1m0,0-1,1M.21,27.22l-1,1m0,0-1,1m3.87-3.87-1,1M5,20.45l-1,1M1.17,24.32l-1,1m2.91-2.91-1,1m0,0-1,1m2.91-2.91-1,1M.2,25.29l-1,1m0,0-1,1M.2,23.35l-1,1m0,0-1,1M5,18.51l-1,1m-2.91,2.9-1,1m2.91-2.91-1,1m0,0-1,1m2.91-2.9-1,1"/></g><g class="cls-4"><path class="cls-3" d="M50.45,19.48l-1,1M29.12,40.77l-1,1m21.33-21.3-1,1m-8.72,8.71-1,1m0,0-1,1m4.85-2.9-1,1m0,0-1,1-1,1m4.84-4.84-1,1-1,1m-6.79,6.77-1,1M45.6,26.25l-1,1M34.94,36.9l-1,1m0,0-1,1m0,0-1,1M52.39,19.48l1-1m-6.79,6.77-1,1m5.82-5.81-1,1M32,39.81l-1,1M50.45,21.41l-1,1m0,0-1,1m0,0-1,1m-7.75,7.74-1,1M36.88,35l-1,1m-4.85,4.84-1,1m22.3-22.26-1,1m-3.88,3.88-1,1M30.09,41.74l-1.94,1.94M38.82,33l-1,1m0,0-1,1m9.69-7.74-1,1m-2.9,2.9-1,1m0,0-1,1M32,41.74l-1,1M47.54,26.25l-1,1M34.94,38.84l-1,1M45.6,28.19l-1,1m-6.78,6.77-1,1m0,0-1,1M40.76,33l-1,1m-1,1-1,1M34,39.81l-1,1M44.63,29.16l-1,1-1,1m6.78-6.77-1,1m0,0-1,1M39.79,34l-1,1M54.33,19.48l-1,1M31.06,42.71l-1,1m5.82-5.81-1,1m18.42-18.4-1,1-1,1m0,0-1,1m0,0-1,1M33,40.77l-1,1M44.64,31.09l-1,1m-5.82,5.81-1,1M51.42,24.32l-1,1M34.94,40.77l-1,1-1,1M49.48,26.25l-1,1-1,1M33,42.71l-1,1m4.85-4.84-1,1m2.91-2.91-1,1M53.36,22.38l-1,1m0,0-1,1m2.91-2.91-1,1M42.7,33l-1,1m-5.82,5.81-1,1M50.45,25.28l-1,1M41.73,34l-1,1m-1,1-1,1m4.85-4.84-1,1M40.76,35l-1,1m5.81-5.81-1,1m2.9-2.9-1,1m0,0-1,1m8.74,12.6-1,1m1-2.91-1,1m0,0-1,1m0,0-1,1m2.91-4.85-1,1-1,1m0,0-2.91,2.91m4.84-6.78-1,1m-2.91,2.9-1.94,1.94m4.85-4.84-1,1m-3.88,3.88-1,1m4.85-4.84-1,1m0,0-1,1m-3.88,1.94-1,1M54.33,35l-1,1m0,0-1,1m-3.88,3.87-1,1m2.91-2.91-1,1m0,0-1,1m3.88-3.87-1,1m-3.88,3.88-1,1m4.85-4.85-1,1M54.33,33l-1,1-1,1m0,0-1,1m0,0-1,1m-4.85,4.84-1,1-1,1m5.82-5.81-1,1m0,0-1,1m0,0-1,1-1,1m4.85-4.84-1,1m-2.91,1-1,1-1,1-1,1M54.33,31.1l-1,1-1,1-1,1m-1.93,1.94-1,1m-5.82,5.8-1,1M51.42,34l-1,1m-1.93,1.94-1,1m2.9-2.9-1,1m-5.82,5.81-1,1m4.85-4.84-1,1M48.52,35l-1,1m3.87-3.88-1,1m0,0-1,1-1,1m-1,1-1,1m7.75-7.74-1,1m0,0-1,1-1,1m-7.75,7.75-1,1m3.88-3.88-1,1-1,1m0,0-1,1m-1,1-1,1-1,1m0,0-1,1m0-1.94-1,1m4.85-4.84-1,1M46.57,35l-1,1m4.84-4.85-1,1L47.55,34m-1.94,1.94-1.94,1.93m-1,1-1,1-1,1M47.55,34l-1,1m-5.81,5.81-1,1M54.33,27.22l-1,1m0,0-1,1m0,0-1,1-1,1M38.82,42.71l-1,1m1.94-3.87-1,1M42.7,36.9l-1.94,1.94m-1.94,1.93-1,1m0,0-1,1m0,0-1,1m4.85-4.84-1,1m9.69-9.68-1,1m0,0-1,1m-1,1-1,1m0,0-1,1m6.78-6.78-1,1M44.64,35l-1,1M54.33,25.29l-1,1m-9.69,9.68-1,1m7.75-7.74-1,1m-1.94,1.93-1,1m6.79-6.78-1,1m0,0-1,1m1-2.91-1,1m-3.88,3.88-1,1m-6.78,6.78-1,1m12.6-12.59-1,1m3.88-3.87-1,1m0,0-1,1m-1.94,1.94-1,1-1,1-1,1M36.88,40.77l-1,1M43.67,34l-1,1m-3.88,3.87-1,1m0,0-1,1M42.7,35l-2.91,2.9m5.81-5.81-1,1-1,1m-7.76,7.74-1,1-1,1m12.6-12.59-1,1"/><path class="cls-3" d="M28.16,28.19l-1,1m-9.7,9.68-1,1M35.91,20.44l-1,1M21.37,35l-1,1m0,0-1,1M34.94,21.41l-1,1M22.34,34l-1,1M19.43,36.9l-1,1M23.31,33l-1,1M32,24.32l-1,1m-3.87,3.88-1,1m0,0-1,1M34,22.38l-1,1M15.55,40.78l-1,1m0,0-1,1M33,23.35l-1,1M18.46,37.87l-1,1m-3.88,3.88-1,1m12.61-12.6-1,1m4.84-4.84-1,1m8.72-8.71,1-1m-6.79,6.77-1,1-1,1M17.49,40.78l-1,1M33,25.28l-1,1M18.46,39.81l-1,1M34.94,23.35l-1,1m-5.81,5.8-1,1M16.52,41.75l-1,1m0,0-1,1M34,24.32l-1,1m3.88-3.87-1,1M21.37,36.9l-1,1M24.28,34l-1,1m2.91-2.9-1,1M23.31,35l-1,1-1,1M25.25,33l-1,1M20.4,37.87l-1,1M31.06,27.22l-1,1m0,0-1,1m6.79-6.78-1,1m-5.82,5.81-1,1M38.82,19.48l-1,1M27.19,31.09l-1,1M37.85,20.44l-1,1M19.43,38.84l-1,1M32,26.25l-1,1m8.73-8.71-1,1M22.34,37.87l-1,1M32,28.19l-1,1M23.31,36.9l-1,1M27.19,33l-1,1m0,0-1,1m0,0-1,1M39.79,20.44l-1,1-1,1m2.91-2.9,1-1m-5.81,5.81-1,1m-6.78,6.78-1,1M37.85,22.38l-1,1m-1.94,1.93-1,1-1,1M21.37,38.84l-1,1M33,27.22l-1,1m-2.91,2.9-1,1M20.4,39.81l-1,1-1,1m0,0-1,1M31.06,29.16l-1,1m-12.6,12.6-1,1M30.09,30.12l-1,1M40.76,19.48l-1,1m-2.91,2.91-1,1M24.28,35.93l-1,1M36.88,25.28l-1,1M27.19,35l-1,1m-4.85,4.85-1,1m5.82-5.82-1,1m12.6-12.58-1,1m-6.79,6.78-1,1m-9.69,9.68-1,1m12.6-12.59-1,1m8.73-8.71-1,1M29.12,33l-1,1m-2.91,2.9-1,1M41.73,20.44l-1,1m0,0-1,1m2.91-2.9-1,1m-1.94,1.94-1,1M22.34,39.81l-1,1m-1,1-1,1M35.91,26.25l-1,1M32,30.12l-1,1m-6.78,6.78-1,1-1,1M28.16,34l-1,1M43.66,18.51l-1,1m-7.76,7.74L33,29.16l-1,1M42.7,21.41l-1,1m0,0-1,1-1,1-1,1M34,30.13l-1,1m0,0-1,1m0,0-1,1m4.85-4.84-1,1-1,1M23.31,40.78l-1,1m2.91-2.9-1,1m12.6-12.59-1,1m8.73-8.71-1,1M22.34,41.74,20.4,43.68M43.67,20.44l-1,1M31.06,33l-1,1m-2.9,2.9-1,1M30.09,34l-1,1m9.7-9.69-1,1M24.28,39.81l-1,1M29.12,35l-1,1m-1.94,1.94-1,1m12.6-12.59-1,1m7.76-7.74,1-1M28.16,35.93l-1,1m9.69-7.74-1,1M23.31,42.71l-1,1m12.6-12.59-1,1m-8.72,8.71-1,1M33,33l-1,1m-7.76,7.74-1,1M34,32.06l-1,1M44.63,21.41l-1,1M31.06,35l-1,1m-1.93,1.94-1,1m12.6-12.59-1,1m7.75-7.74-1,1-1,1M42.7,23.35l-1,1M32,34l-1,1M29.12,36.9l-1,1M43.67,22.38l-1,1m-1,1-1,1M30.09,35.93l-1,1M40.76,25.28l-1,1m-1.94,1.94-1,1M47.54,18.51l-1,1m-7.75,7.74-1,1m-1.94,1.93-1,1m-7.75,7.75-1,1-1,1M39.79,28.19l-1,1m2.91-2.91-1,1m5.81-5.81-1,1m-6.78,6.78-1,1M48.51,19.48l-1,1m-3.87,3.88-1,1M32,35.93l-1,1m9.7-9.68-1,1M31.06,36.9l-1,1-1,1M42.7,25.28l-1,1m5.81-5.81-1,1M29.12,38.84l-1,1M45.6,22.38l-1,1m3.88-3.87,1-1M34,34l-1,1M44.63,23.35l-1,1M28.16,39.81l-1,1m8.72-8.71-1,1m-9.69,9.68-1,1M34.94,33l-1,1m-6.78,6.77-1,1m0,0-1,1m12.6-12.59-1,1m0,0-1,1M33,35l-1,1m-3.88,5.81-1,1M34.94,35l-1,1M32,37.87l-1,1M51.42,18.51l-1,1M34,35.93l-1,1M43.67,26.25l-1,1M33,36.9l-1,1M46.57,23.35l-1,1m0,0-1,1M35.91,34l-1,1m9.7-9.68-1,1M27.18,42.71l-1,1M41.73,28.19l-1,1m0,0-1,1m7.75-7.74-1,1M31.06,38.84l-1,1M42.7,27.22l-1,1M30.09,39.81l-1,1m8.73-8.71-1,1m0,0-1,1m12.6-12.59-1,1"/><path class="cls-3" d="M7.79,31.1l-1,1m9.7-9.69-1,1M5.85,33l-1,1M15.55,23.35l-1,1m5.82-5.81-1,1M8.76,30.13l-1,1m9.7-9.69-1,1m-1.94,1.94-1,1-1,1m2.9-1-1,1m2.91-2.9-1,1m4.85-4.84,1-1M11.67,29.16l-1,1m0,0-1,1-1,1m9.7-9.69-1,1M6.82,34l-1,1-1,1M20.4,20.44l-1,1m-6.79,6.78-1,1m7.76-7.75-1,1m2.91-2.9-1,1M7.79,33l-1,1m6.79-6.78-1,1M8.76,32.07l-1,1m6.79-6.78-1,1m2.91-2.9-1,1M6.82,35.94l-1,1M16.52,26.25l-1,1m-9.7,9.69-1,1m5.82-5.82-1,1m7.76-7.75-1,1M9.73,33l-1,1M23.31,19.48l-1,1-1,1-1,1M11.67,31.1l-1,1m8.73-8.71-1,1m0,0-1,1m-4.85,4.85-1,1m8.73-8.72-1,1m4.85-4.84-1,1m-7.76,7.74-1,1M7.79,35l-1,1m7.76-7.75-1,1M8.76,34l-1,1m5.82-5.81-1,1M8.76,35.94l-1,1m15.52-15.5-1,1m-1,1-1,1m1.94-1.94-1,1M11.67,33l-1,1M24.28,20.44l-1,1M7.79,36.91l-1,1M20.4,24.32l-1,1m-2.91,2.91-1,1m0,0-1,1m0,0L11.67,33M6.82,37.88,4.88,39.82M25.25,19.48l1-1m-6.78,6.77-1,1m0,0-1,1-1,1M10.7,34l-1,1M25.25,19.48l-1,1M9.73,35l-1,1M20.4,26.25l-1,1M10.7,35.94l-1,1m0,0-1,1m15.52-15.5-1,1-1,1M5.85,40.78l-1,1M22.34,24.32l-1,1M8.76,37.88l-1,1M25.25,21.41l-1,1m3.87-3.87-1,1M15.55,31.09l-1,1M11.67,35l-1,1M6.82,39.81l-1,1m8.73-8.72-1,1M27.19,19.48l-1,1m-4.85,4.84-1,1m5.82-5.81-1,1M13.61,33l-1,1M7.79,38.85l-1,1M12.64,34l-1,1m4.85-4.84-1,1m3.88-3.87-1,1-1,1m0,0-1,1m10.67-8.72-1,1m0,0-1,1m3.87-3.87,1-1m-4.84,4.84-1,1M14.58,34l-1,1m5.82-5.81-1,1m0,0-1,1m0,0-1,1M13.61,35l-1,1-1,1M15.55,33l-1,1m9.7-9.68-1,1M10.7,37.88l-1,1m0,0-1,1M21.37,27.22l-1,1m7.75-7.75-1,1M16.52,32.06l-1,1m4.85-4.84-1,1M8.76,39.81l-1,1m3.88-3.87-1,1m12.61-12.6-1,1m0,0-1,1M6.82,41.75l-1,1m0,0-1,1m2.91-2.91-1,1m22.3-22.27-1,1m-5.81,7.75-1,1m7.75-7.75-1,1m-6.79,6.78-1,1m3.88-3.87-1,1M9.73,40.78l-1,1M32,18.51l-1,1m-1,1-1,1m-1,1-1,1m-3.88,3.87-1,1M16.52,34l-1,1m-1,1-1,1M25.25,25.28l-1,1M13.61,36.91l-1,1M15.55,35l-1,1m4.85-4.85-1,1m8.73-8.71-1,1-1,1M8.76,41.75l-1,1M20.4,30.12l-1,1M31.06,19.48l-1,1M10.7,39.81l-1,1m8.73-8.72-1,1m-4.85,4.85-1,1M7.79,42.72l-1,1M17.49,33l-1,1m-4.85,4.84-1,1m1,1-1,1-1,1M26.22,26.25l-1,1-1,1M9.73,42.72l-1,1m19.4-19.37-1,1M12.64,39.81l-1,1m3.88-3.87-1,1m0,0-1,1M27.19,25.28l-1,1M32,20.44l-1,1M13.61,38.84l-1,1M33,19.48l-1,1m-9.69,9.69-1,1m9.69-9.68-1,1m-8.72,8.71-1,1m9.69-9.68-1,1m-4.84,4.84-1,1m5.81-5.81-1,1m-4.85,4.84-1,1m-5.82,5.81-1,1m4.85-4.85-1,1m0,0-1,1M33,19.48l1-1M18.46,34l-1,1m0,0-1,1M31.06,23.35l-1,1M18.46,35.94l-1,1M28.16,26.25l-1,1m2.9-2.9-1,1m0,0-1,1M17.49,36.9l-1,1m-1.94,1.94-1,1M24.28,30.12l-1,1M11.67,42.72l-1,1M34.94,19.48l-1,1M12.64,41.75l-1,1m15.52-15.5-1,1m-1,1-1,1M35.91,18.51l-1,1m-1,1-1,1m0,0-1,1M21.37,33l-1,1m5.82-5.81-1,1m-2.91,2.9-1,1m-1,1-1,1m3.88-3.88-1,1m-8.73,8.72-1,1m3.88-3.88-1,1m0,0-1,1M19.43,35l-1,1M32,22.38l-1,1m5.82-3.87-1,1M16.52,39.81l-1,1m8.73-8.72-1,1"/><path class="cls-3" d="M17.49,36.9l1,1m1,1-1-1M13.61,33l1,1M7.8,27.22l-1-1m-1-1,1,1M21.37,40.78l1,1m1,1-1-1m-5.82-5.8-1-1M8.76,28.19l1,1M20.4,39.81l-1-1M15.55,35l-1-1m-1.94-1.94-1-1M4.89,24.32l1,1m3.87,3.87,1,1m1,1-1-1M8.76,28.19l-1-1M20.4,39.81l1,1m-8.73-8.72,1,1m0-1.93,1,1M9.73,27.22l1,1M16.52,34l-1-1-1-1M4.89,22.38l1,1M21.37,38.84l1,1m-9.7-9.68-1-1-1-1m9.7,9.68,1,1M8.77,26.25l-1-1M24.27,41.74l1,1M5.86,23.35l1,1m1,1-1-1M23.31,40.78l-1-1m-9.7-9.68,1,1M25.25,42.71l1,1m-1.94-1.94-1-1M20.4,37.87l-1-1m0,0-1-1M16.52,34l1,1,1,1M8.77,26.25l1,1m-1-2.9L6.83,22.38M23.31,38.84l-1-1m4.84,4.84-1-1m-1-1,1,1M8.77,24.32l1,1M24.28,39.81l-1-1M21.37,36.9l1,1m5.81,5.81-1-1M4.89,20.44l1,1m6.78,6.78-1-1m0,0-1-1M17.49,33l1,1M9.74,25.29l1,1m1.94,1.94,1,1M24.28,39.81l1,1M20.4,35.93l-1-1m0,0-1-1m-1.94-1.94-1-1m0,0-1-1m5.82,5.8,1,1m-7.76-7.74,1,1M6.83,22.38l-1-1M16.52,32.06l1,1m2.91,1,1,1M6.83,20.44l-1-1M24.28,37.87l1,1M8.77,22.38l-1-1-1-1m4.85,4.84-1-1m5.81,5.81-1-1m-1.94-1.94,1,1M28.15,41.74l-1-1-1-1m-1-1,1,1M12.65,26.25l1,1M9.74,23.35l1,1M28.15,41.74l1,1M12.65,26.25l-1-1M4.89,18.51l1,1M20.4,34l-1-1m0,0-1-1m-1-1,1,1M29.12,42.71l1,1M15.55,29.16l-1-1M21.37,35l1,1m1.94,1.94-1-1m-6.79-6.77,1,1m5.82,5.81-1-1M8.77,22.38l1,1M6.83,18.51l-1,1m0,0-1,1m3.88-1.93L6.83,20.44m0,0L4.89,22.38m1,1-1,1M7.8,21.41l-1,1m-1,1,1-1m2.91-2.9-1,1m1-1,1-1M8.77,20.44l-1,1m1.94,0-1,1m0,0L6.83,24.32m5.81-5.81-1,1m-1,1-1,1M6.83,24.32l-1,1m5.82-5.81-1,1M5.86,25.29l-1,1m4.85-2.91-1,1m4.85-4.84,1-1M7.8,25.29l-1,1-1,1m0,0-1,1m8.73-8.71-1,1m0,0-1,1M8.77,24.32l-1,1m3.88-3.88-1,1m0,0-1,1m6.78-4.84-1,1M5.86,29.16l-1,1m7.76-7.75-1,1m2.9-2.91-1,1M7.8,27.22l-1,1m0,0-1,1m5.82-5.81-1,1m0,0-1,1m0,0-1,1m6.78-6.77-1,1m-1,1-1,1M8.77,26.25l-1,1m2.9-1-1,1M5.85,31.1l-1,1m3.88-3.88-1,1m0,0L5.85,31.1m7.76-7.75-1,1m3.87-3.88-1,1m0,0-1,1-1,1m3.88-3.87,1-1m-1,1-1,1M9.73,27.22l-1,1m3.89-3.87-1,1-1,1m1,1-1,1-1,1-1,1M19.43,19.48l-1,1m0,0-1,1m-4.84,4.84-1,1M6.82,32.07l-1,1"/></g><g class="cls-5"><path class="cls-3" d="M-1.72,17.65l1,1m1.94,0-1-1m-1.94-1.94,1,1m1,1-1-1m1-1-1-1m-1-1,1,1m2.91,2.9,1,1m-1-1-1-1-1-1m1.94,0,1,1m1,1-1-1M1.19,14.74l-1-1m0,0-1-1m-1-1,1,1m2.91,2.9-1-1M5,18.59l-.94-.94m-1,1L5,16.71m0-1.94-.94.94M1.19,18.62,4.1,15.71m-1-1-1,1m1-1,1-1M-.75,18.62l1-1,1.94-1.94M5,12.84l-.94.94m-2.91,1,1-1M5,10.9l-.94.94m-5.82,5.81,1-1m1-1,1-1m1-1,1-1,1-1M-.75,16.68l1-1m0-1.93,1-1M5,9,4.1,9.9m-5.82,5.81L.22,13.78m1-1,1-1m0,0,1-1,1-1M-.75,12.81l1-1M2.16,9.9l1-1m-4.85,4.85,1-1M5,7,4.1,8M.22,11.84,2.16,9.9m1-1,1-1m-5.82,3.87,1-1,1-1m0,0,1-1M5,5.09,4.1,6M1.19,8.93,3.13,7m0,0,1-1M1.19,7l1-1m0,0L4.1,4.09M-1.72,9.9l1-1L1.19,7M5,3.15l-.94.94M-.75,7l1-1M3.13,3.12l1-1M1.19,5.06l1-1M5,1.21l-.94,1M-1.72,8l1-1m1-1,1-1m1-1,1-1M5-.73,4.1.22M.22,4.09l1-1m0,0,1-1M-1.72,6l1-1,1-1M2.16,2.15l1-1m0,0,1-1M-1.72,4.09l1-1m0,0,1-1,1-1M3.13-.75l1-1M1.19,1.18l1-1m0,0,1-1m-4.85,2.9,1-1m0,0,1-1,1-1,1-1M-1.72.22l1-1m0,0,1-1"/></g><g class="cls-6"><path class="cls-3" d="M31.06,9.9l1-1m-6.79,6.78,1-1m0,0,1-1M40.77.21l1-1M36.88,4.09l1-1M22.33,18.62l1-1M34.94,6l1-1M41.73-.76l1-1M37.85,3.12l1-1M23.3,17.65l1-1m0,0,1-1m-3.88,1.94,1-1M37.85,1.18l1-1M20.39,18.62l1-1m5.82-5.81,1-1m-5.82,5.81,1-1M36.88,2.15l1-1m1-1,1-1M25.24,13.78l1.94-1.94m1-1,1-1m0,0,1-1M39.8-.76l1-1M30.09,8.93l1-1M23.3,15.71l1-1M34,5.06l1.94-1.94M24.27,14.75l1-1M35.91,3.12l1-1M31.06,8l1-1,1-1m0,0,1-1M21.36,15.71l1-1M36.88.21l1-1M34,3.12l1-1M22.33,14.75l1-1M35.91,1.18l1-1M19.42,17.65l1-1M34.94,2.15l1-1M20.39,16.68l1-1M33,4.09l1-1m-8.73,8.72,1-1M29.12,8l1-1,1-1m-4.85,4.85,1-1M23.3,13.78l1-1m0,0,1-1m-6.79,6.78,1-1m8.73-8.72,1-1M31.06,6l1-1M37.85-.76l1-1M32,5.06l1-1M27.18,9.9l1-1m0-1.94,1-1M33,2.15l1-1m0,0,1-1M17.48,17.65l1-1M27.18,8l1-1m-9.7,9.69,1-1m-2.91,2.91,1-1M25.24,9.9,27.18,8m2.91-2.9,1-1M23.3,11.84l1-1m0,0,1-1m-3.88,3.88,1-1m0,0,1-1M34.94.21l1-1M29.12,6l1-1M35.91-.76l1-1M31.06,4.09l1-1m0,0,1-1M19.42,15.71l1-1m0,0,1-1m-1.94,0,1-1M23.3,9.9l1-1m-3.88,3.88,1-1m2.91-2.91,1-1m-7.76,7.75,1-1m0,0,1-1M25.24,8,27.18,6m1-1,1-1m0,0L32,1.18M34-.76l1-1M16.51,16.68l1-1m4.85-4.84,1-1M33,.21l1-1M15.54,17.65l1-1M27.18,6l1-1M32,1.18l1-1M14.57,18.62l1-1m5.82-5.81,1-1m4.85-6.78,1-1m-8.73,8.72,1-1M31.06.21l1-1M23.3,8l1-1m1.94-1.93,1-1M14.57,16.68l1.94-1.93M29.12,2.15l1-1M16.51,14.75l1-1M30.09,1.18l1-1M13.6,17.65l1-1M28.15,3.12l1-1M24.27,7l1-1m0,0,1-1M32-.76l1-1M22.33,8.93l1-1m-5.82,5.82,1-1,1-1m-6.79,6.78,1-1m6.79-6.78,1-1,1-1m-2.91,1,1-1m0,0,1-1m0,0,1-1m1.94-1.93,1-1M22.33,7l1-1m0,0,1-1m-5.82,5.81,1-1M13.6,15.71l1-1,1-1m0,0,1-1m0,0,1-1M29.12.21l1-1m0,0,1-1M28.15,1.18l1-1M25.24,4.09l1-1m0,0,1-1M11.66,17.65l1-1M27.18,2.15l1-1M17.48,11.84l1-1m-5.82,5.81,1-1m-2.91,2.91,1-1M26.21,1.18l1-1M17.48,9.9l1-1m0,0,1-1m5.82-5.81,1-1m1-1,1-1M15.54,11.84l1-1m0,0,1-1M28.15-.76l1-1M8.75,18.62l1-1M22.33,5.06l1-1m0,0,1.94-1.94M20.39,7l1-1m0,0,1-1M19.42,8l1-1m-7.76,7.76,1-1,1-1m0,0,1-1M9.72,17.65l1-1m0,0,1-1m0,0,1-1M21.36,4.09,23.3,2.15M26.21-.76l1-1M6.81,18.62l1-1M25.24.21l1-1M23.3,2.15l1-1m0,0,1-1M13.6,11.84l1-1M17.48,8l1-1m0,0,1-1M15.54,9.9,17.48,8m-4.85,4.85,1-1M9.72,15.71l1-1m9.7-9.69,1-1m-9.7,9.69-1,1M8.75,16.68l1-1M19.42,6l1-1M7.78,17.65l1-1m5.82-5.81,1-1m-3.88,3.88,1-1M4.84,18.64l1-1m3.88-3.87-1,1m-1,1,1-1m2.91-2.9,1-1M9.72,13.78l1-1m0,0,1-1m7.76-7.75,1-1m0,0,1-1M6.81,16.68l1-1M17.48,6l1.94-1.93M13.6,9.9l1-1m1-1,1-1m0,0,1-1M24.27-.76l1-1M12.63,10.87l1-1M23.3.21l1-1M5.84,17.65l1-1M21.36,2.15l1-1M14.57,8.93l1-1m6.79-6.78,1-1"/><path class="cls-3" d="M46.59,13.78l1-1,1-1m-4.85,4.84,1-1M53.38,7l1-1m-9.7,9.68,1-1m3.88-3.88,1-1m0,0,1-1m-9.7,9.69,1-1m2.91-2.9,1-1M52.41,8l1-1m-4.85,4.84,1-1m-6.79,6.78,1-1m7.76-7.75,1-1m-1-1,1-1m-7.76,7.75,1-1M50.47,8l1-1m-5.82,5.82,1-1m1-1,1-1m-4.85,4.85,1-1M48.53,9.9l1-1m-6.79,6.78,1-1M49.5,8.93l1-1m-8.73,8.72,1-1m3.88-3.87,1-1m-6.79,6.78,1-1M52.41,6l1-1,1-1M39.8,18.62l1-1M48.53,8l1-1m-3.88,3.88,1-1m0,0,1-1m4.85-4.84,1-1M50.47,6l1-1m0,0,1-1M37.85,18.62l1-1m8.73-8.72,1-1m4.84-4.84,1-1M41.74,14.74l1-1,1-1M49.5,7l1-1m-5.82,5.81,1-1M39.8,16.68l1-1,1-1m1.94-1.93,1-1m-5.82,5.81,1-1M51.43,3.12l1-1,1-1m-12.6,12.6,1-1m2-1.94,1-1M49.5,5.06l1-1M44.65,9.9l1-1m-7.77,7.75,1-1m2.9-2.9,1-1M48.53,6l1-1M36.88,17.65l1-1m7.77-7.75,1-1M42.7,11.84l1-1m-3.89,3.87,1-1m12.6-12.6,1-1M46.59,8l1-1m0,0,1-1m-9.7,9.69,1-1m-3.88,3.88,1-1M50.46,4.09l1-1m0-1.94,1-1M40.77,11.84l1-1M34,18.62l1-1M46.59,6l1-1,1-1M52.4.22l1-1M42.7,9.9l1-1m0,0,1-1m5.81-5.81,1-1m-2.9,2.91,1-1M53.37-.75l1-1M35.91,16.68l1-1m1.95-1.93,1-1m0,0,1-1m8.72-8.72,1-1M45.62,7l1-1M34.94,17.65l1-1m1.94-1.94,1-1m2.91-2.91,1-1m-5.82,5.81,1-1M44.65,8l1-1m1-2.9,1-1m0,0,1-1m-2.9,2.91,1-1M32,18.62l1-1m3.88-3.87,1-1,1-1m0,0,1-1m0,0,1-1M44.65,6l1-1M50.46.21,52.4-1.72M34.94,15.71l1.94-1.93M33,17.65l1-1m0,0,1-1M48.52,2.15l1-1m0,0,1-1M42.7,8l1-1m0,0,1-1M40.77,9.9l1-1m0,0,1-1M30.09,18.62,32,16.68l1-1m6.79-6.78,1-1m5.82-5.81,1-1M36.88,11.84l1-1m1-1,1-1m1-1,1-1,1-1m4.85-4.84,1-1M37.85,10.87l1-1m6.8-6.78,1-1M33,15.71l1-1M44.65,4.09l1-1M34,14.74l1-1M49.49-.75l1-1M43.68,5.06l1-1m-9.71,9.69,1.94-1.94M42.7,6l1-1M48.52.21l1-1M29.12,17.65l1-1M44.65,2.15,46.58.21M30.09,16.68l1-1m-2.91,2.91,1-1M40.77,6l1-1M36.88,9.9,38.83,8M42.7,4.09l1-1m0,0,1-1M34,12.81l1-1m6.79-6.78,1-1M47.55-.76l1-1M35.91,10.87l1-1m-5.82,5.81,1-1m0,0,1-1m1.94-1.94,1-1M33,13.78l1-1M46.58.21l1-1M38.83,8l1-1m0,0,1-1m-9.71,7.76,1-1M43.68,1.18l1-1M34,10.87l1-1m-7.76,7.75,1-1m1-1,1-1m0,0,1-1m-2.91,2.9,1-1M41.73,3.12l2-1.94M26.21,18.62l1-1M33,11.84l1-1m5.82-5.81,1-1M36.88,8l1-1m2.91-2.9,1-1M32,12.81l1-1M37.85,7l1-1m0,0,1-1M44.64.21l1-1,1-1M34.94,9.9l1-1m0,0,1-1m-1-1,1-1m-6.79,6.79,1-1m8.73-8.72,1-1M36.88,6l1-1m1-1,1-1M43.68-.76l1-1M37.85,5.06l1-1M34.94,8l1-1m-6.79,6.79,1-1M42.7.21l1-1M33,9.9l1-1m0,0,1-1M24.27,18.62l1-1m2.91-2.9,1-1m-3.88,3.87,1-1m4.85-4.84L33,9.9m-6.79,6.78,1-1m0,0,1-1M40.77,2.15l1-1,1-1M38.82,2.15l1-1M32,8.93l1-1m0,0,1-1m5.82-5.81,1-1M34,7l1-1m-7.76,7.76,1-1m7.76-7.75,1-1m-8.73,8.72,1-1m0,0,1-1m0,0,1-1"/><path class="cls-3" d="M40.77,6l-1-1M36.88,2.15l1,1m1,1-1-1M33-1.73l1,1m12.62,12.6-1-1m-1-1,1,1M34.94.21l1,1m1,1-1-1M44.65,9.9l-1-1m-1-1,1,1M40.76,4.09l1,1m1,1,1,1m1,1-1-1m6.79,6.79-1-1M38.82,2.15l-1-1m12.62,12.6,1,1M46.59,9.9l1,1m1,1,1,1m-1-1-1-1M36.88.21l1,1M52.41,15.71l-1-1m1,1,1,1m1,1-1-1M42.7,6l-1-1M34.94-1.73l1,1M46.59,9.9l-1-1M40.76,4.09l-1-1M36.88.21l-1-1M44.65,8l1,1m-6.8-6.78,1,1M46.59,8l1,1M44.65,6l-1-1m-1-1-1-1m1,1,1,1M54.35,15.71l-1-1m-1-1,1,1M48.53,9.9l1,1M38.83.21l1,1m1,1,1,1M52.41,13.78l-1-1M40.77,2.15l-1-1M44.65,6l1,1m1,1-1-1m4.85,4.85-1-1m1,1,1,1M48.53,9.9l-1-1M38.83.21l-1-1m-1-1,1,1M46.59,6l1,1m1,1-1-1M42.7,2.15l1,1m1,1-1-1M38.82-1.73l1,1m1,1-1-1m4.85,4.85,1,1M50.47,9.9l1,1m2.91,2.91-1-1m-1-1-1-1m1,1,1,1M46.59,6l-1-1M40.77.21l1,1M48.53,8l1,1m1,1-1-1M42.7,2.15l-1-1M4.87-.75l1-1m-1,2.91,1-1,1-1m0,0,1-1M4.87,3.12,6.81,1.19m0,0,1-1m0,0,1-1,1-1m1,1,1-1M5.84,4.09l1-1m0,0,1-1,1-1M4.87,5.06l1-1m2.91-2.9,1-1m0,0,1-1M6.81,5.06l1-1M11.66.22l1-1M4.87,7l1-1m0,0,1-1m3.88-3.88,1-1M8.75,3.12l1-1m0,0,1-1M12.63-.75l1-1M7.78,4.09l1-1m3.88-1.94,1-1M8.75,5.06l1-1m1.94-1.94,1-1M5.84,8l1-1M13.6.21l1-1m0,0,1-1M6.81,7l1-1M4.87,8.94l1-1m4.85-4.85,1-1M7.78,6l1-1m1-1,1-1M15.54.21l1-1M10.69,5.06l1-1M13.6,2.15l1-1m0,0,1-1M4.87,10.87l1-1M16.51-.76l1-1M11.66,4.09l1-1M5.84,9.9l1-1M8.75,7l1.94-1.94M6.81,8.93l1-1m4.85-4.85,1-1M7.78,8l1-1m9.7-7.76,1-1M6.81,10.87l1-1M9.72,8l1-1M17.48.21l1-1M12.63,5.06l1-1M4.87,12.81l1-1M13.6,4.09l1-1m1-1,1-1M10.69,7l1-1m4.85-4.85,1-1M8.75,8.93l1-1m4.85-4.84,1-1m-9.7,9.69,1-1m1-1,1-1M11.66,6l1-1M6.81,12.81l1-1M19.42.21l1-1M16.51,3.12l1-1M13.6,6l1-1m0,0,1-1m0,0,1-1M10.69,8.93l1-1M5.84,13.78l1-1m1-1,1-1m8.73-8.72,1-1m0,0,1-1m1-1,1-1M11.66,8l1-1M8.75,10.87l1-1m0,0,1-1M5.84,13.78l-1,1M12.63,7l1-1M4.87,16.68l1-1M18.45,3.12l1-1M12.63,8.93l1-1m6.79-6.78,1-1M8.75,12.81l1-1M5.84,15.71l1-1m1-1-1,1m3.88-3.88,1-1M14.57,7l1-1m1.94-1.93,1-1m1-1,1-1M13.6,8l1-1m1.94-1.93,1-1M9.72,11.84l1-1M22.33-.76l1-1M15.54,6l1-1M11.66,9.9l1-1M7.78,13.78l1-1M21.36.21l1-1M53.38,18.62l1-1m-1.94,0,1-1m0,0,1-1m-2.91,2.91,1-1m-1-1,1-1M49.5,18.62l1-1m1.94-1.94,1.94-1.93m-3.88,3.87,1-1m-1-1,1-1m0,0,1-1m-4.85,4.84,1-1m3.88-3.87,1-1,1-1m-5.82,5.81,1.94-1.94m1.94-3.87,1-1,1-1m-7.76,7.75,1-1m0,0,1-1m2.91-2.9,1-1M49.5,14.75l1-1m-4.85,4.84,1-1m1.94-1.94,1-1m1-1,1-1m1.94-3.88,1-1m-5.82,5.82,1-1m-5.82,5.81,1-1M52.41,9.9l1-1m-5.82,5.82,1-1m-2.91,2.9,1-1m4.85-4.84,1-1m-5.82,5.81,1-1m-2.91,2.9,1-1m3.88-3.87,1-1m0,0,1-1"/><path class="cls-3" d="M48.53,13.78l-1-1M42.7,8l-1-1m4.86,4.85,1,1M40.77,6l1,1m8.74,8.72-1-1m1,1,1,1m1,1-1-1m1,1,1,1M38.83,4.09l1,1"/></g><g class="cls-2"><path class="cls-3" d="M5,20.44l-1-1m0,0-1-1m-1,1,1,1m1,1,1,1m-1-1-1-1M1.17,18.51l1,1m-1,1-1-1m3.88,3.87,1,1M1.17,20.44l1,1M.2,19.48l-1-1m4.84,4.84-1-1m-1-1,1,1m-1.94,0,1,1m1.94,1.94,1,1m-6.78-6.77,1,1m1.94,1.94-1-1m0,0-1-1m4.85,4.85-1-1m-1-1,1,1m1,2.9-1-1m-4.85-4.85,1,1m1.94,1.94,1,1M.2,23.35l-1-1m2.91,2.91,1,1M1.17,24.32l-1-1m3.89,3.87,1,1M.2,25.29l-1-1m4.86,4.84,1,1M1.17,26.25l-1-1m-1.94-1.94,1,1m2.91,2.9,1,1m1,1-1-1M1.17,26.25l1,1m-3.88-1.94,1,1m1,1-1-1m1.94,1.94,1,1m-1-1-1-1M4.09,31.1l-1-1m-1-1,1,1m1,1,1,.95M2.15,31.1l1,1m1,1,1,1m-1-1-1-1M1.18,30.13l-1-1m1,1,1,1M.21,29.16l-1-1m-1-1,1,1m1.94,3.88-1-1M4.09,35l-1-1m-1-1,1,1m1,1,1,1M1.18,32.07l1,1M.21,31.1l-1-1m-1-1,1,1M1.18,34l-1-1m0,0-1-1m-1-1,1,1m4.85,4.85-1-1M1.18,34l1,1,1,1m1,1,1,1m-2.89-1,1,1m1,1-1-1M-1.73,33l1,1m1,1-1-1m1.94,1.94,1,1m-1-1-1-1m3.88,3.88,1,.95m-1,1,1,1M2.15,38.85l1,1M1.18,37.88l-1-1m1,1,1,1M.21,36.91l-1-1m4.85,4.84-1-1M-1.73,35l1,1m4.85,6.78,1,1M1.18,39.81l1,1m1.94,1.94-1-1m-1-1,1,1M1.18,39.81l-1-1m0,0-1-1m-1-1,1,1m1.94,3.87,1,1m-1-1-1-1m-1.94-1.94,1,1m1,1-1-1m2.91,2.91,1,1m-2.91-1-1-1m-1-1,1,1m1.94,1.94-1-1m-1.94,0,1,1"/></g><g class="cls-4"><path class="cls-3" d="M36.88,40.77l1,1m1.94,1.94-1.94-1.94m-1.94-1.93,1,1m-1,1,1,1M16.52,22.38l1,1m3.88,3.87,1,1m1.94,1.93-1.94-1.93m-4.85-4.84,1,1M36.88,42.71l1,1M20.4,26.25l-1.94-1.93m-1.94-1.94-1-1-1-1m-1-1,1,1M32,37.87l1,1M20.4,26.25l1,1M34.94,40.77l-1-1m-1-1,1,1M28.16,34l1,1m6.79,6.77-1-1m-9.69-9.68,1,1M28.16,34l-1.94-1.94m-1.94-1.94,1,1M12.65,18.51l1,1M32,37.87l-1.94-1.94m-1-1,1,1M16.52,24.32l-1-1-1-1m-1-1,1,1M32,39.81l1,1m-4.84-4.84,1,1m0,0,1,1M16.52,24.32l1,1M32,39.81l-1-1-1-1M33,40.77l1,1M12.65,20.44l-1-1m9.69,9.68,1,1M11.68,19.48l-1-1M24.28,32.06l-1.94-1.93M35.91,43.68l-1-1M20.4,28.19l1,1M34.94,42.71l-1-1m-5.81-5.81-1-1m0,0-1-1m-1.94-1.94L26.22,34m-8.73-8.72,1,1m1.94,1.94-1-1m0,0-1-1m-5.81-5.81,1,1m2.91,4.84,1,1M9.74,19.48l1,1m1,1-1-1M25.25,35l1,1m-8.73-8.71,1,1m1,1-1-1m-5.81-5.81-1-1m4.84,4.84-1-1m0,0-1-1M31.06,40.77l-1-1M13.61,23.35l1,1M32,41.74l-1-1M27.19,36.9l-1-1M20.4,30.12l-1-1M33,42.71l1,1m-5.81-5.81-1-1m1.93,1.94,1,1M24.28,34l-1-1-1-1m-1-1,1,1M24.28,34l1,1M32,41.74l1,1M8.77,18.51l1,1M20.4,30.12l1,1m-8.72-8.71,1,1M28.16,37.87l1,1M12.65,24.32l1,1m6.78,6.78,1,1,1,1m-5.82-5.81,1,1M7.8,19.48l-1-1m6.79,6.77,1,1M23.31,35l-1-1M8.77,20.44l1,1M24.28,35.93l-1-1m-6.79-6.77-1.94-1.94M29.12,40.77l1,1M11.68,23.35l-1-1M25.25,36.9l1,1m4.84,4.84-1-1M9.74,21.41l1,1M32,43.68l-1-1M17.49,29.16l1,1M8.77,20.44l-1-1M20.4,32.06l-1.94-1.94m9.7,9.69-1-1-1-1m-1.94-1.94,1,1m2.91,2.91,1,1M12.65,24.32l-1-1m-6.8,18.4,1,1m0,0,1,1M4.88,39.82l1,1m2.91,2.91-1-1m0,0-1-1m-1-1,1,1m1.94,0-1-1-1-1m2.91,2.91,1,1M4.88,37.88l1,1,1,1m1.94,1.94,1,1m-1-2.91-1-1-1-1m1.94,1.93,1,1m1.94,1.94-1-1m-1-1,1,1M4.88,35.94l1,1m6.79,6.78-1-1M5.85,36.91l1,1m6.79,4.84,1,1M8.76,37.88,6.82,35.94M4.88,34l1,1m6.79,6.78-1-1m-2.91-2.9,1,1m2.91,2.91,1,1m-1.94-1.94-1-1M5.85,35l1,1m2.91,2.9,1,1M4.88,32.07l1,1m0,0,1,1m1.94,1.94,1,1m-1-1-1-1m0,0-1-1m6.79,6.78,1,1m1.94,1.93-1-1m0,0-1-1M9.73,36.91l1,1m1.94,1.93,1,1m-1-1L10.7,37.88M8.76,34l1,1M4.89,30.13l1,1M16.52,41.75l1,1m-3.88-3.88,1,1M5.85,31.1l1,1m5.82,5.81-1-1M7.79,33l-1-1m8.73,8.71-1-1M8.76,34l-1-1m9.7,9.69,1,1m-1.94-1.93-1-1m-3.88-3.87-1-1m-1-1,1,1m1.94,1.94,1,1M9.73,33l1,1m4.85,4.84-1-1m-1-1,1,1M4.89,28.19l1,1m6.78,6.78-1-1-1-1m5.82,5.81,1,1m-1-1-1-1M8.76,32.07l1,1m7.76,7.75,1,1m1.94,1.93-1-1M8.76,32.07l-1-1-1-1m-1-1,1,1M19.43,42.71l-1-1m-5.82-5.81,1,1m2.91,1-1-1m0,0-1-1m5.82,5.81-1-1M13.61,35l1,1M8.76,30.13l1,1M12.64,34l1,1m-1-1-1-1m9.7,9.68,1,1M9.73,31.1l1,1m1,1-1-1m-5.81-5.8,1,1M17.49,38.84l1,1M5.86,27.22l1,1m1.94,1.94-1-1m8.73,8.71,1,1m2.91,2.91,1,1M7.79,29.16l-1-1M19.43,40.78l-1-1m5.81,3.87-1-1m-6.79-6.77,1,1"/><path class="cls-3" d="M28.16,18.51l1,1,1,1M32,22.38l-1-1M42.7,33l-1-1m6.79,6.78,1,1M43.67,34l-1-1m-1.94-1.94,1,1m9.7,9.69-1-1M39.79,30.12l1,1m9.7,9.69-1-1m1.94,1.94,1,1M38.82,29.16l-1-1m-1-1,1,1M33,23.35l1,1m1,1-1-1M52.4,42.72l1,1M35.91,26.25l-1-1M47.55,37.87l1,1M43.67,34l1,1m-8.73-8.72,1,1m2.91,2.9-1-1M32,22.38l1,1M42.7,35l-1-1m2.91,2.9,1,1m1.94,1.94-1-1-1-1m1.94,1.94,1,1M28.15,20.44l1,1m-1.93-1.93-1-1M40.76,33l1,1M28.15,20.44l-1-1m8.72,8.71-1-1m-5.82-5.81,1,1M32,24.32l-1-1m0,0-1-1M32,24.32l1,1m0,0,1,1m1,1-1-1m9.7,9.68,1,1m-4.85-4.84,1,1m2.91,2.9-1-1m-2.91-2.91-1-1m0,0-1-1m-1-1,1,1M51.43,43.69l-1-1-1-1m-1-1,1,1M35.91,28.19l1,1M24.28,18.51l1,1M35.91,30.12l-1-1M42.7,36.9l-1-1M27.19,21.41l-1-1M32,26.25l1,1M39.79,34l-1.94-1.94m-1.94-1.94,1,1m0,0,1,1m-9.69-9.68,1,1m-3.87-3.87,1,1M43.67,37.87l-1-1M31.06,25.28l-1-1M44.64,38.84l1,1M29.12,23.35l1,1M32,26.25l-1-1M39.79,34l1,1m5.82,5.81-1-1m2.91,2.91,1,1M28.16,22.38l-1-1M47.55,41.75l1,1M33,27.22l1,1m1,1-1-1M40.76,35l1,1m1.94,1.94,1,1m2.91,2.91-1-1m-6.79-4.85-1-1m0,0-1-1m-1-1,1,1M24.28,20.44l1,1m18.42,18.4,1,1m-8.73-8.72,1,1m7.76,7.75,1,1m1.94,1.93-1-1M32,28.19l1,1M46.58,42.72l-1-1M23.31,19.48l-1-1m5.82,5.81,1,1M40.76,36.9l1,1m1.94,1.94-1-1m0,0-1-1M29.12,25.28l1,1m-5.81-5.81-1-1M32,28.19l-1-1m0,0-1-1M33,29.16l1,1m5.82,5.8,1,1M28.16,24.32l-1.94-1.94m9.69,9.68-1-1-1-1m-8.72-8.72,1,1m-4.85-2.9,1,1m18.42,18.4,1,1m1.94,1.94-1-1-1-1m-1.94-1.94-1-1m0,0-1-1m1.94,1.94,1,1M23.31,21.41l-1-1M36.88,35l1,1M24.28,22.38l-1-1m1,1,1,1M33,31.09l1,1m1,1-1-1m9.7,9.69,1,1M32,30.12l1,1M35.91,34l-1-1M32,30.12l-1-1m-1.94-1.94,1,1m1,1-1-1m-1.93-1.94-1-1m0,0-1-1m-1-1,1,1M35.91,34l1,1M20.4,18.51l1,1M44.64,42.71l1,1M28.16,26.25l1,1m-4.84-2.9,1,1M35.91,35.93l1,1m-8.72-8.71,1,1m-4.84-4.84-1-1-1-1m-1-1,1,1m18.42,18.4,1,1m1.94,1.94-1-1-1-1M28.16,28.19l-1-1m12.6,12.59-1-1-1-1M27.19,27.22l-1-1M20.4,20.44l-1-1m5.82,5.8,1,1m-6.79-6.77-1-1M36.88,36.9l1,1M33,33l1,1m5.82,5.81,1,1M32,32.06l-1-1M20.4,20.44l1,1M32,32.06l1,1m2.91,2.9-1-1-1-1m-4.85-4.84,1,1m1,1-1-1m5.82,7.75,1,1M31.06,33l-1-1M40.76,42.71l1,1M32,34l-1-1m-1.94-1.94,1,1M17.49,19.48l1,1m5.82,5.81,1,1M20.4,22.38l-1-1-1-1m9.7,9.68,1,1m-1-1-1-1m9.69,9.68,1,1M27.19,29.16l-1-1M39.79,41.74l-1-1m0,0-1-1M24.28,26.25l-1-1M39.79,41.74l1,1M20.4,22.38l1,1m0,0,1,1M34.94,36.9l-1-1M16.53,18.51l1,1M32,34l1,1,1,1m-8.72-8.71,1,1m-2.91-2.91-1-1M35.91,37.87l-1-1M24.28,28.19l-1-1m-1.94-1.94,1,1m1,1-1-1M29.12,33l1,1M32,35.93l-1-1m0,0-1-1M20.4,24.32l1,1m-1-1-1-1m0,0-1-1m5.82,5.81,1,1m-7.76-7.75,1,1m9.7,9.68-1-1M15.55,19.48l-1-1m12.6,12.58-1-1m-1-1,1,1M32,35.93l1,1m0,0,1,1m1.94,1.94-1-1-1-1M16.52,20.44l1,1M28.16,32.06l1,1M16.52,20.44l-1-1"/><path class="cls-3" d="M54.33,19.48l-1-1m-1.94,0,1,1m0,0,1,1m1,1-1-1m-1.94,0-1-1m0,0-1-1m2.91,2.9,1,1m1,1-1-1m-1.94-1.94,1,1m-4.85-2.9,1,1m5.82,5.81-1-1m-1.94-1.94,1,1m0,0,1,1m-1.94-1.94-1.94-1.94m-1-1,1,1m2.91,4.84,1,1m1,1-1-1m-2.91-2.9-1-1m-1-1,1,1m1.94,1.94-1-1m-2.91-2.91-1-1m0,0-1-1m1.93,1.93,1,1m2.91,2.91,1,1m-7.75-5.8,1,1m5.82,5.81,1,1m-4.85-4.84-1-1m-2.9-2.9,1,1m6.78,6.77-1-1m0,0-1-1m-1.94-1.94,1,1,1,1m-2.91-2.91-1-1m8.73,8.72-1-1m-1-1,1,1m-5.82-3.87,1,1m2.91,2.91,1,1m-8.72-8.72,1,1m2.91,2.91-1-1m-1.94-1.94,1,1m1,1-1-1m2.91,2.9,1,1m4.85,4.85-1-1m-1.94-1.94-1-1m1.94,1.94,1,1m-2.91-2.91-1-1m-5.81-5.81-1-1-1-1m5.81,7.74,1,1m-3.88-3.87,1,1m1.94,1.93-1-1m0,0-1-1m-5.81-5.81,1,1M54.33,33l-1-1m-1-1,1,1m-9.69-9.68,1,1m6.79,6.78-1-1m0,0-1-1m-8.72-8.71,1,1m6.78,6.78,1,1m-5.81-5.81-1-1-1-1m9.69,9.69,1,1m0,1.93,1,1m-1.94-1.94-1-1-1-1m-1.94-1.94-1-1m0,0-1-1m1.94,1.94,1.94,1.94M54.33,35l-1-1m-1.94-1.94,1,1m-7.75-7.75,1,1m-4.84-4.84,1,1m-1.94-1.94-1-1m3.88,3.87-1-1m-1.94-1.94,1,1m2.91,2.91-1-1m-3.88-3.87-1-1m5.82,5.81,1,1m-7.76-5.8,1,1m9.69,9.69-1-1M35.91,18.51l1,1m7.75,7.74,1,1M51.42,34l1,1m-5.82-5.81-1-1m8.73,8.72-1-1M39.79,22.38l1,1m6.78,6.78,1,1m-7.75-7.74,1,1m1.94,1.93-1-1m0,0-1-1m-2.91-2.91-1-1M52.39,35l1,1m-9.69-9.69,1,1m-4.84-4.84-1-1M51.42,34l-1-1m-1.94-1.94,1,1m1,1-1-1m-1.94,0-1-1m4.86,4.85-1-1m-5.82-5.81,1,1m1,1-1-1m1.94,1.94,1,1m2.92,2.91,1,1M48.51,33l1,1m1,1-1-1m-9.69-9.68,1,1m-4.85-4.84,1,1,1,1m1.94,1.94-1-1m0,0-1-1m2.91,2.9,1,1m1.94,1.94-1-1m0,0-1-1m-5.82-5.81-1-1m0,0-1-1m9.7,9.68,1,1m9.71,9.68-1-1m-1-1,1,1m-9.7-7.76-1-1m8.73,8.71-1-1m0,0-1-1M35.91,22.38l1,1M48.52,35l1,1m-5.82-5.82,1,1M32,18.51l1,1m9.7,9.68-1-1m-1-1,1,1M47.55,34l1,1M34.94,21.41l-1-1M46.57,33l-1-1m-1-1,1,1m-5.81-5.81-1-1M52.4,38.84l1,1m1,1-1-1M38.82,25.28l-1-1M51.43,37.87l1,1M33,19.48l1,1m1.94,1.94-1-1m1.94,1.94,1,1M47.55,34l-1-1m-6.78-6.78,1,1m13.58,15.5-1-1M35.91,24.32l1,1m2.91,2.91,1,1M51.43,39.81l1,1,1,1M46.57,35l-1-1m-1.93-1.94,1,1M32,20.44l1,1M44.63,33l1,1m1.95,1.94-1-1m-9.69-9.69,1,1M32,20.44l-1-1M43.67,32.06l-1-1m4.85,4.85,1,1m0,0,1,1M38.82,27.22l-1-1m-1.94-1.93-1-1m4.85,4.84-1-1M51.43,39.81l-1-1-1-1m-8.73-8.71,1,1M31.06,19.48l-1-1m2.9,2.9,1,1m8.73,8.71-1-1m-6.79-6.78-1-1M44.64,35l1,1m1.94,1.93-1-1m0,0-1-1M31.06,21.41l-1-1"/></g><g class="cls-5"><path class="cls-3" d="M4.1-1.72,5-.77M4.1.22,2.16-1.72M4.1.22,5,1.16m-.94,1L2.16.22M4.1,2.16,5,3.1M2.16.22l-1-1m0,0-1-1M4.1,4.09l-1-1m0,0-1-1-1-1m-1-1-1-1m-1-1,1,1M4.1,4.09,5,5M1.19,1.18l-1-1M4.1,6,5,7M2.16,4.09l-1-1M4.1,6l-1-1m0,0-1-1m-1-1-1-1m0,0-1-1m-1-1,1,1m1,2.91-1-1M2.16,6l-1-1M4.1,8,5,8.91M3.13,7l-1-1m-1-1-1-1M4.1,8l-1-1M-1.72,2.15l1,1M4.1,9.9l.94.95M3.13,8.93l-1-1L.22,6m0,0-1-1M4.1,9.9l-1-1M-1.72,4.09l1,1m-1,1,1,1m1,1-1-1M4.1,11.84l-1-1m0,0-1-1m-1-1-1-1M4.1,11.84l.94.94M2.16,9.9l-1-1M4.1,13.78l-1-1-1-1M.22,9.9l-1-1m-1-1,1,1M4.1,13.78l.94.94M2.16,11.84l-1-1m0,0-1-1m2.91,4.85L1.19,12.81m0,0-1-1m0,0-1-1m-1-1,1,1M5,16.65l-.94-.94m0,0-1-1"/></g><g class="cls-6"><path class="cls-3" d="M31.06,15.71l-1-1M13.6-1.72l1,1M31.06,15.71l1,1M15.54.21l-1-1M21.36,6l-1-1m-1-1,1,1M23.3,8l-1-1m-1-1,1,1m-2.91-2.9-1-1M23.3,6l-1-1m-1-1,1,1M34.94,17.65l-1-1m-2.91-2.9,1,1m1,1,1,1M15.54-1.72l1,1M25.24,8l1,1M17.48.21l-1-1m2.91,2.91-1-1m-1-1,1,1M27.18,9.9l-1-1M33,15.71l-1-1M21.36,4.09l-1-1m8.73,8.72-1-1M23.3,6l1,1M34.94,17.65l1,1M25.24,8l-1-1M27.18,9.9l1,1M19.42,2.15l1,1M31.06,13.78l-1-1m-1-1,1,1m1-1,1,1M21.36,2.15l-1-1m-1-1,1,1m-2.91-2.9,1,1M33,13.78l-1-1m2.91,2.9-1-1M19.42.21l-1-1M36.88,17.65l-1-1m-1-1,1,1M23.3,4.09l-1-1m-1-1,1,1M25.24,6l-1-1M36.88,17.65l1,1M23.3,4.09l1,1M29.12,9.9l1,1m1,1-1-1M33,13.78l1,1M27.18,8l-1-1M29.12,9.9l-1-1M25.24,6l1,1m1,1,1,1M27.18,6l-1-1M21.36.21l-1-1M29.12,8l1,1m4.85,4.85-1-1M19.42-1.73l1,1M33,11.84l1,1M25.24,4.09l1,1M38.83,17.65l1,1M27.18,6l1,1m1,1-1-1M31.06,9.9l-1-1m6.79,6.78-1-1m-1-1,1,1M33,11.84l-1-1m4.85,4.84,1,1M23.3,2.15l-1-1M31.06,9.9l1,1M21.36.21l1,1m16.5,16.47-1-1M23.3,2.15l1,1m1,1-1-1m16.5,14.53-1-1M25.24,2.15l-1-1m-1-1-1-1m1,1,1,1M33,9.9l1,1m4.86,4.84-1-1M27.18,4.09l1,1m1,1-1-1m-1-1-1-1M31.06,8l1,1m2.91,2.91-1-1M25.24,2.15l1,1M21.36-1.73l1,1M31.06,8l-1-1m-1-1,1,1m6.79,6.79,1,1m1,1,1,1M33,9.9l-1-1m8.74,8.72,1,1m-6.8-6.78,1,1m1,1-1-1m1-1-1-1M31.06,6l1,1M34.94,9.9l1,1m1,1,1,1M25.24.21l1,1m12.62,12.6-1-1M29.12,4.09l1,1M33,8,32,7m-1-1-1-1m8.74,8.72,1,1m2.92,2.91,1,1m-2.91-2.91-1-1M34.94,9.9l-1-1M27.18,2.15l-1-1m16.5,16.47-1-1M33,8l1,1M23.3-1.73l1,1m1,1-1-1m4.85,4.85-1-1M40.77,15.71l1,1M27.18,2.15l1,1M33,6l-1-1M36.88,9.9l-1-1M31.06,4.09l1,1m8.74,8.72,1,1m1,1,1,1M34.94,8,34,7M33,6l1,1m8.74,8.72-1-1M27.18.21l-1-1m1,1,1,1M36.88,9.9l1,1m6.8,6.78-1-1M25.24-1.73l1,1M34.94,8l1,1M29.12,2.15l-1-1m12.62,12.6-1-1m-1-1,1,1m4.85,4.84,1,1M29.12,2.15l1,1m1,1-1-1m8.74,8.72-1-1m4.85,2.91-1-1m-1-1,1,1m-1-1-1-1m-1-1,1,1m4.86,4.84-1-1M27.18-1.73l1,1M34.94,6l-1-1M29.12.21l-1-1M42.7,13.78l1,1M33,4.09l-1-1m-1-1,1,1m1,1,1,1M46.59,17.65l-1-1m-1-1,1,1M31.06,2.15l-1-1M36.88,8l-1-1m-1-1,1,1M29.12.21l1,1M36.88,8l1,1m1,1-1-1m8.74,8.72,1,1M33,2.15l1,1M36.88,6l-1-1M40.77,9.9l1,1m1,1-1-1m-1-1-1-1m4.86,4.85-1-1m-1-1,1,1M36.88,6l1,1m1,1,1,1m-1-1-1-1M33,2.15l-1-1M29.12-1.73l1,1m1,1-1-1m4.85,4.85-1-1M46.59,15.71l1,1M34.94,4.09l1,1M31.06.21l1,1m16.5,16.47-1-1m1,1,1,1m-4.85-4.84,1,1m1,1-1-1M34.94,2.15l-1-1M44.65,11.84l1,1M40.76,8l1,1M33,.21l1,1m12.62,12.6-1-1M42.7,9.9l-1-1m8.74,8.72,1,1M36.88,4.09l1,1M50.47,17.65l-1-1M34.94,2.15l1,1M48.53,15.71l1,1M36.88,4.09l-1-1M40.76,8l-1-1m-1-1,1,1M31.06-1.73l1,1m16.5,16.47-1-1M33,.21l-1-1M46.59,13.78l1,1m-2.91-2.91-1-1m-1-1,1,1M38.82,6l-1-1M34.94.21l-1-1M48.53,13.78l1,1"/><path class="cls-3" d="M8.75,16.68l1.94,1.94M5.84,13.78l1,1m0,0,1,1m-2.91-2.9,1,1m1.94,1.93,1,1M4.87,10.87l1,1m4.85,4.84,1,1,1,1M8.75,14.74l1,1m0,0,1,1m-2.91-2.9,1,1m-2.91-2.9,1,1m0,0,1,1m5.82,3.87-1-1m-1-1,1,1M5.84,9.9l1,1,1,1m1,1,1,1M4.87,8.94l1,1m7.76,7.75,1,1M7.78,11.84l1,1m1,1,1,1m0,0,1,1m0-1.93,1,1m2.91,2.9,1,1M13.6,15.71l-1-1M9.72,11.84l1,1m0,0,1,1m3.88,3.87-1-1m-1-1,1,1M8.75,10.87l1,1M4.87,7l1,1m0,0,1,1,1,1,1,1m8.73,6.78-1-1m-1-1,1,1m1,1,1,1M6.81,7l1,1m3.88,3.87,1.94,1.94,1,1m1,1-1-1M9.72,9.9l1,1,1,1M4.87,5.06l1,1m0,0,1,1m1,1,1,1m0,0,1,1m9.7,7.75,1,1m-7.76-7.75,1,1m3.88,3.87-1-1m-1-1,1,1m1,1,1,1m1,1-1-1M5.84,4.09l1,1m0,0L8.75,7M4.87,3.12l1,1M8.75,7l1,1M11.66,9.9l1,1m1,1,1,1M9.72,8l1,1,1,1m3.88,3.88-1-1M8.75,5.06l1,1m0,0,1,1m0,0,1,1M4.87,1.19l1,1M11.66,8l1,1M5.84,2.16l1,1m1,1,1,1m3.88,3.87,1,1m1.94,1.94,1,1m1,1-1-1M13.6,9.9l1,1m1,1-1-1m4.85,4.84,1,1m1,1-1-1M6.81,3.12l1,1m9.7,9.69,1,1m1,1-1-1m2.91,2.91,1,1M15.54,9.9l-1-1m-1-1,1,1m2.91,2.91-1-1m2.91,2.91,1,1M15.54,9.9l1,1m4.85,4.84-1-1m2.91,2.91-1-1m-1-1,1,1M10.69,5.06l1,1M23.3,17.65l1,1M11.66,6l1,1M7.78,2.15l2.91,2.91M4.87-.75l1,1M12.63,7l1,1M5.84.22l1,1m0,0,1,1m9.7,9.69,1,1m1,1-1-1M9.72,2.15l1,1m0,0,1,1M7.78.22l1,1m0,0,1,1m15.52,15.5,1,1M5.84-1.72l1,1M23.3,15.71l-1-1m-1-1,1,1M11.66,4.09l1,1M6.81-.75l1,1m9.7,9.68-1-1m8.73,8.72-1-1m-4.85-4.84,1,1M17.48,9.9l1,1m2.91,2.91-1-1m-1-1-1-1M15.54,8l1,1m6.79,6.78,1,1M12.63,5.06l1,1,1,1m1,1-1-1m10.67,8.72-1-1m-2.91-2.91,1,1M17.48,8l1,1m1,1-1-1m2.91,2.91-1-1m2.91,2.91,1,1m-1-1-1-1M19.42,9.9l1,1M9.72.22l1,1M7.78-1.72l1,1m0,0,1,1M25.24,15.71l1,1M13.6,4.09l1,1M17.48,8l-1-1M12.63,3.12l1,1M10.69,1.18l1,1M15.54,6l1,1M11.66,2.15l1,1M27.18,17.65l1,1m-1-1-1-1M15.54,6l-1-1M29.12,17.65l-1-1m-1-1,1,1M17.48,6l1,1M13.6,2.15l1,1m1,1-1-1m8.73,8.72,1,1m4.85,4.84,1,1m-4.85-4.84-1-1M19.42,8l-1-1m4.85,4.85-1-1m-9.7-9.69,1,1M21.36,9.9l1,1M11.66.22l1,1M17.48,6l-1-1M27.18,15.71l-1-1m-1-1,1,1M9.72-1.72l1,1,1,1m9.7,9.68-1-1m-1-1,1,1M15.54,4.09l1,1m10.67,8.72-1-1m-1-1,1,1M17.48,4.09l-1-1M21.36,8l-1-1m-1-1,1,1M15.54,2.15l-1-1m2.91,2.91,1,1M23.3,9.9l1,1m4.85,4.84,1,1M15.54,2.15l1,1M31.06,17.65l-1-1m-1-1-1-1m-1-1,1,1M23.3,9.9l-1-1M19.42,6l-1-1M21.36,8l1,1M12.63-.75l1,1M31.06,17.65l1,1m-6.79-6.78-1-1M13.6.21l1,1m-2.91-2.9,1,1M23.3,8l1,1m1,1-1-1m1,1,1,1m1,1-1-1M33,17.65l1,1M15.54.21l1,1m1,1-1-1M33,17.65l-1-1m-2.91-2.9-1-1m1,1,1,1m-2.91-2.9,1,1M17.48,2.15l1,1"/><path class="cls-3" d="M54.34.22l-1-1m-1-1,1,1m-2.91-1,1,1m1,1-1-1m2.91,2.9-1-1m-1-1,1,1m1,2.91-1-1m-1-1,1,1M50.46.21l1,1m-1-1-1-1m2.91,2.9-1-1m-2.91-2.9,1,1m1,2.9,1,1M46.58-1.72l1,1m4.86,4.85-1-1M48.52.21l-1-1m2.91,2.91-1-1m-1-1,1,1M54.35,6l-1-1m-1-1,1,1m-1,1,1,1m1,1-1-1M50.46,4.09l1,1m1,1-1-1M48.52,2.15l-1-1m-1-1,1,1m-1-1-1-1m-1-1,1,1m4.85,4.85-1-1m-1-1,1,1M44.64.21l-1-1m-1-1,1,1M52.41,8l-1-1M46.58,2.15l-1-1m-1-1,1,1m2.91,2.91-1-1M54.35,9.9l-1-1m-1-1,1,1M50.47,6l-1-1m-1-1,1,1M46.58,2.15l1,1M50.47,6l1,1m-1,1,1,1M42.7.21l-1-1M52.41,9.9l-1-1M42.7.21l1,1m1,1-1-1M40.77-1.73l1,1m12.62,12.6-1-1m-1-1,1,1M48.53,6l-1-1M44.65,2.15l1,1m1,1,1,1m-1-1-1-1M50.47,8l-1-1m-1-1,1,1M4.87,16.68l1,1m0,0,1,1M4.87,14.75l1,1m0,0,1,1,1,1m0,0,1,1"/></g></svg>