<svg id="Capa_1" data-name="Capa 1" xmlns="http://www.w3.org/2000/svg" xmlns:xlink="http://www.w3.org/1999/xlink" viewBox="0 0 54 43.2"><defs><style>.cls-1,.cls-3{fill:none;}.cls-2{clip-path:url(#clip-path);}.cls-3{stroke:#000;stroke-width:0.3px;}.cls-4{clip-path:url(#clip-path-2);}.cls-5{clip-path:url(#clip-path-3);}.cls-6{clip-path:url(#clip-path-4);}</style><clipPath id="clip-path"><rect id="SVGID" class="cls-1" y="18.24" width="39.49" height="24.96"/></clipPath><clipPath id="clip-path-2"><rect id="SVGID-2" data-name="SVGID" class="cls-1" x="39.29" y="18.24" width="14.71" height="24.96"/></clipPath><clipPath id="clip-path-3"><rect id="SVGID-3" data-name="SVGID" class="cls-1" width="39.49" height="18.39"/></clipPath><clipPath id="clip-path-4"><rect id="SVGID-4" data-name="SVGID" class="cls-1" x="39.29" width="14.71" height="18.39"/></clipPath></defs><title>662 Bentonita</title><g class="cls-2"><path class="cls-3" d="M-14.69,20.91H39.49m-54.18,4.26H39.49M5,22,4,23l1,1m10.76-2.09-1,1,1,1m10.76-2.09-1,1,1,1M4,23H-1.7m16.48-.08H9.07m16.47-.09H19.83m17.46-1.08-1,1H30.59m5.72,0,1,1m-9,16.86H22m6.21,0,1.07-1m-1.07,1,1.07,1M25.17,29.39h6.21m1.07,1-1.07-1,1.07-1M7.06,34.91h6.21m1.07-1-1.07,1,1.07,1m-10.13,7-1.06,1"/></g><g class="cls-4"><path class="cls-3" d="M39.29,20.91H93.47M39.29,25.17H93.47M48.21,22.06l-1,1H41.51m5.72,0,1,1M58,23H52.28m-8.43,6.14h6.21m1.07,1-1.07-1m0,0,1.07-1"/></g><g class="cls-5"><path class="cls-3" d="M-1.41,11.86l1.07,1m-1.07-1,1.07-1m31.53,4-1.06,1H23.91m6.22,0,1.06,1M35.94,6.32H29.73m7.28-1-1.07,1,1.07,1M12.14,16.87H5.93m6.21,0,1.07-1m-1.07,1,1.07,1m-7-11.38h6.21m0,0,1.07,1m-1.07-1,1.07-1"/></g><g class="cls-6"><path class="cls-3" d="M52.57,11.86H46.36m6.21,0,1.06,1m-1.06-1,1.06-1M48.3,1.78H42.09m6.21,0,1.07-1m-1.07,1,1.07,1"/></g></svg>