<svg id="Capa_1" data-name="Capa 1" xmlns="http://www.w3.org/2000/svg" xmlns:xlink="http://www.w3.org/1999/xlink" viewBox="0 0 54 43.2"><defs><style>.cls-1,.cls-3{fill:none;}.cls-2{clip-path:url(#clip-path);}.cls-3{stroke:#000;stroke-width:0.3px;}.cls-4{clip-path:url(#clip-path-2);}.cls-5{clip-path:url(#clip-path-3);}.cls-6{clip-path:url(#clip-path-4);}</style><clipPath id="clip-path"><rect id="SVGID" class="cls-1" y="18.24" width="19.43" height="24.96"/></clipPath><clipPath id="clip-path-2"><rect id="SVGID-2" data-name="SVGID" class="cls-1" x="19.23" y="18.24" width="34.77" height="24.96"/></clipPath><clipPath id="clip-path-3"><rect id="SVGID-3" data-name="SVGID" class="cls-1" width="19.43" height="18.39"/></clipPath><clipPath id="clip-path-4"><rect id="SVGID-4" data-name="SVGID" class="cls-1" x="19.23" width="34.77" height="18.39"/></clipPath></defs><title>663 Glauconita</title><g class="cls-2"><path class="cls-3" d="M15.73,36.94a2.51,2.51,0,0,0,1.82-1.19,17,17,0,0,0,1.88.83M.94,22.12a6.61,6.61,0,0,1-5.33-.66,2.16,2.16,0,0,1-1.59,1M10,22.12a6.61,6.61,0,0,1-5.33-.66,2.19,2.19,0,0,1-1.6,1m9,0a2.16,2.16,0,0,0,1.59-1,6.64,6.64,0,0,0,5.34.66M-6.63,39.67a2.45,2.45,0,0,0,1.82-1.19c1.45.69,3.39,1.82,6.09.82m3.59-9.42a2.48,2.48,0,0,0,1.82-1.2c1.45.69,3.39,1.82,6.09.82m-47.53-9.59H19.43m-54.18,4.26H19.43"/></g><g class="cls-4"><path class="cls-3" d="M27.9,22.12a6.61,6.61,0,0,1-5.33-.66,2.18,2.18,0,0,1-1.59,1m15.93-.3a6.61,6.61,0,0,1-5.33-.66,2.19,2.19,0,0,1-1.6,1m15.94-.3a6.64,6.64,0,0,1-5.34-.66,2.16,2.16,0,0,1-1.59,1m15.93-.3a6.61,6.61,0,0,1-5.33-.66,2.19,2.19,0,0,1-1.6,1m-.64,17.25a2.45,2.45,0,0,0,1.82-1.19c1.44.69,3.39,1.82,6.09.82M23.43,36.56a5.87,5.87,0,0,1-4.2,0M32.71,31a2.45,2.45,0,0,0,1.82-1.19c1.45.69,3.39,1.82,6.09.82M19.23,19.91H73.41M19.23,24.17H73.41"/></g><g class="cls-5"><path class="cls-3" d="M13,16a2.48,2.48,0,0,0,1.82-1.19,7.94,7.94,0,0,0,4.6,1.17M8.3,9.31c-2.69,1-4.64-.13-6.08-.82A2.45,2.45,0,0,1,.4,9.68"/></g><g class="cls-6"><path class="cls-3" d="M27.42,3.5c-2.7,1-4.64-.13-6.08-.82a2.45,2.45,0,0,1-1.82,1.19M52.62-.68c-2.7,1-4.64-.13-6.08-.82A2.49,2.49,0,0,1,44.72-.3M19.23,15.93a5.89,5.89,0,0,0,1.48-.36M62.28,9.31c-2.7,1-4.64-.13-6.08-.82a2.45,2.45,0,0,1-1.82,1.19M41.93,12.36c-2.69,1-4.64-.13-6.08-.82A2.45,2.45,0,0,1,34,12.73"/></g></svg>