<svg id="Capa_1" data-name="Capa 1" xmlns="http://www.w3.org/2000/svg" xmlns:xlink="http://www.w3.org/1999/xlink" viewBox="0 0 53.93 35.36"><defs><style>.cls-1,.cls-3{fill:none;}.cls-2{clip-path:url(#clip-path);}.cls-3{stroke:#000;stroke-width:0.3px;}</style><clipPath id="clip-path"><polygon class="cls-1" points="0.1 0.08 53.64 0 53.82 36.36 -0.09 36.36 0.1 0.08"/></clipPath></defs><title>664 Limonita</title><g class="cls-2"><path class="cls-3" d="M11.15,33.33m-1.65,0h1.65V31.68H9.5Zm.82-3.19A2.37,2.37,0,1,1,8,32.51,2.37,2.37,0,0,1,10.32,30.14Zm10-4.58h1.65V23.91H20.29Zm.82-3.19a2.37,2.37,0,1,1-2.36,2.36A2.37,2.37,0,0,1,21.11,22.37ZM29.87,31h1.65V29.32H29.87Zm.83-3.19a2.37,2.37,0,1,1-2.37,2.36A2.36,2.36,0,0,1,30.7,27.78Zm15.94-.09h1.64V26H46.64Zm.82-3.19a2.37,2.37,0,1,1-2.36,2.36A2.37,2.37,0,0,1,47.46,24.5ZM36.85,19.41H38.5V17.77H36.85Zm.82-3.18a2.36,2.36,0,1,1-2.36,2.36A2.37,2.37,0,0,1,37.67,16.23ZM2.47,21.29H4.12V19.65H2.47Zm.83-3.18A2.36,2.36,0,1,1,.93,20.47,2.36,2.36,0,0,1,3.3,18.11ZM17.53,9.64h1.65V8H17.53Zm.82-3.19A2.37,2.37,0,1,1,16,8.81,2.37,2.37,0,0,1,18.35,6.45Zm4-11.58a2.37,2.37,0,0,1,2.37,2.36A2.37,2.37,0,0,1,22.34-.4,2.37,2.37,0,0,1,20-2.77,2.36,2.36,0,0,1,22.34-5.13ZM49.22,10.92h1.64V9.27H49.22ZM50,7.73a2.37,2.37,0,1,1-2.36,2.37A2.37,2.37,0,0,1,50,7.73ZM35.68,4.8h1.65V3.16H35.68Zm.82-3.18A2.37,2.37,0,1,1,34.14,4,2.37,2.37,0,0,1,36.5,1.62ZM4.09,3.46H5.73V1.81H4.09ZM4.91.27A2.37,2.37,0,1,1,2.55,2.64,2.37,2.37,0,0,1,4.91.27Z"/></g></svg>