<svg id="Capa_1" data-name="Capa 1" xmlns="http://www.w3.org/2000/svg" viewBox="0 0 60.23 45.5"><title>666 Roca fosfática nodular, fósforita</title><path d="M5.91,34.16c.5.38,1.26,1,3.14.38,2.41-.81,1.25-1.76-1.26-1.88-2.38.12-2.38,1.12-1.88,1.5"/><path d="M17,32.78c-4,.25-2.25,1.76.38,1.63s2.51-1.5-.38-1.63"/><path d="M25.61,32.53c-2.63.13-3,1.51.25,1.38s3.64-1.51-.25-1.38"/><path d="M35.27,34.41c2.39-.12,2.76-1.25,0-1.88-5-.13-2.38,2,0,1.88"/><path d="M42.68,32.53c-2.76.25-2.14,1.63.37,1.51s2-1.51-.37-1.51"/><path d="M4.78,37.29c-.37-1-.87-1-2.76-.37-2.38.5-.5,1.63,1.26,1.5s1.88-.12,1.5-1.13"/><path d="M11.81,37c-3.64,0-2.26,1.63.25,1.63s2.64-1.25-.25-1.63"/><path d="M22.1,37.17c-4-1.13-3,1.38-.63,1.38s2.64-.5.63-1.38"/><path d="M30.38,36.92c-4.14.25-1,1.88,1.63,1.38s.63-1.13-1.63-1.38"/><path d="M38.66,38.05c3.14-.13,2.64-1.38-.12-1.38-2.51-.13-3,1.5.12,1.38"/><path d="M40.17,43.44c-1.89.37-2.14,1.63.87,1.63s2.64-.63,1.76-1.26-.75-.75-2.63-.37"/><path d="M11.31,44.06c1.5.25,1.75.25,2.63-.5s.38-1.13-1.63-1.13c-2.26,0-2.51,1.38-1,1.63"/><path d="M48.55,37.05c-2.2.09-1.77,1.4,0,1.69"/><path d="M53.12,32.78c-2.64-.12-3.52,1.26,0,1.26s3.13-1.38,0-1.26"/><path d="M48.35,38.74a4.52,4.52,0,0,0,1,.06c2.64-.13,2-1.76-.75-1.76h-.25"/><path d="M52.74,43.19c2.38-.38,2-1.51-.25-1.76-2.76-.25-2.14,2.13.25,1.76"/><path d="M9.18,21.55c2.5,0,2.63-1.25-.26-1.63-3.63,0-2.25,1.63.26,1.63"/><path d="M18.59,21.43c2.38,0,2.63-.5.62-1.38-4-1.13-3,1.38-.62,1.38"/><path d="M29.12,21.18c2.64-.51.63-1.13-1.63-1.38-4.14.25-1,1.88,1.63,1.38"/><path d="M35.77,20.93c3.14-.13,2.64-1.38-.12-1.38-2.51-.13-3,1.5.12,1.38"/><path d="M45.69,21.3c2.88.13,2.13-1.5-.51-1.63s-3.63,1.63.51,1.63"/><path d="M3.73,28.44c3.89.25,1.64-1.88-.25-1.88s-3,2,.25,1.88"/><path d="M39.29,25.94c1.5.25,1.75.25,2.63-.5s.38-1.13-1.63-1.13c-2.26,0-2.51,1.38-1,1.63"/><path d="M28.41,2.16c3.14,0,2-1.75-.25-1.63-2.88,0-2.88,1.63.25,1.63"/><path d="M42.55,2.2C44.81,1.45,43.3.7,41,.7A6.82,6.82,0,0,0,39.16,1c-1.63,1.63,1.13,2,3.39,1.25"/><path d="M15.11,3.88c3,.12,2.89-1.51,0-1.63-3.13,0-3,1.5,0,1.63"/><path d="M41.17,12.15c-3.14.13-2,1.75.38,1.75s2.76-1.88-.38-1.75"/><path d="M30.5,10.65c2.77,0,2.77-1.76-.12-1.76-3.14-.12-2.64,1.76.12,1.76"/><path d="M16.58,13c2.51,0,2.26-1.76-.5-1.76-3.39.38-2,1.76.5,1.76"/><path d="M2.53,7.89c2.63,0,3-1.76-.26-1.76-3,.13-2.38,1.76.26,1.76"/><path d="M23.73,28.7c2.63,0,3-1.76-.25-1.76-3,.13-2.39,1.76.25,1.76"/><path d="M54.37,21.3c1.76-.12,1.88-.12,1.51-1.13s-.88-1-2.76-.37c-2.39.5-.51,1.63,1.25,1.5"/><path d="M57.71,28.44c3.89.25,1.63-1.88-.25-1.88s-3,2,.25,1.88"/><path d="M56.5,7.89c2.64,0,3-1.76-.25-1.76-3,.13-2.38,1.76.25,1.76"/><path d="M52.24,15.41c2.51-.13,2.51-1.51-.38-1.38-3.39.25-2.13,1.5.38,1.38"/></svg>