<svg id="Capa_1" data-name="Capa 1" xmlns="http://www.w3.org/2000/svg" xmlns:xlink="http://www.w3.org/1999/xlink" viewBox="0 0 54 43.2"><defs><style>.cls-1,.cls-3{fill:none;}.cls-2{clip-path:url(#clip-path);}.cls-3{stroke:#000;stroke-width:0.3px;}.cls-4{clip-path:url(#clip-path-2);}.cls-5{clip-path:url(#clip-path-3);}.cls-6{clip-path:url(#clip-path-4);}</style><clipPath id="clip-path"><rect id="SVGID" class="cls-1" y="25.87" width="34.57" height="17.31"/></clipPath><clipPath id="clip-path-2"><rect id="SVGID-2" data-name="SVGID" class="cls-1" x="34.37" y="25.87" width="19.63" height="17.31"/></clipPath><clipPath id="clip-path-3"><rect id="SVGID-3" data-name="SVGID" class="cls-1" width="34.57" height="26.02"/></clipPath><clipPath id="clip-path-4"><rect id="SVGID-4" data-name="SVGID" class="cls-1" x="34.37" width="19.63" height="26.02"/></clipPath></defs><title>667 Yeso</title><g class="cls-2"><path class="cls-3" d="M-4.49,41.46,19,64.89m-23.48-26,26.08,26M-4.49,36.26,24.2,64.89M-4.49,33.66,26.8,64.89M-4.49,31.06l33.9,33.83M-4.49,28.46,32,64.89m0-39,2.61,2.6m-5.21-2.6,5.21,5.2m-7.81-5.2,7.81,7.8m-10.42-7.8,10.42,10.4m-13-10.4,13,13m-15.63-13L34.57,41.46M16.34,25.87,34.57,44.06M13.74,25.87,34.57,46.66M11.13,25.87,34.57,49.26m-26-23.39,26,26m-28.64-26L34.57,54.45M3.32,25.87,34.57,57.05M.72,25.87,34.57,59.65M-1.89,25.87,34.57,62.24M-4.49,25.87l39.06,39"/></g><g class="cls-4"><path class="cls-3" d="M34.37,41.46,57.85,64.89m-23.48-26,26.09,26M34.37,36.26,63.06,64.89M34.37,33.66l31.3,31.23M34.37,31.06l33.9,33.83M34.37,28.46,70.88,64.89m-18.28-39L73.44,46.66M50,25.87,73.44,49.26m-26-23.39,26.05,26m-28.65-26L73.44,54.45M42.18,25.87,73.44,57.05M39.58,25.87,73.44,59.65M37,25.87,73.44,62.24M34.37,25.87l39.07,39"/></g><g class="cls-5"><path class="cls-3" d="M-4.49,20.79.75,26m-5.24-7.83L3.36,26M-4.49,15.59,6,26M-4.49,13,8.57,26M-4.49,10.39,11.17,26M-4.49,7.8,13.78,26M-4.49,5.2,16.38,26M-4.49,2.6,19,26M-4.49,0,21.59,26M-4.49-2.6,24.2,26M-4.49-5.2,26.8,26M-4.49-7.8,29.41,26M-4.49-10.4,32,26M21.55-13l13,13M18.94-13,34.57,2.6M16.34-13,34.57,5.2M13.74-13,34.57,7.79M11.13-13,34.57,10.39M8.53-13l26,26M5.93-13,34.57,15.59M3.32-13,34.57,18.18M.72-13,34.57,20.78M-1.89-13,34.57,23.38M-4.49-13,34.57,26"/></g><g class="cls-6"><path class="cls-3" d="M34.37,23.39,37,26m-2.64-5.23L39.61,26m-5.24-7.83L42.22,26M34.37,15.59,44.82,26M34.37,13,47.43,26M34.37,10.39,50,26M34.37,7.8,52.64,26M34.37,5.2,55.25,26M34.37,2.6,57.85,26M34.37,0,60.46,26M34.37-2.6,63.06,26M34.37-5.2,65.67,26M34.37-7.8,68.27,26M34.37-10.4,70.88,26M52.6-13,73.44,7.79M50-13,73.44,10.39M47.39-13,73.44,13M44.79-13,73.44,15.59M42.18-13,73.44,18.18M39.58-13,73.44,20.78M37-13,73.44,23.38M34.37-13,73.44,26"/></g></svg>