<svg id="Capa_1" data-name="Capa 1" xmlns="http://www.w3.org/2000/svg" xmlns:xlink="http://www.w3.org/1999/xlink" viewBox="0 0 44.47 29.62"><defs><style>.cls-1,.cls-3{fill:none;}.cls-2{clip-path:url(#clip-path);}.cls-3{stroke:#000;stroke-width:0.3px;}</style><clipPath id="clip-path"><rect id="SVGID" class="cls-1" x="-1.11" y="-1.71" width="47.89" height="32.53"/></clipPath></defs><title>668 Sal</title><g class="cls-2"><path class="cls-3" d="M34.74,29.48V27m0-19.75V2.32m0,0V-.15m-2.47,0V2.32m0,28.5V29.48m0-22.22V2.32m0,17.28V17.13m0,12.35V24.54m0-12.34V7.26m0,9.87V14.67m0,0V12.2m0-12.35V-2.62m0,27.16V22.07m0,0V19.6M29.8,12.2V9.73m0,21.09V29.48m0-2.47V24.54m0-14.81V7.26m0,9.87V14.67m0-12.35V4.79m0,24.69V27m0-19.75V4.79m0,17.28V19.6m0-22.22V-.15m0,19.75V17.13m0,7.41V22.07m0-19.75V-.15m0,14.82V12.2M27.33,4.79V2.32m0,24.69V24.54m0-24.69V2.32m0,22.22V22.07m0,0V19.6m0-9.87V7.26m0,9.87V14.67m0-17.29V-.15m0,12.35V9.73m0,9.87V17.13m0,12.35V27m0-19.75V4.79m0,9.88V12.2m0,18.62V29.48M24.86,12.2V9.73m0,14.81V22.07m0,0V19.6m0,9.88V27m0-19.75V4.79m0,26V29.48m0-2.47V24.54m0-4.94V17.13m0-19.75V-.15m0,9.88V7.26m0,9.87V12.2m0-12.35V2.32m0,0V4.79M22.39-2.62V-.15m0,27.16V24.54m0-19.75V7.26m0,12.34V14.67m0,16.15V29.48m0-27.16V4.79m0,2.47V9.73m0,19.75V27m0-4.94V19.6m0-7.4V9.73m0-9.88V2.32m0,22.22V22.07m0-7.4V12.2M19.92,7.26V12.2m0-12.35V4.79m0,0V7.26m0,7.41V12.2m0,9.87V19.6m0,9.88V27m0-7.41V17.13m0,9.88V24.54m0,6.28V29.48m0-4.94V22.07m0-4.94V14.67m0-17.29V-.15M17.44,27V24.54m0-4.94V17.13m0,13.69V27m0-24.69V4.79m0,2.47V9.73m0-12.35V2.32m0,9.88v2.47m0,2.46V14.67m0,9.87V22.07m0-12.34V12.2m0-7.41V7.26m0,14.81V19.6M15,7.26V9.73m0,0V12.2m0-7.41V7.26M15-.15V2.32m0,19.75V19.6M15-2.62V-.15m0,24.69V22.07M15,2.32V4.79M15,19.6V17.13M15,27V24.54M15,12.2v4.93m0,13.69V27M12.5,22.07V19.6m0-12.34V12.2m0,0v4.93m0,0V19.6m0,11.22V29.48m0-32.1V-.15m0,0V2.32m0,22.22V22.07m0-19.75V4.79m0,24.69V27m0,0V24.54m0-19.75V7.26M10,29.48V24.54m0-9.87v2.46m0-9.87V9.73m0,0V12.2m0,4.93V19.6m0,0v2.47m0-9.87v2.47M10,2.32V7.26m0-9.88V-.15m0,0V2.32m0,22.22V22.07m0,8.75V29.48M7.56,17.13V19.6m0-12.34V9.73m0-7.41V4.79m0,0V7.26m0,23.56V29.48m0,0V24.54m0-14.81v4.94m0-17.29V-.15m0,19.75v2.47m0-7.4v2.46m0-17.28V2.32m0,19.75v2.47M5.09,14.67v2.46m0,12.35V27m0-7.41v2.47m0,0v2.47m0,0V27m0,3.81V29.48m0-12.35V19.6m0-22.22V-.15m0,0V2.32m0,7.41v4.94m0-12.35V4.79m0,0V7.26m0,0V9.73M2.62-2.62V-.15m0,24.69V27m0-14.81v2.47m0,0v7.4m0,8.75V29.48m0-2.47v2.47m0-7.41v2.47m0-14.81V12.2m0-7.41V7.26m0,0V9.73m0-9.88V4.79M.15,19.6v2.47m0-7.4v2.46m0,0V19.6m0-14.81V7.26m0,0V12.2m0,9.87v2.47m0,0V27m0,0v2.47m0,0v1.34m0-18.62v2.47m0-17.29V-.15m0,0V2.32m0,0V4.79"/><path class="cls-3" d="M24.86,17.13h2.47m7.41,0H32.27m17.3,0H47.1m-29.66,0h7.42m2.47,0H29.8m9.88,0h5m2.47,0H44.63m-39.54,0H7.56m0,0H10m0,0H12.5m24.71,0h2.47m-2.47,0H34.74M49.57,19.6H47.1m-4.94,0h2.47m0,0H47.1m-7.42,0h2.48m-39.54,0H5.09m22.24,0H29.8M10,19.6H15m-16.08,0H.15m37.06,0H34.74m-17.3,0h2.48m2.47,0h2.47M.15,19.6H2.62M15,19.6h2.47m7.42,0h2.47m-7.41,0h2.47m17.29,0H37.21m-32.12,0H10m19.77,0h2.47m0,0h2.47m0,2.47h2.47m-34.59,0H5.09m22.24,0H29.8m-30.91,0H.15m29.65,0h2.47m7.41,0H37.21m-29.65,0H10m32.13,0h2.47m-19.77,0h2.47m-7.41,0h2.47m0,0h2.47m19.77,0H47.1m-14.83,0h2.47m-34.59,0H2.62m14.82,0h2.48m-9.89,0H12.5m34.6,0h2.47m-37.07,0H15m0,0h2.47m24.72,0H39.68m-34.59,0H7.56m24.71,2.47h4.94m7.42,0H42.16m-39.54,0H5.09m37.07,0H39.68m-9.88,0h2.47m-33.38,0H.15m44.48,0H47.1m-9.89,0h2.47m-39.53,0H2.62m44.48,0h2.47m-32.13,0h2.48m-12.36,0H12.5m0,0H15m-9.88,0H7.56m7.41,0h2.47m4.95,0h2.47m0,0h2.47m0,0H29.8m-9.88,0h2.47M29.8,27h2.47M2.62,27H5.09m0,0H7.56m17.3,0h2.47M47.1,27H44.63M-1.11,27H.15m7.41,0H10m24.71,0h2.47M19.92,27h2.47m14.82,0h2.47m0,0h2.48M27.33,27H29.8m-7.41,0h2.47m19.77,0H42.16M17.44,27h2.48M10,27H12.5m0,0h4.94m14.83,0h2.47M47.1,27h2.47M.15,27H2.62m24.71,2.47H29.8m-7.41,0h2.47m14.82,0h2.48m4.94,0H44.63m-39.54,0H7.56m0,0H10m-7.41,0H5.09m7.41,0H15m-16.08,0H.15m49.42,0H47.1m-9.89,0h2.47m-39.53,0H2.62m22.24,0h2.47M15,29.48h2.47m0,0h4.95m19.77,0h2.47m-14.83,0h2.47m0,0h2.47M10,29.48H12.5m22.24,0h2.47m9.89,1.34V24.54m0-22.22V-.15m0,22.22V17.13m0,0V14.67m0-14.82V-2.62m0,9.88V4.79m0,9.88V12.2m0,0V9.73m0,0V7.26m0-2.47V2.32m0,22.22V22.07m-2.47-4.94V14.67m0-4.94V7.26m0,7.41V12.2m0-4.94V4.79m0,22.22V24.54m0-12.34V9.73m0,21.09V29.48m0-27.16V-.15m0,29.63V27m0-7.41V17.13m0-17.28V-2.62m0,24.69V19.6m0-14.81V2.32m0,22.22V22.07m-2.47-7.4V12.2m0,18.62V29.48m0-24.69V2.32m0,19.75V17.13m0-17.28V-2.62m0,14.82V9.73m0-7.41V-.15m0,9.88V7.26m0,0V4.79m0,12.34V14.67m0,9.87V22.07m0,7.41V27m0,0V24.54M39.68,4.79V2.32m0,14.81V14.67m0-14.82V-2.62m0,9.88V4.79m0-2.47V-.15m0,31V29.48m0-14.81V12.2m0,0V9.73m0,0V7.26m0,19.75V24.54m0-4.94V17.13m0,7.41V22.07m0,0V19.6m0,9.88V27M37.21-.15V-2.62m0,22.22V17.13m0-12.34V2.32m0,28.5V29.48m0-27.16V-.15m0,29.63V27m0-2.47V19.6m0-2.47V14.67m0,12.34V24.54m0-9.87V4.79M34.74,24.54V22.07m0-12.34V7.26m0,14.81V19.6m0-2.47V14.67m0,16.15V29.48m0-14.81V12.2m0,0V9.73m0-12.35V-.15m0,27.16V24.54m0-4.94V17.13"/><path class="cls-3" d="M49.57-.15H47.1m-42,0H7.56m-8.67,0H.15m47,0H42.16m-34.6,0H10M.15-.15H5.09m22.24,0H24.86m14.82,0H34.74m-9.88,0H22.39m-9.89,0H15m27.19,0H39.68m-9.88,0H27.33M10-.15H12.5m19.77,0H29.8m-9.88,0h2.47m12.35,0H32.27m-12.35,0H17.44M15-.15h2.47M42.16,2.32H39.68m-37.06,0H5.09m42,0H44.63m-14.83,0H27.33m0,0H24.86m24.71,0H47.1M10,2.32H12.5m-7.41,0H7.56m14.83,0h2.47m14.82,0H37.21m-38.32,0H2.62M15,2.32h2.47m19.77,0H34.74m9.89,0H42.16m-7.42,0H32.27m-24.71,0H10m12.36,0H19.92m12.35,0H29.8m-17.3,0H15m2.47,0h2.48M49.57,4.79H47.1m-7.42,0H37.21m-38.32,0H.15m9.88,0H12.5m24.71,0H34.74M15,4.79h2.47m-12.35,0H7.56m12.36,0h2.47m2.47,0H22.39m24.71,0H44.63m-17.3,0H29.8m0,0h2.47M.15,4.79H2.62m32.12,0H32.27m9.89,0H39.68m-22.24,0h2.48m-7.42,0H15m9.89,0h2.47m-24.71,0H5.09m2.47,0H10m34.6,0H42.16M15,7.26h2.47m-12.35,0H7.56m32.12,0H37.21m-19.77,0h2.48m17.29,0H34.74m12.36,0H44.63M10,7.26H12.5m32.13,0H42.16m7.41,0H47.1m-27.18,0h2.47m19.77,0H39.68m-37.06,0H5.09m22.24,0H29.8m-17.3,0H15m-7.41,0H10m14.83,0H22.39m-23.5,0H.15m29.65,0h4.94m-7.41,0H24.86M.15,7.26H2.62M39.68,9.73H37.21m-19.77,0h2.48m24.71,0H42.16m0,0H39.68m-37.06,0H5.09m9.88,0h2.47m14.83,0h2.47m-27.18,0H10m24.71,0h2.47m-38.32,0H.15m9.88,0H12.5m17.3,0h2.47m14.83,0H44.63m-22.24,0h2.47m-19.77,0H7.56m4.94,0H15M.15,9.73H2.62m27.18,0H24.86m24.71,0H47.1m-27.18,0h2.47m2.47,2.47h2.47m9.88,0h2.47M15,12.2h2.47m2.48,0h2.47m9.88,0H29.8M.15,12.2H2.62m39.54,0H39.68m-17.29,0h2.47m-26,0H.15m47,0H44.63m-12.36,0h2.47m-32.12,0H5.09m2.47,0H10m0,0H15m34.6,0H47.1m-17.3,0H27.33m-9.89,0h2.48m14.82,0h2.47m7.42,0H42.16m-37.07,0H7.56m0,2.47H10m0,0H12.5m14.83,0H29.8m19.77,0H47.1m-22.24,0h2.47m7.41,0h2.47m-32.12,0H7.56m24.71,0H29.8m9.88,0h2.48m2.47,0H42.16m-7.42,0H32.27m14.83,0H44.63m-32.13,0H15m-14.82,0H2.62m12.35,0h5m-21,0H.15m19.77,0h2.47m-19.77,0H5.09m32.12,0h2.47m-17.29,0h2.47M12.5,17.13H15m-16.08,0H.15m0,0H5.09m9.88,0h2.47m12.36,0h2.47"/></g></svg>