<svg id="Capa_1" data-name="Capa 1" xmlns="http://www.w3.org/2000/svg" xmlns:xlink="http://www.w3.org/1999/xlink" viewBox="0 0 46.71 11.64"><defs><style>.cls-1,.cls-3,.cls-4{fill:none;}.cls-2{clip-path:url(#clip-path);}.cls-3,.cls-4{stroke:#000;}.cls-3{stroke-width:0.3px;}.cls-4{stroke-linecap:round;stroke-width:0.7px;}.cls-5{clip-path:url(#clip-path-2);}.cls-6{clip-path:url(#clip-path-3);}.cls-7{clip-path:url(#clip-path-4);}</style><clipPath id="clip-path"><rect id="SVGID" class="cls-1" x="-7.39" y="7.84" width="41.77" height="34.11"/></clipPath><clipPath id="clip-path-2"><rect id="SVGID-2" data-name="SVGID" class="cls-1" x="34.17" y="7.84" width="12.44" height="34.11"/></clipPath><clipPath id="clip-path-3"><rect id="SVGID-3" data-name="SVGID" class="cls-1" x="-7.39" y="-1.23" width="41.77" height="9.22"/></clipPath><clipPath id="clip-path-4"><rect id="SVGID-4" data-name="SVGID" class="cls-1" x="34.17" y="-1.23" width="12.44" height="9.22"/></clipPath></defs><title>669 Arenisca y limolta interestratificada</title><g class="cls-2"><path class="cls-3" d="M-1.82,38.32H-9.75m23.65,0H6m15.72,0h7.93M-2,26.64H-10m23.87,0H6m15.72,0h7.93M-7.95,15H0m7.9,0h7.93m15.72,0H23.6M28.13,32.5h6.25m-4.2-11.68h4.2M31.8,9.14h2.58m-22,23.36h7.85m-23.41,0H4.71m9.66-11.68h7.85m-15.56,0H-1.19M16,9.14h7.85M.43,9.14H8.28m-15.45,0h-5.41"/><path class="cls-4" d="M33.64,41.23h0m-3.6,0h0m1.8,0h0m-5.41,0h0m1.8,0h0m-5.41,0h0m1.81,0h0m-5.42,0h0m1.81,0h0m-5.41,0h0m1.8,0h0m-5.41,0h0m1.81,0h0m-5.41,0h0m1.8,0h0m-5.41,0h0m1.8,0h0m-5.41,0h0m1.8,0H3m-5.41,0h0m1.81,0h0m-5.41,0h0m1.8,0h0m-3.61,0h0m41.48-5.78h0m-3.6,0h0m1.8,0h0m-5.41,0h0m1.8,0h0m-5.41,0h0m1.81,0h0m-5.42,0h0m1.81,0h0m-5.41,0h0m1.8,0h0m-5.41,0h0m1.81,0h0m-5.41,0h0m1.8,0h0m-5.41,0h0m1.8,0h0m-5.41,0h0m1.8,0H3m-5.41,0h0m1.81,0h0m-5.41,0h0m1.8,0h0m-3.61,0h0m41.48-5.84h0m-3.6,0h0m1.8,0h0m-5.41,0h0m1.8,0h0m-5.41,0h0m1.81,0h0m-5.42,0h0m1.81,0h0m-5.41,0h0m1.8,0h0m-5.41,0h0m1.81,0h0m-5.41,0h0m1.8,0h0m-5.41,0h0m1.8,0h0m-5.41,0h0m1.8,0H3m-5.41,0h0m1.81,0h0m-5.41,0h0m1.8,0h0m-3.61,0h0m41.48-5.9h0m-3.6,0h0m1.8,0h0m-5.41,0h0m1.8,0h0m-5.41,0h0m1.81,0h0m-5.42,0h0m1.81,0h0m-5.41,0h0m1.8,0h0m-5.41,0h0m1.81,0h0m-5.41,0h0m1.8,0h0m-5.41,0h0m1.8,0h0m-5.41,0h0m1.8,0H3m-5.41,0h0m1.81,0h0m-5.41,0h0m1.8,0h0m-3.61,0h0M33.64,18h0M30,18h0m1.8,0h0m-5.41,0h0m1.8,0h0m-5.41,0h0m1.81,0h0m-5.42,0h0M21,18h0m-5.41,0h0m1.8,0h0M12,18h0m1.81,0h0M8.4,18h0m1.8,0h0M4.79,18h0m1.8,0h0M1.18,18h0M3,18H3m-5.41,0h0m1.81,0h0M-6,18h0m1.8,0h0m-3.61,0h0m41.48-5.9h0m-3.6,0h0m1.8,0h0m-5.41,0h0m1.8,0h0m-5.41,0h0m1.81,0h0m-5.42,0h0m1.81,0h0m-5.41,0h0m1.8,0h0M12,12.1h0m1.81,0h0m-5.41,0h0m1.8,0h0m-5.41,0h0m1.8,0h0m-5.41,0h0m1.8,0H3m-5.41,0h0m1.81,0h0M-6,12.1h0m1.8,0h0m-3.61,0h0M31.31,38.34h0m2.09,0h0m-17.62,0h0m4.08,0h0m-2,0h0m-18,0h0m4.07,0h0m-2,0h0M31.26,26.6h0m2.08,0h0m-17.61,0h0m4.07,0h0m-2,0h0m-18,0h0m4.08,0h0m-2,0h0M33.23,15h0M17.69,15h0m4.08,0h0m-2,0h0m-18,0h0m4.07,0h0m-2,0h0M22.19,32.52h0m4,0h0m-2,0h0M-5,32.52h0m-2,0h0m13.39,0h0m4,0h0m-2,0h0M24.24,20.78h0m4,0h0m-2,0h0M-7,20.78h0m4,0h0m-2,0h0m13.39,0h0m4,0h0m-2,0h0M25.83,9.17h0m4,0h0m-2,0h0m-33.29,0h0m4,0h0m-2,0h0m13.39,0h0m4,0h0m-2,0h0"/></g><g class="cls-5"><path class="cls-3" d="M44.93,38.32H37m7.72-11.68H36.79M38.8,15h7.94M43.61,32.5h7.86m-17.3,0h1.74m17.5-11.68H45.56m-11.39,0H38M47.18,9.14H55m-15.45,0H34.17"/><path class="cls-4" d="M47.93,41.23h0m-3.61,0h0m1.81,0h0m-5.41,0h0m1.8,0h0m-5.42,0h0m1.81,0h0m-3.61,0h0m12.63-5.78h0m-3.61,0h0m1.81,0h0m-5.41,0h0m1.8,0h0m-5.42,0h0m1.81,0h0m-3.61,0h0m12.63-5.84h0m-3.61,0h0m1.81,0h0m-5.41,0h0m1.8,0h0m-5.42,0h0m1.81,0h0m-3.61,0h0m12.63-5.9h0m-3.61,0h0m1.81,0h0m-5.41,0h0m1.8,0h0m-5.42,0h0m1.81,0h0m-3.61,0h0M47.93,18h0m-3.61,0h0m1.81,0h0m-5.41,0h0m1.8,0h0M37.1,18h0m1.81,0h0M35.3,18h0m12.63-5.9h0m-3.61,0h0m1.81,0h0m-5.41,0h0m1.8,0h0m-5.42,0h0m1.81,0h0m-3.61,0h0m-.24,26.24h0m11.54,0h0M46.54,26.6h0M37,15h0m-2,0h0m2.73,17.53h0m4,0h0m-2,0h0m0-11.74h0m4,0h0m-2,0h0M41.36,9.17h0m4,0h0m-2,0h0"/></g><g class="cls-6"><path class="cls-3" d="M-.07,3.13H-8m23.76,0H7.82m23.43,0H23.32"/><path class="cls-4" d="M33.64,6.16h0m-3.6,0h0m1.8,0h0m-5.41,0h0m1.8,0h0m-5.41,0h0m1.81,0h0m-5.42,0h0m1.81,0h0m-5.41,0h0m1.8,0h0M12,6.16h0m1.81,0h0m-5.41,0h0m1.8,0h0m-5.41,0h0m1.8,0h0m-5.41,0h0m1.8,0H3m-5.41,0h0m1.81,0h0M-6,6.16h0m1.8,0h0m-3.61,0h0M33.64.38h0M30,.38h0m1.8,0h0m-5.41,0h0m1.8,0h0m-5.41,0h0m1.81,0h0m-5.42,0h0M21,.38h0m-5.41,0h0m1.8,0h0M12,.38h0m1.81,0h0M8.4.38h0m1.8,0h0M4.79.38h0m1.8,0h0M1.18.38h0M3,.38H3m-5.41,0h0m1.81,0h0M-6,.38h0m1.8,0h0m-3.61,0h0m41,2.77h0m-15.54,0h0m4.08,0h0m-2,0h0m-18,0h0m4.07,0h0m-2,0h0m22-5.7h0m4,0h0m-2,0h0m-33.3,0h0m4,0h0m-2,0h0m13.39,0h0m4,0h0m-2,0h0"/></g><g class="cls-7"><line class="cls-3" x1="46.68" y1="3.13" x2="38.75" y2="3.13"/><path class="cls-4" d="M47.93,6.16h0m-3.61,0h0m1.81,0h0m-5.41,0h0m1.8,0h0m-5.42,0h0m1.81,0h0m-3.61,0h0M47.93.38h0m-3.61,0h0m1.81,0h0m-5.41,0h0m1.8,0h0M37.1.38h0m1.81,0h0M35.3.38h0m1.56,2.77h0m-2,0h0m6.35-5.7h0m4,0h0m-2,0h0"/></g></svg>