<svg id="Capa_1" data-name="Capa 1" xmlns="http://www.w3.org/2000/svg" xmlns:xlink="http://www.w3.org/1999/xlink" viewBox="0 0 54 43.2"><defs><style>.cls-1,.cls-3,.cls-4{fill:none;}.cls-2{clip-path:url(#clip-path);}.cls-3,.cls-4{stroke:#000;}.cls-3{stroke-width:0.3px;}.cls-4{stroke-linecap:round;stroke-width:0.7px;}.cls-5{clip-path:url(#clip-path-2);}.cls-6{clip-path:url(#clip-path-3);}.cls-7{clip-path:url(#clip-path-4);}</style><clipPath id="clip-path"><rect id="SVGID" class="cls-1" y="21.03" width="22.45" height="22.14"/></clipPath><clipPath id="clip-path-2"><rect id="SVGID-2" data-name="SVGID" class="cls-1" x="22.25" y="21.03" width="31.75" height="22.14"/></clipPath><clipPath id="clip-path-3"><rect id="SVGID-3" data-name="SVGID" class="cls-1" width="22.45" height="21.19"/></clipPath><clipPath id="clip-path-4"><rect id="SVGID-4" data-name="SVGID" class="cls-1" x="22.25" width="31.75" height="21.19"/></clipPath></defs><title>670 Arenisca y pizarra interestratificada</title><g class="cls-2"><path class="cls-3" d="M18.83,39.82h3.62m-6.12,0H9.68M7,39.82H.3m14-5.81h6.65m-16,0h6.65m-16.1,0H2.08m20.37-5.85H18.83m-2.5,0H9.68M7,28.16H.3m14-5.81h6.65m-16,0h6.65m-16.1,0H2.08"/><path class="cls-4" d="M21.72,42.81h0m-3.61,0h0m1.81,0h0m-5.41,0h0m1.8,0h0m-5.41,0h0m1.8,0h0m-5.41,0h0m1.8,0h0m-5.41,0h0m1.81,0h0m-5.41,0h0m1.8,0h0m19.84-5.9h0m-3.61,0h0m1.81,0h0m-5.41,0h0m1.8,0h0m-5.41,0h0m1.8,0h0m-5.41,0h0m1.8,0h0m-5.41,0h0m1.81,0h0m-5.41,0h0m1.8,0h0m19.84-5.72h0m-3.61,0h0m1.81,0h0m-5.41,0h0m1.8,0h0m-5.41,0h0m1.8,0h0m-5.41,0h0m1.8,0h0m-5.41,0h0m1.81,0h0m-5.41,0h0m1.8,0h0M21.72,25.3h0m-3.61,0h0m1.81,0h0m-5.41,0h0m1.8,0h0m-5.41,0h0m1.8,0h0m-5.41,0h0m1.8,0h0m-5.41,0h0m1.81,0h0m-5.41,0h0m1.8,0h0"/></g><g class="cls-5"><path class="cls-3" d="M53.7,39.82H47.05m-2.8,0H37.6m-2.9,0H28.05m-2.67,0H22.25M51.63,34h6.65m-16.1,0h6.65m-9.55,0H32.63M30,34H23.31M53.7,28.16H47.05m-2.8,0H37.6m-2.9,0H28.05m-5.8,0h3.13m26.25-5.81h6.65m-16.1,0h6.65m-16.2,0h6.65m-9.32,0H23.31"/><path class="cls-4" d="M54,42.81h0m-3.61,0h0m1.81,0h0m-5.41,0h0m1.8,0h0m-5.41,0h0m1.81,0h0m-5.42,0h0m1.8,0h0m-5.4,0h0m1.8,0h0m-5.41,0h0m1.8,0h0m-5.41,0h0m1.81,0h0m-5.42,0h0m1.8,0h0m-3.6,0h0M54,36.91h0m-3.61,0h0m1.81,0h0m-5.41,0h0m1.8,0h0m-5.41,0h0m1.81,0h0m-5.42,0h0m1.8,0h0m-5.4,0h0m1.8,0h0m-5.41,0h0m1.8,0h0m-5.41,0h0m1.81,0h0m-5.42,0h0m1.8,0h0m-3.6,0h0M54,31.19h0m-3.61,0h0m1.81,0h0m-5.41,0h0m1.8,0h0m-5.41,0h0m1.81,0h0m-5.42,0h0m1.8,0h0m-5.4,0h0m1.8,0h0m-5.41,0h0m1.8,0h0m-5.41,0h0m1.81,0h0m-5.42,0h0m1.8,0h0m-3.6,0h0M54,25.3h0m-3.61,0h0m1.81,0h0m-5.41,0h0m1.8,0h0m-5.41,0h0m1.81,0h0m-5.42,0h0m1.8,0h0m-5.4,0h0m1.8,0h0m-5.41,0h0m1.8,0h0m-5.41,0h0m1.81,0h0m-5.42,0h0m1.8,0h0m-3.6,0h0"/></g><g class="cls-6"><path class="cls-3" d="M18.83,16.39h3.62m-6.12,0H9.68M7,16.39H.3m14-5.81h6.65m-16,0h6.65m-16.1,0H2.08M18.83,4.74h3.62m-12.77,0h6.65M7,4.74H.3"/><path class="cls-4" d="M21.72,19.36h0m-3.61,0h0m1.81,0h0m-5.41,0h0m1.8,0h0m-5.41,0h0m1.8,0h0m-5.41,0h0m1.8,0h0m-5.41,0h0m1.81,0h0m-5.41,0h0m1.8,0h0m19.84-5.78h0m-3.61,0h0m1.81,0h0m-5.41,0h0m1.8,0h0m-5.41,0h0m1.8,0h0m-5.41,0h0m1.8,0h0m-5.41,0h0m1.81,0h0m-5.41,0h0m1.8,0h0m19.84-5.9h0m-3.61,0h0m1.81,0h0m-5.41,0h0m1.8,0h0m-5.41,0h0m1.8,0h0m-5.41,0h0m1.8,0h0m-5.41,0h0m1.81,0h0m-5.41,0h0m1.8,0h0M21.72,1.9h0m-3.61,0h0m1.81,0h0m-5.41,0h0m1.8,0h0m-5.41,0h0m1.8,0h0m-5.41,0h0m1.8,0h0m-5.41,0h0m1.81,0h0M.08,1.9h0m1.8,0h0"/></g><g class="cls-7"><path class="cls-3" d="M53.7,16.39H47.05m-2.8,0H37.6m-9.55,0H34.7m-9.32,0H22.25m29.38-5.81h6.65m-16.1,0h6.65m-9.55,0H32.63m-2.67,0H23.31M53.7,4.74H47.05m-9.45,0h6.65m-9.55,0H28.05m-2.67,0H22.25"/><path class="cls-4" d="M54,19.36h0m-3.61,0h0m1.81,0h0m-5.41,0h0m1.8,0h0m-5.41,0h0m1.81,0h0m-5.42,0h0m1.8,0h0m-5.4,0h0m1.8,0h0m-5.41,0h0m1.8,0h0m-5.41,0h0m1.81,0h0m-5.42,0h0m1.8,0h0m-3.6,0h0M54,13.58h0m-3.61,0h0m1.81,0h0m-5.41,0h0m1.8,0h0m-5.41,0h0m1.81,0h0m-5.42,0h0m1.8,0h0m-5.4,0h0m1.8,0h0m-5.41,0h0m1.8,0h0m-5.41,0h0m1.81,0h0m-5.42,0h0m1.8,0h0m-3.6,0h0M54,7.68h0m-3.61,0h0m1.81,0h0m-5.41,0h0m1.8,0h0m-5.41,0h0m1.81,0h0m-5.42,0h0m1.8,0h0m-5.4,0h0m1.8,0h0m-5.41,0h0m1.8,0h0m-5.41,0h0m1.81,0h0m-5.42,0h0m1.8,0h0m-3.6,0h0M54,1.9h0m-3.61,0h0m1.81,0h0m-5.41,0h0m1.8,0h0m-5.41,0h0M45,1.9h0m-5.42,0h0m1.8,0h0M36,1.9h0m1.8,0h0m-5.41,0h0m1.8,0h0m-5.41,0h0m1.81,0h0m-5.42,0h0m1.8,0h0m-3.6,0h0"/></g></svg>