<svg id="Capa_1" data-name="Capa 1" xmlns="http://www.w3.org/2000/svg" xmlns:xlink="http://www.w3.org/1999/xlink" viewBox="0 0 53.77 29.41"><defs><style>.cls-1,.cls-3,.cls-4{fill:none;}.cls-2{clip-path:url(#clip-path);}.cls-3,.cls-4{stroke:#000;}.cls-3{stroke-width:0.3px;}.cls-4{stroke-linecap:round;stroke-width:0.7px;}.cls-5{clip-path:url(#clip-path-2);}</style><clipPath id="clip-path"><rect id="SVGID" class="cls-1" y="-1.07" width="15.15" height="30.34"/></clipPath><clipPath id="clip-path-2"><rect id="SVGID-2" data-name="SVGID" class="cls-1" x="14.95" y="-1.07" width="39.06" height="30.34"/></clipPath></defs><title>671 Arenisca y lutita interestratificada con estratificación ondulada</title><g class="cls-2"><path class="cls-3" d="M11.93,3.76a15,15,0,0,0,3.22.13m-1.84,9.77a10.34,10.34,0,0,0,1.84.16M9.33,28a9.43,9.43,0,0,0,5.82.59M12.93,18.51a12.46,12.46,0,0,0,2.22.16m-12-4.55c1.51,0,2.6-.75,3.85-1.08a7.23,7.23,0,0,1,4.43.08M-6.52,13c3.6-.67,6,.91,7.53,1.08M1.85,4c1.5,0,2.59-.75,3.85-1.09A7.31,7.31,0,0,1,10.13,3M-.24,4C-1.75,3.8-4.17,2.21-7.77,2.88M7.2-2a7.3,7.3,0,0,1,3.57.5c1.37.92,3.21.42,3.63.51M-2-1.26C-.83-1,3.19-.92,5.36-2m9.37,25.83c-.42-.09-2.26.41-3.62-.51a7.34,7.34,0,0,0-3.57-.5m-9.21.76c1.18.25,5.19.33,7.37-.76M7.41,7.9A7.19,7.19,0,0,1,11,8.4c1.37.92,3.21.41,3.62.5M-1.79,8.65C-.62,8.9,3.4,9,5.57,7.9m1.8,19.55c-3.18-.42-4.94.67-6.19.92m-1.59.25c-.42-.08-2.26.42-3.62-.5a7.22,7.22,0,0,0-3.57-.5M2.52,19c1.5,0,2.59-.75,3.85-1.09A7.31,7.31,0,0,1,10.8,18M.43,19c-1.51-.17-3.94-1.75-7.53-1.09"/><path class="cls-4" d="M13.53,26.22h0m-2-.07h0m-1.74-.37h0m-1.94-.44h0m-2-.13h0M4,25.34H4M2.14,26h0m-2.07.32h0m14.73-5h0m-2-.07h0m-1.74-.37h0m-1.94-.45h0m-2-.12h0m-1.93.12h0m-1.83.62h0m-2.06.32h0m-2-.12h0M14.1,16.19h0m-1.74-.37h0m-1.95-.44h0m-1.95-.13h0m-1.94.13h0M4.7,16h0m-2.07.32h0m-2-.13h0m-1.91-.37h0m15.52-4.48h0M12.52,11h0m-1.94-.44h0m-2-.13h0m-1.93.13h0m-1.82.62h0m-2.07.32h0m-2-.13h0M-1.1,11h0M13.26,6.33h0M11.52,6h0M9.58,5.51h0m-2-.12h0m-1.93.12h0m-1.83.62h0M1.8,6.45h0m-2-.12h0M13.92,1.38h0m-2-.07h0M10.18.94h0M8.24.5h0m-2-.13h0M4.35.5h0m-1.83.62h0M.46,1.44h0"/></g><g class="cls-5"><path class="cls-3" d="M28.12,4c-.42-.08-2.26.42-3.62-.5A7.22,7.22,0,0,0,20.93,3M19.08,3A11.28,11.28,0,0,1,15,3.89m7.35,9a7.36,7.36,0,0,1,3.58.5c1.36.92,3.2.42,3.62.5m-9-1a13.19,13.19,0,0,1-5.51.91M47.61,13c3.6-.67,6,.91,7.53,1.08M39,13.45a8.9,8.9,0,0,0,6.86.25M30.8,14c1.25-.25,3-1.33,6.19-.91M53.88,4C52.38,3.8,50,2.21,46.35,2.88m-1.75.67a8.94,8.94,0,0,1-6.86-.25m-2-.42c-3.18-.42-4.93.67-6.19.92M52.13-1.26C53.3-1,57.31-.92,59.49-2M42.17-.92C43.68-.92,44.76-1.67,46-2a7.31,7.31,0,0,1,4.43.09M32.55-2c3.6-.67,6,.92,7.53,1.09M30.8-1.34a8.9,8.9,0,0,1-6.86-.25m-2-.42c-3.18-.42-4.94.67-6.19.92M52.46,23.57c1.17.25,5.19.33,7.36-.76M42.51,23.9c1.5,0,2.59-.75,3.84-1.09a7.35,7.35,0,0,1,4.44.09m-17.9-.09c3.59-.66,6,.92,7.53,1.09m-16.15-.67a8.9,8.9,0,0,0,6.86.25m-8.87-.67c-3.18-.41-4.93.67-6.19.92M52.33,8.65c1.18.25,5.19.33,7.37-.75M42.38,9C43.89,9,45,8.23,46.23,7.9A7.23,7.23,0,0,1,50.66,8M32.76,7.9c3.6-.67,6,.91,7.53,1.08M24.15,8.31A8.9,8.9,0,0,0,31,8.56M22.14,7.9C19,7.48,17.2,8.56,16,8.81M53.71,28.62c-.41-.08-2.25.42-3.62-.5a7.19,7.19,0,0,0-3.57-.5m-1.84,0c-2.17,1.09-6.19,1-7.36.75m-1.67-.67a7.34,7.34,0,0,0-4.44-.08c-1.25.33-2.34,1.09-3.84,1.09m-2.1,0c-1.5-.17-3.93-1.76-7.52-1.09m-2.8,1a7.86,7.86,0,0,0,1-.34m13.13-9.53c-.42-.08-2.26.42-3.62-.5a7.2,7.2,0,0,0-3.57-.5m-1.84,0a12.94,12.94,0,0,1-5.14.91m39.6.34c-1.5-.17-3.93-1.75-7.53-1.09m-1.75.67a8.9,8.9,0,0,1-6.86-.25m-2-.42c-3.18-.41-4.94.67-6.19.92"/><path class="cls-4" d="M54.2,26.28h0m-2-.13h0m-1.91-.37h0m-1.94-.44h0m-2-.13h0m-1.93.13h0M42.64,26h0m-2.06.32h0m-2-.07h0m-1.74-.37h0m-1.94-.45h0m-2-.12h0M31,25.39h0M29.17,26h0m-2.07.32h0m-2-.12h0m-1.85-.37h0m-1.94-.45h0m-2-.12h0m-1.93.12h0M15.55,26h0m37.94-4.76h0m-1.91-.37h0m-1.95-.45h0m-2-.12h0m-1.93.12h0m-1.82.62h0m-2.07.32h0m-2-.07h0m-1.74-.37h0m-2-.44h0m-1.95-.13h0m-1.93.13h0m-1.83.62h0m-2.06.32h0m-2-.13h0m-1.85-.37h0m-1.95-.44h0m-2-.13h0m-1.93.13h0m-1.82.62h0m37.94-4.92h0m-1.91-.37h0m-1.94-.44h0m-2-.13h0M47,15.38h0M45.2,16h0m-2.06.32h0m-2-.07h0m-1.74-.37h0m-2-.45h0m-1.95-.12h0m-1.94.12h0m-1.82.62h0m-2.07.32h0m-2-.12h0m-1.86-.37h0m-1.94-.45h0m-2-.12h0m-1.93.12h0m-1.83.62h0m-2,.32h0m38.83-5h0M53,11h0m-2-.44h0m-1.95-.13h0m-1.93.13h0m-1.83.62h0m-2.06.32h0m-2-.07h0M39.55,11h0m-1.94-.44h0m-2-.13h0m-1.93.13h0m-1.82.62h0m-2.07.32h0m-2-.13h0M25.94,11h0M24,10.59h0m-2-.13h0m-1.93.13h0m-1.83.62h0m-2,.32h0m37.67-5.2h0M52,6h0m-2-.45h0m-1.95-.12h0m-1.94.12h0m-1.82.62h0m-2.07.32h0m-2-.06h0M38.55,6h0m-1.94-.45h0m-2-.12h0m-1.93.12h0m-1.83.62h0m-2.06.32h0m-2-.12h0M24.94,6h0m-2-.45h0M21,5.45h0m-1.94.12h0m-1.82.62h0m-1.86.32h0M54.58,1.44h0m-2-.13h0M50.69.94h0M48.74.5h0m-2-.13h0M44.85.5h0M43,1.12h0M41,1.44h0m-2-.07h0M37.21,1h0M35.27.56h0m-2-.13h0M31.38.56h0m-1.83.62h0m-2.06.32h0m-2-.13h0M23.6,1h0m-2-.44h0M19.7.43h0M17.77.56h0m-1.83.62h0"/></g></svg>