<svg id="Capa_1" data-name="Capa 1" xmlns="http://www.w3.org/2000/svg" xmlns:xlink="http://www.w3.org/1999/xlink" viewBox="0 0 54 43.2"><defs><style>.cls-1,.cls-3,.cls-4{fill:none;}.cls-2{clip-path:url(#clip-path);}.cls-3,.cls-4{stroke:#000;}.cls-3{stroke-width:0.3px;}.cls-4{stroke-linecap:round;stroke-width:0.7px;}.cls-5{clip-path:url(#clip-path-2);}.cls-6{clip-path:url(#clip-path-3);}</style><clipPath id="clip-path"><rect id="SVGID" class="cls-1" width="8.9" height="43.18"/></clipPath><clipPath id="clip-path-2"><rect id="SVGID-2" data-name="SVGID" class="cls-1" x="8.7" width="44.87" height="43.18"/></clipPath><clipPath id="clip-path-3"><rect id="SVGID-3" data-name="SVGID" class="cls-1" x="53.37" width="0.63" height="43.18"/></clipPath></defs><title>672 Pizarra y caliza limosa interestratificada</title><g class="cls-2"><path class="cls-3" d="M4.7,36.42H8.9m0-6.12H5.5M4.7,18.43H8.9m0-3.18H7.77M4.54,6.45H8.9M6.3.32H8.9M1.12,42.42V39.24M-36,42.43H8.9M-36,39.19H8.9M8.4,12.46V9.07m0,0v0m0,3.41v0m0-3.42h.5m-.5,0H-1.77m0,3.39H8.9M6,27.46v.07M-36,27.46H6V24.22m0,3.24h3M-4.47,24.17H8.9M2.09,36.42h-6.4m4.64-3h6.4M-3.51,30.3h6.4m3.68-8.94H.17m-4.48-2.93h6.4m-3.36-3.18h6.4m-9.6-8.8h6.4M8,3.46H1.61M-2.71.32h6.4m.92,25.62H-2.92"/><path class="cls-4" d="M8.5,25.94h0M4.06,40.85h0m4.07,0h0m-2,0h0m-4.34-30h0m4.07,0h0m-2,0h0"/></g><g class="cls-5"><path class="cls-3" d="M49.37,36.42h4.2m0-6.12h-3.4m-.8-11.87h4.2m0-3.18H52.44m-3.23-8.8h4.36M51,.32h2.61M10.41,39.24v3.18m12.06-3.18v3.18m11.62-3.18v3.18m11.69,0V39.24M8.7,42.43H53.57M8.7,39.19H53.57M42.9,9.05v0m0,3.39v0m0,0V9.07m10.17,3.39V9.07m0,0v0m0,3.41v0M30.75,9.07v0m0,3.44v0m0,0V9.07m-12.46,0v0m0,0v3.39m0,0v0M53.07,9.07h.5m-22.82,0H42.9m-24.61,0H8.7m44.37,0H42.9m-24.61,0H30.75M18.29,12.46H42.9m10.17,0h.5m-35.28,0H8.7m34.2,0H53.07M15.75,24.14v3.31m12.49-3.31v0m0,0v3.28m22.38,0v.07m0-.07V24.22m-10.42,0v0m0,0v3.28m-31.5,0H50.62m0,0h3M40.2,24.17h-12m-12.49,0h-7m31.5,0H53.57m-25.33,0H15.75m31,12.25H40.36m-2.56,0H31.4m-2.56,0h-6.4m-2.56,0H13.49m-4.79,0h2.19m34.11-3h6.39M36,33.44h6.4m-15.36,0h6.4m-15.36,0h6.4m-9,0H9.17m32-3.14h6.39m-15.35,0h6.4m-15.36,0h6.4m-15.35,0h6.39m-9,0h-3m42.53-8.94H44.84m-2.56,0h-6.4m-9,0h6.4m-9,0H18m-2.56,0H9m31.35-2.93h6.39m-15.35,0h6.4m-9,0h-6.4m-2.56,0H13.49m-4.79,0h2.19M43.4,15.25h6.39m-8.95,0h-6.4m-2.56,0h-6.4m-8.95,0h6.39m-9,0H8.7m31.5-8.8h6.39m-15.35,0h6.4m-15.36,0h6.4m-15.35,0h6.39m-9,0h-2m44-3h-6.4m-2.55,0h-6.4m-2.56,0h-6.4m-2.56,0H19.4m-2.56,0H10.45M42,.32h6.39M33,.32h6.4M24,.32h6.4M15.08.32h6.4M8.7.32h3.79M49.28,25.94H41.75m-16.07,0H18.14M43.86,40.79H36.33m-16.08,0H12.72m20.21-30h7.54M9.36,10.76H16.9"/><path class="cls-4" d="M53.16,25.94h0m-40.92,0h0m-2,0h0M48.72,40.85h0m4.08,0h0m-2,0h0m-24.44,0h0m4.08,0h0m-2,0h0m3.81-14.91h0m4.08,0h0m-2,0h0m12.1-15.07h0m4.08,0h0m-2,0h0m-25.83,0h0m4.07,0h0m-2,0h0"/></g><g class="cls-6"><path class="cls-3" d="M53.37,42.43H98.24M53.37,39.19H98.24M63,9.07H53.37M63,12.46H53.37m0,15H95.28M60.42,24.17H53.37m0,12.25h2.19m4.67-3h-6.4m2.53-3.14h-3m6.7-8.94h-6.4m-.3-2.93h2.19m3.07-3.18H53.37m2-8.8h-2m0-6.13h3.79M54,10.76h7.53"/></g></svg>