<svg id="Capa_1" data-name="Capa 1" xmlns="http://www.w3.org/2000/svg" xmlns:xlink="http://www.w3.org/1999/xlink" viewBox="0 0 53.77 27.45"><defs><style>.cls-1,.cls-3{fill:none;}.cls-2{clip-path:url(#clip-path);}.cls-3{stroke:#000;stroke-width:0.3px;}.cls-4{clip-path:url(#clip-path-2);}</style><clipPath id="clip-path"><rect id="SVGID" class="cls-1" y="-0.25" width="45.32" height="43.2"/></clipPath><clipPath id="clip-path-2"><rect id="SVGID-2" data-name="SVGID" class="cls-1" x="45.11" y="-0.25" width="8.89" height="43.2"/></clipPath></defs><title>673 Lutita y caliza interestratificada 1ra opción</title><g class="cls-2"><path class="cls-3" d="M41.91,27.32V23.75M27,27.32V23.75m-13.67,0v3.57M0,27.32V23.75m6.06-.07V20.51m15.19,3.17V20.51m14.2,3.17V20.51m9.87,3.19H-8.47m53.79-3.24H-8.47M27,27.32H41.91M0,27.32H-8.47m50.38,0h3.41M27,27.32H13.3M0,27.32H13.3M9.61-.2V-3.48m13.3,0V-.2M37.59-3.48V-.2m7.73,0H-8.47M44.9,41.52H38.51m-2.56,0H29.56m-2.56,0H20.61m-2.56,0H11.66m-2.56,0H2.71m-2.56,0H-6.24m49.86-3h1.7m-10.65,0h6.4m-15.35,0h6.39m-15.34,0h6.39m-15.34,0h6.39m-15.34,0H5.26m32.93-3h6.39m-15.34,0h6.39m-9,0H20.29m-2.56,0H11.34m-8.95,0H8.78m-8.95,0H-6.56M42,32.42h3.3m-5.85,0h-6.4m-2.55,0h-6.4m-2.55,0h-6.4m-2.55,0H6.22m-2.55,0h-6.4m48.05-2.81H44.9m-8.95,0h6.39M27,29.61h6.39m-15.34,0h6.39m-15.34,0h6.39m-8.95,0H.15m44.11-12.2H37.87m-2.56,0H28.92m-2.56,0H20m-2.56,0H11m-2.56,0H2.07m-2.56,0H-6.88m49.22-2.86h3m-11.93,0h6.4m-15.35,0h6.4m-15.35,0h6.4m-15.35,0h6.4m-15.35,0H4m32.61-3H43m-8.95,0H27.64m-2.56,0H18.69m-2.56,0H9.74m-2.56,0H.79M41.07,8.65h4.25m-13.21,0h6.4m-15.35,0h6.4m-15.35,0h6.4m-15.35,0h6.4m-8.95,0h-6.4m49-3.17H44.1m-2.56,0H35.15m-2.56,0H26.2m-2.56,0H17.25m-2.56,0H8.3m-2.56,0H-.65m41.23-3h4.74m-13.68,0H38m-15.35,0h6.4m-15.35,0h6.4m-15.35,0h6.4m-15.35,0h6.4"/></g><g class="cls-4"><path class="cls-3" d="M53.58,27.32V23.75m-6.4-3.24v3.17m51.72,0H45.11M98.9,20.46H45.11m8.47,6.86H45.11m8.47,0h13.3M50.39-3.48V-.2m48.51,0H45.11m8.62,41.71H47.34m5.11-3h6.4m-9,0H45.11m8.3-3H47m10.23-3.14H50.86m-5.75,0h3.16m11.86-2.81h-6.4m-8.62,0h6.07m1.91-12.2H46.7m4.48-2.86h6.39m-9,0H45.11m15.65-3H54.37m-2.56,0H45.42M56.29,8.65H49.9m-4.79,0h2.2m12-3.17h-6.4m-2.55,0H45.11m4.31-3h6.39m-10.7,0h1.72"/></g></svg>