<svg id="Capa_1" data-name="Capa 1" xmlns="http://www.w3.org/2000/svg" xmlns:xlink="http://www.w3.org/1999/xlink" viewBox="0 0 53.99 29.58"><defs><style>.cls-1,.cls-3{fill:none;}.cls-2{clip-path:url(#clip-path);}.cls-3{stroke:#000;stroke-width:0.3px;}.cls-4{clip-path:url(#clip-path-2);}.cls-5{clip-path:url(#clip-path-3);}.cls-6{clip-path:url(#clip-path-4);}</style><clipPath id="clip-path"><rect id="SVGID" class="cls-1" y="7.12" width="25.94" height="33.88"/></clipPath><clipPath id="clip-path-2"><rect id="SVGID-2" data-name="SVGID" class="cls-1" x="25.74" y="7.12" width="28.26" height="33.88"/></clipPath><clipPath id="clip-path-3"><rect id="SVGID-3" data-name="SVGID" class="cls-1" y="-2.19" width="25.94" height="9.47"/></clipPath><clipPath id="clip-path-4"><rect id="SVGID-4" data-name="SVGID" class="cls-1" x="25.74" y="-2.19" width="28.26" height="9.47"/></clipPath></defs><title>674 Lutita y caliza interestratificada 2da opción</title><g class="cls-2"><path class="cls-3" d="M22.54,38.37h3.4M21.74,26.5h4.2m0-3.18H24.81m1.13-8.8H21.58m1.76-6.13h2.6m-6.78,8.74h0m0,3.39V17.14m0,3.39v0m-14.06,0v0m0-3.39h0m-17,0h17v3.39m14.06-3.39H5.1m14.06,0h6.78m-6.78,3.39h6.78m-37.85,0h17m0,0H19.16M.36,32.21v0m0,0v3.28m14.82-3.28v0m0,0v3.28m-34.11,0H25.94M15.18,32.24H25.94m-10.76,0H-14.45m31.82,9.27h6.39m-15.35,0h6.4m-15.36,0h6.4m7.68-3.14h6.4m-15.36,0H11m-15.36,0H2m15.2-8.94H23.6m-9,0H8.25m-9,0h6.4m7-2.93h6.39m-15.35,0h6.4m-9,0h-6.4m21-3.18h6.39m-15.35,0h6.4m-15.36,0h6.4M19,14.52h-6.4m-9,0H10m-9,0h-6.4m24-3H25m-8.95,0H9.69m-9,0h6.4m7.2-3.15h6.4m-15.36,0h6.4m-15.36,0h6.4"/></g><g class="cls-4"><path class="cls-3" d="M49.77,20.56v0m0-3.39h0m0,0v3.39m-17,0v0m0-3.42h0m0,0v3.39m0-3.39h17m14.06,0H49.77m-17,0h-7m7,3.39h-7m7,0h17m0,0H63.83M30.21,32.21v3.31M45,32.21v0m0,0v3.28m-19.29,0H70.61M59.85,32.24H30.21m0,0H25.74m27.34,9.27h6.39m-15.35,0h6.4m-15.36,0h6.4m-9,0H26.2m23-3.14h6.4m-15.36,0h6.4m-15.36,0h6.4m-9,0h-3m33.57-8.94H52.92m-9,0h6.4M35,29.43h6.4m-9,0H26m22.4-2.93h6.4m-9,0h-6.4m-2.56,0h-6.4m-4.78,0h2.19m23.55-3.18h6.4m-15.36,0h6.4m-9,0h-6.4m-2.56,0H25.74m22.54-8.8h6.4m-9,0h-6.4m-2.56,0h-6.4m-4.62,0h2m33-3H54.36m-9,0h6.4m-9,0h-6.4m-2.56,0h-6.4M50,8.39h6.39m-15.35,0h6.4m-15.36,0h6.4m-9,0H25.74"/></g><g class="cls-5"><path class="cls-3" d="M21.74-.17h4.2M6.46,2.65V5.82m11.69,0V2.65M-18.93,5.84H25.94M-18.93,2.6H25.94M19.12-.17H12.73m-2.56,0H3.77m-2.56,0h-6.4"/></g><g class="cls-6"><path class="cls-3" d="M27.45,2.65V5.82M39.51,2.65V5.82M51.13,2.65V5.82m-25.39,0H70.61M25.74,2.6H70.61M54.84-.17h-6.4m-2.56,0h-6.4m-2.56,0h-6.4m-4.78,0h2.19"/></g></svg>