<svg xmlns="http://www.w3.org/2000/svg" xmlns:xlink="http://www.w3.org/1999/xlink" viewBox="0 0 54 43.2"><defs><style>.cls-1,.cls-3{fill:none;}.cls-2{clip-path:url(#clip-path);}.cls-3{stroke:#000;stroke-width:0.3px;}.cls-4{clip-path:url(#clip-path-2);}.cls-5{clip-path:url(#clip-path-3);}</style><clipPath id="clip-path"><polyline id="SVGID" class="cls-1" points="54 42.05 54 43.2 5.28 43.2 5.28 35.8 54 35.8 54 42.05"/></clipPath><clipPath id="clip-path-2"><rect id="SVGID-2" data-name="SVGID" class="cls-1" width="5.48" height="35.95"/></clipPath><clipPath id="clip-path-3"><rect id="SVGID-3" data-name="SVGID" class="cls-1" x="5.28" width="48.72" height="35.95"/></clipPath></defs><title>675 Pizarra calcarea y caliza interestratificada</title><g id="Capa_1" data-name="Capa 1"><polyline id="SVGID-4" data-name="SVGID" class="cls-1" points="0 38.4 0 35.8 5.48 35.8 5.48 43.2 0 43.2 0 42.08"/><g class="cls-2"><path class="cls-3" d="M43.29,40.44h0m-32.73,3.4v0m12.8,0v0m13.3,0v0m14.68,0v0"/></g><g class="cls-4"><path class="cls-3" d="M2.07,21.05V17.47m3.41,0H-48.3M5.48,14.19H-48.3m35.44,6.86H2.07m0,0H5.48M1.09,27.86,0,29.27m3.83-21h0m0,0L4.91,6.9M2.45,2.12,3.51.74M2.45,2.12l0,0M3.78,32.29h1.7m-10.65,0H1.22m-2.87-3H4.74M2.18,26.17h3.3m-12.25,0H-.38m5.86-2.8H5.06m-8.95,0H2.5M4.42,11.45H-2M2.5,8.31H3.83m0,0H5.48m-11.93,0H-.06m-3.19-3H3.14M1.22,2.12H2.45m0,0h3"/></g><g class="cls-5"><path class="cls-3" d="M40.72,21.05V17.47M27.05,21.05V17.47m-13.3,3.58V17.47m-6.4-3.23v3.17m12.46,0V14.24M35,17.41V14.24M49.2,17.41V14.24m9.87,3.18H5.28m53.79-3.23H5.28m21.77,6.86H40.72m0,0H55.66m-41.91,0h13.3m-13.3,0H5.28m49.39,6.81-1.08,1.41M14.88,30.86l-1.09,1.42M33,30.86l-1.09,1.42m17.8,0,1.09-1.42M35.35,29.27l1.09-1.41m-17.95,0-1.08,1.41m-5.23-3.19,1.09-1.41m17,1.41,1.09-1.41m16.85,1.41,1.09-1.41M6.62,23.37h0M7.71,22,6.62,23.37m17.46,0h0m0,0L25.17,22M42,23.37h0L43.05,22M8.18,11.43,9.27,10M26.1,11.43,27.19,10M44,11.43,45.07,10m-5.66-1.7h0m0,0L40.49,6.9M21.31,8.31h0m0,0L22.4,6.9M15.79,5.29l1.09-1.42M33.67,5.29l1.09-1.42M51.45,5.29l1.09-1.42M20.14,2.15l0,0m0,0L21.23.74M38.17,2.15l0,0m0,0L39.26.74m9.15,31.55h6.4m-15.35,0h6.4m-15.35,0h6.4m-15.35,0H28m-15.35,0H19m-13.73,0H10m41.91-3h6.39m-9,0H43m-2.56,0H34m-2.56,0H25.08m-2.56,0H16.13m-2.56,0H7.18m39.64-3.14h6.39m-9,0H37.87m-2.56,0h-6.4m-8.95,0h6.4M11,26.17h6.4m-9,0H5.28m44.41-2.8h6.4m-15.35,0H42m0,0h5.17m-15.34,0h6.39m-8.95,0H24.08m-1.24,0h1.24m-3.8,0H13.89m-8.61,0H6.62m4.71,0H6.62M58,11.45H51.61m-2.56,0H42.66m-2.56,0H33.71m-2.56,0H24.76m-2.56,0H15.81m-2.56,0H6.86M47.13,8.31h6.4m-14.12,0h5.17m-5.17,0H38.18m-8.95,0h6.4m-15.35,0h1m0,0h5.36m-15.35,0h6.4m-9,0H5.28m45.05-3h6.39m-15.34,0h6.39m-9,0H32.43m-8.95,0h6.39m-8.95,0H14.53M12,5.33H5.58M52.25,2.12H45.86m-7.67,0H43.3m-5.11,0H36.91m-2.56,0H28M19,2.12H25.4m-8.95,0H10.06m-4.78,0H7.46"/></g><line class="cls-3" x1="2.82" y1="41.92" x2="2.82" y2="38.35"/></g><g id="Capa_2" data-name="Capa 2"><line class="cls-3" x1="7.95" y1="38.47" x2="0.01" y2="38.47"/><line class="cls-3" x1="7.95" y1="35.24" x2="0.02" y2="35.24"/><line class="cls-3" x1="0.01" y1="42.1" x2="4.53" y2="42.1"/><line class="cls-3" x1="4.53" y1="42.1" x2="7.95" y2="42.1"/><line class="cls-3" x1="43.19" y1="42.1" x2="43.19" y2="38.52"/><line class="cls-3" x1="29.51" y1="42.1" x2="29.51" y2="38.52"/><line class="cls-3" x1="16.21" y1="42.1" x2="16.21" y2="38.52"/><line class="cls-3" x1="9.81" y1="35.29" x2="9.81" y2="38.46"/><line class="cls-3" x1="22.28" y1="38.46" x2="22.28" y2="35.29"/><line class="cls-3" x1="37.46" y1="38.46" x2="37.46" y2="35.29"/><line class="cls-3" x1="51.66" y1="38.46" x2="51.66" y2="35.29"/><line class="cls-3" x1="54.01" y1="38.47" x2="7.74" y2="38.47"/><line class="cls-3" x1="53.99" y1="35.24" x2="7.74" y2="35.24"/><line class="cls-3" x1="29.51" y1="42.1" x2="43.19" y2="42.1"/><line class="cls-3" x1="43.19" y1="42.1" x2="54.02" y2="42.1"/><line class="cls-3" x1="16.21" y1="42.1" x2="29.51" y2="42.1"/><line class="cls-3" x1="16.21" y1="42.1" x2="7.74" y2="42.1"/></g></svg>