<svg id="Capa_1" data-name="Capa 1" xmlns="http://www.w3.org/2000/svg" xmlns:xlink="http://www.w3.org/1999/xlink" viewBox="0 0 54 43.2"><defs><style>.cls-1,.cls-3,.cls-4{fill:none;}.cls-2{clip-path:url(#clip-path);}.cls-3,.cls-4{stroke:#000;}.cls-3{stroke-width:0.33px;}.cls-4{stroke-linecap:round;stroke-width:0.78px;}.cls-5{clip-path:url(#clip-path-2);}.cls-6{clip-path:url(#clip-path-3);}.cls-7{clip-path:url(#clip-path-4);}</style><clipPath id="clip-path"><rect id="SVGID" class="cls-1" y="4.58" width="16" height="42.01"/></clipPath><clipPath id="clip-path-2"><rect id="SVGID-2" data-name="SVGID" class="cls-1" x="15.77" y="4.58" width="43.89" height="42.01"/></clipPath><clipPath id="clip-path-3"><rect id="SVGID-3" data-name="SVGID" class="cls-1" y="-1.14" width="16" height="5.88"/></clipPath><clipPath id="clip-path-4"><rect id="SVGID-4" data-name="SVGID" class="cls-1" x="15.77" y="-1.14" width="43.89" height="5.88"/></clipPath></defs><title>676 Caliza limosa y pizarra interestatificada</title><polyline id="SVGID-5" data-name="SVGID" class="cls-1" points="0 38.4 0 35.8 5.48 35.8 5.48 43.2 0 43.2 0 42.08"/><g class="cls-2"><path class="cls-3" d="M15.94,15.64H12.82M3.73,40.84h-8M16,32.26H12.87m-9.56-8h-8m.5-17.81h8M9.91,50.8V46.86M7.43,43.22V38.63m2.51-8.75v0m0,0v4.47M7.6,22.41v0m0,3.62V22.45m2.48-9V18M7.6,4.58V8.73M-44,46.8H16m-60-3.57H16m-60-4.65H16m-60-4.21H16M9.94,29.88H-6.55m16.49,0H16m-60-3.8H16M-8.62,22.45H16M-44,18H16m0-4.64H-44M16,8.73H7.6m-15.94,0H7.6M11.71,28H16M1.83,28H8.89m3.24,17H16M9.31,45H2.24M-.58,45H-7.64m22.07-8.47H7.37m-2.82,0H-2.52M7,20.26h7.06m-9.89,0H-2.86m15.71-9.12H16m-6,0H3m-9.89,0H.14"/><path class="cls-4" d="M11.3,24.38h0m3.7,0h0M5.39,15.62h0m-3.51,0h0M11.3,41h0m3.51,0h0M5.2,32.13h0m-3.32,0h0M12.6,6.45h0m2.58,0h0"/></g><g class="cls-5"><path class="cls-3" d="M18.69,32.26H15.78M33.16,41h-8M49.66,32.1h-8M33.3,24.35h-8M63.52,40.84h-8M63.1,24.22h-8M20.69,15.64H15.77m34.11,0h-8M55.56,6.41h8m-38.11,0h8M53.21,50.8V46.86m-15.11,0V50.8m-14.69,0V46.86m28-8.23v4.59m-15.1-4.59v4.59M21.9,38.63v4.59M53.24,29.86v4.49M38.13,29.86v4.49m-15-4.49v4.49m-.82-11.94v0m0,0v3.62m14.14-3.66v3.66m14.69-3.62v3.62m0-3.62v0m2.14-8.92V18m-15-4.49V18M23.58,13.49V18M51.45,8.73V4.58m-15,0V8.73m-14.14,0V4.58M15.77,46.8h60m-60-3.57h60m-60-4.65h60m-60-4.21h60m-6.06-4.49H53.24m0,0H38.13m0,0h-15m0,0H15.77m0-3.8h60M51.17,22.45H67.39m-16.22,0H36.48m0,0H22.34m0,0H15.77m0-4.45h60m0-4.64h-60m6.57-4.63H36.48m-14.14,0H15.77m35.68,0h-15m15,0H67.39M51.73,28H58.8M41.85,28h7.06M32,28H39m-17,0h7.06M15.77,28h3.44m40,17H52.15m-2.83,0H42.26m-2.82,0H32.38m-2.83,0H22.49m-2.86,0H15.77m48.57-8.47H57.28m-2.83,0H47.39m-2.82,0H37.5m-2.82,0H27.62m-2.86,0H17.69M64,20.26H56.94m-2.83,0H47.05m-9.89,0h7.06m-16.94,0h7.06m-17,0h7.06m28.42-9.12h7.06m-9.89,0H43m-2.82,0H33.09m-2.82,0H23.21m-7.44,0h4.57"/><path class="cls-4" d="M17.94,24.38h0m22.29,0h0m6.84,0h0m-3.14,0h0m13.68-8.76h0M18.42,41h0M40.6,41h0m6.84,0h0m-3.33,0h0m14-8.86h0m-30.86,0h0m6.83,0h0m-3.32,0h0M27.48,15.62h0m6.84,0h0m-3.33,0h0M17.87,6.45h0m29.05,0h0m-6.5,0h0m3.45,0h0"/></g><g class="cls-6"><path class="cls-3" d="M7.14-4.77V.05M-44,.08H16M7.6,3.82v.93m0-.93h0m0,0H-8.34m15.94,0H16M7.14,2H14.2M-2.75,2H4.32"/></g><g class="cls-7"><path class="cls-3" d="M50.78-4.77V.05M35.26-4.77V.05M20.84-4.77V.05m-5.07,0h60M51.45,3.81h0m0,.93V3.82m-15,0h0m0,0v.93m-14.14,0V3.82m0,0h0m45.05,0H51.45m-35.68,0h6.57m14.14,0h15m-15,0H22.34M57.05,2h7.06m-17,0h7.06M37.27,2h7.06M34.45,2H27.39M17.46,2h7.06"/></g></svg>