<svg id="Capa_1" data-name="Capa 1" xmlns="http://www.w3.org/2000/svg" viewBox="0 0 53.99 37.94"><defs><style>.cls-1{fill:none;stroke:#000;stroke-width:0.3px;}</style></defs><title>677 Caliza y lutita interestratificada 1ra opción</title><path class="cls-1" d="M13.75,33.7v4.37m-46.3,0H21.77m-5.51-8.21V26.31M1.33,29.88V26.31M14,23V18.86m2.27-7.92h0m0,0V15M1.36,10.93h0m0,0V15m12.81-7.5V4.21m0,0v0m2.25-8.1V.17m-15-4.06V.17M14.17,41.48v0m0,0h7.6m-7.6,0H-.26M-32.55,26.26H21.77M-32.55,23H21.77m-54.32-4.21H21.77M-32.55,15H21.77m-5.48-4.06H-12.32m28.61,0h5.48M-32.55,7.5H21.77M-.51,4.21H21.77M-32.55,33.67H21.77M1.33,29.88H-12.34m13.67,0H16.26m0,0h5.51M-32.55.18H21.77M17.9,9.26h3.87M9,9.26h6.39M0,9.26H6.39m7.37,30.58h6.39m-15.34,0H11.2m-15.34,0H2.25m14.06-8h5.46m-8,0H7.36m-2.56,0H-1.59m19.86-7.16h3.5m-6,0H9.32m-2.55,0H.37m20-7.67H14m-2.56,0H5M2.46,17-.12,17M13.66,2.23h6.39m-9,0H4.71m-2.56,0H-4.24"/><path class="cls-1" d="M53.26,33.7v4.37m-14-4.37v4.37m-13-4.37v4.37m-4.59,0H75.9M41.78,26.31v3.57m-13.3,0V26.31m25.36-7.45V23M40.17,18.86V23m-13-4.15V23M41.81,10.93V15M28.26,10.93h0m0,0V15M27.52,4.18V7.49m12.8-3.31V7.49m13.3-3.28V7.49m0-3.28v0M41.94-3.89V.17M28.64-3.89V.17M53.87,41.46v0m-13.55,0v0m-12.8,0v0m12.8,0H53.87m14.43,0H53.87m-13.55,0H27.52m-5.95,0h5.95M21.57,26.26H75.9M21.57,23H75.9M21.57,18.81H75.9M21.57,15H75.9M55.49,10.94H41.81m0,0H21.57m0-3.44H75.9M53.62,4.21H27.52m0,0H21.57m32.05,0H68.3M21.57,33.67H75.9M28.48,29.88h13.3m13.68,0H41.78m-13.3,0H21.57m0-29.7H75.9M54.12,9.26h6.4m-15.35,0h6.4m-15.35,0h6.4m-15.35,0h6.4m-12.1,0h3.11M50,39.84h6.4M41,39.84h6.4m-9,0h-6.4m-9,0h6.39m29.44-8h-6.4m-2.55,0h-6.4m-2.55,0h-6.4m-2.55,0h-6.4m-4.11,0h1.52m37.8-7.16H54.5m-2.56,0H45.55m-2.56,0H36.6m-2.56,0H27.65m-2.59,0H21.57m35-7.67H50.19m-2.56,0H41.24m-2.56,0H32.29M29.7,17H23.31m33-14.76h-6.4m-9,0h6.4M32,2.23h6.4M23,2.23h6.4"/></svg>