<svg id="Capa_1" data-name="Capa 1" xmlns="http://www.w3.org/2000/svg" xmlns:xlink="http://www.w3.org/1999/xlink" viewBox="0 0 54 43.2"><defs><style>.cls-1,.cls-3,.cls-7{fill:none;}.cls-2{clip-path:url(#clip-path);}.cls-3,.cls-7{stroke:#000;}.cls-3{stroke-width:0.3px;}.cls-4{clip-path:url(#clip-path-2);}.cls-5{clip-path:url(#clip-path-3);}.cls-6{clip-path:url(#clip-path-4);}.cls-7{stroke-width:0.28px;}</style><clipPath id="clip-path"><rect id="SVGID" class="cls-1" y="40.95" width="11.22" height="2.25"/></clipPath><clipPath id="clip-path-2"><rect id="SVGID-2" data-name="SVGID" class="cls-1" x="11.02" y="40.95" width="42.99" height="2.25"/></clipPath><clipPath id="clip-path-3"><rect id="SVGID-3" data-name="SVGID" class="cls-1" width="11.22" height="41.11"/></clipPath><clipPath id="clip-path-4"><rect id="SVGID-4" data-name="SVGID" class="cls-1" x="11.02" width="42.99" height="41.11"/></clipPath></defs><title>677 Caliza y pizarra interestratificada 2da opción</title><polyline id="SVGID-5" data-name="SVGID" class="cls-1" points="0 38.4 0 35.8 5.48 35.8 5.48 43.2 0 43.2 0 42.08"/><g class="cls-2"><line class="cls-3" x1="4.37" y1="40.95" x2="4.37" y2="44.34"/></g><g class="cls-4"><path class="cls-3" d="M53.08,41v3.39m-13,0V41m-12.2,0v3.39M16.37,41v3.39"/></g><g class="cls-5"><path class="cls-3" d="M9.06,40.4v0m0-3.05v3.05m0-3.05v0m0,0h2.16m-2.16,0H-3M4.24,23.73V20m6.2-.06V16.56M6.28,12.85h0m0,0V16.5M4.37,40.35v.75m0-.75h0m4.69,0h2.16m-6.85,0H-3m7.4,0H9.06m2.16-16.61H-37.7m48.92-3.8H-37.7m48.92-3.43H-37.7m44-3.65H-7.16m13.44,0h4.94M5.7,34.09h5.52m-7.82,0H-2.36M8.43,30.21h2.79m-5.09,0H.37M5.3,26.65h5.9m-14,0H3m2.7-17h5.52m-7.82,0H-2.36M11.22,6.43H8.43m-2.3,0H.37M5.3,2.61h5.9m-14,0H3"/></g><g class="cls-6"><path class="cls-3" d="M45.68,40.35V37.3m0,0v0m0,3.05v0m-12.31,0v0m0-3.07v3.07m-13,0v0m0-3.05v3.05m0-3.05v0m0,0H11m9.3,0h13m0,0H45.68m12.09,0H45.68M53,23.73V20M40.07,23.73V20M27.76,23.73V20M16,20v3.74m5.59-7.17v3.37m13.56,0V16.56m12,3.37V16.56m-5.65-3.71h0m0,3.64V12.86m-12.31,0h0m0,0V16.5M17,12.86V16.5m0-3.64h0m36,27.5v.75m0-.75h0m-13,.76v-.75m0,0h0m-12.2.76v-.75m0,0h0m-11.52,0v.75m0-.75h0m11.52,0h5.48m-17,0h3.95m0,0h7.57m5.48,0h6.72m13,0h-7.4m7.4,0h4.69m-41.4,0H11m29.07,0h5.59M59.93,23.74H11m48.91-3.8H11m48.91-3.43H11m18.22-3.65H41.55m-12.31,0H17m0,0H11m44,0H41.55M54.41,34.09h5.52m-7.82,0H46.35m-2.3,0H38.29m-8.06,0H36m-8.06,0H22.18m-2.31,0H14.12m-2.33,0H11m43.82-3.88H49.08m-8,0h5.75M33,30.21h5.75m-8,0H24.91m-2.3,0H16.85m-2.3,0H11m43-3.56h5.91m-14,0h5.75m-13.81,0h5.75m-13.81,0h5.75m-13.81,0h5.76m-13.82,0h5.76m-8.09,0H11m43.39-17h5.52m-7.82,0H46.35m-2.3,0H38.29m-2.3,0H30.23m-2.3,0H22.18m-2.31,0H14.12m-3.1,0h.77M54.84,6.43H49.08m-2.3,0H41M33,6.43h5.75m-13.81,0h5.76m-8.06,0H16.85m-2.3,0H11M54,2.61h5.91m-14,0h5.75m-13.81,0h5.75m-13.81,0h5.75m-13.81,0h5.76m-13.82,0h5.76m-8.09,0H11"/></g><line class="cls-7" x1="53.97" y1="43.1" x2="0.03" y2="43.1"/></svg>