<svg id="Capa_1" data-name="Capa 1" xmlns="http://www.w3.org/2000/svg" xmlns:xlink="http://www.w3.org/1999/xlink" viewBox="0 0 54 43.2"><defs><style>.cls-1,.cls-3,.cls-7{fill:none;}.cls-2{clip-path:url(#clip-path);}.cls-3,.cls-7{stroke:#000;}.cls-3{stroke-width:0.3px;}.cls-4{clip-path:url(#clip-path-2);}.cls-5{clip-path:url(#clip-path-3);}.cls-6{clip-path:url(#clip-path-4);}.cls-7{stroke-width:0.24px;}</style><clipPath id="clip-path"><rect id="SVGID" class="cls-1" y="40.59" width="32.8" height="2.61"/></clipPath><clipPath id="clip-path-2"><rect id="SVGID-2" data-name="SVGID" class="cls-1" x="32.6" y="40.59" width="21.4" height="2.61"/></clipPath><clipPath id="clip-path-3"><rect id="SVGID-3" data-name="SVGID" class="cls-1" width="32.8" height="40.75"/></clipPath><clipPath id="clip-path-4"><rect id="SVGID-4" data-name="SVGID" class="cls-1" x="32.6" width="21.4" height="40.75"/></clipPath></defs><title>679 Caliza y pizarra interestratificada 3ra opción</title><polyline id="SVGID-5" data-name="SVGID" class="cls-1" points="0 38.4 0 35.8 5.48 35.8 5.48 43.2 0 43.2 0 42.08"/><g class="cls-2"><path class="cls-3" d="M26,44V40.59M13,44V40.59M.76,44V40.59"/></g><g class="cls-4"><path class="cls-3" d="M49.47,44V40.59M38,44V40.59"/></g><g class="cls-5"><path class="cls-3" d="M30.64,37v0m0,0v3m0,0v.06M18.55,37v0m0,3V37m0,3v.06M6.24,37v0m0,3.11v-.06m-13-3H6.24v3m0-3H18.55m12.09,0H18.55m12.09,0H32.8m-7-13.57V19.69M12.94,23.43V19.69M.63,23.43V19.69m23.25-17V-.67m-24,3.38V-.67m12,3.38V-.67M32.8,2.72H-16.12M32,19.63V16.26M8,19.63V16.26m12,3.37V16.26M30.43,26.54V23.46M17,26.54V23.46M4.67,26.54V23.46m28.13,3.1H-16.12m44-14V16.2m-13.44,0V12.56m0,0h0m-12.31,0V16.2M26,40h0m0,0v.7m-13,0v-.7m0,0h0M.76,40v.71m0-.7H6.24m0,0H13m17.68,0H32.8m-2.16,0H26m0,0h-7.4m-5.59,0h5.59m-25.36,0H.76m32-16.61H-16.12M32.8,19.65H-16.12M32.8,16.21H-16.12M2.11,12.56h-12.2m38,0H14.42m13.44,0H32.8m-30.69,0H14.42M27.28,33.79H32.8m-7.82,0H19.22m-2.3,0H11.16m-8.06,0H8.86m-8.06,0H-4.95m35-3.88H32.8M22,29.91h5.76m-13.81,0h5.75m-13.81,0h5.75m-13.81,0H3.54M27.28,9.35H32.8M25,9.35H19.22m-2.3,0H11.16m-2.3,0H3.1m-2.3,0H-4.95M32.8,6.13H30M22,6.13h5.76m-13.81,0h5.75m-13.81,0h5.75m-13.81,0H3.54"/></g><g class="cls-6"><path class="cls-3" d="M41.9,37v0m0,0v3m0,0v.06m0-3.11H55M41.9,37H32.6M49.34,23.43V19.69m-11.75,0v3.74M35,2.71V-.67M48.6,2.71V-.67M81.51,2.72H32.6M43.18,16.26v3.37m10.2,6.91V23.46m-12.2,0v3.08m40.33,0H32.6m18.22-14V16.2m-12.2-3.64V16.2m0-3.64h0M49.47,40v.71M38,40h0m-5.35,0H38v.7m11.52-.7H55m-13.05,0H38m3.95,0h7.57m32-16.61H32.6m48.91-3.79H32.6m48.91-3.44H32.6m18.22-3.65H32.6m18.22,0H63.13M51.82,33.79h5.75m-8.06,0H43.76m-2.31,0H35.7m-3.1,0h.77m21.18-3.88h5.76m-13.82,0h5.76m-13.82,0h5.76m-11.59,0h3.53M57.57,9.35H51.82m-2.31,0H43.76m-2.31,0H35.7m-3.1,0h.77M54.55,6.13h5.76m-13.82,0h5.76m-13.82,0h5.76m-8.06,0H32.6"/></g><line class="cls-7" x1="0.04" y1="43.08" x2="54.05" y2="43.08"/></svg>