<svg id="Capa_1" data-name="Capa 1" xmlns="http://www.w3.org/2000/svg" xmlns:xlink="http://www.w3.org/1999/xlink" viewBox="0 0 54 43.2"><defs><style>.cls-1,.cls-3,.cls-7{fill:none;}.cls-2{clip-path:url(#clip-path);}.cls-3,.cls-7{stroke:#000;}.cls-3{stroke-width:0.3px;}.cls-4{clip-path:url(#clip-path-2);}.cls-5{clip-path:url(#clip-path-3);}.cls-6{clip-path:url(#clip-path-4);}.cls-7{stroke-width:0.23px;}</style><clipPath id="clip-path"><rect class="cls-1" y="36.7" width="40.44" height="5.5"/></clipPath><clipPath id="clip-path-2"><rect class="cls-1" x="40.24" y="36.7" width="13.76" height="5.5"/></clipPath><clipPath id="clip-path-3"><rect class="cls-1" y="-1" width="40.44" height="37.85"/></clipPath><clipPath id="clip-path-4"><rect class="cls-1" x="40.24" y="-1" width="13.76" height="37.85"/></clipPath></defs><title>680 Caliza y pizarra calcarea interestratificada</title><polyline id="SVGID" class="cls-1" points="0 38.4 0 35.8 5.48 35.8 5.48 43.2 0 43.2 0 42.08"/><g class="cls-2"><path class="cls-3" d="M40.26,43.84V40.09M28.67,40v.06m0,0v3.75M16.36,40.09V40m0,.06v3.75M2.92,40.09V40m0,.06v3.75M33.6,40.09V36.7m-13,0v3.39M8.41,36.7v3.39m-5.49,0h-6m36.72,0H28.67m11.59,0h.18m-11.77,0H20.61m13,0h6.66m-23.9,0h4.25m-4.25,0H8.41m-5.49,0H8.41"/></g><g class="cls-4"><path class="cls-3" d="M51.63,40.09V40m0,.06v3.75m-6-7.14v3.39m-5.36,0H45.6m6,0h-6m6,0h5.49"/></g><g class="cls-5"><path class="cls-3" d="M39.67,27.13V25.5m-16,0v1.63m-16-1.63v1.63m21.45,3.23h0m0,0V28.73M12.94,30.36V28.73m0,1.63h0m16.25-7v0m0,0v-1.6m-17,0v1.6m0,0v0m23.54,7h4.66m-7,0H29.09m0,0H27.72m-2.3,0H19.66m-2.3,0H12.94m0,0H11.6m-2.3,0H3.55m-6.89,0H1.24m37.27-3.22h1.93m-10,0h5.76m-13.81,0h5.75m-13.81,0h5.75m-13.81,0H12m-13.82,0H4M35.9,23.32h4.54m-11.25,0h4.52m-4.52,0H28m-8.68,0H25m-8.06,0H12.24m0,0h-1m-2.31,0H3.15m-2.3,0H-3.76M38.81,2.17V.54m-16,0V2.17M6.79.54V2.17M28.24,5.4V3.77m0,1.63h0M12.09,3.77V5.4M38.28,33.05v3.11m0-3.11v0M26.2,33v0m0,0V36.1m0,.06V36.1m-12.32,0v.06m0-3.11v0m0,0V36.1M.83,33v0m0,0V36.1m0,.06V36.1m13.05-3.05H26.2m12.08,0h2.16m-48.91,0H.83m13.05,0H.83m37.45,0H26.2m7.26-13.57V15.74m-12.88,0v3.74M8.27,15.74v3.74m31.4-7.17v3.37M2.11,12.31v3.37m13.56-3.37v3.37m12-3.37v3.37m7.8-7.07h0m0,0v3.64M22.07,8.6v3.65m-12.32,0V8.61m0,0h0M33.6,36.09h0m0,.76V36.1m-13,0h0m0,.76V36.1m-12.2.76V36.1m0,0h0m5.47,0H8.41m5.47,0h6.73m0,0H26.2m7.4,0H26.2m-17.79,0H.83m37.45,0h2.16m-43.56,0h4m37.45,0H33.6M-8.47,19.49H40.44m-48.91-3.8H40.44M-8.47,12.26H40.44M35.51,8.61h4.93m-4.93,0H9.75m-12.2,0H9.75M34.93,5.4h5.51m-12.2,0h4.38m-4.38,0H26.87m-8.06,0h5.75m-8,0H12.09m0,0H10.75m-2.3,0H2.69m-6.89,0H.39M37.66,2.18h2.78m-5.08,0H29.6m-8.06,0H27.3m-8.06,0H13.48m-8,0h5.75m-13.81,0H3.12"/></g><g class="cls-6"><path class="cls-3" d="M45.37,30.36h0m0,0V28.73m-.42-7v1.6m0,0v0m13.06,7H52.26m-6.89,0H50m-4.59,0H44.2m-4,0h1.63m5.06-3.22h5.76m-8.06,0H40.24m17.38-3.82H51.86m-2.3,0H45m-1.15,0H45m-3.48,0H40.24M44.51,5.4V3.77m0,1.63h0m5,27.63v0m0,0V36.1m0,.06V36.1m-9.31-3.05h9.31m13,0h-13M45.24,15.74v3.74m5.59-7.17v3.37M46.26,8.6h0m0,0v3.64M45.6,36.86V36.1m0,0h0m11.52,0H49.55m-9.31,0h9.31M40.24,19.49H89.16m-48.92-3.8H89.16M40.24,12.26H89.16M46.26,8.61h-6m6,0h12.2M57.16,5.4H51.4m-6.89,0H43.35m1.16,0H49.1m-8.86,0H41M54.14,2.18h5.75m-13.81,0h5.75m-8,0H40.24"/></g><line class="cls-7" x1="54" y1="42.32" x2="-0.01" y2="42.32"/></svg>