<svg id="Capa_1" data-name="Capa 1" xmlns="http://www.w3.org/2000/svg" xmlns:xlink="http://www.w3.org/1999/xlink" viewBox="0 0 56.22 43.52"><defs><style>.cls-1,.cls-2,.cls-3,.cls-6,.cls-7{fill:none;}.cls-2,.cls-3{stroke:#000;}.cls-2{stroke-width:0.43px;}.cls-3{stroke-width:0;}.cls-4{clip-path:url(#clip-path);}.cls-5{clip-path:url(#clip-path-3);}.cls-6,.cls-7{stroke:#1d1d1b;}.cls-6{stroke-linecap:round;stroke-width:0.7px;}.cls-7{stroke-width:0.3px;}</style><clipPath id="clip-path"><rect id="SVGID" class="cls-1" x="0.99" y="0.41" width="52.54" height="16.05"/></clipPath><clipPath id="clip-path-3"><rect id="SVGID-3" data-name="SVGID" class="cls-1" x="53.33" y="0.41" width="1.67" height="16.05"/></clipPath></defs><title>681 Till o diamicto 1ra opción</title><path class="cls-2" d="M12.78,19.56l1.92-2.88M34.48,20c.16.8,2.72,2.07,3.67,2.07M8.56,27.43c-1-.16-2.87-.48-3.35-1.11M23.3,27.9c-.87,0-.59.11-4.63-1.12m2.11-5.17c-.8-.15,2.72-1.27,3.36-2.07M52.9,18a1,1,0,1,0-1,1A1,1,0,0,0,52.9,18Zm-11,1.18a1,1,0,1,0-1,1A1,1,0,0,0,41.94,19.13ZM27.83,24.68a1,1,0,1,0-1,1A1,1,0,0,0,27.83,24.68ZM13.6,26.84a1,1,0,1,0-1,1A1,1,0,0,0,13.6,26.84ZM45.3,28a1,1,0,1,0,1,1A1,1,0,0,0,45.3,28ZM1.45,22.14l1.92-2.88M21,34.83c-.16-.28,4.51-1.28,4.51-1.84M5.11,40.77S8,39.25,8.16,38.3m35.32,4.78c.94-.68,2.67-.87,3.31-1.67M34.17,37s3.48-1.37,3.67-2.36m14.95-1.72a1,1,0,1,0-1,1A1,1,0,0,0,52.79,32.92Zm-20.52,6a1,1,0,1,0,1,1A1,1,0,0,0,32.27,38.92ZM14.34,40.27a1,1,0,1,0-1,1A1,1,0,0,0,14.34,40.27ZM9.16,32.9a1,1,0,1,0,1-1A1,1,0,0,0,9.16,32.9Zm23.36-2.38c-1,0-3.51-1.28-3.67-2.08M-.09,33.05l4.79.32M44.22,20.74c.64-.32-1.44,1.92-1.28,3.19"/><path d="M35.34,28a.44.44,0,0,0-.44-.44.44.44,0,1,0,0,.88A.44.44,0,0,0,35.34,28Z"/><path class="cls-3" d="M35.34,28a.44.44,0,0,0-.44-.44.44.44,0,1,0,0,.88A.44.44,0,0,0,35.34,28Z"/><path d="M25.69,21.36a.45.45,0,1,0-.44.44A.44.44,0,0,0,25.69,21.36Z"/><path class="cls-3" d="M25.69,21.36a.45.45,0,1,0-.44.44A.44.44,0,0,0,25.69,21.36Z"/><circle cx="9.83" cy="19.2" r="0.44"/><circle class="cls-3" cx="9.83" cy="19.2" r="0.44"/><path d="M13.85,22.64a.43.43,0,0,0-.44-.44.44.44,0,0,0-.44.44.44.44,0,0,0,.44.44A.44.44,0,0,0,13.85,22.64Z"/><path class="cls-3" d="M13.85,22.64a.43.43,0,0,0-.44-.44.44.44,0,0,0-.44.44.44.44,0,0,0,.44.44A.44.44,0,0,0,13.85,22.64Z"/><path d="M17.28,28.6a.45.45,0,1,0-.45.44A.45.45,0,0,0,17.28,28.6Z"/><path class="cls-3" d="M17.28,28.6a.45.45,0,1,0-.45.44A.45.45,0,0,0,17.28,28.6Z"/><path d="M39.85,29A.45.45,0,0,0,39,29a.45.45,0,0,0,.89,0Z"/><path class="cls-3" d="M39.85,29A.45.45,0,0,0,39,29a.45.45,0,0,0,.89,0Z"/><path d="M41,23.53a.44.44,0,0,0-.44-.44.44.44,0,0,0-.44.44.44.44,0,0,0,.44.44A.43.43,0,0,0,41,23.53Z"/><path class="cls-3" d="M41,23.53a.44.44,0,0,0-.44-.44.44.44,0,0,0-.44.44.44.44,0,0,0,.44.44A.43.43,0,0,0,41,23.53Z"/><path d="M33.12,26a.45.45,0,0,0-.89,0,.45.45,0,0,0,.89,0Z"/><path class="cls-3" d="M33.12,26a.45.45,0,0,0-.89,0,.45.45,0,0,0,.89,0Z"/><path d="M48.67,23.07a.44.44,0,0,0-.44-.44.44.44,0,0,0,0,.88A.44.44,0,0,0,48.67,23.07Z"/><path class="cls-3" d="M48.67,23.07a.44.44,0,0,0-.44-.44.44.44,0,0,0,0,.88A.44.44,0,0,0,48.67,23.07Z"/><path d="M53.27,26.07a.44.44,0,0,0-.44-.44.43.43,0,0,0-.44.44.44.44,0,0,0,.44.44A.44.44,0,0,0,53.27,26.07Z"/><path class="cls-3" d="M53.27,26.07a.44.44,0,0,0-.44-.44.43.43,0,0,0-.44.44.44.44,0,0,0,.44.44A.44.44,0,0,0,53.27,26.07Z"/><path d="M51.17,22.49a.44.44,0,0,0-.88,0,.44.44,0,1,0,.88,0Z"/><path class="cls-3" d="M51.17,22.49a.44.44,0,0,0-.88,0,.44.44,0,1,0,.88,0Z"/><path d="M18.68,19.38a.44.44,0,0,0-.44-.44.45.45,0,1,0,.44.44Z"/><path class="cls-3" d="M18.68,19.38a.44.44,0,0,0-.44-.44.45.45,0,1,0,.44.44Z"/><path d="M37,39.92a.45.45,0,1,0-.44.44A.44.44,0,0,0,37,39.92Z"/><path class="cls-3" d="M37,39.92a.45.45,0,1,0-.44.44A.44.44,0,0,0,37,39.92Z"/><path d="M28.77,42.55a.45.45,0,0,0-.44-.45.45.45,0,1,0,.44.45Z"/><path class="cls-3" d="M28.77,42.55a.45.45,0,0,0-.44-.45.45.45,0,1,0,.44.45Z"/><path d="M23.11,36.18a.43.43,0,0,0-.44-.44.44.44,0,0,0-.44.44.44.44,0,0,0,.44.44A.44.44,0,0,0,23.11,36.18Z"/><path class="cls-3" d="M23.11,36.18a.43.43,0,0,0-.44-.44.44.44,0,0,0-.44.44.44.44,0,0,0,.44.44A.44.44,0,0,0,23.11,36.18Z"/><path d="M15.79,33.33a.44.44,0,0,0-.44-.44.44.44,0,0,0,0,.88A.44.44,0,0,0,15.79,33.33Z"/><path class="cls-3" d="M15.79,33.33a.44.44,0,0,0-.44-.44.44.44,0,0,0,0,.88A.44.44,0,0,0,15.79,33.33Z"/><path d="M16.19,42.4a.44.44,0,0,0-.44-.44.44.44,0,0,0-.44.44.43.43,0,0,0,.44.44A.44.44,0,0,0,16.19,42.4Z"/><path class="cls-3" d="M16.19,42.4a.44.44,0,0,0-.44-.44.44.44,0,0,0-.44.44.43.43,0,0,0,.44.44A.44.44,0,0,0,16.19,42.4Z"/><path d="M9.92,42.61a.45.45,0,1,0-.44.44A.44.44,0,0,0,9.92,42.61Z"/><path class="cls-3" d="M9.92,42.61a.45.45,0,1,0-.44.44A.44.44,0,0,0,9.92,42.61Z"/><path d="M28,37.3a.44.44,0,0,0,.44.44.44.44,0,0,0,.44-.44.43.43,0,0,0-.44-.44A.44.44,0,0,0,28,37.3Z"/><path class="cls-3" d="M28,37.3a.44.44,0,0,0,.44.44.44.44,0,0,0,.44-.44.43.43,0,0,0-.44-.44A.44.44,0,0,0,28,37.3Z"/><path d="M35.65,32a.44.44,0,1,0,.44-.44A.44.44,0,0,0,35.65,32Z"/><path class="cls-3" d="M35.65,32a.44.44,0,1,0,.44-.44A.44.44,0,0,0,35.65,32Z"/><path d="M41.38,41.87a.43.43,0,0,0-.44-.44.44.44,0,0,0-.44.44.44.44,0,0,0,.44.44A.44.44,0,0,0,41.38,41.87Z"/><path class="cls-3" d="M41.38,41.87a.43.43,0,0,0-.44-.44.44.44,0,0,0-.44.44.44.44,0,0,0,.44.44A.44.44,0,0,0,41.38,41.87Z"/><path d="M44.48,37a.45.45,0,1,0,.45-.44A.45.45,0,0,0,44.48,37Z"/><path class="cls-3" d="M44.48,37a.45.45,0,1,0,.45-.44A.45.45,0,0,0,44.48,37Z"/><path d="M49.48,35.76a.45.45,0,1,0-.44.44A.44.44,0,0,0,49.48,35.76Z"/><path class="cls-3" d="M49.48,35.76a.45.45,0,1,0-.44.44A.44.44,0,0,0,49.48,35.76Z"/><path d="M50.82,41.13a.44.44,0,0,0,.44.44.45.45,0,0,0,0-.89A.45.45,0,0,0,50.82,41.13Z"/><path class="cls-3" d="M50.82,41.13a.44.44,0,0,0,.44.44.45.45,0,0,0,0-.89A.45.45,0,0,0,50.82,41.13Z"/><path d="M17.67,37a.45.45,0,1,0-.45.44A.45.45,0,0,0,17.67,37Z"/><path class="cls-3" d="M17.67,37a.45.45,0,1,0-.45.44A.45.45,0,0,0,17.67,37Z"/><path d="M7.19,36.78a.44.44,0,0,0-.88,0,.44.44,0,0,0,.88,0Z"/><path class="cls-3" d="M7.19,36.78a.44.44,0,0,0-.88,0,.44.44,0,0,0,.88,0Z"/><path d="M2.85,39.34a.45.45,0,0,0-.89,0,.45.45,0,0,0,.89,0Z"/><path class="cls-3" d="M2.85,39.34a.45.45,0,0,0-.89,0,.45.45,0,0,0,.89,0Z"/><path d="M3.32,30.16a.45.45,0,0,0-.89,0,.45.45,0,0,0,.89,0Z"/><path class="cls-3" d="M3.32,30.16a.45.45,0,0,0-.89,0,.45.45,0,0,0,.89,0Z"/><path d="M1.41,17.51A.44.44,0,1,0,1,18,.44.44,0,0,0,1.41,17.51Z"/><path class="cls-3" d="M1.41,17.51A.44.44,0,1,0,1,18,.44.44,0,0,0,1.41,17.51Z"/><path class="cls-2" d="M55.58,22.14l.4-.73"/><path d="M55.54,17.51a.45.45,0,1,0-.44.44A.44.44,0,0,0,55.54,17.51Z"/><path class="cls-3" d="M55.54,17.51a.45.45,0,1,0-.44.44A.44.44,0,0,0,55.54,17.51Z"/><g class="cls-4"><path class="cls-2" d="M16.83,2.41a12.33,12.33,0,0,0-2.76,1.91M4.46,15.47C3.5,15.47,1,14.2.79,13.4M20.67,9.71c-3.09,0-3-.62-4.63-1.12M8.43,9.68c-.8-.16,2.71-1.28,3.35-2.08m33.73-.24c-.8-.16,2.71-1.27,3.35-2.07M40.07.22,39-3.13M30.87,2s2.94-2.55,2.62-3.51M39.16,3a1,1,0,1,0,1-1A1,1,0,0,0,39.16,3ZM35.47,8.59a1,1,0,1,0-1,1A1,1,0,0,0,35.47,8.59ZM21.7,3.74a1,1,0,1,0-1,1A1,1,0,0,0,21.7,3.74Zm7-2a1,1,0,1,0-1,1A1,1,0,0,0,28.7,1.74ZM13.18,13.66a1,1,0,1,0,1-1A1,1,0,0,0,13.18,13.66Zm-6.95-11a1,1,0,1,0,1-1A1,1,0,0,0,6.23,2.68ZM39.86,14.35a1,1,0,1,0,1-1A1,1,0,0,0,39.86,14.35Z"/></g><path d="M33.53,12.7a.44.44,0,0,0,0,.88.44.44,0,0,0,0-.88Z"/><path class="cls-3" d="M33.53,12.7a.44.44,0,0,0,0,.88.44.44,0,0,0,0-.88Z"/><path d="M28.47,9.4a.45.45,0,0,0,.44.45.45.45,0,1,0-.44-.45Z"/><path class="cls-3" d="M28.47,9.4a.45.45,0,0,0,.44.45.45.45,0,1,0-.44-.45Z"/><path d="M24.19.86a.45.45,0,0,0,.89,0,.45.45,0,0,0-.89,0Z"/><path class="cls-3" d="M24.19.86a.45.45,0,0,0,.89,0,.45.45,0,0,0-.89,0Z"/><path d="M18.74,13a.44.44,0,0,0-.44.44.44.44,0,0,0,.88,0A.44.44,0,0,0,18.74,13Z"/><path class="cls-3" d="M18.74,13a.44.44,0,0,0-.44.44.44.44,0,0,0,.88,0A.44.44,0,0,0,18.74,13Z"/><path d="M10.26,5.76a.45.45,0,0,0,.89,0,.45.45,0,0,0-.89,0Z"/><path class="cls-3" d="M10.26,5.76a.45.45,0,0,0,.89,0,.45.45,0,0,0-.89,0Z"/><path d="M13.55,6.73A.44.44,0,1,0,14,6.29.44.44,0,0,0,13.55,6.73Z"/><path class="cls-3" d="M13.55,6.73A.44.44,0,1,0,14,6.29.44.44,0,0,0,13.55,6.73Z"/><path d="M1.35,8.75a.45.45,0,0,0,.89,0,.45.45,0,0,0-.89,0Z"/><path class="cls-3" d="M1.35,8.75a.45.45,0,0,0,.89,0,.45.45,0,0,0-.89,0Z"/><path d="M6.8,7.72a.45.45,0,1,0,.44.44A.44.44,0,0,0,6.8,7.72Z"/><path class="cls-3" d="M6.8,7.72a.45.45,0,1,0,.44.44A.44.44,0,0,0,6.8,7.72Z"/><path d="M23,15.22a.44.44,0,0,0-.44.44.43.43,0,0,0,.44.44.44.44,0,0,0,.44-.44A.44.44,0,0,0,23,15.22Z"/><path class="cls-3" d="M23,15.22a.44.44,0,0,0-.44.44.43.43,0,0,0,.44.44.44.44,0,0,0,.44-.44A.44.44,0,0,0,23,15.22Z"/><path d="M40,9.88a.44.44,0,1,0,.44-.44A.44.44,0,0,0,40,9.88Z"/><path class="cls-3" d="M40,9.88a.44.44,0,1,0,.44-.44A.44.44,0,0,0,40,9.88Z"/><path d="M37.66,7a.45.45,0,1,0,.44-.44A.44.44,0,0,0,37.66,7Z"/><path class="cls-3" d="M37.66,7a.45.45,0,1,0,.44-.44A.44.44,0,0,0,37.66,7Z"/><path d="M33.93,2a.44.44,0,1,0,.44-.44A.45.45,0,0,0,33.93,2Z"/><path class="cls-3" d="M33.93,2a.44.44,0,1,0,.44-.44A.45.45,0,0,0,33.93,2Z"/><path d="M47.48,8.57a.45.45,0,0,0,.89,0,.45.45,0,0,0-.89,0Z"/><path class="cls-3" d="M47.48,8.57a.45.45,0,0,0,.89,0,.45.45,0,0,0-.89,0Z"/><path d="M49.74,10a.44.44,0,0,0,.44.44.45.45,0,1,0-.44-.44Z"/><path class="cls-3" d="M49.74,10a.44.44,0,0,0,.44.44.45.45,0,1,0-.44-.44Z"/><path d="M43.73,1a.45.45,0,1,0,.45-.44A.45.45,0,0,0,43.73,1Z"/><path class="cls-3" d="M43.73,1a.45.45,0,1,0,.45-.44A.45.45,0,0,0,43.73,1Z"/><g class="cls-4"><path d="M51.79,4.39a.44.44,0,0,0,.44.44.45.45,0,1,0-.44-.44Z"/><path class="cls-3" d="M51.79,4.39a.44.44,0,0,0,.44.44.45.45,0,1,0-.44-.44Z"/><path d="M18.24,1.62a.44.44,0,0,0,.44.44.44.44,0,0,0,0-.88A.44.44,0,0,0,18.24,1.62Z"/></g><path d="M3.47,1.41a.44.44,0,1,0,0-.88.44.44,0,0,0,0,.88Z"/><path class="cls-3" d="M3.47,1.41a.44.44,0,1,0,0-.88.44.44,0,0,0,0,.88Z"/><g class="cls-5"><path class="cls-2" d="M58.59,15.47c-1,0-3.52-1.27-3.68-2.07"/></g><path class="cls-6" d="M19.93,25.44h0M16,26.08h0M53.37,42.26h0M18.91,42h0M11.73.74h0m15,42.34h0m5.3-.23h0m-2-2.64h0m4.59,1.52h0m3.47,1h0m6-1.53h0M50.1,42.3h0m-9.05-5.4h0m11.26-1.32h0M47.56,37.9h0m-2.1-3.09h0M49,33.71h0m4-4.86h0M48,29.6h0m-5.66-1.51h0m-5.42,1.38h0m-.64,5h0m-4-1.11h0m0-4.92h0M27.17,29.9h0m.26,4.45h0m-6.29-1.74h0M20.62,37h0m-3.09,3.65h0M13.78,42.3h0m-3-1.64h0M6.27,42.3h0M36.2,25.37h0m1-6.69h0m1.54,2h0m-5.68.55h0M49.77,25h0m-25,12h0m14.68,3h0m9.25.28h0M29.44,25.55h0m14.93-6.74h0m2,7.41h0m3.13-6.16h0m3.38,1.76h0m-7.15.37h0M33.58,16.91h0M25.3,18.56h0m-4.14,1.13h0M23.92,23h0m.68,3.58h0m-11.85-6h0M7.11,18.68h0M.58,20.19h0m1.66,7.4h0m6.68,1.77h0m8-8h0M.53,38.89h0m3.75.33h0m1.9-4.84h0m4.91,1.19h0m3.13.23h0m3.86-1.43h0m-.33-2.71h0m-4.85.54h0M5.72,29.85h0m-5.07.94h0"/><path class="cls-7" d="M4.72,21.44c.63-.75,1.63-.75,3.14-.25s1.63,1,2.13,1,1.38,2,.13,2.26-4.39.5-4.77-.38A13.66,13.66,0,0,1,4.72,21.44Zm25.47-1.69c1,.61,1.26,2,.51,2.51a4,4,0,0,1-3.39-.13c-.5-.5-1-1.5.25-2.13S29.57,19.37,30.19,19.75Zm10.54,5.87c.05,1.27-1.44,1.16-1.5.22S40.62,24.46,40.73,25.62ZM3.19,41.79A.76.76,0,1,1,1.7,42C1.65,41.08,3.08,40.63,3.19,41.79Zm-1-17.27a.8.8,0,1,1-1.6.05C.58,23.63,2,23.14,2.23,24.52ZM52.14,38.64c0,1.33-1.4,1.16-1.49,0S52.14,37.65,52.14,38.64Zm-35.91-21c1.65,0,1.4,1.65.16,1.65S14.82,17.66,16.23,17.66Zm15.38,17c1.65,0,1.4,1.65.16,1.65S30.2,34.67,31.61,34.67ZM20.46,29c1.49.09,1.32,1.58.08,1.66S19.13,29.13,20.46,29Zm1.41-11.41,8.44-.88m8.43,6.68-6.54.56m-12.59-.46-6.39,1.26m3.43,13.74-7-.53m35,1.19-8.37-.69m6-21.63,7.08,1.08M45.35,31.61l6.14-.8M24,31,32.3,32M3,16.65l8.28,1.14M5.61,32.18l7.29-2.69M2,34.42c1.74-.66,3.32,1.41,1.25,2S.22,34.84,2,34.42Zm38.68-2.73a2.21,2.21,0,0,1,2.07,1.24,1.55,1.55,0,0,1-2.57,1.41C38.31,33.1,39.06,31.53,40.72,31.69ZM20.18,40a3.4,3.4,0,0,1,3.48-1.25c.83.25,1.16.67,1.65.58s1.74,1.16.58,2S23,42.86,22.42,42.53a17,17,0,0,0-1.66-.83A1.71,1.71,0,0,1,20.18,40Z"/><path class="cls-6" d="M1,10.91H1m2.56,2.33h0M6.86,16h0m5.48-.46h0m.22-3.31h0m3.53,3h0m5.61-1.59h0M20.29,16h0m4.31-2.09h0m2.2-3h0m-4-1.6h0M21.73,6.06h0m-5.19-.45h0M14.23,10.3h0m-1.6-.74h0m-4.51-3h0M4.28,8.37h0M1,3.11H1M.65.75h0M4.39,3.19h0m2-2.76h0M9.47,1.75h0M13.78,2h0M30.45,4.18h0m1.43,4.08h0m-1,5.63h0m6.29-.33h0m15.24-3.31h0M52,14.66h0m-8.28.55h0m-7.18-5.4h0m4-2.32h0m2.66-.27h0M54.49,1.06h0M51.43,7h0m-14-5.85h0M44,3.4h0m3.18-.8h0"/><path class="cls-7" d="M1.35,5.56c.83.83-.22,1.6-.89,1S.19,4.84,1.35,5.56Zm17.5,1.05C20.23,6.72,20,8.1,19,8.15S17.42,6.61,18.85,6.61Zm8.78,7.89c1.14.41.78,1.87-.44,1.43S26.58,14.11,27.63,14.5Zm17.45-4.28c.82.61.33,1.71-.83,1S43.75,9.45,45.08,10.22ZM36,4.73c0,1.27-1.43,1-1.43.06S36,3.46,36,4.73Zm15.3-3.58c1.21,0,1.38,1.43.27,1.49S49.88,1.26,51.32,1.15Zm-27,9.63L17,11.86m21.27-.09-8.36-.66m8.14-6.27,8,.78M3.12,5.48l8.26-1.29M8.5,10.74c2.07.42,3,1.41,1.58,2.24s-1.41.66-3,.16-3-1.07-2-1.82A3.65,3.65,0,0,1,8.5,10.74ZM49,12.07c1.49-1.16,2.73.33,1.74,1.16s-2.41,2-3.32,1.32a1.07,1.07,0,0,1,.33-2A2.44,2.44,0,0,0,49,12.07ZM28.21,5.2c1.74.91,1.41,2.65-.58,2.24S24.9,6.19,24.49,5.28s1-2,2.56-1A10.44,10.44,0,0,0,28.21,5.2Z"/><path class="cls-6" d="M54.71,20.19h0m.66,7.4h0m-.72,11.3h0m.12-8.1h0"/><path class="cls-7" d="M55.36,23.52a.8.8,0,1,1-1.6.05C53.7,22.63,55.14,22.14,55.36,23.52Z"/><path class="cls-6" d="M55.09,10.91h0M54,15.83h0M55.13,3.11h0"/><path class="cls-7" d="M55.47,5.56c.83.83-.22,1.6-.88,1S54.31,4.84,55.47,5.56Z"/><path d="M19.8,16.43a.44.44,0,1,0,.45.44A.44.44,0,0,0,19.8,16.43Z"/><path class="cls-3" d="M19.8,16.43a.44.44,0,1,0,.45.44A.44.44,0,0,0,19.8,16.43Z"/><path d="M36.28,16.62a.44.44,0,0,0-.44.44.45.45,0,1,0,.44-.44Z"/><path class="cls-3" d="M36.28,16.62a.44.44,0,0,0-.44.44.45.45,0,1,0,.44-.44Z"/><path d="M31.65,17.68a.44.44,0,0,0,0,.88.44.44,0,1,0,0-.88Z"/><path class="cls-3" d="M31.65,17.68a.44.44,0,0,0,0,.88.44.44,0,1,0,0-.88Z"/><g class="cls-4"><line class="cls-2" x1="33.98" y1="16.24" x2="35.9" y2="13.37"/></g><path class="cls-7" d="M54.14,33.91c1.65,0,1.41,1.65.16,1.65S52.73,33.91,54.14,33.91Z"/></svg>