<svg id="Capa_1" data-name="Capa 1" xmlns="http://www.w3.org/2000/svg" xmlns:xlink="http://www.w3.org/1999/xlink" viewBox="0 0 54 43.2"><defs><style>.cls-1,.cls-3,.cls-5{fill:none;}.cls-2{clip-path:url(#clip-path);}.cls-3,.cls-5{stroke:#000;}.cls-3{stroke-width:0.3px;}.cls-4{clip-path:url(#clip-path-2);}.cls-5{stroke-linecap:round;stroke-width:0.7px;}.cls-6{clip-path:url(#clip-path-3);}.cls-7{clip-path:url(#clip-path-4);}</style><clipPath id="clip-path"><rect id="SVGID" class="cls-1" y="41.75" width="7.11" height="1.45"/></clipPath><clipPath id="clip-path-2"><rect id="SVGID-2" data-name="SVGID" class="cls-1" x="6.9" y="41.75" width="47.1" height="1.45"/></clipPath><clipPath id="clip-path-3"><rect id="SVGID-3" data-name="SVGID" class="cls-1" width="7.11" height="41.91"/></clipPath><clipPath id="clip-path-4"><rect id="SVGID-4" data-name="SVGID" class="cls-1" x="6.9" width="47.1" height="41.91"/></clipPath></defs><title>682 Till o diamicto 2da opción</title><polyline id="SVGID-5" data-name="SVGID" class="cls-1" points="0 38.4 0 35.8 5.48 35.8 5.48 43.2 0 43.2 0 42.08"/><g class="cls-2"><line class="cls-3" x1="-4.21" y1="42.51" x2="2.88" y2="43.32"/></g><g class="cls-4"><path class="cls-5" d="M44.92,44.13h0m7.15.13h0M41.28,42.35h0M33,44h0m-18.19.12h0"/><path class="cls-3" d="M23.93,43.11c1.65,0,1.4,1.65.16,1.65S22.52,43.11,23.93,43.11ZM29.57,43,38,42.56m11.91-.05,7.08.81m-46.3-.65,8.28.57"/></g><g class="cls-6"><path class="cls-5" d="M6,35.7H6m-.44,4.41h0M2.9,33.49h0M5.33,31h0m-5-2.75h0m3.76-3.65h0M4.45,19h0m-3.2,2.09h0m2.43-6.5h0M5.88,6.9h0M1.14,9.22h0M-1,6.13h0M2.57,5h0m4-4.86h0m-5,.75h0M1.33,13h0"/><path class="cls-3" d="M-1.35,35.67c.83.61.33,1.71-.83,1S-2.68,34.9-1.35,35.67Zm6.24-9.08c1.21,0,1.38,1.44.28,1.49S3.46,26.7,4.89,26.59ZM5.72,10c0,1.33-1.41,1.16-1.49,0S5.72,9,5.72,10ZM-8.36,30.29l8,.78m.17-14.46,6.74,1.67M-1.07,2.93l6.13-.8M2.57,37.51c1.49-1.15,2.74.34,1.74,1.16S1.91,40.66,1,40a1.07,1.07,0,0,1,.33-2A2.37,2.37,0,0,0,2.57,37.51ZM-1.24,21.88C1,23.29.83,25.52-1.65,24.77s-2.4-1-3.48-2.64S-2.73,21-1.24,21.88Z"/></g><g class="cls-7"><path class="cls-5" d="M8.67,36.36h0M7.53,41.28h0m4.34-1.72h0m2.65,2.09h0M20,41h0m.22-3.31h0m3.53,3h0m5.13-2.29h0M28,41.43h0m4.31-2.09h0m2.2-3h0m-4-1.6h0M29.43,31.5h0m-5.19-.44h0m-.78,4.08h0m-3-1.51h0m-4-.88h0M12,33.82h0M8.71,28.56h0M7.34,22.24h0m2,2.76h0m2.76,3.64h0M13.75,26h0m3.42,1.21h0m4.31.22h0m4.85.66h0m-2.65-3.2h0m-6.95-1.65h0m-.22-4.85h0m3.64,1.1h0m3.42-.33h0m3.43,2h0m-.56-4.19h0m3-1.87h0m.88,6.72h0m.88-3.64h0m3.2-2.75h0m1.77,4.52h0m-6.07,7.61h0m3-3.64h0m1.32,3.42h0m3.76,2.32h0m1.43,4.08h0m-1,5.63h0M44.88,39h0m2.76,2.53h0m3.76-.88h0m-2.54-3.31h0m-4.64-2.1h0m4-2.31h0m4.42.55h0M45.1,21.68h0M41,19.37h0m-3.64,5.18h0m4.19,2.32h0m4.2,1h0m4.08-.77h0m4.64,1.11h0m.88-7.07h0m-2.76-2.86h0M48.86,19.7h0m-9.17-4.52h0m-2-3.64h0m5,.77h0m3.1,2.76h0m6-2.54h0m-3-4.3h0m6.51,1h0m-2.1-3.09h0M50.06-.59h0M45.21.84h0M44,5.8h0M40,4.7h0M38.72-.47h0M34.87,1.22h0m.26,4.46h0M30,4.7h0M28.32,8.34h0M25.23,12h0m-3.75,2.65h0m-3-2.65h0M14,14.63h0m-5.7,2.52h0M32.5,8.31h0m14.68,3h0M10.61-1.28h0M8.23,10.21h0m3.75.33h0M13.3,6h0m4.53.66h0m4.09.44h0m3.86-1.43h0m-2-3.86h0M20.6,3.52h0M13.41,1.17h0M8.67,2.93h0"/><path class="cls-3" d="M10.89,14.12a.76.76,0,1,1-1.49.22C9.35,13.4,10.78,13,10.89,14.12ZM9.05,31c.82.83-.22,1.6-.89,1S7.89,30.29,9.05,31Zm12.09-9.22c1.38.94.11,1.94-.88,1.33S20.1,21.3,21.14,21.79Zm5.41,10.27c1.38.11,1.16,1.48.17,1.54S25.12,32.06,26.55,32.06Zm8.78,7.88c1.14.42.77,1.88-.44,1.44S34.28,39.56,35.33,39.94Zm17.44-4.27c.83.61.34,1.71-.82,1S51.45,34.9,52.77,35.67ZM35.28,21.85a.8.8,0,1,1-1.6.06C33.62,21,35.06,20.47,35.28,21.85Zm8.44,8.33c0,1.27-1.43,1.05-1.43.06S43.72,28.91,43.72,30.18Zm5.85-14.59c1.41,0,1.33,1.41.17,1.41S47.84,15.67,49.57,15.59ZM39.31,6c1.65,0,1.4,1.66.16,1.66S37.9,6,39.31,6ZM28.15.29c1.5.08,1.33,1.57.09,1.65S26.83.45,28.15.29Zm2.48,35.87-7.29,1.08m22.65,0-8.36-.66m8.14-6.27,8,.78M12.58,31l8.26-1.29M31,25l-6.6-1.34m21.42-.22-6.24-.54m14.41-6.3,6.74,1.67m-25.28-1,7.77-1M14,16.39l7.43.45m3-7.07-7-.53M51,9.93l-8.36-.69m10.4-6.31,6.14-.8M33.3,2.42l8.33.92m-28.32.17L20.6.81M16.2,36.19c2.07.42,3,1.41,1.58,2.24s-1.41.66-3,.16-3-1.08-2-1.82A3.65,3.65,0,0,1,16.2,36.19Zm40.5,1.32c1.49-1.15,2.73.34,1.74,1.16S56,40.66,55.12,40a1.07,1.07,0,0,1,.33-2A2.38,2.38,0,0,0,56.7,37.51ZM9.74,5.75c1.74-.67,3.32,1.4,1.25,2S7.92,6.16,9.74,5.75Zm3.4,12.9c1.24.25,1.9.75,2,1.74s-.58,2-2.9,1.82-3.81-.58-2.49-2.15c.83-.08,1.16-.25,1.49-.91S12.56,18.49,13.14,18.65Zm22.77,12c1.74.91,1.41,2.65-.58,2.23s-2.73-1.24-3.15-2.15,1-2,2.57-1A10.44,10.44,0,0,0,35.91,30.65Zm17-8.77c2.23,1.41,2.07,3.64-.42,2.89s-2.4-1-3.47-2.64S51.4,21,52.89,21.88ZM48.42,3a2.2,2.2,0,0,1,2.07,1.25,1.54,1.54,0,0,1-2.57,1.4C46,4.42,46.76,2.85,48.42,3ZM27.88,11.29a3.38,3.38,0,0,1,3.48-1.24c.82.24,1.16.66,1.65.58s1.74,1.15.58,2-2.9,1.57-3.47,1.24A14.7,14.7,0,0,0,28.46,13,1.71,1.71,0,0,1,27.88,11.29Z"/></g></svg>