<svg id="Capa_1" data-name="Capa 1" xmlns="http://www.w3.org/2000/svg" xmlns:xlink="http://www.w3.org/1999/xlink" viewBox="0 0 54 43.2"><defs><style>.cls-1,.cls-3,.cls-4{fill:none;}.cls-2{clip-path:url(#clip-path);}.cls-3,.cls-4{stroke:#000;}.cls-3{stroke-linecap:round;stroke-width:0.7px;}.cls-4{stroke-width:0.3px;}.cls-5{clip-path:url(#clip-path-2);}.cls-6{clip-path:url(#clip-path-3);}.cls-7{clip-path:url(#clip-path-4);}</style><clipPath id="clip-path"><rect id="SVGID" class="cls-1" y="15.89" width="12.7" height="27.31"/></clipPath><clipPath id="clip-path-2"><rect id="SVGID-2" data-name="SVGID" class="cls-1" x="12.5" y="15.89" width="41.5" height="27.31"/></clipPath><clipPath id="clip-path-3"><rect id="SVGID-3" data-name="SVGID" class="cls-1" width="12.7" height="16.05"/></clipPath><clipPath id="clip-path-4"><rect id="SVGID-4" data-name="SVGID" class="cls-1" x="12.5" width="41.5" height="16.05"/></clipPath></defs><title>683 Till o diamicto 3ra opción</title><polyline id="SVGID-5" data-name="SVGID" class="cls-1" points="0 38.4 0 35.8 5.48 35.8 5.48 43.2 0 43.2 0 42.08"/><g class="cls-2"><path class="cls-3" d="M3.2,40.79h0m6.07,2.1h0m-9-6.4h0m11.26-1.32h0M6.73,37.49h0M4.64,34.4h0m3.53-1.11h0m4-4.85h0m-6.29.77h0M1.54,27.68h0M-.1,20.78h0m9,4.94h0M-1.35,39.59h0m8.28,1.62h0M3.54,18.4h0m1.63,6.77h0m3.52-5.52h0m3.39,1.76h0m-7.16.37h0"/><path class="cls-4" d="M12.43,23.32H6.25M1.85,24c0,1.27-1.44,1.16-1.49.22S1.74,22.88,1.85,24Zm9.47,14.19c0,1.32-1.41,1.16-1.49,0S11.32,37.24,11.32,38.23ZM2.74,38h-16M-.75,16.86H10.63M3.52,31.2h9.17m-12.8.08A2.21,2.21,0,0,1,2,32.52,1.54,1.54,0,0,1-.61,33.93C-2.51,32.69-1.77,31.12-.11,31.28Z"/></g><g class="cls-5"><path class="cls-3" d="M33.08,25.2h0m-5.23,1.33h0M35,43.33h0m5,.33h0m5.3-.22h0m-2-3.64h0m5,.77h0m3.09,2.76h0m3-6.84h0M50.81,29.1h0m-1.21,5h0m-4-1.11h0m-.11-3.42h0m-6,.11h0m1.18,4.29h0m-5.16-1h0M33.92,36.6h0m-3.09,3.64h0m-3.76,2.65h0m-3-2.65h0m-4.53,2.65h0m30.1-16.46h0m.86-8.16h0M54,20.78h0m-7.65,0h0M38.1,36.58h0m14.67,3h0m-7.51-14h0m1.62-9.12h0m-8.94,2.27h0m-3.48.52h0m2.76,3.26h0m1.49,2.87h0M26.05,20.15h0m-5.44-1.26h0m-6.73.89h0m2.89,6h0m5.39.51h0m8-5.39h0M13.82,38.48h0m3.76.33h0m1.32-4.52h0m4.53.66h0m4.08.44h0M31.38,34h0m-2-3.86h0m-4.75-1h0M19,29.43h0m-4.23.6h0"/><path class="cls-4" d="M43.28,27.66h-10m-12.59,0H13.86M18,21c.63-.75,1.63-.75,3.14-.25s1.63,1,2.13,1,1.38,2,.13,2.26-4.4.5-4.77-.38A13.66,13.66,0,0,1,18,21Zm25.47-1.69c1,.61,1.25,2,.5,2.51a4,4,0,0,1-3.39-.13c-.5-.5-1-1.5.26-2.13S42.86,19,43.49,19.34ZM56,24c.06,1.27-1.43,1.16-1.49.22S55.86,22.88,56,24ZM15.61,42.81c.05,1.27-1.44,1.16-1.49.22S15.5,41.65,15.61,42.81Zm-.08-18.7a.8.8,0,1,1-1.6.05C13.87,23.22,15.31,22.73,15.53,24.11Zm14-6.86c1.66,0,1.41,1.65.17,1.65S28.12,17.25,29.52,17.25Zm15.38,17c1.66,0,1.41,1.65.17,1.65S43.5,34.26,44.9,34.26ZM33.56,29c1.49.09,1.32,1.58.08,1.66S32.23,29.13,33.56,29ZM31.77,17.1h12.8m7.33,6.4H41.19M35.33,23h-9m3.24,14.73H18.52M56.87,38h-16M53.38,16.86H64.76M12.49,31.2h2.8m22.77,0H50.35M14.46,17.79H25.84M17.14,32.1H30.81M15.34,34c1.74-.66,3.31,1.41,1.24,2S13.52,34.43,15.34,34ZM54,31.28a2.2,2.2,0,0,1,2.07,1.24,1.54,1.54,0,0,1-2.56,1.41C51.61,32.69,52.36,31.12,54,31.28ZM33.48,39.55A3.41,3.41,0,0,1,37,38.31c.83.25,1.16.67,1.66.58s1.74,1.16.58,2-2.9,1.57-3.48,1.24a17,17,0,0,0-1.65-.83A1.7,1.7,0,0,1,33.48,39.55Z"/></g><g class="cls-6"><path class="cls-3" d="M-.88,15.68h0M11.59,9.84h0m-.44,4.41h0m-8.28.55h0M.33,11.49h0M-.33,7.08h0m4.41.55h0m4.42,0h0m2.43-2.54h0M1.32,1.23h0M6,2.34H6M9.71-1.3h0"/><path class="cls-4" d="M4.65,9.64c.83.61.33,1.71-.83,1S3.33,8.87,4.65,9.64ZM8.75.45C10,.45,10.13,1.88,9,1.94S7.31.56,8.75.45Zm-11.51,4h8m6.4-2.19h1.1M8.17,11.66c1.49-1.16,2.73.33,1.74,1.16s-2.4,2-3.31,1.32a1.07,1.07,0,0,1,.33-2A2.42,2.42,0,0,0,8.17,11.66ZM4.36-4C6.6-2.57,6.43-.34,4-1.08S1.54-2.08.47-3.73,2.87-4.89,4.36-4Z"/></g><g class="cls-7"><path class="cls-3" d="M14.26,10.5h0m-1.13,4.92h0m4.34-1.72h0m2.65,2.09h0m5.52-.66h0m.22-3.31h0m3.53,3h0m2.54-2.43h0m1.66,3.2h0m4.3-2.09h0m2.21-3h0m-4-1.6h0M35,5.64h0M29.83,5.2h0m-.77,4.09h0m-3-1.52h0M22,6.9h0M17.58,8h0M14.26,6.31h0m.67-7.17h0m5.71,6h0M17.73,0h0m3.15.68h0m4.31.22h0m6.74,1.29h0M29.28-1h0m6.4,2.64h0M40,1.45h0m3.75,2.32h0m1.44,4.08h0m-1,5.63h0m6.29-.33h0m2.76,2.53h0m1.21-4.19h0M49.82,9.4h0m4-2.32h0M43-1.3h0M47.17,1h0m4.19,1h0"/><path class="cls-4" d="M50.82,15.48H44.64M18.48,4.33c.83.83-.22,1.6-.88,1S17.32,3.61,18.48,4.33ZM32.15,6.2c1.38.11,1.16,1.48.17,1.54S30.71,6.2,32.15,6.2Zm8.78,7.88c1.14.42.77,1.88-.44,1.44S39.88,13.7,40.93,14.08Zm8.39-9.76c0,1.27-1.43,1-1.43.06S49.32,3.05,49.32,4.32Zm-11.5,6.33H25.63m27.5.07H42.28m9.08-6.29h8M12.49,2.24H25.84m-4,8.09c2.07.42,3,1.41,1.57,2.24s-1.41.66-3,.16-3-1.07-2-1.82A3.67,3.67,0,0,1,21.8,10.33ZM41.51,4.79c1.74.91,1.41,2.65-.58,2.23S38.2,5.78,37.78,4.87s1-2,2.57-1A9.54,9.54,0,0,0,41.51,4.79ZM58.48-4c2.24,1.41,2.07,3.64-.41,2.9s-2.4-1-3.48-2.65S57-4.89,58.48-4Z"/></g></svg>