<svg id="Capa_1" data-name="Capa 1" xmlns="http://www.w3.org/2000/svg" viewBox="0 0 41.89 41.87"><defs><style>.cls-1{fill:none;stroke:#000;stroke-width:0.3px;}</style></defs><title>684 Loess 1ra opción</title><path class="cls-1" d="M23.93,45.94a4.83,4.83,0,0,1-.08,3.2,5.68,5.68,0,0,0-.13,3.67m-3.37-22a12.29,12.29,0,0,0,.39,3.46M18,46.23c.13,1.56.51,1.82.25,3.76s-.51,2.84-.25,3.62M28.26,21.82c0,.36,0,1.14,0,1.26m-6.17-1.26a7.5,7.5,0,0,0,.14,1.72M11.88,21.82a14.27,14.27,0,0,0,0,1.53M5.07,21.83a2.6,2.6,0,0,1-.08.86m-7.85-.87a2.94,2.94,0,0,0,.43,1.82m34-1.09a17.63,17.63,0,0,1,0,4.76A7.29,7.29,0,0,0,31.74,31m-1.63-3.75c-.17,1-.86,3.45-.05,5.11m-.2-10.18a16.32,16.32,0,0,1,.21,3m-2.35-.82c.38,1.67.59,1.72.38,3.17a11.83,11.83,0,0,0-.17,3.29M25.7,28.38a20.06,20.06,0,0,0,.41,5m.05-11.26a18.68,18.68,0,0,1,.09,4.35M24,22.81a7.69,7.69,0,0,1,.09,3.84c-.35,1.67-.51,4.31-.08,5.42m-1.95-7.36a4.28,4.28,0,0,1,.09,1.94c-.17.9-.39,1.41-.43,1.75m-1.86-6.17a11.32,11.32,0,0,1-.17,4.11,5.07,5.07,0,0,0-.13,3.33m-2.43-.58c-.17,1.32-.91,3-.74,3.81a8.59,8.59,0,0,0,.3,1.15m-.92-12c.47,1.58.1,5.72-.07,7.17m-1.45-2.05A11.43,11.43,0,0,1,14,29.32a6.14,6.14,0,0,0,.09,2.47m0-9.21a25.18,25.18,0,0,0-.31,2.82m-1.61-.74a4.27,4.27,0,0,0,.25,1.71,4.29,4.29,0,0,1,0,2.56,12,12,0,0,0-.09,3.84m-2-10.48c.47,2,.82,4.13.52,5.24a7.74,7.74,0,0,0-.26,3M9.2,28.23a13.06,13.06,0,0,1-.59,2.41,5.76,5.76,0,0,0,.09,2.73m.1-10.15a8.3,8.3,0,0,1,0,3.7M6.69,22.26a8.79,8.79,0,0,1,.38,4.55,19.11,19.11,0,0,0-.27,5.46M4.89,28.89a9.54,9.54,0,0,0-.3,3.67m1.09-8.31a7.59,7.59,0,0,1,.18,3.49M3.48,22.93c.39,1.62.81,2.51.26,3.88A6.3,6.3,0,0,0,3,30.18M1.3,27.94a24.7,24.7,0,0,0,1,5m-.9-10.69a4.28,4.28,0,0,1,.21,2.59c-.25.94-.47,1.37-.55,1.84M-.28,23.06a9.29,9.29,0,0,1,0,4.33C-.67,28.76-1,30-.2,31.49M-2.29,25.6A6,6,0,0,1-2.55,28a8.32,8.32,0,0,0,.34,4.55m-2.18-5a16.45,16.45,0,0,0,.13,5.79M-4.82,22.7a6.16,6.16,0,0,1,.26,2.91M-6.4,23.49a7,7,0,0,1-.08,3.86A5.68,5.68,0,0,0-6.61,31m-1.84-2.43c-.34,1,.22,3.62.69,4.56M-7.9,22.73a5.8,5.8,0,0,1,0,2.75c-.08.86-.3,1.33-.25,1.46m39.34,17.6a5.42,5.42,0,0,1,.61,3m-2.31-1.32a8,8,0,0,1,.39,3.67,11.93,11.93,0,0,0-.18,3.29M27,44.08A24.85,24.85,0,0,1,27.8,49M25,43.22c.78,1.26,1.07,4.8.73,6.46A7.13,7.13,0,0,0,26,53.79m-3.94-7.52a6.26,6.26,0,0,1-.17,3.07,9.76,9.76,0,0,0,.2,4.72m-2.49-9.47a10,10,0,0,1,.66,3.81m-4.06-2.94a19,19,0,0,0,.29,2.82m-4.28-1.8c.47,2,.81,3,.51,4.06a7.74,7.74,0,0,0-.26,3M10.85,45a14,14,0,0,1-.2,2.92M8.6,46.1c.47,1.58.73,2.18.39,3.58a9.74,9.74,0,0,0-.48,3.72M7,45.29a8,8,0,0,1,.64,3.29M5.39,46.1c.39,1.62.82,2.35.26,3.71a12.32,12.32,0,0,0-.3,5.08m-2-9.83c.3,1.24.88,2.11.62,3s-.47,1.36-.55,1.83m-1.8-3.71a6.16,6.16,0,0,1,0,3.54c-.42,1.37-.77,2.61,0,4.1m-4.56-8.81a7.91,7.91,0,0,1,.26,3.34m-4-2.94A7.13,7.13,0,0,1-6,48.36c-.08.86-.29,1.32-.25,1.45m3.81-8.2A16,16,0,0,0-.86,45.88m-7-10.72a10.11,10.11,0,0,1,.22,4.66c-.39,1.37-.65,3.16-.09,4.27m1.55-3.16a4.43,4.43,0,0,0-.09,2.35,14.43,14.43,0,0,0,.79,1.6m-.19-11.6a9.2,9.2,0,0,1,.17,3.55,8.93,8.93,0,0,0-.21,1.84m2.21-3.5c-.21,1.37-.5,3.88-.75,4.82s-.65,2.78,0,3.84M17.63,23.67c.73.94.93,7.52.93,7.52M-2,34.05a9.36,9.36,0,0,1,.08,3.89,5,5,0,0,0-.26,1.71M0,39.18a7.41,7.41,0,0,0,.47,5.36m-.93-11.7A14,14,0,0,1,.3,36.53m1.76-1.92A9.46,9.46,0,0,1,2.15,39,8.44,8.44,0,0,0,2.4,43.7m1.81-2.12a26.92,26.92,0,0,1,.39,3.36m-1-11.8c.47,2.09.93,3.77.63,5.27a9.89,9.89,0,0,0-.35,1.79M6,39.13c-.26,1.2-.43,3.51.3,4.7M5.8,33.45A9.87,9.87,0,0,1,6.44,37M8,34.59a24.35,24.35,0,0,1,.05,5.31,9.7,9.7,0,0,0,.12,3.85m1.92-5a11.21,11.21,0,0,1-.22,1.45,7.15,7.15,0,0,0,.22,3.68m.44-11.32A12.74,12.74,0,0,1,10.31,37m1.93-2a10.77,10.77,0,0,1-.18,4.1,8.67,8.67,0,0,0-.29,3.41m2.16-2.53c-.57,2.69-.7,5.16-.31,5.79m.62-12.66a14,14,0,0,1,0,5.05m2.4-2.48a8.35,8.35,0,0,1-.43,4,6.81,6.81,0,0,0-.13,4.19m2.14-3.8a6.9,6.9,0,0,0,.13,3.63m.21-10.42a14.94,14.94,0,0,1,0,5.21m2.19-2.36A13.73,13.73,0,0,1,20.49,40a11.47,11.47,0,0,0,1,5m.36-15.48a13.08,13.08,0,0,1,.25,2M23,38c-.25,1.75-1,5.14.33,6.55M22.46,33a9.63,9.63,0,0,1,.64,3.51m2.22-2.27a7.39,7.39,0,0,1-.17,4.06,3.71,3.71,0,0,0,.42,3.53m2.27-3c0,.9-.17.56-.25,1.54a10.17,10.17,0,0,0,1.33,4.2M28.05,32.8a8.94,8.94,0,0,1-.16,4.2m2.35-2a7.89,7.89,0,0,1-.17,3.5,5.51,5.51,0,0,0,0,3.33m2-2.94a12.11,12.11,0,0,0,.09,4.36M31.9,33.17A11.68,11.68,0,0,1,32,36.76"/><path class="cls-1" d="M39,21.82a2.88,2.88,0,0,0,.42,1.82m2.15-.58a9.16,9.16,0,0,1,0,4.33c-.43,1.37-.77,2.61,0,4.1m-2.1-5.89A6,6,0,0,1,39.33,28a8.32,8.32,0,0,0,.34,4.55m-2.18-5a16.45,16.45,0,0,0,.13,5.79M37.06,22.7a6.16,6.16,0,0,1,.26,2.91m-1.84-2.12a7,7,0,0,1-.08,3.86A5.75,5.75,0,0,0,35.27,31m-1.84-2.43c-.34,1,.22,3.62.69,4.56M34,22.73a5.8,5.8,0,0,1,0,2.75c-.08.86-.29,1.33-.25,1.46M39,45.06a8.07,8.07,0,0,1,.25,3.34m-4-2.94a7.32,7.32,0,0,1,.6,2.9c-.09.86-.3,1.32-.26,1.45m3.81-8.2A16,16,0,0,0,41,45.88M34,35.16a10.11,10.11,0,0,1,.22,4.66c-.39,1.37-.65,3.16-.09,4.27m1.55-3.16a4.43,4.43,0,0,0-.09,2.35,14.43,14.43,0,0,0,.79,1.6m-.19-11.6a9.2,9.2,0,0,1,.17,3.55,8.93,8.93,0,0,0-.21,1.84m2.21-3.5c-.21,1.37-.5,3.88-.75,4.82s-.64,2.78,0,3.84m2.28-9.78A9.36,9.36,0,0,1,40,37.94a5,5,0,0,0-.26,1.71m2.18-.47a7.41,7.41,0,0,0,.47,5.36m-.93-11.7a14,14,0,0,1,.76,3.69"/><path class="cls-1" d="M30.27,13.24c.21,1.07.8,2.55.28,4.13a4.67,4.67,0,0,0-.13,3.28M.5,12.61a11.67,11.67,0,0,1-.81,4.67,8.08,8.08,0,0,0-.18,4.34M7,14.26a5.05,5.05,0,0,1,0,3.31,4.6,4.6,0,0,0-.25,3.21m7.53-7.13A6.65,6.65,0,0,1,14,17.33a7.23,7.23,0,0,0-.42,4M23.93,4.06a4.83,4.83,0,0,1-.08,3.2,5.68,5.68,0,0,0-.13,3.67m-2.59,2.62A4.87,4.87,0,0,1,21,16.76c-.39,1.2-.91,2.74-.49,3.94M18,4.35c.13,1.55.51,1.81.25,3.76S17.76,11,18,11.73m14.31,2.65a5.17,5.17,0,0,1-.12,2.27A12.9,12.9,0,0,0,32,21.23m-3.55-6.59a6.52,6.52,0,0,1,.22,3,27.36,27.36,0,0,0-.4,4.27M26.5,14.1c.13.82-.28.58.06,1.86a3.61,3.61,0,0,1-.26,2.74,4.12,4.12,0,0,0-.05,2.17m-1.77-3.22a17.88,17.88,0,0,1-.83,3.92m.56-9.09c.56.56.9,3.14.82,3.57m-1.84-1.74c.6,1.58.36,2.27-.43,3.7a9.6,9.6,0,0,0-.64,3.93m-3-7.3c.34,1.84.38,2.6-.13,3.72a5.05,5.05,0,0,0-.38,3.37m-.79-4.63A14.65,14.65,0,0,0,17,21m.92-7.57A9.11,9.11,0,0,1,17.65,16m-2-1.47a5,5,0,0,1,0,3.25c-.34,1.28-.56,1.61-.3,2.47m-3-7.35A7.58,7.58,0,0,1,12.33,17a21.61,21.61,0,0,0-.45,4.94M11,16.31c-.09.72-.88,3.51-.71,4.07m-1.34-7a8.33,8.33,0,0,1,.15,4.31,8.78,8.78,0,0,0-.4,3.87M5.41,14.72c.39,1.58.49,2.25,0,3.38A12.63,12.63,0,0,0,5.07,22M3.46,17.5a11.3,11.3,0,0,0-.74,3.88m.72-8.19a10.49,10.49,0,0,1,.77,3.11M2,14.85c.09,1.5.26,1.84-.25,3.16s-.64,1.49-.43,2.39m-3.37-4.83a4.52,4.52,0,0,1-.3,2,19.73,19.73,0,0,0-.47,4.41m-.83-9.52a37.21,37.21,0,0,1-.79,7.82m-1.21-5.39A8.14,8.14,0,0,1-6,17.93a8.14,8.14,0,0,0,0,3.57m-1.71-3.44c-.35,1.06-.93,2.91-.63,3.63m.89-7.82a7.89,7.89,0,0,1,.26,3M31.8,7.76c-.17,1-.75,3.65.06,5.32M31.15,2.66a5.42,5.42,0,0,1,.61,3M29.45,4.34A8,8,0,0,1,29.84,8a11.93,11.93,0,0,0-.18,3.29M27.61,8.87A14.51,14.51,0,0,0,28,13.13M27,2.19a24.83,24.83,0,0,1,.82,4.95M25,1.33c.78,1.27,1.07,4.81.73,6.47A7.09,7.09,0,0,0,26,11.9M22.09,4.39a6.26,6.26,0,0,1-.17,3.07,9.72,9.72,0,0,0,.2,4.71M20,8.06a12.3,12.3,0,0,0-.26,3.33,12.4,12.4,0,0,1,.12,2.25M19.63,2.71a10,10,0,0,1,.66,3.81M16.61,7.68a12.29,12.29,0,0,1-.21,2.13,12.57,12.57,0,0,0,0,3.4m-.18-9.64a18.85,18.85,0,0,0,.29,2.82m-2.4-1.58a6.08,6.08,0,0,0,.25,2.05,4.24,4.24,0,0,1,0,2.57,5.24,5.24,0,0,0,.17,2.75M12.24,4.6c.47,2,.81,3,.51,4.06a7.74,7.74,0,0,0-.26,3m-2-3.8a6.52,6.52,0,0,1-.26,1.58c-.22.81.53,4.85.74,5.45m-.09-11.8A14.07,14.07,0,0,1,10.65,6M8.6,4.22C9.07,5.8,9.33,6.39,9,7.8a9.72,9.72,0,0,0-.48,3.72M7.36,8.57a12,12,0,0,0,0,4.27M7,3.4a8,8,0,0,1,.64,3.29M5.39,4.22c.39,1.62.82,2.35.26,3.71A12.32,12.32,0,0,0,5.35,13M3.44,9.26a7,7,0,0,0,.27,2.61M3.36,3.18c.3,1.24.88,2.1.62,3s-.47,1.37-.55,1.84M1.63,4.34a6.2,6.2,0,0,1,0,3.55c-.42,1.37-.77,2.6,0,4.1M-.38,6.1A5.88,5.88,0,0,1-.64,8.53c-.34,1.41-.75,3.86-.28,4.76M-2.43,8.36a9.71,9.71,0,0,0,0,4.46m-.44-9.64a7.87,7.87,0,0,1,.26,3.33m-1.9-1.87a4.86,4.86,0,0,1-.08,3.21,5.75,5.75,0,0,0-.13,3.67M-6.54,9.08a8.14,8.14,0,0,0,.59,4.38m-.67-9.89A7.18,7.18,0,0,1-6,6.48c-.08.85-.29,1.32-.25,1.45M-8.21,4.86a6.11,6.11,0,0,1,.05,3.71,6,6,0,0,0-.22,3.72M-2.47-.27A16.22,16.22,0,0,0-.86,4m-7-10.72a10.11,10.11,0,0,1,.22,4.66C-8.06-.7-8.32,1.1-7.76,2.21M-6.21-.95A4.43,4.43,0,0,0-6.3,1.4,14.43,14.43,0,0,0-5.51,3M0-2.7A7.41,7.41,0,0,0,.47,2.66m3.74-3A27.06,27.06,0,0,1,4.6,3.06m9.33-4.88c-.57,2.68-.7,5.16-.31,5.79m7.13-9.68a13.73,13.73,0,0,1-.26,3.77,11.48,11.48,0,0,0,1,5M23-3.9c-.25,1.75-1,5.13.33,6.54m4.5-5.73c0,.9-.17.56-.25,1.54a10.08,10.08,0,0,0,1.33,4.19"/><path class="cls-1" d="M42.38,12.61a11.67,11.67,0,0,1-.81,4.67,8.08,8.08,0,0,0-.18,4.34m-1.6-6.05a4.52,4.52,0,0,1-.3,2A19.15,19.15,0,0,0,39,21.94m-.84-9.52a37.21,37.21,0,0,1-.79,7.82m-1.21-5.39a8.14,8.14,0,0,1-.34,3.08,8.29,8.29,0,0,0,0,3.57M34.1,18.06c-.35,1.06-.93,2.91-.63,3.63m.89-7.82a7.89,7.89,0,0,1,.26,3M41.5,6.1a5.88,5.88,0,0,1-.26,2.43c-.34,1.41-.75,3.86-.28,4.76M39.45,8.36a9.71,9.71,0,0,0,0,4.46M39,3.18a8,8,0,0,1,.25,3.33M37.4,4.64a4.93,4.93,0,0,1-.09,3.21,5.75,5.75,0,0,0-.13,3.67M35.34,9.08a8.14,8.14,0,0,0,.59,4.38m-.67-9.89a7.37,7.37,0,0,1,.6,2.91c-.09.85-.3,1.32-.26,1.45M33.67,4.86a6.11,6.11,0,0,1,0,3.71,6,6,0,0,0-.22,3.72M39.41-.27A16.22,16.22,0,0,0,41,4M34-6.72a10.11,10.11,0,0,1,.22,4.66c-.39,1.36-.65,3.16-.09,4.27M35.67-.95a4.43,4.43,0,0,0-.09,2.35A14.43,14.43,0,0,0,36.37,3m5.51-5.7a7.41,7.41,0,0,0,.47,5.36"/><path class="cls-1" d="M2.15-2.92A8.44,8.44,0,0,0,2.4,1.82"/><path class="cls-1" d="M6-2.75c-.26,1.2-.43,3.51.3,4.7"/><path class="cls-1" d="M8.06-2a10.11,10.11,0,0,0,.12,3.85"/><path class="cls-1" d="M9.88-1.68A7.11,7.11,0,0,0,10.1,2"/><path class="cls-1" d="M12.06-2.71A8.72,8.72,0,0,0,11.77.71"/><path class="cls-1" d="M16.21-2.15A6.81,6.81,0,0,0,16.08,2"/><path class="cls-1" d="M18.22-1.76a6.9,6.9,0,0,0,.13,3.63"/><path class="cls-1" d="M25.15-3.6a3.68,3.68,0,0,0,.43,3.53"/><path class="cls-1" d="M32.12-3a12.11,12.11,0,0,0,.09,4.36"/><path class="cls-1" d="M37.6-1.89C37.34-.95,37,.88,37.6,2"/></svg>