<svg id="Capa_1" data-name="Capa 1" xmlns="http://www.w3.org/2000/svg" viewBox="0 0 54.12 41.87"><defs><style>.cls-1{fill:none;stroke:#000;stroke-width:0.3px;}</style></defs><title>685 Loess 2da opción</title><path class="cls-1" d="M.26,36.75A6.61,6.61,0,0,1,.1,39.67a16.72,16.72,0,0,0-.28,5.92M0,14.32A15.62,15.62,0,0,0,.1,20m-.39-13a15.44,15.44,0,0,1,.11,4.63"/><path class="cls-1" d="M51.39,35.21c.27,1.38,1,3.3.37,5.34a5.87,5.87,0,0,0-.17,4.23m-38-10.27c.28,1.38-.38,4-1.05,6a10.41,10.41,0,0,0-.23,5.61m9.36-9.56a11.44,11.44,0,0,1,0,4.27c-.23,2.09-.71,3-.32,4.15m10.34-9.09a8.6,8.6,0,0,1-.37,4.75c-.66,2-.94,4-.55,5.12M43.54,23.42a6.25,6.25,0,0,1-.11,4.13,7.39,7.39,0,0,0-.16,4.74m-4.9,7c-.5,1.56-1.18,3.54-.63,5.1M38.92,3.86a15.85,15.85,0,0,0,.5,4.48M35.9,23.8c.17,2,.67,2.34.34,4.85s-.67,3.67-.34,4.68m18.49,3.42a6.61,6.61,0,0,1-.17,2.92c-.33,1.33-.66,4.66-.27,5.92m-5.22-8.48A8.42,8.42,0,0,1,49,41a34.41,34.41,0,0,0-.51,5.51M46.86,36.39c.16,1-.37.75.07,2.4a4.59,4.59,0,0,1-.33,3.53,5.4,5.4,0,0,0-.07,2.81M43.9,34.29c.72.72,1.16,4.06,1.05,4.61m-3.26-2.39c.77,2,.45,2.94-.57,4.79a12.62,12.62,0,0,0-.82,5.07M36.56,37c.44,2.37.5,3.36-.16,4.79a6.54,6.54,0,0,0-.5,4.36m-.15-10.57a12.37,12.37,0,0,1-.31,3.32M33.2,37.18a6.33,6.33,0,0,1,0,4.19c-.44,1.65-.71,2.08-.38,3.18m-3.53-9.46a9.46,9.46,0,0,1-.07,5.27,35.25,35.25,0,0,0-.58,6.38m-1.58-7.51c-.11.93-1.13,4.54-.91,5.25m-2-9c.5,2,.7,4.3.21,5.57a11,11,0,0,0-.52,5M20.3,37.25c.49,2,.62,2.9,0,4.36-.51,1.2-.43,3.53-.44,5m-2.75-5.8c.12.8-.7,3.27-.95,5m.93-10.58c.33,1,1.1,3.08,1,4m-2.9-1.87c.11,1.93.33,2.37-.33,4.08M10,38.24a6,6,0,0,1-.39,2.53,25.23,25.23,0,0,0-.6,5.69M7,38.7A48.26,48.26,0,0,1,6,48.79M4.59,37.61a10.29,10.29,0,0,1-.44,4,10.94,10.94,0,0,0-.06,4.62M2.94,36.09A10.07,10.07,0,0,1,3.27,40M53.38.21a6.51,6.51,0,0,0,.24,4M51.52-.69C51.3.63,50.4,3.76,51.45,5.92m-3-10.37c.5,2.15.78,2.21.5,4.09a15.58,15.58,0,0,0-.22,4.24M45.82.74a26,26,0,0,0,.53,6.43M43.64-6.45a9.93,9.93,0,0,1,.11,5c-.44,2.15-.64,5.56-.09,7M41.14-4a5.46,5.46,0,0,1,.11,2.5C41-.33,40.75.33,40.7.78m-2.4-8a14.87,14.87,0,0,1-.22,5.31c-.44,1.65-.72,3-.16,4.3m-3.14-.76c-.22,1.72-1.19,3.88-1,4.93a13.26,13.26,0,0,0,.39,1.49M33-7.42c.61,2,.14,7.39-.08,9.26M31.05-.8A15.61,15.61,0,0,1,30.78,2a8,8,0,0,0,.11,3.2M28.4-4.06a5.77,5.77,0,0,0,.33,2.21,5.46,5.46,0,0,1,0,3.31,15.29,15.29,0,0,0-.11,5M26-7.12c.61,2.53,1.05,5.34.67,6.77a9.88,9.88,0,0,0-.33,3.86m-1.78-3a18.85,18.85,0,0,1-.76,3.11,7.4,7.4,0,0,0,.11,3.53M24-5.92c.54,2.7,0,5.49,0,4.78m-2.77-6a11.4,11.4,0,0,1,.5,5.86,24.37,24.37,0,0,0-.35,7.05M19,1.4a12.28,12.28,0,0,0-.38,4.74M20-4.59c.61,1.33.34,3.68.23,4.51M17.14-6.3c.5,2.1,1.05,3.25.33,5s-1.16,3.09-.94,4.36M14.32.18A32.27,32.27,0,0,0,15.6,6.64M12.28-6.13a12,12,0,0,1,.06,5.6c-.55,1.77-1,3.37.05,5.3M9.69-2.85A7.85,7.85,0,0,1,9.36.3,10.59,10.59,0,0,0,9.8,6.17M7-.35C6.49,1,6.76,6,7.15,7.14M4.39-5.57a9.15,9.15,0,0,1-.11,5,7.41,7.41,0,0,0-.17,4.74M1.74,1C1.3,2.34,2,5.7,2.62,6.91M53.7,28.2c-.22,1.32-1,4.72.07,6.87m-.91-13.46a7,7,0,0,1,.79,3.89m-3-1.71c.5,2.15.78,2.87.5,4.74a15.66,15.66,0,0,0-.22,4.25m-2.65-3.14a18.83,18.83,0,0,0,.55,5.49M47.48,21a32.88,32.88,0,0,1,1.05,6.39M45,19.9c1,1.63,1.39,6.2.94,8.36a9.18,9.18,0,0,0,.33,5.29m-5.07-9.71c.16,2.26.22,2.32-.22,4a12.48,12.48,0,0,0,.26,6.09m-2.7-5.31a15.81,15.81,0,0,0-.33,4.3,15.75,15.75,0,0,1,.15,2.9M38,21.67a13.16,13.16,0,0,1,.86,4.93m-4.76,1.49a16.77,16.77,0,0,1-.28,2.76,16,16,0,0,0,0,4.38m-.24-12.44A22.31,22.31,0,0,0,34,26.43m-3.11-2A8.27,8.27,0,0,0,31.2,27a5.54,5.54,0,0,1,0,3.31,6.88,6.88,0,0,0,.21,3.56m-3-9.79c.61,2.54,1,3.81.66,5.24a10.28,10.28,0,0,0-.33,3.86m-2.63-4.91a7.71,7.71,0,0,1-.33,2c-.27,1,.68,6.27,1,7m-.11-15.24a19.08,19.08,0,0,1-.26,3.78m-2.65-2.32c.61,2,.94,2.81.5,4.64s-.89,3.75-.61,4.79m-1.49-3.8a15.46,15.46,0,0,0,0,5.51m-.4-12.18a10.32,10.32,0,0,1,.82,4.24m-2.92-3.2c.5,2.1,1.05,3,.33,4.8s-.61,5.29-.39,6.56m-2.46-4.84a9.16,9.16,0,0,0,.34,3.36M17,22.28c.39,1.6,1.14,2.72.81,3.94s-.61,1.76-.72,2.37m-2.32-4.8a8.08,8.08,0,0,1,.06,4.58c-.56,1.76-1,3.36,0,5.29m-2.71-7.61a7.45,7.45,0,0,1-.33,3.14c-.44,1.82-1,5-.36,6.15M9.51,29a12.56,12.56,0,0,0,0,5.76M9,22.29a10.31,10.31,0,0,1,.34,4.3M6.86,24.17a6.29,6.29,0,0,1-.12,4.14,7.39,7.39,0,0,0-.16,4.74M4.21,29.91c-.45,1.32.15,4.43.76,5.64M4.1,22.79a9.38,9.38,0,0,1,.77,3.76c-.11,1.1-.39,1.71-.33,1.87m-2.49-4c.44,2.21.61,2.87.06,4.8s-.78,3.31-.28,4.8M9.45,17.83a21.5,21.5,0,0,0,2.08,5.51M2.46,9.5a12.89,12.89,0,0,1,.28,6c-.5,1.77-.83,4.09-.11,5.52m2-4.08a5.86,5.86,0,0,0-.11,3,17.63,17.63,0,0,0,1,2.07m-.24-15a12,12,0,0,1,.22,4.57A13.49,13.49,0,0,0,5.23,14M8.09,9.52c-.28,1.76-.64,5-1,6.22s-.83,3.58,0,5m28.28-26c1,1.22,1.2,9.72,1.2,9.72M10.06,8.07a12.09,12.09,0,0,1,.11,5,6.25,6.25,0,0,0-.33,2.2m2.81-.6c-.5,1.93-.67,4.88.6,6.92M12.06,6.5a18.29,18.29,0,0,1,1,4.77m2.28-2.48a12.19,12.19,0,0,1,.11,5.62,10.82,10.82,0,0,0,.33,6.12m2.33-2.75a32.64,32.64,0,0,1,.5,4.35M17.29,6.89c.61,2.7,1.2,4.87.81,6.8A12.9,12.9,0,0,0,17.66,16m2.69-1.38c-.33,1.55-.55,4.52.39,6.07M20.13,7.3A12.61,12.61,0,0,1,21,11.87m2-3.1a31.67,31.67,0,0,1,.06,6.86,12.84,12.84,0,0,0,.16,5m2.47-6.45A14,14,0,0,1,25.4,16c-.22,1.27-.33,3.59.28,4.75m.57-14.62c.44,1.71-.07,4.58-.29,5.79m2.48-2.54a13.72,13.72,0,0,1-.22,5.3,11.26,11.26,0,0,0-.39,4.41m2.8-3.27c-.74,3.46-.9,6.66-.41,7.47M31,7a18.75,18.75,0,0,1,0,6.52m3.09-3.2a10.87,10.87,0,0,1-.55,5.13,8.71,8.71,0,0,0-.17,5.41m2.76-4.91c-.33,1.32-.33,3.92.17,4.69m.27-13.46a19.74,19.74,0,0,1,0,6.73m2.82-3a17.71,17.71,0,0,1-.33,4.87c-.34,1.43.63,5.37,1.24,6.47m.46-20a17.25,17.25,0,0,1,.33,2.61m1.22,8.37c-.33,2.26-1.22,6.63.43,8.45M41.64,6.69a12.33,12.33,0,0,1,.82,4.52m2.87-2.92a9.39,9.39,0,0,1-.22,5.24c-.55,2.15-.39,3.07.55,4.56m2.93-3.9c-.05,1.16-.22.72-.33,2s1,4.09,1.72,5.41M48.86,6.45a11.52,11.52,0,0,1-.21,5.42m3-2.58a10.56,10.56,0,0,1-.22,4.52,7.14,7.14,0,0,0,0,4.31m2.65-3.8A15.62,15.62,0,0,0,54.23,20m-.4-13a15.44,15.44,0,0,1,.11,4.63"/></svg>