<svg id="Capa_1" data-name="Capa 1" xmlns="http://www.w3.org/2000/svg" viewBox="0 0 54.12 40.98"><defs><style>.cls-1,.cls-2{fill:none;stroke:#000;}.cls-1{stroke-width:0.5px;}.cls-2{stroke-width:0.3px;}</style></defs><title>686 Loess 3ra opción</title><line class="cls-1" x1="-0.69" y1="25.59" x2="7.05" y2="25.59"/><path class="cls-2" d="M.71,33.53c-.06,1.16-.22.72-.33,2a7.15,7.15,0,0,0,.49,4.24m-.33-13a7.25,7.25,0,0,1,.22,4.42m2.65-3a10.56,10.56,0,0,1-.22,4.52,7.11,7.11,0,0,0,0,4.3m2.32-3.53a15.62,15.62,0,0,0,.11,5.63m0-12.36a15.53,15.53,0,0,1,.11,4.64"/><path class="cls-1" d="M2.89,12.25H7.07m-15,0H-.08"/><path class="cls-2" d="M5.57,14.34a11.6,11.6,0,0,1,0,4.36,9.4,9.4,0,0,0,.17,4.8m-2.1-4.85c-.22,1.32-1.33,3.47-.28,5.62m0-11a11.27,11.27,0,0,1,.27,2.7m-3-1.71C1,16.39,1.31,17.1,1,19a14.79,14.79,0,0,0-.22,4.24"/><path class="cls-1" d="M53.44,25.59h7.74m-18.59,0h7.87m-18.9,0h7.87m-19,0h7.88m-19.13,0H17"/><path class="cls-2" d="M15.69,37.17a6.59,6.59,0,0,0,.94,3.09M8.7,28.84a12.8,12.8,0,0,1,.28,6c-.5,1.76-.83,4.08-.11,5.51m2-4.08a5.65,5.65,0,0,0-.11,3c.27.78.44,1.33.44,1.33m.11-13.24A12,12,0,0,1,11.53,32a13.34,13.34,0,0,0-.28,2.37m2.94-3.09a30.26,30.26,0,0,1-.83,3.81c-.33,1.21-.83,3.58,0,5m0-13.35a18.22,18.22,0,0,1,.55,2m2.39-1.27a11.93,11.93,0,0,1,.11,5,6.27,6.27,0,0,0-.33,2.21M18.89,34c-.5,1.93-1.27,4.08,0,6.12M18.67,26.8a10.84,10.84,0,0,1,.61,3.81m2.27-2.48a12.19,12.19,0,0,1,.11,5.62A11,11,0,0,0,22,39.88m1.64-2.38a26.88,26.88,0,0,1,.82,2.71m-.66-13c.61,2.7.94,3.91.56,5.85a12.34,12.34,0,0,0-.45,2.31M26.59,34C26.26,35.52,26,38.5,27,40m-.61-13.4a12.41,12.41,0,0,1,.83,4.58m2.31-2.16A22.5,22.5,0,0,1,29.29,35a12.84,12.84,0,0,0,.16,5m2.47-6.45a15.52,15.52,0,0,1-.27,1.87c-.22,1.27-.34,3.59.27,4.75m0-13.3a10.69,10.69,0,0,1,.28,4.47m2.48-2.54a13.72,13.72,0,0,1-.22,5.3,11,11,0,0,0-.38,4.41m2.53-3a9.46,9.46,0,0,0,.28,4.8m.39-13.52a16.53,16.53,0,0,1,0,6.12m3.09-3.19a10.88,10.88,0,0,1-.55,5.13,8.68,8.68,0,0,0-.17,5.4m2.76-4.91c-.33,1.33-.33,3.92.17,4.69m.27-13.46a19.74,19.74,0,0,1,0,6.73m2.82-2.1A11.47,11.47,0,0,1,45.34,35c-.33,1.44-.66,4-.06,5.08m0-13.63a13.63,13.63,0,0,1,.33,2.15m3,3.86c-.34,2.27-1.55,5.46.1,7.28M47.88,26a12.33,12.33,0,0,1,.82,4.52m2.88-2.92a9.57,9.57,0,0,1-.22,5.24c-.56,2.15-.72,4.47.22,6m3.25-5.3c0,1.16-.22.72-.33,2a7.16,7.16,0,0,0,.5,4.24"/><path class="cls-1" d="M46.17,12.25H54m-18.72,0h7.87m-18.9,0h7.87m-19,0H21m-14.13,0H9.74"/><path class="cls-2" d="M52.06,20.08a8,8,0,0,0,.06,3.48m.05-10.32a10.44,10.44,0,0,1,.39,3.64m-3-3.14a9.89,9.89,0,0,1,.11,5A9.23,9.23,0,0,0,50,24m-2.6-10.81a7.67,7.67,0,0,1,.11,3c-.22,1.16-.5,1.82-.55,2.27m-.55,2.15a11,11,0,0,0,.49,3.75m-2.32-10c.17,2.26.23,2.32-.22,4s-.71,3-.16,4.3M41.43,19a15.88,15.88,0,0,0-.33,4.31,10.91,10.91,0,0,0,.39,1.48m-.11-11.91a8.82,8.82,0,0,1,.38,4.14m-3.09-1.44a13,13,0,0,1,.5,5.57m-1.88-2.64A15.52,15.52,0,0,1,37,21.29a8,8,0,0,0,.11,3.2M36.8,13.24a23.83,23.83,0,0,0,.38,3.64m-2.54-2A8,8,0,0,0,35,17.49a5.54,5.54,0,0,1,0,3.31,6.68,6.68,0,0,0-.17,3.25m-2.6-9.48c.61,2.53,1,3.8.67,5.24a9.87,9.87,0,0,0-.33,3.86m-2.38-4.91a7.71,7.71,0,0,1-.33,2A7.53,7.53,0,0,0,30,24.33m-.11-11a18.41,18.41,0,0,1,.33,3.09m-2.65-2.32c.61,2,.94,2.81.5,4.63s-.88,3.75-.61,4.8m-1.49-3.81a12.35,12.35,0,0,0-.38,4.75M25.48,13a10.2,10.2,0,0,1,.83,4.25m-2.93-3.2c.5,2.09,1.05,3,.33,4.8s-1.16,3.09-.94,4.35m-2.2-2.42A11,11,0,0,0,21,24.55m.27-11.42c.39,1.6.61,2.32.28,3.53S21,18.43,20.84,19m-2.32-4.8a8,8,0,0,1,.06,4.58c-.55,1.77-1,3.37.05,5.3m-2.7-7.61a7.81,7.81,0,0,1-.33,3.14c-.44,1.82-.55,3.86.05,5m-2.37-5.24A8.62,8.62,0,0,0,13,24.11m.38-10.37a10.31,10.31,0,0,1,.34,4.3m-3-3.42a6.35,6.35,0,0,1-.11,4.14,7.48,7.48,0,0,0-.17,4.74M8,20.36a5.89,5.89,0,0,0,.11,4.24M7.87,13.24A9.36,9.36,0,0,1,8.64,17c-.11,1.11-.38,1.71-.33,1.88"/><line class="cls-1" x1="1.21" y1="0.26" x2="7.08" y2="0.26"/><path class="cls-2" d="M6.51,2a6.77,6.77,0,0,1-.17,2.92,16,16,0,0,0-.11,5.85M4.41,5.44a13.23,13.23,0,0,0-.56,2.15,15.66,15.66,0,0,0,.06,3.32m.33-9.44a9.3,9.3,0,0,1,.39,2.32M1.48,2.3a8.38,8.38,0,0,1,.28,3.91A16.5,16.5,0,0,0,1,11m-2.6-9.37A17.91,17.91,0,0,0-.95,4a4.69,4.69,0,0,1-.33,3.53,5.51,5.51,0,0,0-.39,2.59M5.82-6.58C5.6-5.26,4.49-3.11,5.54-1M2.78-11c.5,2.16.77,2.87.5,4.75A14.85,14.85,0,0,0,3.06-2M.4-5.15A8,8,0,0,0,.46-1.67"/><path class="cls-1" d="M44.5.26h7.87M33.64.26h7.88m-18.9,0h7.87m-19,0h7.87M6.85.26H8.06"/><path class="cls-2" d="M42.14-11c.17,2,.67,2.34.34,4.85s-.67,3.68-.34,4.68m10.43,3.1A17.91,17.91,0,0,0,53.18,4a4.69,4.69,0,0,1-.33,3.53,5.26,5.26,0,0,0-.39,2.59m-2-3.54a17.18,17.18,0,0,1-.81,4.32m.91-9.33A7.74,7.74,0,0,1,51,4.12M48.26,2a5.07,5.07,0,0,1,0,4.64c-.71,2-1.16,3.64-.88,4.74M45.56,7a6.33,6.33,0,0,0-.28,3m.55-8.27a3.44,3.44,0,0,1,.56,2.59m-2.82-2c.44,2.37.5,3.36-.17,4.8a6.5,6.5,0,0,0-.49,4.35M41,6.77a10.63,10.63,0,0,0-.22,4.14M41,2a10.49,10.49,0,0,1,.39,2.59M39.06,2.19a6.4,6.4,0,0,1,.06,4.19A10,10,0,0,0,38.73,11m-2.1-3.36a6.8,6.8,0,0,0-.33,3.14m.83-9.1a5.6,5.6,0,0,1,.28,2.87M35,1.15a6.61,6.61,0,0,1-.22,4.19,14.58,14.58,0,0,0-.22,5.74M32.22,7.65a6.9,6.9,0,0,0,0,2.59m.27-8.49a7.9,7.9,0,0,1,.34,3.31M30.46,2c.5,2,.67,3,.17,4.3a8.44,8.44,0,0,0-.44,4.36M28.08,7.15a18.59,18.59,0,0,1-.48,3.26m.15-8.88a10,10,0,0,1,.6,3.19M25.88,2.41c.49,2,.55,2.87,0,4.36a7.18,7.18,0,0,0-.34,4.3M23.62,6a11,11,0,0,0-1.08,4.42m.8-8.55a5.44,5.44,0,0,1,.5,2.59M21.42,2.57c.11,1.93.34,2.38-.33,4.09a7.14,7.14,0,0,0-.55,4.24M18.39,6.38a17.76,17.76,0,0,0-.52,3.86m.69-9a5.64,5.64,0,0,1,.27,3.64M16.19,3.5A6.13,6.13,0,0,1,15.8,6a11.06,11.06,0,0,0,.11,4.86m-2.7-3.52a8.78,8.78,0,0,0,0,3.26m.77-9a7.76,7.76,0,0,1-.44,4M11.54,2.57a10.27,10.27,0,0,1-.44,4,9.13,9.13,0,0,0,0,4.25M9.11,6.71c-.44,1.38-.83,3.92-.44,4.85M9,1.3a10.52,10.52,0,0,1,.33,3.92M54.53-5.15a8.16,8.16,0,0,0,0,3.48M52-11.49a9.78,9.78,0,0,1,.11,5,9.13,9.13,0,0,0,.34,5.3M49-4.65A11.24,11.24,0,0,0,49.5-.9m-2.09-10c.17,2.26.22,2.32-.22,4s-.72,3-.17,4.3M44.76-6.2a15.49,15.49,0,0,0-.33,4.31,10.3,10.3,0,0,0,.38,1.48M40.33-6.69a17.65,17.65,0,0,1-.27,2.75,7.77,7.77,0,0,0,.11,3.2m-3.06-9.65a8.31,8.31,0,0,0,.33,2.65,5.46,5.46,0,0,1,0,3.31,6.77,6.77,0,0,0-.16,3.25m-2.6-9.48c.61,2.53,1,3.8.67,5.24A10.11,10.11,0,0,0,35-1.56M32.64-6.47a8.14,8.14,0,0,1-.33,2A7.4,7.4,0,0,0,32.42-.9M30-11.16c.61,2,.94,2.81.5,4.63s-.89,3.75-.61,4.8m-1.49-3.8A12.31,12.31,0,0,0,28-.79M25.85-11.16c.5,2.09,1,3,.33,4.8S25-3.27,25.24-2M23-4.43a11,11,0,0,0,.45,3.75M21-11a8.08,8.08,0,0,1,.06,4.58c-.55,1.77-1,3.37.05,5.3M18.4-8.73a7.81,7.81,0,0,1-.33,3.14c-.45,1.82-.56,3.86.05,5M15.75-5.81a8.62,8.62,0,0,0-.33,4.69M13.1-10.61A6.35,6.35,0,0,1,13-6.47a7.34,7.34,0,0,0-.17,4.74M10.45-4.87a5.89,5.89,0,0,0,.11,4.24m-2.27-9.7c.45,2.2.61,2.86.06,4.8s-.77,3.3-.28,4.79"/></svg>