<svg id="Capa_1" data-name="Capa 1" xmlns="http://www.w3.org/2000/svg" viewBox="0 0 43.33 42.88"><defs><style>.cls-1{fill:none;stroke:#000;stroke-width:0.3px;}</style></defs><title>701 Metamorfismo</title><path class="cls-1" d="M26.46,33.68l3.26.76m.12,8,4,1.13m-1.5-7.52L30,38.57m21.55-1.75L51.64,40m-1.75-6.52-2.26,1.51m-3,1.25-2.76-1.75M43,38.94,40.87,41.7M46.5,40l2.7,2.05M35.6,36.82l3.39.12m-3.51,3.63,2.25,2.63m-12.19.25-2.13,2.63m-8.89-5.63L12,43.08m6.77-2.63.62,3m3.51-6.63,2.76,2.25m-7.52-3.19,2-2.38m-8.4.74,2.51,1.26M8.38,36.82,8.5,40M6.75,33.43,4.49,34.94m-3,1.25-2.76-1.75m56.76,1.75-2.76-1.75M-.14,38.94-2.27,41.7M3.37,40l2.69,2.05"/><path class="cls-1" d="M41.25,22.12l2.39,3.13M46.06,14.9,42.92,17M49,18.11l3.36-1.69M46.18,20l3.26,1.37m-3,7.39,1.13-3.13m5.1,6.74-1.76-3m5.45-3.33-3.54-1.87m3.4-5.93-2.13,2.88m.25-8.39,3.25,2M48.19,11.9l3.38-.5M47.69,6.89,45.06,9.64m6.41-7.37,1.05,3.49M44.43,2.25l3.51.63m-7.39.38L41.67,7m-1.12,3.88,2.5,2M37.54,7.26l-2,3M37,4.13l-4.14.25m0,9.14,3.63.13m1.41,3.76L35.19,20m-.41,4.69L38.16,24m1.45,7.6,3.13-2.13m-8,2.94L33.65,29m-5.38-.65-1.63,3m1.25-8.77,2.88,2m-.11-8.85-.38,3.63m.37-9.3-3,2.38m1.25-9L30,7M29.9-.38l4,1.13m23.56,7L54.58,9.14m-19-11.39L37.79.38M2.9,14.93-.24,17.06M7,19.11,8.3,15.58M3.38,21.3l3.26,1.38M2.76,30.45l1.13-3.13m5.63,4.46-1.76-3m5.66-2.71h-4m5.16,5.34,2.76-3.13m.73-3.69-1.5-3.26m-3.51-2.15-2.13,2.88m.25-9.24,3.26,2M5,11.93l3.38-.5M2.84,6,1.9,9.68M9.37,3.15,7.5,6.28m-6.23-4L4.41,4m-7,7,2.51,2M-3.39,30.78l3.13-2.13m21.58.57,1.25,3m-.63-6.52,3.64.25m-5-9.27-3.5-.5m8,3.25-2.76,1.63m.75-9,1.75,2.75M18.31,8.92l-1,3.39m-3-4.51L11.42,9.18m6.69-5.51-4,1.17m7.93,2.21,3.38,1.12M25.58.66,23.45,3.29m-8.9-5.64L12,.28m6.77-2.63.63,3"/></svg>