<svg id="Capa_1" data-name="Capa 1" xmlns="http://www.w3.org/2000/svg" viewBox="0 0 57.39 46.92"><defs><style>.cls-1,.cls-2,.cls-3,.cls-4,.cls-5{fill:none;stroke:#000;stroke-linecap:round;}.cls-1{stroke-width:0.6px;}.cls-2{stroke-width:0.8px;}.cls-3{stroke-width:0.7px;}.cls-4{stroke-width:0.9px;}.cls-5{stroke-width:0.65px;}</style></defs><title>702 Cuarcita</title><path class="cls-1" d="M6.85,40.11h0m12.3,2.63h0m5.77,1.63h0m-12.67.13h0m-2.07,1.63h0m7.72-5.58h0M14.57,41h0M8.92,42.87h0M5,43H5M2.46,41.3h0M1.27,44.12h0m2.82,1.7h0m2.76-.63h0m26,.81h0m-5.9,0h0m-5.52-5.64h0M24,41.49h0m2.51,1.38h0m.38-2.26h0m3.26,0h0m-.5,2.76h0m2.63-1h0M22.41,43h0"/><path class="cls-2" d="M17.48,44.39h0m1.44.4h0m1.37.23h0m1.42.15h0m1.33,0h0"/><path class="cls-3" d="M14.46,43.1h0m1.67.72h0"/><path class="cls-1" d="M11.09,41.4h0m1.68.92h0"/><path class="cls-1" d="M56.46,41.3h0m-2.76-.75h0m-1.13,2.57h0m2.7,1h0m-4,1.63h0m-2-1.63h0M35.42,45.78h0m-1-5.42h0m14.43.45h0m-2.64.37h0m-2.09,1.61h0m-2.61-1.58h0m-.82,2.55h0m-2.92-2.84h0m.16,2h0m-2.63,0h0m2.63,2.47h0"/><line class="cls-2" x1="53.95" y1="46.46" x2="53.95" y2="46.46"/><path class="cls-3" d="M47.12,44.65h0m-.61,1.48h0M50.6,41.7h0M49,42.36h0M47.76,43h0m-1.29.63h0m-1.59.65h0m-1.25.64h0m-1.6.66h0m-1.57.77h0"/><path class="cls-1" d="M1.33,38.26h0m3,.33h0M1.71,35.88h0m-.25-2.51h0m2.13-2.13h0m.25,3.39h0m2.89,2h0M9.11,38h0m5.08-1.32h0m-4.07-.87h0m-1.89-2.2h0m-.62-2.76h0M6.48,27.73h0M9.36,29h0m1.51,3.76h0m2,1.84h0m4.68-3h0m-3.26.75h0m-2-2.51h0m.25-2.38h0M8.61,26.35h0m2.13-1.25h0m-3.63-.63h0M.83,24.1h0m2.39-1.38h0M2,20.71H2m2.51-1.38h0m-3.26-1h0m.5-11.28h0M3.34,4.79h0m-1.5-3h0M4,8.61H4m3.57.25h0m3.08-.75h0M9.87,22.72h0M7.48,21h0m2.64-.88h0M7.23,18.45h0m2.64-.75h0M7.11,16.2h0m-3.77.37h0m1.76-2h0m-3.64-.13h0m1.63-2.13h0m3.76.25h0M10,14.44h0m2.51-1.38h0m2.38,1.76h0M12.63,16.2h0m3,1.13h0m-1.76,2h0m-1.25,2.51h0m2.76.12h0M13.76,24.6h0m1.75,5.14h0M15.39,27h0m2.88,1.88h0m1-2.63h0m2,1.63h0m.38-2.76h0m2.76-.75h0m-7.78,0h0m3.14-4.27h0M21,22.34h0m3.89-.5h0m3.77,8.4h0m-4.27,3.13h0m8.28,4.77h0m.13-5.4h0m-.76,3.14h0m-2.25,2.51h0m-6.28.12h0m-6-.88h0m.75-2.13h0M19.78,39h0m.88-2.25h0M21,34.12h0m2.64,2.13h0m3,1.51h0m2.63-2h0m1-2.25h0M26.8,34.88h0m1.26-2.39h0M15.51,39.26h0m7.4-8.14h0m2.76,0h0m.76-2.51h0m6.4-.67h0m-1.38,2.92h0m-.88-2.63h0M28.69,27h0m2.13-1.26h0m1.63-2h0m-4.52-2.63h0m4.65-3.89h0m-2.39,1.63h0m.38-3.13h0M32.91,12h0m-2.34,1.34h0m-2.13,1.21h0m-.51,2.88h0M25.8,19.21h0m-.38-2.64h0m-2.51,2.64h0M19.4,18h0m.46-2.42h0m2-2.68h0m2.84-1.33h0m-2-4.18h0m-1,2.51h0m-1.92,1.58h0m-.25-3.26h0M18.15,9.55h0m-3.39,2.13h0m.63-2.25h0m-2.89.75h0m.69-2.63h0m-.12-3h0M16,4.79h0M32.32.9h0m.26,6.9h0m-4.52,2.55h0m1.38-2h0m-4.06.54h0m-.46-2.67h0M20.36,5.5h0m2.51-.84h0m-.08-3h0m3.26,2.25h0M27.72,7h0m3.22-.71h0M32.7,5h0m-3.64-.21h0m-1-1.92h0M29.82,1h0m1.63,1.88h0m-13-1.69h0m-2.76.31h0m-3.26.13h0M10.43,4h0M8.86,6.23h0m-2.07-2h0M5.66,6.73h0M8.11,1.66h0m-3.39.18h0"/><path class="cls-2" d="M18.58,22.78h0M19.15,24h0"/><line class="cls-4" x1="18.15" y1="21.41" x2="18.15" y2="21.41"/><path class="cls-2" d="M.46,31.66h0M17.6,18.59h0m.21,1.47h0"/><path class="cls-3" d="M3.92,26h0M3,27.48H3M2.29,28.7h0M17.58,15.31h0M1.33,30.14h0M17.52,17h0"/><path class="cls-2" d="M26,13.9h0M21.7,17h0M23.12,16h0m1.47-1.11h0"/><path class="cls-3" d="M31.66,9.93h0m-2.93,1.92h0m1.42-1h0m-2.73,2h0"/><path class="cls-2" d="M4.78,10.3h0m5.21,1h0M8.23,11h0m-1.81-.33h0"/><path class="cls-3" d="M1.41,9.69h0m1.65.25h0"/><path class="cls-2" d="M19.37,3h0M16.1,7.17h0m1.07-1.43h0m1.12-1.46h0"/><path class="cls-3" d="M4.72,28.32h0m.33,1.56h0m.41,1.67h0m.43,1.33h0m.42,1.37h0m0-12.1h0m-.95,1.43h0m-.68,1.23h0M25.55,1.91h0M24.46.9h0m-4,.74h0"/><path class="cls-5" d="M17.79,11.54h0m-.17,1.91h0"/><path class="cls-3" d="M13,37.76h0m-1.19,1.13h0m4.64-4.33h0m-1.13,1.07h0"/><path class="cls-5" d="M19.2,32.46h0m-1.54,1.13h0"/><line class="cls-3" x1="20.56" y1="31.24" x2="20.56" y2="31.24"/><path class="cls-5" d="M33.23,20.23h0M32,21.42h0m-1.19.93h0m-1.25,1.13h0m-1.2,1.19h0m-1.23,1h0M26,26.84h0m-1.18.93h0m-1.26,1.14h0M22,30h0"/><path class="cls-1" d="M42.54,6.8h0M43,4.54h0m8.53-2.13h0M41.22,9.18h0M43.48,12h0m4.45,11.47h0M34.51,6.92h0M34.2,9.85h0m2.63-.67h0M35.38,38.43h0m4.66.5h0m-1.48-2.58h0m2.68.07h0m2.53,2.34h0m4-.4h0m-1.7-1.1h0m2.37-1.17h0m-4.68-.84h0m2.55-1.44h0m-6.52-.44h0m2.88-.25h0m7.61,1.63h0m-.83-2.13h0M47.05,31h0m-2.63.5h0m-2.51-1.25h0M44.42,29h0m-9.6,7h0m.56-2.22h0m1.51-3h0m-2.6-.07h0m3.8-2.25h0M35,25.82h0m4,.07h0m-3.16,2.17h0m7.65-1h0m-2-2.5h0m-4.39-.5h0m2-1.51h0M35,22.25h0M37,20.46h0m-2.89-5.27h0m1.63-2.63h0M38,11.68h0m1.25,2.76h0m-2.51.88h0m1.76,2.88h0M40.9,17h0m-.25,3.63h0m2.51-1.12h0m2.39,1.75h0M45.3,25h0m1.63,3h0m2.63,1.76h0m2.51,1.75h0m1-2.38h0m-2.51,9.78h0m2.25-2h0m2.51,1.38h0m.38-2.38h0m-.25-2.51h0m-7.4-7.52h0m2.38,1.25h0m3-1h0m-2.13-2h0m3.51,0h0m-1.63-2h0M56,20.71h0m-.75-2.38h0m-4.39,2.88h0m1.25-2.51h0m-3.39.13h0m1.51-2h0m-3.39-.25h0m-1.5-1.88h0m1.06-1.88h0m2.26,1.38h0m1.57-2.82h0m-3.07-1.19h0M44,9.24h0m2.45-1.82h0m-.25-2.63h0m3.64,3.32h0M52.51,6h0m3.2,1h0M54.33,4.1h0m1.51-2.32h0m-2,14.67h0m1.63-2h0M52,14.57h0m1.5-2.26h0M43.16,22.47h0m-7.4-18h0m5.27-2h0M37.39,6.54h0M39.9,5.29h0M38,2.53h0m-3.08-.81h0"/><path class="cls-2" d="M49.72,1.27h0M51.18.94h0M52.49.49h0"/><path class="cls-3" d="M49.52,5.79h0m-.59-.92h0m-.75-1.08h0M47.43,2.7h0m-1-1.13h0m1.81-.16h0"/><path class="cls-1" d="M42.68,1.68h0m1.91,0h0"/><path class="cls-2" d="M38.8,31.77h0M38,33h0m-.61,1.25h0m-.55,1.32h0m-.34,1.28h0m18-5.22h0m-.87,1.45h0m-.93,1.26h0m-.86,1.36h0M50.94,37h0"/><path class="cls-3" d="M52,8.85h0m3.4.84h0m-1.7-.36h0M57,27.48h0m-.67,1.22h0m-1,1.44h0M41.44,27.72h0m-.84,1.44h0m-.81,1.3h0"/><path class="cls-5" d="M35.58,18.06h0m-1.2,1.19h0"/><path class="cls-2" d="M44.79,17.7h0m1,1.06h0m1.08.87h0m1.17.84h0m1.17.62h0"/><path class="cls-3" d="M42.8,15.09h0m1.1,1.45h0"/><path class="cls-5" d="M38.71,8.69h0m1,1.63h0m1,1.63h0m1,1.62h0"/></svg>