<svg id="Capa_1" data-name="Capa 1" xmlns="http://www.w3.org/2000/svg" viewBox="0 0 51.59 41.2"><defs><style>.cls-1,.cls-2{fill:none;stroke:#000;stroke-linecap:square;}.cls-1{stroke-width:0.5px;}.cls-2{stroke-width:0.3px;}</style></defs><title>703 Pizarra</title><path class="cls-1" d="M15.37,32.08c-1.63,2.26-6,7.56-9.16,11.05m-4.91-8c-.36.77-4.88,6.79-5.63,8v0M16.22,16.89l0,0c-3.2,4.2-8,12.51-10.48,14.47M-6,22.55A30.05,30.05,0,0,0-3.77,20C-.7,16.23,4.41,11.73,6,8.38M-.41-5.33C-2-2-7.09,2.51-10.16,6.33c-.84,1-1.6,1.91-2.19,2.5"/><path class="cls-2" d="M-28.84-5.38,2.5,26m0,0L16.22,39.66M-49.06-29,16.22,36.21m0-3.44L-5.45,11.12M16.22,29.38l-20-20m20,16.52L-2.17,7.5m18.39,15L-.62,5.66M16.22,19.05.91,3.75m0,0L-9.76-6.91m26,22.51L-8.26-8.86m24.48,21-23-23m1.47-2L13.35,5.85m2.87,2.86L13.35,5.85m2.87-.58L15,4M-3.86-14.79,15,4M-2.41-16.79,16.22,1.82M2.52,43.13-25.43,15.2M5.91,43.13-3.83,33.4M9.35,43.13-2.19,31.6M-31.86-1.5-.58,29.76M12.8,43.13-.58,29.76M.93,28,16.12,43.13M.93,28-30.39-3.35M.93,28c-.49.59-1,1.2-1.51,1.81m0,0c-.53.62-1.07,1.23-1.61,1.84M2.5,26l.57-.77M2.5,26c-.48.64-1,1.31-1.57,2m0-24.2M2.59,2.37c-.32.44-.67.9-1,1.37M0,5.65C.57,5,1.08,4.36,1.56,3.74M7.87,0c-.31.44-.66.9-1,1.37M5.31,3.29q.81-1,1.53-1.92m44.75,4.3c-.31.43-.66.89-1,1.36M49,9Q49.84,8,50.56,7M11.7,7.64c.54-.58,1.09-1.17,1.65-1.79m0,0Q14.16,5,15,4M11.7,7.64l-.68.7M15,4l1.25-1.47"/><path class="cls-1" d="M61.81,26.91c-1.67,3.38-7.65,11.66-11.41,16.22M33.48,37.29a67.71,67.71,0,0,0-5.35,5.84M57.57,13.79c-1.57,3.34-6.68,7.85-9.75,11.66A30.05,30.05,0,0,1,45.63,28m-7.42-12C36,19.51,26.59,31.1,22.64,34.25M16.22,16.89a27.43,27.43,0,0,0,1.88-2.71M31.94-3.11A83.32,83.32,0,0,1,19.23,11.35m20.1.47C42.09,9.06,50.45-1,52.45-5.28"/><path class="cls-2" d="M43.37-5.45,74.71,25.87m-51.55-55L88.43,36.14M26.6-29.09,66.77,11.05M30-29.09,68.4,9.29M37-25.58l33,33M16.23,39.65l3.41,3.41m-3.41-6.85,6.86,6.85m-6.86-10.3,10.31,10.3M16.23,29.39,30,43.06M16.23,25.87l17.2,17.19M16.23,22.49,36.82,43.06m-20.6-24L40.27,43m3.5.05-1.92-1.92M16.23,15.61,22.67,22m0,0L41.85,41.14m-25.63-29,8,8.08M47.1,43.06l-3.78-3.77m-19.06-19L43.32,39.29M16.23,8.71l9.67,9.67m0,0L50.61,43.06M16.23,5.27,27.48,16.5M54.05,43.06,27.48,16.5M57.56,43.06,29,14.55M16.26,1.85l.47.47m0,0L29,14.55M61,43.06,40.51,22.64m0,0L18.16.31M16.23-1.62,18.16.31M16.23-5,42.09,20.84M64.33,43.06,42.09,20.84M67.78,43.06,43.67,19M16.23-8.45,43.67,19M16.23-11.9,34.09,6m37.14,37.1-26-26M34.09,6,45.22,17.07m29.52,26L46.79,15.13m-11.07-11L16.23-15.4M35.72,4.08,46.79,15.13M37.27,2.24,68.38,33.33M37.27,2.24l-12-12M70,31.53,49.79,11.3m-11-11,11,11m-11-11L26.9-11.57m13.46,10L71.63,29.69m1.51-1.81L41.82-3.42M40.27,43c.55-.63,1.07-1.25,1.58-1.87s1-1.25,1.47-1.85m0,0c.34-.43.66-.85,1-1.26M27.48,16.5c.54-.67,1.07-1.32,1.55-1.95m.81-1.09c-.25.35-.52.71-.81,1.09M25.9,18.38c.54-.63,1.07-1.26,1.58-1.88M22.67,22c.52-.55,1-1.13,1.59-1.73m0,0c.55-.61,1.1-1.24,1.64-1.86m-4.08,4.49.85-.9M32.9,7.25c.35-.36.75-.8,1.19-1.29m3.18-3.72L38.82.34l1.54-1.91M34.09,6c.5-.56,1.06-1.2,1.63-1.88m0,0,1.55-1.84m-21,.3c.14-.17.57-.63.71-.8.53-.64.74-.82,1.21-1.43m1.09-1.44M18.4,0m-.24.31L18.4,0"/></svg>