<svg id="Capa_1" data-name="Capa 1" xmlns="http://www.w3.org/2000/svg" viewBox="0 0 52.45 44.61"><defs><style>.cls-1{fill:none;stroke:#000;stroke-width:0.3px;}</style></defs><title>704 Granito esquistoso o gneisico</title><path class="cls-1" d="M5,20.26H2.86m9,9.16-.37-2.85M4.29,13.2l-.37,2.48m9.4.44-2.5-1.34m.9-13.17L8.66,1.8M5,6.66,1.68,6.17m10.19.89-.33,3.51M12,42l-.74-2.48m.51-5-2.44-.44m-5-8L1.2,25.64m2.74,6.53L2.47,34.64m2.89,6.44-2.54-2M-43.43,3.32A11.84,11.84,0,0,0-42.34,4a13.24,13.24,0,0,1,5.52,5.93c.9,1.73,4.17,4.38,6.52,5.48s5.38,4.28,5.93,5.93,4.14,5.1,5.94,6.07,5.1,4.13,5.79,5.65a16,16,0,0,0,5.93,5.93A15.05,15.05,0,0,1-.77,44.87a14.38,14.38,0,0,0,5.93,5.92,14.49,14.49,0,0,1,5.87,6M-43.43,9.82l0,.06c.9,1.73,4.18,4.38,6.52,5.48s5.38,4.28,5.94,5.93,4.14,5.1,5.93,6.07,5.11,4.13,5.79,5.65a16.07,16.07,0,0,0,5.94,5.93,15,15,0,0,1,5.93,5.93,14.38,14.38,0,0,0,5.93,5.92,14.51,14.51,0,0,1,5.88,6M11-2.25a12.89,12.89,0,0,0,4.65,5.57M4.4-2.25A12.83,12.83,0,0,0,10.14,4a13.25,13.25,0,0,1,5.49,5.87M-2.17-2.25A12.81,12.81,0,0,0,3.56,4,13.24,13.24,0,0,1,9.08,9.88c.9,1.73,4.18,4.38,6.52,5.48l0,0M-8.75-2.25A12.83,12.83,0,0,0-3,4,13.35,13.35,0,0,1,2.51,9.88C3.4,11.61,6.68,14.26,9,15.36s5.38,4.28,5.93,5.93a4.79,4.79,0,0,0,.67,1.19M-15.32-2.25A12.76,12.76,0,0,0-9.59,4,13.24,13.24,0,0,1-4.07,9.88c.9,1.73,4.17,4.38,6.52,5.48s5.38,4.28,5.93,5.93,4.14,5.1,5.94,6.07a9.67,9.67,0,0,1,1.31.88M-21.9-2.25A12.83,12.83,0,0,0-16.16,4a13.26,13.26,0,0,1,5.51,5.93c.9,1.73,4.18,4.38,6.52,5.48s5.39,4.28,5.94,5.93S6,26.39,7.74,27.36s5.11,4.13,5.8,5.65a11.83,11.83,0,0,0,2.09,2.86M-28.47-2.25A12.76,12.76,0,0,0-22.74,4a13.29,13.29,0,0,1,5.52,5.93c.9,1.73,4.17,4.38,6.52,5.48s5.38,4.28,5.93,5.93,4.14,5.1,5.93,6.07S6.27,31.49,7,33a16,16,0,0,0,5.93,5.93,15.34,15.34,0,0,1,2.74,2M-35-2.25A12.85,12.85,0,0,0-29.32,4,13.24,13.24,0,0,1-23.8,9.88c.9,1.73,4.18,4.38,6.52,5.48s5.38,4.28,5.94,5.93,4.14,5.1,5.93,6.07S-.31,31.49.38,33a16.07,16.07,0,0,0,5.94,5.93c2.76,1.51,5.21,4,5.9,5.69a14.46,14.46,0,0,0,3.41,4.45M-41.47-2.25A12.83,12.83,0,0,0-35.73,4a13.35,13.35,0,0,1,5.52,5.93c.9,1.73,4.17,4.38,6.52,5.48s5.38,4.28,5.93,5.93,4.14,5.1,5.93,6.07S-6.72,31.49-6,33A16,16,0,0,0-.1,38.94a15,15,0,0,1,5.93,5.93,14.35,14.35,0,0,0,5.94,5.92,12.28,12.28,0,0,1,3.86,3.08"/><path class="cls-1" d="M55.45,12.54l-2.85-.75M46.68,41.65l-.82,1.83m-18-1-2.68-.81M19.25,21.43l-2.07.49m1.38,5.46-2.18-.82M39.49,42.82l-.83-2.37m-5.82-5.77L31.12,36.3m1.51-6.69-.94-1.7m-6.92,5.55-1,2.25M18.57,13.88l-.32,2m6.69,5.35L23.67,23m3.42,7.32-1.17-2.17m7.82,15-1.42-2.45M20.9,45.14l-.75-3.35m18.5-7.66-1.52,1.09m-17.28-.74-3-.74M48.79,5,45.94,4.3m9.6,3.09L54.2,4.55m-19.68,14-1-2.73m17.83,23.8-1.65,1m-29-36.93L17.73,2M45.26,35.44l-.76-2m-12.34-13-.37,2.48M19.36,8.15,17.74,9.39M45.9,9l-.37,2.48M41.66,24.71l-3-1.86m18.07-4L54,17.46M37.27.54,35.66,1.78M49.46,31l-1,1.58m7.37-5.44-1.29-2.65m-5.24-6.14-.37,3m-20.6-4.86-2.37-.21m15.78-4.68-3.07.18m-2.4-6.63-2.12,1.1m6,22.58-2.41-.71M49.36,25.7l-3-.93m-3.66-6.31-2.92-1.3M32.73,9l-.12,2.73m-5.36-.93L24.64,9.68m3.59-4.76L25.62,3.8m-10-.49A9.14,9.14,0,0,0,16.72,4a13.21,13.21,0,0,1,5.51,5.93c.9,1.72,4.18,4.38,6.52,5.48s5.38,4.27,5.94,5.93,4.14,5.1,5.93,6.07,5.1,4.13,5.79,5.65a16.14,16.14,0,0,0,5.94,5.93,15.06,15.06,0,0,1,5.93,5.92,14.34,14.34,0,0,0,5.93,5.93,14.55,14.55,0,0,1,5.88,6M15.63,9.82l0,.06c.9,1.72,4.17,4.38,6.52,5.48s5.38,4.27,5.93,5.93,4.14,5.1,5.93,6.07,5.11,4.13,5.8,5.65a16.1,16.1,0,0,0,5.93,5.93,15.06,15.06,0,0,1,5.93,5.92,14.31,14.31,0,0,0,5.94,5.93,14.58,14.58,0,0,1,5.87,6M15.63,15.37C18,16.49,21,19.64,21.54,21.29s4.13,5.1,5.93,6.07,5.1,4.13,5.79,5.65a16.14,16.14,0,0,0,5.94,5.93,15.06,15.06,0,0,1,5.93,5.92,14.34,14.34,0,0,0,5.93,5.93,14.55,14.55,0,0,1,5.88,6M15.63,22.48a20.49,20.49,0,0,0,5.26,4.88c1.8,1,5.11,4.13,5.8,5.65a16.1,16.1,0,0,0,5.93,5.93,15.06,15.06,0,0,1,5.93,5.92,14.31,14.31,0,0,0,5.94,5.93,14.58,14.58,0,0,1,5.87,6M15.63,28.23A18.09,18.09,0,0,1,20.11,33,16.18,16.18,0,0,0,26,38.94,15.1,15.1,0,0,1,32,44.86a14.34,14.34,0,0,0,5.93,5.93,14.61,14.61,0,0,1,5.88,6M15.63,35.87a16.47,16.47,0,0,0,3.84,3.07,15.06,15.06,0,0,1,5.93,5.92,14.34,14.34,0,0,0,5.93,5.93,14.55,14.55,0,0,1,5.88,6M15.63,40.89a12.8,12.8,0,0,1,3.25,3.74c.69,1.66,3.4,5.06,5.88,6.16a14.52,14.52,0,0,1,5.87,6m19.68-59A12.76,12.76,0,0,0,56,4a13.19,13.19,0,0,1,5.52,5.93c.9,1.72,4.17,4.38,6.52,5.48s5.38,4.27,5.93,5.93a5,5,0,0,0,.67,1.19m-31-24.73A12.83,12.83,0,0,0,49.47,4,13.21,13.21,0,0,1,55,9.88c.9,1.72,4.18,4.38,6.52,5.48s5.39,4.27,5.94,5.93,4.14,5.1,5.93,6.07a10.52,10.52,0,0,1,1.31.87M37.15-2.25A12.83,12.83,0,0,0,42.89,4a13.3,13.3,0,0,1,5.52,5.93c.9,1.72,4.17,4.38,6.52,5.48s5.38,4.27,5.93,5.93,4.14,5.1,5.93,6.07,5.11,4.13,5.8,5.65a12.11,12.11,0,0,0,2.09,2.86M30.58-2.25A12.85,12.85,0,0,0,36.31,4a13.19,13.19,0,0,1,5.52,5.93c.9,1.72,4.18,4.38,6.52,5.48s5.38,4.27,5.94,5.93,4.13,5.1,5.93,6.07S65.32,31.49,66,33A16.14,16.14,0,0,0,72,38.94a15.27,15.27,0,0,1,2.73,2M24-2.25A12.83,12.83,0,0,0,29.74,4a13.3,13.3,0,0,1,5.52,5.93c.89,1.72,4.17,4.38,6.52,5.48s5.38,4.27,5.93,5.93,4.14,5.1,5.93,6.07,5.11,4.13,5.8,5.65a16.1,16.1,0,0,0,5.93,5.93,15.06,15.06,0,0,1,5.93,5.92,14.1,14.1,0,0,0,3.38,4.21M17.59-2.25A12.76,12.76,0,0,0,23.32,4a13.19,13.19,0,0,1,5.52,5.93c.9,1.72,4.18,4.38,6.52,5.48s5.38,4.27,5.93,5.93,4.14,5.1,5.94,6.07a18.48,18.48,0,0,1,5.64,5.72A16.65,16.65,0,0,0,59,38.94a15.13,15.13,0,0,1,5.93,5.92,14.34,14.34,0,0,0,5.93,5.93,12,12,0,0,1,3.86,3.08"/></svg>