<svg xmlns="http://www.w3.org/2000/svg" xmlns:xlink="http://www.w3.org/1999/xlink" viewBox="0 0 53.72 53.7"><defs><style>.cls-1,.cls-2{fill:none;}.cls-2{stroke:#000;stroke-width:0.3px;}.cls-3{clip-path:url(#clip-path);}.cls-4{clip-path:url(#clip-path-2);}</style><clipPath id="clip-path"><rect class="cls-1" width="16.23" height="30"/></clipPath><clipPath id="clip-path-2"><rect class="cls-1" x="16.22" y="0.03" width="37.97" height="30"/></clipPath></defs><title>705 Esquisto</title><g id="Capa_1" data-name="Capa 1"><path class="cls-2" d="M-1.73,39.64C.12,37.42,2.89,32.46,5,30M-19.8,54.69c1.17-1.34,3.18-4.52,5-7.27a144.57,144.57,0,0,1,10.12-12c1.31-1.3,3.47-3.19,5.6-5.45m11.84,2.15A9.88,9.88,0,0,1,15.53,30m-2.24,0a53.12,53.12,0,0,0-6.57,7.38c-1.59,2.34-2.93,5.76-3.85,6.85M-4.91,46.5c2.68-3.43,6.27-7.94,8.78-10.12A61.67,61.67,0,0,0,10.49,30m-7,5.2c1.64-1.7,3.07-3.67,4.42-5.2m-5,18a120.92,120.92,0,0,1,8.59-10.65c1.7-1.76,2.57-2.7,4.33-4.33m-3.55-.16a13.72,13.72,0,0,0-1.09,1.23c-.57.75-2.07,3.07-3.26,4.45m-19.37,16c2.34-2.34,7.7-7.77,10-9.61a43.19,43.19,0,0,0,6.1-6.52M-.37,56c.62-1.06,3.45-5.32,4.64-7.2s7.21-9.28,8.28-10.41a29.8,29.8,0,0,1,2.95-2.55c.2-.23.47-.45.75-.71M-.48,66.35A28.77,28.77,0,0,0,4,61.25c.81-1.38,4.76-9.32,6.21-11.26a61.38,61.38,0,0,1,5-5.37c.34-.34.71-.75,1.08-1.18m-19.51,18a85.64,85.64,0,0,0,7-8,56.67,56.67,0,0,1,7.35-7.77,17.53,17.53,0,0,0,2.61-2.32c.75-1,1.78-2.19,2.59-3.1M8.6,45c.75-.82,2.45-2.83,3.7-3.95s2.95-2.74,2.95-2.74c.29-.24.63-.54,1-.89"/><path class="cls-2" d="M48.29,30c-2,2.54-5.06,6.51-6.27,7.79M27.46,49a83.77,83.77,0,0,0,5.44-7.1c1.59-2.17,5.19-7.44,6.61-8.86,1.12-1.12,1.83-2,3-3M31.73,30c-1.54,1.6-3,3.06-3.93,4-1.34,1.34-4.77,5-6.28,7S18.68,45,17.84,46m35.75-8.54c1.86-2.22,3-5,5.06-7.44M33.9,54.69c1.18-1.34,3.18-4.52,5-7.27A146.55,146.55,0,0,1,49,35.46c1.32-1.3,3.48-3.19,5.6-5.45M33.57,46.91c1.76-2,6.94-9.19,8.53-11.53A63.18,63.18,0,0,1,45.65,30M24.2,45.74A106.47,106.47,0,0,0,33,35.55c1.84-2.47,2.84-4.28,3.86-5.54m-14.9,8.05a65.9,65.9,0,0,1,4.52-5.35A24,24,0,0,0,28.61,30m10.73,0c-.45.94-.75,1.69-.75,1.69a42.18,42.18,0,0,0-3.68,4.68,27.22,27.22,0,0,1-4.6,5.52c-2,1.84-6.28,5.52-7.28,6.44a25.45,25.45,0,0,0-4.65,5.36,18.87,18.87,0,0,1-2.13,2.81M34.83,30a72.48,72.48,0,0,1-6.36,7.54A28.59,28.59,0,0,0,25,42.32a63.68,63.68,0,0,1-5.43,7.27c-1,1.09-2.21,2.1-3.27,3.16M25.72,30a4.59,4.59,0,0,0-.54,1.14M18.69,30A12.22,12.22,0,0,1,17,32M48.79,46.5c2.68-3.43,6.28-7.94,8.79-10.12A63.6,63.6,0,0,0,64.2,30m-22,24.55c2.34-2.34,7.69-7.77,10-9.61a43.3,43.3,0,0,0,6.11-6.52m-8.2,3.93C48.79,44,46.12,46.79,44.61,49s-5.27,7.19-6.69,9.2a29.46,29.46,0,0,1-3.26,3.92M52.89,36.76A34.75,34.75,0,0,1,49.71,40c-1.33,1.17-3.93,3.93-5.6,5.77S39,51.43,37.2,53.69s-6.47,7.64-9,10.32M40,48.38c1.67-2.26,11.24-12,14-15.17M26.46,57.74c1.51-1.92,4.35-5.52,5.69-6.94s4.6-5.18,6.86-8,8.53-8.53,10.79-11M26.21,53.23c.67-.76,2.68-3.1,4.43-5s4.44-6.43,5.69-8.44a96.1,96.1,0,0,1,7-8.86M53.33,56c.63-1.06,3.45-5.32,4.64-7.2s7.22-9.28,8.29-10.41a28.63,28.63,0,0,1,2.95-2.55,7.54,7.54,0,0,1,.75-.71M53.23,66.35a28.76,28.76,0,0,0,4.43-5.1c.82-1.38,4.77-9.32,6.21-11.26a61.38,61.38,0,0,1,5-5.37c.34-.34.71-.75,1.09-1.18m-19.51,18a87.14,87.14,0,0,0,7-8,56.68,56.68,0,0,1,7.34-7.77,18.1,18.1,0,0,0,2.62-2.32c.75-1,1.77-2.19,2.59-3.1M19.52,31.75c-.67.92-1.84,1.33-2.35,2.25a4.27,4.27,0,0,1-.92,1.13m9,5.39a37.55,37.55,0,0,0-4.69,5.6,20.14,20.14,0,0,1-4.35,4M25,31.83c-1.75,2-4.18,4.35-4.85,6a25.57,25.57,0,0,1-3.85,5.58m4.1-8.17c-1,1.17-2.42,3.17-3.18,3.93-.23.23-.55.58-.92,1m0-2.72c1.87-1.76,4.49-4.7,5.61-6l1.09-2"/><g class="cls-3"><path class="cls-2" d="M-19.82,1c1.17-1.34,3.18-4.52,5-7.28a146,146,0,0,1,10.12-12c1.31-1.31,3.47-3.19,5.6-5.45M9.33,14.81C8,16.37,6.25,21.08,4.62,23s-1.38,1.75-2.57,3M6.69,12.74C4.81,15.56,1.05,21,0,22.83a34.66,34.66,0,0,1-3.26,4.33c-.82,1.06-1.24,1.69-1.24,1.69L-5.44,30M6.13,7a39.56,39.56,0,0,1,6.33-8.9A12.79,12.79,0,0,0,15.6-6M4.56,9.92c-1.63,2.94-5.33,6.83-7.34,9s-2.51,2.39-3.64,4.39S-7.67,26-8.3,26.9a26.44,26.44,0,0,1-1.9,2.2c-.4.32-.73.61-1,.9M-22,30l1.75-1.82s.83-1.09,1.84-2.59A39.54,39.54,0,0,1-14.83,21a107.49,107.49,0,0,1,9.67-9.46c2.88-2.26,7.21-7.34,8.53-9m8-9.65C10-5.57,7.13-2.49,6,.08A22.09,22.09,0,0,1,3,5.15m-13.11,3.7C-9,7.66.11-4.56,1.55-6.44m-1-1.88A74.35,74.35,0,0,1-5.79-2.24a44.19,44.19,0,0,0-6,7c-1.56,2.31-5.26,6.51-6.58,7.39M4.93,30a7.8,7.8,0,0,1,.76-.82s1.38-1.59,3.45-4.28a33.18,33.18,0,0,1,5.75-5.37,11.9,11.9,0,0,0,1.34-1.21M.92,30c.45-.48.9-1,1.34-1.49A69.47,69.47,0,0,0,7.45,22.2c1.63-2.44,6-9.09,7.78-11.09M14.47-2.18c-.94.88-2.82,3.45-4.77,5.83A27.83,27.83,0,0,0,6,10.17a60.15,60.15,0,0,1-5.14,7.9A68.93,68.93,0,0,0-4.22,24.9a32.43,32.43,0,0,1-3.31,4.45c-.2.22-.37.44-.55.65M1.86,6.78a104.7,104.7,0,0,1-7,8.15,122.19,122.19,0,0,0-8.16,9.91c-.94,1.44-3,4.51-3,4.51a6.16,6.16,0,0,0-.57.65m-8.24,0,.53-.73a22,22,0,0,1,2.86-3.87c1.63-1.69,4.71-4.83,6.15-6.58S-6.86,9.29-5.16,6.66-.71.39.29-1.43M15.51,30l.72-.47M-11.54.89c2.34-2.34,7.69-7.77,10-9.61a43.3,43.3,0,0,0,6.11-6.52M-.4,2.33C.23,1.27,3.05-3,4.25-4.88s7.21-9.27,8.28-10.4a28.63,28.63,0,0,1,3-2.55c.2-.23.47-.45.75-.71M13.26,30c.27-.26.54-.51.79-.73l1.6-1.72.58-.63M10.47,30l.66-.73a16.11,16.11,0,0,0,1.08-2.11,13.06,13.06,0,0,1,1-1.95,17.73,17.73,0,0,1,3-2.58M7.85,30l.52-.57S9.58,27.84,10.71,26a13.69,13.69,0,0,1,2.18-2.84,27,27,0,0,0,3.34-3M4.87,27.91c2-2.51,5.78-6.4,6.72-7.34s3.72-4.05,3.72-4.05a9,9,0,0,0,.92-.93m-1.59-2.08c.68-.67,1.18-1.2,1.59-1.67m-4.64.65a17.94,17.94,0,0,1,3.47-2.66c.34-.33.74-.78,1.17-1.29M-2.17,29.47-1,28C-.4,27.22,1,25.15,2.55,22.7S5.44,17.19,7,15.31,11.08,11,12.34,9a15.2,15.2,0,0,1,2.3-2.88l1.59-1.3M7.45,11.74a53.94,53.94,0,0,1,4.27-4.51,13.3,13.3,0,0,1,2-1.84c.9-.86,1.75-1.68,2.52-2.53M8.33,8.55a61.15,61.15,0,0,0,4.46-5C13.66,2.28,14.71.88,14.71.88A12.39,12.39,0,0,1,16.23-.9M-.5,12.68a28.76,28.76,0,0,0,4.43-5.1C4.75,6.2,8.7-1.74,10.14-3.68a62.59,62.59,0,0,1,5-5.37c.33-.34.7-.75,1.08-1.18m-19.51,18a85.52,85.52,0,0,0,7-8A56.7,56.7,0,0,1,11-8.07a18.1,18.1,0,0,0,2.62-2.32c.75-1,1.78-2.19,2.59-3.1"/></g><g class="cls-4"><path class="cls-2" d="M33.87,1.05C35-.29,37-3.47,38.88-6.22A144.56,144.56,0,0,1,49-18.18c1.31-1.3,3.47-3.19,5.6-5.45m-15.3,0c-.46.94-.76,1.69-.76,1.69a42.18,42.18,0,0,0-3.68,4.68,27.22,27.22,0,0,1-4.6,5.52C28.26-9.9,24-6.22,23-5.3A24.79,24.79,0,0,0,18.39,0a20,20,0,0,1-2.17,2.83M24,21a41.86,41.86,0,0,1-6,7.27,16.37,16.37,0,0,1-1.71,1.31M37.48,11.77c-1.25,1.44-5.39,4.57-7.09,6.33m-3.13,7.39A53.15,53.15,0,0,1,32.65,20m13.43,2.63a52.84,52.84,0,0,1-4.77,6.52M60.38,12.77C58.5,15.59,54.74,21,53.67,22.86a34.66,34.66,0,0,1-3.26,4.33c-.82,1.06-1.24,1.69-1.24,1.69L48.25,30M58.25,10c-1.63,2.94-5.33,6.83-7.34,9s-2.51,2.39-3.64,4.39-1.25,2.7-1.88,3.58a26.81,26.81,0,0,1-1.91,2.19c-.39.32-.72.61-1,.9m.87-6a68.45,68.45,0,0,1,8.59-8.4l.42-.37M31.69,30l1.76-1.82s.83-1.09,1.84-2.59A40.41,40.41,0,0,1,38.86,21a110,110,0,0,1,9.66-9.46c2.89-2.26,7.22-7.34,8.54-9M43.57,8.88C44.7,7.69,53.79-4.53,55.24-6.41m-1-1.88A72.77,72.77,0,0,1,47.9-2.21a44.19,44.19,0,0,0-6,7c-1.56,2.32-5.27,6.52-6.58,7.39M50.22-2.27c-1.44,1.12-8.85,11.84-10.6,14a32.11,32.11,0,0,1-6,5.77A63.35,63.35,0,0,0,27,23.3c-1.38,1.38-3.08,5.14-4.08,6.21M43.57.92c-.94,1-3.64,4-5.21,5.77a39.62,39.62,0,0,1-5.71,5.08,84.6,84.6,0,0,0-8.22,8M54.61,30c.45-.48.9-1,1.34-1.49a71.29,71.29,0,0,0,5.19-6.31c1.63-2.44,6-9.08,7.77-11.09M68.16-2.15c-.94.88-2.82,3.45-4.77,5.83a27.83,27.83,0,0,0-3.7,6.52,60.15,60.15,0,0,1-5.14,7.9,68.93,68.93,0,0,0-5.08,6.83,33.42,33.42,0,0,1-3.31,4.45l-.55.65M55.55,6.81a104.7,104.7,0,0,1-7,8.15,124,124,0,0,0-8.16,9.91c-.94,1.44-3,4.51-3,4.51a7.16,7.16,0,0,0-.57.65m-8.24,0,.53-.73A22,22,0,0,1,32,25.43c1.63-1.69,4.71-4.83,6.15-6.58S46.83,9.32,48.52,6.69,53,.42,54-1.4M39.31,30a13,13,0,0,1,2-3.2M34.79,30l.92-1.23s1-1.68,2.59-4.25a75.47,75.47,0,0,1,8.72-10m-.94-6.64c-2.51,2.63-9,9.4-11.36,12s-5.64,6-7,7.71c0,0,0,.44-1.34,1.61a4.14,4.14,0,0,0-.74.86m7.16-16.51a56.3,56.3,0,0,0-5.39,5.58c-.76,1-2.07,3.76-3.27,5.08s-3.07,2.94-3.57,3.44L19.56,28.8,18.66,30M42.15.92c2.34-2.34,7.69-7.77,10-9.61a43.3,43.3,0,0,0,6.11-6.52M50-11.28c-1.26,1.59-3.93,4.43-5.44,6.6s-5.27,7.19-6.69,9.2a29.46,29.46,0,0,1-3.26,3.92M52.85-16.88a35.71,35.71,0,0,1-3.17,3.26c-1.34,1.17-3.94,3.93-5.61,5.77s-5,5.51-6.77,7.77-6.61,7.77-9.12,10.45m10.87-19c-2.51,3.17-8.45,9.86-10.29,12a65,65,0,0,1-6.35,6.35m4-5.68c1.51-1.92,4.35-5.52,5.69-6.94s4.6-5.18,6.86-8,8.53-8.53,10.79-11M26.17-.41c.67-.76,2.68-3.1,4.43-5s4.44-6.43,5.69-8.44a97.82,97.82,0,0,1,7-8.86m10,25.09c.77-1.06,3.45-5.32,4.65-7.2s7.21-9.28,8.28-10.41a28.63,28.63,0,0,1,3-2.55,8.84,8.84,0,0,1,.75-.71m-18.4,48L52.73,28c.56-.75,1.94-2.82,3.51-5.26s2.89-5.52,4.46-7.4S64.77,11,66,9.07a15.2,15.2,0,0,1,2.3-2.88l1.59-1.3M53.19,12.71a28.76,28.76,0,0,0,4.43-5.1c.82-1.38,4.77-9.32,6.21-11.26a63,63,0,0,1,5-5.37c.34-.34.71-.75,1.09-1.18m-19.51,18a87.14,87.14,0,0,0,7-8A56.68,56.68,0,0,1,64.71-8a18.1,18.1,0,0,0,2.62-2.32c.75-1,1.77-2.19,2.59-3.1m-28.44,11C39.39-.16,32.86,8.86,30.18,11s-6.77,7.11-8.44,9.28c-1.54,2-3.31,4.34-5.52,6.72M32.11,3.43a62.4,62.4,0,0,0-6.19,8.11,57.61,57.61,0,0,1-6.53,8.86,24.45,24.45,0,0,1-3.17,2.26m8.36-11.21c-.92.67-3.26,3.35-5.86,6.1-.92,1-1.75,1.86-2.5,2.61M29.1,4.77c-1.76,2.42-6.86,7.27-8.53,8.86-1.28,1.2-2.88,3.23-4.35,4.72M31.36-4.34C29.26-1.42,25.84,1.59,24,4.27S20.73,9.2,19,11.7c-1.29,1.83-2,3-2.76,3.91M23,2.43A51.06,51.06,0,0,0,18.14,9a11.86,11.86,0,0,1-1.92,2.92M24.5-1.25a50.51,50.51,0,0,0-5,5.6c-.74,1-2.1,2.83-3.26,4.22M29.1-9.27c-1,1.08-6.86,8.19-8.45,10a40.32,40.32,0,0,1-4.43,4.12"/></g><path class="cls-2" d="M.92,30.06-19.82,54.73c1.17-1.34,3.18-4.51,5-7.27M9.33,68.52C8,70.09,6.25,74.79,4.62,76.67s-1.38,1.76-2.57,3M6.69,66.45C4.81,69.27,1.05,74.66,0,76.55a34.44,34.44,0,0,1-3.26,4.32c-.82,1.07-1.24,1.69-1.24,1.69l-.92,1.15m11.57-23a39.11,39.11,0,0,1,6.33-8.9,12.83,12.83,0,0,0,3.14-4.14m-11,15.92c-1.63,2.95-5.33,6.84-7.34,9S-5.29,75-6.42,77.05s-1.25,2.69-1.88,3.57a25.66,25.66,0,0,1-1.9,2.19c-.4.32-.73.62-1,.9m-10.75,0,1.75-1.82s.83-1.08,1.84-2.59a40.37,40.37,0,0,1,3.57-4.57,108.83,108.83,0,0,1,9.67-9.47c2.88-2.25,7.21-7.33,8.53-9m8-9.65C10,48.15,7.13,51.22,6,53.79a22.22,22.22,0,0,1-3,5.08m-13.11,3.7C-9,61.38.11,49.15,1.55,47.27m-1-1.88a71.38,71.38,0,0,1-6.34,6.08,44.65,44.65,0,0,0-6,7c-1.56,2.32-5.26,6.52-6.58,7.4M4.93,83.71a8.73,8.73,0,0,1,.76-.81s1.38-1.59,3.45-4.29a33.63,33.63,0,0,1,5.75-5.37A11.9,11.9,0,0,0,16.23,72M.92,83.71c.45-.48.9-1,1.34-1.48a71,71,0,0,0,5.19-6.31c1.63-2.45,6-9.09,7.78-11.1m-.76-13.28c-.94.87-2.82,3.44-4.77,5.82A28.24,28.24,0,0,0,6,63.88a59.49,59.49,0,0,1-5.14,7.9,68.93,68.93,0,0,0-5.08,6.83,31.67,31.67,0,0,1-3.31,4.45l-.55.65M1.86,60.5a106.64,106.64,0,0,1-7,8.15,122.4,122.4,0,0,0-8.16,9.9c-.94,1.44-3,4.51-3,4.51-.2.2-.38.42-.57.65m32.39,0c.23-.14.47-.3.72-.47M-11.54,54.61c2.34-2.34,7.69-7.78,10-9.61M13.26,83.71l.79-.73,1.6-1.71c.2-.21.38-.42.58-.64m-5.76,3.08.66-.73a16.11,16.11,0,0,0,1.08-2.11,13.22,13.22,0,0,1,1-1.94,17.73,17.73,0,0,1,3-2.58M7.85,83.71l.52-.56s1.21-1.59,2.34-3.47a13.69,13.69,0,0,1,2.18-2.84,27.22,27.22,0,0,0,3.34-3M4.87,81.62c2-2.5,5.78-6.39,6.72-7.33s3.72-4.05,3.72-4.05a9.06,9.06,0,0,0,.92-.94m-1.59-2.07c.68-.68,1.18-1.21,1.59-1.68m-4.64.65a17.64,17.64,0,0,1,3.47-2.65c.34-.34.74-.79,1.17-1.29M-2.17,83.19-1,81.69c.56-.76,1.94-2.83,3.51-5.27S5.44,70.9,7,69s4.07-4.32,5.33-6.26a15.11,15.11,0,0,1,2.3-2.89l1.59-1.3M7.45,65.46A53.94,53.94,0,0,1,11.72,61a12.52,12.52,0,0,1,2-1.84c.9-.87,1.75-1.69,2.52-2.54m-7.9,5.69a61.09,61.09,0,0,0,4.46-4.95c.87-1.32,1.92-2.72,1.92-2.72a14.18,14.18,0,0,1,1.52-1.85"/><path class="cls-2" d="M54.42,30.06m-15.3,0M23.76,74.66a41.49,41.49,0,0,1-6,7.27A14.51,14.51,0,0,1,16,83.24M37.29,65.45C36,66.89,31.9,70,30.21,71.78m-3.14,7.4a54.15,54.15,0,0,1,5.39-5.52m13.43,2.63a51.32,51.32,0,0,1-4.77,6.52M60.19,66.45c-1.88,2.82-5.64,8.21-6.71,10.1a34.44,34.44,0,0,1-3.26,4.32C49.4,81.94,49,82.56,49,82.56c-.26.33-.4.78-.74,1.2m9.82-20.13c-1.63,2.95-5.33,6.84-7.34,9S48.21,75,47.08,77.05s-1.25,2.69-1.88,3.57a25.66,25.66,0,0,1-1.9,2.19c-.4.32-.73.62-1,.9m.87-6a67.77,67.77,0,0,1,8.59-8.4l.42-.38M31.51,83.71l1.75-1.82s.83-1.08,1.84-2.59a40.37,40.37,0,0,1,3.57-4.57,108.83,108.83,0,0,1,9.67-9.47c2.88-2.25,7.21-7.33,8.53-9M43.38,62.57c1.13-1.19,10.42-13.36,11.86-15.24m-1.39-1.47c-1.06,1.32-5.1,4.27-6.14,5.61s-4.46,4.64-6,7S36.42,65,35.1,65.83M50.23,51.49c-1.45,1.13-9,11.77-10.8,13.9a32.37,32.37,0,0,1-6,5.76A64.52,64.52,0,0,0,26.82,77c-1.38,1.38-3.08,5.14-4.08,6.21M43.38,54.61c-.94,1-3.64,4-5.21,5.76a38.46,38.46,0,0,1-5.71,5.08,84.6,84.6,0,0,0-8.22,8M54.42,83.71c.45-.48.9-1,1.34-1.48A71,71,0,0,0,61,75.92c1.63-2.45,6-9.09,7.78-11.1M68,51.54c-.94.87-2.82,3.44-4.77,5.82a28.24,28.24,0,0,0-3.7,6.52,59.49,59.49,0,0,1-5.14,7.9,68.93,68.93,0,0,0-5.08,6.83A31.67,31.67,0,0,1,46,83.06l-.55.65M55.36,60.5a106.64,106.64,0,0,1-7,8.15,122.4,122.4,0,0,0-8.16,9.9c-.94,1.44-3.05,4.51-3.05,4.51-.2.2-.38.42-.57.65m-8.24,0,.53-.73a22.07,22.07,0,0,1,2.86-3.86c1.63-1.7,4.71-4.83,6.15-6.59S46.64,63,48.34,60.37s4.85-6.24,5.45-8.06M39.12,83.71a13.07,13.07,0,0,1,2-3.19M34.6,83.71l.92-1.23s1-1.67,2.59-4.24a74.84,74.84,0,0,1,8.72-10m-.94-6.65c-2.51,2.64-9,9.41-11.36,12s-5.64,5.95-7,7.71c0,0,0,.44-1.34,1.61a4.1,4.1,0,0,0-.74.85m7.16-16.5a55.15,55.15,0,0,0-5.39,5.57c-.76,1-2.07,3.77-3.27,5.08s-3.07,3-3.57,3.45l-1.05,1.17-.9,1.23M38.86,45.08c-2.51,3.18-8.19,9.84-10,12a65.81,65.81,0,0,1-6.61,6.37M53.1,56.05c.63-1.07,3.45-5.33,4.65-7.21M51.33,83.19l1.21-1.5c.56-.76,1.94-2.83,3.51-5.27s2.89-5.52,4.46-7.4,4.07-4.32,5.33-6.26a15.11,15.11,0,0,1,2.3-2.89l1.59-1.3M53,66.39a28.41,28.41,0,0,0,4.43-5.1C58.25,59.92,62.2,52,63.64,50a64.24,64.24,0,0,1,5-5.37c.33-.34.7-.74,1.08-1.18m-19.51,18a88.19,88.19,0,0,0,7-8,56.86,56.86,0,0,1,7.34-7.78,18.1,18.1,0,0,0,2.62-2.32M39.44,53.7C37.35,56,32.67,62.55,30,64.64s-6.77,7.1-8.44,9.27c-1.54,2-3.31,4.34-5.52,6.72M31.92,57.11a63.08,63.08,0,0,0-6.19,8.11,58.24,58.24,0,0,1-6.52,8.86A25.33,25.33,0,0,1,16,76.35m8.36-11.21c-.92.67-3.26,3.34-5.85,6.1-.93,1-1.76,1.85-2.51,2.61m12.88-15.4c-1.76,2.42-6.86,7.27-8.53,8.86C19.11,68.52,17.5,70.54,16,72M22.8,56.11A51.77,51.77,0,0,0,18,62.63,11.68,11.68,0,0,1,16,65.55M28.91,44.41c-1,1.09-6.61,8.14-8.25,10A49.26,49.26,0,0,1,16,58.57"/></g></svg>