<svg xmlns="http://www.w3.org/2000/svg" viewBox="0 0 53.51 53.51"><defs><style>.cls-1{fill:none;stroke:#1d1d1b;stroke-width:0.3px;}</style></defs><title>706 Esquisto contorsionado</title><g id="Capa_1" data-name="Capa 1"><path class="cls-1" d="M52.37,34.51c-.16.2-.35.41-.57.64,0,0-1,.43-.74,1.06s.87,1.43.31,2.32c-1.94,3.07.56,2.14.56,2.14.67-.26,1.21-.48,1.64-.68m0,6.94q-.23.24-.51.51l-.74.17-.88-.69c-.82-1.12,0-2.13-.25-3.51s-2.26-.87-3.77-1.25.63-2.26,1.76-3.51c1-1,.74-2.11-.32-4.14M11.58,42c-.84.83-2,1.67-1.76,2.75s.34,1.42,1.34,1.42.42-.16,1.34.17a2.33,2.33,0,0,0,1.67.09,7.1,7.1,0,0,1,4.18,1.83c.76,1,.59,1.26,1.84,2S22,51.73,21.7,52.4a2.47,2.47,0,0,0-.33,2.17c.33.84.92,3-.09,3.26s-3.76.92-4.77,1.34-2.51.92-2.17,2.17.67,1.67.33,2.09m-6,24.74a11,11,0,0,0,2-1.25,2.51,2.51,0,0,0,1.19-2c0-1.32.82-4.39,2.38-5.08s4.9-1.06,5.71-2.25,1.63-2.89.19-4.39-3.45-3.83-1.44-6.33A9.44,9.44,0,0,1,25,63.35c1.31,0,4.32-.25,5.14-1.51s.82-2.44.06-3.13l-1-1.13c-.88-1.38.5-3.26,1.13-4.51a3,3,0,0,0,.37-2.89c-.37-1.12-1.75-1.63-2.88-1.88s-1.51-1.63-1.63-2.75S25,43.79,24,42.91s.12-1.75,1.5-2.25a29,29,0,0,0,4-2.26,5.56,5.56,0,0,0,2.72-3.89M4.41,88.17c.94-.36,2-.68,3.11-1.13l.63-.54c.42-.17.75-.67,1.42-1.51s.42-1.67.59-3.26.75-1.83,2.42-3.26,3.93-1.08,4.85-1.25A2.44,2.44,0,0,0,19.27,76c.51-.75-.5-1.84-1.58-2.59s-1.43-3.6-1.34-4.68,2.42-3.93,3.68-4.93,4.77-1.51,6.35-2a2.13,2.13,0,0,0,1.43-3.18,3.28,3.28,0,0,1-.51-2.67,4.06,4.06,0,0,1,1.3-2A2.11,2.11,0,0,0,29,51.19c-.5-1.13-2-1.76-3.52-2.89s-1.25-1.5-1.38-2.63-.12-1-1.5-2.26-.38-1.75.38-2.63,1.88-1.38,4.14-2.38a5.22,5.22,0,0,0,3.48-3.89m-30.71,52c.3-.35.72-.5,2-.67,2.76-.38,3.26-.5,4.89-2.38s1.88-2.89,1-3.89c0,0-1.29-.38-.54-1A18.43,18.43,0,0,1,10,77.05a7.75,7.75,0,0,1,3.18-.83c1.09-.09,3.59-.92,2.93-2.26a10,10,0,0,1-1-3.09,10,10,0,0,0-.42-1.76c-.25-.92.67-3.34,1.59-4.51a11.48,11.48,0,0,1,5.11-3.26c1.75-.42,3.43-.58,4-1.34a2.25,2.25,0,0,0,.34-2.42,10,10,0,0,1-.34-2.51c-.15-1.18,1.37-1.35,1.72-2.5s-.13-1.51-1.89-2.51-2-1.38-2.25-3.14-.13-.75-.88-1.5a5.65,5.65,0,0,1-2.14-3c-.37-1.63,1.38-2,2.26-2.88s3.39-2.13,5.15-3.26c1.09-.7,1.5-1.07,1.72-1.76M51,57.52c-.19-.5.88-.5,1.38-1.13s-1.44-.5-2.64-.63-1.06-1.94-.87-2.88a1.94,1.94,0,0,1,.94-1.32c.62-.87,1.5-1.25.87-2.25s-.12-.88-.25-1.76-.5-1.25-1.38-2.25S47.3,44,44.79,43.67s-.63-1.76,1.38-3.89c1.72-1.83.76-2.74-.26-5.27m1.51,20.06a2.81,2.81,0,0,0,.69-2.19,1.51,1.51,0,0,1,.38-1.13c.75-.75.44-3.32-.06-4.45S45.79,45.42,43.78,45s-1.88-1.25-2-2.25,1.88-2.26,3.13-3.64c1-1.13.29-2.77-.57-4.64m6.09,23.82c-.31-.31-.62-.81-1.25-.56s-1.19-.13-1.82-.5-1.19.06-2.38.12-1.2-.75-.88-1.31a31.32,31.32,0,0,1,2.7-2.76c1.12-1.19-.13-2.76-.13-2.76-.38-.38-.38-1.38-.88-2.38s-.88-1.13-2.38-1.38a29,29,0,0,1-3.52-.88c-1.88-.5-1.88-2-2-3.13s1-1.13,2.51-2.13c1.31-.88,1.57-2.7,1.12-6.15M29.07,88.17a10.26,10.26,0,0,0,.28-1.76s0-.37-.06-1.06a5.45,5.45,0,0,0-.44-2.57,7.66,7.66,0,0,1-.31-4.51c.31-1.32,2.14-2.67,2.38-3.39.63-1.88-.62-2.07-1.19-3s.13-1.38,1.69-2,2.51-.38,4.52-.19a7.76,7.76,0,0,0,4.39-.88c.82-.44,1.32-.31,2.7-.31A9.82,9.82,0,0,0,47,67.61,3.55,3.55,0,0,0,48.87,66a6.37,6.37,0,0,1,1.88-1.63A4.6,4.6,0,0,0,52.5,62c.38-.88-.62-1.88-1.56-2.38a6.92,6.92,0,0,0-3.89-.19c-.88.25-.88.06-1.82-.31A4.27,4.27,0,0,0,42,59.4c-1,.5-1.31-.19-1.44-.44s-.31-.31-1.13-.19-.19-1.13.06-1.44.13-.5.19-.88c.24-1.44,2.51-1.5,3.89-2.25s.88-2.39.88-3.51a3.13,3.13,0,0,0-2.63-2.76c-1.63-.38-1.51.12-2-.25s-1.13-1-1.76-1a3.52,3.52,0,0,1-2.13-1.12c-.88-.76-1.76-1.26-1.88-2.14s1.88-2,3.89-3.13c1.71-1,1.14-3.49.93-5.77M38.14,55.7c.25-.88,2.26-2.13,4.26-3.13s-.12-1.88-.75-2.76S39,48.68,38,48.68s-2.26-.25-2.51-1.13-1.25-1-2.38-1.13-2-1.12-1.63-2,.37-.63,0-1.38,1-1.88,3.76-3.26c2.32-1.16,2.16-2.67,2-5.27m-.6,25.7c-1.13-.75-.37-5-.25-6s1.13-1,2.38-1.51.88-.88.51-1.63-.63-.62-1.38-.75A5.87,5.87,0,0,1,35,49.43c-1.51-.88-1.38-1.38-3.51-1.63a2.36,2.36,0,0,1-2.39-2.63c0-1,.13-.63-.62-1.63s-.51-1,.12-1.5a15.69,15.69,0,0,1,3-2.14c1.75-1,2.66-3,3.07-5.39M12.11,88.17c.37-.58.73-1.23,1.06-1.88,0,0,.12-.44.44-1.38a18.65,18.65,0,0,1,1.63-3.7c.63-.94,4.7-1.82,5.58-2.19s2.14-2.57,3-4,.07-2.26-.37-3a2.94,2.94,0,0,1-.69-2.44c.25-1.07,3.07-2.14,3.95-2.2s2.45-1,3.58-1.44,5.08-.19,6.14-.13a5.48,5.48,0,0,0,2.32-.06,19.39,19.39,0,0,1,3.46-.31,8.2,8.2,0,0,0,4-2c.75-.62.12-1-.38-1.19s-2.13.32-3.07.5a4.63,4.63,0,0,1-3.39-.62c-.82-.69-1.44-.5-2.89-.57s-1.5-1.56-1.5-2.25a2.37,2.37,0,0,0-.75-1.88c-.63-.63-.51-1.7-.57-2.76s1.26-1.63,2.2-2.13.44-.25.44-.25c1.25-.88.37-.88-.38-1.13A2.74,2.74,0,0,1,34,50.06c-.63-.88-3.14-1.76-4.77-2.51s-1.51-2.25-2-3.26-1.25-1.13-1-2,3.64-2.64,5.14-3.64c1.08-.71,1.77-2.26,2.17-4.14m-12,13a17.48,17.48,0,0,1-2.13-2.88c-.5-.88-2.13-.5-3.14-.88s-.62-1.75,0-2.38.88-.38,1.13-1.13,1.38-1,2.51-1.38,1-.5,1.76-1.13a8.62,8.62,0,0,1,2.64-1.5c1-.41,1.61-.48,2.27-1.76M-.13,77.11c2.14-1,1.89-1.24,3.64-1.35,2-.13,3.26-.38,4.39-1.38s.25-.25,2-.88,1.75-1,2.13-2.25a7.93,7.93,0,0,1,0-1.3,3,3,0,0,1,.92-1.5c.59-.59.34-1.17.5-2.18a3.12,3.12,0,0,1,1.09-1.92c.5-.5.71-.25.71-.25.88-.5.5-.5.88-1.38a3.51,3.51,0,0,1,1.38-1.63c.75-.63,3.51-1.25,5.14-1.75s1.13-2,.63-3.26,0-1.13.75-2.64-1-3-2.13-3.76a8.3,8.3,0,0,1-2.51-2.63c-.75-1.13-2.38-1.5-4.39-1.75a2.39,2.39,0,0,1-2.38-2.64c0-1.13,1.88-2.5,3.13-3s1.26-.37,1.89-1.38.87-1,2.5-1.37a6.43,6.43,0,0,0,3.55-2.39M-.13,72.31C1.54,71.52,3,72,4.38,72,6,72,7.77,69.87,8.27,68.49s2.89-2.89,4.4-4.14-.38-2.26-1.51-3.26.25-1.5,1.26-2.38,2.63-1,4.76-1.25,2-1.76,1.63-2.51a2.64,2.64,0,0,1-.25-2.26c.25-1.25,0-1.13-1.38-2s-.88-1.38-1.38-2.26-2.26-.5-3-.5a3.42,3.42,0,0,1-2.13-.75c-.63-.51-2-.26-3.51.37s-1.76-.12-1.64-.88.76-1.25,2-1.88.75-1.12,1.13-2A7.78,7.78,0,0,1,11.91,40a5.19,5.19,0,0,0,2.51-1.88A5.72,5.72,0,0,1,17.18,36a6.15,6.15,0,0,0,2.31-1.51M-.13,68.28a6.84,6.84,0,0,1,4.39-.42c1.25.38,3.14-1.5,3.76-2.51s.63-1.5,2-1.88S9.28,61,7,60.34s-.13-1.63,1-1.88a8.73,8.73,0,0,0,2.51-1,5.92,5.92,0,0,1,2.89-.88c1.13,0,1.13-.25,1.76-1.26a2.08,2.08,0,0,0,0-2.63,2.11,2.11,0,0,1-.88-1.88c0-1-1-1.13-1.76-1.13a4.29,4.29,0,0,1-2.38-.37c-1-.5-1.89-.5-4.77.62s-2.76.13-2.39-.5a2.42,2.42,0,0,0,.13-2.13c-.25-1,2-3.26,3.39-4.76s2.76-3.89,4.39-4c1.35-.11,2.44-1.75,4.47-4M-.13,66.26c.89-.51,1.67-.25,2.76-.15a2.19,2.19,0,0,0,2.26-.88,7,7,0,0,1,1.75-1.38c1-.63.88-1-.12-1.76a7.74,7.74,0,0,0-3.89-2c-2.51-.63-.5-1.63.75-1.88A6.59,6.59,0,0,0,6.89,56.7c1.13-1,4-1.75,5.27-2.63s.26-2.26-1.12-2.13-.88-1.13-2.64-1.5-4.27,2.5-6.52,2.88-1-3.26-.26-4.51a2.7,2.7,0,0,0,.51-2.51C2,45,3.38,43.29,4.51,42.41s1-1,1.26-2.38,2.38-2.76,3.76-3.13a5.29,5.29,0,0,0,2.58-2.39M3.38,42c1.13-.51,1.51-2,2.26-3.89S7.52,36.39,9,35.89c1.22-.41,1.29-.48,1.54-1.38M-.13,46.93c1.68-1.76,1.25-2.49,1.25-3.64S1.37,41.53,3,41.16,4.76,38,5.26,36.77c.34-.83,1.89-1.5,3.37-2.26M-.13,40c1.89-.9,1.68-1.45,1.88-3.08C1.9,35.68,3,35.06,4.41,34.51"/><path class="cls-1" d="M53.57,33c-.29.33-.47.83-1.2,1.71m-10.85,0c-.07-.51-.15-1.05-.25-1.63V31.6a23.15,23.15,0,0,1,.07-2.7c.19-1.13-1.19-2.38-1.7-3.19s1.7-.51,2.26-.69a4.43,4.43,0,0,1,2-.32A2.23,2.23,0,0,0,46,24.45c.94-.62,3.52.44,4.83.32s1.56-.62,1.56-.62c.44-.2.82-.37,1.14-.53M30.8,33.48a18.6,18.6,0,0,0-.19-3.32,15.73,15.73,0,0,1-.63-4.7c.06-2.32.94-1.95,1.57-2.7s.63-1.76.44-3.07.19-1.07,1.07-1.51,1.06-.37,2.51-.25,2.13.13,2.94-.44.94-.31,2.07-.25a8.88,8.88,0,0,0,4-.5A5.93,5.93,0,0,1,47.36,16a3.33,3.33,0,0,0,2.82-1.5,5.13,5.13,0,0,1,2-2,1.51,1.51,0,0,0,.61-.67,5.21,5.21,0,0,1,.77-.52m-1-.49a2.76,2.76,0,0,1,1-.61m0-14.87c-.35.24-.77.49-1.27.82,0,0-1,1-.74,1.74s.42.86-.31,1.44-.75,1-.31,1.25.61.33.61.33a14.93,14.93,0,0,0,2,.35h.06m0,2.16A3.62,3.62,0,0,0,52.3,4.72s-1-.12,0,1c.41.46.84,1,1.27,1.46m-8.72,10.5c.82-.19,2.45-.25,3.58-.56A7.56,7.56,0,0,0,51.5,14.8c.69-.82,1.3-1.43,1.3-1.43a3.77,3.77,0,0,1,.77-.6m-43,21.9q.07-.3.21-.75s1-.88,1.51-1.38.5-1.63,1-3.51a3,3,0,0,1,2.14-2.51M48,8c1.5-.13.37,1.38-1.51,3.07A9.12,9.12,0,0,1,40.71,13a52.8,52.8,0,0,1-6.34.25c-2.57-.18-1-.31-2.26.13m0-16.92c1.07.87,1.82,1.19,1.32,1.81S31.17,0,31.36,1.2s.5,2,.63,2.69-.06.69.38,1.26.5.56.43,1.19a2.31,2.31,0,0,0,1.76,2.5c1.7.57,2.26.76,1.88,1.32s-.75.06-2.32.13a13.82,13.82,0,0,0-4.33.69,19.36,19.36,0,0,1-3.57.81,15.45,15.45,0,0,0-3.45.88c-1.13.5-2.32,1.13-2.45,1.94a2.77,2.77,0,0,0,.38,2.45c.69,1.06.5,1.25.5,1.63a2.3,2.3,0,0,1,1.13,2.19A5.52,5.52,0,0,1,21,24.14m-9.37-35.6c-.84.83-2,1.67-1.76,2.75s.34,1.42,1.34,1.42.42-.16,1.34.17A2.33,2.33,0,0,0,14.17-7,7.1,7.1,0,0,1,18.35-5.2c.76,1,.59,1.26,1.84,2S22-1.77,21.7-1.1a2.47,2.47,0,0,0-.33,2.17c.33.84.92,3-.09,3.26s-3.76.92-4.77,1.34S14,6.59,14.34,7.84s.67,1.67.33,2.09M45.91,34.67c-.17-.41-.34-.87-.5-1.38,0,0-.5-1.38-.25-1.82a3.53,3.53,0,0,0,.44-2.13c-.19-.56.44-.94,1.57-1a5.44,5.44,0,0,1,2.57.31c.76.32-.45.52,1.94.14a5.9,5.9,0,0,0,1.89-.55m-6.21,3.23c-.25-.75.82-.69,1.51-.81s1.25.5,2.25,1.5,1.31.77,1.31.77a6.91,6.91,0,0,1,1.14-.87m-4.71,2.61c-.2-.38-.43-.8-.68-1.25m-3.84,1.25c-.18-.41-.38-.83-.56-1.25-1-2.39-.31-1.51-.31-2.45A26.57,26.57,0,0,0,43,27.52c-.12-.75.06-1.44,1.57-.94,0,0,1.94-.5,2.89-.69s2.19.57,3.19,1.38,1.62.27,1.62.27c.48-.37.89-.72,1.27-1.05m-14,.72a5.57,5.57,0,0,1-.25,3.89,8.62,8.62,0,0,0-.51,2.44c0,.36,0,.74.06,1.13m-1.59,0c0-.5-.08-1-.1-1.63a3.52,3.52,0,0,1,.16-1.72,16.67,16.67,0,0,0,.78-1.6,6.93,6.93,0,0,0-.56-3.89,1.45,1.45,0,0,1,.5-1.94s1.76-.13,3.08-.19.87-.06,1.38-.69,1.63-.38,2.88.06a3.13,3.13,0,0,0,2.7-.12,9.91,9.91,0,0,1,3.2-.82c1.57-.12,1.68-.61,1.68-.61a3.88,3.88,0,0,1,.64-.47M34.68,34.67c.08-.52.15-1.07.2-1.63a5.43,5.43,0,0,1,.4-1.53c.25-.38,1.41-1.73,1.41-1.73,1-1.13-.12-2.63-.43-3.76A2.16,2.16,0,0,1,36.44,24c.32-.5-.25-.63.44-1.44a2.35,2.35,0,0,1,2.7-.31,2.1,2.1,0,0,0,2.2-.19c.56-.5,2-.57,3.95-.32a3.14,3.14,0,0,0,3.32-1.19,4.22,4.22,0,0,1,3-1.31c.76.12.8.07.8.07a6.21,6.21,0,0,1,.77-.44m-20,15.85a19.47,19.47,0,0,0,.34-2.38,5.36,5.36,0,0,1,.22-2,9.47,9.47,0,0,1,.79-1.73,3,3,0,0,0-.07-3.07,1.36,1.36,0,0,1,.25-1.76c.38-.44.19-.94.13-1.63A4.27,4.27,0,0,1,38.33,21c1.82.19,2.76.26,3.38-.06a6.42,6.42,0,0,1,3-.62,8.07,8.07,0,0,0,4.15-.82c1.12-.69,1.12-1.13,2.38-1.25s1.18-.37,1.18-.37a6.25,6.25,0,0,1,1.14-.81M32.2,34.67a10.43,10.43,0,0,0,.17-1.25,5.39,5.39,0,0,0,0-1.63A7.83,7.83,0,0,1,33.43,28c.88-1.56.57-1.82.19-3s-.25-1.63.19-2,.38-.88.56-1.88,2-1,3.7-1.07,2.64.25,3.58-.19a3.83,3.83,0,0,1,1.82-.56,26.56,26.56,0,0,0,4.39-.56,8.45,8.45,0,0,0,3.2-2.14,5.33,5.33,0,0,1,1.62-1.17,3.63,3.63,0,0,1,.89-.59M30.86,33.67c-.09.36-.18.69-.28,1M27.79,17.06c-.95.62,1.31,2.25,1.5,3.76s-1.44,2.69-1.44,2.69a8,8,0,0,0-1.07,3.32,10.1,10.1,0,0,0,.69,4,6.21,6.21,0,0,1-.37,2.76,9.21,9.21,0,0,1-.49,1.13m-1.4-6.83c-.18.87.13,1.69.25,3.32s-.75,2.13-.75,2.13a11.11,11.11,0,0,1-1,1.38M38.14,2a5.13,5.13,0,0,1-.13.82c-.12.62-.25,1.38-.5,2.57s.5,1.25,1,1.19.69.06,1.26.56a1.48,1.48,0,0,0,1.88.32,3.93,3.93,0,0,1,2.82.06,3.79,3.79,0,0,0,2.83-.38,4.36,4.36,0,0,1,3.64.5c.75.63.18,1.32-.69,2a27.2,27.2,0,0,0-2.89,2.57c-.75.81-3,1.19-4.33,1.38a18.22,18.22,0,0,0-4.08.88c-.75.37-3.26,0-5,0A6.45,6.45,0,0,0,30,15.3c-1,.69-1.44.31-2.94.44s-1.26,1.5-.57,2.51a4.72,4.72,0,0,1,.82,4.07c-.51,1.57-3.14,4-3.83,5.14s-.31,2.26-.69,3.39A6,6,0,0,1,21.07,33c-.63.67-1.13,1.2-1.58,1.63M30,14c-.87.57-3,.63-4.64,1.13s-1,2.26.06,4.14-1.25,4.95-2.07,6.14-3.45,2.45-4.45,2.76-1.19,1.44-1.32,3.07-.81,1.94-.81,1.94c-.53.53-1,1-1.43,1.51m-6.75,0a11,11,0,0,0,2-1.25,2.51,2.51,0,0,0,1.19-2c0-1.32.82-4.39,2.38-5.08s4.9-1.06,5.71-2.25,1.63-2.89.19-4.39-3.45-3.83-1.44-6.33A9.44,9.44,0,0,1,25,9.85c1.31,0,4.32-.25,5.14-1.51s.82-2.44.06-3.13l-1-1.13c-.88-1.38.5-3.26,1.13-4.51a3,3,0,0,0,.37-2.89C30.36-4.44,29-4.95,27.85-5.2s-1.51-1.63-1.63-2.75S25-9.71,24-10.59s.12-1.75,1.5-2.25a29,29,0,0,0,4-2.26A5.56,5.56,0,0,0,32.2-19M4.41,34.67c.94-.36,2-.68,3.11-1.13L8.15,33c.42-.17.75-.67,1.42-1.51s.42-1.67.59-3.26.75-1.83,2.42-3.26,3.93-1.08,4.85-1.25a2.44,2.44,0,0,0,1.84-1.25c.51-.75-.5-1.84-1.58-2.59s-1.43-3.6-1.34-4.68,2.42-3.93,3.68-4.93,4.77-1.51,6.35-2a2.13,2.13,0,0,0,1.43-3.18,3.28,3.28,0,0,1-.51-2.67,4.06,4.06,0,0,1,1.3-2A2.11,2.11,0,0,0,29-2.31c-.5-1.13-2-1.76-3.52-2.89s-1.25-1.5-1.38-2.63-.12-1-1.5-2.26-.38-1.75.38-2.63,1.88-1.38,4.14-2.38A5.22,5.22,0,0,0,30.58-19M-.13,33c.3-.35.72-.5,2-.67,2.76-.38,3.26-.5,4.89-2.38S8.65,27,7.77,26c0,0-1.29-.38-.54-1.05A18.43,18.43,0,0,1,10,23.55a7.75,7.75,0,0,1,3.18-.83c1.09-.09,3.59-.92,2.93-2.26a10,10,0,0,1-1-3.09,10,10,0,0,0-.42-1.76c-.25-.92.67-3.34,1.59-4.51a11.48,11.48,0,0,1,5.11-3.26c1.75-.42,3.43-.58,4-1.34a2.25,2.25,0,0,0,.34-2.42,10,10,0,0,1-.34-2.51C25.23.39,26.75.22,27.1-.93S27-2.44,25.21-3.44s-2-1.38-2.25-3.14-.13-.75-.88-1.5a5.65,5.65,0,0,1-2.14-3c-.37-1.63,1.38-2,2.26-2.88s3.39-2.13,5.15-3.26c1.09-.7,1.5-1.07,1.72-1.76M2.91,28.87a1.47,1.47,0,0,0,.56-2c-.31-.44-1.09-.1-1.09-.1C1.05,27.4.6,27.87-.13,28.24m5.17-3c-.69.63.5,1.75.63,2.63A1.89,1.89,0,0,1,5,29.4C3.16,31.15,1.56,31-.13,32.06m13.55-16.2a4.27,4.27,0,0,0,0,2.35A2.87,2.87,0,0,1,12.58,21a2.73,2.73,0,0,1-2.17.67c-1.63.13-1.26.5-2.89,1.26A15.83,15.83,0,0,1,3.63,24c-1.56.39-2.44,1.32-3.76,2.48M51,4c-.19-.5.88-.5,1.38-1.13s-1.44-.5-2.64-.63S48.68.32,48.87-.62a1.94,1.94,0,0,1,.94-1.32c.62-.87,1.5-1.25.87-2.25s-.12-.88-.25-1.76-.5-1.25-1.38-2.25S47.3-9.46,44.79-9.83s-.63-1.76,1.38-3.89c1.72-1.83.76-2.74-.26-5.27M47.42,1.07a2.81,2.81,0,0,0,.69-2.19,1.51,1.51,0,0,1,.38-1.13c.75-.75.44-3.32-.06-4.45s-2.64-1.38-4.65-1.76-1.88-1.25-2-2.25,1.88-2.26,3.13-3.64c1-1.13.29-2.77-.57-4.64M50.43,4.83c-.31-.31-.62-.81-1.25-.56s-1.19-.13-1.82-.5-1.19.06-2.38.12-1.2-.75-.88-1.31A31.32,31.32,0,0,1,46.8-.18c1.12-1.19-.13-2.76-.13-2.76-.38-.38-.38-1.38-.88-2.38s-.88-1.13-2.38-1.38a29,29,0,0,1-3.52-.88c-1.88-.5-1.88-2-2-3.13s1-1.13,2.51-2.13c1.31-.88,1.57-2.7,1.12-6.15M29.07,34.67a10.26,10.26,0,0,0,.28-1.76s0-.37-.06-1.06a5.45,5.45,0,0,0-.44-2.57,7.66,7.66,0,0,1-.31-4.51c.31-1.32,2.14-2.67,2.38-3.39.63-1.88-.62-2.07-1.19-3s.13-1.38,1.69-2,2.51-.38,4.52-.19a7.76,7.76,0,0,0,4.39-.88c.82-.44,1.32-.31,2.7-.31A9.82,9.82,0,0,0,47,14.11a3.55,3.55,0,0,0,1.89-1.57,6.37,6.37,0,0,1,1.88-1.63A4.6,4.6,0,0,0,52.5,8.53c.38-.88-.62-1.88-1.56-2.38A6.92,6.92,0,0,0,47.05,6c-.88.25-.88.06-1.82-.31A4.27,4.27,0,0,0,42,5.9c-1,.5-1.31-.19-1.44-.44s-.31-.31-1.13-.19-.19-1.13.06-1.44.13-.5.19-.88c.24-1.44,2.51-1.5,3.89-2.25s.88-2.39.88-3.51a3.13,3.13,0,0,0-2.63-2.76c-1.63-.38-1.51.12-2-.25s-1.13-1-1.76-1a3.52,3.52,0,0,1-2.13-1.12C35-8.71,34.12-9.21,34-10.09s1.88-2,3.89-3.13c1.71-1,1.14-3.49.93-5.77M38.14,2.2C38.39,1.32,40.4.07,42.4-.93s-.12-1.88-.75-2.76S39-4.82,38-4.82s-2.26-.25-2.51-1.13-1.25-1-2.38-1.13-2-1.12-1.63-2,.37-.63,0-1.38,1-1.88,3.76-3.26c2.32-1.16,2.16-2.67,2-5.27m-.6,25.7c-1.13-.75-.37-5-.25-6s1.13-1,2.38-1.51.88-.88.51-1.63-.63-.62-1.38-.75A5.87,5.87,0,0,1,35-4.07c-1.51-.88-1.38-1.38-3.51-1.63A2.36,2.36,0,0,1,29.1-8.33c0-1,.13-.63-.62-1.63s-.51-1,.12-1.5a15.69,15.69,0,0,1,3-2.14c1.75-1,2.66-3,3.07-5.39M12.11,34.67c.37-.58.73-1.23,1.06-1.88,0,0,.12-.44.44-1.38a18.65,18.65,0,0,1,1.63-3.7c.63-.94,4.7-1.82,5.58-2.19s2.14-2.57,3-4,.07-2.26-.37-3a2.94,2.94,0,0,1-.69-2.44c.25-1.07,3.07-2.14,3.95-2.2s2.45-1,3.58-1.44,5.08-.19,6.14-.13a5.48,5.48,0,0,0,2.32-.06A19.39,19.39,0,0,1,42.22,12a8.2,8.2,0,0,0,4-2c.75-.62.12-1-.38-1.19s-2.13.32-3.07.5a4.63,4.63,0,0,1-3.39-.62c-.82-.69-1.44-.5-2.89-.57s-1.5-1.56-1.5-2.25A2.37,2.37,0,0,0,34.19,4c-.63-.63-.51-1.7-.57-2.76s1.26-1.63,2.2-2.13.44-.25.44-.25c1.25-.88.37-.88-.38-1.13A2.74,2.74,0,0,1,34-3.44c-.63-.88-3.14-1.76-4.77-2.51s-1.51-2.25-2-3.26-1.25-1.13-1-2,3.64-2.64,5.14-3.64c1.08-.71,1.77-2.26,2.17-4.14M-.13,23.61c2.14-1,1.89-1.24,3.64-1.35,2-.13,3.26-.38,4.39-1.38s.25-.25,2-.88,1.75-1,2.13-2.25a7.93,7.93,0,0,1,0-1.3A3,3,0,0,1,13,15c.59-.59.34-1.17.5-2.18a3.12,3.12,0,0,1,1.09-1.92c.5-.5.71-.25.71-.25.88-.5.5-.5.88-1.38a3.51,3.51,0,0,1,1.38-1.63c.75-.63,3.51-1.25,5.14-1.75s1.13-2,.63-3.26,0-1.13.75-2.64-1-3-2.13-3.76a8.3,8.3,0,0,1-2.51-2.63c-.75-1.13-2.38-1.5-4.39-1.75a2.39,2.39,0,0,1-2.38-2.64c0-1.13,1.88-2.5,3.13-3s1.26-.37,1.89-1.38.87-1,2.5-1.37A6.43,6.43,0,0,0,23.74-19M12,13.73c-.75.88-.25.88-1.13,1.76s-1.51,1-2.13,2.26S7,20,4.64,20.25c-2,.22-3.52.07-4.77.79m0-2.23C1.54,18,3,18.5,4.38,18.5,6,18.5,7.77,16.37,8.27,15s2.89-2.89,4.4-4.14-.38-2.26-1.51-3.26.25-1.5,1.26-2.38,2.63-1,4.76-1.25,2-1.76,1.63-2.51a2.64,2.64,0,0,1-.25-2.26c.25-1.25,0-1.13-1.38-2S16.3-4.19,15.8-5.07s-2.26-.5-3-.5a3.42,3.42,0,0,1-2.13-.75c-.63-.51-2-.26-3.51.37s-1.76-.12-1.64-.88.76-1.25,2-1.88.75-1.12,1.13-2a7.78,7.78,0,0,1,3.26-2.76,5.19,5.19,0,0,0,2.51-1.88,5.72,5.72,0,0,1,2.76-2.13A6.15,6.15,0,0,0,19.49-19M6.64,15C5.39,16.12,4.51,16.74,3,16.49a4.79,4.79,0,0,0-3.13.57m0-2.28a6.84,6.84,0,0,1,4.39-.42c1.25.38,3.14-1.5,3.76-2.51s.63-1.5,2-1.88-.75-2.5-3-3.13S6.89,5.21,8,5a8.73,8.73,0,0,0,2.51-1,5.92,5.92,0,0,1,2.89-.88c1.13,0,1.13-.25,1.76-1.26a2.08,2.08,0,0,0,0-2.63,2.11,2.11,0,0,1-.88-1.88c0-1-1-1.13-1.76-1.13a4.29,4.29,0,0,1-2.38-.37c-1-.5-1.89-.5-4.77.62S2.63-3.44,3-4.07A2.42,2.42,0,0,0,3.13-6.2c-.25-1,2-3.26,3.39-4.76s2.76-3.89,4.39-4c1.35-.11,2.44-1.75,4.47-4M1.75,7.21c1.63.38,3.64.63,3.39,1.76s-.13,1-1,1.63a2.54,2.54,0,0,1-2.25.63,2.85,2.85,0,0,0-2,.12M1,4.58c.5-.88,1.75-1,2.76-1.13A4.77,4.77,0,0,0,6.52,1.82a6.88,6.88,0,0,1,3-1.5c1.13-.38.88-.88-.25-1.13s-.75.13-.75-.75S7.4-2.19,6-1.31M-.13,3.46A13,13,0,0,1,3.88,2,4.58,4.58,0,0,0,6.64.07c.88-1-1.38-.25-3,.63a6.73,6.73,0,0,1-3.76.6m0,8.94a5.36,5.36,0,0,1,.88,0c1,0,1.13.13,1.75-.62s0-1-.88-1.13A3.82,3.82,0,0,1-.13,7.15m0,5.61c.89-.51,1.67-.25,2.76-.15a2.19,2.19,0,0,0,2.26-.88,7,7,0,0,1,1.75-1.38c1-.63.88-1-.12-1.76a7.74,7.74,0,0,0-3.89-2C.12,6,2.13,5,3.38,4.71A6.59,6.59,0,0,0,6.89,3.2c1.13-1,4-1.75,5.27-2.63S12.42-1.69,11-1.56s-.88-1.13-2.64-1.5S4.13-.56,1.88-.18s-1-3.26-.26-4.51A2.7,2.7,0,0,0,2.13-7.2c-.13-1.26,1.25-3,2.38-3.89s1-1,1.26-2.38,2.38-2.76,3.76-3.13A5.29,5.29,0,0,0,12.11-19"/></g></svg>