<svg xmlns="http://www.w3.org/2000/svg" viewBox="0 0 54 54.19"><defs><style>.cls-1,.cls-2{fill:none;}.cls-1{stroke:#000;stroke-width:0.3px;}</style></defs><title>707 Esquisto y gneis</title><g id="Capa_1" data-name="Capa 1"><path class="cls-1" d="M39,24.8c-1.2,1.38-3.33,3.88-3.89,4.45a1.59,1.59,0,0,0-.63,1.44,1.7,1.7,0,0,1-.69,1.63c-.75.75-4,4-4,4"/><path class="cls-1" d="M2.91,30.44s1.7-1.51,2.26-2.13a3.82,3.82,0,0,0,.94-2.2c.13-.87.57-1,1.45-2s2.5-2.64,4.64-4.83"/><path class="cls-1" d="M38.86,33.82c.17-.19.46-.51.84-.91"/><path class="cls-1" d="M24.05,49.55c1.57-1.69,6-6.14,6.59-7a1.21,1.21,0,0,0,.06-1.69c-.25-.37.57-1.25,1.13-1.88s1.13-1.19,2.26-2.25,2.65-2.48,3.52-3.26a10.19,10.19,0,0,0,1.5-2.64l.59-.53"/><path class="cls-1" d="M39.7,40.28l-.71.44a9.86,9.86,0,0,0-1.51,1.63,3.68,3.68,0,0,0-.25,1.81"/><path class="cls-1" d="M38.73,44s.42-.37,1-.88"/><path class="cls-1" d="M4,18.15C2.1,20,.34,21.66-.41,22.41a4.41,4.41,0,0,0-1.26,2.14,3.07,3.07,0,0,1-.87,2l-2.14,2.13"/><path class="cls-1" d="M-14.67,43.14c.74-.68,1.75-1.64,2.34-2.3,1-1.13,1.13-.62,1.13-2S-10.2,37-9.32,36-6.09,33-4.68,31.44c.94-1.06,1.57-1.44,2.32-2.26s1.57-1.37,2.14-2a3.19,3.19,0,0,0,.44-2.26c0-.75.43-1,.94-1.56,0,0,1.25-1.26,2.38-2.32s6-6,6-6c.92-.92,1.17-1.34.84-2.09s0-1.09.5-1.75,3-3.35,4.55-5.1"/><path class="cls-1" d="M-14.67,45.17c1.49-1.32,4.1-3.63,4.72-4.08.88-.62.76-1.63.76-2.5s.5-1.13,1.75-2.26,5.52-5,7.15-6.64c0,0,1.32-1.63,1.7-2s.37-.69.44-1.5a2.27,2.27,0,0,1,.81-2.07c.94-1,7.47-7.15,8.28-7.9"/><path class="cls-1" d="M27.25,38.65c-.81,1-1.5,1.63-1.38,2.32a2.48,2.48,0,0,1-.37,2.25c-.63.69-4.71,4.45-5.34,5.14"/><path class="cls-1" d="M4.48,34.11s-4,4.52-4.43,4.94a1.76,1.76,0,0,0-.67,1.58c.08.76.08.92-.34,1.34S-3.8,44.73-3.8,44.73"/><path class="cls-1" d="M13.26,22.67c-1.84,2.08-2.76,3.42-3.17,3.92a1.49,1.49,0,0,0-.42,1.51c.16.58-.17.92-.67,1.42s-2.59,2.42-2.59,2.42"/><path class="cls-1" d="M18.22,45.86s3.64-3.58,4.27-4.33a1.82,1.82,0,0,0,.56-1.94c-.19-.88.44-1.44.94-2s3.08-3.51,4.39-4.82l1.45-1.51c.75-.81,3.11-3.07,3.11-3.07.75-.75,1.09-1.5.84-2.17s.33-1.59,1.25-2.59c.56-.61,2.72-2.79,4.67-4.74"/><path class="cls-1" d="M8.68,38.21c.88-.88,8.6-9,8.6-9,.69-.69,1.38-1.38,1.19-2.13A1.49,1.49,0,0,1,19,25.3c.69-.57,7.34-7.15,7.84-7.65"/><path class="cls-1" d="M33.24,6.12c-1.93,1.59-5.86,4.84-6,5.51s.59,1.76-.16,2.59-3.6,3.68-4.6,4.52L16,25.17a2.11,2.11,0,0,0-.81,2.2c.18.81.31.87-1.26,2.63S5.67,38.4,5,39.09A1.66,1.66,0,0,0,4.48,41c.19.88-.31,1.32-1.38,2.38s-5.77,6.14-7,7.46"/><path class="cls-1" d="M9.37,44c.51-.44,1-.72.63-1.45-.25-.5.41-1.37,1.82-3"/><path class="cls-1" d="M30.5,6.12c-2,1.92-5,4.52-5.69,5.18s-.84,1.09-.67,2.17-.75,2.18-1.93,3.18l-9.36,9.44c-.67.67-.42,1-.34,1.84s-.75,1.42-1.25,2.09-7,7.19-8.2,8.19-.92,1.25-.84,2.09S1.72,41.89.63,43-5.89,49.83-7,50.91"/><path class="cls-1" d="M39.7,12.18c-1.17,1.05-2.49,2.1-2.35,2.8s.17,1-1.25,2.42-6.78,6.77-7.7,7.77-1.5,1.92-1.25,2.59-.08,1.42-.84,2.18c0,0-6.71,6.77-7.53,7.71s-1.44,2-1.25,2.5a1.82,1.82,0,0,1-.13,2c-.62.63-8.09,9-8.53,9.46"/><path class="cls-1" d="M39.7,27.5c-.75.54-1.34.93-1.34.93a5.24,5.24,0,0,0-1.13,1.19,4,4,0,0,0-.06,1.51,8.36,8.36,0,0,1-1.32,2.19c-1,1.07-5.58,5.52-6.34,6.14s-1.25,1.26-1.19,1.95.44,1.69-.25,2.25-5.83,5.77-6.78,6.65"/><path class="cls-1" d="M39.05,36.39c-.94.94-3.2,3.45-3.83,4.14s-1.32,1.32-1.32,2,.51,1.2.13,1.76"/><path class="cls-1" d="M16.69,45.06s2.18-2.25,3-3.26.16-1.5.16-2.34.84-1.5,1.76-2.5,9.74-9.68,9.74-9.68c.76-.75,1.09-1.5.84-2.17s.33-1.59,1.25-2.59c.72-.78,4.09-4.16,6.24-6.31"/><path class="cls-1" d="M.89,9c.54-.48,1.48-1.45,2.8-2.84"/><path class="cls-1" d="M-10.16,25.76c1-1,1.68-1.76,1.68-2.93s.67-1.84,1.67-2.67S-2.13,15.65-1,14.73a2.25,2.25,0,0,0,1-2.18c0-.67.09-.67.93-1.58s3.24-3.09,5-4.85"/><path class="cls-1" d="M-14.67,33c2.05-2.24,6.71-7.28,7.36-8a7.24,7.24,0,0,0,1-1.13c.38-.56.44-.43.25-1.06s-.37-.88-.06-1.19.65-.71.65-.71C-5.14,20.49,0,15.9.72,15.31a2.09,2.09,0,0,0,.92-2.17c-.17-.92-.09-1,.58-1.59S5.89,8.09,8.07,6.12"/><path class="cls-1" d="M6.15,16.23s.67-.67,1.51-1.59.92-1.33.59-2.25.25-.92.83-1.68,2.58-2.88,4.21-4.59"/><path class="cls-1" d="M11.84,15.31c.92-.92,1.09-1.17.84-2.09a2.27,2.27,0,0,1,.75-2.42c.66-.59,3.25-3,4.84-4.68"/><path class="cls-1" d="M.22,31.32C.65,31,3,28.49,3.48,27.93a2.06,2.06,0,0,0,.44-1.69A3.84,3.84,0,0,1,5.3,24c.75-.75,8.47-8.59,8.47-8.59a2.51,2.51,0,0,0,1-2.08,1.68,1.68,0,0,1,.59-1.51c.54-.62,3-3.08,5.53-5.68"/><path class="cls-1" d="M22,8c-1.42,1.5-3.43,3.43-4,3.93s-.84.58-.84,1.34a5.05,5.05,0,0,1-1.67,2.92"/><path class="cls-1" d="M25.23,9c-1.51,1.59-2.76,3-3.1,3.34a1.41,1.41,0,0,0-.33,1.51c.16.83-.09.58-.92,1.42S17.28,19,17.28,19"/><path class="cls-1" d="M34.59,7c-1.17,1.26-5.35,4.18-5.18,5.19s.5,1.33-.09,1.92"/><path class="cls-1" d="M39.7,10.16c-2.31,2-4.51,3.38-4.44,4.15s.76,1-.5,2.34l-.51.53c-1.7,1.75-5.74,5.79-7.16,7.14l-.28.27c-1.17,1.08-2.09,2.5-1.84,3.34a1.63,1.63,0,0,1-.5,2.09s-7,7.25-7.82,8S15,40.09,15,40.78s.31,1.32-.25,1.94c-.11.13-.52.56-1.09,1.17"/><path class="cls-1" d="M39.7,8.24c-4.11,3.67-7,6-6.28,6.74s-1,2.17-3.51,4.68-7.36,6.93-6.69,8.6c0,0,.58.86.08,1.3S14.58,38.77,14,39.34a3.14,3.14,0,0,0-1.06,2.25,2.23,2.23,0,0,1-.63,2.14c-.75.75-6.21,6.45-7.09,7.33"/><rect class="cls-2" y="6.12" width="39.69" height="37.09"/><path class="cls-1" d="M58.15,18.15c-1.89,1.88-3.64,3.51-4.4,4.26a4.38,4.38,0,0,0-1.25,2.14,3.14,3.14,0,0,1-.88,2l-2.13,2.13"/><path class="cls-1" d="M43.47,26.18a37.54,37.54,0,0,1-4,4.14"/><path class="cls-1" d="M46.73,31.57c-1.76,1.88-3.14,3.38-4,4.26s-1.38,1.25-1.5,2.13-.13,1.25-.63,1.63c-.25.19-.71.48-1.09.72"/><path class="cls-1" d="M39.49,43.14c.75-.68,1.76-1.64,2.35-2.3,1-1.13,1.12-.62,1.12-2S44,37,44.85,36s3.23-2.91,4.64-4.51c.94-1.06,1.57-1.44,2.32-2.26s1.57-1.37,2.13-2a3.14,3.14,0,0,0,.44-2.26c0-.75.44-1,.94-1.56,0,0,1.26-1.26,2.39-2.32"/><path class="cls-1" d="M39.49,45.17c1.49-1.32,4.11-3.63,4.73-4.08.88-.62.75-1.63.75-2.5s.5-1.13,1.76-2.26,5.52-5,7.15-6.64c0,0,1.32-1.63,1.69-2S56,27,56,26.18a2.31,2.31,0,0,1,.82-2.07c.94-1,7.46-7.15,8.28-7.9"/><path class="cls-1" d="M53.25,32.69c-2.51,2.51-4.26,3.89-5,4.89s-1.5,1.26-1.63,2.64-.25,1.25-1.25,2.25c-.74.74-4.12,3.64-5.86,5.13"/><path class="cls-1" d="M52.75,35.83l-3.39,3.38c-.75.76-1.38,1.26-1.25,2s-.5,1.75-1.76,3"/><path class="cls-1" d="M58.65,34.11s-4,4.52-4.44,4.94a1.76,1.76,0,0,0-.66,1.58c.08.76.08.92-.34,1.34s-2.84,2.76-2.84,2.76"/><path class="cls-1" d="M53.15,6.45c-1.84,2.09-6.53,5.87-6.94,6.37a1.5,1.5,0,0,0-.42,1.51c.17.58-.17.92-.67,1.42s-4.1,4-4.1,4"/><path class="cls-1" d="M58.65,41c.19.88-.32,1.32-1.38,2.38s-5.77,6.14-7,7.46"/><path class="cls-1" d="M65.42,30c-.5.67-7,7.19-8.19,8.19s-.92,1.25-.84,2.09-.5,1.59-1.59,2.67-6.52,6.86-7.61,7.94"/><path class="cls-1" d="M51.07,6.12,46.85,9.8c-1.25,1.25-3.17,2.59-3,3.42s.17,1-1.25,2.43l-3.1,3.09"/><path class="cls-1" d="M39.49,16.27,41,14.75c1.42-1.42,1.42-1.59,1.25-2.43s1.76-2.17,3-3.42l3.19-2.78"/><path class="cls-1" d="M39.49,12.2c.24-.22.48-.43.69-.65l6.24-5.43"/><path class="cls-1" d="M42.67,7.37,40.1,9.63l-.61.55"/><line class="cls-1" x1="40.02" y1="7.79" x2="41.72" y2="6.12"/><path class="cls-1" d="M52.12,12.55c-1.59,1.67-4.93,5-6.35,6.35s-2.09,1.86-2.18,2.7l-.25,1.32a3.38,3.38,0,0,1-1.13,2.38,19.59,19.59,0,0,1-2.72,2.23"/><path class="cls-1" d="M44,25.76c1-1,1.67-1.76,1.67-2.93s.67-1.84,1.68-2.67,4.68-4.51,5.77-5.43a2.27,2.27,0,0,0,1-2.18c0-.67.08-.67.92-1.58s3.25-3.09,5-4.85"/><path class="cls-1" d="M39.49,33c2.06-2.24,6.72-7.28,7.36-8a7.06,7.06,0,0,0,1-1.13c.37-.56.44-.43.25-1.06s-.38-.88-.06-1.19.64-.71.64-.71c.34-.34,5.44-4.93,6.19-5.52a2.06,2.06,0,0,0,.92-2.17c-.16-.92-.08-1,.59-1.59s3.67-3.46,5.84-5.43"/><rect class="cls-2" x="39.49" y="6.12" width="14.51" height="37.09"/><path class="cls-1" d="M17.72,3.91c.94-1,3.76-3.26,4.2-3.88S21.67-1,21.73-1.79s.76-1.13,2.32-2.82,6-6.14,6.59-7"/><path class="cls-1" d="M37.23-10c0,.56-.32,1.06-1.07,1.82S29.83-2.73,29-1.67c0,0-.82.94-1.13,1.2A1.65,1.65,0,0,0,27.19,1c.13.56.31,1.38-.06,1.81S24.31,5.48,23.8,6"/><path class="cls-1" d="M39.7-9l-1.09,1s-.88.31-.94.82A2.63,2.63,0,0,1,37-5.68,30.81,30.81,0,0,1,34.28-3c-1.57,1.44-4,3.38-4,4.26s.37,1.13-.19,1.63-2.39,2.5-2.39,2.5"/><path class="cls-1" d="M31.71,5a3.27,3.27,0,0,0,.81-.63c.25-.31.13-.69.07-1.12s.5-.82,1.13-1.51,2.69-2.38,2.94-3,0-.5-.18-1-.38-1,.12-1.44,2-2,2-2L39.7-6.6"/><path class="cls-1" d="M39.7,4.29l-1.08,1"/><path class="cls-1" d="M25.5-10.94c-.63.69-4.71,4.45-5.34,5.14s-1.75,1.88-1.63,2.69a2,2,0,0,1-.37,2c-.63.81-5,5-5.59,5.64"/><path class="cls-1" d="M3.1-10.75C2-9.69-2.67-4.61-3.92-3.3S-4.8-1.41-4.55-.79-3.92.34-4.55,1s-4.08,3.76-5,4.58"/><line class="cls-1" x1="0.36" y1="3.22" x2="-3.14" y2="6.27"/><path class="cls-1" d="M-5.74,6.27l4.53-3.95S-.29,1.41.09,1A1.85,1.85,0,0,0,.34-.73C.15-1.16,2-3,4.23-5.18s4.64-4.57,5.14-5"/><path class="cls-1" d="M.63-11.19C-.45-10.11-5.89-4.34-7-3.25S-7.48-2-7-1.16a1.71,1.71,0,0,1-.33,2.34c-.76.66-3.52,3.46-3.52,3.46l-1.66,1.63"/><path class="cls-1" d="M17.4-12c-.62.63-8.09,9-8.53,9.47A8.72,8.72,0,0,0,7.05-.22C7,.28,7.62,1,7.62,1.59s-1.82,2.32-2.39,3l-.58.69-1,1"/><path class="cls-1" d="M17.7-7.85S14.1-4.09,13-2.92,12.09-.41,12.18.76s-.76,1.92-1.43,2.67L9,5.4,8,6.27"/><path class="cls-1" d="M28.07-10.5c-.69.56-5.83,5.76-6.78,6.64s-1.5,1.5-1.5,2.13.5,1.13-.06,1.82-4,3.38-5,4.51.67-.62-1,1.13l-.52.54"/><path class="cls-1" d="M16.19,5.4c-.2.24-.46.54-.76.87"/><path class="cls-1" d="M18.23,6.27c.24-.25.45-.49.64-.71"/><path class="cls-1" d="M34-9.88c-.38.57-4.33,4.7-4.33,4.7-.81.82-2.76,2.64-3.58,3.51s-.87.69-.81,1.51.63,1.25-.19,2.26-.81.62-3.57,3.46l-.7.71"/><path class="cls-1" d="M31.25,5.48c-.24.25-.5.51-.79.79"/><path class="cls-1" d="M39.7-3.8c-.47.42-.82.73-1,.88a1.06,1.06,0,0,0-.37.69c0,.38.5.82.12,1.32s-3.26,3.19-3.76,3.63-.94,1-.75,1.44.5.5.31.88a4.31,4.31,0,0,1-.44.69l-.65.54"/><path class="cls-1" d="M5.82,6.27c.35-.34.66-.67.92-1,0,0,1.25-1.46,2.09-2.3S9.92,1.93,9.67.92,8.92-.83,12.09-4a51,51,0,0,0,4.6-5.09s2.18-2.26,3-3.26"/><path class="cls-1" d="M8.3-4.62,5.74-1.92C4.92-1,4.54-.66,4.67,0s.5,1.19.13,1.63S2,4.6,2,4.6"/><rect class="cls-2" y="0.01" width="39.69" height="6.27"/><path class="cls-1" d="M49.7-8s-3.43,3.18-3.85,3.43S44.26-2.75,45.1-1.5c.31.47,0,.59-.5,1.17-.35.41-3.32,3.07-5.11,4.66"/><path class="cls-1" d="M57.27-10.75c-1.07,1.06-5.77,6.14-7,7.45s-.88,1.89-.63,2.51.63,1.13,0,1.82-4.07,3.76-5,4.58"/><line class="cls-1" x1="54.53" y1="3.22" x2="51.03" y2="6.27"/><path class="cls-1" d="M48.43,6.27,53,2.32s.92-.91,1.3-1.35a1.88,1.88,0,0,0,.25-1.7C54.32-1.16,56.2-3,58.4-5.18"/><line class="cls-1" x1="47.86" y1="4.98" x2="46.37" y2="6.27"/><path class="cls-1" d="M54.8-11.19c-1.09,1.08-6.52,6.85-7.61,7.94s-.5,1.25,0,2.09a1.71,1.71,0,0,1-.34,2.34c-.75.66-3.51,3.46-3.51,3.46L41.68,6.27"/><rect class="cls-2" x="39.49" y="0.01" width="14.51" height="6.27"/></g><g id="Capa_2" data-name="Capa 2"><path class="cls-1" d="M17.71,58.1c.94-1,3.76-3.26,4.2-3.88s-.25-1.07-.19-1.82.76-1.13,2.32-2.82"/><path class="cls-1" d="M36.15,46c-.75.75-6.33,5.45-7.21,6.52,0,0-.82.94-1.13,1.19a1.62,1.62,0,0,0-.63,1.44c.13.56.31,1.38-.06,1.82s-2.83,2.69-3.33,3.19"/><path class="cls-1" d="M38.6,46.13s-.88.32-.94.82A2.7,2.7,0,0,1,37,48.51a30.81,30.81,0,0,1-2.76,2.64c-1.57,1.44-4,3.38-4,4.26s.38,1.13-.18,1.63-2.39,2.51-2.39,2.51"/><path class="cls-1" d="M31.7,59.23a3.4,3.4,0,0,0,.81-.62c.25-.32.13-.69.07-1.13s.5-.82,1.12-1.51,2.7-2.38,2.95-3,0-.5-.19-1-.37-1,.13-1.44,2-2,2-2l1.09-.92"/><path class="cls-1" d="M20.15,48.39c-.62.69-1.75,1.88-1.63,2.69a2,2,0,0,1-.37,2c-.63.81-5,4.95-5.59,5.64"/><path class="cls-1" d="M-5.75,60.46l4.53-3.94s.92-.92,1.3-1.36a1.83,1.83,0,0,0,.25-1.69C.14,53,2,51.21,4.22,49"/><path class="cls-1" d="M8.86,51.65A8.88,8.88,0,0,0,7,54c-.06.5.57,1.19.57,1.81S5.79,58.1,5.22,58.73l-.58.69-1,1"/><path class="cls-1" d="M17.69,46.34S14.09,50.1,13,51.27s-.92,2.51-.83,3.68-.76,1.92-1.43,2.67L9,59.59l-1,.87"/><path class="cls-1" d="M21.28,50.33c-.94.88-1.5,1.51-1.5,2.13s.5,1.13-.07,1.82-4,3.39-5,4.51.67-.62-1,1.13l-.52.54"/><path class="cls-1" d="M29.69,49c-.82.81-2.76,2.63-3.58,3.51s-.87.68-.81,1.5.63,1.25-.19,2.26-.82.62-3.58,3.46l-.69.71"/><path class="cls-1" d="M39.69,50.39c-.47.42-.82.73-1,.88a1.09,1.09,0,0,0-.37.69c0,.38.5.82.12,1.32s-3.26,3.19-3.76,3.63-.94,1-.75,1.44.5.51.31.88a4.31,4.31,0,0,1-.44.69l-.66.54"/><path class="cls-1" d="M5.81,60.46c.34-.34.66-.67.92-1,0,0,1.25-1.46,2.09-2.29s1.09-1.09.84-2.09-.76-1.76,2.42-4.93"/><path class="cls-1" d="M8.29,49.57l-2.56,2.7c-.82.88-1.2,1.26-1.07,1.88s.5,1.2.12,1.63-2.82,3-2.82,3"/><path class="cls-1" d="M49.69,46.17s-3.43,3.18-3.85,3.43-1.59,1.84-.75,3.09c.31.47,0,.59-.51,1.17-.34.41-3.31,3.07-5.1,4.66"/><path class="cls-1" d="M50.23,50.9c-1.25,1.31-.88,1.88-.63,2.5s.63,1.13,0,1.82-4.07,3.76-5,4.58"/><path class="cls-1" d="M48.42,60.46,53,56.52s.92-.92,1.3-1.36a1.89,1.89,0,0,0,.25-1.69c-.19-.44,1.69-2.26,3.89-4.45"/><path class="cls-1" d="M47.18,50.94c-1.09,1.08-.5,1.25,0,2.09a1.71,1.71,0,0,1-.34,2.34c-.75.67-3.51,3.46-3.51,3.46l-1.66,1.63"/></g></svg>