<svg id="Capa_1" data-name="Capa 1" xmlns="http://www.w3.org/2000/svg" viewBox="0 0 52.66 52.66"><defs><style>.cls-1{fill:none;stroke:#000;stroke-width:0.3px;}</style></defs><title>708 Gneis</title><path class="cls-1" d="M20.94,35.49l1.38,1.82m23.34,4-.95,2.26M47,38.81l2.45.88M26.19,43.51l-2.45-.87M25,48.83l-.38-2.38m4-7.22.06,2.13m4.56.65-2.32.31m1.38-2.19.57-1.76m-.34-2.5-2.17.66m7,.51-2-1.17M2.22,38.62v2.13m1.44-4.07,2-.81m7.55,7L13,45.14M8.85,43.05l2.26,1.07m6.79-8.34L16.77,38.5M15.92,42l-.38-1.88m-1.78-1.22-2,.74M.4,37.06-2,36.43M-3,68.44a9.7,9.7,0,0,0,2.38-4c.76-2.13,2.64-3,5.15-4.39S8,56.43,9,54.42s2.25-2.76,4.76-3.64,3.77-3.63,4.77-5.76,2.64-2.64,5.65-3.89c2.51-1,3.88-4.17,4.71-6.35M-3,84.3c1.76-1.2,6.3-3.46,9-4.87a8.54,8.54,0,0,0,4-4.58c.38-1.37.63-1,1.25-1.5A16,16,0,0,0,13,71.72c1-1,2.64-1.63,4-3,.83-.86.82-2.25,1.26-3.32S19.29,64.26,21,63.2a10.84,10.84,0,0,0,3.39-3.89,10.33,10.33,0,0,1,3.51-3c1.45-.88,1.51-2.07,2.26-3.26s3.95-2.32,5.33-3.13a7.38,7.38,0,0,0,2.95-5c.44-2.25,2.32-2.82,3.58-3.32s1.63-1,3.26-2.44a7.68,7.68,0,0,0,2.44-4.41M-3,82.47c1.6-1.2,4.31-3.62,7-4.23,3.12-.7,3.89-3.26,4.51-4.89s2-1.75,4.14-2.63,3.39-4.89,4-6c.94-1.78,1.31-1.63,2.95-2.57a7.35,7.35,0,0,0,3.07-2.69,15.73,15.73,0,0,1,3.32-3.45c1.2-.94,1.32-1.63,2.14-3.13s4.77-3.45,6.21-4.64A6.46,6.46,0,0,0,37,44c.5-2.25,3.45-3.44,5.27-4.63a7.61,7.61,0,0,0,3.25-4.6M-3,80c1.42-1.09,3.52-2.59,4.95-2.73,2.74-.28,3.71-2.51,4.46-4.39s2.51-2.76,3.76-3.51A10.8,10.8,0,0,0,15.33,63c1.09-3.25,4.61-3.4,7.34-5.77,1.88-1.63,2.73-3.63,4.21-5.89s3.7-3.2,5.7-4.2S36,42.51,36.73,41,38.48,39.5,40,38.5a8.17,8.17,0,0,0,3.18-3.72M-3,78.08c1.63-.85,3.29-1.73,4.45-2.47a11.91,11.91,0,0,0,4.08-4.89c.5-1.63,3.39-3.14,4.77-3.64,1.9-.69,3.39-3.51,3.89-4.89s2.38-3.26,5-4.26,5.27-5.64,6-7.15S29.07,47,30.83,46.4s3.39-3.51,3.89-4.89a8.79,8.79,0,0,1,4-4.27A4.24,4.24,0,0,0,41,34.78M-3,65.43A20.45,20.45,0,0,0-.92,62.32c.88-1.63,3-2.89,5-4.39s2.76-3.76,3.39-4.76a18.64,18.64,0,0,1,5.65-4.39c2.26-1.13,4.14-4.77,4.89-6s3.14-2.63,5.65-3.64c1.93-.77,2.82-2.73,3.3-4.34M-3,62.71A14.93,14.93,0,0,1,2,57.8a8.53,8.53,0,0,0,4-4.63c.88-2,3.64-4.27,6.15-5.52s3.77-4.39,4.64-5.89,5.15-3.51,6.78-4.39a3.62,3.62,0,0,0,1.79-2.59M-3,51.55a13.76,13.76,0,0,0,2.26-2.9C.09,47,.59,47.15,2.72,46.27s3.77-1.88,4.39-3.13a11.67,11.67,0,0,1,3.77-3.64,13.55,13.55,0,0,0,4-4.72M-3,48.93c.31-.48.56-.92.75-1.28.76-1.38,3.52-2.88,5.27-3.38s2.51-1.13,3.77-3.14,2-2.76,3.51-3.26c1.27-.42,1.74-1.38,2.53-3.09M-3,46.13c1.9-2.72,3.43-3.27,5.4-3.62,2.21-.39,2.13-2.26,3-3.89s2-1.88,3.38-2.5a2.78,2.78,0,0,0,1.45-1.34"/><path class="cls-1" d="M51.58,40.32l-.75,2.13m2.32-5.39-2.38-.63M7.94,45.49l1.38,1.82m30.65.5,2.45.88M21.5,47.87l-2.17.66m11-2.49-2-1.17M4.9,45.78,3.77,48.5m42.38-2.44-2.38-.63m5.93,23a9.6,9.6,0,0,0,2.38-4c.76-2.13,2.64-3,5.15-4.39s3.51-3.63,4.51-5.64,2.26-2.76,4.77-3.64,3.77-3.63,4.77-5.76,2.64-2.64,5.65-3.89c2.51-1,3.88-4.17,4.71-6.35M49.7,84.3c1.76-1.2,6.3-3.46,9-4.87a8.54,8.54,0,0,0,4-4.58c.38-1.37.63-1,1.25-1.5a16,16,0,0,0,1.76-1.63c1-1,2.64-1.63,3.95-3,.83-.86.82-2.25,1.26-3.32S72,64.26,73.79,63.2a10.84,10.84,0,0,0,3.39-3.89,10.33,10.33,0,0,1,3.51-3C82.14,55.42,82.2,54.23,83,53s4-2.32,5.33-3.13a7.38,7.38,0,0,0,3-5c.44-2.25,2.32-2.82,3.58-3.32s1.63-1,3.26-2.44a7.68,7.68,0,0,0,2.44-4.41M49.7,82.47c1.59-1.2,4.31-3.62,7-4.23,3.12-.7,3.89-3.26,4.51-4.89s2-1.75,4.14-2.63,3.39-4.89,4-6c.94-1.78,1.31-1.63,3-2.57a7.35,7.35,0,0,0,3.07-2.69,15.73,15.73,0,0,1,3.32-3.45c1.2-.94,1.32-1.63,2.14-3.13s4.77-3.45,6.21-4.64A6.46,6.46,0,0,0,89.73,44c.5-2.25,3.45-3.44,5.27-4.63a7.61,7.61,0,0,0,3.25-4.6M49.7,80c1.42-1.09,3.52-2.59,4.95-2.73,2.74-.28,3.71-2.51,4.46-4.39s2.51-2.76,3.76-3.51A10.8,10.8,0,0,0,68.08,63c1.09-3.25,4.61-3.4,7.34-5.77,1.88-1.63,2.73-3.63,4.21-5.89s3.7-3.2,5.7-4.2,3.39-4.64,4.15-6.14,1.75-1.51,3.26-2.51a8.17,8.17,0,0,0,3.18-3.72M49.7,78.08c1.63-.85,3.29-1.73,4.45-2.47a11.91,11.91,0,0,0,4.08-4.89c.5-1.63,3.39-3.14,4.77-3.64,1.9-.69,3.39-3.51,3.89-4.89s2.38-3.26,5-4.26,5.27-5.64,6-7.15S81.82,47,83.58,46.4s3.39-3.51,3.89-4.89a8.79,8.79,0,0,1,4-4.27,4.24,4.24,0,0,0,2.23-2.46m-44,30.65a20.45,20.45,0,0,0,2.13-3.11c.88-1.63,3-2.89,5-4.39s2.76-3.76,3.39-4.76a18.64,18.64,0,0,1,5.65-4.39c2.26-1.13,4.14-4.77,4.89-6s3.14-2.63,5.65-3.64c1.93-.77,2.82-2.73,3.3-4.34m-30,27.93a14.93,14.93,0,0,1,5-4.91,8.53,8.53,0,0,0,4-4.63c.88-2,3.64-4.27,6.15-5.52s3.77-4.39,4.64-5.89,5.15-3.51,6.78-4.39a3.62,3.62,0,0,0,1.79-2.59M49.7,51.55A13.76,13.76,0,0,0,52,48.65c.88-1.63,1.38-1.5,3.51-2.38s3.77-1.88,4.39-3.13a11.67,11.67,0,0,1,3.77-3.64,13.43,13.43,0,0,0,3.95-4.72M49.7,48.93c.31-.48.56-.92.75-1.28.76-1.38,3.51-2.88,5.27-3.38s2.51-1.13,3.77-3.14,2-2.76,3.51-3.26c1.27-.42,1.74-1.38,2.52-3.09M49.7,46.13c1.9-2.72,3.43-3.27,5.4-3.62,2.2-.39,2.13-2.26,3-3.89s2-1.88,3.38-2.5a2.78,2.78,0,0,0,1.45-1.34"/><path class="cls-1" d="M13.93-.54V1.59M47.64,19.47,48,21.35m-19.57-.44,2.38.63M19.66,33.7l-1.13-2.19m-15.31-2L1.59,31.44m28.57-6.37-2-1.67m-3,3.72.63-2.82m7.34-8.84L35,15.21M23.05,33.51l.56-2.5m-3.07-1.7,2.7-.56m13-12.22,2.39.62m-1.69-3.44.18-2.32M11.88,28.44l-1.63,1.94M40.74,12l-1.63,1.94m8-11.72L48.9,3.3M34.59,17.78,34,20.6M47.71,9.69l-1.89.25m-1.75.38-.57,2.51M40,9.07l2.57.44M19.72,12.83l-.12,1.88M23.87,16l-1.39-2.13m1.11-3.07,1.89-.94M27.63,13l-2.76-.26m2.61-5.41.07-2.19M30.49,10l-2.25.81M11,26.12,9.62,24.3m29.93,0,1.38,1.82M32.08,6.85,30.7,5m3.5-1.37-2-1.2M33.34.29l2.45-.63m2.76.76-.19-2.7m-.53,4.83L36.45,4.3m-32,27.61L3.39,34.43m5-6.39-2.09-.26m2.6,4.64L6.7,30.69M2,20.91.65,18.78m0-7,1.88-.94m-.71,5.67,2.76.25m0-2.57L4.62,12m5.57-.19-2.26.82M.9,34.47-.48,32.66M7.87,9.51,6.49,7.69m3.26,0,2,1.19M33.34,33.93l-1.17-2.17M36,33.93l-.17-2.34m4-.17L38.5,33.18M35,29.59l1.51-2.35M39,28.87h2.5m2-3.38-.37,2.13M9.56,3.86,12,3.24m2.61,4-.19-2.7m5.48-.87-1.69-.59M18.68.52,16.55,1.84M22.82,0l-.44-2.19m-20,5.2L.46,2.3M17.65,21.35v2.13m-2.38-.87-1.51,1.5M15.58,20l-2.44.06M18.47,17l-.75,2m3.89-.25-1.95.82M1.51,14.33,0,15.84M1.47-.09,3-1.59M46.58,23.48,47,25.36m-4.26-1.75,1.94-1.25M48.52,5.81,46.7,7M43.94,5.68l.38,1.88m5.59,24-.44.33c-1.29,1.1-.7.5-1.07,1a4.24,4.24,0,0,0-.57,1.38,5.3,5.3,0,0,1-.07.66m-2.26,0a5.81,5.81,0,0,0,.14-1.1,5.45,5.45,0,0,1,1.5-2.2,13.81,13.81,0,0,1,2.2-1.5c.17-.11.36-.25.57-.41m-6.74,5.21a5.06,5.06,0,0,0,.27-1.1,9.65,9.65,0,0,1,1.57-3c.81-.75,2.7-1.88,3.83-2.76l1.07-.84M41,34.93a4.67,4.67,0,0,0,.28-1s.38-3.26,1.07-4.14,1.19-1.19,3.26-2.19,2.89-1.38,2.89-1.38L49,25.8l.88-.46M27,34.93c.14-.47.25-.92.34-1.29a9.29,9.29,0,0,1,2.19-4.14,53.65,53.65,0,0,1,4.33-3.57A18.44,18.44,0,0,0,37.61,22c.81-1.31,1.38-1.13,2.76-1.69s1.56-1.32,2.25-2.19A9.78,9.78,0,0,1,45.7,16l1.71-.94a11.43,11.43,0,0,0,2.5-2.37M25.34,34.93c.09-.36.15-.72.22-1,.25-1.13.63-4.2,1.5-5.39s3.58-2.38,5.15-3.07,3.45-3.51,4.2-4.77,3.2-2.13,4.46-3.32a10.9,10.9,0,0,0,1.82-2.26l1.84-.87c1.88-.5,4.39-2.13,5.14-3.76a4.92,4.92,0,0,1,.24-.45m0-11.18a9.12,9.12,0,0,1-2.75,2L44.51,2.67c-.88,1.13-3.27,4.77-5.15,5.64s-4.26,1.76-5,3.14-3.51,6.14-5.64,7.14S25.43,21.48,24.43,23s-.88,3.26-3.14,4.26-4.77,3.89-5.89,6.52c-.18.41-.37.8-.56,1.17M49.91-3.79A7.8,7.8,0,0,1,45.15-.21L43,.92c-1,1-1.38,3.51-3.26,4.89s-5.52,3.26-6.9,5.26S31.08,16,28.7,16.71s-3,1.51-4.15,3.51a14.16,14.16,0,0,1-4.76,5.27c-2.51,1.75-5.4,6-6.53,8.4-.18.38-.34.72-.48,1M49.91,15.71a6.13,6.13,0,0,1-1,.75L47.2,17.65c-1,.69-2.25.44-3.2,1.76s-2.07,2.82-3.13,3.07a7,7,0,0,0-3.58,2.26,32.88,32.88,0,0,1-3.64,3.51C31.77,29.88,30.2,31.38,30,32s-.63,1.75-.63,1.75c-.12.34-.27.74-.43,1.17m21-41.52c-.16.23-.33.48-.49.74-1,1.61-1.89,3.47-4.52,4.26a7,7,0,0,0-1,.38c-1,.37-2.76,2.25-3.64,4s-2,2.76-5.14,4.14S32,9.69,31.21,11.45s-2.76,3-4.27,3.76a6.18,6.18,0,0,0-3.39,3.51c-.5,1.63-2.13,3.13-4.64,5a53.16,53.16,0,0,0-5.77,4.89l-2.39,5c-.21.48-.36.91-.56,1.29M-3,15.69a9.7,9.7,0,0,0,2.38-4C.09,9.57,2,8.69,4.48,7.31S8,3.68,9,1.67,11.25-1.09,13.76-2s3.77-3.63,4.77-5.76,2.64-2.64,5.65-3.89c2.51-1,3.88-4.17,4.71-6.35M-3,31.55c1.76-1.2,6.3-3.46,9-4.87a8.54,8.54,0,0,0,4-4.58c.38-1.37.63-1,1.25-1.5A16,16,0,0,0,13,19c1-1,2.64-1.63,4-3,.83-.86.82-2.25,1.26-3.32s1.07-1.13,2.82-2.19a10.84,10.84,0,0,0,3.39-3.89,10.33,10.33,0,0,1,3.51-3c1.45-.88,1.51-2.07,2.26-3.26S34.15-2,35.53-2.84a7.38,7.38,0,0,0,2.95-5c.44-2.25,2.32-2.82,3.58-3.32s1.63-1,3.26-2.44A7.68,7.68,0,0,0,47.76-18M-3,29.72c1.6-1.2,4.31-3.62,7-4.23,3.12-.7,3.89-3.26,4.51-4.89s2-1.75,4.14-2.63,3.39-4.89,4-6c.94-1.78,1.31-1.63,2.95-2.57a7.35,7.35,0,0,0,3.07-2.69A15.73,15.73,0,0,1,25.93,3.3c1.2-.94,1.32-1.63,2.14-3.13s4.77-3.45,6.21-4.64A6.46,6.46,0,0,0,37-8.74c.5-2.25,3.45-3.44,5.27-4.64A7.56,7.56,0,0,0,45.5-18M-3,27.22c1.42-1.09,3.52-2.59,4.95-2.73C4.64,24.21,5.61,22,6.36,20.1s2.51-2.76,3.76-3.51a10.8,10.8,0,0,0,5.21-6.33c1.09-3.25,4.61-3.4,7.34-5.77C24.55,2.86,25.4.86,26.88-1.4s3.7-3.2,5.7-4.2,3.39-4.64,4.15-6.14,1.75-1.51,3.26-2.51A8.17,8.17,0,0,0,43.17-18M-3,25.33c1.63-.85,3.29-1.73,4.45-2.47A11.91,11.91,0,0,0,5.48,18c.5-1.63,3.39-3.14,4.77-3.64,1.9-.69,3.39-3.51,3.89-4.89s2.38-3.26,5-4.26,5.27-5.64,6-7.15,3.89-3.76,5.65-4.38,3.39-3.51,3.89-4.89a8.79,8.79,0,0,1,4-4.27A4.24,4.24,0,0,0,41-18M-3,12.68A20.45,20.45,0,0,0-.92,9.57c.88-1.63,3-2.89,5-4.39S6.86,1.42,7.49.42A18.64,18.64,0,0,1,13.14-4C15.4-5.1,17.28-8.74,18-10s3.14-2.63,5.65-3.64C25.61-14.4,26.5-16.36,27-18M-3,10A14.93,14.93,0,0,1,2,5.05,8.53,8.53,0,0,0,6,.42c.88-2,3.64-4.27,6.15-5.52S15.9-9.49,16.77-11s5.15-3.51,6.78-4.39A3.62,3.62,0,0,0,25.34-18"/><path class="cls-1" d="M56,29.5l-1.63,1.94M52,21.85,50.26,23m.38-3.76.13-1.88m4,3.57L53.4,18.78m0-7,1.88-.94m-.71,5.67,2.76.25m-3.7,17.69-1.38-1.81M51.14,6.43l-.69-2.5m4.65-.88L53.21,2.3M51.71.73l-.07-2.26m2.62,15.86-1.51,1.51M54.22-.09l1.5-1.5m-6,17.28a9.6,9.6,0,0,0,2.38-4c.76-2.13,2.64-3,5.15-4.39s3.51-3.63,4.51-5.64S64-1.09,66.51-2s3.77-3.63,4.77-5.76,2.64-2.64,5.65-3.89c2.51-1,3.88-4.17,4.71-6.35M49.7,31.55c1.76-1.2,6.3-3.46,9-4.87a8.54,8.54,0,0,0,4-4.58c.38-1.37.63-1,1.25-1.5A16,16,0,0,0,65.76,19c1-1,2.64-1.63,3.95-3,.83-.86.82-2.25,1.26-3.32s1.07-1.13,2.82-2.19a10.84,10.84,0,0,0,3.39-3.89,10.33,10.33,0,0,1,3.51-3C82.14,2.67,82.2,1.48,83,.29s4-2.32,5.33-3.13a7.38,7.38,0,0,0,3-5c.44-2.25,2.32-2.82,3.58-3.32s1.63-1,3.26-2.44A7.68,7.68,0,0,0,100.51-18M49.7,29.72c1.59-1.2,4.31-3.62,7-4.23,3.12-.7,3.89-3.26,4.51-4.89s2-1.75,4.14-2.63,3.39-4.89,4-6c.94-1.78,1.31-1.63,3-2.57a7.35,7.35,0,0,0,3.07-2.69A15.73,15.73,0,0,1,78.68,3.3C79.88,2.36,80,1.67,80.82.17S85.59-3.28,87-4.47a6.46,6.46,0,0,0,2.7-4.27c.5-2.25,3.45-3.44,5.27-4.64A7.56,7.56,0,0,0,98.25-18M49.7,27.22c1.42-1.09,3.52-2.59,4.95-2.73,2.74-.28,3.71-2.51,4.46-4.39s2.51-2.76,3.76-3.51a10.8,10.8,0,0,0,5.21-6.33c1.09-3.25,4.61-3.4,7.34-5.77C77.3,2.86,78.15.86,79.63-1.4s3.7-3.2,5.7-4.2,3.39-4.64,4.15-6.14,1.75-1.51,3.26-2.51A8.17,8.17,0,0,0,95.92-18M49.7,25.33c1.63-.85,3.29-1.73,4.45-2.47A11.91,11.91,0,0,0,58.23,18c.5-1.63,3.39-3.14,4.77-3.64,1.9-.69,3.39-3.51,3.89-4.89s2.38-3.26,5-4.26,5.27-5.64,6-7.15,3.89-3.76,5.65-4.38S87-9.86,87.47-11.24a8.79,8.79,0,0,1,4-4.27A4.24,4.24,0,0,0,93.71-18m-44,30.65a20.45,20.45,0,0,0,2.13-3.11c.88-1.63,3-2.89,5-4.39S59.61,1.42,60.24.42A18.64,18.64,0,0,1,65.89-4C68.15-5.1,70-8.74,70.78-10s3.14-2.63,5.65-3.64c1.93-.77,2.82-2.73,3.3-4.34M49.7,10a14.93,14.93,0,0,1,5-4.91,8.53,8.53,0,0,0,4-4.63c.88-2,3.64-4.27,6.15-5.52S68.65-9.49,69.52-11s5.15-3.51,6.78-4.39A3.62,3.62,0,0,0,78.09-18M14,52.17V54.3m33.21.59L49,56m-14.7.36-2-1.19M33.4,53l2.45-.63m2.76.75-.19-2.69m-.52,4.82L36.52,57m-26.9-.44L12.07,56m7.91.42-1.7-.59m.46-2.54-2.13,1.31m6.27-1.79-.44-2.2m-20,5.2L.53,55m1-2.38L3,51.13m46.93.4a9,9,0,0,1-2.74,2l-2.66,1.88c-.88,1.13-3.26,4.76-5.15,5.64M50,48.93a7.76,7.76,0,0,1-4.75,3.57l-2.16,1.13c-1,1-1.38,3.51-3.26,4.89M50,46.13l-.49.73c-1,1.62-1.89,3.48-4.51,4.27a8,8,0,0,0-1,.37c-1,.38-2.76,2.26-3.64,4s-2,2.76-5.14,4.14m16.05-.5-.69-2.51m4.64-.88L53.28,55m-1.51-1.57-.06-2.25m2.57,1.44,1.51-1.5m1.5,8.9c2.51-1.38,3.51-3.64,4.52-5.65s2.26-2.75,4.77-3.63,3.76-3.64,4.77-5.77M56.91,57.9c2-1.51,2.77-3.77,3.39-4.77A18.8,18.8,0,0,1,66,48.74c2.26-1.12,4.14-4.76,4.89-6m-16.06,15a8.57,8.57,0,0,0,4-4.64c.88-2,3.64-4.26,6.15-5.51s3.76-4.39,4.64-5.9,5.14-3.51,6.77-4.39"/></svg>