<svg id="Capa_1" data-name="Capa 1" xmlns="http://www.w3.org/2000/svg" viewBox="0 0 53.61 47.67"><defs><style>.cls-1{fill:none;stroke:#000;stroke-width:0.3px;}</style></defs><title>709 Gneis contorsionado</title><path class="cls-1" d="M13.82,44.85l2.6-.83m12.13,2.59.75-3.09M44.11,22l1.67-2m-.09,5.26-1.84-1m1.34,3.84s-.08,2.18-.08,2.51m.17,11.12-1.34-2.09m0-6.5,2.26.92m-4.67,3,2.34-1.09M39.17,33.4l.17,2.76M33,42.43l2.59.17m-3.76,1.58.5,2.09M28.55,41l-2.85.33m-6-3,1.67-1.5m1.93,1L24,40.09M24.2,36,27,35.58m.34-3.51,1.25,2m1.59-3,1.67-1.92m5.77-1.59-2.34.17m-1.75-.33-1.26-1.84M29.8,25.3l1.76-1.76m-5.19.25.17-2.09m4.35-1-2.43-.25m-4.93-.25,2-1.34m4.6-1,1-2.68m3.6,2.93-1.17-2m.5-2.17,2.17.34m2.85,2.25-1-2.17M39,12.93l1.93-1m-3.85-.26.42-2.42M44,4.32l-.17,2.34m-3.17.42,1,1.92M39.84,4.49,38,3.15M41.51,1.9l2.76-.51m-16.14.34L30.55.89m-5.1,3.43L25.12,1.9M30,4.65,27.63,5.91M26.12,7.58,25.87,10m-5-2.09,2.76-.75M21,11.67l-1.51-1.5m-4,2.42.58-2m.5,4.18,1.93-.84m-7.28-1.84,1.26,1.84M11.73,17l-2,.67m-3-1.25.92-2m-1,4,1.51,1.17M12.4,20.7l1.17-2m2.26,6.19L14,23.46m3.43,2.17-2,1.42m4.52-.75-.08,2.51m-1.17,1.92-2.51-.92m-2.68-1.67v2.51m-.33,3.09-2.6-.84m-3.09.92.83,2.51m4.52,5.93-2.26-1m-2.42-.08L8.47,39m-4.6-.75,2.18-.58M-.14,30.73l-1-2.17m5.52-.84L2.2,26.55m-2.6-.42L.44,24M16.08,2.4l-2-.84M11,6,10,4.07m.75-2.42L8.55,2.4M7.38,5.32,5.46,4.65M3.26,8.1,2.32,6M-.31,10.59l-.06-2.3M32.84,0l-.28.25c-.88.75-.12.5-.25,2.25s-.25,2-.88,2.89c0,0-2.13,1.38-1.06,2.44s1.38,1.51-.13,2.07-5.39,1.38-5.71,1.82-.37.25-.19.94-.25,1.19-1.44,1.25-2.76.25-3.39,1.13A2.9,2.9,0,0,1,17,16.5c-1.25.06-2.76.25-2.32,1.19s2.14,1.63,1.89,2.45.31,1.12.94,2.13.94,2.69,2.25,2.88,1.63-.44,1.95.88.56,1.44,1.44,1.5,1.13.5,0,.94-1.94.25-2,1.51-.37,2.07-1.69,2.32-3.83.06-3.83.94a2.07,2.07,0,0,1-1.69,2.19l-3.2,1.25c-1.38.44-.38,1.38.69,1.63s.82.94,1.57,2.51,2.57,1.63,3.89,1.63,2.19,4,2.44,5.29,1.7-.15,2.64,1.1-1.69,3.46-1.69,3.46a2.43,2.43,0,0,0-1,1.62m-11.8,0A8.06,8.06,0,0,0,8.22,53L10,50.29c.75-1.2-1.87-.83-2.37-2.58s3.31-3.82,1.49-4.07-3.2.44-3.89-.75A5.23,5.23,0,0,0,2,40.76C.88,40.44.19,40.63.25,39.5s.82-1.56-.69-2-2-1.38-.5-2.13,2.7-1.69,3.39-1.76.94-.31,1.32-1a2.36,2.36,0,0,1,2.07-1.44,7.06,7.06,0,0,0,3.57-1.69A1.65,1.65,0,0,0,9.54,27c-.82-1-1.38-1.32-.88-1.94s1.63-2.7-1.07-3.14-5.08-1.19-4.76-2.38.18-1.31-1-2S-1,15.25,1.19,14.43,5,12.8,5.59,12.74a3.39,3.39,0,0,0,2.07-1.5c.37-.76-.07-1.51,2.57-1.76s6.21-.88,6.46-2.13.06-1.76,1.94-2.26S21,4.34,21.39,3.21c.37-.93.26-2.08.71-3.19M5.63,53.92c1.07-1.05,2.18-2.67,3.09-3.76,0,0-3.1-.92-3.1-2.48s2.13-2.75,0-3.07-1.85-1.28-2.86-1.85S.88,41.51.13,41.2-.94,40.88-1,39.69s-.69-1.38-1.44-1.56-3-1.76-.69-2.89A26.57,26.57,0,0,0,1.7,32.48c.18-.31-.51-1.63,2.19-2.13s5.59-1.44,4.33-3S7,25.53,7.34,24.71,5.77,23,3.45,22.08.88,20.83,1.13,19.82,1.07,18.19-.31,17.5s-2.7-3,.69-4.45,5.21-2,5.58-2.82,1.88-1.5,3.7-1.82,5.4-1.06,5.4-2.06.31-1.57,1.69-1.76,3.08-.75,3.33-2.13A10.11,10.11,0,0,1,20.57,0M24,0a7.18,7.18,0,0,0-.82,2.88C23,4.53,21,5.47,19.7,6.1S18,6.85,18.07,8s-2.7,2.07-5.46,2.38-2.82,1-3.07,1.94-2.89,1.38-5.46,2.2-1.19,2-.31,2.44.56,1.07.62,2.2,2.26,1.44,5.34,1.94S11.11,24,10.54,25s.32,1.75,1,2.88-1.26,3.38-3.2,3.88-2.7.63-3.2,1.82-1.26,1.44-2.58,2-1.69.62-1,1.25.44.56.44,1.44-.31,1.19,1,1.51,2.26.5,2.83,1.44,1.06,1.31,3.82,1.38-.82,3.34-.63,5.1,3.58.41,3,1.48-1.45,2.5-1.45,2.5A11.9,11.9,0,0,1,9,53.92m-5.64,0a5.13,5.13,0,0,0,1.48-1.63c1.26-1.88-2-4-1.45-4.61,0,0,1.76-1.83,0-2.91-2.68-1.65-2.84-.5-3.6-1.38s-1.88-.88-2.13-2.26-.25-1.37-1.13-1.88-5.14-3.13.13-5.26S.82,31.48,1.07,30.6,1.7,29,3.7,28.85s3.39-.38,2.39-1.76S5.21,25,5.21,25s-.38-1-2.38-1.5S-.81,22.08-.56,20.83s.12-1.38-1-2.26a3.92,3.92,0,0,1-1.38-4C-2.44,13.3.82,11.3,2.7,10.67s2.38-.5,2.51-1.38S8.1,7.79,9.85,7.41s3.89-.37,3.89-1.5,1.26-2,3-2.63,2.51-.63,2.51-1.76a10.59,10.59,0,0,1,0-1.5M-7.34,13.6a9.63,9.63,0,0,0,.75-3.3A4.42,4.42,0,0,1-5.46,7.54c.63-.88,2.51-1.76,3.77-2.38S-.94,4-.44,3.4s2.51-.63,4-.75C4.77,2.55,6.43,1.2,7.51,0M-7.34,7.45a3.6,3.6,0,0,1,2-2A5.59,5.59,0,0,0-2.7,3.65,4.33,4.33,0,0,1-.19,2.15c1.51-.5,3.27-.63,4.65-1.26A4.47,4.47,0,0,0,5.63,0m-13,15.1c1.64-.83,1.77-1.09,2.26-2.19A26.12,26.12,0,0,0-4.7,10.3c.25-2.14.62-3.51,2-3.64S.57,6,.44,5-.31,3.9,1.82,4,5,3.28,6.59,2.15A13.82,13.82,0,0,0,9,0M-7.34,4.27a11.49,11.49,0,0,1,1.88-.74A4.44,4.44,0,0,0-2.57,1.65C-1.44.27-.94,1.65,3,.14A.64.64,0,0,0,3.35,0M36.62,0a2.51,2.51,0,0,0-1.55,1.81,2.64,2.64,0,0,1-.25,1.82,4.17,4.17,0,0,0-.88,3.76c.57,1.76.44,3.2-.81,3.83a13.12,13.12,0,0,1-3.52,1.31c-.94.13-1.69.06-1.88.82a4,4,0,0,1-1.94,2.13,5.42,5.42,0,0,1-2,.62,2.09,2.09,0,0,0-1.82.94c-.57,1-.44,1-1.63,1.32s-2.07.44-1.38,1.51a4.87,4.87,0,0,1,.88,1.81c.12.5.25.76,1.38,1.13s1.88.19,2.51,1.38.56,1.32,1.38,1.57,2.19.62,2.07,1.56.37,1.76-1.13,2.57-2.39,1.45-2.64,2.26-.5,2.07-2,2.32-3,0-3.45.81-.18,1-1.12,1.38a13.94,13.94,0,0,0-1.39.63c-1.31.19-.87.63-.5,1.63s1.32,1,2.76,1.19,3.45,2,4,2.76.71,3.48.38,4.79C21.48,50.07,25,50,24.09,51a14.31,14.31,0,0,0-1.63,2.27,3.43,3.43,0,0,0-.36.68M34.75,0c-.46.32-1,.53-1.12.94a3.88,3.88,0,0,1,.12,1.75,5.32,5.32,0,0,1-.81,2.38,2.81,2.81,0,0,0-.25,2.76c.44,1.38.31,2.45-1.45,3s-4.39.81-4.83,1.81-.75,2.26-2,2.32-2.95-.37-3.71.76S19.64,17.25,19,17.32s-1.94.18-2.13.94a3.19,3.19,0,0,0,.94,2c.94,1,.94.88.94,1.51s-.31,1,1,1.5,2.51.44,2.89,1.76.38,1.19,1.57,1.5,1.82,1.25,1.07,2.13S22.34,30.1,22.34,31a2.38,2.38,0,0,1-2.2,2.32c-1.57.25-3.39.32-3.32.94a2.21,2.21,0,0,1-1.32,1.88s-.19.07-.88.25a5,5,0,0,0-1.19.5c-.88.26-.76.94-.19,1.51a4.75,4.75,0,0,1,1,1.32c.38.62.38.75,2.7,1.31s2.95,3,3.2,4.26.51,1.84.38,2.32c-.34,1.29,3.07,2.45,2.13,3.45A10.86,10.86,0,0,0,21.21,53a3.24,3.24,0,0,0-.64.93M37.83,0c-1.17,1.72-1,2.29-2,4.82A3.21,3.21,0,0,0,35.13,8c.44,2.19,1.07,3.26-.44,4s-2.13,1.38-3.07,1.56-1.75.29-1.75.29l-.19,0c-1,.12-.88.62-.88,1.57S28.3,16.5,27,17a4.93,4.93,0,0,1-3,.32c-.82-.19-.88.37-1.13,1s-.57,1.06-2.07,1.5.88,1.95,1.94,2.32A3.7,3.7,0,0,1,25,24.21c.38.94.57.69,1.51.69s1.19.38,1.31.81.38.76,1.26,1.07,1.07.69.88,1.25-.32.57-.76.82a3.36,3.36,0,0,0-1.44,1.25c-.38.69-.38.57-1.25,1a4,4,0,0,0-1.88,2.57c-.51,1.37-2.26,1.75-3.77,1.94s-1.25.31-1.63,1-.44.57-1.26,1-.81.32-.37,1.13,1.19.82,3.13,1,1.39.62,2.08,1.44.52.89.71,1.84c.23,1.16.89,3,.51,4.61-.46,1.94,3.54,1.38,2.1,3.2a10.94,10.94,0,0,0-1.63,2.39,7.77,7.77,0,0,0-.44.68M46.61,13.6a1.15,1.15,0,0,1-.75.58,3.41,3.41,0,0,0-2.26,2.26c-.37,1-1.5,3.51-2.63,3.76s-3.51.5-4,1-.25.88.13,1.51,0,1.25,1.25,1.38,4.27.75,4,2.75S40.59,31.36,38.84,31s-2.51.38-2.64,1.63a4.88,4.88,0,0,1-1.13,3.26c-.88.88-3,1.63-.75,1.88S36.83,38,38.08,39s1.63.38,2,1.63a8.13,8.13,0,0,1,.26,4c-.25,1.88-2.43,2.35-3.81,3s2.92,2.75,2.17,3.38-1.76.5-1.38,1.75c.17.56-.21.83-.71,1.13m10-46.47a9,9,0,0,0-.5,1.72c-.37,1.88-.51,4.15-1.38,4s-1.25-.5-1.63.88-1.25,4.51-3,4.89-3.14-.38-4,.37-2.26,1.88-1.26,3,1.26,1,1.26,1.88,0,1,1.38,1,3.13.25,3.38,1.38S41,29,39.59,29.35s-3,.13-3.89,1.13a5.63,5.63,0,0,0-1.51,3.13c-.25,1.38-.75,2.26-1.75,2.13s-.88.25-1.63.88-.88,1,0,1.25,1.38.13,1.38.88-.38.5,1.13.63,2.5-.88,4.26,1.25.73.72,1.35,3.1-3,2.8-4.2,3.93,2,3.25,1.22,3.75-.5-.12-.5,1.26a1.47,1.47,0,0,1-.7,1.25m11.86-38.8-.12.06c-1.76.88-1.51,1.88-1.88,2.76s-.5,3-2.51,3.51S38.58,22,40.47,23s3.89,4.26,3.13,5.64S42.1,30,41.85,30.73s.12,2.13-1.51,1.63-2.13-.5-2.63,1-1.38,2.89,0,3.64,4,1.75,4,3,.13,1.63,1.26,2.25-1.14,3.05-1,3.8-2.78.62-4.16,1.62,2.73,3,1.85,4a11.23,11.23,0,0,0-1.82,2.19M46.61,4.27a2.43,2.43,0,0,0-1.38,2c-.12,1.76,0,3.64-1.12,4.52s-2.14.25-2.26,1.63-.38,5.14-2.89,5.51-3,.25-3.89,1-1.13,1.12-2,1.12-1.25,1.38-.12,2.39,1.63,1.12,1.63,2.25,1,1.26,2.13,1.63,5,.63,1.63,2-4.26,1.88-5.14,3.38-.63,2.76-1.88,3.26-1.63-.12-2.14.88-.5,1.38-1.38,1.38S26,38.38,28,38.63s2.26.25,2.89,1.25.38,1.13,1.76.75,1.75-1.63,2.88-.12a13.17,13.17,0,0,1,2.16,3.63c.76,1.76-3.62,2.13-5,3.51s3.09,3,2.34,3.39-.74,1.48-2.23,2.88"/><path class="cls-1" d="M49.34,44.35l2.76-1.17M49.76,29.31l-1.93-2m3.77,4.1-2.76.33m4.77-1-1-2.17M47.88,41.38l.83-2.08m4.64-13.17L54.19,24M50.51,24l-2.17.42m1.75-3.76L51.93,22m-4-3.09.83-2m2.93-4.45-2.26.06m4-2-.06-2.3m-4-6.39-2-1.13M61.26,53.92A8.06,8.06,0,0,0,62,53l1.76-2.75c.75-1.2,1.5-1.82,1-3.58s-.06-2.82-1.88-3.07-3.2.44-3.89-.75a5.23,5.23,0,0,0-3.2-2.13c-1.13-.32-1.82-.13-1.76-1.26s.82-1.56-.69-2-2-1.38-.5-2.13,2.7-1.69,3.39-1.76.94-.31,1.32-1a2.36,2.36,0,0,1,2.07-1.44,7.06,7.06,0,0,0,3.57-1.69A1.65,1.65,0,0,0,63.29,27c-.82-1-1.38-1.32-.88-1.94S64,22.39,61.34,22s-5.08-1.19-4.76-2.38.18-1.31-.95-2-2.88-2.32-.69-3.14,3.83-1.63,4.4-1.69a3.39,3.39,0,0,0,2.07-1.5c.37-.76-.07-1.51,2.57-1.76s6.21-.88,6.46-2.13.06-1.76,1.94-2.26,2.33-.75,2.76-1.88c.37-.93.26-2.08.71-3.19M59.38,53.92c1.07-1.05,2.18-2.67,3.09-3.76a3.64,3.64,0,0,0,1-2.51c0-1.56.06-2.76-2.07-3.07a14.14,14.14,0,0,1-4.9-1.82c-1-.56-1.88-1.25-2.63-1.56s-1.07-.32-1.13-1.51-.69-1.38-1.44-1.56-3-1.76-.69-2.89a26.57,26.57,0,0,0,4.83-2.76c.18-.31-.51-1.63,2.19-2.13s5.59-1.44,4.33-3-1.25-1.81-.88-2.63S59.52,23,57.2,22.08s-2.57-1.25-2.32-2.26-.06-1.63-1.44-2.32-2.7-3,.69-4.45,5.21-2,5.58-2.82,1.88-1.5,3.7-1.82,5.4-1.06,5.4-2.06.31-1.57,1.69-1.76,3.08-.75,3.33-2.13A10.11,10.11,0,0,1,74.32,0M57.1,53.92a5.13,5.13,0,0,0,1.48-1.63,41.93,41.93,0,0,1,2.64-3.51S63.1,45.27,60,45.52a8.33,8.33,0,0,1-6.4-2.13c-.75-.88-1.88-.88-2.13-2.26s-.25-1.37-1.13-1.88-5.14-3.13.13-5.26,4.14-2.51,4.39-3.39.63-1.63,2.63-1.75,3.39-.38,2.39-1.76S59,25,59,25s-.38-1-2.38-1.5-3.64-1.38-3.39-2.63.12-1.38-1-2.26a3.92,3.92,0,0,1-1.38-4c.51-1.26,3.77-3.26,5.65-3.89s2.38-.5,2.51-1.38,2.89-1.5,4.64-1.88,3.89-.37,3.89-1.5,1.26-2,3-2.63S73,2.65,73,1.52a10.59,10.59,0,0,1,0-1.5M46.41,13.6a9.63,9.63,0,0,0,.75-3.3,4.42,4.42,0,0,1,1.13-2.76c.63-.88,2.51-1.76,3.77-2.38S52.81,4,53.31,3.4s2.51-.63,4-.75c1.19-.1,2.85-1.45,3.93-2.63M46.41,7.45a3.6,3.6,0,0,1,2-2,5.59,5.59,0,0,0,2.63-1.76,4.33,4.33,0,0,1,2.51-1.5c1.51-.5,3.27-.63,4.65-1.26A4.47,4.47,0,0,0,59.38,0m-13,15.1c1.64-.83,1.77-1.09,2.26-2.19a26.12,26.12,0,0,0,.38-2.63c.25-2.14.62-3.51,2-3.64S54.32,6,54.19,5s-.75-1.13,1.38-1,3.14-.75,4.77-1.88A13.82,13.82,0,0,0,62.74,0M46.41,4.27a11.49,11.49,0,0,1,1.88-.74,4.44,4.44,0,0,0,2.89-1.88c1.13-1.38,1.63,0,5.52-1.51A.64.64,0,0,0,57.1,0M39.81,52.14,38,50.8m3.51-1.25,2.76-.5m-16.14.33,2.42-.83M25.42,52l-.33-2.42m-9,.5-2-.83m-3.34.08-2.18.75m24.29-2.38-.28.25c-.88.75-.12.5-.25,2.26s-.25,2-.88,2.88m-12.8-.31c1.89-.51,2.32-.76,2.76-1.88.37-.94.26-2.09.71-3.2m-5.35,4.57c1.38-.18,3.08-.75,3.33-2.13a10.22,10.22,0,0,1,.49-2.44m3.46,0a7.18,7.18,0,0,0-.82,2.88c-.18,1.63-2.19,2.57-3.51,3.2m-6-.19c0-1.13,1.25-2,3-2.63s2.51-.63,2.51-1.76a10.64,10.64,0,0,1,.05-1.5m-21,5.14c1.25-.63.75-1.13,1.25-1.76s2.51-.62,4-.75c1.19-.1,2.85-1.45,3.92-2.63M-2.73,51.3A4.33,4.33,0,0,1-.22,49.8c1.51-.5,3.27-.63,4.65-1.25a4.77,4.77,0,0,0,1.17-.88m-3.81,4c2.13.13,3.14-.75,4.77-1.88A14.2,14.2,0,0,0,9,47.67M-7.37,51.93a10.68,10.68,0,0,1,1.88-.75A4.37,4.37,0,0,0-2.6,49.3c1.13-1.38,1.63,0,5.52-1.51a.61.61,0,0,0,.39-.12m33.28,0A2.5,2.5,0,0,0,35,49.49a2.62,2.62,0,0,1-.25,1.81m-.08-3.63c-.45.32-1,.53-1.11.94a3.92,3.92,0,0,1,.12,1.75,5.4,5.4,0,0,1-.81,2.39m4.89-5.08c-1.17,1.73-1,2.29-2,4.83m13.6-3-2-1.13m25,4.33c1.89-.51,2.32-.76,2.76-1.88.37-.94.26-2.09.71-3.2m-5.35,4.57c1.38-.18,3.08-.75,3.33-2.13a10.22,10.22,0,0,1,.49-2.44m-6.83,5.89c0-1.13,1.25-2,3-2.63S73,50.3,73,49.17a10.64,10.64,0,0,1,0-1.5M52,52.81c1.25-.63.75-1.13,1.25-1.76s2.51-.62,4-.75c1.19-.1,2.85-1.45,3.92-2.63M51,51.3a4.33,4.33,0,0,1,2.51-1.5c1.51-.5,3.27-.63,4.65-1.25a4.77,4.77,0,0,0,1.17-.88m-3.81,4c2.13.13,3.14-.75,4.77-1.88a14.2,14.2,0,0,0,2.4-2.13M46.38,51.93a10.68,10.68,0,0,1,1.88-.75,4.37,4.37,0,0,0,2.89-1.88c1.13-1.38,1.63,0,5.52-1.51a.61.61,0,0,0,.39-.12"/></svg>