<svg id="Capa_1" data-name="Capa 1" xmlns="http://www.w3.org/2000/svg" xmlns:xlink="http://www.w3.org/1999/xlink" viewBox="0 0 49.71 39.8"><defs><style>.cls-1,.cls-3{fill:none;}.cls-2{clip-path:url(#clip-path);}.cls-3{stroke:#000;stroke-width:0.3px;}.cls-4{clip-path:url(#clip-path-2);}.cls-5{clip-path:url(#clip-path-3);}.cls-6{clip-path:url(#clip-path-4);}</style><clipPath id="clip-path"><rect id="SVGID" class="cls-1" y="28.2" width="48.75" height="13.42"/></clipPath><clipPath id="clip-path-2"><rect id="SVGID-2" data-name="SVGID" class="cls-1" x="48.55" y="28.2" width="5.45" height="13.42"/></clipPath><clipPath id="clip-path-3"><rect id="SVGID-3" data-name="SVGID" class="cls-1" y="-1.59" width="48.75" height="29.94"/></clipPath><clipPath id="clip-path-4"><rect id="SVGID-4" data-name="SVGID" class="cls-1" x="48.55" y="-1.59" width="5.45" height="29.94"/></clipPath></defs><title>710 Esteatita, talco o serpentinita</title><g class="cls-2"><path class="cls-3" d="M46.12,29.45a2.44,2.44,0,0,0,.63-1.25M36.14,29.45a2.44,2.44,0,0,0,.63-1.25M26.13,29.45a2.51,2.51,0,0,0,.62-1.25M16.21,29.45a2.52,2.52,0,0,0,.63-1.25M6.23,29.45a2.44,2.44,0,0,0,.63-1.25M41.17,44.44a3.5,3.5,0,0,0,.43-3.51m-.87-2.2a2.45,2.45,0,0,0-.88,3.14m.88,1c.44-.5.5-.81.06-1.63s-.06-1.13.5-1.38m4.83-.31A3.5,3.5,0,0,0,46.56,36M44.8,37a2.47,2.47,0,0,1,.88-3.14M46.25,35c-.57.25-.94.57-.5,1.38s.37,1.13-.07,1.63m-4.51-3.51A3.5,3.5,0,0,0,41.6,31m-1.75.94a2.45,2.45,0,0,1,.88-3.14m0,4.14c.44-.5.5-.81.06-1.63s-.06-1.13.5-1.38M31.19,44.44a3.53,3.53,0,0,0,.44-3.51m-.88-2.2a2.45,2.45,0,0,0-.88,3.14m.88,1c.44-.5.5-.81.06-1.63s-.06-1.13.5-1.38m4.83-.31A3.48,3.48,0,0,0,36.58,36M34.83,37a2.45,2.45,0,0,1,.88-3.14M36.27,35c-.56.25-.94.57-.5,1.38s.37,1.13-.06,1.63m-4.52-3.51A3.53,3.53,0,0,0,31.63,31m-1.76.94a2.45,2.45,0,0,1,.88-3.14m0,4.14c.44-.5.5-.81.06-1.63s-.06-1.13.5-1.38M21.17,44.44a3.53,3.53,0,0,0,.44-3.51m-.88-2.2a2.46,2.46,0,0,0-.88,3.14m.88,1c.44-.5.5-.81.06-1.63s-.06-1.13.5-1.38m4.84-.31A3.5,3.5,0,0,0,26.56,36M24.81,37a2.45,2.45,0,0,1,.88-3.14M26.25,35c-.56.25-.94.57-.5,1.38s.38,1.13-.06,1.63m-4.52-3.51A3.53,3.53,0,0,0,21.61,31m-1.76.94a2.46,2.46,0,0,1,.88-3.14m0,4.14c.44-.5.5-.81.06-1.63s-.06-1.13.5-1.38m-10,14.55a3.5,3.5,0,0,0,.44-3.51m-.88-2.2a2.47,2.47,0,0,0-.88,3.14m.88,1c.44-.5.51-.81.07-1.63s-.07-1.13.5-1.38m4.83-.31A3.5,3.5,0,0,0,16.65,36M14.89,37a2.46,2.46,0,0,1,.88-3.14M16.33,35c-.56.25-.94.57-.5,1.38s.38,1.13-.06,1.63m-4.52-3.51A3.5,3.5,0,0,0,11.69,31m-1.76.94a2.47,2.47,0,0,1,.88-3.14m0,4.14c.44-.5.51-.81.07-1.63s-.07-1.13.5-1.38M1.27,44.44a3.5,3.5,0,0,0,.44-3.51m-.88-2.2A2.45,2.45,0,0,0,0,41.87m.87,1c.44-.5.51-.81.07-1.63s-.07-1.13.5-1.38m4.83-.31A3.5,3.5,0,0,0,6.67,36M4.91,37a2.47,2.47,0,0,1,.88-3.14M6.36,35c-.57.25-.94.57-.5,1.38s.37,1.13-.07,1.63M1.27,34.47A3.5,3.5,0,0,0,1.71,31M0,31.9a2.46,2.46,0,0,1,.87-3.14m0,4.14c.44-.5.51-.81.07-1.63s-.07-1.13.5-1.38"/></g><g class="cls-4"><path class="cls-3" d="M51,44.44a3.5,3.5,0,0,0,.44-3.51m-.88-2.2a2.45,2.45,0,0,0-.87,3.14m.87,1c.44-.5.51-.81.07-1.63s-.07-1.13.5-1.38M54.62,37a2.46,2.46,0,0,1,.88-3.14M51,34.47A3.5,3.5,0,0,0,51.42,31m-1.75.94a2.46,2.46,0,0,1,.87-3.14m0,4.14c.44-.5.51-.81.07-1.63s-.07-1.13.5-1.38"/></g><g class="cls-5"><path class="cls-3" d="M46.56,26.08a3.52,3.52,0,0,1,.19,2.27m-1.07-4.47A2.47,2.47,0,0,0,44.8,27m1.45-2c-.57.25-.94.57-.5,1.38s.37,1.13-.07,1.63M41.6,21.19a3.5,3.5,0,0,1-.43,3.51M40.73,19a2.45,2.45,0,0,0-.88,3.14m1.44-2c-.56.25-.94.57-.5,1.38s.38,1.13-.06,1.63m5.39-3.51a3.5,3.5,0,0,0,.44-3.51m-.88-2.2a2.47,2.47,0,0,0-.88,3.14m.88,1c.44-.5.51-.81.07-1.63s-.07-1.13.5-1.38m-5.08-.37a3.5,3.5,0,0,0,.43-3.51M40.73,9a2.45,2.45,0,0,0-.88,3.14m1.44-2c-.56.25-.94.56-.5,1.38s.38,1.13-.06,1.63m5.39-3.39a3.5,3.5,0,0,0,.44-3.51M45.68,4a2.46,2.46,0,0,0-.88,3.13m.88,1c.44-.51.51-.82.07-1.63s-.07-1.13.5-1.38M41.17,4.7a3.5,3.5,0,0,0,.43-3.51M40.73-1a2.45,2.45,0,0,0-.88,3.14m1.44-2c-.56.25-.94.57-.5,1.38s.38,1.13-.06,1.63M46.19-.32a3.53,3.53,0,0,0,.44-3.51m-.88,2c.44-.51.5-.82.06-1.63s-.06-1.13.5-1.38m-9.73,31a3.52,3.52,0,0,1,.19,2.27m-1.06-4.47A2.45,2.45,0,0,0,34.83,27m1.44-2c-.56.25-.94.57-.5,1.38s.37,1.13-.06,1.63m-4.08-6.83a3.53,3.53,0,0,1-.44,3.51M30.75,19a2.45,2.45,0,0,0-.88,3.14m1.44-2c-.56.25-.94.57-.5,1.38s.38,1.13-.06,1.63m5.39-3.51a3.48,3.48,0,0,0,.44-3.51m-.87-2.2a2.45,2.45,0,0,0-.88,3.14m.88,1c.43-.5.5-.81.06-1.63s-.06-1.13.5-1.38m-5.08-.37a3.53,3.53,0,0,0,.44-3.51M30.75,9a2.45,2.45,0,0,0-.88,3.14m1.44-2c-.56.25-.94.56-.5,1.38s.38,1.13-.06,1.63m5.39-3.39a3.48,3.48,0,0,0,.44-3.51M35.71,4a2.44,2.44,0,0,0-.88,3.13m.88,1c.43-.51.5-.82.06-1.63s-.06-1.13.5-1.38M31.19,4.7a3.53,3.53,0,0,0,.44-3.51M30.75-1a2.45,2.45,0,0,0-.88,3.14m1.44-2c-.56.25-.94.57-.5,1.38s.38,1.13-.06,1.63M36.21-.32a3.53,3.53,0,0,0,.44-3.51m-.88,2c.44-.51.5-.82.06-1.63s-.06-1.13.5-1.38m-9.77,31a3.52,3.52,0,0,1,.19,2.27m-1.06-4.47A2.45,2.45,0,0,0,24.81,27m1.44-2c-.56.25-.94.57-.5,1.38s.38,1.13-.06,1.63m-4.08-6.83a3.53,3.53,0,0,1-.44,3.51M20.73,19a2.46,2.46,0,0,0-.88,3.14m1.44-2c-.56.25-.94.57-.5,1.38s.38,1.13-.06,1.63m5.4-3.51a3.5,3.5,0,0,0,.43-3.51m-.87-2.2a2.45,2.45,0,0,0-.88,3.14m.88,1c.44-.5.5-.81.06-1.63s-.06-1.13.5-1.38m-5.08-.37a3.53,3.53,0,0,0,.44-3.51M20.73,9a2.46,2.46,0,0,0-.88,3.14m1.44-2c-.56.25-.94.56-.5,1.38s.38,1.13-.06,1.63m5.4-3.39a3.5,3.5,0,0,0,.43-3.51M25.69,4a2.44,2.44,0,0,0-.88,3.13m.88,1c.44-.51.5-.82.06-1.63s-.06-1.13.5-1.38M21.17,4.7a3.53,3.53,0,0,0,.44-3.51M20.73-1a2.46,2.46,0,0,0-.88,3.14m1.44-2c-.56.25-.94.57-.5,1.38s.38,1.13-.06,1.63M26.19-.32a3.53,3.53,0,0,0,.44-3.51m-.88,2c.44-.51.5-.82.06-1.63s-.06-1.13.5-1.38m-9.72,31a3.6,3.6,0,0,1,.18,2.27m-1-4.47A2.46,2.46,0,0,0,14.89,27m1.44-2c-.56.25-.94.57-.5,1.38s.38,1.13-.06,1.63m-4.08-6.83a3.5,3.5,0,0,1-.44,3.51M10.81,19a2.47,2.47,0,0,0-.88,3.14m1.45-2c-.57.25-.94.57-.5,1.38s.37,1.13-.07,1.63m5.4-3.51a3.5,3.5,0,0,0,.44-3.51m-.88-2.2a2.46,2.46,0,0,0-.88,3.14m.88,1c.44-.5.5-.81.06-1.63s-.06-1.13.5-1.38m-5.08-.37a3.5,3.5,0,0,0,.44-3.51M10.81,9a2.47,2.47,0,0,0-.88,3.14m1.45-2c-.57.25-.94.56-.5,1.38s.37,1.13-.07,1.63m5.4-3.39a3.5,3.5,0,0,0,.44-3.51M15.77,4a2.45,2.45,0,0,0-.88,3.13m.88,1c.44-.51.5-.82.06-1.63s-.06-1.13.5-1.38M11.25,4.7a3.5,3.5,0,0,0,.44-3.51M10.81-1a2.47,2.47,0,0,0-.88,3.14m1.45-2c-.57.25-.94.57-.5,1.38s.37,1.13-.07,1.63M16.27-.32a3.5,3.5,0,0,0,.44-3.51m-.88,2c.44-.51.5-.82.07-1.63s-.07-1.13.5-1.38m-9.73,31a3.52,3.52,0,0,1,.19,2.27M5.79,23.88A2.47,2.47,0,0,0,4.91,27m1.45-2c-.57.25-.94.57-.5,1.38s.37,1.13-.07,1.63M1.71,21.19a3.5,3.5,0,0,1-.44,3.51M.83,19A2.45,2.45,0,0,0,0,22.13m1.44-2c-.57.25-.94.57-.5,1.38s.37,1.13-.07,1.63m5.4-3.51a3.5,3.5,0,0,0,.44-3.51m-.88-2.2a2.47,2.47,0,0,0-.88,3.14m.88,1c.44-.5.5-.81.07-1.63s-.07-1.13.5-1.38m-5.09-.37a3.5,3.5,0,0,0,.44-3.51M.83,9A2.45,2.45,0,0,0,0,12.1m1.44-2c-.57.25-.94.56-.5,1.38S1.27,12.6.83,13.1m5.4-3.39A3.5,3.5,0,0,0,6.67,6.2M5.79,4a2.46,2.46,0,0,0-.88,3.13m.88,1c.44-.51.5-.82.07-1.63s-.07-1.13.5-1.38M1.27,4.7a3.5,3.5,0,0,0,.44-3.51M.83-1A2.45,2.45,0,0,0,0,2.13M1.4.12C.83.37.46.69.9,1.5S1.27,2.63.83,3.13M6.29-.32a3.48,3.48,0,0,0,.44-3.51m-.87,2c.43-.51.5-.82.06-1.63s-.06-1.13.5-1.38"/></g><g class="cls-6"><path class="cls-3" d="M55.5,23.88A2.46,2.46,0,0,0,54.62,27m-3.2-5.83A3.5,3.5,0,0,1,51,24.7M50.54,19a2.45,2.45,0,0,0-.87,3.14m1.44-2c-.57.25-.94.57-.5,1.38s.37,1.13-.07,1.63m5-9.22a2.46,2.46,0,0,0-.88,3.14M51,14.67a3.5,3.5,0,0,0,.44-3.51M50.54,9a2.45,2.45,0,0,0-.87,3.14m1.44-2c-.57.25-.94.56-.5,1.38s.37,1.13-.07,1.63M55.5,4a2.45,2.45,0,0,0-.88,3.13M51,4.7a3.5,3.5,0,0,0,.44-3.51M50.54-1a2.45,2.45,0,0,0-.87,3.14m1.44-2c-.57.25-.94.57-.5,1.38s.37,1.13-.07,1.63"/></g></svg>