<svg id="Capa_1" data-name="Capa 1" xmlns="http://www.w3.org/2000/svg" xmlns:xlink="http://www.w3.org/1999/xlink" viewBox="0 0 53.6 30.5"><defs><style>.cls-1,.cls-3{fill:none;}.cls-2{clip-path:url(#clip-path);}.cls-3{stroke:#000;stroke-width:0.3px;}.cls-4{clip-path:url(#clip-path-2);}.cls-5{clip-path:url(#clip-path-3);}.cls-6{clip-path:url(#clip-path-4);}</style><clipPath id="clip-path"><rect id="SVGID" class="cls-1" x="0.08" y="18.73" width="32.19" height="24.11"/></clipPath><clipPath id="clip-path-2"><rect id="SVGID-2" data-name="SVGID" class="cls-1" x="32.06" y="18.73" width="22.02" height="24.11"/></clipPath><clipPath id="clip-path-3"><rect id="SVGID-3" data-name="SVGID" class="cls-1" x="0.08" y="-0.36" width="32.19" height="19.24"/></clipPath><clipPath id="clip-path-4"><rect id="SVGID-4" data-name="SVGID" class="cls-1" x="32.06" y="-0.36" width="22.02" height="19.24"/></clipPath></defs><title>711 Roca tufítica</title><g class="cls-2"><path class="cls-3" d="M30.76,40.77l-1.19-1.91m2.39,0-1.2,1.91v1.35M23,40.77l-1.19-1.91m2.38,0L23,40.77v1.35m-7.72-1.35-1.19-1.91m2.38,0-1.19,1.91v1.35M7.6,40.77,6.41,38.86m2.38,0L7.6,40.77v1.35M0,40.77l-1.19-1.91m2.39,0L0,40.77v1.35M3.65,31.87l-1.2,1.91m2.39,0L3.65,31.87V30.52m7.65,1.35-1.19,1.91m2.39,0-1.2-1.91V30.52M19,31.87l-1.2,1.91m2.39,0L19,31.87V30.52m7.78,1.35-1.19,1.91m2.38,0-1.19-1.91V30.52m4-5.26-1.19-1.91m2.39,0-1.2,1.91v1.35M23,25.26l-1.19-1.91m2.38,0L23,25.26v1.35m-7.72-1.35-1.19-1.91m2.38,0-1.19,1.91v1.35M7.6,25.26,6.41,23.35m2.38,0L7.6,25.26v1.35M0,25.26l-1.19-1.91m2.39,0L0,25.26v1.35"/></g><g class="cls-4"><path class="cls-3" d="M53.6,40.77l-1.19-1.91m2.38,0L53.6,40.77v1.35M46,40.77l-1.19-1.91m2.39,0L46,40.77v1.35m-7.72-1.35-1.19-1.91m2.39,0-1.2,1.91v1.35m-4-10.25-1.19,1.91m2.38,0-1.19-1.91V30.52m7.72,1.35-1.19,1.91m2.38,0-1.19-1.91V30.52m7.6,1.35-1.2,1.91m2.39,0-1.19-1.91V30.52m4-5.26-1.19-1.91m2.38,0L53.6,25.26v1.35M46,25.26l-1.19-1.91m2.39,0L46,25.26v1.35m-7.72-1.35-1.19-1.91m2.39,0-1.2,1.91v1.35"/></g><g class="cls-5"><path class="cls-3" d="M3.65,16.71l-1.2,1.92m2.39,0L3.65,16.71V15.36m7.65,1.35-1.19,1.92m2.39,0-1.2-1.92V15.36M19,16.71l-1.2,1.92m2.39,0L19,16.71V15.36m7.78,1.35-1.19,1.92m2.38,0-1.19-1.92V15.36m4-5.2L29.57,8.24m2.39,0-1.2,1.92V11.5M23,10.16,21.79,8.24m2.38,0L23,10.16V11.5m-7.72-1.34L14.07,8.24m2.38,0-1.19,1.92V11.5M7.6,10.16,6.41,8.24m2.38,0L7.6,10.16V11.5M0,10.16-1.19,8.24m2.39,0L0,10.16V11.5M3.65,1.36,2.45,3.27m2.39,0L3.65,1.36V0M11.3,1.36,10.11,3.27m2.39,0L11.3,1.36V0M19,1.36l-1.2,1.91m2.39,0L19,1.36V0m7.78,1.35L25.62,3.27m2.38,0L26.81,1.36V0"/></g><g class="cls-6"><path class="cls-3" d="M34.33,16.71l-1.19,1.92m2.38,0-1.19-1.92V15.36m7.72,1.35-1.19,1.92m2.38,0-1.19-1.92V15.36m7.6,1.35-1.2,1.92m2.39,0-1.19-1.92V15.36m4-5.2L52.41,8.24m2.38,0L53.6,10.16V11.5M46,10.16,44.81,8.24m2.39,0L46,10.16V11.5m-7.72-1.34L37.09,8.24m2.39,0-1.2,1.92V11.5m-4-10.14L33.14,3.27m2.38,0L34.33,1.36V0m7.72,1.35L40.86,3.27m2.38,0L42.05,1.36V0m7.6,1.35-1.2,1.91m2.39,0L49.65,1.36V0"/></g></svg>