<svg id="Capa_1" data-name="Capa 1" xmlns="http://www.w3.org/2000/svg" xmlns:xlink="http://www.w3.org/1999/xlink" viewBox="0 0 53.51 38.24"><defs><style>.cls-1,.cls-3{fill:none;}.cls-2{clip-path:url(#clip-path);}.cls-3{stroke:#000;stroke-width:0.3px;}.cls-4{clip-path:url(#clip-path-2);}.cls-5{clip-path:url(#clip-path-3);}.cls-6{clip-path:url(#clip-path-4);}.cls-7{clip-path:url(#clip-path-5);}.cls-8{clip-path:url(#clip-path-6);}</style><clipPath id="clip-path"><rect id="SVGID" class="cls-1" x="0.06" y="18.71" width="4.14" height="24.11"/></clipPath><clipPath id="clip-path-2"><rect id="SVGID-2" data-name="SVGID" class="cls-1" x="4" y="18.71" width="46.2" height="24.11"/></clipPath><clipPath id="clip-path-3"><rect id="SVGID-3" data-name="SVGID" class="cls-1" x="50" y="18.71" width="4.06" height="24.11"/></clipPath><clipPath id="clip-path-4"><rect id="SVGID-4" data-name="SVGID" class="cls-1" x="0.06" y="-0.38" width="4.14" height="19.24"/></clipPath><clipPath id="clip-path-5"><rect id="SVGID-5" data-name="SVGID" class="cls-1" x="4" y="-0.38" width="46.2" height="19.24"/></clipPath><clipPath id="clip-path-6"><rect id="SVGID-6" data-name="SVGID" class="cls-1" x="50" y="-0.38" width="4.06" height="19.24"/></clipPath></defs><title>712 Toba cristalina</title><g class="cls-2"><path class="cls-3" d="M3.92,38.24,1.54,41.5m0-3.26,2.32,3.2M0,30.47-2.4,33.73m0-3.26,2.33,3.19m4-10.91L1.51,26m0-3.26L3.84,26"/></g><g class="cls-4"><path class="cls-3" d="M49.92,38.24,47.54,41.5m0-3.26,2.32,3.2m-7.72-3.2L39.75,41.5m0-3.26,2.32,3.2m-7.65-3.2L32,41.5m0-3.26,2.32,3.2m-7.59-3.2L24.37,41.5m0-3.26,2.32,3.2m-7.53-3.2L16.78,41.5m0-3.26,2.32,3.2m-7.66-3.2L9.05,41.5m0-3.26,2.33,3.2M46,30.47,43.6,33.73m0-3.26,2.32,3.19M38.2,30.47l-2.38,3.26m0-3.26,2.32,3.19m-7.66-3.19L28.1,33.73m0-3.26,2.32,3.19m-7.6-3.19-2.38,3.26m0-3.26,2.32,3.19m-7.53-3.19-2.39,3.26m0-3.26,2.32,3.19M7.51,30.47,5.12,33.73m0-3.26,2.32,3.19M49.9,22.75,47.52,26m0-3.26L49.84,26m-7.72-3.2L39.73,26m0-3.26L42.05,26m-7.66-3.2L32,26m0-3.26L34.33,26m-7.59-3.2L24.35,26m0-3.26L26.67,26m-7.53-3.2L16.76,26m0-3.26L19.08,26m-7.66-3.2L9,26m0-3.26L11.36,26"/></g><g class="cls-5"><path class="cls-3" d="M53.51,30.47l-2.39,3.26m0-3.26,2.32,3.19"/></g><g class="cls-6"><path class="cls-3" d="M0,15.24-2.4,18.5m0-3.26,2.33,3.19M3.84,7.54,1.45,10.81m0-3.27,2.33,3.2M-.18,0-2.57,3.28m0-3.26,2.33,3.2"/></g><g class="cls-7"><path class="cls-3" d="M46,15.24,43.6,18.5m0-3.26,2.32,3.19M38.2,15.24,35.82,18.5m0-3.26,2.32,3.19m-7.66-3.19L28.1,18.5m0-3.26,2.32,3.19m-7.6-3.19L20.44,18.5m0-3.26,2.32,3.19m-7.53-3.19L12.84,18.5m0-3.26,2.32,3.19M7.51,15.24,5.12,18.5m0-3.26,2.32,3.19M49.84,7.54l-2.39,3.27m0-3.27,2.32,3.2m-7.72-3.2-2.38,3.27m0-3.27L42,10.74m-7.66-3.2L32,10.81m0-3.27,2.32,3.2m-7.6-3.2-2.38,3.27m0-3.27,2.32,3.2m-7.53-3.2-2.39,3.27m0-3.27L19,10.74m-7.65-3.2L9,10.81M9,7.54l2.32,3.2M45.82,0,43.43,3.28m0-3.26,2.33,3.2M38,0,35.65,3.28m0-3.26L38,3.22M30.31,0,27.93,3.28m0-3.26,2.32,3.2M22.66,0,20.27,3.28m0-3.26,2.32,3.2M15.06,0,12.67,3.28m0-3.26L15,3.22M7.34,0,5,3.28M5,0l2.33,3.2"/></g><g class="cls-8"><path class="cls-3" d="M53.51,15.24,51.12,18.5m0-3.26,2.32,3.19M53.34,0,51,3.28M51,0l2.33,3.2"/></g></svg>