<svg id="Capa_1" data-name="Capa 1" xmlns="http://www.w3.org/2000/svg" xmlns:xlink="http://www.w3.org/1999/xlink" viewBox="0 0 52.33 34.7"><defs><style>.cls-1,.cls-3{fill:none;}.cls-2{clip-path:url(#clip-path);}.cls-3{stroke:#000;stroke-width:0.3px;}.cls-4{clip-path:url(#clip-path-2);}</style><clipPath id="clip-path"><rect id="SVGID" class="cls-1" x="1.23" y="-1.07" width="44.87" height="43.2"/></clipPath><clipPath id="clip-path-2"><rect id="SVGID-2" data-name="SVGID" class="cls-1" x="45.9" y="-1.07" width="9.33" height="43.2"/></clipPath></defs><title>713 Toba desvitrificada</title><g class="cls-2"><path class="cls-3" d="M39.22,31.4v1.5m4.7,0h-4.7v1.7m-4.64-1.7h4.64m-17.3,0v1.7m4.7-1.7h-4.7V31.4m-4.64,1.5h4.64m21.29,5.75H46.1m-15.55,0v1.69m-4.64-1.69h4.64V37.14m0,1.51h4.7m-22-1.51v3.2M8.61,38.65h4.64m4.7,0h-4.7M39.22,0v-1.7M21.92,0v-1.7M43.21,27.1H46.1m-15.55,0V25.6m4.7,1.5h-4.7v1.69M25.91,27.1h4.64m-17.3,0V25.6M8.61,27.1h4.64v1.69M18,27.1h-4.7M43.21,4H46.1M30.55,5.72V2.52M35.25,4h-4.7M25.91,4h4.64M13.25,5.72V2.52M8.61,4h4.64M18,4h-4.7m26,5.76V8.29m0,1.5v1.69M34.58,9.79h9.34m-22,0v1.69m4.7-1.69h-4.7V8.29m-4.64,1.5h4.64M46.1,15.53H43.21m-12.66,0V14m-4.64,1.5h4.64v1.69m4.7-1.69h-4.7m-17.3,0V14m-4.64,1.5h4.64v1.69M18,15.53h-4.7m26,5.76V23m-4.64-1.7h4.64v-1.5m0,1.5h4.7m-22,1.7v-1.7m4.7,0h-4.7v-1.5m-4.64,1.5h4.64M4.64,32.9v1.7m4.7-1.7H4.64V31.4M0,32.9H4.64m-4,5.75H-4M4.64,0v-1.7M.67,27.1H-4M.67,4H-4M4.64,9.79v1.69m4.7-1.69H4.64V8.29M0,9.79H4.64m-4,5.74H-4M4.64,23v-1.7m4.7,0H4.64v-1.5M0,21.29H4.64"/></g><g class="cls-4"><path class="cls-3" d="M51.68,32.9h4.64m-8.67,4.24v1.51m0,1.69V38.65m4.7,0h-4.7m-1.75,0h1.75m0-11.55v1.69m0-1.69V25.6m4.7,1.5H45.9M47.65,5.72V4m0-1.51V4m4.7,0h-4.7M45.9,4h1.75m4,5.76h4.64m-8.67,7.43V15.53m4.7,0h-4.7V14m-1.75,1.5h1.75m4,5.76h4.64"/></g></svg>