<svg id="Capa_1" data-name="Capa 1" xmlns="http://www.w3.org/2000/svg" viewBox="0 0 53.79 38.02"><defs><style>.cls-1,.cls-2{fill:none;stroke:#000;stroke-linejoin:bevel;}.cls-1{stroke-width:0.3px;}.cls-2{stroke-linecap:round;stroke-width:0.8px;}</style></defs><title>714 Brecha volcánica y toba</title><path class="cls-1" d="M33.64,36.25l1.51.08.75,1.25L33,37.75Zm6.61.08,1.09,1.17-1.67.58Zm-.92-4,.08-.67L40.5,31l.84,2.34ZM38,33.91l1.51.75-1,1.34-1.08-.59ZM34.06,32l2.26-.16L37.07,33l-2.09.5Zm-11,3.85L23.86,38l-2.26-.17Zm3.1,0,1.75-.5,1.51,1.25-2.17,1Zm4.52-1.59.75,1.09,1.67-.92L31.8,33ZM26,32.65l1.09-1L28.46,33l-.42.83-1.34-.08ZM21.26,32l2.26-.83v2.17Zm-4.93,3.68.33,2.26-2.42-.59Zm2.42-1.84h1.59L20,35.74l-2-1Zm-4.1-2.09.92,1.51H17.5l-.84-1.59ZM.35,36.25l1.17-1,1.59.34-.58,1.84Zm7.78-.92.33,2.42L6,37.42Zm3.6-1.93-.92,1.34,1.75,1.42.92-1.33ZM6.79,32.15l1.42,1.59,1.93-1.26-.76-1.17Zm-4.1.92L4,31.65l1.09,2.17Z"/><path class="cls-2" d="M37.66,37.42h0m3.68-1.76h0m-1.59-2h0M38.08,31h0m-5.69.84h0M34.9,35h0m-3.77,2.34h0m-1.59-2.76h0M29.25,31h0M25,32.82h0m-2.76,1.5h0M25,35.83h0m.25,3.09h0m-6.61-.25h0m-6.86-1.34h0m6.44-1.08h0m1.51-3.6h0M18.25,31h0M14.4,33.91h0m-2.84-2.09h0M9.64,35.16h0M4.37,38h0m-3.43.25h0m4.6-6.94h0m.92,2.18h0M5.2,35.33h0m-3.59-1h0M1.19,32h0"/><path class="cls-1" d="M54.1,36.25l1.17-1,1.59.34-.58,1.84Zm-2.76-4.52v1.51l1.51,1.08.83-1.58Zm-3.43,4.18,2.68-.33.08,1.84ZM43,36.08l1.42-.84L45.57,37l-1.26.42Zm3.09-3.93,1.84.17.17,1.59L46.74,34Zm-2.49-.9L42.47,32.9l2,.84Z"/><path class="cls-2" d="M48.5,30.9h0M43,38.25h0m4.68-.75h0m7,.75h0M52.34,37h0m3-2.68h0M54.94,32h0M50.5,34.24h0M46.07,35h0"/><path class="cls-1" d="M38.47,14.57,40,16.51,37.47,17Zm-5.73.48.92,1.75,1.43-1.42-.76-.92Zm-5.12,0,.25,2,2.43-1.08Zm-6.11.5L24,15.09l.25,1.75Zm-6.75-.07.33,1.84L17.6,16ZM11.6,14.13l1.17,1.59L10.6,16.89l-1.34-.34Zm-8,.12,3.1.51L6,15.67,5.7,17.43ZM41.48,9.36l-2.57-.62,1.38-1.63Zm-3.95.55,1.51.67-.17,1.08-2.43-.41ZM33.27,7.8l2.84-.17L34.77,9.39ZM29.71,11l-1,1.34,1.92.67,1.42-1ZM26.66,8l1.59-.17,1.17.75-.84,1.17ZM20.47,8,22,9.55l1.51-1.92-2.43-.25Zm-1.8.89-1.42,1.26,3,.25ZM13.44,8.8,14.11,10l2.26-1.84-1.76-.67ZM10.2,10.12l1,1.75,1.51-1.75ZM7.5,7.21l1.76-.5L9.43,8.8ZM4.66,8.45l.08,1.42,1.76.66.33-1.67ZM.06,7.8,1.15,9.22,3,7.55Zm23,20.08-.92,1.84,2.68-.09ZM40.42,28l-.75.67L40.59,30l1.08-1ZM20.26,26.29l-.75,1.92,1.59.5L21.85,27Zm15.56,1.59L37,27.63l1,1.92-2.26.33Zm-4.6-1.26,2.59-.75-.33,2.34Zm-2.26,1-.09,1.83,2.35-.25-1-1.5ZM-.15,27.37,0,30.05l-2.26-.5ZM25,26.46l2.67-.09-1.08,2.18ZM17.5,28,16.41,29.8l2.26.08Zm-5.86-1.17L13,26.12h1.59l-.67,2.43Zm-2,.42L8.21,28.8l2.35.92Zm-6.7,1.09-.08,1.08,2,.26V28.13Zm-2.76-14L.35,17l-2.26-.5Zm33.65-2.68,1.51.09L36.09,13l-2.93.17Zm6.42.25,1.09,1.17-1.67.59Zm-14-2.15L27,11.93l-2.26-.16Zm-5.79,2.76L22.2,12l1.51,1.25-2.18,1Zm-3.7-1.27.33,2.25-2.43-.58ZM-.15,12,1,11l1.59.34L2,13.17Zm8.36-1.09.34,2.42L6,13Z"/><path class="cls-2" d="M37.53,13.25h0M41,17.35h0M-.32,6.48h0m2.68,8.28h0m.5-10.87h0M4.7,6.4h0M17.58,7.65h0M15.07,5.81h0m10.1,1.61h0M29,5.9h0m9.87.92h0m-3.09-.76h0m-3.26-.33h0M30.88,2.8h0M37.07,3h0m3.1,1.17h0M14.65,20.19h0m25.18,5.35h0m-1.75,1.75h0m-2.43-1.84h0m-4.6-1.08h0m-1.51,2h0m4.52,2.43h0M27.45,30h0M33,10.43h0M27.75,3h0m-5.32.11h0m-.75,3h0M31,7.86h0M28.37,23.2h0m-1,2.25h0m.33-4.59h0M23.6,26h0m-.92-2.26h0M14.74,3.47h0M8.46,5.14h0M9,1.55H9m2.17,2h0M12.81,13h0M-.15,3h0M6,2.72H6M23.6,10.33h0m-4.26,1.5h0M7.71,29.8h0m5.19-.17h0m3-1.84h0m4.43-2.5h0m-3.51,0h0m-8,1.33h0M6,25.37H6m-4.1,1.75h0M2.86,24h0m-3.26.84h0m34-1.76h0m3.93.42h0m3.18-.25h0m-5.06-2.17h0M40,20.35h0m1.71-5.59h0M36.32,16h0m-5.5-1.44h0m3.66,4.11h0M30.71,21h0m-1.58-2.75h0m-2.85-4.35h0M34,3.22h0M21.85,18h0m2.76,1.51h0m.25,3.09h0m-3.51-1.67h0m-3.1,1.42h0M14.82,23h0m-4.43.83h0m1-2.84h0m6.44-1.08h0m1.51-3.6h0m-1.51-1.67h0M14,17.6h0M18.25,4.48h0m-9,14.37h0M7.29,21.69h0M4,21.69H4M1.1,21.11h0M11.64,7h0M7.8,15.67h0M4.78,19h0M1.19,18h0m3.18-6.18h0M3.53.8h0m8.2-.09h0m13.63,3.7h0M19.26,2.3h0M23.44.8h0m3,.08h0M30.25.4h0M40.59,1.55h0M37.49.8h0M34.23.46h0m-18.4.92h0"/><path class="cls-1" d="M47.83,14.84l2.17.33L49.33,17ZM43,15l2.42.25L45.15,17l-2.09-.08ZM53.81,7.8,54.9,9.22l1.84-1.67ZM49.67,9.87,51.84,8.7l.25,2.09ZM47.2,7.55l2.26-.09-1,1.84Zm-2.26-.27,1.17,1.83-2.51.17Zm-.75,20.2L42.85,29l2.18.76Zm9.41-.11.17,2.68-2.26-.5Zm-5.77-.08-.34,1.17,1.59,1.26.5-1.68Zm6.1-12.95L54.1,17l-2.26-.5ZM53.6,12l1.17-1,1.59.34-.59,1.84Zm-6.78-.17,2.68-.33.08,1.83Zm-4.51.08,1.42-.83,1.17,1.75-1.26.42Z"/><path class="cls-2" d="M42.6,6.86h0M43,2.72h0m1.29,2.17h0m5-3h0m-3.09.83h0M50,5.4h0m3.43,1.08h0m2.68,8.28h0M53.6,3h0M47.33,17.85h0M46.91,6h0M44.48,19h0m7.11-6.27h0m-5.35,1.09h0m9.45,13.28h0m-13.22.42h0M43.73,25h0m1.84,1.68h0m1.76-2.26h0M50.17,26h0m3.18-1.17h0M50.67,23h0m-5.35,0h0m-2.76-1h0m5.85-1.5h0m6.44.67h0m-2.92-.42h0m3-2.68h0m-4.85-.08h0m-4.52-7.44h0M51.68.13h0"/><polygon class="cls-1" points="40.25 -1.67 41.34 -0.5 39.67 0.08 40.25 -1.67"/><polygon class="cls-1" points="23.1 -2.17 23.86 0 21.6 -0.17 23.1 -2.17"/><polygon class="cls-1" points="16.33 -2.34 16.66 -0.08 14.24 -0.67 16.33 -2.34"/><line class="cls-2" x1="25.28" y1="0.92" x2="25.28" y2="0.92"/><line class="cls-2" x1="18.67" y1="0.67" x2="18.67" y2="0.67"/><line class="cls-2" x1="4.37" x2="4.37"/><line class="cls-2" x1="0.94" y1="0.25" x2="0.94" y2="0.25"/><line class="cls-2" x1="42.98" y1="0.25" x2="42.98" y2="0.25"/></svg>