<svg xmlns="http://www.w3.org/2000/svg" viewBox="0 0 54.27 43.01"><defs><style>.cls-1,.cls-2{fill:none;stroke:#000;stroke-linejoin:round;}.cls-1{stroke-width:0.3px;}.cls-2{stroke-linecap:round;stroke-width:0.8px;}</style></defs><title>715 Brecha volcánica o aglomerado</title><g id="Capa_1" data-name="Capa 1"><path class="cls-1" d="M5.83,40.33,7.15,41.4m.25-2.76,4.39,3.57M6.34,39.33l5.33,4.2M8.34,38.2l3,2.32m-2-3,2.25,2.07m-.81-2.32,1.32,1.76m.06-1.95.69,1.32m9.34-6-.31.68m0-1.65-1.41,2.31m1.41-4.25L19.34,34.2M21,28.74l-2.4,5m1.51-5.52-2.23,5.12M-.44,11l-1.82,1.75m4.45-2.57L-1.38,13.5M3,10.68-.44,14.32m8-.82L5.27,16m1.63-3.2L4.58,15.45m1.57-3.33L4,14.94m1.44-3.51L2.63,14.57m25.66,9.65,1.76-.44M25.41,23l4.14-.19m-6.84-4.14,4.2.57m-5,.37,7.53.88m-5.71,1.19,5.59.25M21,10.37l3.52,2.38M21,8.93,25,12.12m3.2-4.7.44,2.95m-2.26-3L28,10.56M24.9,7l2.64,3.77M24,7.49l3,3.38M23.08,7.92,26.16,11M22,8.11l3.51,3.32M.88,14.63l3.26-3.45m18.51,9.41,6.58.43m-10,6.85L17,32.9m-17.6-5L3.2,24.41m-5.08,3.38L3,23.72m-6,3.82c0-.25,5.27-4.07,5.27-4.07m-5.52,3,5-3.26m-5.21,2.19,4.71-2.63m-5.78,2L1,22.15m-6.65,2.07L.56,21.65m-7,20.52a13.16,13.16,0,0,0,3.2-1c1.31-.69,2.38-1.38,2.38-1.38s1.07.87,1.19,1.38,1.19,1,1.82,1.19,0,1.63,0,1.63a3.44,3.44,0,0,0-1,.25c-.38.18-.94,2.13-1,2.32s-1.69,0-2.13,0a12.44,12.44,0,0,1-1.82-.38s-.69-.25-.25-1.07-.69-1.5-1.25-1.69a7.53,7.53,0,0,1-1.2-.56ZM9.66,37.28A26.09,26.09,0,0,1,13,37.15s.44.57.44.82-1.25.88-1.69,1.38a2.85,2.85,0,0,0-.31,2,9.12,9.12,0,0,0,.75,1.7l-1.32,1.12S9.6,43.05,9.16,42.54a4,4,0,0,0-2.51-1.25c-1.19-.12-1.19-.56-.82-1.06S6.08,39,7,38.91A9.35,9.35,0,0,0,9.66,37.28Zm12.86-1.21c1.57-.44,1.32-.57,2.32-.25s2,.94,2.7,1.13,1.88.37,1.88.37-.25.88-.38,1.44,1.13,3.07,1.13,3.07l-3.76-.37a2.12,2.12,0,0,0-1.19-1.07c-.88-.31-1.26-.44-1.7-1.31s-2.38-1.63-2.38-1.63Zm-23.15,1L.5,35.78l2,.94,1.94.43.07,2.14-1.89.18L1.44,38.28Zm19,4.14,1.13-.06a1.22,1.22,0,0,0,.62.87c.57.32,2.2,1.19,2.2,1.19l-1.69,2A13.21,13.21,0,0,0,18,44.8c-.31.13-1-.56-1-.56s.94-1.57,1-1.76S18.34,41.23,18.34,41.23Zm5.46,2.55s1.82-.5,2.32-.19L30,46l-.76.69a3.87,3.87,0,0,0-1.19-.81,4.3,4.3,0,0,0-1.75.12l-1.38.76s-.32-1.88-.44-2.14A7.43,7.43,0,0,0,23.8,43.78Zm-7.26-3L15,42.06l-1-.81s.69-.94,1.19-1.07S16.54,40.81,16.54,40.81ZM3.64,44.68l1.13-1.32,2,.94,2,.44.06,2.13-1.88.19L5.71,45.87ZM16,36.13l1.32-.25,1.07.94,1.69.56-1.57.44-1.31.69L16.52,37Zm-11.75-3,1.51.69-.32,1.26-1.69.12L4,34.12Zm-5.58-2.69,4.45.06-.88,2.76-2.69.13-.19-1.51Zm-4.2-7a12.69,12.69,0,0,0,3.2-1C-1.07,21.84,0,21.15,0,21.15s1.07.88,1.19,1.38,1.19,1,1.82,1.19,0,1.63,0,1.63a3.44,3.44,0,0,0-1,.25c-.38.19-.94,2.13-1,2.32s-1.69,0-2.13,0a12.44,12.44,0,0,1-1.82-.38s-.69-.25-.25-1.06S-3.89,25-4.46,24.79a7.33,7.33,0,0,1-1.19-.57ZM5,29.24,6.9,29s-.75,1.45-.56,2.07-.7-.37-.7-.37Zm20.2,3,1.5.51-.06,1.37a8.52,8.52,0,0,1-1.32-.25c-.31-.12-1.13-.31-1.31-.18A16.47,16.47,0,0,1,25.22,32.24Zm-6.75-4.52a10.78,10.78,0,0,1,2.5,1c.54.46,1.06.7,1,1.2a6.43,6.43,0,0,0-.16,1.1,11.05,11.05,0,0,0,.73,2,8.49,8.49,0,0,0-1.75.64l-1,.76-3.82-2,1.42-1.28L18.48,29Zm-6.8,1.33a17.06,17.06,0,0,1,2.76,2.32c.12.44-.38.87-.69,1.5S13,34.31,13,34.31H9.35A2.91,2.91,0,0,0,8,34.69l-1-.31.37-2.07.69-1s.19.07.88-.25a4.12,4.12,0,0,0,1.51-1.44ZM6.4,23.78l1.13-.06a1.25,1.25,0,0,0,.62.88l2.2,1.19-1.69,2a12.55,12.55,0,0,0-2.58-.43c-.31.12-1-.57-1-.57S6,25.22,6.08,25,6.4,23.78,6.4,23.78Zm8,3.14,1.19.25s-.94,1.06-.82,1.69-.18-.25-.62-.56S14.43,26.92,14.43,26.92ZM25,28.55a6.33,6.33,0,0,1,1.88-.76c.57,0,.5,0,1,.32a5.05,5.05,0,0,0,1.56.44l-.56,2.19a11.44,11.44,0,0,0-1.38-1.07,14,14,0,0,0-2.51.26ZM17.63,23s1.82-.5,2.32-.19l3.89,2.45-.76.69a3.83,3.83,0,0,0-1.19-.82,4.25,4.25,0,0,0-1.75.13L18.76,26s-.32-1.88-.44-2.13A7.76,7.76,0,0,0,17.63,23Zm-4.46-4.76a26.26,26.26,0,0,1,3.33-.13s.44.57.44.82-1.26.87-1.7,1.38a2.9,2.9,0,0,0-.31,2A9,9,0,0,0,15.68,24l-1.32,1.13S13.11,24,12.67,23.53a4,4,0,0,0-2.51-1.25C9,22.15,9,21.71,9.35,21.21S9.6,20,10.48,19.9A9.41,9.41,0,0,0,13.17,18.27Zm9.54.37c1.57-.44,1.32-.56,2.32-.25s2,.94,2.7,1.13,1.88.38,1.88.38-.25.87-.38,1.44,1.13,3.07,1.13,3.07L26.6,24A2.13,2.13,0,0,0,25.41,23c-.88-.32-1.26-.44-1.7-1.32S21.33,20,21.33,20Zm3.14-3.13,3.63.06-.81,1.69-4.46-.81Zm.69-3.26.56,1.13,1.94.5-.12-1.44Zm-8.35,2.13c.63,0,2.39-.12,2.39-.12a5.68,5.68,0,0,1,.12,1.37c-.06.51-1.44,0-1.44,0ZM18.51,11l-1.57,1.25-1-.82s.69-.94,1.2-1.06S18.51,11,18.51,11Zm6.71-4.27a4,4,0,0,0,1.57.76A19.67,19.67,0,0,0,29,7.42l.26,2.89s-.57.18-1.76.44-1.57.12-2.26,1.06-.88,1.25-.88,1.25L22.9,13a6.26,6.26,0,0,0-1.82-1.06c-.57-.07.12-1.38,0-2.32a7.26,7.26,0,0,0-.32-1.44,15.41,15.41,0,0,0,2.32-.26A10.76,10.76,0,0,0,25.22,6.73ZM13.05,3.91l2.44-2.19.26,2.51ZM8.78,11.06a14.52,14.52,0,0,1,2.57.12c.76.19.82.38.82.38l1.76-1.07,1.44-.37a1.93,1.93,0,0,1,.31-1A3.33,3.33,0,0,1,17,8.36,10.47,10.47,0,0,1,15.18,6.8c-.31-.5-2.26.25-2.26.25L10.79,7,9.6,8a1.24,1.24,0,0,1,0,1.38C9.16,10.24,8.78,11.06,8.78,11.06Zm.57,6,.31-1.88H12l-.56,1.38ZM.25,18.45l1.13-1.31,2,.94,1.94.44.06,2.13-1.88.19L2.32,19.65Zm-3.83-6.76,3.39-.76L1.32,9.62l2.13,1.31,1.82.25,3,3L5.83,16.39,3.39,14.57H-.19l-2.07-1.82ZM1.25,7.11,2.63,5.29l.94-.12,1.3-.53,1.65,0,1.38,1L6.4,7.05,5.83,8.74l-3-1.44Zm-5.08-.06,1.32-.25,1.07.94L.25,8.3l-1.57.44-1.32.69-.62-1.51Z"/><path class="cls-2" d="M29.84,43.67h0m-.5-11.36h0m-12-27.58h0m-3.18,7.52h0m-6,31.09h0m7.53.17h0m8.2-1.84h0M21,35.48h0M1.73,20.61h0m1.18,6.85h0M11.77,25h0m14.56,1h0M17,25.45h0m6-2.67h0m-2.84-4.51h0m-12,.16h0M9.47,4.85h0M3.39-.47h0m19,5.11h.06m4.81.9h0M3.45,16.26h0M19.38,8h0m-15,1.63h0M9.6,12.75h0m5.89,2.82h0m8.79-1.38h0m1.94,3.64h0m-3.41,27h0M6.21,22h0m11.35-1.37h0m4.9,7.2h0m4.77,8h0M8.72,29.17h0M14.11,35h0M7.42,36.49h0m12.79,2.07h.07M3.41,41.33h0M.73,34.48h0"/><path class="cls-1" d="M31.92,41.4l-.26.75M33.17,41l-.56,1.19m1.5-1.13-.5,1.38m1.57-1.32-.75,1.45m1.06-28.27,1.44.88m-1.75-2.51,3,2.07m-2.7-3.14L40,14.38m-4.14-3.7L40,13.13M35.93,8.8,40,12M37.19,8.49l3.57,2.76m11.17.25-.63.75M53.81,11,52,12.75m4.45-2.57L52.87,13.5m4.39-2.82-3.45,3.64m-.19,13.6,3.83-3.51m-5.08,3.38,4.89-4.07m-6,3.82c0-.25,5.27-4.07,5.27-4.07m-5.52,3,5-3.26m-5.21,2.19,4.71-2.63m-5.78,2,5.46-2.64M48.6,24.22l6.21-2.57M39,29.38l.6,1.65m-1.47-2,1,3.16m-1.86-3.45,1.27,4.2m-2.35-4.61,1.57,5m-2.53-5.28L37,33.58M34.5,28.69,36.12,34M34,29.62l1.12,4.73m-1.67-3.86.75,4.26m-1.44-2.87.4,2.58M32.2,33l.11,1.23m5,9.82,2.95-.75,1,1.25,2.32.75L43,46.68l-2.76.38-3.27-2Zm10.48-1.88a13.16,13.16,0,0,0,3.2-1c1.31-.69,2.38-1.38,2.38-1.38s1.07.87,1.19,1.38,1.19,1,1.82,1.19,0,1.63,0,1.63a3.44,3.44,0,0,0-1,.25c-.38.18-.94,2.13-1,2.32s-1.69,0-2.13,0a12.44,12.44,0,0,1-1.82-.38s-.69-.25-.25-1.07-.69-1.5-1.25-1.69a7.53,7.53,0,0,1-1.2-.56ZM32.42,41l3.64.06-.82,1.7L30.79,42Zm21.2-3.95,1.13-1.31,2,.94,1.94.43.07,2.14-1.89.18-1.19-1.19Zm-6,1.82L49.1,37l2.58.94-1.32.56ZM35.49,37.78l2.26-1.13,1.44.44L42,36l.37,1.95,2.64,2L43.58,40l-1,1.75-1.94-2.07H37.81L36.68,40Zm-4.2-1.38c.63,0,2.38-.12,2.38-.12a5.54,5.54,0,0,1,.13,1.38c-.06.5-1.45,0-1.45,0ZM31.75,46s1.38-2.07,1.82-2.13l.12,2.88Zm3.09-18,1.7.45,3.53,1.25-1.13,3.15-4.77,1.93L31.57,34l1.85-3.54ZM31,23l4.46-.19.38.88.69.88L35,25.25l-2.2,1.31-.87.57-.13-2.2L31,23.49Zm9.73,2.23,2.95-.75,1,1.26,2.32.75-.63,1.38-2.76.37-3.26-2Zm3.7,5.33,2.13.25-.25,1.13.06,1.82-2-.13-2,.63,1.07-2.13ZM50,32.62l1.63-.06.26,1.69.56.69-.75.56-1-.37-1.13.25ZM49,29.49l2.14-.07-.44.76v1.25l-.82-.06Zm3.83,1,4.45.06-.88,2.76-2.69.13-.19-1.51Zm-4.2-7a12.69,12.69,0,0,0,3.2-1c1.31-.69,2.38-1.38,2.38-1.38s1.07.88,1.19,1.38,1.19,1,1.82,1.19,0,1.63,0,1.63a3.44,3.44,0,0,0-1,.25c-.38.19-.94,2.13-1,2.32s-1.69,0-2.13,0a12.44,12.44,0,0,1-1.82-.38s-.69-.25-.25-1.06-.69-1.51-1.26-1.69a7.33,7.33,0,0,1-1.19-.57Zm5.83-5.08,1.13-1.31,2,.94,1.94.44.06,2.13-1.88.19-1.19-1.19Zm-6,1.82L50,18.39l2.58.94-1.32.57ZM36.37,19.14,38.63,18l1.44.43,2.82-1.12.38,1.94,2.64,2-1.45.12-1,1.76-2-2.07H38.69l-1.13.25ZM32.17,19s1.38-2.07,1.82-2.13l.12,2.88Zm12.61-3.45,1.56-1.19,2,1.75-1.69,1.32Zm5.89-3.82,3.39-.76,1.51-1.31,2.13,1.31,1.82.25,3,3-2.45,2.26-2.44-1.82H54.06L52,12.75ZM31.54,10.43l1.13-.12L32.54,13l-1.75.25Zm3.39-1.5,3.2-.69,1.19,1.31,2.38.94-2.07,1.82,1.19,2.07H39.26l-2.89,1.07-.69-.07-.5-2.69L36,10.24ZM50.42,7.05l1.32-.25,1.07.94,1.69.56-1.57.44-1.32.69L51,7.92ZM45,6.8l2.63.06.13.69,1.63,1.38-.5.69-.76.25-.56,1.06-2.82.88L45.47,9ZM31.29,4.85,31,7.49l1.44-.76.75-.18.07-2.32Z"/><path class="cls-2" d="M31.08,38.37h.06m-.08-17.6h0M46,40.83h0m1.17-11h0m-9.87-3.34h0M43.1,11.75h0m-5.52,4.51h0m5-15.21h0M44.44,4.9h0M35.32,20.27h0M33.4,28.21h0M48,21.44h0m-8.28,1.67h0m2.43-7.77h0m8.11-1.25h0M35.07,6.48h0m-2.34,8.61h0m8.7-6.6h0M48.79,6h0m-.56,27.08h0m.69-6.33h0M50.55,17h0M55,34.48h0M34.91,45.18h0M45.78,44h0m-6.86-2h0m6.86-4.85h0m-5.19-3h0m1.68-4.52h0m-6.53,5.81h0"/><line class="cls-1" x1="6.34" y1="-3.67" x2="11.67" y2="0.53"/><path class="cls-1" d="M-6.46-.83a13.16,13.16,0,0,0,3.2-1C-1.95-2.52-.88-3.21-.88-3.21S.19-2.34.31-1.83,1.5-.83,2.13-.64,2.13,1,2.13,1a3.44,3.44,0,0,0-1,.25c-.38.18-.94,2.13-1,2.32s-1.69,0-2.13,0a12.44,12.44,0,0,1-1.82-.38s-.69-.25-.25-1.07S-4.77.61-5.33.42a7.53,7.53,0,0,1-1.2-.56Z"/><path class="cls-1" d="M13-5.85s.44.57.44.82-1.25.88-1.69,1.38a2.85,2.85,0,0,0-.31,2,9.12,9.12,0,0,0,.75,1.7L10.85,1.17S9.6.05,9.16-.46A4,4,0,0,0,6.65-1.71c-1.19-.12-1.19-.56-.82-1.06S6.08-4,7-4.09a9.35,9.35,0,0,0,2.7-1.63"/><path class="cls-1" d="M18.34-1.77l1.13-.06a1.22,1.22,0,0,0,.62.87c.57.32,2.2,1.19,2.2,1.19l-1.69,2A13.21,13.21,0,0,0,18,1.8c-.31.13-1-.56-1-.56S18-.33,18-.52,18.34-1.77,18.34-1.77Z"/><path class="cls-1" d="M23.8.78s1.82-.5,2.32-.19L30,3l-.76.69a3.87,3.87,0,0,0-1.19-.81A4.3,4.3,0,0,0,26.31,3l-1.38.76s-.32-1.88-.44-2.14A7.43,7.43,0,0,0,23.8.78Z"/><polygon class="cls-1" points="3.64 1.68 4.77 0.36 6.78 1.3 8.72 1.74 8.78 3.87 6.9 4.06 5.71 2.87 3.64 1.68"/><line class="cls-2" x1="29.84" y1="0.67" x2="29.84" y2="0.67"/><line class="cls-2" x1="8.09" y1="0.34" x2="8.09" y2="0.34"/><line class="cls-2" x1="15.62" y1="0.51" x2="15.62" y2="0.51"/><line class="cls-2" x1="22.81" y1="1.84" x2="22.81" y2="1.84"/><polygon class="cls-1" points="37.31 1.05 40.26 0.3 41.26 1.55 43.59 2.3 42.96 3.68 40.2 4.06 36.94 2.05 37.31 1.05"/><path class="cls-1" d="M47.79-.83a13.16,13.16,0,0,0,3.2-1c1.31-.69,2.38-1.38,2.38-1.38s1.07.87,1.19,1.38,1.19,1,1.82,1.19,0,1.63,0,1.63a3.44,3.44,0,0,0-1,.25c-.38.18-.94,2.13-1,2.32s-1.69,0-2.13,0a12.44,12.44,0,0,1-1.82-.38s-.69-.25-.25-1.07S49.48.61,48.92.42a7.53,7.53,0,0,1-1.2-.56Z"/><path class="cls-1" d="M31.75,3S33.13.88,33.57.82l.12,2.88Z"/><line class="cls-2" x1="34.91" y1="2.18" x2="34.91" y2="2.18"/><line class="cls-2" x1="46.55" y1="2.75" x2="46.55" y2="2.75"/></g></svg>