<svg xmlns="http://www.w3.org/2000/svg" xmlns:xlink="http://www.w3.org/1999/xlink" viewBox="0 0 53.65 30.55"><defs><style>.cls-1,.cls-3{fill:none;}.cls-2{clip-path:url(#clip-path);}.cls-3{stroke:#000;stroke-width:0.3px;}.cls-4{clip-path:url(#clip-path-2);}.cls-5{clip-path:url(#clip-path-3);}.cls-6{clip-path:url(#clip-path-4);}</style><clipPath id="clip-path"><rect id="SVGID" class="cls-1" x="0.09" y="18.69" width="29.73" height="24.11"/></clipPath><clipPath id="clip-path-2"><rect id="SVGID-2" data-name="SVGID" class="cls-1" x="29.61" y="18.69" width="24.47" height="24.11"/></clipPath><clipPath id="clip-path-3"><rect id="SVGID-3" data-name="SVGID" class="cls-1" x="0.09" y="-0.4" width="29.73" height="19.24"/></clipPath><clipPath id="clip-path-4"><rect id="SVGID-4" data-name="SVGID" class="cls-1" x="29.61" y="-0.4" width="24.47" height="19.24"/></clipPath></defs><title>716 Roca zeolítica</title><g id="Capa_1" data-name="Capa 1"><g class="cls-2"><path class="cls-3" d="M11.9,38.27H14l-2.34,3.17H14m13.42-3.17H29.5l-2.34,3.17H29.5m-9.88-3.17h2.1l-2.35,3.17h2.35M4.24,38.27h2.1L4,41.44H6.34M7.92,30.55H10L7.66,33.73H10m13.41-3.18h2.09l-2.34,3.18h2.34m-9.87-3.18h2.09l-2.34,3.18h2.34M.26,30.55H2.35L0,33.73H2.35M11.9,22.82H14L11.65,26H14m13.42-3.18H29.5L27.16,26H29.5m-9.88-3.18h2.1L19.37,26h2.35M4.24,22.82h2.1L4,26H6.34"/></g><g class="cls-4"><path class="cls-3" d="M42.65,38.27h2.09L42.4,41.44h2.34m5.5-3.17h2.1L50,41.44h2.35M34.93,38.27H37l-2.35,3.17H37m1.64-10.89h2.09l-2.34,3.18h2.34m13.17-3.18H56l-2.35,3.18H56m-9.75-3.18h2.09L46,33.73h2.34M30.94,30.55H33l-2.34,3.18H33m9.62-10.91h2.09L42.4,26h2.34m5.5-3.18h2.1L50,26h2.35M34.93,22.82H37L34.67,26H37"/></g><g class="cls-5"><path class="cls-3" d="M7.92,15.32H10L7.66,18.5H10m13.41-3.18h2.09L23.17,18.5h2.34m-9.87-3.18h2.09L15.39,18.5h2.34M.26,15.32H2.35L0,18.5H2.35M11.9,7.59H14l-2.34,3.18H14M27.41,7.59H29.5l-2.34,3.18H29.5M19.62,7.59h2.1l-2.35,3.18h2.35M4.24,7.59h2.1L4,10.77H6.34M7.92,0H10L7.66,3.18H10M23.42,0h2.09L23.17,3.18h2.34M15.64,0h2.09L15.39,3.18h2.34M.26,0H2.35L0,3.18H2.35"/></g><g class="cls-6"><path class="cls-3" d="M38.66,15.32h2.09L38.41,18.5h2.34m13.17-3.18H56L53.66,18.5H56m-9.75-3.18h2.09L46,18.5h2.34M30.94,15.32H33L30.69,18.5H33M42.65,7.59h2.09L42.4,10.77h2.34m5.5-3.18h2.1L50,10.77h2.35M34.93,7.59H37l-2.35,3.18H37M38.66,0h2.09L38.41,3.18h2.34M53.92,0H56L53.66,3.18H56M46.26,0h2.09L46,3.18h2.34M30.94,0H33L30.69,3.18H33"/></g></g></svg>