<svg xmlns="http://www.w3.org/2000/svg" viewBox="0 0 53.65 32.13"><defs><style>.cls-1,.cls-2{fill:none;stroke:#000;}.cls-1{stroke-width:0.6px;}.cls-2{stroke-width:0.3px;}</style></defs><title>717 Flujos basálticos</title><g id="Capa_1" data-name="Capa 1"><path class="cls-1" d="M-6.6,31.67c1-.15,4.51-.15,6.17-.3s6.17.15,8.72.3S16,32,16,32c.74-.06,1.67,0,2.85,0m-.58-4.43h.58m-2.53,0c-.36,0-.67,0-.92-.05l-.29,0m0,0-.8-.1m4,.21c-.73,0-1.4,0-1.95,0m-2-.19c-1.75-.22-5.36-.65-8.78-.9m0,0-.9-.06m-27.66,0c1.05-.15,6.13-.16,9.45-.46s10.76.22,16,.37c.7,0,1.44,0,2.19.1m-8.15-7.9c1.82,0,3.65.08,5.21.13,4.67.15,13.41-.15,13.41-.15,1.16.09,2.59.18,3.75.21m-5.07-5.38c1,0,1.62.06,1.62.06,1-.07,2.15-.12,3.45-.17m-5.07.11c-1,0-2.48,0-4,.06-2.86.15-7.22-.15-8.88,0M15.33,6h.05l3.45.12M8.28,5.61l1.37,0,.33,0M15.33,6,10,5.68m-7.1,0c.47,0,1.26,0,2.27,0m0,0c.9,0,2,0,3.13,0"/><line class="cls-1" x1="4.61" y1="26.36" x2="4.61" y2="26.4"/><path class="cls-2" d="M5.51,19.61v6.81m3.14,0V19.69M6.87,26.4V19.69M.52,25.81V19.16m.64,6.57v-6m.73,5.72V19.46m.83,6.22V19.76m1.89-.22v6.82"/><line class="cls-1" x1="5.51" y1="26.42" x2="5.51" y2="26.62"/><path class="cls-2" d="M15.33,6v7.26m-.19,14.17v-8.5m-2,7.78V19"/><line class="cls-1" x1="15.33" y1="5.96" x2="15.33" y2="5.78"/><line class="cls-2" x1="14.51" y1="6.45" x2="14.51" y2="13.07"/><line class="cls-1" x1="13.76" y1="13.27" x2="13.76" y2="13.3"/><path class="cls-2" d="M7.57,6v7.18M8.37,6v7.13m3.16-.3V6M9.58,6v6.93m-7.43.22V6M3,6v7.13M6.12,6v6.76M4.16,6v6.93M-.38,6.1v6.79M12,26.62V19.19M16.5,6.55v6.62m.78-.3V6.25m-3.52,7V6.45"/><path class="cls-2" d="M5.15,5.61V-.77M5.88,5.4V-.69m.85,6.17V-.72m.69,6.2V-.84M1.83,5.52V-.56M13.29,13.51v4.41m.8-4.44v4.36m3.16-4.28v5m-2-5v4.16m-8-3.86v4.09m3.49-4.29V18M9,13.6V18M2.28,13.45v4.36M4.15,13.6V18m.73-4.28v4m.85-4v4.12m.83-4v4.14M.83,13.81v4m15.39,8.84V19.27m.8,7.35V19.19m1.21,7.48V19m-7,7.61V19.27"/><line class="cls-1" x1="5.15" y1="5.67" x2="5.15" y2="5.61"/><path class="cls-2" d="M10,5.68V-.77M3.28,5.52V-.92"/><line class="cls-1" x1="9.98" y1="5.68" x2="9.98" y2="5.7"/><line class="cls-2" x1="11.76" y1="5.7" x2="11.76" y2="-0.74"/><line class="cls-1" x1="8.28" y1="5.63" x2="8.28" y2="5.61"/><path class="cls-2" d="M16.3,27.51v3.93m-8-4.21v4.09m3.48-3.95v4.37M10,27.35v4.39m-6.7-5.23v4.36m1.87-4.2V31m.73-4.15v4m.85-3.85v4.12m.69-4.09v4.14M1.83,26.87v4M14.29,5.63V-.86m.8,6.41V-.89m3.16.08V5.25M16.3-.84V5.4m-8,.21V-.54"/><path class="cls-1" d="M18.25,27.53V27.3m-1.95,0v.23"/><path class="cls-1" d="M14.29,27.25v.07m.8-.09v.19"/><line class="cls-2" x1="14.29" y1="27.32" x2="14.29" y2="31.67"/><path class="cls-1" d="M46.53-.43h0M22.21,32.08l1.07,0m-1.07,0L18.61,32m4.67.14,2.26,0a42.21,42.21,0,0,0,9-.6,32,32,0,0,1,4.55-.16m14.11.31c-3.37,0-9.67-.28-14.11-.31m-15-3.89h-.71c-1.48,0-3.25,0-4.82.06m7.21,0c.83,0,1.75.07,2.73.09m0,0c1,0,2,0,3.09,0m4.84-.4.59-.09m-12.93.34.87,0m0,0,.81,0m5.82.09a41.17,41.17,0,0,0,4.84-.4m11.93-8.63c-6.32.3-11.29.45-14.6-.15a11.87,11.87,0,0,0-4.46.09m0,0c-.64.08-1.4.16-2.38.21-2.86.15-5.65-.3-6.55-.15a12.59,12.59,0,0,1-1.81.06m40.78-5.47a41.51,41.51,0,0,0-7.37.15,51.44,51.44,0,0,1-9.93-.06m-23.48-.12c7.8-.3,20-.36,22.73,0l.75.09M55.21,5.06c-2.93,0-7.4.42-10.26.3a37.07,37.07,0,0,0-9.63.75,54.69,54.69,0,0,1-9.42.27m0,0c-2.45-.08-5-.2-7.29-.3M49.76-.2a30.22,30.22,0,0,0-3.23-.23c-1,0-2.07-.07-3.16-.09M42.19,26.35c1.06-.15,6.14-.16,9.45-.46s10.76.22,16,.37c.69,0,1.43,0,2.18.1M53.37,18.59a71.82,71.82,0,0,1,8.33-.13m1-19c-3.09.41-8.33.52-9.49.52"/><path class="cls-2" d="M36.07,12.2V7m3.45,5.61V6.24m-.63,6.38V6.39M38,12.55V6.24m16.51,13v6.24m-.83-6.16v6.09M42.92,19.66v6.25m-3.16.54V19.36m-8.94,7.49V18.44m5.75,8.14V19m-1.31,8V19.06m2.37,7.67V19.06m-4.17,7.79V19.13m-5.09,7.72V18.79m-1.83,8.06v-8m20.52.87v6.11m-1-6.11V26m-.75-6.18v6.1m-.83-6.25v6.18m-21,1.2V18.86m-1,8.33V18.86m-.75,8.26V18.94M19.3,19v8M21,27v-8.1"/><line class="cls-1" x1="42.09" y1="13.31" x2="42.09" y2="13.27"/><path class="cls-2" d="M25.24,13V6.8M21.88,13V6.8M20.05,13V6.8M38.53,26.53V19.28m13.57.15v6.09m-3.16-5.79v5.64m-8.65-13V6.19m1.8,7.08V6.12"/><line class="cls-1" x1="25.9" y1="6.38" x2="25.9" y2="6.12"/><path class="cls-2" d="M43.07,12.64V5.9m4.14,7V5.82m-1,7V6m-.75,6.86V5.9m-.83,7V5.82m3.64,7.09V6m2.28,7.06V5.78m1.53,7.35V5.93m-18.74,6.9V7m-6.29,5.81V6.9m.78,5.63V6.6m2.33,6.23V6.9m2.21,5.86V7.17m1.86,5.66V7.1M24.34,13V6.8m1.56-.42v6.5"/><path class="cls-2" d="M29.35,18.53V13.31m1.28-.13v5m-3.08.42V13.16m12.36.62v4.89m1.28-5.37v5.37M38.1,13.28v5.47M33,13.63v4.42m-1.54-4.77v4.85m21.76-4.48v4.42m-6,.27v-4.5m4.14-.07v4.65m-1-4.5v4.5m-.73-4.63v4.58m-.85-4.6v4.57M25.18,27.07v-8"/><line class="cls-1" x1="29.35" y1="18.53" x2="29.35" y2="18.55"/><path class="cls-2" d="M26.72-.52V6M21.38-.55V5.89M22.21-.4V6m1.07.08V-.32m.86,6.17V-.69M25,5.85V-.72m.81,6.64V-.74m-5.9-.14V5.89M45.5.18V5.29m-1-5V5.22m1.57-5v5M36.48-.39V5.76M30.36-.36V5.91M31.64-.85V5.91M28.55-.52V6M40.91-.58V5.34M42.19,0V5M39.11-.39v5.8M34-.74v6.5M32.47-.74V5.84m21.76-1.1V.31m-6-.15V5m4.14.07v-5m-1,.15V5.08m-.73-5V5M49.79.09V5m4.42,8.41v5m-28.49.21V13.51m-5.34,4.68V13.13m.82,5.21V13.28m1.08,4.44v-4m.85,4.79V13.33M24,18.49V13.31m.8,5.25V13.28M44.5,18.62V13.86m-1,4.69V14m1.58,4.61V13.93m-9.63-1v5.11"/><path class="cls-2" d="M34,27.72v3.39m-1.55-3.39v3.46m21.76-4.83v4.43m-6,.27V26.2m4.14,4.92v-5m-1,5.08v-5m-.73,4.86V26.15m-.85,4.9V26.13"/><line class="cls-1" x1="39.11" y1="31.36" x2="39.11" y2="31.45"/><path class="cls-2" d="M28.55,32V27.62m12.36,3.76V26.83m1.28-.48V31m-3.08-4v4.33"/><line class="cls-1" x1="28.55" y1="27.62" x2="28.55" y2="27.6"/><line class="cls-2" x1="31.64" y1="31.26" x2="31.64" y2="27.62"/><path class="cls-2" d="M36.48,31.11V27.22m-6.12.53V32"/><line class="cls-1" x1="36.48" y1="27.22" x2="36.48" y2="27.03"/><path class="cls-2" d="M25.82,32V27.53m-5.9,4.4v-4m25.58,3.4V26.22m-1,5V26.37m1.57,5v-5"/><path class="cls-1" d="M25,27.5v-.1m.81.13v-.16"/><path class="cls-2" d="M24.14,27.47v4.42m.87,0V27.5"/><path class="cls-1" d="M23.28,32.16V32.1m.86-4.63v0"/><line class="cls-2" x1="23.28" y1="32.1" x2="23.28" y2="27.8"/><path class="cls-2" d="M26.72,27.6V32m-5.34-.11V27.57m.83,4.51V27.72"/><path class="cls-2" d="M5.15,36.61V30.23m.73,6.17V30.31m.85,6.17v-6.2m.69,6.2V30.16M1.83,36.52V30.44"/><path class="cls-2" d="M10,36.68V30.23m-6.7,6.29V30.08"/><line class="cls-2" x1="11.76" y1="36.7" x2="11.76" y2="30.26"/><path class="cls-2" d="M14.29,36.63V30.14m.8,6.41V30.11m3.16.08v6.06M16.3,30.16V36.4m-8,.21V30.46"/><path class="cls-2" d="M26.72,30.48V37m-5.34-6.55v6.44m.83-6.29V37m1.07.08V30.68m.86,6.17V30.31M25,36.85V30.28m.81,6.64V30.26m-5.9-.14v6.77M45.5,31.18v5.11m-1-5v4.89m1.57-5v5m-9.62-5.68v6.15m-6.12-6.12v6.27m1.28-6.76v6.76m-3.09-6.43V37m12.36-6.57v5.92M42.19,31v5m-3.08-5.38v5.8M34,30.26v6.5m-1.55-6.5v6.58m21.76-1.1V31.31m-6-.15V36m4.14.07v-5m-1,.15v4.84m-.73-5V36m-.85-4.94V36"/></g></svg>