<svg id="Capa_1" data-name="Capa 1" xmlns="http://www.w3.org/2000/svg" xmlns:xlink="http://www.w3.org/1999/xlink" viewBox="0 0 54 43.2"><defs><style>.cls-1,.cls-3{fill:none;}.cls-2{clip-path:url(#clip-path);}.cls-3{stroke:#000;stroke-width:0.3px;}</style><clipPath id="clip-path"><rect id="SVGID" class="cls-1" width="54" height="43.21"/></clipPath></defs><title>717 Granito opción 1</title><polyline id="SVGID-2" data-name="SVGID" class="cls-1" points="0 38.4 0 35.8 5.48 35.8 5.48 43.2 0 43.2 0 42.08"/><g class="cls-2"><path class="cls-3" d="M52.33,40.86l1.13,3.76m-4.63-2.88L44.69,42M38.3,28.47l3.26.75M40.68,41l1.13,3.63m-.13-7.39,4,1.13m-1.5-7.51-2.38,2.5m14.66-3.51-2.76-1.76m1.13,5.65-2.13,2.75M47.45,31.6l3.38.12m-3.51,3.63L49.58,38M14.63,43.59l-1,3.69m7.48-6.52-1.87,3.12m-6.23-4,3.14,1.67m-7-.67,1.13,3.75M5.67,41.77,1.53,42m-3-4.76,4,1.12M1,30.88l-2.38,2.5m31.24,7.9-4,1.17m11.43-4.18L35.24,40.9m-8.9-5.64-2.51,2.63m6.77-2.63.63,3m3.5-6.64,2.76,2.26M30,30.7l2-2.38m-8.4.74,2.51,1.25m-4.75,1.32L19.69,34.3m-1.12-6-2.25,1.5m-3,.4L10.55,28.4m1.13,5.36L9.55,36.52m5.64-1.7,2.69,2M4.29,31.63l3.38.13M4.16,35.39,6.42,38M52.91,15.47l2.38,3.13M3.69,12.26l3.25,1.38M52.28-2.18l1.13,3.75M52.28,5.45l2.51,2M49.27,1.82l-2,3M44.8,9l3.35-1.41M49.39,12l-1,3.63m-1.87,3.63,3.38-.63m1.25,6,3.13-2.12m-7,5.42-1.12-3.5m-4.41-1.55-1.63,3m-.45-8.77,2.88,2m-.69-7.43,1.7,3.23M42.38,4.58,39.37,7m1.26-9,1.12,3.63M9.93,16.64l2.38,3.13M14.65,9.46l-3.13,2.13m7.13,2.6L20,10.66M14.78,16,18,17.39m-3,7.86,1.12-3.13m5.06,3.25-1.76-3m7,3.8L29.13,23m.68-3.93-1.5-3.25m-3.51-3-2.13,2.88m.25-8.39,3.26,2m-9.4-2.88L20.17,6M16.28,1.45,13.65,4.2m6.77-6.76L22,.72M20.89,19.35l3.77,1.08M9.14-2.18l1.13,3.75M9.14,5.45l2.51,2M6.13,1.82l-2,3M1.5,8.08l3.63.13m-1.75,11,3.38-.63m.08,8.31L10,24.78M3.25,26.49,2.12,23m30.1-.76,1.25,3m.23-5,3.63.25m-5-9.26-3.51-.51m8,3.26L34.07,15.6m.76-9,1.75,2.76M30.06,3.45l-1,3.38m-3-4.51L23.17,3.7M29.51-.09,26.2-2.57m7.62,4.14L37.21,2.7"/></g></svg>