<svg id="Capa_1" data-name="Capa 1" xmlns="http://www.w3.org/2000/svg" xmlns:xlink="http://www.w3.org/1999/xlink" viewBox="0 0 54 43.2"><defs><style>.cls-1,.cls-3,.cls-4{fill:none;}.cls-2{clip-path:url(#clip-path);}.cls-3,.cls-4{stroke:#000;}.cls-3{stroke-linecap:round;stroke-width:0.7px;}.cls-4{stroke-width:0.3px;}.cls-5{clip-path:url(#clip-path-2);}</style><clipPath id="clip-path"><rect id="SVGID" class="cls-1" width="6.77" height="43.21"/></clipPath><clipPath id="clip-path-2"><rect id="SVGID-2" data-name="SVGID" class="cls-1" x="6.56" width="47.43" height="43.21"/></clipPath></defs><title>718 Granito 2da opción</title><polyline id="SVGID-3" data-name="SVGID" class="cls-1" points="0 38.4 0 35.8 5.48 35.8 5.48 43.2 0 43.2 0 42.08"/><g class="cls-2"><path class="cls-3" d="M.75,42.9h0m.5-25h0M4,28.12H4m0,7.51H4m-5-22h0M1.76,4.83h0"/><path class="cls-4" d="M6.49,38.23,4.35,40.86M-.28,35.23l.63,3m3.5-6.63,2.76,2.25M-.91,30.66l2-2.38m.22-6.05,1.25,3m.23-5,3.63.25m-5-9.26-3.51-.51m8,3.26L3.17,15.6m.75-9L5.68,9.34M2.92,1.57,6.3,2.7"/></g><g class="cls-5"><path class="cls-3" d="M50-.68h0M44.78,3.83h0M38,5.58h0m6,8.77h0m3.51,13.52h0m3.25,7.76h0M44,41.39h0M20,38.64h0m-4.76-9.77h0m10.78,3h0m14,.5h0M20.47,3.58h0m5.27,9.77h0m3.5-3h0m-.75,9.52h0M21.23,14.1h0m-7,.25h0M18,22.11h0M7.88,11.44h0m5.58-8.36h0m11.27-4h0M30,2.83h0m-17.3,17h0m-5.26-.25h0m4,21.53h0M51,31.13h0m4.26-4.51h0m-6.26-3h0M45.53,35.38h0m-5.26-8h0m-7.52,2.25h0m2,5.51h0m1,5.76h0m-6.27-1.75h0M11.2,24.61h0m-2.13,8h0m16.67-5.23h0m-2.51-5.26h0M36-.18h0m7.52,7.76h0m-9,2h0M36,24.11h0m1.5-6.51h0M48,17.35h0m2-6.26h0m-8,10h0m-3.25-9h0M20,9.84h0"/><path class="cls-4" d="M50.13,28.47l3.26.75M52.52,41l1.12,3.63m-.12-7.39,4,1.13M56,30.85l-2.38,2.5M26.46,43.6l-.94,3.68M33,40.76l-1.86,3.12m-6.24-4L28,41.57m-7-.67,1.13,3.76M17.5,41.77,13.36,42M7,28.5l3.26.75M9.36,41l1.12,3.64m-.12-7.39,4,1.12m-1.51-7.51-2.38,2.5m31.25,7.9-4,1.17M49.2,38.27,47.07,40.9m-8.9-5.64-2.5,2.63m6.76-2.63.63,3m3.51-6.64,2.75,2.26M41.81,30.7l2-2.38m-8.39.74,2.5,1.25m-4.75,1.32L31.53,34.3m-1.13-6-2.25,1.5m-3,.4L22.39,28.4m1.12,5.36-2.13,2.76M27,34.82l2.7,2m-13.6-5.24,3.39.13M16,35.39,18.25,38M15.52,12.26l3.26,1.38m34.76,9.22-1.63,3m-.45-8.77,2.88,2m-.68-7.43,1.69,3.23M54.22,4.58,51.21,7m1.25-9,1.13,3.63M21.77,16.64l2.38,3.13M26.49,9.46l-3.14,2.13m7.14,2.6,1.3-3.53M26.61,16l3.26,1.37m-3.05,7.86L28,22.12M33,25.37l-1.75-3m7,3.8L41,23m.69-3.93-1.51-3.25m-3.5-3-2.13,2.88m.25-8.39,3.25,2M28.62,6.46,32,6M28.12,1.45,25.48,4.2m6.77-6.76L33.84.72M32.73,19.36l3.77,1.07M21-2.18,22.1,1.57M21,5.45l2.51,2M18,1.82l-2,3M13.33,8.08,17,8.21m-1.75,11,3.38-.63m.09,8.31,3.13-2.13m-6.73,1.71L14,23m-5.27-.13-1.62,3M8.32,17.1l2.88,2m-.12-8.85-.37,3.63m.37-9.3L8.07,7m1.25-9,1.13,3.63m33.6,20.66,1.26,3m.22-5,3.64.25m-5-9.26-3.5-.51m8,3.26L45.91,15.6m.75-9,1.75,2.76M41.9,3.45l-1,3.38m-3-4.51L35,3.7M41.35-.09,38-2.57m7.62,4.14L49,2.7"/></g></svg>