<svg id="Capa_1" data-name="Capa 1" xmlns="http://www.w3.org/2000/svg" xmlns:xlink="http://www.w3.org/1999/xlink" viewBox="0 0 54 43.2"><defs><style>.cls-1,.cls-3{fill:none;}.cls-2{clip-path:url(#clip-path);}.cls-3{stroke:#000;stroke-linecap:square;stroke-width:0.3px;}</style><clipPath id="clip-path"><rect class="cls-1" x="-0.03" y="0.08" width="53.94" height="43.07"/></clipPath></defs><title>720 Roca ígnea bandeada</title><g class="cls-2"><path class="cls-3" d="M2.7,30.05.39,27.51M2.7,31.84A23.33,23.33,0,0,1,0,30.34m1.53,11v0m0,0-.17,1.9M.57,39.57h0L0,39.6m1.51,1.74a9.92,9.92,0,0,0,.64.85,8.18,8.18,0,0,0,.55.61M1.51,41.34a11.72,11.72,0,0,1-1-1.77m0,0Q.25,38.92,0,38.19m0-.08,0,.08"/><path class="cls-3" d="M50.18,43c-.2-.48-.06-2.59-.78-6.18m0,0a7.76,7.76,0,0,0-1.82-2.44,12.3,12.3,0,0,0-4.41-2.23L43,32.11m-8.19-4.6c.17.13.44.25.61.38A29.88,29.88,0,0,0,43,32.11m-.3-4.58c.22.07.61.14.84.2m0,0c.22.06.44.11.65.18,6,1.85,6.25,2.89,9.76,9.86"/><path class="cls-3" d="M2.5,30l2.3,2.6M3.16,27.51l4.08,4.62M2.5,31.86a17.24,17.24,0,0,0,3.56,1.23m0,0c.38.08.77.15,1.16.21a17.09,17.09,0,0,1,2.37.25m13.07,8.27q.39.66.75,1.38M14.1,34.8a19.73,19.73,0,0,1,1.83.84m2,1.17a16.42,16.42,0,0,1,4.77,5m-4.77-5-.66-.43c-.43-.27-.86-.51-1.3-.74M14.1,34.8c-.78-.3-1.52-.54-2.22-.74m-2.29-.51a23.44,23.44,0,0,1,2.29.51m42.21-3.61c-1-.79-2-1.66-3-2.45m0,0c-.2-.16-.54-.32-.74-.49M28.5,32.31c3.41,5,8.23,8.19,13.28,10.9M28.5,32.31A23.75,23.75,0,0,1,26,27.66c0-.05,0-.1-.05-.15M50.25,43.09,51,39.87m-1.29,0,4.13-.17M50.2,43l3.92-.16M0,42.82l2.39-.1m51.37-4.95-4.12.42m4.42.06-4.32,0,.06-1.94,3.25.18M50.89,34.8l1.28.1M49.4,36.84l0,0m0,0,2.25-3.34m-2.9,2.18,2-3.62m-1.73-.52L47.58,34.4l0,0m-.81-2.76-.88,1.57M43,31.86l7.41-.44m-7.6-.88,5.59-.75m-2.45-1.32-3.38.38h0M43,32.11h0m-.61-4.6.18,1.34M43,32.11l-.43-3.26m8,14.22,3.17-3.22M41.35,31.42l-.88-3.91m-.69,3.09-.9-3.09m-1.23,1.84-.55-1.84m-1,15.39,3.22-.82m-8.53-3.55h-.1m.1,0,3-.32m-3.85,2.42,5.69-1m-4.51,3.2L36,41.89m-6.68-.07,2.49-5.53m-4.26,3.34,2.42-5.27m-7.27,7.46h0m6.05-.25-6.05.25M21,39.38l6.13-.25M19.73,34.2,26.67,36m-.25-7.27-.67,5.1M10.9,27.53l.8,1.07m12,4.54v0m0,0,.64-5.63m-15.78,0,1.67,2.13M6,27.51l2.93,3.3M20.94,27.5l1,.76M21.82,30,17.6,27.53m-1.67,8.11h0m0,0,3.46-4.45M14.1,34.8l3.62-4.36M14.1,34.8l0,0m2-5.22-4.17,4.46,0,0M9.54,33.6l.05-.05m4.7-4.87-4.7,4.87m12.06-1.28,2.08.87m-2.08-.87.43-4.76m5.31,7.15,0,0m0,0-3.66-1.52m4.77-.83v0m-1.12,2.39-1.3,2.8m1.3-2.8,1.11-2.35m0,8.93,0,0M17.89,36.81l8.2.65m5.27,5.69-2.89-1.91M17.89,36.81h-.06m10.64,4.43-2.38-3.78M36,43.36,36,40M17.23,36.38l4.42-4.11-9-4.41m4.58,8.52-.05,0m-4.53-8.56h0m0,0L6.06,33.09m6.59-5.23.48-.33M6,33.11l0,0"/><path class="cls-3" d="M1.38,18.7v4.7m0-5.26V16.45M2.7,24.59,1.38,23.4m0-4.7v-.56M2,23.78l.75-2.06M1.51,20.18l1.19-.62M1.38,18.14l1.32-.63M0,21.33h1.3M0,18.72l1.38,0M0,23.29l1.43.11M.45,27.66l-.53-.57m2.78-.17-.5-.57L0,23.93M0,7.69a8,8,0,0,1,2.17.64c.18.09.37.22.56.32M0,8.61l1-.69M0,8.61m0,2.33L2.7,9.15M0,10.94m0,1.94L2.7,11M-.08,12.88,0,15.07,2.7,13.4,0,15.07m-.07,1.49,1.45-.11m-1.45.11,2.77-.88-1.32.77"/><path class="cls-3" d="M4.9,26.6l-2.4-2m0-2.83,1-2.65M3.4,25.22l2.07-5.45m1.32,1.88L5.28,26.22m-.63-7.77L2.5,19.57M3.65,17l-1.15.54m40.35,3.78h-.06m.06,0,11.22.06M41,18.89l13.09-.17m-6.63,6.44-.13-2.38m2.07.18L49.63,27M51,23l3.08.26m-9.77-.81h0m0,0L51,23m-2.11-6-6.15.52m-1.5.13-.51,2.13m.51-2.13,1.5-.13M48.88,17l3.22-.27M2.5,26.94l.65.73M6.47,25l.8,1,1.31,1.68M5,26.6l1,1.07m48.15-.76L51,23M51,23,51,23m3.09.68-.37-.41M20.15,27,20.84,25M19,25l3.3-.08m-1.73-2.61,2.51.31m-4.58,3.07L21.34,21m-6.71,5.51H10.11M8.78,24.59,17.7,24m-8.92.62h0m7.65-2.51s-7.46.62-7.65.62M14.31,21l-3.89.32M8,17.2,5.66,19.64M9.28,18v0m0,0L6.41,20.9m.88,1.44L10.61,19M17,22.21,18.27,19m-2.95,2.51h0m0,0,1.44-3.13m-1.44-.76-1.7,3.08M9,15.38l3.95,2.95M9.28,18l2.78,1.92m0,0,1.88-3.07m-6.59-.19L9.28,18M8.17,15.88l-4.45.25h0m.06-1.38L8.92,14m-5.15-.81,3.08-.69M3.77,11.37l1.57-.25m4.52,3.51-5,3.88M5,26.6l2.92-3.26M3.71,17l4.2,6.39M3.71,17v-.82m0-3.49,0-3.15m0,3.15,0,3.49M17.3,24.87l2.41-5.1M2.5,8.64a12.56,12.56,0,0,1,1.59,1,22.82,22.82,0,0,0,7.46,5.89C16.7,18.26,18,18.83,18,18.83c3,1.24,5.71,3.21,8,8.84M23.6.14c6,6.69,4.67,15,15.3,18.94a15,15,0,0,1,4,2.19c.49.37,1,.77,1.49,1.2,1.73,1.45,3.56,3.17,5.53,4.82.12.09.38.25.57.37M41.87,0c-1.53,5.79-.48,6.83,4.25,7.69,3.48.63,5.56-.23,7.89,0M29.18,15.94h0m0,0,.31,3.69m-2.07,1.57v-.06l-.25-7.75m0,0v0m-2.38-1.91.5,7.28M22.66,13,23,16.13m2.39-5.07L21.3,13.92m0,0,0,0M23.6,9.8l-3.51,2.45m0,0h0m-1.41-2.1,0,0m2.19-1.5h0m0,0-2.15,1.47m6.2.08h0M17.54,7.43l3.29,1.25m4.05,1.55L20.83,8.68M17.51,7.42h0m0,1.49.14-3.79m-.1,2.3M31.69,24.91l-3-4.33m4.71,3.58-3.58-4.89m1-1.29,0,0m0,0-3.05,3.61M32,19.2l3,4.27m.94-.38L31.44,25m1.32,1.13,3.57-1.31m-1.88,2.5,2.26-.81m5.62.93h0m0,0,0,.19M40.2,26.32v0m0,0,.29,1.35m-2.32-2.75,0,.25.7,2.5m-.74-2.75,0-.07m-2-1.57.26,1.89.71,2.49M40,16.38l-5.9.07m4.33-1.88-6.58-.44M37,13.06l-6.77-1.31m14.3-4.39,2.26,3.82m-5-4.32,3,4.82m5.71,3.07.13,2.07m-1.82-4.39,5.23-3.69M2.5,9.16l.36-.24m.75,6.15-1.11.62m1.17-5.51L2.5,11M4,12.52l-.2.12-1.25.77m47.4.39h0m0,0L54,11.11m-3.08,4L54.1,13m-5.22,4v0l-.5-5.18m-2.07-.38.56,5.71m-2.13.12-.19-5.2M40.47,16.7l2.38-1.63h0m-3.77.12,3.7-3m-1-1.81-4.07,3.38h0M41,9.05,36.4,12.18M38,9.11l.25-4.76m-1.88-.56L36,10.43m-1.38-7-.44,7.27m-3.71-.69.45-6.58m-1.76.06v.06l-.43,5.15M31.49.33,24.23.65m7.84.82-6.71.75m6.71-.75h0m6.48.87,3.18-2M38.65,4.79l2.58-2M39.72,6.69l1.59-1.51m-3-2.33L37.62,0M35.54,0l.75,3.59M33.45,0l.92,3.4M18.2,22.84l-2.88-1.38M8.78,24.59l-.87-1.25m4.15-3.45,1.56.76m1.7.81-1.7-.81M7.91,23.34l4.15-3.45m-1.15,7.78L9.78,26l-1-1.45m8.9,3.07L15.21,26.2m9.15,1.46.3-2.71H22.32l-.26,2.71M17.3,24.87,21,27.66M17.3,24.87l-3.05,1.92-1.17.88m41-12.44L52,16.53M47.83,7.94l-.08,3m4.39-3.22L47.75,11m-10,2.8,3.51,3.89-3.64.87m.13-4.76L35.2,11m16.9,5.77,2-.15M47.75,11,43,12.37M47.75,11,49.9,13.8m0,0,2.2,2.92M32.78,3.26l-3.67.33m3.67-.33-.4,7.17M29.11,3.59l-2,.17M40.38,8h0l1.92-1.5M40.38,8,35.2,11m0,0-6-1.08M39.31,0,38,3.85m0,0-5.18-.59m0,0-.71-1.79M40.38,8,43,12.37l-.13,2.7M40.38,8,38,3.85M32.07,1.47,31.48,0M42.73,17.55v0l.12-2.44m-4.68,9.85a23.89,23.89,0,0,0,2,1.4M24.88,10.23c.71,1,1.48,2.1,2.29,3.17m2,2.55c.56.68,1.14,1.36,1.73,2m-1.73-2q-1-1.27-2-2.55M30.91,18a52,52,0,0,0,7.26,6.94m4.16,2.56-.73-.38c-.46-.23-.93-.49-1.4-.78M3.2.08a14.65,14.65,0,0,0,7.86,2.78c5.1.43,12.61,5.59,13.82,7.37M42.77,27.66l-.44-.18M18.68,10.15C17.37,8.1,9.26,5.86,9.07,5.79,7.33,5.19,1.21,4,.1,2.86m20,9.39c.39.56.8,1.11,1.21,1.67m6.12,7.23a85.2,85.2,0,0,1-6.12-7.23m-2.62-3.77q.66,1,1.41,2.1m7.33,8.9a44.63,44.63,0,0,0,6.78,6.08l.36.24c.08.06.21.13.31.19"/><line class="cls-3" x1="15.8" y1="8.16" x2="15.94" y2="4.37"/><line class="cls-3" x1="14.35" y1="7.43" x2="14.49" y2="3.64"/><line class="cls-3" x1="12.83" y1="6.91" x2="12.98" y2="3.12"/><line class="cls-3" x1="11.11" y1="6.22" x2="11.63" y2="3"/><line class="cls-3" x1="0.56" y1="3.25" x2="1.08" y2="0.03"/><line class="cls-3" x1="2.56" y1="3.93" x2="3.07" y2="0.27"/><line class="cls-3" x1="9.26" y1="4.61" x2="11.67" y2="3.05"/><line class="cls-3" x1="10.49" y1="6.12" x2="6.61" y2="1.96"/><line class="cls-3" x1="7.17" y1="5.22" x2="3.15" y2="0.2"/><line class="cls-3" x1="54.02" y1="2.62" x2="50.17" y2="0.08"/></g></svg>