<svg id="Capa_1" data-name="Capa 1" xmlns="http://www.w3.org/2000/svg" xmlns:xlink="http://www.w3.org/1999/xlink" viewBox="0 0 54 43.2"><defs><style>.cls-1,.cls-3{fill:none;}.cls-2{clip-path:url(#clip-path);}.cls-3{stroke:#000;stroke-width:0.3px;}.cls-4{clip-path:url(#clip-path-2);}</style><clipPath id="clip-path"><rect id="SVGID" class="cls-1" width="47" height="43.21"/></clipPath><clipPath id="clip-path-2"><rect id="SVGID-2" data-name="SVGID" class="cls-1" x="46.8" width="7.2" height="43.21"/></clipPath></defs><title>720 Roca ígnea 1ra opción</title><polyline id="SVGID-3" data-name="SVGID" class="cls-1" points="0 38.4 0 35.8 5.48 35.8 5.48 43.2 0 43.2 0 42.08"/><g class="cls-2"><path class="cls-3" d="M23.47,43.77v3M10,43.77v3m20.14-9.64v3m-1.38-1.5h2.82m12-1.5v3m-1.38-1.5H45M16.67,37.07v3m-1.38-1.5h2.82M3.19,37.14v3m-1.38-1.5H4.63m18.84-8.37v3m-1.38-1.5h2.82m12-14.84v3m-1.38-1.51h2.82m-14.91-1.5v3m-1.38-1.51H24.9M10,16.93v3M8.65,18.43h2.82M10,30.27v3m-1.38-1.5h2.82m25.41-1.43v3m-1.38-1.5h2.82m-8.15-8.22v3m-1.38-1.51h2.82m12-1.5v3m-1.38-1.51H45M16.67,23.57v3m-1.38-1.5h2.82M23.47,3.45v3M22.09,5h2.82M10,3.45v3M8.65,5h2.82M36.88,3.52v3M35.5,5h2.82M30.17-3.19v3m13.43-3v3m0,10.34v3m-1.38-1.5H45m-14.9-1.5v3m-1.37-1.5h2.82m-14.92-1.5v3m-1.38-1.5h2.82M16.67-3.25v3M3.19,23.63v3M1.81,25.13H4.63M3.19-3.19v3m0,10.34v3m-1.38-1.5H4.63"/></g><g class="cls-4"><path class="cls-3" d="M50.18,43.77v3m0-29.85v3M48.8,18.43h2.82M50.18,30.27v3m-1.38-1.5h2.82M50.18,3.45v3M48.8,5h2.82"/></g></svg>