<svg id="Capa_1" data-name="Capa 1" xmlns="http://www.w3.org/2000/svg" xmlns:xlink="http://www.w3.org/1999/xlink" viewBox="0 0 54 43.2"><defs><style>.cls-1,.cls-3{fill:none;}.cls-2{clip-path:url(#clip-path);}.cls-3{stroke:#000;stroke-width:0.3px;}</style><clipPath id="clip-path"><rect id="SVGID" class="cls-1" width="53.56" height="43.21"/></clipPath></defs><title>721 Roca ígnea 2da opción</title><polyline id="SVGID-2" data-name="SVGID" class="cls-1" points="0 38.4 0 35.8 5.48 35.8 5.48 43.2 0 43.2 0 42.08"/><g class="cls-2"><path class="cls-3" d="M50.08,39l-2,.16.75-1.88M22.92,14.39l-2,.16.75-1.88M41.94,5.72l-2,.16L40.68,4M3.85,32.18l-2,.16.76-1.88M41.37,43.65l.68,1.9-2-.23M49.71,1.49l-1.88.75.17-2M14.66,32.74l1.39-1.47.69,1.9M34.25,13l.53-2,1.51,1.35M8.17-.95,9.7-2.27l.51,2m5.28,19.56L17,17.92l.5,2M28.06,32.35,29.59,31l.5,2M11,38.56l1.52-1.32.51,2M52.26,28l-1.18-1.64,2-.33M17.41,5.12l-1.6,1.24-.4-2M24,36.31l-1.6,1.24-.4-2M49.82,11l-1.59,1.24-.4-2m-45,30.22.05,2-1.83-.85M9.11,26l1.11-1.69,1,1.75M4.31,18.73l-2-.42,1.26-1.59M21.68,23.9l.24,2L20,25.23M36.55,23.5l.24,2-1.9-.68m.83,9.84.24,2L34.05,36m9.87-18.44.24,2-1.91-.69M27.86,4.3l1.76,1L27.94,6.43M2.39,4,4.15,5,2.46,6.1M42,30.27l1,1.75-2,.13M30.55,17.69l1,1.75-2,.13M10.63,11l.28,2L9,12.35M39.81,9.68,38.24,8.57m6.59,5.53L43,14.2M15.42,11.8l-1.87.39m4,13.76-1.87.1M11,22l-1.73-.74m8.85-6.49-1.24,1.53M7.12,10.65,5.35,10M20.42,2.87l-.83,1.78m-6.8,1.16L12,7.59m7.47,3L17.91,9.44M7.27,2.1,5.89.85m5.2,3.51H9.21M18.44,0l2-.38M7.21,6.22,5.89,7.68m9.26-6.32L13.84,2.83M51.77,31.55,49.9,32m2.52-19.52-1.88.39M48.52,27,47,25.93m-2.5-1.06-1.88.1M47,28.64l-1.24,1.53M48,21.09l-1.23,1.53m5.63-3.82-1.88.1m-1.68-2.8-1-1.63m-2.92-3.56-1.77-.63m6.6-2.43-.83,1.78m4.29-2.51-1.5-1.19M45,2.36,43.62,1.11m5.2,3.51H46.94m-2,1.85L43.62,7.93M53.29,1.8,52,3.26m-29.4,2,2.07.44m7,4L30.27,8.5m1.49-7.17-.94,1.84M5.38,35.68l-1.77-.63m23.83,2.79-1.91-.21M40.76,27.29l-1.59,1M21.76,39.69l-1.59,1M21.51,32l.88,1.76m-5,2.9-1-1.62m-5.5-3.64-.45-1.82m27.9-14.44,1.36-1.35m11.14,8.38,1.37,1.41M39,38.63l2.07.44M46.62,34l1.94.81m-3.82,7.33-1.38-1.25m1.38-4.53-.94,1.83M27.14,0,25.83,1.44M53.12,35.38l-1.78,1.13m-16.68-31,2.07.44M20.24,18.47l2.07.44m5.51-5.08,1.95.82M42.05,34.49l-1.87.39M34.1,31.67l-1.88.39m-7,10.67-.48-1.82m5.18-1.38-1.23,1.53M37,42.2l-1-1.62m-2.65-2.17-1.88.1m6.29-7.36-1.24,1.53m-6.72,3-1-1.63M25.8,30.52,24,29.89m18.36-8.32-.83,1.78M30.63,27.46l-.83,1.78m5.42-1.44-1.51-1.19M25.94,22l-1.37-1.25m1.37-4.53L25,18m4.77,6.2H27.89m9.23-4.38,2-.38m-19.24,9L18.6,29.88m7.28-3.79-1.31,1.46m8.89-6.91L32.15,22.1m1.38-5.7,1.25,1.69m-7.89-6.84.18-1.9m-7.7,14.18.18-1.91M36.67,2l-1-1.58M13.4,27.16l1.25,1.7m.58,11.5,1.95.82m33.17.42L51.74,43m-31.14.66,0,2.1M7.41,32.22l-1.88.39m4.38,9.81L8.35,41.31M6.61,39l-1.88.1m5.91-4.38L9.41,36.21M1.33,37.55l-1-1.62m14.17-14-.83,1.78M4.78,26.23,3.94,28m4.59.34L7,27.16M3.08,24.78H1.2m1.88-3,2.05-.38m2.51-4.19L8.89,18.9M21.63,8.75l1.94.81M6.62,12.86,5.38,14.39M-.18,3.24l-1-1.59M12.32,15.43l.08,2M2.29,11.67l.08,2M.57,10l-1.88-.37"/></g></svg>