<svg id="Capa_1" data-name="Capa 1" xmlns="http://www.w3.org/2000/svg" viewBox="0 0 54.09 45.83"><defs><style>.cls-1{fill:none;stroke:#000;stroke-width:0.3px;}</style></defs><title>724 Roca ígnea 4ta</title><path class="cls-1" d="M24.26,25.58l-2,.16L23,23.87M4.48,45l-2-.13,1-1.75M10.79,37l.69,1.9-2-.23m6.08-8.45.69,1.9-2-.23M8.43-.47,9-2.42l1.51,1.35M2.25,17.47l1.52-1.32.51,2M14.85,44.89l1.53-1.33.5,2m8.84-7.47-2,.29.64-1.92m2.09-21.84-1.18-1.65,2-.32m-22.82,20-1.73-1,1.71-1.08m6.32-20.47.24,2-1.91-.68m.84,9.84.24,2-1.91-.68M18.11,4.11l.24,2-1.91-.68m-.21,11.39,1,1.75-2,.13M4.74,4.24,5.75,6l-2,.13"/><path class="cls-1" d="M44.67,31.26l.69,1.9-2-.23M29.11,4.07l2,0-.88,1.82m5.87-7.8,2,0L37.27-.15m-.8,24.37,1.93.59L37,26.28m11.8-.44.54-1.95,1.5,1.34m-1.42,13,2-.36-.57,1.94M45,44.91l-1.73-1L45,42.78m-6.71-4.61-2-.49,1.31-1.54m-7.47-6.69-.1,2-1.76-1m23.85-19.1-1.6,1.24-.4-2m-13.45.07,1.69,1.1-1.74,1m7.41-7.08,1.67-1.15.29,2M31.31,21l-1.85-.82L31,18.85M31.31,45l-1.85-.82L31,42.85M44.68,18.13l.24,2L43,19.45"/></svg>