<svg id="Capa_1" data-name="Capa 1" xmlns="http://www.w3.org/2000/svg" xmlns:xlink="http://www.w3.org/1999/xlink" viewBox="0 0 54 43.2"><defs><style>.cls-1,.cls-3,.cls-4{fill:none;}.cls-2{clip-path:url(#clip-path);}.cls-3,.cls-4{stroke:#000;}.cls-3{stroke-width:0.3px;}.cls-4{stroke-linecap:round;stroke-width:0.6px;}.cls-5{clip-path:url(#clip-path-2);}</style><clipPath id="clip-path"><rect id="SVGID" class="cls-1" width="34.25" height="43.2"/></clipPath><clipPath id="clip-path-2"><rect id="SVGID-2" data-name="SVGID" class="cls-1" x="34.04" width="19.95" height="43.2"/></clipPath></defs><title>725 Roca ígnea 5ta</title><polyline id="SVGID-3" data-name="SVGID" class="cls-1" points="0 38.4 0 35.8 5.48 35.8 5.48 43.2 0 43.2 0 42.08"/><g class="cls-2"><path class="cls-3" d="M31.23,24l-2,2m0-2,2,2m0,11.31-2,2m0-2,2,2m-6.58-8.66-2,2m0-2,2,2M17.88,24l-2,2m0-2,2,2m0,11.31-2,2m0-2,2,2m-6.57-8.66-2,2m0-2,2,2M4.52,24l-2,2m0-2,2,2m0,11.31-2,2m0-2,2,2m26.71-42-2,2m0-2,2,2m0,11.31-2,2m0-2,2,2M24.65,4.13l-2,2m0-2,2,2M17.88-2.58l-2,2m0-2,2,2m6.77,18-2,2m0-2,2,2m-6.77-8.73-2,2m0-2,2,2M11.31,4.13l-2,2m0-2,2,2m0,11.31-2,2m0-2,2,2M4.52-2.58l-2,2m0-2,2,2m0,11.31-2,2m0-2,2,2"/><path class="cls-4" d="M19.23,40.21h0M32.08,37.7h0m-1.5,4.2h0m-13.85.69h0m5.89-.11h0m4,.3h0m-2.72-4h0m4.1-.69h0m-6.77-1.81h0M13,41.52h0m-.38-5h0m-1.71,2.32h0m6-2.36h0m1.88-9.35h0m-4.38,2.71h0m6.51-6.19h0M26,26.08h0m2.26,2.75h0m-5,.25h0m-4.13,1.3h0m1,2.71h0m11.66-3.94h0m-5.89,2.73h0M29.64,35h0m-3.83.23h0m-3.74-9.4h0M4,41H4m1.87,2.88h0m9.74-22.79h0m3.92,22.54h0m14.2-10.41h0m-33-7.5h0M.44,41.92h0M8,41.17H8M3.32,28.52h0M6.7,31.15h0m6.35,2.09h0m-2.67-9.11h0M9.46,35.66h0m-3.38-.88h0m-.51,3.51h0M2.82,35.78h0M.44,32.9h0M-.7,29.27h0m33.8-5.72h0M4,21H4m5,0H9m16,1.5h0m3.84-1.17h0M14.56,26.56h0M6.2,26.39h0m3.51,2.34h0M19.23,4h0m12.85,2.5h0m-1.5-4.19h0M16.73,1.59h0m5.89.11h0m4-.3h0m-3.39,9.75h0M28,6h0M21.24,7.85h0M13,2.65h0m-.38,5h0m2.8-3.06h0m1.46,3.11h0m1.88,9.35h0m-4.38-2.72h0m6.51,6.2h0M26,18.1h0m2.26-2.75h0m-5-.25h0m-4.13-1.3h0m1-2.71h0M31.77,15h0M25.88,12.3h0m3.76-3.09h0M25.81,9h0M.69,6.39h0M4,3.14H4M5.82.26h0M9.58-.87h0M19.48.51h0M33.39-.25h0m.29,11.17h0m-33,7.5h0M.31-1.17h0M.44,2.26h0M8,3H8M3.32,15.66h0M6.7,13h0m6.35-2.09h0m-3.67,1h0m.08-3.42h0M6.08,9.4h0M5.57,5.89h0M2.82,8.39h0M.44,11.28h0M-.7,14.91h0m33.8,5.72h0M29.93,18h0m-15.37-.33h0m-8.36.17h0m3.51-2.34h0"/></g><g class="cls-5"><path class="cls-3" d="M38.46,30.74l-2,2m0-2,2,2m13.35-2-2,2m0-2,2,2M45,24l-2,2m0-2,2,2m0,11.31-2,2m0-2,2,2M38.46,4.13l-2,2m0-2,2,2m13.35-2-2,2m0-2,2,2M45-2.58l-2,2m0-2,2,2m-6.58,18-2,2m0-2,2,2m13.35-2-2,2m0-2,2,2M45,10.76l-2,2m0-2,2,2"/><path class="cls-4" d="M44.49,31.65h0M35.13,20.79h0m3.34,3h0m3.18-2h0m12.86,4.26h0m-.46,6.47h0m-5.89,7.12h0M35.32,37.14h0m1.5,4.2h0M50.67,42h0m-5.89-.1h0m-4,.29h0M35.63,26.3h0m3.76,11.28h0m6.77-1.82h0M54.43,41h0m.37-5h0m-4.26,0h0m0-10.11h0M47,26.39h0m4.93,2.88h0m-4.59-6.14h0M41.4,25.51h0m-2.26,2.76h0m5,.25h0m4.14,1.29h0m-1,2.72h0M52.34,22h0M41.52,31.32h0m-3.76,3.09h0m3.82.23h0m10.59,3.94h0m2.34-20.46h0m-.46-6.47h0M42.9,6h0m5.26-1.51h0M35.32,7h0m1.5-4.2h0m13.85-.69h0m-5.89.11h0m-4-.29h0M38.14-1h0M39.39,6.6h0m6.77,1.82h0m7.89-9.59h0m.38,4.39h0m.37,5h0m-4.26,0h0m.25,3.34h0M47,17.79h0m4.93-2.88h0M45.28,20h0M41.4,18.67h0m-2.26-2.76h0m5-.25h0m4.14-1.3h0m-1-2.71h0M36.88,12.92h0m4.64-.06h0M37.76,9.77h0m3.82-.23h0M48.66-.12h0"/></g></svg>