<svg id="Capa_1" data-name="Capa 1" xmlns="http://www.w3.org/2000/svg" xmlns:xlink="http://www.w3.org/1999/xlink" viewBox="0 0 54 43.2"><defs><style>.cls-1,.cls-3,.cls-4{fill:none;}.cls-2{clip-path:url(#clip-path);}.cls-3,.cls-4{stroke:#000;}.cls-3{stroke-linecap:round;stroke-width:0.6px;}.cls-4{stroke-width:0.3px;}.cls-5{clip-path:url(#clip-path-2);}</style><clipPath id="clip-path"><rect id="SVGID" class="cls-1" width="47.03" height="43.2"/></clipPath><clipPath id="clip-path-2"><rect id="SVGID-2" data-name="SVGID" class="cls-1" x="46.83" width="7.17" height="43.2"/></clipPath></defs><title>726 Roca ígnea 7ma</title><polyline id="SVGID-3" data-name="SVGID" class="cls-1" points="0 38.4 0 35.8 5.48 35.8 5.48 43.2 0 43.2 0 42.08"/><g class="cls-2"><path class="cls-3" d="M33.4,40.73h0m11.46-3h0m-1.5,4.2h0m-13.85.69h0M36.4,42h0m3,.8h0m-1.63-3.93h0m4.43-7.37h0M34,36.33h0m-8.27,5.19h0m.88-4.67h0m-3,2h0m5.85-4.68h0m2-7h0m-4.39,2.71h0m6.52-6.19h0m5.14,2.44h0M41,28.83h0m-5,.25h0m-5.18,1.07h0m2,2.94h0m11.66-3.94h0m-5.89,2.73h0M42.42,35h0m-3.82.23h0m-3.74-9.4h0M11.47,38.49h0M16.73,41h0M28.34,21.13h0m3.93,22.54h0m-21.14-22h0M46.46,33.26h0M3.11,33h0M7.2,39.65h0M9.71,42h0m-5.89-.1h0m-4,.29h0M13.47,25.76h0M-.73,37.41h0M5.2,35.76h0m8,6.16h0m7.52-.75h0M15.82,29.09h0m3.67,2.06h0m6.35,2.09h0M25,24.1h0m-3.54.32h0m.78,11.24h0m-3.38-.88h0m-.5,3.51h0m-4.55-3.47h0m.66-2.67h0M9.58,35.91h0M9.8,25.47h0M7.33,26.83h0m4.76,2.44h0m-6-6.14h0M-.94,24.7h0m4.13,3.82h0m4.14,1.29h0m-1,2.72h0m39.57-9h0M-.06,22h0m16.41-2h0m5.48,1h0m16,1.5h0m3.84-1.17h0M27.34,26.56h0m-8.92-.17h0m4.07,2.34h0M.56,31.32h0m.06,3.32h0M7.7,44.3h0M32,4h0m12.84,2.5h0m-1.5-4.19h0M29.51,1.59h0m5.89.11h0m4-.3h0M36,11.15h0M40.79,6h0M34,7.85h0m-8.27-5.2h0m-.37,5h0M28.17,4.6h0m1.47,3.11h0m1.88,9.35h0m-4.39-2.72h0m6.52,6.2h0M40,18.31h0m2.13-2h0M36,15.1h0m-4.14-1.3h0m1-2.71h0M44.55,15h0M39,13.93h0m3.38-4.72h0M38.6,9h0M13.47,6.39h0m3.26-3.25h0M18.61.26h0M22.37-.87h0M32.27.51h0M46.18-.25h0m.28,11.17h0M2.78,5.76h0M7.2,4.53h0M9.71,2.15h0m-5.89.11h0M-.19,2h0M13.47,18.42h0M-.73,6.77h0M5.2,8.42h0m7.89-9.59h0m.13,3.43h0M20.74,3h0M16.1,15.66h0M19.49,13h0m5.64-.73h0m-2.89-.75h0m-.62-3.76h0M18.86,9.4h0m-.5-3.51h0M15.6,8.39h0m-3,2.53h0m-3-2.65h0m.88,4.28h0M6.29,17.79h0m4.93-1.36h0M4.32,20h0M.43,18.67h0m2.76-3h0m4.14-1.3h0m-.12-3.31h0m37.71,8.26h0M27.34,17.62h0M19,17.79h0m3.51-2.34h0M.56,12.86h0M.62,9.54h0M7.7-.12h0"/><path class="cls-4" d="M35.11,16.61l2.47,2.59m-3.49-1.57,2.31,2.56M29.37,10l1.17,3.38M28,10.47l1,3.28M9.19,34.49,9,30.93m1.64,3.45-.11-3.45m10.24.68L24,30.1m-2.6,2.8,3.16-1.37m9.69-.82,2.88,2.12m-3.7-.93L36.15,34m4.36-7.84,2.67-2.38m-1.69,3.43L44.13,25m-15-2.32,2.09,2.89m-3.24-2L30,26.4M13.75,22.85l3.51.64m-3.74.78,3.37.71M1.51,24.42l3.57.15m-3.6,1.29,3.44.24m6.41,16.66,2,3M10.15,43.6,12,46.5m1.8-10,3.55.38m-3.67,1.06,3.42.46m24.51-.49,1.31,3.32m-2.64-2.77,1.18,3.24m-13-2.55L31,36.63m-1.55,3.49L32,37.8m-8.45,4.59,1.11,3.4m-2.47-2.91,1,3.3M1,37.9l3.56.39M.85,39.34l3.42.46M7.68,21.26,9,17.92M9,21.74l1.31-3.19m10.93,1.32,1.66-3.16m-.37,3.8,1.69-3M4.74,9.81l-.18,3.57M3.3,9.77,3,13.21m12.62-1.4,2.66,2.38m-3.6-1.29,2.51,2.37M11.59,3.74l-1,3.43m-.39-3.8L9.13,6.64m12.51-2.1,3.49.76M21.36,6l3.35.82m-8.5-9.07.49,3.53m-1.91-3.3.38,3.42m14-4.53.5,3.54M27.76-2.94,28.14.49M44.55,11.83,41.79,14.1m1.81-3.36-2.71,2.12M36.2,4.28l2.07,2.91M35.05,5.14,37,8M43.06-3.43,42.57.11m-.94-3.7-.56,3.4"/></g><g class="cls-5"><path class="cls-3" d="M48,16.81h0m3.22,7h0m3.17-2h0M48.1,37.14h0m1.51,4.2h0m3.94.87h0M48.42,26.3h0m3.75,11.28h0m2-12.07h0m-2.26,2.76h0m2.38,3.05h0m-3.75,3.09h0m3.82.23h0M48.1,7h0m1.82-5.26h0M53.55,2h0M52.17,6.6h0m2,12.07h0m-2.26-2.76h0m-2.25-3h0m4.63-.06h0M50.55,9.77h0m3.82-.23h0"/></g><path class="cls-4" d="M47.81,29.65l3.49.76m-3.76.66,3.35.82M48.1,21.62l2.18-2.83m-1,3.68,2.18-2.67m1-15.95-3,1.94m2.18-3.13-2.94,1.8"/></svg>