<svg id="Capa_1" data-name="Capa 1" xmlns="http://www.w3.org/2000/svg" xmlns:xlink="http://www.w3.org/1999/xlink" viewBox="0 0 54 43.2"><defs><style>.cls-1,.cls-3{fill:none;}.cls-2{clip-path:url(#clip-path);}.cls-3{stroke:#000;stroke-width:0.3px;}.cls-4{clip-path:url(#clip-path-2);}</style><clipPath id="clip-path"><rect id="SVGID" class="cls-1" width="31.48" height="43.2"/></clipPath><clipPath id="clip-path-2"><rect id="SVGID-2" data-name="SVGID" class="cls-1" x="31.28" width="22.72" height="43.2"/></clipPath></defs><title>727 Roca ígnea 8va</title><polyline id="SVGID-3" data-name="SVGID" class="cls-1" points="0 38.4 0 35.8 5.48 35.8 5.48 43.2 0 43.2 0 42.08"/><g class="cls-2"><path class="cls-3" d="M4.34,43.32l1.94,2m-4.05,2,5.34-5.26m18.07,1.27,1.94,2m-4,2,5.34-5.26M14.94,43.32l2,2m-4.06,2,5.35-5.26M3.46,33.74,5.4,35.68M2.23,36.79l5.34-5.26m17.19,2.21,1.94,1.94M25.64,32.8l1.94,2m-4,2,5.34-5.26m-14.8,2.21L16,35.68M14.94,32.8l2,2m-4.06,2,5.35-5.26M3.46,12.41,5.4,14.35M2.23,15.46,7.57,10.2m17.19,2.21,1.94,1.94m-1.06-2.88,1.94,2m-4,2,5.34-5.26m-14.8,2.21L16,14.35m-1.07-2.88,2,2m-4.06,2,5.35-5.26M3.46,23.05,5.4,25M2.23,26.1l5.34-5.26m17.19,2.21L26.7,25m-1.06-2.88,1.94,2m-4,2,5.34-5.26m-14.8,2.21L16,25m-1.07-2.88,2,2m-4.06,2,5.35-5.26M3.46,1.64,5.4,3.58M2.23,4.69,7.57-.57M24.76,1.64,26.7,3.58M25.64.7l1.94,2m-4,2L28.87-.57M14.07,1.64,16,3.58M14.94.7l2,2m-4.06,2L18.18-.57"/></g><g class="cls-4"><path class="cls-3" d="M36.08,43.32l1.94,2m-4.05,2,5.35-5.26m7.41,1.27,2,2m-4.06,2L50,42.05M35.21,33.74l1.94,1.94M36.08,32.8l1.94,2m-4.05,2,5.35-5.26m6.54,2.21,1.94,1.94M46.73,32.8l2,2m-4.06,2L50,31.53M35.21,12.41l1.94,1.94m-1.07-2.88,1.94,2m-4.05,2,5.35-5.26m6.54,2.21,1.94,1.94m-1.07-2.88,2,2m-4.06,2L50,10.2M35.21,23.05,37.15,25m-1.07-2.88,1.94,2M34,26.1l5.35-5.26m6.54,2.21L47.8,25m-1.07-2.88,2,2m-4.06,2L50,20.84M35.21,1.64l1.94,1.94M36.08.7l1.94,2M34,4.69,39.32-.57m6.54,2.21L47.8,3.58M46.73.7l2,2m-4.06,2L50-.57"/></g><line class="cls-3" x1="4.43" y1="21.97" x2="6.38" y2="23.97"/><line class="cls-3" x1="4.37" y1="32.71" x2="6.31" y2="34.71"/><line class="cls-3" x1="4.31" y1="11.36" x2="6.25" y2="13.36"/><line class="cls-3" x1="4.31" y1="0.56" x2="6.25" y2="2.56"/></svg>