<svg id="Capa_1" data-name="Capa 1" xmlns="http://www.w3.org/2000/svg" viewBox="0 0 56.49 47.85"><defs><style>.cls-1,.cls-2{fill:none;stroke:#1d1d1b;}.cls-1{stroke-width:0.3px;}.cls-2{stroke-width:0.27px;}</style></defs><title>729 Roca porfírica 1ra opción</title><path class="cls-1" d="M14.37,41.88,9.65,40.35m5.21.49-5-1.68m6.59-4.39L18,39.4m-2.85-4.13,1.75,4.61m-15.36-3,.16-5m1.22-.09L2.69,37m6.4,10.8L5.83,44.38m.92-1L10,46.77M6.83,37.32l4-2.75m-4.8,1.82,4-3M6.6,4l-4.85-1m.12-1.21L7,2.88M4.44,8.82,8.11,5.77M5.37,9.87,9,6.74m2.4,1.78,2.5,4.18m1.25-.57-2.7-4.2M19,7.54,14.5,6.19m.19-1.14,4.58,1.23M5.13,21.56.25,20.62m5.23-.15L.36,19.41M2,27.23l3.6-3.12M3,28.26l3.57-3.2m6.06,5.09L10,26m1-.61,2.78,4.14m.06-5.92,4.55,1.26m-4.39-2.4,4.6,1.14m-3.33-6.25L11.42,20M10.55,19l3.88-2.61m-9.32-3,2.08,4.41M3.85,14l2.3,4.36"/><path class="cls-1" d="M27,40l-4.2,2.18m3.44-3.29L22,41m7.22,1.75,5-.09m.12-1.14-5.23,0m13.52.6,4.72.3m-.06-1.27L42.54,41M40,39.89l3.27-3.42m-1.08-.8L39,39m-6.48-4.38,2.94,3.89m-.89.81-3.15-3.8m23.73,4-3.65-3.07m2.86,4.12-3.73-3M54.07,43l-3.68,3.2M54.84,44l-3.66,3.4M23.12,33.79l-1.35-4.68m1.16-.31,1.54,4.75m.89-5.91,4,2.46M30,29l-4.11-2.36m3.4-4.35-4.49,1.51m-.54-1.27L28.66,21M22,19.72l-.79-4.81M20.81,20l-1-4.83M34.51,31.78l4.23-2.6m-.48-1-4.49,2.68m7.31-1.37-.56,4.74m1.87-4.65-.47,4.77m3.43-5.13,4.7,1.3m.51-1.27L45.71,28m4.5-4.81L46,25.35m3.52-3.21-4.16,2.25m-3-.57,1.08-4.6M41,23.62l1.1-4.55m-8.21,2.25,4,2.86M33.1,22.51l4.13,2.71M43.94,7.83,39.56,5.5M40,4.37,44.6,6.88m-4.34,6.43L44.42,11m.7,1.11L41,14.51m7.57,3.72L47.3,13.51M49.92,18l-1.45-4.78m2.46-1.1,4,2.54m-3.49-3.59,4.06,2.44M50.4,8.22l4.52-1.41m-5,.13,4.48-1.36M47,4.79l-.52-3.61m-1.39,0,.74,3.89m-25,6.64,4.89-.85m-.06-1.15-5.17.83m5.61,5.12,2.26-4.2m-1,4.83L29.54,12m5.65,5.67-3.08-3.78m1-.74,3.27,3.77m-2.47-7,4.7-.44m-5-.69,4.7-.56M31.05,7.2l2.69-3.89m-3.89,3.2,2.7-3.82m-9.79.5,3.52,3.38m-.76.94-3.7-3.26"/><path class="cls-1" d="M18.6,44l-3.17,3.7m-1-.69,3-3.89"/><path class="cls-1" d="M46.49,1.34,46.33.25M44.94.51l.15.83M42.41,47.81l-3.26-3.43m.92-1,3.19,3.42"/><line class="cls-1" x1="36.2" y1="43.15" x2="33.01" y2="46.84"/><line class="cls-1" x1="37.09" y1="43.96" x2="33.95" y2="47.84"/><line class="cls-2" x1="15.4" y1="0.75" x2="12.66" y2="3.58"/><line class="cls-2" x1="11.68" y1="2.98" x2="14.33" y2="0.07"/></svg>