<svg id="Capa_1" data-name="Capa 1" xmlns="http://www.w3.org/2000/svg" viewBox="0 0 61.92 53.66"><defs><style>.cls-1{fill:none;stroke:#000;stroke-width:0.3px;}</style></defs><title>730 Roca porfírica 2da opción</title><path class="cls-1" d="M16.08,46.56l.11-1.25-5.37-.47-.1,1.24Zm-2.92,3.6L12.65,49,7.74,51.23l.52,1.15Zm19.51-2.24,1.21-.32-1.34-5.2-1.21.31Zm-13.2-4.71,1-.78L17,37.82l-1,.78ZM23,50l-.82-.95-4.1,3.48.81,1Zm6-10-1.06-.68L25,43.85l1.06.67ZM5.9,46.25,5,45.42l-3.61,4,.93.83Zm3.52-8-1.06-.67L5.47,42.09l1,.67Z"/><path class="cls-1" d="M43.69,40.31l.38-1.19-5.45-1.91-.39,1.19Zm-2.38,4.57-.71-1-4.43,3.07.72,1Zm3.52,8.32.91-.86-3.67-3.93-.92.86Zm2.65-6.87,1.25,0,0-5.38-1.25,0Zm9.85-3.71.87-.9-4-4.14-.87.9Zm-.43,3.63L56,45.42l-3.61,4,.93.83Z"/><path class="cls-1" d="M33,9.49l.91-.86L30.26,4.7l-.91.86Zm-11.77,15-.93-.83-3.61,4,.93.83Zm12.5-11-.93-.84-3.61,4,.94.84ZM21.86,35l.52-1.14L17.5,31.62,17,32.76ZM6.75,14.63l-.12-1.25-5.36.47.12,1.25Zm5.12,9.09,1-.81-3.49-4.1-.95.81ZM6.94,34.77l.67-1.06L3.07,30.82,2.4,31.88Zm26-8.19,1-.73-3.13-4.37-1,.73ZM20.47,4.86l-.18-1.24L15,4.37l.18,1.24Zm-12,2.87,1.22-.29L8.46,2.2l-1.22.29ZM33.2,31.33l-.59-1.11-4.76,2.5.58,1.11ZM2.47,25.66,3.69,26,5,20.73l-1.22-.29ZM22.71,15l.84-.93-4-3.6-.84.93ZM24.34,28l1.21.3,1.3-5.22-1.21-.3ZM17,18.81,17.29,20l5.26-1.16-.28-1.23Zm-6.6-4.44,1.08.64,2.77-4.61-1.07-.64Zm.48,18.52,1.24.2L13,27.78l-1.24-.2ZM24.32,8.24l1.24.19.85-5.31-1.24-.19Z"/><path class="cls-1" d="M54.66,31.14l-.93-.84-3.61,4,.93.84Zm5.09-16.51-.12-1.25-5.36.47.12,1.25Zm-26,37-.12-1.25-5.36.47.12,1.25ZM52,25.21l1-.82-3.49-4.1-1,.82Zm8.91,9.56.67-1.06-4.54-2.89-.67,1.06ZM39.76,32.22l.67-1.06-4.54-2.89-.67,1.06ZM43.9,16.47l.67-1.06L40,12.52l-.67,1.06Zm-7.89,5,1.25,0L37.14,16l-1.25,0Zm.5-15.8,1.25,0L37.64.24l-1.25,0Zm18.66-.86.79-1L51.77.43,51,1.4ZM44.63,34.22l1.22-.29-1.23-5.24L43.4,29ZM46.9,4.54l-.85-.92-4,3.6.84.93ZM45.46,22.86l-.6-1.11L40.12,24.3l.6,1.1Zm11,2.8,1.22.29L59,20.73l-1.22-.29Zm-56-20L1.69,6,3,.73,1.75.44Zm47.92,8.66h1.26l0-5.37H48.37Z"/></svg>