<svg id="Capa_1" data-name="Capa 1" xmlns="http://www.w3.org/2000/svg" viewBox="0 0 49.57 36.19"><defs><style>.cls-1{fill:none;stroke:#000;stroke-linecap:round;stroke-linejoin:round;stroke-width:0.3px;}</style></defs><title>731 Vitrófiro</title><path class="cls-1" d="M-1.06,36.28l1.06,3,1.07-3m4.09,0,1.07,3,1.07-3m4.09,0,1.07,3,1.07-3m4.09,0,1.06,3,1.07-3m4.05.06,1.07,3M2,29l1.07,3,1.06-3m4.09,0,1.07,3,1.07-3m4.09,0,1.07,3,1.07-3m4.09,0,1.07,3,1.06-3M-1.06,21.75l1.06,3,1.07-3m4.09,0,1.07,3,1.07-3m4.09,0,1.07,3,1.07-3m4.09,0,1.06,3,1.07-3M2,14.49l1.07,3,1.06-3m4.09,0,1.07,3,1.07-3m4.09,0,1.07,3,1.07-3m4.09,0,1.07,3,1.06-3M-1.06,7.22l1.06,3,1.07-3m4.09,0,1.07,3,1.07-3m4.09,0,1.07,3,1.07-3m4.09,0,1.06,3,1.07-3M2,0,3.11,3,4.17,0M8.26,0,9.33,3,10.4,0m4.09,0,1.07,3,1.07-3m4.09,0,1.07,3,1.06-3"/><path class="cls-1" d="M29.82,36.28l1.06,3,1.07-3m4.09,0,1.07,3,1.07-3m4.09,0,1.07,3,1.07-3m4.09,0,1.06,3,1.07-3M32.92,29,34,32l1.06-3m4.1,0,1.06,3,1.07-3m4.09,0,1.07,3,1.07-3m4.09,0,1.07,3,1.07-3M29.82,21.75l1.06,3,1.07-3m-8.24,0,1.07,3,1.06-3M23.7,7.2l1.07,3,1.07-3M36,21.75l1.07,3,1.07-3m4.09,0,1.07,3,1.07-3m4.09,0,1.06,3,1.07-3M32.92,14.49l1.07,3,1.06-3m4.1,0,1.06,3,1.07-3m4.09,0,1.07,3,1.07-3m4.09,0,1.07,3,1.07-3M29.82,7.22l1.06,3,1.07-3m4.09,0,1.07,3,1.07-3m4.09,0,1.07,3,1.07-3m4.09,0,1.06,3,1.07-3m-26,32.11,1.07-3m1-7.25,1.07,3,1.07-3M26.69,14.56l1.07,3,1.07-3M26.69,0l1.07,3,1.07-3m4.09,0L34,3l1.06-3m4.1,0,1.06,3,1.07-3m4.09,0,1.07,3,1.07-3M51.6,0l1.07,3,1.07-3"/></svg>