<svg id="Capa_1" data-name="Capa 1" xmlns="http://www.w3.org/2000/svg" xmlns:xlink="http://www.w3.org/1999/xlink" viewBox="0 0 54 43.2"><defs><style>.cls-1,.cls-3{fill:none;}.cls-2{clip-path:url(#clip-path);}.cls-3{stroke:#000;stroke-width:0.3px;}.cls-4{clip-path:url(#clip-path-2);}.cls-5{clip-path:url(#clip-path-3);}.cls-6{clip-path:url(#clip-path-4);}</style><clipPath id="clip-path"><rect id="SVGID" class="cls-1" y="22.29" width="39.93" height="20.91"/></clipPath><clipPath id="clip-path-2"><rect id="SVGID-2" data-name="SVGID" class="cls-1" x="39.73" y="22.29" width="14.27" height="20.91"/></clipPath><clipPath id="clip-path-3"><rect id="SVGID-3" data-name="SVGID" class="cls-1" width="39.93" height="22.45"/></clipPath><clipPath id="clip-path-4"><rect id="SVGID-4" data-name="SVGID" class="cls-1" x="39.73" width="14.27" height="22.45"/></clipPath></defs><title>732 Cuarzo</title><polyline id="SVGID-5" data-name="SVGID" class="cls-1" points="0 38.4 0 35.8 5.48 35.8 5.48 43.2 0 43.2 0 42.08"/><g class="cls-2"><path class="cls-3" d="M12.16,24.61c.76-.75.57-1.38,1.76-.81s1.13.5,2,.19.94-.76,1.75-.07.82.44,1.13.5a1.06,1.06,0,0,1,.88.82m6.09.81c-.94-.31-2.32-1-2.76-.12S22,27.81,21.2,27.87s-1.19-.12-1.63.44a3.3,3.3,0,0,1-1.76,1m15.68-6c1.13,1.2.69.76,1.51.88s1-.37,1.32.57-.19,1.44.81,1.69,1.51.44,1.7,1m-9-3.44c.76.69,1.76,2.13,1,2.44s-1.07.19-1.13.81a2.53,2.53,0,0,1-1.07,1.7c-.63.5-.75.62-.81.94m5.08.88c-.38.81-1.63,1.44-2.2,1s-1-1-1.82-.38a2,2,0,0,1-2.07.44c-.75-.19-.94-.25-1.19-.06m9.72-2.32c1,.63.95.38,1.2,1.19s.31,1.44,1,1.94.82.63.88,1.38m.74,3.27c-.79.3-.83.35-1.08.8s-.33.63-1.4.5a1.33,1.33,0,0,0-1.73,1.22c-.18.94-.52,1.3-1.14,1.5m.15-5.78c-1,.18-1.25-.13-1.5.25s-.63.31-.94.5-.32-.06-.57.69-1.44,1.31-1.88.88-.88-.88-1.25-.69m-3.14.43c.31,1,.25,1.19.63,1.51a1.38,1.38,0,0,1,.37,1.32,1,1,0,0,0,1.26,1.06c.81-.12.75-.5,1.19-.12s.31.37,1,.43.76.19.94.57m-7.4-9.91c-.38.51-.63.82-.25,1.32a1.68,1.68,0,0,1-.25,2.2c-.75.75-1.19.75-1,1.44s.31,1.56-.26,2m18.33,6.88c-.85-.55-.71-.43-1.47,0s-2.34.25-2.34-.73.17-1.66-.49-1.56-.61.23-1.27-.24M18,43.54c.38.19.31-.12.69.75s.25.38.94.69a1.45,1.45,0,0,1,.5,2.07c-.5.69-.63,1.32-.12,1.76a1.2,1.2,0,0,1,.44,1.25M16.68,41.6a1.33,1.33,0,0,0-1.07.31A1.24,1.24,0,0,1,14,41.79c-.5-.44-.56-.63-1-.19s-.82.88-1.63.12S10,41,9.65,41.22m4.4-2.82c.31-.56.56-1,.94-1.13a1.13,1.13,0,0,0,.88-.94c.18-.69-.19-1.12.5-1.06s.62.19.88-.57.81-1.31,1.5-.94M9.4,31.7c.5.81.44.75.82,1a1.06,1.06,0,0,1,.31,1.13c-.06.37-.31.62.44,1s1.07,1.07.44,1.63-.81.81-.81,1.19M4.51,30.32c0,1.38.25,1.75.75,2.25s.88.63.25,1.38-.5.75.38,1.63.5,1.51-.38,2.63-1,1.26-.75,1.76M-1.3,38.48c.14,1.25.55,1.93,1.43,1.87s.81-.43,1.12.4.36,1.07,1.34.86,1.47-.32,1.78.51m2.9-17.57c-.12,1.25.13,2,1,2.13s.88-.25,1,.63.12,1.13,1.13,1.13,1.5,0,1.63.87a1.46,1.46,0,0,0,1.63,1.38M4.13,23.92c-1.25.88-1.5.5-1.13,1.63s.38.88-.37,1.51-1.26.75-1,1.75S1.5,29.94,1,30.44"/></g><g class="cls-4"><path class="cls-3" d="M41.55,35.83a5.51,5.51,0,0,0,.57,1.32A.86.86,0,0,1,42,38.28c-.31.31-.75.56-.25,1.38s.56,1.44.19,1.88A1,1,0,0,0,41.74,43m9.85-9.22c-.82.25-1.38.44-1.25,1.07s.12,1.19-.88,1.38-.94.25-.94,1.19-.07,1.25-.63,1.63-.44.5-.5.75m5-1.3c.15,1.25.56,1.93,1.44,1.87s.8-.43,1.11.4.37,1.07,1.35.86,1.47-.32,1.78.51M41.61,30.93A2.09,2.09,0,0,1,44,30.8c.75.63,2.19,1.77,2.57.64s1.69-.48,2.57,0m-6.9-5.58a2,2,0,0,0,2.51-.38A1.93,1.93,0,0,1,47,25c1.13.25,1.25.12,2.38-.63s1.26-1.25,1.76-1"/></g><g class="cls-5"><path class="cls-3" d="M10.47,19.21C9.4,18.77,9.15,18.52,8.9,19S7.58,20.46,7.21,20s-.38-.75-.94-.69-.94-.44-1.19-.94m7.21-3.22c.38.19.31-.13.69.75s.25.38.94.69a1.45,1.45,0,0,1,.5,2.07c-.5.69-.62,1.31-.12,1.75a1.21,1.21,0,0,1,.44,1.26m24.4-5.18c-.5.44-.63.57-.44,1.44s.38,1.38-.44,1.63-1.88.5-2.19,1.07a1.3,1.3,0,0,1-1.38.62M20,21.15c.62.25,1,.44,1.69-.12s1-.63,1.57-.44a1.26,1.26,0,0,0,1.57-.88A1.73,1.73,0,0,1,26,18.46M1.52,20.78a1.56,1.56,0,0,0-.36-1.65C.62,18.67.31,17.44.93,17A2.39,2.39,0,0,0,2,15.1c.15-1,.45-1.36,1-1.63M29.29,15c-.63-.31-.88-.5-1.32-.38a1.62,1.62,0,0,1-1.57-.25c-.5-.44-.75-.5-1.44.13s-.81.69-1.57.62-.87.07-.94.51m9.9-1.92c.95.85,1.56,1.17,1.26,1.87s-.45.68,0,1.21.71,1-.3,1.61-1,.62-1.06.95M39.42-3.35c-.33.29-.41.28-1.08.29s-1.85.46-1.87,1.39S36.69-.1,35.61.1s-1.53.26-1.74.78M32.6,9c.66-.13.48-.11,1.14.17s.41.39,1.13.08A1.49,1.49,0,0,1,37,9.76c.51.87,1.37,1.3,1.8,1.16m-3.13-8.2c.78.49,1,.43.79,1.21s.15,1.45.9,1.37,2,.16,2.23.75m-7-.63c-.56.38-.44.31-.75.94s-.32.69-.88.88-.94.31-.88,1,.25,1.38-.88,1.76-1.38.5-1.57,1-.56.88-.69,1.25M30.23,0c-.5.44-.62.56-.44,1.44s.38,1.38-.44,1.63-1.88.5-2.19,1.07a1.3,1.3,0,0,1-1.38.62m-4.71-.12c.69.37.88.62.57,1.19A1.84,1.84,0,0,0,22,7.74a1.19,1.19,0,0,1,.31,1.44,2,2,0,0,0,.76,2M18.56-.35c.57.94.69.94,1.38,1s.88.06,1.2.69.69.81,1.81.56,1.39.13,1.51.56M13.67,13.07c.63.25,1,.44,1.69-.13s1-.62,1.57-.44a1.25,1.25,0,0,0,1.57-.87,1.76,1.76,0,0,1,1.13-1.26M10.22,9.24c.44-.44.82-.87.63-1.56s.25-1.88,1-1.88a2.4,2.4,0,0,0,2-1c.69-.75,1.12-.87,1.69-.81M13,3c-.63-.32-.88-.51-1.32-.38a1.62,1.62,0,0,1-1.57-.25c-.5-.44-.75-.5-1.44.12s-.81.69-1.57.63-.88.06-.94.5M.68,9c.82,0,.76-.25,1.07.25s.38.69,1.13.69.81-.25,1.25.44.69,1,1.57,1,1,.06,1.26.5.56.5,1.06.44m-12.29-7c.81.19,1.31.75,2.13.37s1-.56,1.51,0,1.94,1.13,2.51.63a1.79,1.79,0,0,1,1.63-.44m5.2-8.21c-1.06-.25-1.94-.38-2.07.5A2,2,0,0,1,5.39,0c-.69.25-.75.12-.94.87a2.33,2.33,0,0,1-1.7,1.7M-2.52-5.17C-1.26-5-.57-5-.45-4.3s0,.82.69,1,1.13.44.63,1.5S.37-.72.49-.41"/></g><g class="cls-6"><path class="cls-3" d="M55.18,20.78a1.52,1.52,0,0,0-.36-1.65c-.54-.46-.84-1.69-.22-2.11a2.42,2.42,0,0,0,1-1.92c.15-1,.44-1.36,1-1.63M40.67,15.2c1,.5,1.2.5,1.32,1.13s.19.81,1.19,1,1.76.94,1.63,1.69-.18,1.19.95,1.26,1.44-.07,1.56.5m3-4.7c-.32-1-.44-1.59-1-1.6a1.81,1.81,0,0,1-1.64-1.16,2.12,2.12,0,0,0-1.08-1.38M54.35,9c.82,0,.75-.25,1.07.25s.37.69,1.13.69.81-.25,1.25.44.69,1,1.57,1,1,.06,1.25.5.57.5,1.07.44m-12.3-7c.82.19,1.32.75,2.14.37s1-.56,1.5,0,1.95,1.13,2.51.63a1.8,1.8,0,0,1,1.63-.44M41.05,12.19c.19-.63.19-.94.82-.94a1.28,1.28,0,0,0,1.31-1.07c.13-.69.57-1.5,1.57-1.19s2,.38,2.57-.69m-6-9.09c.07.69-.12.88.63,1.38a1.34,1.34,0,0,1,.5,1.88c-.31.82-.44.82.13,1.45s.44,1.19,0,1.94M44.5-3.36c.69.38.69-.06,1.19.76s.57.62,1.19.94.44.62.51,1.38S47.51.91,48.45.91A1.64,1.64,0,0,1,50.08,2m1.07-7.14c1.25.19,2,.12,2.07.87s0,.82.69,1,1.13.44.63,1.5S54-.72,54.16-.41"/></g></svg>