<svg id="Capa_1" data-name="Capa 1" xmlns="http://www.w3.org/2000/svg" viewBox="0 0 18.78 10.97"><defs><style>.cls-1,.cls-2,.cls-4{fill:none;}.cls-1{stroke:#999;stroke-width:0.75px;}.cls-2,.cls-4{stroke:#000;}.cls-2{stroke-width:0.8px;}.cls-3{fill:#fff;}.cls-4{stroke-width:0.36px;}</style></defs><title>10.2.37 Helechos</title><path class="cls-1" d="M-18-456.27v27.88m-270.34-27.9v27.88M-113-456.29v27.9M147.37,89v27.91M95.75,89v27.91M28.93-371.28H199M28.93-343.39H199M28.93-315.49H199M28.93-287.6H199M28.93-259.7H199M-143.94,186.64H26.15m-343,0h170.1m2.78-27.9H26.15m-343,0h170.1m2.78-27.89H26.15m-343,0h170.1m2.78-27.9H26.15m-343,0h170.1m2.78-27.89H26.15m-343,0h170.1M28.93,47.16H199M28.93,19.27H199M28.93-8.63H199M28.93-36.52H199M28.93-64.42H199M28.93-92.31H199M28.93-120.21H199M28.93-148.1H199M28.93-231.8H199m-343-139.48H26.13m-170.07,27.89H26.14m-170.08,27.9H26.13M-143.94-287.6H26.14m-170.08,27.9H26.13M-143.94,47.16H26.15M-143.94,19.27H26.13M-143.94-8.63H26.14M-143.94-36.52H26.13m-170.07-27.9H26.14M-143.94-92.31H26.13m-170.07-27.9H26.14M-143.94-148.1H26.13m-170.07-83.7H26.14m-343-139.48h170.07m-170.07,27.89h170.09m-170.09,27.9h170.07M-316.82-287.6h170.09m-170.09,27.9h170.07M-316.82,47.16h170.1m-170.1-27.89h170.07M-316.82-8.63h170.09M-316.82-36.52h170.07m-170.07-27.9h170.09M-316.82-92.31h170.07m-170.07-27.9h170.09M-316.82-148.1h170.07M28.93-176H199M28.93-203.91H199M-143.94-176H26.13m-170.07-27.9H26.11M-316.82-176h170.08m-170.08-27.9h170m-170-27.89h170.09"/><path class="cls-1" d="M-288.34-399.35v613.7m107.57-613.7V214.36M115.58-456.46v27.85"/><polygon class="cls-2" points="26.13 214.33 26.13 -425.8 -143.95 -425.8 -143.95 214.35 26.13 214.33"/><path class="cls-3" d="M14.63,7.48a14.77,14.77,0,0,0-.6-3.9c-.52-1.18-1.55-2.44-2.23-2.15-.51.23-.29,1.41.08,2.3s1.93,3.42,1.93,3.42"/><path class="cls-4" d="M14.63,7.48a14.77,14.77,0,0,0-.6-3.9c-.52-1.18-1.55-2.44-2.23-2.15-.51.23-.29,1.41.08,2.3s1.93,3.42,1.93,3.42"/><path class="cls-3" d="M14.63,7.48s-3,2.26-3.75,2.64-1.87.76-2.26.22.48-1.41.93-1.63a11.35,11.35,0,0,1,4.26-1.56"/><path class="cls-4" d="M14.63,7.48s-3,2.26-3.75,2.64-1.87.76-2.26.22.48-1.41.93-1.63a11.35,11.35,0,0,1,4.26-1.56"/><path class="cls-3" d="M8.66,4.84A12.17,12.17,0,0,0,6,5.92c-.82.3-1.37,1-1,1.63s1.78.07,2.41-.33a22.17,22.17,0,0,0,2.15-2,10.05,10.05,0,0,0,.07-2.81C9.48,2,8.91.37,7.88.66c-.67.18-.45,1.14-.19,1.7S8.66,4.84,8.66,4.84Z"/><path class="cls-4" d="M8.66,4.84A12.17,12.17,0,0,0,6,5.92c-.82.3-1.37,1-1,1.63s1.78.07,2.41-.33a22.17,22.17,0,0,0,2.15-2,10.05,10.05,0,0,0,.07-2.81C9.48,2,8.91.37,7.88.66c-.67.18-.45,1.14-.19,1.7S8.66,4.84,8.66,4.84Z"/><path class="cls-3" d="M5,3.07a11.86,11.86,0,0,1-.93-1.38C4,1.4,3.77.73,4.36.51s1.33.63,1.45,1.18a4.14,4.14,0,0,1-.12,1.64A9.15,9.15,0,0,1,4.25,4.66c-.48.26-1.71.56-2,0a.74.74,0,0,1,.58-1.18Z"/><path class="cls-4" d="M5,3.07a11.86,11.86,0,0,1-.93-1.38C4,1.4,3.77.73,4.36.51s1.33.63,1.45,1.18a4.14,4.14,0,0,1-.12,1.64A9.15,9.15,0,0,1,4.25,4.66c-.48.26-1.71.56-2,0a.74.74,0,0,1,.58-1.18Z"/><path class="cls-3" d="M2.54,2S1.21,2.44.8,2.22A.88.88,0,0,1,.58,1C.88.58,1.58.4,1.87.73A6.13,6.13,0,0,1,2.54,2"/><path class="cls-4" d="M2.54,2S1.21,2.44.8,2.22A.88.88,0,0,1,.58,1C.88.58,1.58.4,1.87.73A6.13,6.13,0,0,1,2.54,2"/><path class="cls-4" d="M18.26,8.77c-1.19-.14-5.86-2.18-7.49-2.92C8.28,4.71,4,2.55,2.54,2"/></svg>