<svg id="Capa_1" data-name="Capa 1" xmlns="http://www.w3.org/2000/svg" viewBox="0 0 21.29 16.72"><defs><style>.cls-1,.cls-2,.cls-4{fill:none;}.cls-1{stroke:#999;stroke-width:0.75px;}.cls-2,.cls-4{stroke:#000;}.cls-2{stroke-width:0.8px;}.cls-3{fill:#fff;}.cls-4{stroke-width:0.36px;}</style></defs><title>10.2.6 Crustáceos</title><path class="cls-1" d="M155.74-202v27.88M-114.61-202v27.88M60.72-202v27.9M321.1,343.21v27.9m-51.62-27.9v27.9M202.67-117H372.74M202.67-89.14H372.75M202.67-61.25H372.74M202.67-33.35H372.75M202.67-5.46H372.74M29.79,440.88h170.1m-343,0H27M29.79,413h170.1m-343,0H27m2.78-27.9h170.1m-343,0H27m2.78-27.89h170.1m-343,0H27m2.78-27.9h170.1m-343,0H27m175.66-27.89H372.76m-170.09-27.9H372.74m-170.07-27.9H372.75M202.67,217.72H372.74m-170.07-27.9H372.75M202.67,161.93H372.74M202.67,134H372.75M202.67,106.14H372.74M202.67,22.44H372.75M29.79-117H199.86M29.79-89.14H199.88M29.79-61.25H199.86M29.79-33.35H199.88M29.79-5.46H199.86M29.79,301.41h170.1m-170.1-27.9H199.86M29.79,245.61H199.88M29.79,217.72H199.86M29.79,189.82H199.88M29.79,161.93H199.86M29.79,134H199.88M29.79,106.14H199.86M29.79,22.44H199.88M-143.09-117H27m-170.08,27.9H27M-143.09-61.25H27m-170.08,27.9H27M-143.09-5.46H27M-143.09,301.41H27m-170.1-27.9H27m-170.08-27.9H27m-170.09-27.89H27m-170.08-27.9H27m-170.09-27.89H27M-143.09,134H27m-170.09-27.89H27M202.67,78.23H372.74M202.67,50.33H372.72M29.79,78.23H199.87M29.79,50.33H199.84m-342.93,27.9H27m-170.08-27.9H27M-143.09,22.44H27"/><path class="cls-1" d="M-114.61-145.11v613.7M-7-145.11V468.6M289.32-202.22v27.85"/><polygon class="cls-2" points="26.98 468.57 26.98 -171.56 -143.09 -171.56 -143.09 468.59 26.98 468.57"/><path class="cls-3" d="M6.63,7.5a2.58,2.58,0,0,0-.43.71L4.94,6l.32-1.48L6.7,2,9.07.39l-1.5,2L9.59,1,7.9,3.44,6.76,4.84,6.66,6l.5,1A4.1,4.1,0,0,0,6.63,7.5Z"/><path class="cls-4" d="M6.63,7.5a2.58,2.58,0,0,0-.43.71L4.94,6l.32-1.48L6.7,2,9.07.39l-1.5,2L9.59,1,7.9,3.44,6.76,4.84,6.66,6l.5,1A4.1,4.1,0,0,0,6.63,7.5Z"/><path class="cls-3" d="M14.5,7.49a2.38,2.38,0,0,1,.43.72L16.2,6l-.33-1.48L14.44,2,12.06.39l1.5,2L11.54,1l1.69,2.42,1.15,1.4L14.48,6l-.51,1A4.4,4.4,0,0,1,14.5,7.49Z"/><path class="cls-4" d="M14.5,7.49a2.38,2.38,0,0,1,.43.72L16.2,6l-.33-1.48L14.44,2,12.06.39l1.5,2L11.54,1l1.69,2.42,1.15,1.4L14.48,6l-.51,1A4.4,4.4,0,0,1,14.5,7.49Z"/><polyline class="cls-4" points="6.7 1.95 7.57 2.43 7.89 3.45"/><path class="cls-3" d="M10.57,12.2A3.27,3.27,0,0,0,13,11.4c.77-.77.9-2,2-2.62.58-.34-1.21-3.15-4.33-3.15S5.65,8.44,6.24,8.78c1,.6,1.17,1.85,1.94,2.62A3.28,3.28,0,0,0,10.57,12.2Z"/><path class="cls-4" d="M10.57,12.2A3.27,3.27,0,0,0,13,11.4c.77-.77.9-2,2-2.62.58-.34-1.21-3.15-4.33-3.15S5.65,8.44,6.24,8.78c1,.6,1.17,1.85,1.94,2.62A3.28,3.28,0,0,0,10.57,12.2Z"/><path class="cls-3" d="M7.25,9.91A4.88,4.88,0,0,0,7,9.43a2.8,2.8,0,0,0-.33-.36L4.81,8.41,3.29,6.86l-.1-3.94-.35,4L4.66,9Z"/><path class="cls-4" d="M7.25,9.91A4.88,4.88,0,0,0,7,9.43a2.8,2.8,0,0,0-.33-.36L4.81,8.41,3.29,6.86l-.1-3.94-.35,4L4.66,9Z"/><polygon class="cls-3" points="7.73 10.81 7.41 10.22 4.32 9.17 2.48 8.98 0.9 10.16 0.8 11.9 1.24 10.48 2.61 9.48 4.18 9.67 7.73 10.81"/><polygon class="cls-4" points="7.73 10.81 7.41 10.22 4.32 9.17 2.48 8.98 0.9 10.16 0.8 11.9 1.24 10.48 2.61 9.48 4.18 9.67 7.73 10.81"/><path class="cls-3" d="M8.14,11.35a2.26,2.26,0,0,1-.23-.27l-.18-.27-2.57-.2-1.66.53-1.34,1.1-.47,2.1.87-1.76,1.28-.84,1.58-.55Z"/><path class="cls-4" d="M8.14,11.35a2.26,2.26,0,0,1-.23-.27l-.18-.27-2.57-.2-1.66.53-1.34,1.1-.47,2.1.87-1.76,1.28-.84,1.58-.55Z"/><polyline class="cls-4" points="14.44 1.95 13.56 2.43 13.24 3.45"/><path class="cls-3" d="M13.88,9.91a4,4,0,0,1,.31-.48,2.4,2.4,0,0,1,.32-.36l1.81-.66,1.52-1.55L18,2.92l.34,4L16.48,9Z"/><path class="cls-4" d="M13.88,9.91a4,4,0,0,1,.31-.48,2.4,2.4,0,0,1,.32-.36l1.81-.66,1.52-1.55L18,2.92l.34,4L16.48,9Z"/><polygon class="cls-3" points="13.4 10.81 13.72 10.22 16.82 9.17 18.65 8.98 20.23 10.16 20.33 11.9 19.89 10.48 18.52 9.48 16.95 9.67 13.4 10.81"/><polygon class="cls-4" points="13.4 10.81 13.72 10.22 16.82 9.17 18.65 8.98 20.23 10.16 20.33 11.9 19.89 10.48 18.52 9.48 16.95 9.67 13.4 10.81"/><path class="cls-3" d="M13,11.35a2.66,2.66,0,0,0,.22-.27,2.71,2.71,0,0,0,.18-.27l2.58-.2,1.65.53L19,12.24l.47,2.1-.86-1.76-1.29-.84-1.58-.55Z"/><path class="cls-4" d="M13,11.35a2.66,2.66,0,0,0,.22-.27,2.71,2.71,0,0,0,.18-.27l2.58-.2,1.65.53L19,12.24l.47,2.1-.86-1.76-1.29-.84-1.58-.55Z"/><path class="cls-3" d="M13,11.35l.43.42,2,.86,1.34,1.21.58,1-1.45.9.29-1.6-1.29-.58-1.68-1.1-2.62-.14h0l-2.62.14-1.68,1.1L5,14.16l.29,1.6-1.44-.9.58-1,1.33-1.21,2-.86.44-.42.17.17a3.34,3.34,0,0,0,2.26.68,3.36,3.36,0,0,0,2.26-.68Z"/><path class="cls-4" d="M13,11.35l.43.42,2,.86,1.34,1.21.58,1-1.45.9.29-1.6-1.29-.58-1.68-1.1-2.62-.14h0l-2.62.14-1.68,1.1L5,14.16l.29,1.6-1.44-.9.58-1,1.33-1.21,2-.86.44-.42.17.17a3.34,3.34,0,0,0,2.26.68,3.36,3.36,0,0,0,2.26-.68Z"/></svg>