<svg id="Capa_1" data-name="Capa 1" xmlns="http://www.w3.org/2000/svg" viewBox="0 0 17.88 17.28"><defs><style>.cls-1,.cls-2,.cls-4{fill:none;}.cls-1{stroke:#999;stroke-width:0.75px;}.cls-2,.cls-4{stroke:#000;}.cls-2{stroke-width:0.8px;}.cls-3{fill:#fff;}.cls-4{stroke-width:0.36px;}</style></defs><title>10.2.12 Corales</title><path class="cls-1" d="M154.22-368.39v27.88M-116.13-368.4v27.88M59.21-368.4v27.89M319.58,176.85v27.91M268,176.85v27.91M201.15-283.4H371.23M201.15-255.5H371.24M201.15-227.61H371.23m-170.08,27.9H371.24m-170.09,27.9H371.23m-343,446.33h170.1m-343,0H25.49m2.78-27.89h170.1m-343,0H25.49m2.78-27.9h170.1m-343,0H25.49m2.78-27.89h170.1m-343,0H25.49m2.78-27.9h170.1m-343,0H25.49m175.66-27.89h170.1m-170.1-27.9H371.23M201.15,79.26H371.24M201.15,51.36H371.23M201.15,23.47H371.24M201.15-4.43H371.23M201.15-32.32H371.24M201.15-60.22H371.23m-170.08-83.7H371.24M28.27-283.4H198.35M28.27-255.5H198.36M28.27-227.61H198.35M28.27-199.71H198.36M28.27-171.81H198.35M28.27,135.05h170.1m-170.1-27.9H198.35M28.27,79.26H198.36M28.27,51.36H198.35M28.27,23.47H198.36M28.27-4.43H198.35M28.27-32.32H198.36M28.27-60.22H198.35M28.27-143.92H198.36m-343-139.48H25.47m-170.08,27.9H25.48m-170.09,27.89H25.47m-170.08,27.9H25.48m-170.09,27.9H25.47M-144.61,135.05H25.49m-170.1-27.9H25.47M-144.61,79.26H25.48m-170.09-27.9H25.47M-144.61,23.47H25.48M-144.61-4.43H25.47M-144.61-32.32H25.48m-170.09-27.9H25.47M201.15-88.13H371.23M201.15-116H371.21M28.27-88.13H198.35M28.27-116H198.33M-144.61-88.13H25.47M-144.61-116H25.45m-170.06-27.9H25.48"/><path class="cls-1" d="M-116.13-311.47v613.7M-8.56-311.47V302.25M287.8-368.58v27.85"/><polygon class="cls-2" points="25.47 302.21 25.47 -337.92 -144.61 -337.92 -144.61 302.24 25.47 302.21"/><path class="cls-3" d="M16.94,8.71A8.11,8.11,0,1,1,8.84.6,8.11,8.11,0,0,1,16.94,8.71Z"/><path class="cls-4" d="M16.94,8.71A8.11,8.11,0,1,1,8.84.6,8.11,8.11,0,0,1,16.94,8.71Z"/><path class="cls-4" d="M8.08,44.7a5,5,0,0,0,2.11-6.1M9.06,29.21a5,5,0,0,0-2.12,6.1m7-4.36a5,5,0,0,0-5.31,3.67M3.23,42.94a5,5,0,0,0,5.31-3.68m6,3.1A5,5,0,0,0,10.87,37M2.56,31.69A5,5,0,0,0,6.24,37m10.32-.5a5,5,0,0,0-6.36-1.16M.54,37.43a5,5,0,0,0,6.35,1.16M3.13,14.43,6.52,11M11.15,6.4,14.55,3M4.73,8.71h-4m16.15,0h-4M3.13,3,6.52,6.4M11.15,11l3.4,3.39M8.84,12.86v4M8.84.64v4"/></svg>