<svg id="Capa_1" data-name="Capa 1" xmlns="http://www.w3.org/2000/svg" viewBox="0 0 21.24 11.69"><defs><style>.cls-1,.cls-2,.cls-4{fill:none;}.cls-1{stroke:#999;stroke-width:0.75px;}.cls-2,.cls-4{stroke:#000;}.cls-2{stroke-width:0.8px;}.cls-3{fill:#fff;}.cls-4{stroke-width:0.36px;}</style></defs><title>10.2.29 Mamíferos</title><path class="cls-1" d="M-17.49-232.69v27.88m-270.35-27.9v27.88m175.34-27.88v27.9M147.87,312.54v27.91M96.25,312.54v27.91M29.44-147.7H199.52M29.44-119.81H199.53M29.44-91.91H199.52M29.44-64H199.53M29.44-36.12H199.52m-343,446.34H26.66m-343,0h170.1m2.78-27.9H26.66m-343,0h170.1m2.78-27.89H26.66m-343,0h170.1m2.78-27.9H26.66m-343,0h170.1m2.78-27.89H26.66m-343,0h170.1m175.66-27.9h170.1M29.44,242.85H199.52M29.44,215H199.53M29.44,187.06H199.52M29.44,159.16H199.53M29.44,131.27H199.52M29.44,103.37H199.53M29.44,75.47H199.52M29.44-8.23H199.53m-343-139.47H26.64m-170.08,27.89H26.65m-170.09,27.9H26.64M-143.44-64H26.65m-170.09,27.9H26.64M-143.44,270.74H26.66m-170.1-27.89H26.64M-143.44,215H26.65m-170.09-27.89H26.64m-170.08-27.9H26.65m-170.09-27.89H26.64m-170.08-27.9H26.65m-170.09-27.9H26.64M-143.44-8.23H26.65m-343-139.47h170.08m-170.08,27.89h170.09m-170.09,27.9h170.08M-316.32-64h170.09m-170.09,27.9h170.08M-316.32,270.74h170.1m-170.1-27.89h170.08M-316.32,215h170.09m-170.09-27.89h170.08m-170.08-27.9h170.09m-170.09-27.89h170.08m-170.08-27.9h170.09m-170.09-27.9h170.08M29.44,47.56H199.52M29.44,19.67H199.5M-143.44,47.56H26.64M-143.44,19.67H26.62M-316.32,47.56h170.08M-316.32,19.67h170.06M-316.32-8.23h170.09"/><path class="cls-1" d="M-287.84-175.77V437.92m107.57-613.69V437.94M116.09-232.88V-205"/><polygon class="cls-2" points="26.64 437.9 26.64 -202.22 -143.44 -202.22 -143.44 437.93 26.64 437.9"/><path class="cls-3" d="M4.41.47a5.54,5.54,0,0,0-3.11,1C.51,2,.46,2.28.9,2.62S.71,3.26,2.2,4s2.5.76,2.62,1.1,2,1.91,2.11,2.6S8,9.54,8,10.17s-1.13.34-1.35.88c-.13.32,1,.2,1.94.2.49,0,1.34-1.42,1.42-2s1.3-.15,2,.39c.41.32.68.49.68.49s-2.17.34-2.12.83,1.86.71,2.57.35a11.13,11.13,0,0,0,2.84-1.84c.37-.56.37-1.2.86-1.2a2.6,2.6,0,0,0,2.35-1.69c.44-1.57,1.79-2.65,1.57-3s-1.49.47-1.91,1.4S18,7.13,17.44,7.13s-.81,0-.81,0S16.9,4.46,15,3.36c-2.11-1.25-3.23-1.62-5.15-1.2S7.42,2.16,7,1.81A3.69,3.69,0,0,0,4.41.47Z"/><path class="cls-4" d="M4.41.47a5.54,5.54,0,0,0-3.11,1C.51,2,.46,2.28.9,2.62S.71,3.26,2.2,4s2.5.76,2.62,1.1,2,1.91,2.11,2.6S8,9.54,8,10.17s-1.13.34-1.35.88c-.13.32,1,.2,1.94.2.49,0,1.34-1.42,1.42-2s1.3-.15,2,.39c.41.32.68.49.68.49s-2.17.34-2.12.83,1.86.71,2.57.35a11.13,11.13,0,0,0,2.84-1.84c.37-.56.37-1.2.86-1.2a2.6,2.6,0,0,0,2.35-1.69c.44-1.57,1.79-2.65,1.57-3s-1.49.47-1.91,1.4S18,7.13,17.44,7.13s-.81,0-.81,0S16.9,4.46,15,3.36c-2.11-1.25-3.23-1.62-5.15-1.2S7.42,2.16,7,1.81A3.69,3.69,0,0,0,4.41.47Z"/><path d="M3.66,2.16a.38.38,0,1,1-.38-.38.38.38,0,0,1,.38.38"/><path class="cls-4" d="M12.24,9.85c-.66-.47.35-3.11,2-3.26M10,9.2c.19-.84.19-2.31-.45-2.8M6.85,7.46c-.08-1-.29-3.73.91-4.27M4.58,4.91c.5.19,2-.84,1.93-1.92"/></svg>