<svg id="Capa_1" data-name="Capa 1" xmlns="http://www.w3.org/2000/svg" viewBox="0 0 17.69 17.47"><defs><style>.cls-1,.cls-2,.cls-4{fill:none;}.cls-1{stroke:#999;stroke-width:0.75px;}.cls-2,.cls-4{stroke:#000;}.cls-2{stroke-width:0.8px;}.cls-3{fill:#fff;}.cls-4{stroke-width:0.36px;}</style></defs><title>10.2.15 Crinoideos</title><path class="cls-1" d="M153.65-452.32v27.88m-270.34-27.9v27.88M58.64-452.34v27.9M319,92.91v27.91M267.4,92.91v27.91M200.58-367.33H370.66M200.58-339.44H370.67m-170.09,27.9H370.66M200.58-283.65H370.67m-170.09,27.9H370.66M27.7,190.59H197.8m-343,0H24.92m2.78-27.9H197.8m-343,0H24.92M27.7,134.8H197.8m-343,0H24.92m2.78-27.9H197.8m-343,0H24.92M27.7,79H197.8m-343,0H24.92m175.66-27.9h170.1M200.58,23.22H370.66M200.58-4.68H370.67M200.58-32.57H370.66M200.58-60.47H370.67M200.58-88.36H370.66m-170.08-27.9H370.67m-170.09-27.9H370.66m-170.08-83.7H370.67M27.7-367.33H197.78M27.7-339.44H197.79M27.7-311.54H197.78M27.7-283.65H197.79M27.7-255.75H197.78M27.7,51.11H197.8M27.7,23.22H197.78M27.7-4.68H197.79M27.7-32.57H197.78M27.7-60.47H197.79M27.7-88.36H197.78M27.7-116.26H197.79M27.7-144.16H197.78M27.7-227.86H197.79m-343-139.47H24.9m-170.07,27.89H24.91m-170.08,27.9H24.9m-170.07,27.89H24.91m-170.08,27.9H24.9M-145.17,51.11H24.92M-145.17,23.22H24.9M-145.17-4.68H24.91M-145.17-32.57H24.9m-170.07-27.9H24.91M-145.17-88.36H24.9m-170.07-27.9H24.91m-170.08-27.9H24.9m175.68-27.91H370.66M200.58-200H370.64M27.7-172.07H197.78M27.7-200H197.76m-342.93,27.89H24.9M-145.17-200h170m-170-27.9H24.91"/><path class="cls-1" d="M-116.69-395.41v613.7M-9.12-395.41V218.31M287.23-452.51v27.85"/><polygon class="cls-2" points="24.9 218.27 24.9 -421.85 -145.18 -421.85 -145.18 218.3 24.9 218.27"/><path class="cls-3" d="M8.87,16.85a8,8,0,1,0-8-8A8,8,0,0,0,8.87,16.85Z"/><path class="cls-4" d="M8.87,16.85a8,8,0,1,0-8-8A8,8,0,0,0,8.87,16.85Z"/><path d="M8.79,11.79a3,3,0,1,0-3-3A3,3,0,0,0,8.79,11.79Z"/><path class="cls-4" d="M8.79,11.79a3,3,0,1,0-3-3A3,3,0,0,0,8.79,11.79Z"/></svg>