<svg id="Capa_1" data-name="Capa 1" xmlns="http://www.w3.org/2000/svg" viewBox="0 0 10.1 17.21"><defs><style>.cls-1,.cls-2,.cls-4{fill:none;}.cls-1{stroke:#999;stroke-width:0.75px;}.cls-2,.cls-4{stroke:#000;}.cls-2{stroke-width:0.8px;}.cls-3{fill:#fff;}.cls-4{stroke-width:0.36px;}</style></defs><title>10.2.43 Coprolitos</title><path class="cls-1" d="M-22.42-619.44v27.88m-270.34-27.9v27.88m175.33-27.88v27.9M143-74.2v27.9M91.33-74.2v27.9M24.51-534.45H194.59M24.51-506.55H194.6M24.51-478.66H194.59M24.51-450.76H194.6M24.51-422.87H194.59m-343,446.34H21.73m-343,0h170.1m2.77-27.89H21.73m-343,0h170.1m2.77-27.9H21.73m-343,0h170.1m2.77-27.89H21.73m-343,0h170.1m2.77-27.9H21.73m-343,0h170.1M24.51-116h170.1M24.51-143.9H194.59M24.51-171.8H194.6M24.51-199.69H194.59M24.51-227.59H194.6M24.51-255.48H194.59M24.51-283.38H194.6M24.51-311.27H194.59M24.51-395H194.6m-343-139.48H21.71m-170.08,27.9H21.72m-170.09,27.89H21.71m-170.08,27.9H21.72m-170.09,27.89H21.71M-148.37-116H21.73m-170.1-27.9H21.71m-170.08-27.9H21.72m-170.09-27.89H21.71m-170.08-27.9H21.72m-170.09-27.89H21.71m-170.08-27.9H21.72m-170.09-27.89H21.71M-148.37-395H21.72m-343-139.48h170.07m-170.07,27.9h170.08m-170.08,27.89h170.07m-170.07,27.9h170.08m-170.08,27.89h170.07M-321.24-116h170.1m-170.1-27.9h170.07m-170.07-27.9h170.08m-170.08-27.89h170.07m-170.07-27.9h170.08m-170.08-27.89h170.07m-170.07-27.9h170.08m-170.08-27.89h170.07M24.51-339.18H194.59M24.51-367.08H194.57m-342.94,27.9H21.71m-170.08-27.9H21.69m-342.93,27.9h170.07m-170.07-27.9h170.05m-170-27.89h170.08"/><path class="cls-1" d="M-292.76-562.52V51.18m107.57-613.7V51.19M111.16-619.63v27.85"/><polygon class="cls-2" points="21.71 51.16 21.71 -588.97 -148.37 -588.97 -148.37 51.18 21.71 51.16"/><path class="cls-3" d="M2.59,10.64C1.35,10.74,0,12.31.71,13.56s1.41,1.59,2.94,1A10.61,10.61,0,0,0,8,11.22a5.38,5.38,0,0,0,.48-2.11,9.56,9.56,0,0,1-2.69,1.15A25.75,25.75,0,0,1,2.59,10.64Z"/><path class="cls-4" d="M2.59,10.64C1.35,10.74,0,12.31.71,13.56s1.41,1.59,2.94,1A10.61,10.61,0,0,0,8,11.22a5.38,5.38,0,0,0,.48-2.11,9.56,9.56,0,0,1-2.69,1.15A25.75,25.75,0,0,1,2.59,10.64Z"/><path class="cls-3" d="M8.45,9.11C9.86,8.31,9.7,7.36,8.66,7,6.48,6.37,7,6.11,7,6.11a5.19,5.19,0,0,0-2.3,1.06A2.7,2.7,0,0,1,1.92,8.22C.58,7.94.79,9.44,1.46,9.83a6.58,6.58,0,0,1,1.13.81,25.75,25.75,0,0,0,3.17-.38A9.56,9.56,0,0,0,8.45,9.11Z"/><path class="cls-4" d="M8.45,9.11C9.86,8.31,9.7,7.36,8.66,7,6.48,6.37,7,6.11,7,6.11a5.19,5.19,0,0,0-2.3,1.06A2.7,2.7,0,0,1,1.92,8.22C.58,7.94.79,9.44,1.46,9.83a6.58,6.58,0,0,1,1.13.81,25.75,25.75,0,0,0,3.17-.38A9.56,9.56,0,0,0,8.45,9.11Z"/><path class="cls-3" d="M7,6.1c1.93-.79.73-2.67.23-3.52A7.06,7.06,0,0,0,4.74.69C6.79,2.29,5.92,3.94,6.5,4.32s-2.37-.51-3.43.16A3.37,3.37,0,0,0,1.28,8.22l.21,0a1.67,1.67,0,0,1,.43,0A2.7,2.7,0,0,0,4.71,7.17,5.19,5.19,0,0,1,7,6.11Z"/><path class="cls-4" d="M7,6.1c1.93-.79.73-2.67.23-3.52A7.06,7.06,0,0,0,4.74.69C6.79,2.29,5.92,3.94,6.5,4.32s-2.37-.51-3.43.16A3.37,3.37,0,0,0,1.28,8.22l.21,0a1.67,1.67,0,0,1,.43,0A2.7,2.7,0,0,0,4.71,7.17,5.19,5.19,0,0,1,7,6.11Z"/><path class="cls-3" d="M3.65,14.58A10.61,10.61,0,0,0,8,11.22a4.32,4.32,0,0,0,.26-.68l.11-.41c1.44.16,1.05,0,1.2,1.47s-2.4,3.92-3.75,4.32-2.41,1.51-3.69.47S3.65,14.58,3.65,14.58Z"/><path class="cls-4" d="M3.65,14.58A10.61,10.61,0,0,0,8,11.22a4.32,4.32,0,0,0,.26-.68l.11-.41c1.44.16,1.05,0,1.2,1.47s-2.4,3.92-3.75,4.32-2.41,1.51-3.69.47S3.65,14.58,3.65,14.58Z"/></svg>