<svg id="Capa_1" data-name="Capa 1" xmlns="http://www.w3.org/2000/svg" viewBox="0 0 13.24 18.52"><defs><style>.cls-1,.cls-2,.cls-4{fill:none;}.cls-1{stroke:#999;stroke-width:0.75px;}.cls-2,.cls-4{stroke:#000;}.cls-2{stroke-width:0.8px;}.cls-3{fill:#fff;}.cls-4{stroke-width:0.36px;}</style></defs><title>10.2.1 Macrofosiles</title><path class="cls-1" d="M153.18-61v27.88M-117.17-61V-33.1M58.17-61v27.89M318.54,484.27v27.91m-51.62-27.91v27.91M200.11,24H370.18M200.11,51.92H370.2M200.11,79.82H370.18M200.11,107.71H370.2m-170.09,27.9H370.18M27.23,582h170.1m-343,0H24.45m2.78-27.9h170.1m-343,0H24.45m2.78-27.89h170.1m-343,0H24.45m2.78-27.9h170.1m-343,0H24.45m2.78-27.9h170.1m-343,0H24.45m175.66-27.89h170.1m-170.1-27.9H370.18M200.11,386.68H370.2m-170.09-27.9H370.18M200.11,330.89H370.2M200.11,303H370.18M200.11,275.1H370.2M200.11,247.2H370.18M200.11,163.5H370.2M27.23,24H197.31M27.23,51.92H197.32M27.23,79.82H197.31M27.23,107.71H197.32M27.23,135.61H197.31M27.23,442.47h170.1m-170.1-27.9H197.31M27.23,386.68H197.32M27.23,358.78H197.31M27.23,330.89H197.32M27.23,303H197.31M27.23,275.1H197.32M27.23,247.2H197.31M27.23,163.5H197.32M-145.65,24H24.43m-170.08,27.9H24.44m-170.09,27.9H24.43m-170.08,27.89H24.44m-170.09,27.9H24.43M-145.65,442.47H24.45m-170.1-27.9H24.43m-170.08-27.89H24.44m-170.09-27.9H24.43m-170.08-27.89H24.44M-145.65,303H24.43M-145.65,275.1H24.44m-170.09-27.9H24.43m175.68-27.91H370.19M200.11,191.4H370.16M27.23,219.29H197.31M27.23,191.4H197.29m-342.94,27.89H24.43M-145.65,191.4H24.41m-170.06-27.9H24.44"/><path class="cls-1" d="M-117.17-3.86v613.7M-9.6-3.86V609.86M286.76-61v27.85"/><polygon class="cls-2" points="24.43 609.82 24.43 -30.31 -145.65 -30.31 -145.65 609.85 24.43 609.82"/><path class="cls-3" d="M7.14,10.14a2.1,2.1,0,0,1,.56-.08c1.39,0,3.16,2,3.11,3.76a3.62,3.62,0,0,1-3.9,3.48,4.27,4.27,0,0,1-4.5-4.64C2.41,9.64,6.59,6,7,5.42a3.16,3.16,0,0,0-.88-3.71A7.06,7.06,0,0,1,8.17,4.77c.6,2.28,0,4.39-.54,4.88Z"/><path class="cls-4" d="M7.14,10.14a2.1,2.1,0,0,1,.56-.08c1.39,0,3.16,2,3.11,3.76a3.62,3.62,0,0,1-3.9,3.48,4.27,4.27,0,0,1-4.5-4.64C2.41,9.64,6.59,6,7,5.42a3.16,3.16,0,0,0-.88-3.71A7.06,7.06,0,0,1,8.17,4.77c.6,2.28,0,4.39-.54,4.88Z"/></svg>