<svg id="Capa_1" data-name="Capa 1" xmlns="http://www.w3.org/2000/svg" viewBox="0 0 8.17 18.52"><defs><style>.cls-1,.cls-2,.cls-4{fill:none;}.cls-1{stroke:#999;stroke-width:0.75px;}.cls-2,.cls-4{stroke:#000;}.cls-2{stroke-width:0.8px;}.cls-3{fill:#fff;}.cls-4{stroke-width:0.36px;}</style></defs><title>10.2.32 Hojas</title><path class="cls-1" d="M-23.68-312.9V-285M-294-312.92V-285m175.34-27.88V-285M141.68,232.33v27.91M90.06,232.33v27.91M23.25-227.91H193.33M23.25-200H193.34M23.25-172.12H193.33M23.25-144.23H193.34M23.25-116.33H193.33M-149.63,330H20.47m-343,0h170.1m2.78-27.9H20.47m-343,0h170.1m2.78-27.89H20.47m-343,0h170.1m2.78-27.9H20.47m-343,0h170.1m2.78-27.89H20.47m-343,0h170.1m175.66-27.9h170.1M23.25,162.64H193.33M23.25,134.74H193.34M23.25,106.85H193.33M23.25,79H193.34M23.25,51.06H193.33M23.25,23.16H193.34M23.25-4.74H193.33M23.25-88.44H193.34m-343-139.47H20.45M-149.63-200H20.46m-170.09,27.9H20.45m-170.08,27.89H20.46m-170.09,27.9H20.45M-149.63,190.53H20.47m-170.1-27.89H20.45m-170.08-27.9H20.46m-170.09-27.89H20.45M-149.63,79H20.46M-149.63,51.06H20.45m-170.08-27.9H20.46M-149.63-4.74H20.45m-170.08-83.7H20.46m-343-139.47h170.08M-322.51-200h170.09m-170.09,27.9h170.08m-170.08,27.89h170.09m-170.09,27.9h170.08M-322.51,190.53h170.1m-170.1-27.89h170.08m-170.08-27.9h170.09m-170.09-27.89h170.08M-322.51,79h170.09M-322.51,51.06h170.08m-170.08-27.9h170.09M-322.51-4.74h170.08M23.25-32.65H193.33M23.25-60.54H193.31M-149.63-32.65H20.45M-149.63-60.54H20.43M-322.51-32.65h170.08M-322.51-60.54h170.06m-170.06-27.9h170.09"/><path class="cls-1" d="M-294-256v613.7M-186.46-256V357.73M109.9-313.09v27.85"/><polygon class="cls-2" points="20.45 357.69 20.45 -282.43 -149.63 -282.43 -149.63 357.72 20.45 357.69"/><path class="cls-3" d="M4.1.57S7.67,5.88,7.67,8.72s-1.9,6.69-3.57,6.69h0C2.43,15.41.52,11.56.52,8.72S4.09.57,4.09.57Z"/><path class="cls-4" d="M4.1.57S7.67,5.88,7.67,8.72s-1.9,6.69-3.57,6.69h0C2.43,15.41.52,11.56.52,8.72S4.09.57,4.09.57Z"/><line class="cls-4" x1="4.09" y1="2.05" x2="4.09" y2="18.26"/><path class="cls-4" d="M4.09,13.74c0-.68,2.58-2.19,2.58-2.19M4.09,9.93c0-.68,3-2.44,3-2.44m-2.95-2c0-.68,1.57-1.61,1.57-1.61M4.09,13.74c0-.68-2.58-2.19-2.58-2.19M4.09,9.93c0-.68-2.95-2.44-2.95-2.44m3-2c0-.68-1.57-1.61-1.57-1.61"/></svg>