<svg id="Capa_1" data-name="Capa 1" xmlns="http://www.w3.org/2000/svg" viewBox="0 0 12.34 18.14"><defs><style>.cls-1,.cls-2,.cls-4{fill:none;}.cls-1{stroke:#999;stroke-width:0.75px;}.cls-2,.cls-4{stroke:#000;}.cls-2{stroke-width:0.8px;}.cls-3{fill:#fff;}.cls-4{stroke-width:0.36px;}</style></defs><title>10.2.27 Anfibios</title><path class="cls-1" d="M-21.09-173.39v27.88M-291.44-173.4v27.88M-116.1-173.4v27.89M144.27,371.85v27.91M92.65,371.85v27.91M25.84-88.4H195.92M25.84-60.5H195.93M25.84-32.61H195.92M25.84-4.71H195.93M25.84,23.19H195.92M-147,469.52H23.06m-343,0h170.1m2.78-27.89H23.06m-343,0h170.1m2.78-27.9H23.06m-343,0h170.1m2.78-27.89H23.06m-343,0h170.1m2.78-27.9H23.06m-343,0h170.1M25.84,330.05h170.1m-170.1-27.9H195.92M25.84,274.26H195.93M25.84,246.36H195.92M25.84,218.47H195.93M25.84,190.57H195.92M25.84,162.67H195.93M25.84,134.78H195.92M25.84,51.08H195.93M-147-88.4H23M-147-60.5H23.05M-147-32.61H23M-147-4.71H23.05M-147,23.19H23M-147,330.05H23.06M-147,302.15H23M-147,274.26H23.05M-147,246.36H23M-147,218.47H23.05M-147,190.57H23M-147,162.67H23.05M-147,134.78H23M-147,51.08H23.05m-343-139.48h170.08M-319.92-60.5h170.09M-319.92-32.61h170.08M-319.92-4.71h170.09m-170.09,27.9h170.08M-319.92,330.05h170.1m-170.1-27.9h170.08m-170.08-27.89h170.09m-170.09-27.9h170.08m-170.08-27.89h170.09m-170.09-27.9h170.08m-170.08-27.9h170.09m-170.09-27.89h170.08M25.84,106.87H195.92M25.84,79H195.9M-147,106.87H23M-147,79H23m-342.94,27.89h170.08M-319.92,79h170.06m-170.06-27.9h170.09"/><path class="cls-1" d="M-291.44-116.47v613.7m107.57-613.7V497.25M112.49-173.58v27.85"/><polygon class="cls-2" points="23.04 497.21 23.04 -142.92 -147.04 -142.92 -147.04 497.24 23.04 497.21"/><path class="cls-3" d="M6.55,11.31a2.34,2.34,0,0,0,1.86.6,2.34,2.34,0,0,1,1.19.42A13.26,13.26,0,0,0,8,13.71,5.37,5.37,0,0,0,7,16.1c0,.36,2.39,2,2.93,1.62s-1.91-1.8-1.91-1.8a17.67,17.67,0,0,1,1.2-1.55c.54-.6,2.27-.9,2.39-1.86S8.11,9.7,8.11,9.7a5.61,5.61,0,0,0,.54-1.85,4.24,4.24,0,0,0-.54-2.22A4.76,4.76,0,0,0,9.74,6c.36-.12,2.4-3.11,2-3.35S9.66,4.78,9.36,4.78a7.52,7.52,0,0,1-1.61-1V2.16A2.35,2.35,0,0,0,6.13.31h0A2.35,2.35,0,0,0,4.46,2.16V3.78a7.52,7.52,0,0,1-1.61,1c-.3,0-1.68-2-2.1-1.78S2.13,5.87,2.49,6A4.57,4.57,0,0,0,4.1,5.63a4.24,4.24,0,0,0-.54,2.22A5.61,5.61,0,0,0,4.1,9.7S.45,11.55.57,12.51,2.42,13.77,3,14.37a18.93,18.93,0,0,1,1.19,1.55s-2.45,1.44-1.91,1.8,2.93-1.26,2.93-1.62a5.37,5.37,0,0,0-1-2.39,13.26,13.26,0,0,0-1.61-1.38,2.34,2.34,0,0,1,1.19-.42,2.34,2.34,0,0,0,1.86-.6Z"/><path class="cls-4" d="M6.55,11.31a2.34,2.34,0,0,0,1.86.6,2.34,2.34,0,0,1,1.19.42A13.26,13.26,0,0,0,8,13.71,5.37,5.37,0,0,0,7,16.1c0,.36,2.39,2,2.93,1.62s-1.91-1.8-1.91-1.8a17.67,17.67,0,0,1,1.2-1.55c.54-.6,2.27-.9,2.39-1.86S8.11,9.7,8.11,9.7a5.61,5.61,0,0,0,.54-1.85,4.24,4.24,0,0,0-.54-2.22A4.76,4.76,0,0,0,9.74,6c.36-.12,2.4-3.11,2-3.35S9.66,4.78,9.36,4.78a7.52,7.52,0,0,1-1.61-1V2.16A2.35,2.35,0,0,0,6.13.31h0A2.35,2.35,0,0,0,4.46,2.16V3.78a7.52,7.52,0,0,1-1.61,1c-.3,0-1.68-2-2.1-1.78S2.13,5.87,2.49,6A4.57,4.57,0,0,0,4.1,5.63a4.24,4.24,0,0,0-.54,2.22A5.61,5.61,0,0,0,4.1,9.7S.45,11.55.57,12.51,2.42,13.77,3,14.37a18.93,18.93,0,0,1,1.19,1.55s-2.45,1.44-1.91,1.8,2.93-1.26,2.93-1.62a5.37,5.37,0,0,0-1-2.39,13.26,13.26,0,0,0-1.61-1.38,2.34,2.34,0,0,1,1.19-.42,2.34,2.34,0,0,0,1.86-.6Z"/></svg>