<svg id="Capa_1" data-name="Capa 1" xmlns="http://www.w3.org/2000/svg" viewBox="0 0 16.86 15.94"><defs><style>.cls-1,.cls-2,.cls-4{fill:none;}.cls-1{stroke:#999;stroke-width:0.75px;}.cls-2,.cls-4{stroke:#000;}.cls-2{stroke-width:0.8px;}.cls-3{fill:#fff;}.cls-4{stroke-width:0.36px;}</style></defs><title>10.2.48 Foraminíferos</title><path class="cls-1" d="M-191.52-146.51v27.88m-270.35-27.9v27.88m175.34-27.88v27.9M-26.16,398.72v27.91m-51.62-27.91v27.91M-144.59-61.52H25.48M-144.59-33.63H25.5M-144.59-5.73H25.48M-144.59,22.16H25.5m-170.09,27.9H25.48m-343,446.34h170.1m-343,0h170.1m2.78-27.9h170.1m-343,0h170.1m2.78-27.89h170.1m-343,0h170.1m2.78-27.9h170.1m-343,0h170.1m2.78-27.89h170.1m-343,0h170.1m175.66-27.9H25.51M-144.59,329H25.48m-170.07-27.9H25.5m-170.09-27.89H25.48m-170.07-27.9H25.5m-170.09-27.89H25.48m-170.07-27.9H25.5m-170.09-27.9H25.48M-144.59,78H25.5m-343-139.47h170.08M-317.47-33.63h170.09M-317.47-5.73h170.08M-317.47,22.16h170.09m-170.09,27.9h170.08M-317.47,356.92h170.1M-317.47,329h170.08m-170.08-27.9h170.09m-170.09-27.89h170.08m-170.08-27.9h170.09m-170.09-27.89h170.08m-170.08-27.9h170.09m-170.09-27.9h170.08M-317.47,78h170.09m-343-139.47h170.08M-490.35-33.63h170.09M-490.35-5.73h170.08M-490.35,22.16h170.09m-170.09,27.9h170.08M-490.35,356.92h170.1M-490.35,329h170.08m-170.08-27.9h170.09m-170.09-27.89h170.08m-170.08-27.9h170.09m-170.09-27.89h170.08m-170.08-27.9h170.09m-170.09-27.9h170.08m175.68-27.91H25.49m-170.08-27.89H25.46m-342.93,27.89h170.08m-170.08-27.89h170.06m-342.94,27.89h170.08m-170.08-27.89h170.06M-490.35,78h170.09"/><path class="cls-2" d="M25.49,426.43v-41.8H-144.58v41.82Zm0,97.63V426.44H-144.58v97.65Zm0-139.45V-116H-144.6V384.63Z"/><path class="cls-3" d="M12.44,15.55a3.92,3.92,0,1,0-3.92-3.92A3.92,3.92,0,0,0,12.44,15.55Z"/><path class="cls-4" d="M12.44,15.55a3.92,3.92,0,1,0-3.92-3.92A3.92,3.92,0,0,0,12.44,15.55Z"/><path class="cls-3" d="M8.33,8.42A3.92,3.92,0,1,0,4.41,4.5,3.92,3.92,0,0,0,8.33,8.42Z"/><path class="cls-4" d="M8.33,8.42A3.92,3.92,0,1,0,4.41,4.5,3.92,3.92,0,0,0,8.33,8.42Z"/><path class="cls-3" d="M4.33,15.58A3.92,3.92,0,1,0,.41,11.66,3.91,3.91,0,0,0,4.33,15.58Z"/><path class="cls-4" d="M4.33,15.58A3.92,3.92,0,1,0,.41,11.66,3.91,3.91,0,0,0,4.33,15.58Z"/></svg>