<svg id="Capa_1" data-name="Capa 1" xmlns="http://www.w3.org/2000/svg" viewBox="0 0 8.01 17.14"><defs><style>.cls-1,.cls-2,.cls-4{fill:none;}.cls-1{stroke:#999;stroke-width:0.75px;}.cls-2,.cls-4{stroke:#000;}.cls-2{stroke-width:0.8px;}.cls-3{fill:#fff;}.cls-4{stroke-width:0.36px;}</style></defs><title>10.2.49 Grandes foraminíferos o fusulínidos</title><path class="cls-1" d="M-196.07-173.8v27.88m-270.35-27.89v27.88m175.34-27.88v27.89M-30.71,371.44v27.9m-51.62-27.9v27.9M-149.14-88.81H20.94m-170.08,27.9H21M-149.14-33H20.94M-149.14-5.12H21M-149.14,22.77H20.94M-322,469.11h170.1m-343,0h170.1m2.78-27.89h170.1m-343,0h170.1m2.78-27.9h170.1m-343,0h170.1m2.78-27.89h170.1m-343,0h170.1m2.78-27.9h170.1m-343,0h170.1m175.66-27.89H21m-170.1-27.9H20.94m-170.08-27.89H21M-149.14,246H20.94m-170.08-27.89H21m-170.09-27.9H20.94m-170.08-27.9H21m-170.09-27.89H20.94m-170.08-83.7H21M-322-88.81h170.08M-322-60.91h170.09M-322-33h170.08M-322-5.12h170.09M-322,22.77h170.08M-322,329.64h170.1M-322,301.74h170.08M-322,273.85h170.09M-322,246h170.08M-322,218.06h170.09M-322,190.16h170.08M-322,162.26h170.09M-322,134.37h170.08M-322,50.67h170.09m-343-139.48h170.08M-494.9-60.91h170.09M-494.9-33h170.08M-494.9-5.12h170.09M-494.9,22.77h170.08M-494.9,329.64h170.1m-170.1-27.9h170.08M-494.9,273.85h170.09M-494.9,246h170.08M-494.9,218.06h170.09m-170.09-27.9h170.08m-170.08-27.9h170.09M-494.9,134.37h170.08m175.68-27.91H20.94M-149.14,78.57H20.92M-322,106.46h170.08M-322,78.57H-152M-494.9,106.46h170.08M-494.9,78.57h170.06M-494.9,50.67h170.09"/><path class="cls-2" d="M21,399.14v-41.8H-149.13v41.83Zm0,97.64V399.16H-149.13V496.8Zm0-139.46V-143.33H-149.14V357.35Z"/><path class="cls-3" d="M3.91,16.63s-3.2-2-3.37-7.31A12.43,12.43,0,0,1,3.91.64a13.79,13.79,0,0,1,3.6,8.79C7.68,14.86,3.91,16.63,3.91,16.63Z"/><path class="cls-4" d="M3.91,16.63s-3.2-2-3.37-7.31A12.43,12.43,0,0,1,3.91.64a13.79,13.79,0,0,1,3.6,8.79C7.68,14.86,3.91,16.63,3.91,16.63Z"/><path class="cls-4" d="M11.73,36.5a7.83,7.83,0,0,1-15.65,0M3.91.64V16.46"/></svg>