<svg id="Capa_1" data-name="Capa 1" xmlns="http://www.w3.org/2000/svg" viewBox="0 0 17.69 16.72"><defs><style>.cls-1,.cls-2,.cls-4{fill:none;}.cls-1{stroke:#999;stroke-width:0.75px;}.cls-2,.cls-4{stroke:#000;}.cls-2{stroke-width:0.8px;}.cls-3{fill:#fff;}.cls-4{stroke-width:0.36px;}</style></defs><title>10.2.14 Equinodermos</title><path class="cls-1" d="M154.22-424.47v27.88m-270.35-27.9v27.88M59.21-424.49v27.9M319.58,120.76v27.91M268,120.76v27.91M201.15-339.48H371.23M201.15-311.59H371.24m-170.09,27.9H371.23M201.15-255.8H371.24M201.15-227.9H371.23m-343,446.34h170.1m-343,0H25.49m2.78-27.9h170.1m-343,0H25.49m2.78-27.89h170.1m-343,0H25.49m2.78-27.9h170.1m-343,0H25.49m2.78-27.89h170.1m-343,0H25.49M201.15,79h170.1M201.15,51.07H371.23M201.15,23.17H371.24M201.15-4.72H371.23M201.15-32.62H371.24M201.15-60.51H371.23M201.15-88.41H371.24M201.15-116.3H371.23M201.15-200H371.24m-343-139.48H198.35M28.27-311.59H198.36M28.27-283.69H198.35M28.27-255.8H198.36M28.27-227.9H198.35M28.27,79h170.1M28.27,51.07H198.35M28.27,23.17H198.36M28.27-4.72H198.35M28.27-32.62H198.36M28.27-60.51H198.35M28.27-88.41H198.36M28.27-116.3H198.35M28.27-200H198.36m-343-139.48H25.47m-170.08,27.89H25.48m-170.09,27.9H25.47M-144.61-255.8H25.48m-170.09,27.9H25.47M-144.61,79H25.49m-170.1-27.89H25.47m-170.08-27.9H25.48M-144.61-4.72H25.47m-170.08-27.9H25.48M-144.61-60.51H25.47m-170.08-27.9H25.48M-144.61-116.3H25.47m175.68-27.91H371.23m-170.08-27.9H371.21M28.27-144.21H198.35M28.27-172.11H198.33m-342.94,27.9H25.47m-170.08-27.9H25.45M-144.61-200H25.48"/><path class="cls-1" d="M-116.13-367.55v613.7M-8.56-367.55V246.16M287.8-424.66v27.85"/><polygon class="cls-2" points="25.47 246.13 25.47 -394 -144.61 -394 -144.61 246.15 25.47 246.13"/><path class="cls-3" d="M8.86.28S9.49,6.42,10.35,7s6.85-.65,6.85-.65-5.78,2.33-5.93,3.49S14,16.15,14,16.15,10.2,11.61,8.86,11.6,3.7,16.15,3.7,16.15s3.3-5,2.74-6.31S.51,6.35.51,6.35s6,1.31,6.85.65S8.86.28,8.86.28Z"/><path class="cls-4" d="M8.86.28S9.49,6.42,10.35,7s6.85-.65,6.85-.65-5.78,2.33-5.93,3.49S14,16.15,14,16.15,10.2,11.61,8.86,11.6,3.7,16.15,3.7,16.15s3.3-5,2.74-6.31S.51,6.35.51,6.35s6,1.31,6.85.65S8.86.28,8.86.28Z"/><path class="cls-4" d="M12.08,8.09,8.84,9.32m2,2.35-2-2.35L5.74,8.14M8.84,5.9V9.32L7,11.77"/></svg>