<svg id="Capa_1" data-name="Capa 1" xmlns="http://www.w3.org/2000/svg" viewBox="0 0 13.1 16.87"><defs><style>.cls-1,.cls-2,.cls-3{fill:none;}.cls-1{stroke:#999;stroke-width:0.75px;}.cls-2,.cls-3{stroke:#000;}.cls-2{stroke-width:0.8px;}.cls-3{stroke-width:0.36px;}</style></defs><title>10.2.33 Raíces</title><path class="cls-1" d="M-19.13-340.06v27.88m-270.35-27.9v27.88m175.33-27.88v27.9M146.23,205.18v27.9m-51.62-27.9v27.9M27.8-255.07H197.87M27.8-227.18H197.88M27.8-199.28H197.87M27.8-171.38H197.88M27.8-143.49H197.87m-343,446.34H25m-343,0h170.1m2.78-27.89H25m-343,0h170.1m2.78-27.9H25m-343,0h170.1m2.78-27.89H25m-343,0h170.1m2.78-27.9H25m-343,0h170.1M27.8,163.37H197.9M27.8,135.48H197.87M27.8,107.58H197.88M27.8,79.69H197.87M27.8,51.79H197.88M27.8,23.9H197.87M27.8-4H197.88M27.8-31.89H197.87M27.8-115.59H197.88m-343-139.48H25m-170.08,27.89H25m-170.09,27.9H25m-170.08,27.9H25m-170.09,27.89H25M-145.08,163.37H25m-170.1-27.89H25m-170.08-27.9H25M-145.08,79.69H25m-170.08-27.9H25M-145.08,23.9H25M-145.08-4H25M-145.08-31.89H25m-170.08-83.7H25M-318-255.07h170.08M-318-227.18h170.09M-318-199.28h170.08M-318-171.38h170.09M-318-143.49h170.08M-318,163.37h170.1M-318,135.48h170.08M-318,107.58h170.09M-318,79.69h170.08M-318,51.79h170.09M-318,23.9h170.08M-318-4h170.09M-318-31.89h170.08M27.8-59.8H197.87M27.8-87.7h170M-145.08-59.8H25M-145.08-87.7H25M-318-59.8h170.08M-318-87.7H-147.9M-318-115.59h170.09"/><path class="cls-1" d="M-289.48-283.14v613.7m107.57-613.7V330.57M114.45-340.25v27.85"/><polygon class="cls-2" points="24.99 330.54 24.99 -309.59 -145.08 -309.59 -145.08 330.56 24.99 330.54"/><path d="M11.09.43A24.24,24.24,0,0,0,8.35,3.75C8,4.6,7.72,7.24,7,7.92S3.92,9.56,3.29,10.14A14.16,14.16,0,0,0,.6,13.51c-.26.74,1.73-3.06,4.22-3.11,1.26,0,1.84.63,1.95,1.27a13.49,13.49,0,0,1-.21,5.27c-.16.6.81-.53,1-1.16.37-1.21.25-3.68.42-4s1.11.16,1.27.37a31.57,31.57,0,0,1,2.42,3.53c.08.19.16-1.05,0-1.63s-1.48-2.43-2.11-3.64a4.47,4.47,0,0,1-.73-3.11,15.92,15.92,0,0,1,2.26-4.43c.58-.58,1.06-.95,1.11-1.27S11.46.59,11.09.43Z"/><path class="cls-3" d="M11.09.43A24.24,24.24,0,0,0,8.35,3.75C8,4.6,7.72,7.24,7,7.92S3.92,9.56,3.29,10.14A14.16,14.16,0,0,0,.6,13.51c-.26.74,1.73-3.06,4.22-3.11,1.26,0,1.84.63,1.95,1.27a13.49,13.49,0,0,1-.21,5.27c-.16.6.81-.53,1-1.16.37-1.21.25-3.68.42-4s1.11.16,1.27.37a31.57,31.57,0,0,1,2.42,3.53c.08.19.16-1.05,0-1.63s-1.48-2.43-2.11-3.64a4.47,4.47,0,0,1-.73-3.11,15.92,15.92,0,0,1,2.26-4.43c.58-.58,1.06-.95,1.11-1.27S11.46.59,11.09.43Z"/></svg>