<svg id="Capa_1" data-name="Capa 1" xmlns="http://www.w3.org/2000/svg" viewBox="0 0 18.06 8.71"><defs><style>.cls-1,.cls-2,.cls-4{fill:none;}.cls-1{stroke:#999;stroke-width:0.75px;}.cls-2,.cls-4{stroke:#000;}.cls-2{stroke-width:0.8px;}.cls-3{fill:#fff;}.cls-4{stroke-width:0.36px;}</style></defs><title>10.2.42 Madrigueras</title><path class="cls-1" d="M-18.15-595.85V-568m-270.35-27.9V-568m175.33-27.88V-568M147.21-50.61v27.9M95.59-50.61v27.9M28.78-510.86H198.85M28.78-483H198.86M28.78-455.07H198.85M28.78-427.17H198.86M28.78-399.28H198.85M-144.1,47.06H26m-343,0h170.1m2.78-27.89H26m-343,0h170.1m2.78-27.9H26m-343,0h170.1m2.78-27.89H26m-343,0h170.1m2.78-27.9H26m-343,0h170.1M28.78-92.42H198.87M28.78-120.31H198.85M28.78-148.21H198.86M28.78-176.1H198.85M28.78-204H198.86M28.78-231.89H198.85M28.78-259.79H198.86M28.78-287.68H198.85M28.78-371.38H198.86m-343-139.48H26M-144.1-483H26m-170.09,27.9H26m-170.07,27.9H26M-144.1-399.28H26M-144.1-92.42H26m-170.1-27.89H26m-170.07-27.9H26M-144.1-176.1H26M-144.1-204H26M-144.1-231.89H26m-170.07-27.9H26M-144.1-287.68H26m-170.07-83.7H26M-317-510.86H-146.9M-317-483h170.09M-317-455.07H-146.9M-317-427.17h170.09M-317-399.28H-146.9M-317-92.42h170.1M-317-120.31H-146.9M-317-148.21h170.09M-317-176.1H-146.9M-317-204h170.09M-317-231.89H-146.9M-317-259.79h170.09M-317-287.68H-146.9M28.78-315.59H198.85M28.78-343.49H198.83m-342.93,27.9H26m-170.08-27.9H26M-317-315.59H-146.9M-317-343.49h170.06M-317-371.38h170.09"/><path class="cls-1" d="M-288.5-538.93V74.77m107.57-613.7V74.78M115.43-596v27.85"/><polygon class="cls-2" points="25.97 74.75 25.97 -565.38 -144.1 -565.38 -144.1 74.77 25.97 74.75"/><path class="cls-3" d="M17.24,3.15C17.67,1.56,16,.32,14.43.55l-.12.07c-.47.34-2.22,2.53-2.85,2.63S4.18,3,3.55,3.36.75,5.19.7,6A2.44,2.44,0,0,0,3.09,8.26c.87,0,2-1.54,2.51-1.65,2.13-.46,5.16.69,7.4-.06a27,27,0,0,0,4.15-3.26l.05-.08Z"/><path class="cls-4" d="M17.24,3.15C17.67,1.56,16,.32,14.43.55l-.12.07c-.47.34-2.22,2.53-2.85,2.63S4.18,3,3.55,3.36.75,5.19.7,6A2.44,2.44,0,0,0,3.09,8.26c.87,0,2-1.54,2.51-1.65,2.13-.46,5.16.69,7.4-.06a27,27,0,0,0,4.15-3.26l.05-.08Z"/><path class="cls-4" d="M17.2,3.13A2.44,2.44,0,0,1,14.44.58"/></svg>