<svg id="Capa_1" data-name="Capa 1" xmlns="http://www.w3.org/2000/svg" viewBox="0 0 16.86 8.99"><defs><style>.cls-1,.cls-2,.cls-4{fill:none;}.cls-1{stroke:#999;stroke-width:0.75px;}.cls-2,.cls-4{stroke:#000;}.cls-2{stroke-width:0.8px;}.cls-3{fill:#fff;}.cls-4{stroke-width:0.36px;}</style></defs><title>10.2.47 Diatomeas</title><path class="cls-1" d="M-191.52-122.39v27.88M-461.87-122.4v27.88m175.34-27.88v27.89M-26.16,422.85v27.91m-51.62-27.91v27.91M-144.59-37.4H25.48M-144.59-9.5H25.5M-144.59,18.39H25.48m-170.07,27.9H25.5m-170.09,27.9H25.48m-343,446.33h170.1m-343,0h170.1m2.78-27.89h170.1m-343,0h170.1m2.78-27.9h170.1m-343,0h170.1m2.78-27.89h170.1m-343,0h170.1m2.78-27.9h170.1m-343,0h170.1m175.66-27.89H25.51m-170.1-27.9H25.48m-170.07-27.89H25.5m-170.09-27.9H25.48m-170.07-27.89H25.5m-170.09-27.9H25.48m-170.07-27.9H25.5m-170.09-27.89H25.48m-170.07-83.7H25.5m-343-139.48h170.08M-317.47-9.5h170.09M-317.47,18.39h170.08m-170.08,27.9h170.09m-170.09,27.9h170.08M-317.47,381.05h170.1m-170.1-27.9h170.08m-170.08-27.89h170.09m-170.09-27.9h170.08m-170.08-27.89h170.09m-170.09-27.9h170.08m-170.08-27.9h170.09m-170.09-27.89h170.08m-170.08-83.7h170.09m-343-139.48h170.08M-490.35-9.5h170.09M-490.35,18.39h170.08m-170.08,27.9h170.09m-170.09,27.9h170.08M-490.35,381.05h170.1m-170.1-27.9h170.08m-170.08-27.89h170.09m-170.09-27.9h170.08m-170.08-27.89h170.09m-170.09-27.9h170.08m-170.08-27.9h170.09m-170.09-27.89h170.08m175.68-27.91H25.49M-144.59,130H25.46m-342.93,27.89h170.08M-317.47,130h170.06m-342.94,27.89h170.08M-490.35,130h170.06m-170.06-27.9h170.09"/><path class="cls-2" d="M25.49,450.55v-41.8H-144.58v41.83Zm0,97.64V450.57H-144.58v97.64Zm0-139.46V-91.92H-144.6V408.76Z"/><path class="cls-3" d="M.47,4.72c.68,1.62,4.39,4.07,7.7,4.17s7.27-3,8-4.17c-.74-1.21-4.72-4.28-8-4.17S1.15,3.1.47,4.72Z"/><path class="cls-4" d="M.47,4.72c.68,1.62,4.39,4.07,7.7,4.17s7.27-3,8-4.17c-.74-1.21-4.72-4.28-8-4.17S1.15,3.1.47,4.72Z"/><path class="cls-4" d="M6.39,4.74,2.56,4.58m11.26.16H10.15"/></svg>