<svg id="Capa_1" data-name="Capa 1" xmlns="http://www.w3.org/2000/svg" viewBox="0 0 16.98 12.47"><defs><style>.cls-1,.cls-2,.cls-4{fill:none;}.cls-1{stroke:#999;stroke-width:0.75px;}.cls-2,.cls-4{stroke:#000;}.cls-2{stroke-width:0.8px;}.cls-3{fill:#fff;}.cls-4{stroke-width:0.36px;}</style></defs><title>10.2.52 Nanofósiles</title><path class="cls-1" d="M-191.4-260.32v27.88m-270.34-27.9v27.88m175.33-27.88v27.9M-26,284.91v27.91m-51.62-27.91v27.91m-66.82-488.15H25.61m-170.08,27.89H25.62m-170.09,27.9H25.61M-144.47-91.65H25.62m-170.09,27.9H25.61M-317.34,382.59h170.09m-343,0h170.1m2.78-27.9h170.09m-343,0h170.1m2.78-27.89h170.09m-343,0h170.1m2.78-27.9h170.09m-343,0h170.1m2.78-27.89h170.09m-343,0h170.1m175.65-27.9H25.63m-170.1-27.89H25.61m-170.08-27.9H25.62m-170.09-27.89H25.61m-170.08-27.9H25.62m-170.09-27.89H25.61m-170.08-27.9H25.62m-170.09-27.9H25.61m-170.08-83.7H25.62m-343-139.47h170.07m-170.07,27.89h170.08m-170.08,27.9h170.07M-317.34-91.65h170.08m-170.08,27.9h170.07M-317.34,243.11h170.09m-170.09-27.89h170.07m-170.07-27.9h170.08m-170.08-27.89h170.07m-170.07-27.9h170.08m-170.08-27.89h170.07m-170.07-27.9h170.08m-170.08-27.9h170.07m-170.07-83.7h170.08m-343-139.47h170.07m-170.07,27.89h170.09m-170.09,27.9h170.07M-490.22-91.65h170.09m-170.09,27.9h170.07M-490.22,243.11h170.1m-170.1-27.89h170.07m-170.07-27.9h170.09m-170.09-27.89h170.07m-170.07-27.9h170.09m-170.09-27.89h170.07m-170.07-27.9h170.09m-170.09-27.9h170.07m175.68-27.91H25.61M-144.47-8H25.59M-317.34,19.93h170.07M-317.34-8h170M-490.22,19.93h170.08M-490.22-8h170.05m-170-27.9h170.09"/><path class="cls-2" d="M25.62,312.62v-41.8H-144.46v41.82Zm0,97.63V312.63H-144.46v97.65Zm0-139.45V-229.85H-144.47V270.82Z"/><path class="cls-3" d="M8.43,11.18c4.45,0,8.2-2.38,8.2-5.2S12.83.64,8.38.64s-8,2.48-8,5.29S4,11.18,8.43,11.18Z"/><path class="cls-4" d="M8.43,11.18c4.45,0,8.2-2.38,8.2-5.2S12.83.64,8.38.64s-8,2.48-8,5.29S4,11.18,8.43,11.18Z"/><path class="cls-4" d="M14.56,5.79l2,0m-3-1.66L15,2.91M13.94,7.72l1.3,1.11m-3.82.29.76,1.47M8.66,9.37v1.79M5.76,9.05l-.6,1.65m-1.83-3L2.13,9.15M.43,5.81l2,.15m9.78-4.64L11.5,3M8.64.68l.1,2M5.56,1l.66,1.85M2.38,2.5,3.54,3.93"/><path d="M6.27,6.62a.69.69,0,1,0-.69-.69A.69.69,0,0,0,6.27,6.62Z"/><path class="cls-4" d="M6.27,6.62a.69.69,0,1,0-.69-.69A.69.69,0,0,0,6.27,6.62Z"/><path d="M11,6.62a.67.67,0,0,0,.68-.68A.68.68,0,0,0,11,5.25a.69.69,0,0,0-.69.69A.68.68,0,0,0,11,6.62Z"/><path class="cls-4" d="M11,6.62a.67.67,0,0,0,.68-.68A.68.68,0,0,0,11,5.25a.69.69,0,0,0-.69.69A.68.68,0,0,0,11,6.62Z"/></svg>