<svg id="Capa_1" data-name="Capa 1" xmlns="http://www.w3.org/2000/svg" viewBox="0 0 16.6 17.14"><defs><style>.cls-1,.cls-2,.cls-3{fill:none;}.cls-1{stroke:#999;stroke-width:0.75px;}.cls-2,.cls-3{stroke:#000;}.cls-2{stroke-width:0.8px;}.cls-3{stroke-width:0.36px;}.cls-4{fill:#fff;}</style></defs><title>10.2.51 Foraminíferos planctónicos, pequeños</title><path class="cls-1" d="M-191.77-229.88V-202m-270.35-27.9V-202m175.33-27.88V-202M-26.41,315.35v27.91M-78,315.35v27.91m-66.82-488.15H25.23M-144.85-117H25.24M-144.85-89.1H25.23M-144.85-61.21H25.24m-170.09,27.9H25.23M-317.72,413h170.1m-343,0h170.1m2.78-27.9h170.1m-343,0h170.1m2.78-27.89h170.1m-343,0h170.1m2.78-27.9h170.1m-343,0h170.1m2.78-27.89h170.1m-343,0h170.1m175.65-27.9H25.25m-170.1-27.89H25.23m-170.08-27.9H25.24m-170.09-27.89H25.23M-144.85,162H25.24m-170.09-27.89H25.23m-170.08-27.9H25.24M-144.85,78.29H25.23M-144.85-5.41H25.24m-343-139.48h170.07M-317.72-117h170.08M-317.72-89.1h170.07M-317.72-61.21h170.08m-170.08,27.9h170.07M-317.72,273.55h170.1m-170.1-27.89h170.07m-170.07-27.9h170.08m-170.08-27.89h170.07M-317.72,162h170.08m-170.08-27.89h170.07m-170.07-27.9h170.08M-317.72,78.29h170.07M-317.72-5.41h170.08m-343-139.48h170.08M-490.6-117h170.09M-490.6-89.1h170.08M-490.6-61.21h170.09M-490.6-33.31h170.08M-490.6,273.55h170.1m-170.1-27.89h170.08m-170.08-27.9h170.09M-490.6,189.87h170.08M-490.6,162h170.09M-490.6,134.08h170.08m-170.08-27.9h170.09M-490.6,78.29h170.08m175.67-27.91H25.23m-170.08-27.9H25.21m-342.93,27.9h170.07m-170.07-27.9h170.05M-490.6,50.38h170.08M-490.6,22.48h170.05m-170-27.89h170.09"/><path class="cls-2" d="M25.24,343.06v-41.8H-144.84v41.83Zm0,97.63V343.07H-144.84v97.65Zm0-139.45V-199.41H-144.85V301.26Z"/><path class="cls-3" d="M16,8.8A7.82,7.82,0,1,1,8.2,1,7.83,7.83,0,0,1,16,8.8Z"/><path class="cls-4" d="M11.8,14.34a3.47,3.47,0,1,0-3.47-3.47A3.47,3.47,0,0,0,11.8,14.34Z"/><path class="cls-3" d="M11.8,14.34a3.47,3.47,0,1,0-3.47-3.47A3.47,3.47,0,0,0,11.8,14.34Z"/><path class="cls-4" d="M8.16,8A3.48,3.48,0,1,0,4.69,4.55,3.47,3.47,0,0,0,8.16,8Z"/><path class="cls-3" d="M8.16,8A3.48,3.48,0,1,0,4.69,4.55,3.47,3.47,0,0,0,8.16,8Z"/><path class="cls-4" d="M4.61,14.37A3.47,3.47,0,1,0,1.14,10.9,3.47,3.47,0,0,0,4.61,14.37Z"/><path class="cls-3" d="M4.61,14.37A3.47,3.47,0,1,0,1.14,10.9,3.47,3.47,0,0,0,4.61,14.37Z"/></svg>