<svg id="Capa_1" data-name="Capa 1" xmlns="http://www.w3.org/2000/svg" viewBox="0 0 14.91 17.35"><defs><style>.cls-1,.cls-2,.cls-4{fill:none;}.cls-1{stroke:#999;stroke-width:0.75px;}.cls-2,.cls-4{stroke:#000;}.cls-2{stroke-width:0.8px;}.cls-3{fill:#fff;}.cls-4{stroke-width:0.36px;}</style></defs><title>10.2.20 Amonoideos</title><path class="cls-1" d="M153.21-592v27.88M-117.14-592v27.88M58.2-592v27.9M318.57-46.79v27.9M267-46.79v27.9M200.14-507H370.22m-170.08,27.9H370.23M200.14-451.25H370.22m-170.08,27.9H370.23M200.14-395.46H370.22M27.26,50.88h170.1m-343,0H24.48M27.26,23h170.1m-343,0H24.48m2.78-27.9h170.1m-343,0H24.48M27.26-32.8h170.1m-343,0H24.48m2.78-27.9h170.1m-343,0H24.48M200.14-88.59h170.1m-170.1-27.9H370.22m-170.08-27.9H370.23M200.14-172.28H370.22m-170.08-27.9H370.23M200.14-228.07H370.22M200.14-256H370.23M200.14-283.86H370.22m-170.08-83.7H370.23M27.26-507H197.34M27.26-479.14H197.35M27.26-451.25H197.34M27.26-423.35H197.35M27.26-395.46H197.34M27.26-88.59h170.1m-170.1-27.9H197.34M27.26-144.39H197.35M27.26-172.28H197.34M27.26-200.18H197.35M27.26-228.07H197.34M27.26-256H197.35M27.26-283.86H197.34M27.26-367.56H197.35M-145.62-507H24.46m-170.08,27.9H24.47m-170.09,27.89H24.46m-170.08,27.9H24.47m-170.09,27.89H24.46M-145.62-88.59H24.48m-170.1-27.9H24.46m-170.08-27.9H24.47m-170.09-27.89H24.46m-170.08-27.9H24.47m-170.09-27.89H24.46M-145.62-256H24.47m-170.09-27.89H24.46m175.68-27.91H370.22m-170.08-27.9H370.2M27.26-311.77H197.34M27.26-339.67H197.32m-342.94,27.9H24.46m-170.08-27.9H24.44m-170.06-27.89H24.47"/><path class="cls-1" d="M-117.14-535.11V78.59M-9.57-535.11V78.6M286.79-592.22v27.85"/><polygon class="cls-2" points="24.46 78.57 24.46 -561.56 -145.62 -561.56 -145.62 78.59 24.46 78.57"/><path class="cls-3" d="M10.42,2.09a8,8,0,1,1-9.9,12.5,5.49,5.49,0,0,1,.92-2.86A7.28,7.28,0,0,1,3.7,9.45a5,5,0,0,1,6.67-7.39Z"/><path class="cls-4" d="M10.42,2.09a8,8,0,1,1-9.9,12.5,5.49,5.49,0,0,1,.92-2.86A7.28,7.28,0,0,1,3.7,9.45a5,5,0,0,1,6.67-7.39Z"/><path d="M7.52,6.16a.38.38,0,0,1-.75,0,.38.38,0,1,1,.75,0Z"/><path class="cls-4" d="M7.52,6.16a.38.38,0,0,1-.75,0,.38.38,0,1,1,.75,0Z"/><path class="cls-4" d="M7.24,6.26c.39.39-.91,1.69-.52,2.08S8.4,7.42,8.79,7.8s-.91,1.7-.52,2.09S10,9,10.34,9.36s-.91,1.7-.51,2.09,1.69-.91,2.08-.52S11,12.6,11.35,13s1.39-.66,1.88-.64m-6-6.23c.47-.26,1.37,1.3,1.85,1S8.67,5.22,9.14,5,10.53,6.37,11,6.11s-.45-1.93,0-2.18,1.36,1.42,1.81,1.18c.1-.06.12-.19.12-.35M7.11,6c-.1-.42,1.31-.78,1.21-1.2s-1.5-.08-1.6-.5S8,3.59,7.93,3.16s-1.5-.09-1.6-.5,1.31-.75,1.21-1.17c0-.17-.41-.21-.74-.22M7,6.12c-.44-.12,0-.78-.42-.9s-.76,1.11-1.12,1,0-1.35-.36-1.47-.77,1.1-1.14,1,0-1.34-.32-1.46S3,5.38,2.63,5.27M3.7,9.45l3.7-3"/></svg>