<svg id="Capa_1" data-name="Capa 1" xmlns="http://www.w3.org/2000/svg" viewBox="0 0 9.2 16.57"><defs><style>.cls-1,.cls-2,.cls-4{fill:none;}.cls-1{stroke:#999;stroke-width:0.75px;}.cls-2,.cls-4{stroke:#000;}.cls-2{stroke-width:0.8px;}.cls-3{fill:#fff;}.cls-4{stroke-width:0.36px;}</style></defs><title>10.2.57 Dinoflagelados</title><path class="cls-1" d="M-194.88-397.14v27.88m-270.35-27.9v27.88m175.33-27.88v27.9M-29.52,148.1V176m-51.62-27.9V176M-148-312.15H22.12M-148-284.25H22.13M-148-256.36H22.12M-148-228.46H22.13M-148-200.57H22.12M-320.83,245.77h170.1m-343,0h170.1m2.78-27.89h170.1m-343,0h170.1m2.78-27.9h170.1m-343,0h170.1m2.78-27.89h170.1m-343,0h170.1m2.78-27.9h170.1m-343,0h170.1M-148,106.3H22.14M-148,78.4H22.12M-148,50.5H22.13M-148,22.61H22.12M-148-5.29H22.13M-148-33.18H22.12M-148-61.08H22.13M-148-89H22.12M-148-172.67H22.13m-343-139.48h170.07m-170.07,27.9h170.08m-170.08,27.89h170.07m-170.07,27.9h170.08m-170.08,27.89h170.07M-320.83,106.3h170.1m-170.1-27.9h170.07M-320.83,50.5h170.08M-320.83,22.61h170.07M-320.83-5.29h170.08M-320.83-33.18h170.07m-170.07-27.9h170.08M-320.83-89h170.07m-170.07-83.7h170.08m-343-139.48h170.08m-170.08,27.9h170.09m-170.09,27.89h170.08m-170.08,27.9h170.09m-170.09,27.89h170.08M-493.71,106.3h170.1m-170.1-27.9h170.08M-493.71,50.5h170.09M-493.71,22.61h170.08M-493.71-5.29h170.09M-493.71-33.18h170.08m-170.08-27.9h170.09M-493.71-89h170.08M-148-116.88H22.12M-148-144.78H22.1m-342.93,27.9h170.07m-170.07-27.9h170m-342.93,27.9h170.08m-170.08-27.9h170m-170-27.89h170.09"/><path class="cls-2" d="M22.13,175.8V134H-147.95v41.83Zm0,97.64V175.81H-147.95v97.65Zm0-139.46V-366.67H-148V134Z"/><path class="cls-3" d="M4.77,2.35S8.16,6.88,8.58,9.21a12.17,12.17,0,0,1-.5,5.4c-.22.84-.72,1.34-1,1.38a7.91,7.91,0,0,1-1.79-1s-1,1.18-1.91,1.18A3.71,3.71,0,0,1,.81,14.5,24.92,24.92,0,0,1,.43,9.36,9.33,9.33,0,0,1,1.76,6C2.45,5,4.77,2.35,4.77,2.35Z"/><path class="cls-4" d="M4.77,2.35S8.16,6.88,8.58,9.21a12.17,12.17,0,0,1-.5,5.4c-.22.84-.72,1.34-1,1.38a7.91,7.91,0,0,1-1.79-1s-1,1.18-1.91,1.18A3.71,3.71,0,0,1,.81,14.5,24.92,24.92,0,0,1,.43,9.36,9.33,9.33,0,0,1,1.76,6C2.45,5,4.77,2.35,4.77,2.35Z"/><path class="cls-4" d="M4.76.33v2M4.58,9a.87.87,0,1,0-.86-.86A.87.87,0,0,0,4.58,9Zm-4,3.44a11.72,11.72,0,0,0,4,.5,9.16,9.16,0,0,0,4-.65M.47,10.92a10.54,10.54,0,0,0,3.65.61c.88,0,3.36-.08,4.54-.76"/></svg>