<svg id="Capa_1" data-name="Capa 1" xmlns="http://www.w3.org/2000/svg" viewBox="0 0 17.87 16.38"><defs><style>.cls-1,.cls-2,.cls-4{fill:none;}.cls-1{stroke:#999;stroke-width:0.75px;}.cls-2,.cls-4{stroke:#000;}.cls-2{stroke-width:0.8px;}.cls-3{fill:#fff;}.cls-4{stroke-width:0.36px;}</style></defs><title>10.5.55 Acritarcos</title><path class="cls-1" d="M-191.14-340.16v27.88m-270.35-27.89v27.88m175.33-27.88v27.89M-25.78,205.08V233M-77.4,205.08V233m-66.81-488.16H25.86m-170.07,27.9H25.87m-170.08,27.9H25.86m-170.07,27.89H25.87m-170.08,27.9H25.86M-317.09,302.76H-147m-343,0h170.1m2.78-27.9H-147m-343,0h170.1m2.78-27.89H-147m-343,0h170.1m2.78-27.9H-147m-343,0h170.1m2.78-27.9H-147m-343,0h170.1m175.66-27.89H25.89m-170.1-27.9H25.86m-170.07-27.89H25.87m-170.08-27.9H25.86M-144.21,51.7H25.87M-144.21,23.8H25.86M-144.21-4.09H25.87M-144.21-32H25.86m-170.07-83.7H25.87m-343-139.48H-147m-170.08,27.9H-147m-170.09,27.9H-147m-170.08,27.89H-147m-170.09,27.9H-147M-317.09,163.28H-147m-170.1-27.9H-147m-170.08-27.89H-147m-170.09-27.9H-147M-317.09,51.7H-147M-317.09,23.8H-147M-317.09-4.09H-147M-317.09-32H-147m-170.08-83.7H-147M-490-255.17h170.08M-490-227.27h170.09M-490-199.37h170.08M-490-171.48h170.09M-490-143.58h170.08M-490,163.28h170.1M-490,135.38h170.08M-490,107.49h170.09M-490,79.59h170.08M-490,51.7h170.09M-490,23.8h170.08M-490-4.09h170.09M-490-32h170.08M-144.21-59.9H25.86M-144.21-87.79H25.84M-317.09-59.9H-147M-317.09-87.79H-147M-490-59.9h170.08M-490-87.79h170.06M-490-115.69h170.09"/><path class="cls-2" d="M25.87,232.79V191H-144.21v41.83Zm0,97.63V232.8H-144.21v97.65Zm0-139.45V-309.69H-144.22V191Z"/><path class="cls-3" d="M1,14.93c-.3-.18,4.41-3.68,5.59-5.75,1.28-2.25,1.7-8,2-8.14s.67,1.47.85,3.17c.15,1.51-.67,4,.13,4.83s3.4,1.18,4.82,2.2,2.93,3.7,2.69,3.63c-.39-.12-3.21-2.32-4.35-2.84a9.36,9.36,0,0,0-4.83-.61c-1.76.3-2.68,1.18-4.09,2.85A2.4,2.4,0,0,1,1,14.93Z"/><path class="cls-4" d="M1,14.93c-.3-.18,4.41-3.68,5.59-5.75,1.28-2.25,1.7-8,2-8.14s.67,1.47.85,3.17c.15,1.51-.67,4,.13,4.83s3.4,1.18,4.82,2.2,2.93,3.7,2.69,3.63c-.39-.12-3.21-2.32-4.35-2.84a9.36,9.36,0,0,0-4.83-.61c-1.76.3-2.68,1.18-4.09,2.85A2.4,2.4,0,0,1,1,14.93Z"/></svg>