<svg id="Capa_1" data-name="Capa 1" xmlns="http://www.w3.org/2000/svg" viewBox="0 0 16.51 12.96"><defs><style>.cls-1,.cls-2,.cls-4{fill:none;}.cls-1{stroke:#999;stroke-width:0.75px;}.cls-2,.cls-4{stroke:#000;}.cls-2{stroke-width:0.8px;}.cls-3{fill:#fff;}.cls-4{stroke-width:0.36px;}</style></defs><title>10.2.60 Silicoflagelados</title><path class="cls-1" d="M-191.54-483.18v27.88m-270.34-27.89v27.88m175.33-27.88v27.89M-26.18,62.06V90M-77.79,62.06V90m-66.82-488.16H25.47m-170.08,27.9H25.48M-144.61-342.4H25.47m-170.08,27.9H25.48m-170.09,27.9H25.47m-343,446.34h170.1m-343,0h170.09m2.78-27.9h170.1m-343,0h170.09m2.78-27.9h170.1m-343,0h170.09m2.78-27.89h170.1m-343,0h170.09m2.78-27.9h170.1m-343,0h170.09m175.66-27.89H25.49m-170.1-27.9H25.47M-144.61-35.53H25.48m-170.09-27.9H25.47M-144.61-91.32H25.48m-170.09-27.9H25.47m-170.08-27.89H25.48M-144.61-175H25.47m-170.08-83.7H25.48m-343-139.48h170.08m-170.08,27.9H-147.4M-317.49-342.4h170.08m-170.08,27.9H-147.4m-170.09,27.9h170.08M-317.49,20.26h170.1m-170.1-27.9h170.08M-317.49-35.53H-147.4m-170.09-27.9h170.08M-317.49-91.32H-147.4m-170.09-27.9h170.08m-170.08-27.89H-147.4M-317.49-175h170.08m-170.08-83.7H-147.4m-343-139.48h170.07m-170.07,27.9h170.08M-490.36-342.4h170.07m-170.07,27.9h170.08m-170.08,27.9h170.07M-490.36,20.26h170.09M-490.36-7.64h170.07M-490.36-35.53h170.08m-170.08-27.9h170.07M-490.36-91.32h170.08m-170.08-27.9h170.07m-170.07-27.89h170.08M-490.36-175h170.07m175.68-27.91H25.47m-170.08-27.89H25.45m-342.94,27.89h170.08m-170.08-27.89h170.06m-342.93,27.89h170.07m-170.07-27.89h170.05m-170-27.9h170.08"/><path class="cls-2" d="M25.48,89.77V48H-144.6V89.79Zm0,97.63V89.78H-144.6v97.65Zm0-139.46V-452.71H-144.61V48Z"/><polygon class="cls-3" points="8.29 0.93 7.86 2.55 4.25 6.15 0.28 6.58 4.25 7.01 7.86 10.62 8.29 12.25 8.72 10.62 12.33 7.01 16.29 6.58 12.33 6.15 8.72 2.55 8.29 0.93"/><polygon class="cls-4" points="8.29 0.93 7.86 2.55 4.25 6.15 0.28 6.58 4.25 7.01 7.86 10.62 8.29 12.25 8.72 10.62 12.33 7.01 16.29 6.58 12.33 6.15 8.72 2.55 8.29 0.93"/><polyline points="8.29 3.35 6.97 4.67 7.53 6.15 9.08 6.15 9.63 4.68 8.29 3.35"/><polyline points="10.31 5.36 9.85 6.58 10.41 7.71 11.53 6.58 10.31 5.36"/><polyline points="9.1 7.01 7.5 7.01 6.84 8.38 8.29 9.83 9.75 8.36 9.1 7.01"/><polyline points="6.75 6.59 6.29 5.34 5.05 6.59 6.19 7.72 6.75 6.59"/></svg>