<svg id="Capa_1" data-name="Capa 1" xmlns="http://www.w3.org/2000/svg" viewBox="0 0 13.14 17.47"><defs><style>.cls-1,.cls-2,.cls-4{fill:none;}.cls-1{stroke:#999;stroke-width:0.75px;}.cls-2,.cls-4{stroke:#000;}.cls-2{stroke-width:0.8px;}.cls-3{fill:#fff;}.cls-4{stroke-width:0.36px;}</style></defs><title>10.2.5 Aracnidos</title><path class="cls-1" d="M152.89-173.42v27.88m-270.34-27.9v27.89M57.88-173.44v27.9M318.26,371.82v27.9m-51.62-27.9v27.9M199.82-88.43H369.9M199.82-60.53H369.91M199.82-32.64H369.9M199.82-4.74H369.91M199.82,23.15H369.9M27,469.49H197m-343,0H24.17M27,441.6H197m-343,0H24.17M27,413.7H197m-343,0H24.17M27,385.81H197m-343,0H24.17M27,357.91H197m-343,0H24.17M199.82,330h170.1m-170.1-27.9H369.9M199.82,274.23H369.91m-170.09-27.9H369.9m-170.08-27.9H369.91M199.82,190.54H369.9m-170.08-27.9H369.91M199.82,134.75H369.9M199.82,51.05H369.91M27-88.43H197M27-60.53H197M27-32.64H197M27-4.74H197M27,23.15H197M27,330H197M27,302.12H197M27,274.23H197M27,246.33H197M27,218.43H197M27,190.54H197M27,162.64H197M27,134.75H197M27,51.05H197m-343-139.48H24.14m-170.07,27.9H24.16M-145.93-32.64H24.14M-145.93-4.74H24.16M-145.93,23.15H24.14M-145.93,330H24.17m-170.1-27.9H24.14m-170.07-27.89H24.16m-170.09-27.9H24.14m-170.07-27.9H24.16m-170.09-27.89H24.14m-170.07-27.9H24.16m-170.09-27.89H24.14m175.68-27.91H369.9M199.82,78.94H369.88M27,106.84H197M27,78.94H197m-342.93,27.9H24.15m-170.08-27.9H24.12m-170-27.89H24.16"/><path class="cls-1" d="M-117.45-116.31v613.7M-9.88-116.31V497.4M286.47-173.42v27.85"/><polygon class="cls-2" points="24.14 497.37 24.14 -142.76 -145.94 -142.76 -145.94 497.39 24.14 497.37"/><path class="cls-3" d="M7.47,5.09c0,.62-.29,1.12-.65,1.12s-.66-.5-.66-1.12S6.46,4,6.82,4,7.47,4.47,7.47,5.09Z"/><path class="cls-4" d="M7.47,5.09c0,.62-.29,1.12-.65,1.12s-.66-.5-.66-1.12S6.46,4,6.82,4,7.47,4.47,7.47,5.09Z"/><ellipse class="cls-3" cx="6.82" cy="7.6" rx="0.82" ry="1.4"/><ellipse class="cls-4" cx="6.82" cy="7.6" rx="0.82" ry="1.4"/><path class="cls-3" d="M7.83,10.75c0,1-.45,1.75-1,1.75s-1-.79-1-1.75S6.25,9,6.82,9,7.83,9.79,7.83,10.75Z"/><path class="cls-4" d="M7.83,10.75c0,1-.45,1.75-1,1.75s-1-.79-1-1.75S6.25,9,6.82,9,7.83,9.79,7.83,10.75Z"/><polygon class="cls-3" points="6.14 6.78 3.1 1 6.02 7.25 6.14 6.78"/><polygon class="cls-4" points="6.14 6.78 3.1 1 6.02 7.25 6.14 6.78"/><polygon class="cls-3" points="5.99 7.54 1.44 3.14 6.02 8.01 5.99 7.54"/><polygon class="cls-4" points="5.99 7.54 1.44 3.14 6.02 8.01 5.99 7.54"/><polygon class="cls-3" points="6.16 8.47 2.3 13.8 6.33 8.76 6.16 8.47"/><polygon class="cls-4" points="6.16 8.47 2.3 13.8 6.33 8.76 6.16 8.47"/><polygon class="cls-3" points="5.78 10.78 5.57 10.89 4.57 17.35 5.83 11.23 5.78 10.78"/><polygon class="cls-4" points="5.78 10.78 5.57 10.89 4.57 17.35 5.83 11.23 5.78 10.78"/><polygon class="cls-3" points="7.49 6.78 10.53 1 7.61 7.25 7.49 6.78"/><polygon class="cls-4" points="7.49 6.78 10.53 1 7.61 7.25 7.49 6.78"/><polygon class="cls-3" points="7.64 7.54 12.19 3.14 7.6 8.01 7.64 7.54"/><polygon class="cls-4" points="7.64 7.54 12.19 3.14 7.6 8.01 7.64 7.54"/><polygon class="cls-3" points="7.47 8.47 11.33 13.8 7.29 8.76 7.47 8.47"/><polygon class="cls-4" points="7.47 8.47 11.33 13.8 7.29 8.76 7.47 8.47"/><polygon class="cls-3" points="7.85 10.78 8.05 10.89 9.05 17.35 7.8 11.23 7.85 10.78"/><polygon class="cls-4" points="7.85 10.78 8.05 10.89 9.05 17.35 7.8 11.23 7.85 10.78"/></svg>