<svg id="Capa_1" data-name="Capa 1" xmlns="http://www.w3.org/2000/svg" viewBox="0 0 16.62 16.21"><defs><style>.cls-1,.cls-2,.cls-4{fill:none;}.cls-1{stroke:#999;stroke-width:0.75px;}.cls-2,.cls-4{stroke:#000;}.cls-2{stroke-width:0.8px;}.cls-3{fill:#fff;}.cls-4{stroke-width:0.36px;}</style></defs><title>10.2.18 moluscos</title><path class="cls-1" d="M153.78-536.51v27.88m-270.35-27.9v27.88M58.77-536.53v27.9M319.14,8.72V36.63M267.52,8.72V36.63M200.71-451.52H370.78M200.71-423.63H370.8m-170.09,27.9H370.78M200.71-367.84H370.8m-170.09,27.9H370.78M27.83,106.4h170.1m-343,0H25.05m2.78-27.9h170.1m-343,0H25.05m2.78-27.89h170.1m-343,0H25.05m2.78-27.9h170.1m-343,0H25.05M27.83-5.18h170.1m-343,0H25.05m175.66-27.9h170.1M200.71-61H370.78M200.71-88.87H370.8M200.71-116.76H370.78m-170.07-27.9H370.8M200.71-172.55H370.78m-170.07-27.9H370.8m-170.09-27.9H370.78M200.71-312H370.8m-343-139.47H197.91M27.83-423.63H197.92M27.83-395.73H197.91M27.83-367.84H197.92M27.83-339.94H197.91M27.83-33.08h170.1M27.83-61H197.91M27.83-88.87H197.92M27.83-116.76H197.91M27.83-144.66H197.92M27.83-172.55H197.91M27.83-200.45H197.92M27.83-228.35H197.91M27.83-312H197.92M-145-451.52H25M-145-423.63H25M-145-395.73H25M-145-367.84H25M-145-339.94H25M-145-33.08H25.05M-145-61H25M-145-88.87H25M-145-116.76H25M-145-144.66H25M-145-172.55H25M-145-200.45H25M-145-228.35H25m175.68-27.91H370.79M200.71-284.15h170M27.83-256.26H197.91M27.83-284.15H197.89M-145-256.26H25M-145-284.15H25M-145-312H25"/><path class="cls-1" d="M-116.57-479.6V134.1M-9-479.6V134.12M287.36-536.7v27.85"/><polygon class="cls-2" points="25.03 134.08 25.03 -506.04 -145.05 -506.04 -145.05 134.11 25.03 134.08"/><path class="cls-3" d="M9.52,1.26a20.52,20.52,0,0,1,3.91.3c1.18.42,1,3.36,1,3.36l-12.26,0S1.93,2,3.11,1.56A20.52,20.52,0,0,1,7,1.26"/><path class="cls-4" d="M9.52,1.26a20.52,20.52,0,0,1,3.91.3c1.18.42,1,3.36,1,3.36l-12.26,0S1.93,2,3.11,1.56A20.52,20.52,0,0,1,7,1.26"/><path class="cls-3" d="M8.32.35s6.59,5,7.12,5.3.7,1.67.7,1.67c0,5.47-3.53,8.66-7.88,8.66h0C3.88,16,.35,12.79.35,7.32c0,0,.18-1.38.71-1.67S8.23.35,8.23.35Z"/><path class="cls-4" d="M8.32.35s6.59,5,7.12,5.3.7,1.67.7,1.67c0,5.47-3.53,8.66-7.88,8.66h0C3.88,16,.35,12.79.35,7.32c0,0,.18-1.38.71-1.67S8.23.35,8.23.35Z"/><path class="cls-4" d="M8.23,2.55l2.33,12.58M8.24,2l5.55,10.86M8.23,1.74l7.38,7.38M8.14,2.55,5.81,15.13M8.14,2,2.58,12.85M8.14,1.74.76,9.12"/></svg>