<svg id="Capa_1" data-name="Capa 1" xmlns="http://www.w3.org/2000/svg" viewBox="0 0 17.69 16.53"><defs><style>.cls-1,.cls-2,.cls-3{fill:none;}.cls-1{stroke:#999;stroke-width:0.75px;}.cls-2,.cls-3{stroke:#000;}.cls-2{stroke-width:0.8px;}.cls-3{stroke-width:0.36px;}</style></defs><title>10.2.13 Estromatoporoideos</title><path class="cls-1" d="M154.22-397.19v27.88M-116.13-397.2v27.88M59.21-397.2v27.89M319.58,148.05V176M268,148.05V176M201.15-312.2H371.23M201.15-284.3H371.24M201.15-256.41H371.23m-170.08,27.9H371.24m-170.09,27.9H371.23m-343,446.33h170.1m-343,0H25.49m2.78-27.89h170.1m-343,0H25.49m2.78-27.9h170.1m-343,0H25.49M28.27,162h170.1m-343,0H25.49m2.78-27.9h170.1m-343,0H25.49m175.66-27.89h170.1m-170.1-27.9H371.23M201.15,50.46H371.24M201.15,22.56H371.23M201.15-5.33H371.24M201.15-33.23H371.23M201.15-61.13H371.24M201.15-89H371.23m-170.08-83.7H371.24M28.27-312.2H198.35M28.27-284.3H198.36M28.27-256.41H198.35M28.27-228.51H198.36M28.27-200.61H198.35M28.27,106.25h170.1M28.27,78.35H198.35M28.27,50.46H198.36M28.27,22.56H198.35M28.27-5.33H198.36M28.27-33.23H198.35M28.27-61.13H198.36M28.27-89H198.35M28.27-172.72H198.36m-343-139.48H25.47m-170.08,27.9H25.48m-170.09,27.89H25.47m-170.08,27.9H25.48m-170.09,27.9H25.47M-144.61,106.25H25.49m-170.1-27.9H25.47M-144.61,50.46H25.48m-170.09-27.9H25.47M-144.61-5.33H25.48m-170.09-27.9H25.47m-170.08-27.9H25.48M-144.61-89H25.47m175.68-27.91H371.23M201.15-144.82H371.21M28.27-116.93H198.35M28.27-144.82H198.33m-342.94,27.89H25.47m-170.08-27.89H25.45m-170.06-27.9H25.48"/><path class="cls-1" d="M-116.13-340.27v613.7M-8.56-340.27V273.45M287.8-397.38v27.85"/><polygon class="cls-2" points="25.47 273.41 25.47 -366.72 -144.61 -366.72 -144.61 273.44 25.47 273.41"/><path class="cls-3" d="M8.08,15.9a5,5,0,0,0,2.11-6.1M9.06.41a5,5,0,0,0-2.12,6.1m7-4.36A5,5,0,0,0,8.59,5.82M3.23,14.14a5,5,0,0,0,5.31-3.68m6,3.1a5,5,0,0,0-3.68-5.32M2.56,2.89A5,5,0,0,0,6.24,8.2m10.32-.5A5,5,0,0,0,10.2,6.54M.54,8.63A5,5,0,0,0,6.89,9.79M3.13-14.37l3.39-3.4m4.63-4.63,3.4-3.39m-9.82,5.7h-4m16.15,0h-4M3.13-25.8l3.39,3.4m4.63,4.63,3.4,3.39M8.84-15.94v4m0-16.18v4"/></svg>