<svg id="Capa_1" data-name="Capa 1" xmlns="http://www.w3.org/2000/svg" viewBox="0 0 15.61 17.28"><defs><style>.cls-1,.cls-2,.cls-4{fill:none;}.cls-1{stroke:#999;stroke-width:0.75px;}.cls-2,.cls-4{stroke:#000;}.cls-2{stroke-width:0.8px;}.cls-3{fill:#fff;}.cls-4{stroke-width:0.36px;}</style></defs><title>10.2.10 Briozoos</title><path class="cls-1" d="M153.65-312.3v27.88m-270.34-27.9v27.88M58.64-312.32v27.9M319,232.93v27.91M267.4,232.93v27.91M200.58-227.31H370.66M200.58-199.42H370.67m-170.09,27.9H370.66M200.58-143.63H370.67m-170.09,27.9H370.66M27.7,330.61H197.8m-343,0H24.92m2.78-27.9H197.8m-343,0H24.92m2.78-27.89H197.8m-343,0H24.92m2.78-27.9H197.8m-343,0H24.92M27.7,219H197.8m-343,0H24.92m175.66-27.9h170.1m-170.1-27.89H370.66m-170.08-27.9H370.67M200.58,107.45H370.66M200.58,79.55H370.67M200.58,51.66H370.66M200.58,23.76H370.67M200.58-4.14H370.66M200.58-87.84H370.67M27.7-227.31H197.78M27.7-199.42H197.79M27.7-171.52H197.78M27.7-143.63H197.79M27.7-115.73H197.78M27.7,191.13H197.8M27.7,163.24H197.78M27.7,135.34H197.79M27.7,107.45H197.78M27.7,79.55H197.79M27.7,51.66H197.78M27.7,23.76H197.79M27.7-4.14H197.78M27.7-87.84H197.79m-343-139.47H24.9m-170.07,27.89H24.91m-170.08,27.9H24.9m-170.07,27.89H24.91m-170.08,27.9H24.9M-145.17,191.13H24.92m-170.09-27.89H24.9m-170.07-27.9H24.91m-170.08-27.89H24.9m-170.07-27.9H24.91M-145.17,51.66H24.9m-170.07-27.9H24.91M-145.17-4.14H24.9M200.58-32H370.66M200.58-59.94H370.64M27.7-32H197.78M27.7-59.94H197.76M-145.17-32H24.9M-145.17-59.94h170m-170-27.9H24.91"/><path class="cls-1" d="M-116.69-255.39v613.7M-9.12-255.39V358.33M287.23-312.49v27.85"/><polygon class="cls-2" points="24.9 358.3 24.9 -281.83 -145.18 -281.83 -145.18 358.32 24.9 358.3"/><path class="cls-3" d="M2.22.75.84,2.19,3.21,3.74s3.1,1.88,4,4.14a11.54,11.54,0,0,1,.5,4c-.05.77-.22,4.75-.22,4.75l1.77.23,0-6.14a18.76,18.76,0,0,1,.45-2.59c.38-1.33,2.18-2.46,2.65-3a23.62,23.62,0,0,1,2.87-2.38l-.94-1.33L11.06,3.79S9.63,5.28,8.47,5.28,6.92,4.62,6.36,4.12,2.22.75,2.22.75Z"/><path class="cls-4" d="M2.22.75.84,2.19,3.21,3.74s3.1,1.88,4,4.14a11.54,11.54,0,0,1,.5,4c-.05.77-.22,4.75-.22,4.75l1.77.23,0-6.14a18.76,18.76,0,0,1,.45-2.59c.38-1.33,2.18-2.46,2.65-3a23.62,23.62,0,0,1,2.87-2.38l-.94-1.33L11.06,3.79S9.63,5.28,8.47,5.28,6.92,4.62,6.36,4.12,2.22.75,2.22.75Z"/></svg>