<svg id="Capa_1" data-name="Capa 1" xmlns="http://www.w3.org/2000/svg" viewBox="0 0 16.73 6.91"><defs><style>.cls-1,.cls-2,.cls-4{fill:none;}.cls-1{stroke:#999;stroke-width:0.75px;}.cls-2,.cls-4{stroke:#000;}.cls-2{stroke-width:0.8px;}.cls-3{fill:#fff;}.cls-4{stroke-width:0.36px;}</style></defs><title>10.2.54 Palinomorfos</title><path class="cls-1" d="M-191.14-317.61v27.88m-270.35-27.9v27.89m175.33-27.89v27.9M-25.78,227.63v27.9m-51.62-27.9v27.9m-66.81-488.15H25.86m-170.07,27.9H25.87m-170.08,27.89H25.86m-170.07,27.9H25.87M-144.21-121H25.86M-317.09,325.3H-147m-343,0h170.1m2.78-27.89H-147m-343,0h170.1m2.78-27.9H-147m-343,0h170.1m2.78-27.89H-147m-343,0h170.1m2.78-27.9H-147m-343,0h170.1m175.66-27.89H25.89m-170.1-27.9H25.86M-144.21,130H25.87m-170.08-27.9H25.86m-170.07-27.9H25.87M-144.21,46.35H25.86m-170.07-27.9H25.87M-144.21-9.44H25.86m-170.07-83.7H25.87m-343-139.48H-147m-170.08,27.9H-147m-170.09,27.89H-147m-170.08,27.9H-147M-317.09-121H-147M-317.09,185.83H-147m-170.1-27.9H-147M-317.09,130H-147m-170.09-27.9H-147m-170.08-27.9H-147M-317.09,46.35H-147m-170.08-27.9H-147M-317.09-9.44H-147m-170.08-83.7H-147M-490-232.62h170.08M-490-204.72h170.09M-490-176.83h170.08M-490-148.93h170.09M-490-121h170.08M-490,185.83h170.1M-490,157.93h170.08M-490,130h170.09M-490,102.14h170.08M-490,74.24h170.09M-490,46.35h170.08M-490,18.45h170.09M-490-9.44h170.08m175.68-27.91H25.86m-170.07-27.9H25.84m-342.93,27.9H-147m-170.08-27.9H-147M-490-37.35h170.08M-490-65.25h170.06M-490-93.14h170.09"/><path class="cls-2" d="M25.87,255.33v-41.8H-144.21v41.83Zm0,97.64V255.34H-144.21V353Zm0-139.46V-287.14H-144.22V213.54Z"/><path class="cls-3" d="M8.32,5.45a2,2,0,1,0-2-2A2,2,0,0,0,8.32,5.45Z"/><path class="cls-4" d="M8.32,5.45a2,2,0,1,0-2-2A2,2,0,0,0,8.32,5.45Z"/><path class="cls-3" d="M13.23,6.43a3,3,0,1,0-3-3A3,3,0,0,0,13.23,6.43Z"/><path class="cls-4" d="M13.23,6.43a3,3,0,1,0-3-3A3,3,0,0,0,13.23,6.43Z"/><path class="cls-3" d="M3.39,6.43a3,3,0,1,0-2.95-3A3,3,0,0,0,3.39,6.43Z"/><path class="cls-4" d="M3.39,6.43a3,3,0,1,0-2.95-3A3,3,0,0,0,3.39,6.43Z"/></svg>