<svg id="Capa_1" data-name="Capa 1" xmlns="http://www.w3.org/2000/svg" viewBox="0 0 17.12 16.59"><defs><style>.cls-1,.cls-2,.cls-4{fill:none;}.cls-1{stroke:#999;stroke-width:0.75px;}.cls-2,.cls-4{stroke:#000;}.cls-2{stroke-width:0.8px;}.cls-3{fill:#fff;}.cls-4{stroke-width:0.36px;}</style></defs><title>10.2.16 Equinoideos</title><path class="cls-1" d="M154.41-480.94V-453m-270.35-27.9v27.88M59.4-480.95V-453M319.77,64.3V92.21M268.15,64.3V92.21M201.34-395.94H371.42M201.34-368H371.43m-170.09,27.9H371.42M201.34-312.26H371.43m-170.09,27.9H371.42M28.46,162h170.1m-343,0H25.68m2.78-27.9h170.1m-343,0H25.68m2.78-27.89h170.1m-343,0H25.68m2.78-27.9h170.1m-343,0H25.68M28.46,50.4h170.1m-343,0H25.68M201.34,22.5h170.1M201.34-5.4H371.42M201.34-33.29H371.43M201.34-61.18H371.42M201.34-89.08H371.43M201.34-117H371.42M201.34-144.87H371.43m-170.09-27.9H371.42m-170.08-83.7H371.43m-343-139.47H198.54M28.46-368H198.55M28.46-340.15H198.54M28.46-312.26H198.55M28.46-284.36H198.54M28.46,22.5h170.1M28.46-5.4H198.54M28.46-33.29H198.55M28.46-61.18H198.54M28.46-89.08H198.55M28.46-117H198.54M28.46-144.87H198.55M28.46-172.77H198.54M28.46-256.47H198.55m-343-139.47H25.66M-144.42-368H25.67m-170.09,27.9H25.66m-170.08,27.89H25.67m-170.09,27.9H25.66M-144.42,22.5H25.68M-144.42-5.4H25.66M-144.42-33.29H25.67M-144.42-61.18H25.66m-170.08-27.9H25.67M-144.42-117H25.66m-170.08-27.89H25.67m-170.09-27.9H25.66m175.68-27.91H371.42M201.34-228.57H371.4M28.46-200.68H198.54M28.46-228.57H198.52m-342.94,27.89H25.66m-170.08-27.89H25.64m-170.06-27.9H25.67"/><path class="cls-1" d="M-115.94-424v613.7M-8.37-424V189.7M288-481.12v27.85"/><polygon class="cls-2" points="25.66 189.66 25.66 -450.46 -144.42 -450.46 -144.42 189.69 25.66 189.66"/><path class="cls-3" d="M16.52,8.32a8,8,0,1,1-8-8A8,8,0,0,1,16.52,8.32Z"/><path class="cls-4" d="M16.52,8.32a8,8,0,1,1-8-8A8,8,0,0,1,16.52,8.32Z"/><path class="cls-4" d="M15,35l-1.78,2.42m-2.44-3-2.38,3M7.17,33.84,4,37.46m-3.35,0H17.25M7.19,8.26S3.43,6.38,2.25,7.84m4.94.85s-3.76,1.89-4.94.44m7.59-.87s3.77-1.88,4.95-.42m-4.95.85s3.77,1.89,4.95.44m-5.47.42s4,1.33,3.8,3.2M9,9.86s1.33,4,3.19,3.8M8.12,9.91s-1.33,4-3.2,3.8m2.89-4.1s-4,1.33-3.8,3.19M8.3,7.87S6.42,4.1,7.87,2.92m.86,5s1.88-3.77.43-4.95"/></svg>