<svg id="Capa_1" data-name="Capa 1" xmlns="http://www.w3.org/2000/svg" viewBox="0 0 9.23 16.65"><defs><style>.cls-1,.cls-2,.cls-4{fill:none;}.cls-1{stroke:#999;stroke-width:0.75px;}.cls-2,.cls-4{stroke:#000;}.cls-2{stroke-width:0.8px;}.cls-3{fill:#fff;}.cls-4{stroke-width:0.36px;}</style></defs><title>10.2.23 Gastrópodos</title><path class="cls-1" d="M-23.13-62.58V-34.7M-293.47-62.59v27.88m175.33-27.88V-34.7M142.24,482.66v27.91M90.62,482.66v27.91M23.8,22.41H193.88M23.8,50.31H193.89M23.8,78.2H193.88M23.8,106.1H193.89M23.8,134H193.88m-343,446.34H21m-343,0h170.1m2.77-27.9H21m-343,0h170.1m2.77-27.9H21m-343,0h170.1m2.77-27.89H21m-343,0h170.1m2.77-27.9H21m-343,0h170.1M23.8,440.86H193.9M23.8,413H193.88M23.8,385.07H193.89M23.8,357.17H193.88M23.8,329.28H193.89M23.8,301.38H193.88M23.8,273.49H193.89M23.8,245.59H193.88M23.8,161.89H193.89m-343-139.48H21m-170.08,27.9H21M-149.08,78.2H21m-170.08,27.9H21M-149.08,134H21M-149.08,440.86H21M-149.08,413H21m-170.08-27.89H21m-170.09-27.9H21m-170.08-27.89H21m-170.09-27.9H21m-170.08-27.89H21m-170.09-27.9H21m-170.08-83.7H21m-343-139.48h170.07m-170.07,27.9h170.08M-321.95,78.2h170.07m-170.07,27.9h170.08M-321.95,134h170.07M-321.95,440.86h170.1M-321.95,413h170.07m-170.07-27.89h170.08m-170.08-27.9h170.07m-170.07-27.89h170.08m-170.08-27.9h170.07m-170.07-27.89h170.08m-170.08-27.9h170.07M23.8,217.68H193.88M23.8,189.79H193.86m-342.94,27.89H21m-170.08-27.89H21m-342.93,27.89h170.07m-170.07-27.89h170m-170-27.9h170.08"/><path class="cls-1" d="M-293.47-5.66V608M-185.9-5.66V608.06M110.45-62.77v27.85"/><polygon class="cls-2" points="21 608.02 21 -32.11 -149.08 -32.11 -149.08 608.05 21 608.02"/><path class="cls-3" d="M3.38,13.79c1.28.05,1.82.85,1.77,1.51s-.93,1.06-2,1A2.52,2.52,0,0,1,.68,15C0,13.93.86,9.67,1.74,7S4.44.77,5.06.5s.49,3.73,1.33,5.94,2.31,4.3,2.31,4.61c0,.66-1.6,1.5-2,1.9a8.73,8.73,0,0,0-1.59,1.86"/><path class="cls-4" d="M3.38,13.79c1.28.05,1.82.85,1.77,1.51s-.93,1.06-2,1A2.52,2.52,0,0,1,.68,15C0,13.93.86,9.67,1.74,7S4.44.77,5.06.5s.49,3.73,1.33,5.94,2.31,4.3,2.31,4.61c0,.66-1.6,1.5-2,1.9a8.73,8.73,0,0,0-1.59,1.86"/><path class="cls-4" d="M3,3.86a1.76,1.76,0,0,1,1.36-.62,5.3,5.3,0,0,1,1.33.09m-4,3.83A4.71,4.71,0,0,1,3.87,5.81a4.48,4.48,0,0,1,2.27-.09M.89,10.15A3.75,3.75,0,0,1,2.83,8.49,9.87,9.87,0,0,1,4.58,7.9,5,5,0,0,1,7,7.84M.55,12.55a3.81,3.81,0,0,1,2-1.87,19.87,19.87,0,0,1,2.27-.8,8.28,8.28,0,0,1,3-.35M.5,14.42c.24-1.17,2.33-1.89,3.37-2.3a10,10,0,0,1,4.65-.85"/></svg>