<svg id="Capa_1" data-name="Capa 1" xmlns="http://www.w3.org/2000/svg" viewBox="0 0 20.49 10.94"><defs><style>.cls-1,.cls-2,.cls-4{fill:none;}.cls-1{stroke:#999;stroke-width:0.75px;}.cls-2,.cls-4{stroke:#000;}.cls-2{stroke-width:0.8px;}.cls-3{fill:#fff;}.cls-4{stroke-width:0.36px;}</style></defs><title>10.2.28 Peces</title><path class="cls-1" d="M-17.49-205v27.88M-287.84-205v27.88M-112.5-205v27.9M147.87,340.21v27.9m-51.62-27.9v27.9M29.44-120H199.52M29.44-92.14H199.53M29.44-64.25H199.52M29.44-36.35H199.53M29.44-8.46H199.52m-343,446.34H26.66m-343,0h170.1m2.78-27.89H26.66m-343,0h170.1m2.78-27.9H26.66m-343,0h170.1m2.78-27.89H26.66m-343,0h170.1m2.78-27.9H26.66m-343,0h170.1M29.44,298.41h170.1m-170.1-27.9H199.52M29.44,242.61H199.53M29.44,214.72H199.52M29.44,186.82H199.53M29.44,158.93H199.52M29.44,131H199.53M29.44,103.14H199.52M29.44,19.44H199.53M-143.44-120H26.64m-170.08,27.9H26.65M-143.44-64.25H26.64m-170.08,27.9H26.65M-143.44-8.46H26.64M-143.44,298.41H26.66m-170.1-27.9H26.64m-170.08-27.9H26.65m-170.09-27.89H26.64m-170.08-27.9H26.65m-170.09-27.89H26.64M-143.44,131H26.65m-170.09-27.89H26.64m-170.08-83.7H26.65M-316.32-120h170.08m-170.08,27.9h170.09M-316.32-64.25h170.08m-170.08,27.9h170.09M-316.32-8.46h170.08M-316.32,298.41h170.1m-170.1-27.9h170.08m-170.08-27.9h170.09m-170.09-27.89h170.08m-170.08-27.9h170.09m-170.09-27.89h170.08M-316.32,131h170.09m-170.09-27.89h170.08M29.44,75.23H199.52M29.44,47.33H199.5m-342.94,27.9H26.64m-170.08-27.9H26.62m-342.94,27.9h170.08m-170.08-27.9h170.06M-316.32,19.44h170.09"/><path class="cls-1" d="M-287.84-148.11v613.7m107.57-613.7V465.6M116.09-205.22v27.85"/><polygon class="cls-2" points="26.64 465.57 26.64 -174.56 -143.44 -174.56 -143.44 465.59 26.64 465.57"/><path class="cls-3" d="M4.23,5.54C6.39,4.29,9.18,3.07,11.6,3.07c4.57,0,8.53,3.2,8.53,3.2a18.94,18.94,0,0,1-8.29,2.1A13.78,13.78,0,0,1,4.3,5.59Z"/><path class="cls-4" d="M4.23,5.54C6.39,4.29,9.18,3.07,11.6,3.07c4.57,0,8.53,3.2,8.53,3.2a18.94,18.94,0,0,1-8.29,2.1A13.78,13.78,0,0,1,4.3,5.59Z"/><path class="cls-4" d="M.44,8.42A15.66,15.66,0,0,1,4.18,5.56l.05,0A12,12,0,0,1,.8,2"/><polygon points="13.17 8.29 10.75 10.6 11.65 8.38 13.17 8.29"/><polygon class="cls-4" points="13.17 8.29 10.75 10.6 11.65 8.38 13.17 8.29"/><polygon points="12.67 3.12 12.57 0.73 14.06 3.35 12.67 3.12"/><polygon class="cls-4" points="12.67 3.12 12.57 0.73 14.06 3.35 12.67 3.12"/></svg>