<svg id="Capa_1" data-name="Capa 1" xmlns="http://www.w3.org/2000/svg" viewBox="0 0 11.04 17.14"><defs><style>.cls-1,.cls-2,.cls-4{fill:none;}.cls-1{stroke:#999;stroke-width:0.75px;}.cls-2,.cls-4{stroke:#000;}.cls-2{stroke-width:0.8px;}.cls-3{fill:#fff;}.cls-4{stroke-width:0.36px;}</style></defs><title>10.2.56 Quitinozoos</title><path class="cls-1" d="M-193.8-369.34v27.89m-270.34-27.9v27.88m175.33-27.88v27.9M-28.43,175.9v27.91M-80,175.9v27.91m-66.82-488.15H23.21m-170.08,27.89H23.22m-170.09,27.9H23.21m-170.08,27.89H23.22m-170.09,27.9H23.21M-319.74,273.58h170.09m-343,0h170.1m2.78-27.9h170.09m-343,0h170.1m2.78-27.89h170.09m-343,0h170.1m2.78-27.9h170.09m-343,0h170.1m2.78-27.89h170.09m-343,0h170.1m175.65-27.9H23.23m-170.1-27.9H23.21M-146.87,78.31H23.22M-146.87,50.42H23.21m-170.08-27.9H23.22M-146.87-5.38H23.21M-146.87-33.27H23.22m-170.09-27.9H23.21m-170.08-83.7H23.22m-343-139.47h170.07m-170.07,27.89h170.08m-170.08,27.9h170.07m-170.07,27.89h170.08m-170.08,27.9h170.07M-319.74,134.1h170.09m-170.09-27.9h170.07M-319.74,78.31h170.08M-319.74,50.42h170.07m-170.07-27.9h170.08M-319.74-5.38h170.07M-319.74-33.27h170.08m-170.08-27.9h170.07m-170.07-83.7h170.08m-343-139.47h170.07m-170.07,27.89h170.09m-170.09,27.9h170.07m-170.07,27.89h170.09m-170.09,27.9h170.07M-492.62,134.1h170.1m-170.1-27.9h170.07M-492.62,78.31h170.09M-492.62,50.42h170.07m-170.07-27.9h170.09M-492.62-5.38h170.07M-492.62-33.27h170.09m-170.09-27.9h170.07m175.68-27.91H23.21M-146.87-117H23.19M-319.74-89.08h170.07M-319.74-117h170.05M-492.62-89.08h170.08M-492.62-117h170.05m-170-27.9h170.09"/><path class="cls-2" d="M23.22,203.61v-41.8H-146.86v41.82Zm0,97.63V203.62H-146.86v97.65Zm0-139.45V-338.86H-146.87V161.81Z"/><path class="cls-3" d="M8.33.86s-1.73,7-.9,9,3.09,3.41,3.09,4.49S8.61,16.6,5.8,16.6s-4.72-1.22-4.72-2.29S3.33,11.8,4.16,9.82s-.89-9-.89-9Z"/><path class="cls-4" d="M8.33.86s-1.73,7-.9,9,3.09,3.41,3.09,4.49S8.61,16.6,5.8,16.6s-4.72-1.22-4.72-2.29S3.33,11.8,4.16,9.82s-.89-9-.89-9Z"/></svg>