<svg id="Capa_1" data-name="Capa 1" xmlns="http://www.w3.org/2000/svg" viewBox="0 0 14.98 16.4"><defs><style>.cls-1,.cls-2,.cls-4{fill:none;}.cls-1{stroke:#999;stroke-width:0.75px;}.cls-2,.cls-4{stroke:#000;}.cls-2{stroke-width:0.8px;}.cls-3{fill:#fff;}.cls-4{stroke-width:0.36px;}</style></defs><title>10.2.22 Nautiloideos</title><path class="cls-1" d="M-116.76-590.82V22.88M-9.19-590.82V22.9M287.17-647.92v27.85"/><polygon class="cls-2" points="24.84 22.86 24.84 -617.26 -145.24 -617.26 -145.24 22.89 24.84 22.86"/><path class="cls-3" d="M10.74,1.42a8,8,0,1,1-9.9,12.5,5.54,5.54,0,0,1,.92-2.87A7.42,7.42,0,0,1,4,8.77a5,5,0,0,1,6.67-7.39Z"/><path class="cls-4" d="M10.74,1.42a8,8,0,1,1-9.9,12.5,5.54,5.54,0,0,1,.92-2.87A7.42,7.42,0,0,1,4,8.77a5,5,0,0,1,6.67-7.39Z"/><path d="M7.84,5.48a.38.38,0,1,1-.37-.37A.38.38,0,0,1,7.84,5.48Z"/><path class="cls-4" d="M7.84,5.48a.38.38,0,1,1-.37-.37A.38.38,0,0,1,7.84,5.48Z"/><path class="cls-4" d="M12.18,13.62c1.55-1.71.37-8.77-4.56-8.14m5.9-1c-.77-1.51-5.07-1.66-6,.9M8.39.56c-1.48-.07-2.57,3-1,4.87M3.64,2.87c-.57.83.85,3,3.76,2.64M4,8.77l3.7-3"/></svg>