<svg id="Capa_1" data-name="Capa 1" xmlns="http://www.w3.org/2000/svg" viewBox="0 0 14.66 16.91"><defs><style>.cls-1,.cls-2,.cls-4{fill:none;}.cls-1{stroke:#999;stroke-width:0.75px;}.cls-2,.cls-4{stroke:#000;}.cls-2{stroke-width:0.8px;}.cls-3{fill:#fff;}.cls-4{stroke-width:0.36px;}</style></defs><title>10.2.8 Trilobites</title><path class="cls-1" d="M152.7-257v27.88M-117.64-257v27.88M57.69-257v27.89M318.07,288.26v27.91m-51.62-27.91v27.91M199.63-172H369.71m-170.08,27.9H369.72M199.63-116.2H369.71M199.63-88.3H369.72M199.63-60.4H369.71M26.76,385.94H196.85m-343,0H24M26.76,358H196.85m-343,0H24m2.78-27.9H196.85m-343,0H24m2.78-27.89H196.85m-343,0H24m2.78-27.9H196.85m-343,0H24m175.65-27.89h170.1m-170.1-27.9H369.71M199.63,190.67H369.72m-170.09-27.9H369.71M199.63,134.88H369.72M199.63,107H369.71M199.63,79.09H369.72M199.63,51.19H369.71M199.63-32.51H369.72M26.76-172H196.83M26.76-144.09H196.84M26.76-116.2H196.83M26.76-88.3H196.84M26.76-60.4H196.83M26.76,246.46H196.85M26.76,218.56H196.83M26.76,190.67H196.84M26.76,162.77H196.83M26.76,134.88H196.84M26.76,107H196.83M26.76,79.09H196.84M26.76,51.19H196.83M26.76-32.51H196.84M-146.12-172H24m-170.07,27.9H24M-146.12-116.2H24M-146.12-88.3H24M-146.12-60.4H24M-146.12,246.46H24m-170.1-27.9H24m-170.07-27.89H24m-170.09-27.9H24m-170.07-27.89H24M-146.12,107H24M-146.12,79.09H24m-170.09-27.9H24M199.63,23.28H369.71M199.63-4.61H369.69M26.76,23.28H196.83M26.76-4.61H196.81M-146.12,23.28H24M-146.12-4.61H23.93m-170-27.9H24"/><path class="cls-1" d="M-117.64-200.06v613.7m107.57-613.7V413.66M286.28-257.17v27.85"/><polygon class="cls-2" points="23.95 413.62 23.95 -226.51 -146.13 -226.51 -146.13 413.65 23.95 413.62"/><path class="cls-3" d="M12.25,6.12c0,4.51-3.43,8.16-4.87,8.16-1.29,0-4.87-3.65-4.87-8.16Z"/><path class="cls-4" d="M12.25,6.12c0,4.51-3.43,8.16-4.87,8.16-1.29,0-4.87-3.65-4.87-8.16Z"/><path class="cls-3" d="M13.08,6.12l.68,2v-2c0-2.79-2.86-5.06-6.38-5.06S1,3.33,1,6.12H1v2l.69-2H13.08Z"/><path class="cls-4" d="M13.08,6.12l.68,2v-2c0-2.79-2.86-5.06-6.38-5.06S1,3.33,1,6.12H1v2l.69-2H13.08Z"/><path class="cls-3" d="M8.73,6.15c0-5.07-.61-4.54-1.35-4.54S6,1.08,6,6.15a32.7,32.7,0,0,0,1.35,9.18A32.7,32.7,0,0,0,8.73,6.15Z"/><path class="cls-4" d="M8.73,6.15c0-5.07-.61-4.54-1.35-4.54S6,1.08,6,6.15a32.7,32.7,0,0,0,1.35,9.18A32.7,32.7,0,0,0,8.73,6.15Z"/><path class="cls-4" d="M9,3.34a1.22,1.22,0,0,1,.41,2.23M5.81,3.34a1.22,1.22,0,0,0-.4,2.23m2.52,7.66L8.2,14l-.47,2.8M8.35,11l2.32.34,1,2.16M8.11,12.36l1.36.55.74,2.28M8.56,9.3h3.11l1.05,2.18m-4-4.06h3.45l1.07,1.73M6.83,13.23,6.56,14,7,16.78M6.41,11l-2.32.34-1,2.16m3.55-1.13-1.36.55-.74,2.28M6.2,9.3H3.09L2,11.48m4-4.06H2.61L1.54,9.15"/></svg>