<svg id="Capa_1" data-name="Capa 1" xmlns="http://www.w3.org/2000/svg" viewBox="0 0 17.14 7.02"><defs><style>.cls-1,.cls-2,.cls-4{fill:none;}.cls-1{stroke:#999;stroke-width:0.75px;}.cls-2,.cls-4{stroke:#000;}.cls-2{stroke-width:0.8px;}.cls-3{fill:#fff;}.cls-4{stroke-width:0.36px;}</style></defs><title>10.2.34 Madera</title><path class="cls-1" d="M-19.13-373.66v27.88m-270.35-27.9v27.88m175.33-27.88v27.9M146.23,171.58v27.9m-51.62-27.9v27.9M27.8-288.67H197.87M27.8-260.78H197.88M27.8-232.88H197.87M27.8-205H197.88M27.8-177.09H197.87m-343,446.34H25m-343,0h170.1m2.78-27.89H25m-343,0h170.1m2.78-27.9H25m-343,0h170.1m2.78-27.89H25m-343,0h170.1m2.78-27.9H25m-343,0h170.1M27.8,129.77H197.9M27.8,101.88H197.87M27.8,74H197.88M27.8,46.09H197.87M27.8,18.19H197.88M27.8-9.7H197.87M27.8-37.6H197.88M27.8-65.49H197.87M27.8-149.19H197.88m-343-139.48H25m-170.08,27.89H25m-170.09,27.9H25M-145.08-205H25m-170.09,27.89H25M-145.08,129.77H25m-170.1-27.89H25M-145.08,74H25M-145.08,46.09H25m-170.08-27.9H25M-145.08-9.7H25M-145.08-37.6H25M-145.08-65.49H25m-170.08-83.7H25M-318-288.67h170.08M-318-260.78h170.09M-318-232.88h170.08M-318-205h170.09M-318-177.09h170.08M-318,129.77h170.1M-318,101.88h170.08M-318,74h170.09M-318,46.09h170.08M-318,18.19h170.09M-318-9.7h170.08M-318-37.6h170.09M-318-65.49h170.08M27.8-93.4H197.87M27.8-121.3h170M-145.08-93.4H25m-170.08-27.9H25M-318-93.4h170.08M-318-121.3H-147.9M-318-149.19h170.09"/><path class="cls-1" d="M-289.48-316.74V297m107.57-613.7V297M114.45-373.85V-346"/><polygon class="cls-2" points="24.99 296.94 24.99 -343.19 -145.08 -343.19 -145.08 296.96 24.99 296.94"/><path class="cls-3" d="M.71,4.66c0,1.23.68,1.86,2.07,1.86s11.68,0,12.71,0,1.32-1,1.29-1.71A1.78,1.78,0,0,0,15.1,3.1c-1.1,0-5,0-5,0a3.94,3.94,0,0,0,.07-1.57A3.68,3.68,0,0,0,7.3.39C6.21.44,5.75,1.6,5.2,2.54c-.27.46-1.94.31-2.69.31A1.72,1.72,0,0,0,.71,4.66Z"/><path class="cls-4" d="M.71,4.66c0,1.23.68,1.86,2.07,1.86s11.68,0,12.71,0,1.32-1,1.29-1.71A1.78,1.78,0,0,0,15.1,3.1c-1.1,0-5,0-5,0a3.94,3.94,0,0,0,.07-1.57A3.68,3.68,0,0,0,7.3.39C6.21.44,5.75,1.6,5.2,2.54c-.27.46-1.94.31-2.69.31A1.72,1.72,0,0,0,.71,4.66Z"/><path class="cls-4" d="M11.74,4.24l2.47,0M7.42,5.5h3.13M3.86,3.78H6.33M1.83,3c.58-.2.84,1,.84,1.62,0,.89-.11,2-.73,1.8M6.17,1c-.4.61,1.08,1.07,1.57,1,.8-.05,2.45,0,2.37-.6"/></svg>