<svg id="Capa_1" data-name="Capa 1" xmlns="http://www.w3.org/2000/svg" viewBox="0 0 19.98 17.88"><defs><style>.cls-1,.cls-2,.cls-4{fill:none;}.cls-1{stroke:#999;stroke-width:0.75px;}.cls-2,.cls-4{stroke:#000;}.cls-2{stroke-width:0.8px;}.cls-3{fill:#fff;}.cls-4{stroke-width:0.36px;}</style></defs><title>10.2.30 Reptiles</title><path class="cls-1" d="M-17.49-257.32v27.88m-270.35-27.9v27.88m175.34-27.88v27.9M147.87,287.91v27.91M96.25,287.91v27.91M29.44-172.33H199.52M29.44-144.44H199.53M29.44-116.54H199.52M29.44-88.65H199.53M29.44-60.75H199.52m-343,446.34H26.66m-343,0h170.1m2.78-27.9H26.66m-343,0h170.1m2.78-27.89H26.66m-343,0h170.1m2.78-27.9H26.66m-343,0h170.1m2.78-27.89H26.66m-343,0h170.1m175.66-27.9h170.1M29.44,218.22H199.52M29.44,190.32H199.53M29.44,162.43H199.52M29.44,134.53H199.53M29.44,106.64H199.52M29.44,78.74H199.53M29.44,50.84H199.52M29.44-32.86H199.53m-343-139.47H26.64m-170.08,27.89H26.65m-170.09,27.9H26.64M-143.44-88.65H26.65m-170.09,27.9H26.64M-143.44,246.11H26.66m-170.1-27.89H26.64m-170.08-27.9H26.65m-170.09-27.89H26.64m-170.08-27.9H26.65m-170.09-27.89H26.64m-170.08-27.9H26.65m-170.09-27.9H26.64m-170.08-83.7H26.65m-343-139.47h170.08m-170.08,27.89h170.09m-170.09,27.9h170.08M-316.32-88.65h170.09m-170.09,27.9h170.08M-316.32,246.11h170.1m-170.1-27.89h170.08m-170.08-27.9h170.09m-170.09-27.89h170.08m-170.08-27.9h170.09m-170.09-27.89h170.08m-170.08-27.9h170.09m-170.09-27.9h170.08M29.44,22.93H199.52M29.44-5H199.5M-143.44,22.93H26.64M-143.44-5H26.62M-316.32,22.93h170.08M-316.32-5h170.06m-170.06-27.9h170.09"/><path class="cls-1" d="M-287.84-200.41v613.7m107.57-613.7V413.31M116.09-257.51v27.85"/><polygon class="cls-2" points="26.64 413.27 26.64 -226.85 -143.44 -226.85 -143.44 413.3 26.64 413.27"/><path class="cls-3" d="M10.59,3.17a1.75,1.75,0,0,0-1,0c-.36.11-.49.29-.51.49"/><path class="cls-4" d="M10.59,3.17a1.75,1.75,0,0,0-1,0c-.36.11-.49.29-.51.49"/><path class="cls-3" d="M6.16,4.74a2.84,2.84,0,0,0-1.42,0,1.43,1.43,0,0,0-.63,1.13"/><path class="cls-4" d="M6.16,4.74a2.84,2.84,0,0,0-1.42,0,1.43,1.43,0,0,0-.63,1.13"/><path class="cls-3" d="M18.71.6c-.41-.09-1.35.49-1.76.49s-.38-.31-.85,0,0-.63-.93,0A25.65,25.65,0,0,1,12,2.65c-1.06.5-3.72,1.17-4.91,1.69A14.06,14.06,0,0,0,2.39,7.21C1,8.68-.25,10.55.61,12.92a6.13,6.13,0,0,0,5.67,4.15c2.82.16,4.89-.4,4.89-.74s-.88-.75-2.82-.75-5.23-.81-5.64-1.71S4.45,9.24,5.49,9.15,7.54,9.36,8.33,9a1.3,1.3,0,0,0,.25-.2l0,1.15.66.59,1.13,0,.56.32-.32-.52.84.06-.57-.26.8-.05L11,9.92l.77-.2-1.65-.07V8.52a4.49,4.49,0,0,0,1.67-.77,8.83,8.83,0,0,1,2.37-1.83.6.6,0,0,1,.64.27c.22.55.17,1.56.51,1.69a4.76,4.76,0,0,0,1.47.19l-.43-.36.82.11-.5-.27.74,0-.61-.21.52-.16L16,7.21l0-.72A3.18,3.18,0,0,0,15.58,5c-.34-.36,1.21-.72,1.08-1.33s.59-.18.83-.93S19.12,2,19.1,1.59s.27-.41.15-.66A.64.64,0,0,0,18.71.6Z"/><path class="cls-4" d="M18.71.6c-.41-.09-1.35.49-1.76.49s-.38-.31-.85,0,0-.63-.93,0A25.65,25.65,0,0,1,12,2.65c-1.06.5-3.72,1.17-4.91,1.69A14.06,14.06,0,0,0,2.39,7.21C1,8.68-.25,10.55.61,12.92a6.13,6.13,0,0,0,5.67,4.15c2.82.16,4.89-.4,4.89-.74s-.88-.75-2.82-.75-5.23-.81-5.64-1.71S4.45,9.24,5.49,9.15,7.54,9.36,8.33,9a1.3,1.3,0,0,0,.25-.2l0,1.15.66.59,1.13,0,.56.32-.32-.52.84.06-.57-.26.8-.05L11,9.92l.77-.2-1.65-.07V8.52a4.49,4.49,0,0,0,1.67-.77,8.83,8.83,0,0,1,2.37-1.83.6.6,0,0,1,.64.27c.22.55.17,1.56.51,1.69a4.76,4.76,0,0,0,1.47.19l-.43-.36.82.11-.5-.27.74,0-.61-.21.52-.16L16,7.21l0-.72A3.18,3.18,0,0,0,15.58,5c-.34-.36,1.21-.72,1.08-1.33s.59-.18.83-.93S19.12,2,19.1,1.59s.27-.41.15-.66A.64.64,0,0,0,18.71.6Z"/><path class="cls-4" d="M3.71,14.63c-1-.43-3.44-2.11-3.38-3.25m18.81-10-.5.1-.4.39h-.5l-.47.54L16,2.31l-.45.61m0,2c-.38-.54-.79-1.19-1.23-1.18s-1,.32-1,.74m-3.19,4,0-.84A2.38,2.38,0,0,0,8.15,6.56c-1.15.11-1.73.56-1.9,1"/></svg>