<svg id="Capa_1" data-name="Capa 1" xmlns="http://www.w3.org/2000/svg" viewBox="0 0 21.06 17.63"><defs><style>.cls-1,.cls-2,.cls-4{fill:none;}.cls-1{stroke:#999;stroke-width:0.75px;}.cls-2,.cls-4{stroke:#000;}.cls-2{stroke-width:0.8px;}.cls-3{fill:#fff;}.cls-4{stroke-width:0.36px;}</style></defs><title>10.2.35 Algas</title><path class="cls-1" d="M-17.36-396.65v27.88m-270.35-27.9v27.88m175.33-27.88v27.9M148,148.59v27.9m-51.62-27.9v27.9M29.57-311.66H199.64M29.57-283.77H199.65M29.57-255.87H199.64M29.57-228H199.65M29.57-200.08H199.64M-143.31,246.26H26.79m-343,0h170.1m2.78-27.89H26.79m-343,0h170.1m2.78-27.9H26.79m-343,0h170.1m2.78-27.89H26.79m-343,0h170.1m2.78-27.9H26.79m-343,0h170.1m175.66-27.9H199.66M29.57,78.89H199.64M29.57,51H199.65M29.57,23.1H199.64M29.57-4.8H199.65M29.57-32.69H199.64M29.57-60.59H199.65M29.57-88.48H199.64M29.57-172.18H199.65m-343-139.48H26.76m-170.07,27.89H26.78m-170.09,27.9H26.76M-143.31-228H26.78m-170.09,27.89H26.76M-143.31,106.78H26.79m-170.1-27.89H26.76M-143.31,51H26.78M-143.31,23.1H26.76M-143.31-4.8H26.78M-143.31-32.69H26.76m-170.07-27.9H26.78M-143.31-88.48H26.76m-170.07-83.7H26.78m-343-139.48h170.08m-170.08,27.89H-146.1m-170.09,27.9h170.08M-316.19-228H-146.1m-170.09,27.89h170.08M-316.19,106.78h170.1m-170.1-27.89h170.08M-316.19,51H-146.1M-316.19,23.1h170.08M-316.19-4.8H-146.1M-316.19-32.69h170.08m-170.08-27.9H-146.1M-316.19-88.48h170.08M29.57-116.39H199.64M29.57-144.29H199.62m-342.93,27.9H26.77m-170.08-27.9H26.74m-342.93,27.9h170.08m-170.08-27.9h170.06m-170.06-27.89H-146.1"/><path class="cls-1" d="M-287.71-339.73V274m107.57-613.7V274M116.22-396.84V-369"/><polygon class="cls-2" points="26.76 273.95 26.76 -366.18 -143.32 -366.18 -143.32 273.97 26.76 273.95"/><path class="cls-3" d="M10,16.87H9.63s-2.07-7.13-4-8.25S1.29,6.94.81,7.25.39,6.22.78,5,1.92,2.68,2.16,3.2,4.38,5.14,4.89,6,6.27,8.8,6.57,8.74,4.05,2.44,3.12,2.08,4.35.91,5.64,1.25s3.24.83,2.55,1.31S6.87,6.4,7.11,7.66s.81,3.72,1.17,3.69.78-3.72.27-4.59c-.27-.44-.74-1.21-1.23-1.87a3.84,3.84,0,0,1,.24-1.1,2.66,2.66,0,0,1,.63-1.23c.38-.29,0-.59-1.29-1l-.32-.1s.78-.29,1.22-.4c1.17-.27,4.38.54,3.51,1S9.45,4.58,9.54,6.34A29.3,29.3,0,0,1,9,11.59c-.12.81.19,2.78.6,2.78s1.75-2.33.9-5.21c-.59-2-.92-2.2-.92-2.2V6.9c0-.19,0-.38,0-.56-.09-1.76.9-3.87,1.77-4.29a4.27,4.27,0,0,1,1.37.49c1.05.5,1.11,1,.93,1.55s-.95-.23-1.29.69-1.19,5.82-.62,5.94c.33.06,3.61-7.84,2.76-8.46-1.17-.84.09-2.39,4,.92,1.25,1.07,2.1,2.38,1.83,3.7s-.44.23-1.74-.18-3.51-.27-5,2.61S9.36,14.62,10,16.87Z"/><path class="cls-4" d="M10,16.87H9.63s-2.07-7.13-4-8.25S1.29,6.94.81,7.25.39,6.22.78,5,1.92,2.68,2.16,3.2,4.38,5.14,4.89,6,6.27,8.8,6.57,8.74,4.05,2.44,3.12,2.08,4.35.91,5.64,1.25s3.24.83,2.55,1.31S6.87,6.4,7.11,7.66s.81,3.72,1.17,3.69.78-3.72.27-4.59c-.27-.44-.74-1.21-1.23-1.87a3.84,3.84,0,0,1,.24-1.1,2.66,2.66,0,0,1,.63-1.23c.38-.29,0-.59-1.29-1l-.32-.1s.78-.29,1.22-.4c1.17-.27,4.38.54,3.51,1S9.45,4.58,9.54,6.34A29.3,29.3,0,0,1,9,11.59c-.12.81.19,2.78.6,2.78s1.75-2.33.9-5.21c-.59-2-.92-2.2-.92-2.2V6.9c0-.19,0-.38,0-.56-.09-1.76.9-3.87,1.77-4.29a4.27,4.27,0,0,1,1.37.49c1.05.5,1.11,1,.93,1.55s-.95-.23-1.29.69-1.19,5.82-.62,5.94c.33.06,3.61-7.84,2.76-8.46-1.17-.84.09-2.39,4,.92,1.25,1.07,2.1,2.38,1.83,3.7s-.44.23-1.74-.18-3.51-.27-5,2.61S9.36,14.62,10,16.87Z"/></svg>