<svg id="Capa_1" data-name="Capa 1" xmlns="http://www.w3.org/2000/svg" viewBox="0 0 12.59 17.38"><defs><style>.cls-1,.cls-2,.cls-4{fill:none;}.cls-1{stroke:#999;stroke-width:0.75px;}.cls-2,.cls-4{stroke:#000;}.cls-2{stroke-width:0.8px;}.cls-3{fill:#fff;}.cls-4{stroke-width:0.36px;}</style></defs><title>10.2.31 Plantas</title><path class="cls-1" d="M-20.71-284.86V-257m-270.35-27.9V-257m175.34-27.88V-257M144.65,260.38v27.9M93,260.38v27.9M26.22-199.87H196.29M26.22-172H196.31M26.22-144.08H196.29M26.22-116.18H196.31M26.22-88.29H196.29M-146.66,358.05H23.44m-343,0h170.1m2.78-27.89H23.44m-343,0h170.1m2.78-27.9H23.44m-343,0h170.1m2.78-27.89H23.44m-343,0h170.1m2.78-27.9H23.44m-343,0h170.1m175.66-27.9h170.1M26.22,190.68H196.29M26.22,162.78H196.31M26.22,134.89H196.29M26.22,107H196.31M26.22,79.1H196.29M26.22,51.2H196.31M26.22,23.31H196.29M26.22-60.39H196.31m-343-139.48H23.42M-146.66-172H23.43m-170.09,27.9H23.42m-170.08,27.9H23.43M-146.66-88.29H23.42M-146.66,218.57H23.44m-170.1-27.89H23.42m-170.08-27.9H23.43m-170.09-27.89H23.42M-146.66,107H23.43M-146.66,79.1H23.42M-146.66,51.2H23.43M-146.66,23.31H23.42m-170.08-83.7H23.43m-343-139.48h170.08M-319.54-172h170.09m-170.09,27.9h170.08m-170.08,27.9h170.09M-319.54-88.29h170.08M-319.54,218.57h170.1m-170.1-27.89h170.08m-170.08-27.9h170.09m-170.09-27.89h170.08M-319.54,107h170.09M-319.54,79.1h170.08M-319.54,51.2h170.09M-319.54,23.31h170.08M26.22-4.6H196.3M26.22-32.5H196.27M-146.66-4.6H23.42M-146.66-32.5H23.4M-319.54-4.6h170.08M-319.54-32.5h170.06M-319.54-60.39h170.09"/><path class="cls-1" d="M-291.06-227.94v613.7m107.57-613.7V385.77M112.87-285v27.85"/><polygon class="cls-2" points="23.41 385.74 23.41 -254.39 -146.66 -254.39 -146.66 385.76 23.41 385.74"/><path class="cls-3" d="M3,1.48C1.15,1,8.53,1.49,11.1,7c1.69,3.6.62,5.23-.06,5.51-2.25.94-3.82-.45-4.71-.45-.3,0-3.05,2-4.62.39S1,8.62,1.82,7.72,4.24,5.47,4.24,4.4,3.56,1.64,3,1.48Z"/><path class="cls-4" d="M3,1.48C1.15,1,8.53,1.49,11.1,7c1.69,3.6.62,5.23-.06,5.51-2.25.94-3.82-.45-4.71-.45-.3,0-3.05,2-4.62.39S1,8.62,1.82,7.72,4.24,5.47,4.24,4.4,3.56,1.64,3,1.48Z"/><path class="cls-4" d="M4.18,17.06a4.67,4.67,0,0,0,2.15-5"/></svg>