<svg id="Capa_1" data-name="Capa 1" xmlns="http://www.w3.org/2000/svg" viewBox="0 0 14.66 19.18"><defs><style>.cls-1,.cls-2,.cls-4{fill:none;}.cls-1{stroke:#999;stroke-width:0.75px;}.cls-2,.cls-4{stroke:#000;}.cls-2{stroke-width:0.8px;}.cls-3{fill:#fff;}.cls-4{stroke-width:0.36px;}</style></defs><title>10.2.7 Insectos</title><path class="cls-1" d="M152.89-227.8v27.88m-270.34-27.89v27.88M57.88-227.81v27.89M318.26,317.44v27.9m-51.62-27.9v27.9M199.82-142.81H369.9m-170.08,27.9H369.91M199.82-87H369.9M199.82-59.12H369.91M199.82-31.23H369.9M27,415.11H197m-343,0H24.17M27,387.22H197m-343,0H24.17M27,359.32H197m-343,0H24.17M27,331.43H197m-343,0H24.17M27,303.53H197m-343,0H24.17m175.65-27.89h170.1m-170.1-27.9H369.9M199.82,219.85H369.91M199.82,192H369.9M199.82,164.06H369.91m-170.09-27.9H369.9m-170.08-27.9H369.91M199.82,80.37H369.9M199.82-3.33H369.91M27-142.81H197M27-114.91H197M27-87H197M27-59.12H197M27-31.23H197M27,275.64H197M27,247.74H197M27,219.85H197M27,192H197M27,164.06H197M27,136.16H197M27,108.26H197M27,80.37H197M27-3.33H197m-343-139.48H24.14m-170.07,27.9H24.16M-145.93-87H24.14m-170.07,27.9H24.16M-145.93-31.23H24.14M-145.93,275.64H24.17m-170.1-27.9H24.14m-170.07-27.89H24.16M-145.93,192H24.14m-170.07-27.89H24.16m-170.09-27.9H24.14m-170.07-27.9H24.16M-145.93,80.37H24.14M199.82,52.46H369.9M199.82,24.57H369.88M27,52.46H197M27,24.57H197M-145.93,52.46H24.15M-145.93,24.57H24.12m-170-27.9H24.16"/><path class="cls-1" d="M-117.45-170.88v613.7M-9.88-170.88V442.83M286.47-228v27.85"/><polygon class="cls-2" points="24.14 442.8 24.14 -197.33 -145.94 -197.33 -145.94 442.82 24.14 442.8"/><path class="cls-3" d="M7.16,15.89l1.6-.66c.69-.29,1.53-.73,1.55-4.36S9.47,7.81,9.5,7.28a6.07,6.07,0,0,0-.58-2.1c-.37-1-1.42-.91-.89-1.1,1-.34-.29-1.2-.89-1.26h0c-.6.06-1.86.92-.89,1.26.52.19-.53.13-.89,1.1a6.07,6.07,0,0,0-.58,2.1c0,.53-.84,0-.82,3.59s.87,4.07,1.55,4.36l1.6.66Z"/><path class="cls-4" d="M7.16,15.89l1.6-.66c.69-.29,1.53-.73,1.55-4.36S9.47,7.81,9.5,7.28a6.07,6.07,0,0,0-.58-2.1c-.37-1-1.42-.91-.89-1.1,1-.34-.29-1.2-.89-1.26h0c-.6.06-1.86.92-.89,1.26.52.19-.53.13-.89,1.1a6.07,6.07,0,0,0-.58,2.1c0,.53-.84,0-.82,3.59s.87,4.07,1.55,4.36l1.6.66Z"/><path class="cls-3" d="M4,11.71l0-.44s-1.39.91-1.32,1.9,1.5,2.2,1.47,2.48,0,1.67,0,1.67l-.73,1.05,1.15-1.22,0-1.8S2.82,13.29,3,13.08l1-1Z"/><path class="cls-4" d="M4,11.71l0-.44s-1.39.91-1.32,1.9,1.5,2.2,1.47,2.48,0,1.67,0,1.67l-.73,1.05,1.15-1.22,0-1.8S2.82,13.29,3,13.08l1-1Z"/><path class="cls-3" d="M4.33,8l.11-.18.1-.13s-.69-.16-.9,0-1.47,2-1.47,2L.64,11.06,2.4,9.91A18.26,18.26,0,0,1,3.64,8.2a.8.8,0,0,1,.59,0Z"/><path class="cls-4" d="M4.33,8l.11-.18.1-.13s-.69-.16-.9,0-1.47,2-1.47,2L.64,11.06,2.4,9.91A18.26,18.26,0,0,1,3.64,8.2a.8.8,0,0,1,.59,0Z"/><path class="cls-3" d="M5.2,5.58l-.64-.17L4.32,3.87,3,3,4.07,4a5.12,5.12,0,0,0,.28,1.6c.21.21.64.59.64.59Z"/><path class="cls-4" d="M5.2,5.58l-.64-.17L4.32,3.87,3,3,4.07,4a5.12,5.12,0,0,0,.28,1.6c.21.21.64.59.64.59Z"/><path class="cls-3" d="M6.55,3A5.25,5.25,0,0,0,4.72,1.53,6.44,6.44,0,0,1,3.13.73a6.51,6.51,0,0,0,1.4.94A10.51,10.51,0,0,1,6.42,3.09Z"/><path class="cls-4" d="M6.55,3A5.25,5.25,0,0,0,4.72,1.53,6.44,6.44,0,0,1,3.13.73a6.51,6.51,0,0,0,1.4.94A10.51,10.51,0,0,1,6.42,3.09Z"/><path class="cls-4" d="M6.73,2.93s-.28-.55.2-.58"/><path class="cls-3" d="M10.29,11.71l0-.44s1.39.91,1.32,1.9-1.5,2.2-1.48,2.48,0,1.67,0,1.67l.72,1.05L9.76,17.15l0-1.8s1.71-2.06,1.5-2.27l-1-1Z"/><path class="cls-4" d="M10.29,11.71l0-.44s1.39.91,1.32,1.9-1.5,2.2-1.48,2.48,0,1.67,0,1.67l.72,1.05L9.76,17.15l0-1.8s1.71-2.06,1.5-2.27l-1-1Z"/><path class="cls-3" d="M9.93,8l-.1-.18-.1-.13s.68-.16.89,0,1.48,2,1.48,2l1.52,1.38L11.86,9.91A18.26,18.26,0,0,0,10.62,8.2a.78.78,0,0,0-.58,0Z"/><path class="cls-4" d="M9.93,8l-.1-.18-.1-.13s.68-.16.89,0,1.48,2,1.48,2l1.52,1.38L11.86,9.91A18.26,18.26,0,0,0,10.62,8.2a.78.78,0,0,0-.58,0Z"/><path class="cls-3" d="M9.07,5.58l.64-.17.23-1.54L11.3,3,10.2,4a5.12,5.12,0,0,1-.28,1.6c-.21.21-.65.59-.65.59Z"/><path class="cls-4" d="M9.07,5.58l.64-.17.23-1.54L11.3,3,10.2,4a5.12,5.12,0,0,1-.28,1.6c-.21.21-.65.59-.65.59Z"/><path class="cls-3" d="M7.72,3A5.25,5.25,0,0,1,9.55,1.53a6.68,6.68,0,0,0,1.59-.8,6.39,6.39,0,0,1-1.41.94A10.74,10.74,0,0,0,7.85,3.09Z"/><path class="cls-4" d="M7.72,3A5.25,5.25,0,0,1,9.55,1.53a6.68,6.68,0,0,0,1.59-.8,6.39,6.39,0,0,1-1.41.94A10.74,10.74,0,0,0,7.85,3.09Z"/><path class="cls-4" d="M7.53,2.93s.28-.55-.2-.58"/><path d="M6.61,3.22c-.11-.11-.34,0-.52.14s-.25.42-.15.52.34.05.52-.14.25-.42.15-.52"/><path d="M7.66,3.22c-.1.1,0,.34.15.52s.42.25.52.14,0-.33-.14-.52-.42-.25-.53-.14"/><path class="cls-4" d="M7.12,13.79V7.47m-2.2,7.41,2.2-1.09,2.22,1.1M4.77,7.16H6.18l.32.31H7.81l.36-.35H9.5M6.32,4.24A2,2,0,0,1,7.13,4,2.05,2.05,0,0,1,8,4.24"/></svg>