<svg id="Capa_1" data-name="Capa 1" xmlns="http://www.w3.org/2000/svg" viewBox="0 0 17.63 11.98"><defs><style>.cls-1,.cls-2,.cls-4{fill:none;}.cls-1{stroke:#999;stroke-width:0.75px;}.cls-2,.cls-4{stroke:#000;}.cls-2{stroke-width:0.8px;}.cls-3{fill:#fff;}.cls-4{stroke-width:0.36px;}</style></defs><title>10.2.24 Pelecípodos</title><path class="cls-1" d="M-18.33-92.64v27.88m-270.34-27.9v27.88m175.33-27.88v27.9M147,452.6v27.9M95.42,452.6v27.9M28.6-7.65H198.68M28.6,20.25H198.69M28.6,48.14H198.68M28.6,76H198.69M28.6,103.93H198.68m-343,446.34H25.82m-343,0H-147m2.77-27.89H25.82m-343,0H-147m2.77-27.9H25.82m-343,0H-147m2.77-27.89H25.82m-343,0H-147m2.77-27.9H25.82m-343,0H-147M28.6,410.8H198.7M28.6,382.9H198.68M28.6,355H198.69M28.6,327.11H198.68M28.6,299.21H198.69M28.6,271.32H198.68M28.6,243.42H198.69M28.6,215.53H198.68M28.6,131.83H198.69m-343-139.48H25.8m-170.08,27.9H25.81M-144.28,48.14H25.8M-144.28,76H25.81m-170.09,27.89H25.8M-144.28,410.8H25.82m-170.1-27.9H25.8M-144.28,355H25.81m-170.09-27.89H25.8m-170.08-27.9H25.81m-170.09-27.89H25.8m-170.08-27.9H25.81m-170.09-27.89H25.8m-170.08-83.7H25.81m-343-139.48h170.07m-170.07,27.9h170.08M-317.15,48.14h170.07M-317.15,76h170.08m-170.08,27.89h170.07M-317.15,410.8H-147m-170.1-27.9h170.07M-317.15,355h170.08m-170.08-27.89h170.07m-170.07-27.9h170.08m-170.08-27.89h170.07m-170.07-27.9h170.08m-170.08-27.89h170.07M28.6,187.62H198.68M28.6,159.72H198.66m-342.94,27.9H25.8m-170.08-27.9H25.78m-342.93,27.9h170.07m-170.07-27.9h170m-170-27.89h170.08"/><path class="cls-1" d="M-288.67-35.72V578M-181.1-35.72V578M115.25-92.83V-65"/><polygon class="cls-2" points="25.8 577.96 25.8 -62.17 -144.28 -62.17 -144.28 577.98 25.8 577.96"/><path class="cls-3" d="M.82,8C.45,9,4,12.48,9.21,11.23s8.06-4,7.56-7S12.05.39,11.56.56,4,3.86,3.13,4.89A14.82,14.82,0,0,0,.82,8Z"/><path class="cls-4" d="M.82,8C.45,9,4,12.48,9.21,11.23s8.06-4,7.56-7S12.05.39,11.56.56,4,3.86,3.13,4.89A14.82,14.82,0,0,0,.82,8Z"/><path class="cls-4" d="M10.49,1c-.46.73-.42,2.09.84,2.13s2.87-.83,2.67-2m-5.37.71c-.5.66-1.37,2.43-.31,3a4.75,4.75,0,0,0,4.46-.43c1.45-.95,2.06-2.1,1.92-2.9M6.31,3C5.55,4.06,5,5.88,6.2,6.54A6.93,6.93,0,0,0,12.75,6c2.47-1.62,3.12-2.76,3-3.65M3.15,4.88C2.58,6,1.88,9.11,5,9.58s6.67,0,8.42-1.26,3.41-2.86,3.27-4.58"/></svg>