<svg id="Capa_1" data-name="Capa 1" xmlns="http://www.w3.org/2000/svg" viewBox="0 0 17.71 16.72"><defs><style>.cls-1,.cls-2,.cls-4{fill:none;}.cls-1{stroke:#999;stroke-width:0.75px;}.cls-2,.cls-4{stroke:#000;}.cls-2{stroke-width:0.8px;}.cls-3{fill:#fff;}.cls-4{stroke-width:0.36px;}</style></defs><title>10.2.38 Plantas o árboles con flores</title><path class="cls-1" d="M-18.37-480.84V-453m-270.35-27.9V-453m175.33-27.88V-453M147,64.4V92.3M95.37,64.4V92.3M28.55-395.85H198.63M28.55-367.95H198.64M28.55-340.06H198.63M28.55-312.16H198.64M28.55-284.27H198.63M-144.32,162.07H25.78m-343,0h170.1m2.78-27.89H25.78m-343,0h170.1m2.78-27.9H25.78m-343,0h170.1m2.78-27.89H25.78m-343,0h170.1m2.78-27.9H25.78m-343,0h170.1M28.55,22.6h170.1M28.55-5.3H198.63M28.55-33.2H198.64M28.55-61.09H198.63M28.55-89H198.64M28.55-116.88H198.63M28.55-144.78H198.64M28.55-172.67H198.63M28.55-256.37H198.64m-343-139.48H25.75m-170.07,27.9H25.76m-170.08,27.89H25.75m-170.07,27.9H25.76m-170.08,27.89H25.75M-144.32,22.6H25.78M-144.32-5.3H25.75M-144.32-33.2H25.76M-144.32-61.09H25.75M-144.32-89H25.76m-170.08-27.89H25.75m-170.07-27.9H25.76m-170.08-27.89H25.75m-170.07-83.7H25.76m-343-139.48h170.08m-170.08,27.9h170.09M-317.2-340.06h170.08m-170.08,27.9h170.09M-317.2-284.27h170.08M-317.2,22.6h170.1M-317.2-5.3h170.08M-317.2-33.2h170.09M-317.2-61.09h170.08M-317.2-89h170.09M-317.2-116.88h170.08m-170.08-27.9h170.09M-317.2-172.67h170.08M28.55-200.58H198.63M28.55-228.48H198.61m-342.93,27.9H25.75m-170.07-27.9h170m-342.93,27.9h170.08m-170.08-27.9h170m-170-27.89h170.09"/><path class="cls-1" d="M-288.72-423.92v613.7m107.57-613.7V189.79M115.2-481v27.85"/><polygon class="cls-2" points="25.75 189.76 25.75 -450.37 -144.33 -450.37 -144.33 189.78 25.75 189.76"/><path class="cls-3" d="M8.87,8.26s-1.14-5.4,0-6.84,4.38-1.72,4.5,1.5C13.42,4.6,8.87,8.26,8.87,8.26Z"/><path class="cls-4" d="M8.87,8.26s-1.14-5.4,0-6.84,4.38-1.72,4.5,1.5C13.42,4.6,8.87,8.26,8.87,8.26Z"/><path class="cls-3" d="M8.81,8.38s1.13,5.4,0,6.84S4.42,17,4.31,13.72C4.24,12,8.81,8.38,8.81,8.38Z"/><path class="cls-4" d="M8.81,8.38s1.13,5.4,0,6.84S4.42,17,4.31,13.72C4.24,12,8.81,8.38,8.81,8.38Z"/><path class="cls-3" d="M8.76,8.43s5.24,1.72,5.92,3.43S14,16.52,11.13,15C9.64,14.22,8.76,8.43,8.76,8.43Z"/><path class="cls-4" d="M8.76,8.43s5.24,1.72,5.92,3.43S14,16.52,11.13,15C9.64,14.22,8.76,8.43,8.76,8.43Z"/><path class="cls-3" d="M8.68,8.32S3.44,6.6,2.77,4.9,3.47.24,6.32,1.75C7.8,2.54,8.68,8.32,8.68,8.32Z"/><path class="cls-4" d="M8.68,8.32S3.44,6.6,2.77,4.9,3.47.24,6.32,1.75C7.8,2.54,8.68,8.32,8.68,8.32Z"/><path class="cls-3" d="M8.88,8.26S13.14,4.76,15,5.1s3.55,3.09.74,4.68C14.23,10.61,8.88,8.26,8.88,8.26Z"/><path class="cls-4" d="M8.88,8.26S13.14,4.76,15,5.1s3.55,3.09.74,4.68C14.23,10.61,8.88,8.26,8.88,8.26Z"/><path class="cls-3" d="M8.74,8.26s-4.26,3.51-6.06,3.16S-.88,8.33,1.93,6.74C3.39,5.91,8.74,8.26,8.74,8.26Z"/><path class="cls-4" d="M8.74,8.26s-4.26,3.51-6.06,3.16S-.88,8.33,1.93,6.74C3.39,5.91,8.74,8.26,8.74,8.26Z"/><path class="cls-3" d="M10.15,8.31A1.38,1.38,0,1,1,8.77,6.93,1.38,1.38,0,0,1,10.15,8.31Z"/><path class="cls-4" d="M10.15,8.31A1.38,1.38,0,1,1,8.77,6.93,1.38,1.38,0,0,1,10.15,8.31Z"/></svg>