<svg id="Capa_1" data-name="Capa 1" xmlns="http://www.w3.org/2000/svg" viewBox="0 0 14.85 17.85"><defs><style>.cls-1,.cls-2,.cls-4{fill:none;}.cls-1{stroke:#999;stroke-width:0.75px;}.cls-2,.cls-4{stroke:#000;}.cls-2{stroke-width:0.8px;}.cls-3{fill:#fff;}.cls-4{stroke-width:0.36px;}</style></defs><title>10.2.11 Cnidarios</title><path class="cls-1" d="M152.89-340.54v27.89m-270.34-27.9v27.88M57.88-340.55v27.9M318.26,204.7v27.91M266.64,204.7v27.91M199.82-255.54H369.9M199.82-227.65H369.91m-170.09,27.9H369.9M199.82-171.86H369.91M199.82-144H369.9M27,302.38H197m-343,0H24.17M27,274.48H197m-343,0H24.17M27,246.59H197m-343,0H24.17M27,218.69H197m-343,0H24.17M27,190.8H197m-343,0H24.17m175.65-27.9h170.1M199.82,135H369.9M199.82,107.11H369.91M199.82,79.22H369.9M199.82,51.32H369.91M199.82,23.42H369.9M199.82-4.47H369.91M199.82-32.37H369.9m-170.08-83.7H369.91M27-255.54H197M27-227.65H197M27-199.75H197M27-171.86H197M27-144H197M27,162.9H197M27,135H197M27,107.11H197M27,79.22H197M27,51.32H197M27,23.42H197M27-4.47H197M27-32.37H197M27-116.07H197m-343-139.47H24.14m-170.07,27.89H24.16m-170.09,27.9H24.14m-170.07,27.89H24.16M-145.93-144H24.14M-145.93,162.9H24.17M-145.93,135H24.14m-170.07-27.89H24.16M-145.93,79.22H24.14m-170.07-27.9H24.16m-170.09-27.9H24.14M-145.93-4.47H24.16m-170.09-27.9H24.14M199.82-60.28H369.9M199.82-88.17H369.88M27-60.28H197M27-88.17H197M-145.93-60.28H24.15M-145.93-88.17H24.12m-170-27.9H24.16"/><path class="cls-1" d="M-117.45-283.62v613.7M-9.88-283.62V330.1M286.47-340.72v27.85"/><polygon class="cls-2" points="24.14 330.06 24.14 -310.06 -145.94 -310.06 -145.94 330.09 24.14 330.06"/><path class="cls-3" d="M7.5,17c3.7-.1,2.14-1.42,1.45-5.63s1.32-5,1.32-5c1.05-.41,2.18-.56,2.52-1.11s1.38-2.56,1-2.68S12.75,4.57,12.19,4.9,9.5,6.41,9.27,6s2.3-4.1,1.3-4.31S8.52,6.79,8,6.79,8.44,1,7.5,1h0c-.93,0,0,5.77-.52,5.77S5.43,1.49,4.42,1.71,6,5.63,5.72,6,3.36,5.23,2.8,4.9,1.57,2.53,1.2,2.64s.67,2.12,1,2.68S3.67,6,4.73,6.43c0,0,2,.73,1.31,5S3.79,16.91,7.49,17Z"/><path class="cls-4" d="M7.5,17c3.7-.1,2.14-1.42,1.45-5.63s1.32-5,1.32-5c1.05-.41,2.18-.56,2.52-1.11s1.38-2.56,1-2.68S12.75,4.57,12.19,4.9,9.5,6.41,9.27,6s2.3-4.1,1.3-4.31S8.52,6.79,8,6.79,8.44,1,7.5,1h0c-.93,0,0,5.77-.52,5.77S5.43,1.49,4.42,1.71,6,5.63,5.72,6,3.36,5.23,2.8,4.9,1.57,2.53,1.2,2.64s.67,2.12,1,2.68S3.67,6,4.73,6.43c0,0,2,.73,1.31,5S3.79,16.91,7.49,17Z"/></svg>