<svg id="Capa_1" data-name="Capa 1" xmlns="http://www.w3.org/2000/svg" viewBox="0 0 17.9 12.31"><defs><style>.cls-1,.cls-2,.cls-3{fill:none;}.cls-1{stroke:#999;stroke-width:0.75px;}.cls-2,.cls-3{stroke:#000;}.cls-2{stroke-width:0.8px;}.cls-3{stroke-width:0.36px;}</style></defs><title>10.2.39 Estromatolitos</title><path class="cls-1" d="M-18.18-511v27.88M-288.53-511v27.88M-113.2-511v27.89M147.18,34.27V62.18M95.56,34.27V62.18M28.74-426H198.82M28.74-398.08H198.83M28.74-370.18H198.82M28.74-342.29H198.83M28.74-314.39H198.82M-144.13,132H26m-343,0h170.1m2.78-27.9H26m-343,0h170.1m2.78-27.89H26m-343,0h170.1m2.78-27.9H26m-343,0h170.1m2.78-27.9H26m-343,0h170.1M28.74-7.53h170.1M28.74-35.43H198.82M28.74-63.32H198.83M28.74-91.22H198.82M28.74-119.11H198.83M28.74-147H198.82M28.74-174.9H198.83M28.74-202.8H198.82M28.74-286.5H198.83M-144.13-426H25.94m-170.07,27.9H26m-170.08,27.9H25.94m-170.07,27.89H26m-170.08,27.9H25.94M-144.13-7.53H26m-170.1-27.9H25.94M-144.13-63.32H26m-170.08-27.9H25.94m-170.07-27.89H26M-144.13-147H25.94M-144.13-174.9H26m-170.08-27.9H25.94m-170.07-83.7H26M-317-426h170.08M-317-398.08h170.09M-317-370.18h170.08M-317-342.29h170.09M-317-314.39h170.08M-317-7.53h170.1M-317-35.43h170.08M-317-63.32h170.09M-317-91.22h170.08M-317-119.11h170.09M-317-147h170.08M-317-174.9h170.09M-317-202.8h170.08M28.74-230.71H198.82M28.74-258.6H198.8m-342.93,27.89H25.94M-144.13-258.6H25.92M-317-230.71h170.08M-317-258.6h170m-170-27.9h170.09"/><path class="cls-1" d="M-288.53-454v613.7M-181-454V159.67M115.39-511.16v27.85"/><polygon class="cls-2" points="25.94 159.63 25.94 -480.5 -144.14 -480.5 -144.14 159.66 25.94 159.63"/><path class="cls-3" d="M13.13,11.89S13.72,6.1,8.85,6.1h0c-4.88,0-4.29,5.79-4.29,5.79m10.69,0s.88-8.58-6.34-8.58H8.78c-7.22,0-6.34,8.58-6.34,8.58m14.89,0S18.5.45,8.87.45h-.1C-.87.45.31,11.89.31,11.89"/></svg>