<svg id="Capa_1" data-name="Capa 1" xmlns="http://www.w3.org/2000/svg" viewBox="0 0 16.73 15.97"><defs><style>.cls-1,.cls-2,.cls-4{fill:none;}.cls-1{stroke:#999;stroke-width:0.75px;}.cls-2,.cls-4{stroke:#000;}.cls-2{stroke-width:0.8px;}.cls-3{fill:#fff;}.cls-4{stroke-width:0.36px;}</style></defs><title>10.2.44 Huellas</title><path class="cls-1" d="M-289.92-591.51V22.19m107.57-613.7V22.2M114-648.62v27.85"/><polygon class="cls-2" points="24.55 22.17 24.55 -617.96 -145.53 -617.96 -145.53 22.19 24.55 22.17"/><path class="cls-3" d="M6.8,12.5c2.48,0,2.51-2,2.51-4.48s0-4.48-2.51-4.48S.35,5.55.35,8,4.32,12.5,6.8,12.5Z"/><path class="cls-4" d="M6.8,12.5c2.48,0,2.51-2,2.51-4.48s0-4.48-2.51-4.48S.35,5.55.35,8,4.32,12.5,6.8,12.5Z"/><path class="cls-3" d="M11.09,15.54a1.65,1.65,0,1,0-1.65-1.65A1.65,1.65,0,0,0,11.09,15.54Z"/><path class="cls-4" d="M11.09,15.54a1.65,1.65,0,1,0-1.65-1.65A1.65,1.65,0,0,0,11.09,15.54Z"/><path class="cls-3" d="M11.09,3.81A1.66,1.66,0,1,0,9.44,2.16,1.65,1.65,0,0,0,11.09,3.81Z"/><path class="cls-4" d="M11.09,3.81A1.66,1.66,0,1,0,9.44,2.16,1.65,1.65,0,0,0,11.09,3.81Z"/><path class="cls-3" d="M14.55,9.67A1.65,1.65,0,1,0,12.9,8,1.65,1.65,0,0,0,14.55,9.67Z"/><path class="cls-4" d="M14.55,9.67A1.65,1.65,0,1,0,12.9,8,1.65,1.65,0,0,0,14.55,9.67Z"/></svg>