<svg id="Capa_1" data-name="Capa 1" xmlns="http://www.w3.org/2000/svg" viewBox="0 0 17.27 9.11"><defs><style>.cls-1,.cls-2,.cls-3{fill:none;}.cls-1{stroke:#999;stroke-width:0.75px;}.cls-2,.cls-3{stroke:#000;}.cls-2{stroke-width:0.8px;}.cls-3{stroke-width:0.36px;}</style></defs><title>10.2.61 Espículas</title><path class="cls-1" d="M-190.78-511.66v27.88m-270.35-27.9v27.88m175.34-27.88v27.9M-25.42,33.58v27.9M-77,33.58v27.9m-66.81-488.15H26.23m-170.08,27.89H26.24m-170.09,27.9H26.23M-143.85-343H26.24m-170.09,27.89H26.23m-343,446.34h170.1m-343,0h170.1m2.78-27.89h170.1m-343,0h170.1m2.78-27.9h170.1m-343,0h170.1m2.78-27.89h170.1m-343,0h170.1m2.78-27.9h170.1m-343,0h170.1m175.66-27.9H26.25m-170.1-27.89H26.23M-143.85-64H26.24M-143.85-91.91H26.23m-170.08-27.9H26.24M-143.85-147.7H26.23m-170.08-27.9H26.24m-170.09-27.89H26.23m-170.08-83.7H26.24m-343-139.48h170.08m-170.08,27.89h170.09m-170.09,27.9h170.08M-316.73-343h170.09m-170.09,27.89h170.08M-316.73-8.23h170.1m-170.1-27.89h170.08M-316.73-64h170.09M-316.73-91.91h170.08m-170.08-27.9h170.09M-316.73-147.7h170.08m-170.08-27.9h170.09m-170.09-27.89h170.08m-170.08-83.7h170.09m-343-139.48h170.08m-170.08,27.89h170.09m-170.09,27.9h170.08M-489.61-343h170.09m-170.09,27.89h170.08M-489.61-8.23h170.1m-170.1-27.89h170.08M-489.61-64h170.09M-489.61-91.91h170.08m-170.08-27.9h170.09M-489.61-147.7h170.08m-170.08-27.9h170.09m-170.09-27.89h170.08m175.68-27.91H26.23m-170.08-27.9H26.21m-342.94,27.9h170.08m-170.08-27.9h170.06m-342.94,27.9h170.08m-170.08-27.9h170.06m-170.06-27.89h170.09"/><path class="cls-2" d="M26.24,61.28V19.48H-143.84V61.31Zm0,97.63V61.29H-143.84v97.65Zm0-139.45V-481.19H-143.85V19.48Z"/><path class="cls-3" d="M11.92,5.55l3-5.07M.4,8.39,11.92,5.55l5,3.34"/></svg>