<svg id="Capa_1" data-name="Capa 1" xmlns="http://www.w3.org/2000/svg" viewBox="0 0 11.46 17"><defs><style>.cls-1,.cls-2,.cls-4{fill:none;}.cls-1{stroke:#999;stroke-width:0.75px;}.cls-2,.cls-4{stroke:#000;}.cls-2{stroke-width:0.8px;}.cls-3{fill:#fff;}.cls-4{stroke-width:0.36px;}</style></defs><title>10.2.36 Coníferas</title><path class="cls-1" d="M-21.91-424.57v27.88m-270.35-27.89v27.88m175.34-27.88v27.89M143.45,120.67v27.91M91.83,120.67v27.91M25-339.58H195.09M25-311.68H195.11M25-283.78H195.09M25-255.89H195.11M25-228H195.09m-343,446.34H22.24m-343,0h170.1m2.78-27.9H22.24m-343,0h170.1m2.78-27.89H22.24m-343,0h170.1m2.78-27.9H22.24m-343,0h170.1m2.78-27.9H22.24m-343,0h170.1M25,78.87h170.1M25,51H195.09M25,23.08H195.11M25-4.82H195.09M25-32.71H195.11M25-60.61H195.09M25-88.5H195.11M25-116.4H195.09M25-200.1H195.11m-343-139.48H22.22m-170.08,27.9H22.23m-170.09,27.9H22.22m-170.08,27.89H22.23M-147.86-228H22.22M-147.86,78.87H22.24M-147.86,51H22.22M-147.86,23.08H22.23M-147.86-4.82H22.22M-147.86-32.71H22.23m-170.09-27.9H22.22M-147.86-88.5H22.23m-170.09-27.9H22.22m-170.08-83.7H22.23m-343-139.48h170.08m-170.08,27.9h170.09m-170.09,27.9h170.08m-170.08,27.89h170.09M-320.74-228h170.08M-320.74,78.87h170.1M-320.74,51h170.08M-320.74,23.08h170.09M-320.74-4.82h170.08M-320.74-32.71h170.09m-170.09-27.9h170.08M-320.74-88.5h170.09m-170.09-27.9h170.08M25-144.31H195.1M25-172.2h170m-342.93,27.89H22.22M-147.86-172.2H22.2m-342.94,27.89h170.08M-320.74-172.2h170.06m-170.06-27.9h170.09"/><path class="cls-1" d="M-292.26-367.65v613.7m107.57-613.7V246.07M111.67-424.76v27.85"/><polygon class="cls-2" points="22.21 246.03 22.21 -394.1 -147.86 -394.1 -147.86 246.06 22.21 246.03"/><path class="cls-3" d="M8.37,1.23a10.21,10.21,0,0,1,2.45,7.1c0,4.6-2.28,8.32-5.1,8.32S.61,12.93.61,8.33a10.21,10.21,0,0,1,2.45-7.1C3.83.46,4.74.65,5.72.65S7.6.46,8.37,1.23Z"/><path class="cls-4" d="M8.37,1.23a10.21,10.21,0,0,1,2.45,7.1c0,4.6-2.28,8.32-5.1,8.32S.61,12.93.61,8.33a10.21,10.21,0,0,1,2.45-7.1C3.83.46,4.74.65,5.72.65S7.6.46,8.37,1.23Z"/><path class="cls-4" d="M10.46,11.41c-3.88,0-9.2-3.66-9.72-4.93M10.8,9c-4.28,0-9-3.29-9.6-4.55m8.51,9c-3.84,0-8.35-3.33-9.08-4.56m8.08,6.13c-3.74,0-6.84-2-7.6-3.16M10.7,6.56c-4,0-8.09-3-8.55-4.17M10,3.83c-1.47,0-5.75-1.93-6.23-3M1,11.41c3.83,0,9.2-3.7,9.72-5M.63,9c4.1,0,9.07-3.35,9.59-4.62M1.72,13.5c4-.07,8.61-3.57,9.09-4.68M2.73,15.07c4,0,7.17-2.26,7.66-3.38M.73,6.53c4.09,0,8-2.92,8.52-4.2M1.42,3.83c1.35,0,5.71-1.95,6.2-3.07"/></svg>