<svg id="Capa_1" data-name="Capa 1" xmlns="http://www.w3.org/2000/svg" viewBox="0 0 19.21 7.05"><defs><style>.cls-1,.cls-2,.cls-4{fill:none;}.cls-1{stroke:#999;stroke-width:0.75px;}.cls-2,.cls-4{stroke:#000;}.cls-2{stroke-width:0.8px;}.cls-3{fill:#fff;}.cls-4{stroke-width:0.36px;}</style></defs><title>10.2.26 Vertebrados</title><path class="cls-1" d="M-18.77-150.75v27.89m-270.35-27.9v27.88m175.34-27.88v27.9M146.59,394.49V422.4M95,394.49V422.4M28.16-65.75H198.24M28.16-37.86H198.25M28.16-10H198.24M28.16,17.93H198.25M28.16,45.83H198.24m-343,446.34H25.38m-343,0h170.1m2.78-27.9H25.38m-343,0h170.1m2.78-27.89H25.38m-343,0h170.1m2.78-27.9H25.38m-343,0h170.1m2.78-27.89H25.38m-343,0h170.1m175.66-27.9h170.1m-170.1-27.9H198.24M28.16,296.9H198.25M28.16,269H198.24M28.16,241.11H198.25M28.16,213.21H198.24M28.16,185.32H198.25M28.16,157.42H198.24M28.16,73.72H198.25m-343-139.47H25.36M-144.72-37.86H25.37M-144.72-10H25.36M-144.72,17.93H25.37m-170.09,27.9H25.36M-144.72,352.69H25.38m-170.1-27.9H25.36M-144.72,296.9H25.37M-144.72,269H25.36m-170.08-27.9H25.37m-170.09-27.9H25.36m-170.08-27.89H25.37m-170.09-27.9H25.36m-170.08-83.7H25.37m-343-139.47h170.08M-317.6-37.86h170.09M-317.6-10h170.08M-317.6,17.93h170.09M-317.6,45.83h170.08M-317.6,352.69h170.1m-170.1-27.9h170.08M-317.6,296.9h170.09M-317.6,269h170.08m-170.08-27.9h170.09m-170.09-27.9h170.08M-317.6,185.32h170.09m-170.09-27.9h170.08M28.16,129.51H198.24M28.16,101.62H198.22m-342.94,27.89H25.36m-170.08-27.89H25.34M-317.6,129.51h170.08M-317.6,101.62h170.06M-317.6,73.72h170.09"/><path class="cls-1" d="M-289.12-93.83v613.7m107.58-613.7V519.89M114.81-150.94v27.85"/><polygon class="cls-2" points="25.36 519.85 25.36 -120.28 -144.72 -120.28 -144.72 519.88 25.36 519.85"/><path class="cls-3" d="M17.14,3.64s2.54,1.24,1.24,2.54-3-1.3-3-1.3H3.72S2,7.49.67,6.18,1.91,3.64,1.91,3.64h0S-.63,2.4.67,1.09,3.72,2.4,3.72,2.4H15.33s1.74-2.62,3-1.31-1.24,2.54-1.24,2.54Z"/><path class="cls-4" d="M17.14,3.64s2.54,1.24,1.24,2.54-3-1.3-3-1.3H3.72S2,7.49.67,6.18,1.91,3.64,1.91,3.64h0S-.63,2.4.67,1.09,3.72,2.4,3.72,2.4H15.33s1.74-2.62,3-1.31-1.24,2.54-1.24,2.54Z"/></svg>