<svg id="Capa_1" data-name="Capa 1" xmlns="http://www.w3.org/2000/svg" viewBox="0 0 16.05 17.73"><defs><style>.cls-1,.cls-2,.cls-4{fill:none;}.cls-1{stroke:#999;stroke-width:0.75px;}.cls-2,.cls-4{stroke:#000;}.cls-2{stroke-width:0.8px;}.cls-3{fill:#fff;}.cls-4{stroke-width:0.36px;}</style></defs><title>10.2.19 Cefalópodos</title><path class="cls-1" d="M153.21-563.42v27.88m-270.35-27.9v27.89M58.2-563.44v27.9M318.57-18.18V9.72M267-18.18V9.72M200.14-478.43H370.22m-170.08,27.9H370.23M200.14-422.64H370.22m-170.08,27.9H370.23M200.14-366.85H370.22M27.26,79.49h170.1m-343,0H24.48M27.26,51.6h170.1m-343,0H24.48m2.78-27.9h170.1m-343,0H24.48M27.26-4.19h170.1m-343,0H24.48m2.78-27.9h170.1m-343,0H24.48M200.14-60h170.1m-170.1-27.9H370.22M200.14-115.77H370.23m-170.09-27.9H370.22m-170.08-27.9H370.23M200.14-199.46H370.22m-170.08-27.9H370.23M200.14-255.25H370.22m-170.08-83.7H370.23m-343-139.48H197.34M27.26-450.53H197.35M27.26-422.64H197.34M27.26-394.74H197.35M27.26-366.85H197.34M27.26-60h170.1M27.26-87.88H197.34M27.26-115.77H197.35M27.26-143.67H197.34M27.26-171.57H197.35M27.26-199.46H197.34M27.26-227.36H197.35M27.26-255.25H197.34M27.26-338.95H197.35m-343-139.48H24.46m-170.08,27.9H24.47m-170.09,27.89H24.46m-170.08,27.9H24.47m-170.09,27.89H24.46M-145.62-60H24.48m-170.1-27.9H24.46m-170.08-27.89H24.47m-170.09-27.9H24.46m-170.08-27.9H24.47m-170.09-27.89H24.46m-170.08-27.9H24.47m-170.09-27.89H24.46m175.68-27.91H370.22m-170.08-27.9H370.2M27.26-283.16H197.34M27.26-311.06H197.32m-342.94,27.9H24.46m-170.08-27.9H24.44m-170.06-27.89H24.47"/><path class="cls-1" d="M-117.14-506.5V107.2M-9.57-506.5V107.21M286.79-563.61v27.85"/><polygon class="cls-2" points="24.46 107.18 24.46 -532.95 -145.62 -532.95 -145.62 107.2 24.46 107.18"/><path class="cls-3" d="M11.14,2A8,8,0,0,1,6.77,16.75a7.93,7.93,0,0,1-5.53-2.22,5.38,5.38,0,0,1,.92-2.86A7.28,7.28,0,0,1,4.42,9.39,5,5,0,0,1,11.09,2Z"/><path class="cls-4" d="M11.14,2A8,8,0,0,1,6.77,16.75a7.93,7.93,0,0,1-5.53-2.22,5.38,5.38,0,0,1,.92-2.86A7.28,7.28,0,0,1,4.42,9.39,5,5,0,0,1,11.09,2Z"/><path d="M8.24,6.1a.38.38,0,0,1-.75,0,.38.38,0,1,1,.75,0Z"/><path class="cls-4" d="M8.24,6.1a.38.38,0,0,1-.75,0,.38.38,0,1,1,.75,0Z"/><line class="cls-4" x1="4.42" y1="9.39" x2="8.12" y2="6.37"/></svg>