<svg id="Capa_1" data-name="Capa 1" xmlns="http://www.w3.org/2000/svg" viewBox="0 0 14.64 16.07"><defs><style>.cls-1,.cls-2,.cls-3{fill:none;}.cls-1{stroke:#999;stroke-width:0.75px;}.cls-2,.cls-3{stroke:#000;}.cls-2{stroke-width:0.8px;}.cls-3{stroke-width:0.36px;}</style></defs><title>10.2.45 Microfósiles</title><path class="cls-1" d="M-192.66-62.77v27.88M-463-62.78V-34.9m175.34-27.88v27.89M-27.3,482.47v27.91m-51.62-27.91v27.91M-145.73,22.22H24.35m-170.08,27.9H24.36M-145.73,78H24.35m-170.08,27.89H24.36m-170.09,27.9H24.35m-343,446.34h170.1m-343,0h170.1m2.78-27.9h170.1m-343,0h170.1m2.78-27.89h170.1m-343,0h170.1m2.78-27.9h170.1m-343,0h170.1m2.78-27.9h170.1m-343,0h170.1m175.66-27.89H24.37m-170.1-27.9H24.35m-170.08-27.89H24.36M-145.73,357H24.35m-170.08-27.89H24.36m-170.09-27.9H24.35M-145.73,273.3H24.36m-170.09-27.9H24.35m-170.08-83.7H24.36m-343-139.48h170.08m-170.08,27.9h170.09M-318.61,78h170.08m-170.08,27.89h170.09m-170.09,27.9h170.08M-318.61,440.67h170.1m-170.1-27.9h170.08m-170.08-27.89h170.09M-318.61,357h170.08m-170.08-27.89h170.09m-170.09-27.9h170.08M-318.61,273.3h170.09m-170.09-27.9h170.08m-170.08-83.7h170.09m-343-139.48h170.08m-170.08,27.9H-321.4M-491.49,78h170.08m-170.08,27.89H-321.4m-170.09,27.9h170.08M-491.49,440.67h170.1m-170.1-27.9h170.08m-170.08-27.89H-321.4M-491.49,357h170.08m-170.08-27.89H-321.4m-170.09-27.9h170.08M-491.49,273.3H-321.4m-170.09-27.9h170.08m175.68-27.91H24.35M-145.73,189.6H24.33m-342.94,27.89h170.08M-318.61,189.6h170.06m-342.94,27.89h170.08M-491.49,189.6h170.06m-170.06-27.9H-321.4"/><path class="cls-2" d="M24.36,510.18V468.37H-145.72V510.2Zm0,97.63V510.19H-145.72v97.65Zm0-139.46V-32.3H-145.73V468.38Z"/><path class="cls-3" d="M.75,3.93l13,8.36m.19-8L.56,12M7.25.38V15.84"/></svg>