<svg id="Capa_1" data-name="Capa 1" xmlns="http://www.w3.org/2000/svg" viewBox="0 0 17.04 14.3"><defs><style>.cls-1,.cls-2,.cls-4{fill:none;}.cls-1{stroke:#999;stroke-width:0.75px;}.cls-2,.cls-4{stroke:#000;}.cls-2{stroke-width:0.8px;}.cls-3{fill:#fff;}.cls-4{stroke-width:0.36px;}</style></defs><title>10.2.46 Conodontos</title><path class="cls-1" d="M-191.52-91.57v27.88M-461.87-91.58V-63.7m175.34-27.88v27.89M-26.16,453.67v27.91m-51.62-27.91v27.91M-144.59-6.58H25.48m-170.07,27.9H25.5m-170.09,27.9H25.48M-144.59,77.11H25.5M-144.59,105H25.48m-343,446.34h170.1m-343,0h170.1m2.78-27.9h170.1m-343,0h170.1m2.78-27.89h170.1m-343,0h170.1m2.78-27.9h170.1m-343,0h170.1m2.78-27.9h170.1m-343,0h170.1m175.66-27.89H25.51M-144.59,384H25.48m-170.07-27.89H25.5m-170.09-27.9H25.48m-170.07-27.89H25.5m-170.09-27.9H25.48M-144.59,244.5H25.5m-170.09-27.9H25.48m-170.07-83.7H25.5m-343-139.48h170.08m-170.08,27.9h170.09m-170.09,27.9h170.08M-317.47,77.11h170.09M-317.47,105h170.08M-317.47,411.87h170.1M-317.47,384h170.08m-170.08-27.89h170.09m-170.09-27.9h170.08m-170.08-27.89h170.09m-170.09-27.9h170.08M-317.47,244.5h170.09m-170.09-27.9h170.08m-170.08-83.7h170.09m-343-139.48h170.08m-170.08,27.9h170.09m-170.09,27.9h170.08M-490.35,77.11h170.09M-490.35,105h170.08M-490.35,411.87h170.1M-490.35,384h170.08m-170.08-27.89h170.09m-170.09-27.9h170.08m-170.08-27.89h170.09m-170.09-27.9h170.08M-490.35,244.5h170.09m-170.09-27.9h170.08m175.68-27.91H25.49M-144.59,160.8H25.46m-342.93,27.89h170.08M-317.47,160.8h170.06m-342.94,27.89h170.08M-490.35,160.8h170.06m-170.06-27.9h170.09"/><path class="cls-2" d="M25.49,481.38V439.57H-144.58V481.4Zm0,97.63V481.39H-144.58V579Zm0-139.46V-61.1H-144.6V439.58Z"/><path class="cls-3" d="M.73,9.24c.31.57,2.33,4.52,2.33,4.52l7.21-.48s4.56-4,5.67-6.33a8.15,8.15,0,0,0,.53-4.3A12,12,0,0,1,14.4,5.72a7.9,7.9,0,0,1-1.89,1.1,16.34,16.34,0,0,0-1-2.68A23.64,23.64,0,0,0,9.87,1.77S10.23,4,9.7,4.85A8.77,8.77,0,0,1,8.29,6.51,27.67,27.67,0,0,0,4.78,2.6,10.69,10.69,0,0,0,1,1S4.34,4.63,4,6.65.73,9.24.73,9.24Z"/><path class="cls-4" d="M.73,9.24c.31.57,2.33,4.52,2.33,4.52l7.21-.48s4.56-4,5.67-6.33a8.15,8.15,0,0,0,.53-4.3A12,12,0,0,1,14.4,5.72a7.9,7.9,0,0,1-1.89,1.1,16.34,16.34,0,0,0-1-2.68A23.64,23.64,0,0,0,9.87,1.77S10.23,4,9.7,4.85A8.77,8.77,0,0,1,8.29,6.51,27.67,27.67,0,0,0,4.78,2.6,10.69,10.69,0,0,0,1,1S4.34,4.63,4,6.65.73,9.24.73,9.24Z"/><path class="cls-4" d="M2.32,12.23C4.1,11.77,4.86,9.64,6.1,9.59s3.8,2.11,4.19,3.65"/></svg>