<svg id="Capa_1" data-name="Capa 1" xmlns="http://www.w3.org/2000/svg" viewBox="0 0 16.87 6.17"><defs><style>.cls-1,.cls-2,.cls-4{fill:none;}.cls-1{stroke:#999;stroke-width:0.75px;}.cls-2,.cls-4{stroke:#000;}.cls-2{stroke-width:0.8px;}.cls-3{fill:#fff;}.cls-4{stroke-width:0.36px;}</style></defs><title>10.2.21 Belemnites</title><path class="cls-1" d="M154.92-626.32v27.88m-270.35-27.9v27.88M59.9-626.34v27.9M320.28-81.09v27.91M268.66-81.09v27.91M201.84-541.33H371.92M201.84-513.44H371.93m-170.09,27.9H371.92M201.84-457.65H371.93m-170.09,27.9H371.92M29,16.59h170.1m-343,0H26.19M29-11.31h170.1m-343,0H26.19M29-39.2h170.1m-343,0H26.19M29-67.1h170.1m-343,0H26.19M29-95h170.1m-343,0H26.19m175.65-27.9h170.1m-170.1-27.89H371.92m-170.08-27.9H371.93M201.84-206.57H371.92m-170.08-27.9H371.93M201.84-262.36H371.92m-170.08-27.9H371.93m-170.09-27.9H371.92m-170.08-83.7H371.93M29-541.33H199M29-513.44H199.05M29-485.54H199M29-457.65H199.05M29-429.75H199M29-122.89h170.1M29-150.78H199M29-178.68H199.05M29-206.57H199M29-234.47H199.05M29-262.36H199M29-290.26H199.05M29-318.16H199M29-401.86H199.05m-343-139.47H26.17m-170.08,27.89H26.18m-170.09,27.9H26.17m-170.08,27.89H26.18m-170.09,27.9H26.17M-143.91-122.89H26.19m-170.1-27.89H26.17m-170.08-27.9H26.18m-170.09-27.89H26.17m-170.08-27.9H26.18m-170.09-27.89H26.17m-170.08-27.9H26.18m-170.09-27.9H26.17m175.67-27.91H371.92M201.84-374H371.9M29-346.07H199M29-374H199m-342.93,27.89H26.17M-143.91-374H26.14m-170-27.9H26.18"/><path class="cls-1" d="M-115.43-569.41V44.29M-7.86-569.41V44.31M288.49-626.51v27.85"/><polygon class="cls-2" points="26.16 44.27 26.16 -595.85 -143.91 -595.85 -143.91 44.3 26.16 44.27"/><polygon class="cls-3" points="16.34 3.25 16.34 5.53 10.42 4.39 0.67 3.25 10.42 2.11 16.34 0.97 16.34 3.25"/><polygon class="cls-4" points="16.34 3.25 16.34 5.53 10.42 4.39 0.67 3.25 10.42 2.11 16.34 0.97 16.34 3.25"/><path class="cls-4" d="M4.23,2.83l-.43.41.43.42m1.65-1-.43.61.43.6M7.53,2.44l-.43.8.43.81m1.65-1.8-.43,1,.43,1M10.82,2l-.43,1.22.43,1.21m1.65-2.74L12,3.25l.43,1.53"/></svg>