<svg id="Capa_1" data-name="Capa 1" xmlns="http://www.w3.org/2000/svg" viewBox="0 0 16.57 17.81"><defs><style>.cls-1,.cls-2,.cls-4{fill:none;}.cls-1{stroke:#999;stroke-width:0.75px;}.cls-2,.cls-4{stroke:#000;}.cls-2{stroke-width:0.8px;}.cls-3{fill:#fff;}.cls-4{stroke-width:0.36px;}</style></defs><title>10.2.40 Fungi</title><path class="cls-1" d="M-19.13-536.74v27.89m-270.35-27.9v27.88m175.33-27.88v27.9M146.23,8.5V36.41M94.61,8.5V36.41M27.8-451.74H197.87M27.8-423.85H197.88M27.8-395.95H197.87M27.8-368.06H197.88M27.8-340.16H197.87m-343,446.34H25m-343,0h170.1m2.78-27.9H25m-343,0h170.1m2.78-27.89H25m-343,0h170.1m2.78-27.9H25m-343,0h170.1m2.78-27.89H25m-343,0h170.1M27.8-33.3H197.9M27.8-61.2H197.87M27.8-89.09H197.88M27.8-117H197.87M27.8-144.88H197.88M27.8-172.78H197.87M27.8-200.67H197.88M27.8-228.57H197.87M27.8-312.27H197.88m-343-139.47H25m-170.08,27.89H25m-170.09,27.9H25m-170.08,27.89H25m-170.09,27.9H25M-145.08-33.3H25m-170.1-27.9H25M-145.08-89.09H25M-145.08-117H25m-170.08-27.9H25m-170.09-27.9H25m-170.08-27.89H25m-170.09-27.9H25m-170.08-83.7H25M-318-451.74h170.08M-318-423.85h170.09M-318-395.95h170.08M-318-368.06h170.09M-318-340.16h170.08M-318-33.3h170.1M-318-61.2h170.08M-318-89.09h170.09M-318-117h170.08M-318-144.88h170.09M-318-172.78h170.08M-318-200.67h170.09M-318-228.57h170.08M27.8-256.48H197.87M27.8-284.37h170m-342.93,27.89H25m-170.08-27.89H25M-318-256.48h170.08M-318-284.37H-147.9M-318-312.27h170.09"/><path class="cls-1" d="M-289.48-479.82v613.7m107.57-613.7V133.9M114.45-536.92v27.85"/><polygon class="cls-2" points="24.99 133.86 24.99 -506.26 -145.08 -506.26 -145.08 133.89 24.99 133.86"/><path class="cls-3" d="M.64,7C.64,3.59,4,.88,8.23.88S15.81,3.59,15.81,7Z"/><path class="cls-4" d="M.64,7C.64,3.59,4,.88,8.23.88S15.81,3.59,15.81,7Z"/><path class="cls-3" d="M15.81,6.92c0,.47-3.39.86-7.58.86S.64,7.39.64,6.92,4,6.05,8.23,6.05s7.58.39,7.58.87"/><path class="cls-4" d="M15.81,6.92c0,.47-3.39.86-7.58.86S.64,7.39.64,6.92,4,6.05,8.23,6.05,15.81,6.44,15.81,6.92Z"/><path class="cls-3" d="M7.54,17c0-.89,1.41-2.92,2.13-5s.26-6,.26-6l-1.67,0-1.51,0s.46,3.91-.26,6-2.17,4.1-2.13,5Z"/><path class="cls-4" d="M7.54,17c0-.89,1.41-2.92,2.13-5s.26-6,.26-6l-1.67,0-1.51,0s.46,3.91-.26,6-2.17,4.1-2.13,5Z"/></svg>