<svg id="Capa_1" data-name="Capa 1" xmlns="http://www.w3.org/2000/svg" viewBox="0 0 16.98 8.24"><defs><style>.cls-1,.cls-2,.cls-4{fill:none;}.cls-1{stroke:#999;stroke-width:0.75px;}.cls-2,.cls-4{stroke:#000;}.cls-2{stroke-width:0.8px;}.cls-3{fill:#fff;}.cls-4{stroke-width:0.36px;}</style></defs><title>10.2.53 Ostrácodos</title><path class="cls-1" d="M-191.4-289.57v27.88m-270.34-27.89v27.88m175.33-27.88v27.89M-26,255.67v27.91m-51.62-27.91v27.91m-66.82-488.16H25.61m-170.08,27.9H25.62m-170.09,27.9H25.61m-170.08,27.89H25.62M-144.47-93H25.61M-317.34,353.35h170.09m-343,0h170.1m2.78-27.9h170.09m-343,0h170.1m2.78-27.89h170.09m-343,0h170.1m2.78-27.9h170.09m-343,0h170.1m2.78-27.9h170.09m-343,0h170.1m175.65-27.89H25.63M-144.47,186H25.61m-170.08-27.89H25.62m-170.09-27.9H25.61m-170.08-27.89H25.62m-170.09-27.9H25.61M-144.47,46.5H25.62M-144.47,18.6H25.61M-144.47-65.1H25.62m-343-139.48h170.07m-170.07,27.9h170.08m-170.08,27.9h170.07m-170.07,27.89h170.08M-317.34-93h170.07M-317.34,213.87h170.09M-317.34,186h170.07m-170.07-27.89h170.08m-170.08-27.9h170.07m-170.07-27.89h170.08m-170.08-27.9h170.07M-317.34,46.5h170.08M-317.34,18.6h170.07M-317.34-65.1h170.08m-343-139.48h170.07m-170.07,27.9h170.09m-170.09,27.9h170.07m-170.07,27.89h170.09M-490.22-93h170.07M-490.22,213.87h170.1M-490.22,186h170.07m-170.07-27.89h170.09m-170.09-27.9h170.07m-170.07-27.89h170.09m-170.09-27.9h170.07M-490.22,46.5h170.09M-490.22,18.6h170.07M-144.47-9.31H25.61M-144.47-37.2H25.59M-317.34-9.31h170.07M-317.34-37.2h170M-490.22-9.31h170.08M-490.22-37.2h170.05m-170-27.9h170.09"/><path class="cls-2" d="M25.62,283.38V241.57H-144.46V283.4Zm0,97.63V283.39H-144.46V381Zm0-139.46V-259.1H-144.47V241.58Z"/><path class="cls-3" d="M15.43.69A3.39,3.39,0,0,1,16.54,3c0,2.64-3.64,4.78-8.14,4.78S.27,5.65.27,3A3.43,3.43,0,0,1,1.34.69Z"/><path class="cls-4" d="M15.43.69A3.39,3.39,0,0,1,16.54,3c0,2.64-3.64,4.78-8.14,4.78S.27,5.65.27,3A3.43,3.43,0,0,1,1.34.69Z"/><path class="cls-4" d="M5.18.72C3.92,1.24,3.1,2.07,3.1,3c0,1.58,2.36,2.87,5.26,2.87S13.62,4.59,13.62,3c0-1-.85-1.8-2.15-2.32"/></svg>