<svg id="Capa_1" data-name="Capa 1" xmlns="http://www.w3.org/2000/svg" viewBox="0 0 7.08 17.28"><defs><style>.cls-1,.cls-2,.cls-4{fill:none;}.cls-1{stroke:#999;stroke-width:0.75px;}.cls-2,.cls-4{stroke:#000;}.cls-2{stroke-width:0.8px;}.cls-3{fill:#fff;}.cls-4{stroke-width:0.36px;}</style></defs><title>10.2.3 Anélidos</title><path class="cls-1" d="M149.1-117.52v27.88m-270.34-27.9v27.88M54.09-117.54v27.9M314.47,427.71v27.91m-51.62-27.91v27.91M196-32.53H366.11M196-4.64H366.12M196,23.26H366.11M196,51.15H366.12M196,79.05H366.11M23.16,525.39H193.25m-343,0H20.38m2.78-27.9H193.25m-343,0H20.38m2.78-27.89H193.25m-343,0H20.38m2.78-27.9H193.25m-343,0H20.38m2.78-27.89H193.25m-343,0H20.38M196,385.91h170.1M196,358H366.11M196,330.12H366.12M196,302.23H366.11M196,274.33H366.12M196,246.44H366.11M196,218.54H366.12M196,190.64H366.11M196,106.94H366.12M23.16-32.53H193.23M23.16-4.64H193.24M23.16,23.26H193.23M23.16,51.15H193.24M23.16,79.05H193.23M23.16,385.91H193.25M23.16,358H193.23M23.16,330.12H193.24M23.16,302.23H193.23M23.16,274.33H193.24M23.16,246.44H193.23M23.16,218.54H193.24M23.16,190.64H193.23M23.16,106.94H193.24m-343-139.47H20.35M-149.72-4.64H20.37m-170.09,27.9H20.35M-149.72,51.15H20.37m-170.09,27.9H20.35M-149.72,385.91H20.38M-149.72,358H20.35m-170.07-27.9H20.37m-170.09-27.89H20.35m-170.07-27.9H20.37m-170.09-27.89H20.35m-170.07-27.9H20.37m-170.09-27.9H20.35M196,162.73H366.11M196,134.84H366.09M23.16,162.73H193.23M23.16,134.84H193.21m-342.93,27.89H20.36m-170.08-27.89H20.33m-170-27.9H20.37"/><path class="cls-1" d="M-121.24-60.42v613.7M-13.67-60.42V553.3M282.68-117.52v27.85"/><polygon class="cls-2" points="20.35 553.26 20.35 -86.86 -149.72 -86.86 -149.72 553.29 20.35 553.26"/><path class="cls-3" d="M4,16.84c.48,0,.86-1,.86-2.24a6.32,6.32,0,0,0-1.63-3.87c-.9-.9-.7-2.57.44-3.71A7.08,7.08,0,0,0,5.76,3.11c0-1-.39-1.83-.86-1.83s-.85.82-.85,1.83A7.08,7.08,0,0,1,2,7C.82,8.16.62,9.83,1.52,10.73A6.33,6.33,0,0,1,3.16,14.6C3.16,15.84,3.54,16.84,4,16.84Z"/><path class="cls-4" d="M4,16.84c.48,0,.86-1,.86-2.24a6.32,6.32,0,0,0-1.63-3.87c-.9-.9-.7-2.57.44-3.71A7.08,7.08,0,0,0,5.76,3.11c0-1-.39-1.83-.86-1.83s-.85.82-.85,1.83A7.08,7.08,0,0,1,2,7C.82,8.16.62,9.83,1.52,10.73A6.33,6.33,0,0,1,3.16,14.6C3.16,15.84,3.54,16.84,4,16.84Z"/></svg>