<svg id="Capa_1" data-name="Capa 1" xmlns="http://www.w3.org/2000/svg" viewBox="0 0 17.31 8.38"><defs><style>.cls-1,.cls-2,.cls-4{fill:none;}.cls-1{stroke:#999;stroke-width:0.75px;}.cls-2,.cls-4{stroke:#000;}.cls-2{stroke-width:0.8px;}.cls-3{fill:#fff;}.cls-4{stroke-width:0.36px;}</style></defs><title>10.2.9 Braquiopodos</title><path class="cls-1" d="M154.22-289v27.88M-116.13-289v27.88M59.21-289v27.89M319.58,256.24v27.9M268,256.24v27.9M201.15-204H371.23m-170.08,27.9H371.24M201.15-148.22H371.23m-170.08,27.9H371.24M201.15-92.43H371.23m-343,446.34h170.1m-343,0H25.49M28.27,326h170.1m-343,0H25.49m2.78-27.9h170.1m-343,0H25.49m2.78-27.89h170.1m-343,0H25.49m2.78-27.9h170.1m-343,0H25.49m175.66-27.89h170.1m-170.1-27.9H371.23M201.15,158.65H371.24m-170.09-27.9H371.23M201.15,102.86H371.24M201.15,75H371.23M201.15,47.06H371.24M201.15,19.17H371.23M201.15-64.53H371.24M28.27-204H198.35M28.27-176.11H198.36M28.27-148.22H198.35M28.27-120.32H198.36M28.27-92.43H198.35M28.27,214.44h170.1m-170.1-27.9H198.35M28.27,158.65H198.36M28.27,130.75H198.35M28.27,102.86H198.36M28.27,75H198.35M28.27,47.06H198.36M28.27,19.17H198.35M28.27-64.53H198.36M-144.61-204H25.47m-170.08,27.9H25.48m-170.09,27.89H25.47m-170.08,27.9H25.48M-144.61-92.43H25.47M-144.61,214.44H25.49m-170.1-27.9H25.47m-170.08-27.89H25.48m-170.09-27.9H25.47m-170.08-27.89H25.48M-144.61,75H25.47m-170.08-27.9H25.48M-144.61,19.17H25.47M201.15-8.74H371.23M201.15-36.63H371.21M28.27-8.74H198.35M28.27-36.63H198.33M-144.61-8.74H25.47M-144.61-36.63H25.45m-170.06-27.9H25.48"/><path class="cls-1" d="M-116.13-232.08v613.7M-8.56-232.08V381.63M287.8-289.19v27.85"/><polygon class="cls-2" points="25.47 381.6 25.47 -258.53 -144.61 -258.53 -144.61 381.63 25.47 381.6"/><path class="cls-3" d="M16.58,1.83A8.89,8.89,0,0,1,11.8,3.15C10.15,3.15,8.54,1.5,8.54.57c0,.93-1.6,2.58-3.25,2.58A8.85,8.85,0,0,1,.51,1.83,6.19,6.19,0,0,0,3.64,7.27a3.81,3.81,0,0,0,4.91-.22,3.83,3.83,0,0,0,4.92.22A6.21,6.21,0,0,0,16.6,1.83Z"/><path class="cls-4" d="M16.58,1.83A8.89,8.89,0,0,1,11.8,3.15C10.15,3.15,8.54,1.5,8.54.57c0,.93-1.6,2.58-3.25,2.58A8.85,8.85,0,0,1,.51,1.83,6.19,6.19,0,0,0,3.64,7.27a3.81,3.81,0,0,0,4.91-.22,3.83,3.83,0,0,0,4.92.22A6.21,6.21,0,0,0,16.6,1.83Z"/></svg>