<svg id="Capa_1" data-name="Capa 1" xmlns="http://www.w3.org/2000/svg" viewBox="0 0 17.83 6.94"><defs><style>.cls-1,.cls-2,.cls-3{fill:none;}.cls-1{stroke:#999;stroke-width:0.75px;}.cls-2,.cls-3{stroke:#000;}.cls-2{stroke-width:0.8px;}.cls-3{stroke-width:0.36px;}</style></defs><title>10.2.41 Trazas fósiles</title><path class="cls-1" d="M-17.87-569.32v27.88m-270.35-27.9v27.88m175.34-27.88v27.9M147.49-24.09V3.82M95.87-24.09V3.82M29.06-484.33H199.14M29.06-456.44H199.15M29.06-428.54H199.14M29.06-400.65H199.15M29.06-372.75H199.14m-343,446.34H26.28m-343,0h170.1m2.78-27.9H26.28m-343,0h170.1m2.78-27.89H26.28m-343,0h170.1m2.78-27.9H26.28m-343,0h170.1M-143.82-38H26.28m-343,0h170.1M29.06-65.89h170.1M29.06-93.78H199.14M29.06-121.68H199.15M29.06-149.57H199.14M29.06-177.47H199.15M29.06-205.36H199.14M29.06-233.26H199.15M29.06-261.16H199.14M29.06-344.86H199.15m-343-139.47H26.26m-170.08,27.89H26.27m-170.09,27.9H26.26m-170.08,27.89H26.27m-170.09,27.9H26.26M-143.82-65.89H26.28m-170.1-27.89H26.26m-170.08-27.9H26.27m-170.09-27.89H26.26m-170.08-27.9H26.27m-170.09-27.89H26.26m-170.08-27.9H26.27m-170.09-27.9H26.26m-170.08-83.7H26.27m-343-139.47h170.08M-316.7-456.44h170.09m-170.09,27.9h170.08M-316.7-400.65h170.09m-170.09,27.9h170.08M-316.7-65.89h170.1M-316.7-93.78h170.08m-170.08-27.9h170.09M-316.7-149.57h170.08m-170.08-27.9h170.09M-316.7-205.36h170.08m-170.08-27.9h170.09m-170.09-27.9h170.08M29.06-289.07H199.14M29.06-317H199.12m-342.94,27.89H26.26M-143.82-317H26.24M-316.7-289.07h170.08M-316.7-317h170.06m-170.06-27.9h170.09"/><path class="cls-1" d="M-288.22-512.41v613.7m107.58-613.7V101.31M115.71-569.51v27.85"/><polygon class="cls-2" points="26.26 101.27 26.26 -538.85 -143.82 -538.85 -143.82 101.3 26.26 101.27"/><path class="cls-3" d="M16.94,6.36A5.51,5.51,0,0,0,12.44,4,7.49,7.49,0,0,0,8.23,5.57,5.75,5.75,0,0,1,.9,4.1m16-.75A5.51,5.51,0,0,0,12.44,1,7.49,7.49,0,0,0,8.23,2.56a5.72,5.72,0,0,1-2.82.73A5.72,5.72,0,0,1,.9,1.09"/></svg>