<svg id="Capa_1" data-name="Capa 1" xmlns="http://www.w3.org/2000/svg" viewBox="0 0 17.79 15.8"><defs><style>.cls-1,.cls-2,.cls-4{fill:none;}.cls-1{stroke:#999;stroke-width:0.75px;}.cls-2,.cls-4{stroke:#000;}.cls-2{stroke-width:0.8px;}.cls-3{fill:#fff;}.cls-4{stroke-width:0.36px;}</style></defs><title>10.2.58 Polen o esporas</title><path class="cls-1" d="M-190.08-426.21v27.88m-270.35-27.9v27.89m175.33-27.89v27.9M-24.72,119v27.9M-76.34,119v27.9m-66.82-488.15H26.92m-170.08,27.9H26.93m-170.09,27.89H26.92m-170.08,27.9H26.93m-170.09,27.89H26.92M-316,216.7h170.1m-343,0h170.1m2.78-27.89h170.1m-343,0h170.1m2.78-27.9h170.1m-343,0h170.1M-316,133h170.1m-343,0h170.1m2.78-27.9h170.1m-343,0h170.1m175.65-27.89H26.94m-170.1-27.9H26.92M-143.16,21.44H26.93M-143.16-6.46H26.92m-170.08-27.9H26.93M-143.16-62.25H26.92m-170.08-27.9H26.93M-143.16-118H26.92m-170.08-83.7H26.93M-316-341.22H-146M-316-313.32h170.08M-316-285.43H-146M-316-257.53h170.08M-316-229.64H-146M-316,77.23h170.1M-316,49.33H-146M-316,21.44h170.08M-316-6.46H-146M-316-34.36h170.08M-316-62.25H-146M-316-90.15h170.08M-316-118H-146M-316-201.74h170.08m-343-139.48h170.08m-170.08,27.9h170.09m-170.09,27.89h170.08m-170.08,27.9h170.09m-170.09,27.89h170.08M-488.91,77.23h170.1m-170.1-27.9h170.08M-488.91,21.44h170.09M-488.91-6.46h170.08m-170.08-27.9h170.09M-488.91-62.25h170.08m-170.08-27.9h170.09M-488.91-118h170.08m175.67-27.91H26.92m-170.08-27.9H26.9M-316-145.95H-146M-316-173.85h170m-342.93,27.9h170.08m-170.08-27.9h170.05m-170-27.89h170.09"/><path class="cls-2" d="M26.93,146.73v-41.8H-143.15v41.83Zm0,97.64V146.74H-143.15v97.65Zm0-139.46V-395.74H-143.16V104.94Z"/><path class="cls-3" d="M1.05,1.92c-.75,1.09.4,2.35,1.54,3S6.07,6.44,6.53,7.81a29.29,29.29,0,0,1,.69,5.43,2.2,2.2,0,1,0,4.4.11c-.06-1.26-.46-3.37,0-4.28S15.73,5.3,16.3,4.55a2.3,2.3,0,0,0,0-2.8,2.68,2.68,0,0,0-3.25-1c-1.38.51-2.4,1.77-3.89,1.82A11,11,0,0,1,4,1.24,2,2,0,0,0,1.05,1.92Z"/><path class="cls-4" d="M1.05,1.92c-.75,1.09.4,2.35,1.54,3S6.07,6.44,6.53,7.81a29.29,29.29,0,0,1,.69,5.43,2.2,2.2,0,1,0,4.4.11c-.06-1.26-.46-3.37,0-4.28S15.73,5.3,16.3,4.55a2.3,2.3,0,0,0,0-2.8,2.68,2.68,0,0,0-3.25-1c-1.38.51-2.4,1.77-3.89,1.82A11,11,0,0,1,4,1.24,2,2,0,0,0,1.05,1.92Z"/><path class="cls-4" d="M14.07,3.18l-5,2.94M3.5,3.58S8.87,5.75,9.05,6.1s.57,6.74.51,6.91"/></svg>