<svg id="Capa_1" data-name="Capa 1" xmlns="http://www.w3.org/2000/svg" viewBox="0 0 18.17 10.94"><defs><style>.cls-1,.cls-2,.cls-4{fill:none;}.cls-1{stroke:#999;stroke-width:0.75px;}.cls-2,.cls-4{stroke:#000;}.cls-2{stroke-width:0.8px;}.cls-3{fill:#fff;}.cls-4{stroke-width:0.36px;}</style></defs><title>10.2.2 Invertebrados</title><path class="cls-1" d="M153.18-92.8v27.88M-117.17-92.81v27.88M58.17-92.81v27.89M318.54,452.44v27.9m-51.62-27.9v27.9M200.11-7.81H370.18M200.11,20.09H370.2M200.11,48H370.18M200.11,75.88H370.2M200.11,103.77H370.18M27.23,550.11h170.1m-343,0H24.45m2.78-27.89h170.1m-343,0H24.45m2.78-27.9h170.1m-343,0H24.45m2.78-27.89h170.1m-343,0H24.45m2.78-27.9h170.1m-343,0H24.45m175.66-27.89h170.1m-170.1-27.9H370.18M200.11,354.85H370.2M200.11,327H370.18M200.11,299.06H370.2m-170.09-27.9H370.18m-170.07-27.9H370.2M200.11,215.37H370.18m-170.07-83.7H370.2M27.23-7.81H197.31M27.23,20.09H197.32M27.23,48H197.31M27.23,75.88H197.32M27.23,103.77H197.31M27.23,410.64h170.1m-170.1-27.9H197.31M27.23,354.85H197.32M27.23,327H197.31M27.23,299.06H197.32M27.23,271.16H197.31M27.23,243.26H197.32M27.23,215.37H197.31M27.23,131.67H197.32m-343-139.48H24.43m-170.08,27.9H24.44M-145.65,48H24.43m-170.08,27.9H24.44m-170.09,27.89H24.43M-145.65,410.64H24.45m-170.1-27.9H24.43m-170.08-27.89H24.44M-145.65,327H24.43m-170.08-27.89H24.44m-170.09-27.9H24.43m-170.08-27.9H24.44m-170.09-27.89H24.43m175.68-27.91H370.19M200.11,159.57H370.16M27.23,187.46H197.31M27.23,159.57H197.29m-342.94,27.89H24.43m-170.08-27.89H24.41m-170.06-27.9H24.44"/><path class="cls-1" d="M-117.17-35.69V578M-9.6-35.69V578M286.76-92.8v27.85"/><polygon class="cls-2" points="24.43 577.99 24.43 -62.14 -145.65 -62.14 -145.65 578.01 24.43 577.99"/><path class="cls-3" d="M5.67,7.44c-.79,0-1.58-.93-1.58-1.76A1.5,1.5,0,0,1,5.76,4.19,2.69,2.69,0,0,1,8.27,6.65c0,1.4-2,3.16-3.76,3.11A3.6,3.6,0,0,1,1,5.87a4.27,4.27,0,0,1,4.64-4.5c3,0,6.63,4.17,7.24,4.54A3.17,3.17,0,0,0,16.62,5a7.13,7.13,0,0,1-3.06,2.09,8.34,8.34,0,0,1-5.27-.7"/><path class="cls-4" d="M5.67,7.44c-.79,0-1.58-.93-1.58-1.76A1.5,1.5,0,0,1,5.76,4.19,2.69,2.69,0,0,1,8.27,6.65c0,1.4-2,3.16-3.76,3.11A3.6,3.6,0,0,1,1,5.87a4.27,4.27,0,0,1,4.64-4.5c3,0,6.63,4.17,7.24,4.54A3.17,3.17,0,0,0,16.62,5a7.13,7.13,0,0,1-3.06,2.09,8.34,8.34,0,0,1-5.27-.7"/></svg>