<svg id="Capa_1" data-name="Capa 1" xmlns="http://www.w3.org/2000/svg" viewBox="0 0 15.23 17.09"><defs><style>.cls-1,.cls-2,.cls-4{fill:none;}.cls-1{stroke:#999;stroke-width:0.75px;}.cls-2,.cls-4{stroke:#000;}.cls-2{stroke-width:0.8px;}.cls-3{fill:#fff;}.cls-4{stroke-width:0.36px;}</style></defs><title>10.2.4 Artrópodos</title><path class="cls-1" d="M153.65-146.51v27.88m-270.34-27.9v27.88M58.64-146.53v27.9M319,398.72v27.91M267.4,398.72v27.91M200.58-61.52H370.66M200.58-33.63H370.67M200.58-5.73H370.66M200.58,22.16H370.67M200.58,50.06H370.66M27.7,496.4H197.8m-343,0H24.92m2.78-27.9H197.8m-343,0H24.92m2.78-27.89H197.8m-343,0H24.92m2.78-27.9H197.8m-343,0H24.92m2.78-27.89H197.8m-343,0H24.92m175.66-27.9h170.1M200.58,329H370.66m-170.08-27.9H370.67M200.58,273.24H370.66m-170.08-27.9H370.67M200.58,217.45H370.66m-170.08-27.9H370.67m-170.09-27.9H370.66M200.58,78H370.67M27.7-61.52H197.78M27.7-33.63H197.79M27.7-5.73H197.78M27.7,22.16H197.79M27.7,50.06H197.78M27.7,356.92H197.8M27.7,329H197.78M27.7,301.13H197.79M27.7,273.24H197.78M27.7,245.34H197.79M27.7,217.45H197.78M27.7,189.55H197.79M27.7,161.65H197.78M27.7,78H197.79m-343-139.47H24.9M-145.17-33.63H24.91M-145.17-5.73H24.9M-145.17,22.16H24.91m-170.08,27.9H24.9M-145.17,356.92H24.92M-145.17,329H24.9m-170.07-27.9H24.91m-170.08-27.89H24.9m-170.07-27.9H24.91m-170.08-27.89H24.9m-170.07-27.9H24.91m-170.08-27.9H24.9m175.68-27.91H370.66M200.58,105.85H370.64M27.7,133.74H197.78M27.7,105.85H197.76m-342.93,27.89H24.9m-170.07-27.89h170m-170-27.9H24.91"/><path class="cls-1" d="M-116.69-89.41v613.7M-9.12-89.41V524.31M287.23-146.51v27.85"/><polygon class="cls-2" points="24.9 524.27 24.9 -115.85 -145.18 -115.85 -145.18 524.3 24.9 524.27"/><path class="cls-3" d="M7.68,1.15c1,0,2.49,4.08,1.9,4.76s.74.56.32,2.74-1.15,2.65-1,3,.93,3.89.27,4.54a2.69,2.69,0,0,1-.53.45h-2a2.69,2.69,0,0,1-.53-.45c-.66-.65.08-4.19.27-4.54s-.55-.82-1-3,.9-2.06.32-2.74.93-4.76,1.9-4.76Z"/><path class="cls-4" d="M7.68,1.15c1,0,2.49,4.08,1.9,4.76s.74.56.32,2.74-1.15,2.65-1,3,.93,3.89.27,4.54a2.69,2.69,0,0,1-.53.45h-2a2.69,2.69,0,0,1-.53-.45c-.66-.65.08-4.19.27-4.54s-.55-.82-1-3,.9-2.06.32-2.74.93-4.76,1.9-4.76Z"/><path class="cls-4" d="M6.35,11.88l1.33-.27L9,11.88M5.9,6.09,7.68,7.52,9.46,6.09"/><polygon class="cls-3" points="9.02 11.18 9.13 10.97 11.32 10.44 12.52 11.38 13.37 12.65 12.15 11.39 11.13 10.87 8.94 11.38 9.02 11.18"/><polygon class="cls-4" points="9.02 11.18 9.13 10.97 11.32 10.44 12.52 11.38 13.37 12.65 12.15 11.39 11.13 10.87 8.94 11.38 9.02 11.18"/><polygon class="cls-3" points="5.61 9.32 5.56 9.13 3.6 8.19 2.42 8.59 0.86 6.88 2.23 8.81 3.45 8.45 5.66 9.5 5.61 9.32"/><polygon class="cls-4" points="5.61 9.32 5.56 9.13 3.6 8.19 2.42 8.59 0.86 6.88 2.23 8.81 3.45 8.45 5.66 9.5 5.61 9.32"/><polygon class="cls-3" points="5.4 7.46 5.46 7.18 5.04 7.07 3.28 6.04 2.02 5.68 1.27 3.54 1.76 5.81 3.16 6.36 5.04 7.5 5.38 7.72 5.4 7.46"/><polygon class="cls-4" points="5.4 7.46 5.46 7.18 5.04 7.07 3.28 6.04 2.02 5.68 1.27 3.54 1.76 5.81 3.16 6.36 5.04 7.5 5.38 7.72 5.4 7.46"/><polygon class="cls-3" points="9.75 9.32 9.8 9.13 11.76 8.19 12.94 8.59 14.5 6.88 13.13 8.81 11.91 8.45 9.7 9.5 9.75 9.32"/><polygon class="cls-4" points="9.75 9.32 9.8 9.13 11.76 8.19 12.94 8.59 14.5 6.88 13.13 8.81 11.91 8.45 9.7 9.5 9.75 9.32"/><polygon class="cls-3" points="9.96 7.46 9.89 7.18 10.32 7.07 12.08 6.04 13.34 5.68 14.09 3.54 13.6 5.81 12.2 6.36 10.32 7.5 9.98 7.72 9.96 7.46"/><polygon class="cls-4" points="9.96 7.46 9.89 7.18 10.32 7.07 12.08 6.04 13.34 5.68 14.09 3.54 13.6 5.81 12.2 6.36 10.32 7.5 9.98 7.72 9.96 7.46"/><polygon class="cls-3" points="6.34 11.18 6.23 10.97 4.04 10.44 2.84 11.38 1.99 12.65 3.21 11.39 4.23 10.87 6.42 11.38 6.34 11.18"/><polygon class="cls-4" points="6.34 11.18 6.23 10.97 4.04 10.44 2.84 11.38 1.99 12.65 3.21 11.39 4.23 10.87 6.42 11.38 6.34 11.18"/><path d="M7,3a.29.29,0,0,1-.28.31.31.31,0,0,1,0-.62A.29.29,0,0,1,7,3"/><path d="M9,3a.3.3,0,0,1-.28.31A.29.29,0,0,1,8.4,3a.29.29,0,0,1,.28-.31A.3.3,0,0,1,9,3"/></svg>