<svg id="Capa_1" data-name="Capa 1" xmlns="http://www.w3.org/2000/svg" viewBox="0 0 17.76 16.15"><defs><style>.cls-1,.cls-2,.cls-4{fill:none;}.cls-1{stroke:#999;stroke-width:0.75px;}.cls-2,.cls-4{stroke:#000;}.cls-2{stroke-width:0.8px;}.cls-3{fill:#fff;}.cls-4{stroke-width:0.36px;}.cls-5{fill:#1d1d1b;}</style></defs><title>10.2.25 Esponjas</title><path class="cls-1" d="M-19.34-118.54v27.89m-270.34-27.9v27.88m175.33-27.88v27.9M146,426.7v27.91M94.41,426.7v27.91M27.59-33.54H197.67M27.59-5.65H197.68M27.59,22.25H197.67M27.59,50.14H197.68M27.59,78H197.67m-343,446.34H24.81m-343,0h170.09m2.78-27.9H24.81m-343,0h170.09m2.78-27.89H24.81m-343,0h170.09m2.78-27.9H24.81m-343,0h170.09m2.78-27.89H24.81m-343,0h170.09M27.59,384.9h170.1M27.59,357H197.67M27.59,329.11H197.68M27.59,301.22H197.67M27.59,273.32H197.68M27.59,245.42H197.67M27.59,217.53H197.68M27.59,189.63H197.67M27.59,105.93H197.68m-343-139.47H24.79M-145.29-5.65H24.8m-170.09,27.9H24.79M-145.29,50.14H24.8M-145.29,78H24.79M-145.29,384.9H24.81M-145.29,357H24.79m-170.08-27.89H24.8m-170.09-27.89H24.79m-170.08-27.9H24.8m-170.09-27.9H24.79m-170.08-27.89H24.8m-170.09-27.9H24.79m-170.08-83.7H24.8m-343-139.47h170.07M-318.16-5.65h170.08m-170.08,27.9h170.07M-318.16,50.14h170.08M-318.16,78h170.07M-318.16,384.9h170.09M-318.16,357h170.07m-170.07-27.89h170.08m-170.08-27.89h170.07m-170.07-27.9h170.08m-170.08-27.9h170.07m-170.07-27.89h170.08m-170.08-27.9h170.07M27.59,161.72H197.67M27.59,133.83H197.65m-342.94,27.89H24.79m-170.08-27.89H24.77m-342.93,27.89h170.07m-170.07-27.89h170.05m-170-27.9h170.08"/><path class="cls-1" d="M-289.68-61.62v613.7m107.57-613.7V552.1M114.24-118.72v27.85"/><polygon class="cls-2" points="24.79 552.06 24.79 -88.06 -145.29 -88.06 -145.29 552.09 24.79 552.06"/><path class="cls-3" d="M6,14.59a7.1,7.1,0,0,0-1.5.47c-.21.21,2.55,0,2.91.21a2.51,2.51,0,0,0,2.39.25c.95-.49,2.92.73,2.09-.1s2.39.49.62-.56-1.76-.73-2.13-.78-.87-.17-.38-.65,1.43-2.44,2.45-2.88.95-1.38,1.78-2.21a10,10,0,0,0,2.07-2.93c.29-.8,1-3,.76-3.62A1.9,1.9,0,0,0,15.59.6c-.54,0-1.49.56-2.1,2.31s-2.14,2.33-2.33,4.5-.76.73-1.1,2.34-1.17,1.14-1.1.36a17.38,17.38,0,0,1,.86-4.67c.6-1.27,1-3.34.41-3.89S8.43.35,7.91,2,6.24,4.88,6.41,5.83,5.26,8,6.26,9.46s-.17,1,.54,2-.15,1.24-.54.34-1.44-2-1.63-3.43a33.06,33.06,0,0,1-.39-3.56c0-.63-1.09-1.21-1.12,0s.71,2.56,0,3-1.25-.73-2-.12-.44,2,.22,2.21a2.16,2.16,0,0,1,1.78,1.42c.36,1,1.36,1.65,1.78,2.33A2.2,2.2,0,0,0,6,14.59Z"/><path class="cls-4" d="M6,14.59a7.1,7.1,0,0,0-1.5.47c-.21.21,2.55,0,2.91.21a2.51,2.51,0,0,0,2.39.25c.95-.49,2.92.73,2.09-.1s2.39.49.62-.56-1.76-.73-2.13-.78-.87-.17-.38-.65,1.43-2.44,2.45-2.88.95-1.38,1.78-2.21a10,10,0,0,0,2.07-2.93c.29-.8,1-3,.76-3.62A1.9,1.9,0,0,0,15.59.6c-.54,0-1.49.56-2.1,2.31s-2.14,2.33-2.33,4.5-.76.73-1.1,2.34-1.17,1.14-1.1.36a17.38,17.38,0,0,1,.86-4.67c.6-1.27,1-3.34.41-3.89S8.43.35,7.91,2,6.24,4.88,6.41,5.83,5.26,8,6.26,9.46s-.17,1,.54,2-.15,1.24-.54.34-1.44-2-1.63-3.43a33.06,33.06,0,0,1-.39-3.56c0-.63-1.09-1.21-1.12,0s.71,2.56,0,3-1.25-.73-2-.12-.44,2,.22,2.21a2.16,2.16,0,0,1,1.78,1.42c.36,1,1.36,1.65,1.78,2.33A2.2,2.2,0,0,0,6,14.59Z"/><path d="M15.15.84c-.45.45,1.31,1.61,1.7,1s-1.41-1.29-1.7-1"/><path d="M8.45,1.59c-.08.57,1.54,1.29,1.78.59S8.57.79,8.45,1.59"/><path d="M3.32,4.49c0,.32.73.41.75.1s-.71-.56-.75-.1"/><path d="M1.05,9.34c.37.16.71-1.32.39-1.49S.55,9.1,1.05,9.34"/><path class="cls-5" d="M7.27,13.82c.14.14.2.31.12.38s-.24,0-.38-.13-.2-.31-.13-.38.25,0,.39.13"/><path class="cls-5" d="M6,12.89c.15.15.2.33.13.39s-.24,0-.39-.13-.2-.31-.13-.39.25,0,.39.13"/><path class="cls-5" d="M5.83,11.92c.14.14.2.32.12.38s-.24,0-.38-.13-.2-.31-.13-.38.25,0,.39.13"/><path class="cls-5" d="M6.32,13.82c.15.14.21.31.13.38s-.24,0-.38-.13-.21-.31-.13-.38.24,0,.38.13"/><path class="cls-5" d="M4.26,11.6c.15.15.2.32.13.39s-.25,0-.39-.13-.2-.31-.13-.39.25,0,.39.13"/><path class="cls-5" d="M5,12.34c.15.14.21.32.13.39s-.24,0-.39-.13-.2-.31-.13-.39.25,0,.39.13"/><path class="cls-5" d="M7,12.78c.15.14.21.31.13.39s-.24,0-.38-.13-.2-.32-.13-.39.24,0,.38.13"/><path class="cls-5" d="M4.1,8.22c0,.2,0,.37-.15.39s-.2-.15-.22-.35,0-.37.14-.38.2.14.23.34"/><path class="cls-5" d="M8.74,13.6c0,.2,0,.37-.14.38s-.2-.15-.22-.34,0-.38.14-.39.2.14.22.35"/><path class="cls-5" d="M3.94,5.51c0,.2,0,.37-.15.39s-.2-.16-.22-.35,0-.37.14-.39.2.15.23.35"/><path class="cls-5" d="M3.94,9.71c.08.19.06.37,0,.41S3.68,10,3.6,9.85s-.07-.37,0-.4.23.08.32.26"/><path class="cls-5" d="M4.5,9.6c.08.19.07.37,0,.41s-.24-.08-.32-.27-.06-.36,0-.4.23.07.31.26"/><path class="cls-5" d="M5.3,11.13c.07.18.06.37,0,.4S5,11.46,5,11.27s-.07-.37,0-.41.24.08.32.27"/><path class="cls-5" d="M4.61,10.93c.07.19.07.37,0,.41s-.23-.08-.31-.26-.07-.37,0-.41.24.08.32.26"/><path class="cls-5" d="M3.5,8.63c.08.18.06.37,0,.41S3.24,9,3.16,8.77s-.07-.37,0-.41.23.08.31.27"/><path class="cls-5" d="M2.22,8.29c.14.14.2.32.13.38s-.25,0-.39-.12-.2-.33-.13-.39.24,0,.39.13"/><path class="cls-5" d="M2.85,9.28c.15.14.2.31.14.39s-.25,0-.4-.13-.2-.32-.12-.39.24,0,.38.13"/><path class="cls-5" d="M3.59,10.42c.14.14.21.31.14.38s-.25,0-.39-.13-.2-.31-.13-.38.24,0,.38.13"/><path class="cls-5" d="M1.92,9.25c.15.15.2.32.13.39s-.24,0-.39-.13-.19-.32-.13-.39.25,0,.39.13"/><path class="cls-5" d="M8.61,12.31c0,.2-.07.36-.17.36s-.19-.16-.19-.36.08-.37.19-.37.17.16.17.37"/><path class="cls-5" d="M4.11,7.05c0,.2-.08.36-.18.36s-.18-.16-.18-.36.08-.37.18-.37.18.16.18.37"/><path class="cls-5" d="M8.56,2.73c-.07.19-.21.32-.3.28s-.11-.22,0-.41.2-.3.3-.27.11.22,0,.4"/><path class="cls-5" d="M16.36,2.64c-.07.19-.21.32-.31.28s-.1-.22,0-.41.21-.31.31-.28.11.22,0,.41"/><path class="cls-5" d="M15,2.17c-.07.19-.21.31-.3.28s-.12-.22,0-.41.2-.31.29-.28S15,2,15,2.17"/><path class="cls-5" d="M14.36,3.18c-.08.19-.21.31-.3.28s-.12-.22-.05-.41.21-.31.31-.28.1.22,0,.41"/><path class="cls-5" d="M15.44,2.87c-.07.18-.21.31-.3.28s-.12-.22,0-.41.2-.31.3-.28.11.22,0,.41"/><path class="cls-5" d="M16.3,3.69c-.06.19-.21.32-.3.28s-.11-.22,0-.41.2-.31.3-.27.12.21,0,.4"/><path class="cls-5" d="M14.44,4.2c-.07.19-.21.32-.31.28s-.11-.22,0-.41.2-.31.3-.27.11.21,0,.4"/><path class="cls-5" d="M15.64,4.44c-.07.19-.21.31-.3.27s-.11-.22,0-.4.2-.32.3-.28.11.22,0,.41"/><path class="cls-5" d="M13.08,6.26c-.08.2-.21.32-.3.28s-.12-.22,0-.41.21-.31.31-.28.11.22,0,.41"/><path class="cls-5" d="M13.42,5.05c-.07.19-.21.32-.3.28s-.11-.22,0-.4.2-.32.3-.28.11.21,0,.4"/><path class="cls-5" d="M10.42,11c-.07.18-.21.31-.31.27s-.1-.22,0-.41.2-.31.29-.27.12.21.05.41"/><path class="cls-5" d="M14.87,6.79c-.07.18-.2.31-.29.27s-.12-.22,0-.41.2-.31.3-.27.11.22,0,.41"/><path class="cls-5" d="M10.91,9.76c-.07.19-.21.32-.3.28s-.11-.23,0-.41.21-.31.3-.28.11.22,0,.41"/><path class="cls-5" d="M12.77,8.38c-.07.18-.21.3-.3.27s-.11-.22-.05-.41.21-.32.31-.28.1.22,0,.42"/><path class="cls-5" d="M13.92,7.83c-.13.16-.3.23-.38.16s0-.24.1-.4.3-.22.38-.16,0,.25-.1.4"/><path class="cls-5" d="M11.36,10.69c-.12.15-.29.23-.37.16s0-.24.1-.4.29-.22.37-.15,0,.24-.1.39"/><path class="cls-5" d="M12.68,9.69c-.13.15-.3.23-.37.16s0-.24.09-.39.3-.23.38-.17,0,.25-.1.4"/><path class="cls-5" d="M12.15,6.78c0,.2-.14.34-.25.32s-.14-.19-.11-.39.16-.34.26-.33.14.2.1.4"/><path class="cls-5" d="M9.47,12.86c-.05.2-.15.35-.26.32s-.14-.19-.1-.39.15-.34.25-.32.14.2.11.39"/><path class="cls-5" d="M10.2,12.11c0,.2-.16.34-.25.32s-.15-.19-.11-.39.15-.34.25-.32.15.2.11.39"/><path class="cls-5" d="M13,7.35c-.07.19-.21.32-.3.28s-.11-.22,0-.41.21-.31.3-.27.12.21,0,.4"/><path class="cls-5" d="M15.73,5.62c-.08.19-.21.31-.31.27s-.11-.22,0-.4.2-.31.3-.28.11.22,0,.41"/><path class="cls-5" d="M11.85,9.37c-.07.19-.2.31-.3.28s-.11-.22,0-.41.21-.31.31-.28.11.22,0,.41"/><path class="cls-5" d="M8.5,4.89c-.07.19-.2.32-.3.28s-.11-.22,0-.41.2-.31.3-.28.12.22,0,.41"/><path class="cls-5" d="M14.83,5.24c-.08.19-.21.31-.31.28s-.11-.22,0-.41.21-.31.3-.28.11.22.05.41"/><path class="cls-5" d="M14,6.35c-.08.19-.21.31-.31.28s-.11-.22,0-.41.2-.31.3-.28.11.23,0,.41"/><path class="cls-5" d="M8.06,6c-.07.19-.2.31-.29.27s-.12-.22,0-.4.21-.32.31-.28.11.21,0,.41"/><path class="cls-5" d="M7.21,6.53c-.07.19-.21.32-.3.28s-.11-.22,0-.41.21-.31.3-.27.12.21,0,.4"/><path class="cls-5" d="M9.42,14.09c-.07.19-.21.31-.3.27s-.11-.21,0-.4.21-.31.31-.28.11.22,0,.41"/><path class="cls-5" d="M7.26,5.27c-.06.19-.19.32-.29.28s-.12-.21,0-.41.21-.31.31-.27.11.21,0,.4"/><path class="cls-5" d="M9.51,4.42c-.07.19-.2.31-.3.28s-.11-.22,0-.41S9.38,4,9.47,4s.11.22,0,.41"/><path class="cls-5" d="M9.18,5.59c-.07.2-.2.32-.3.28s-.11-.21,0-.4.2-.32.3-.28.11.22,0,.4"/><path class="cls-5" d="M6.84,7.8c0,.2-.12.36-.23.35S6.45,8,6.47,7.76s.12-.35.22-.34.17.18.15.38"/><path class="cls-5" d="M7.92,8.73c0,.2-.12.36-.22.35s-.16-.19-.14-.39.12-.35.22-.34.17.17.14.38"/><path class="cls-5" d="M7.84,7.46c0,.2-.12.35-.22.34s-.16-.18-.14-.38.12-.36.22-.34.16.18.14.38"/><path class="cls-5" d="M8.7,6.8c0,.2-.12.36-.22.35S8.31,7,8.34,6.77s.11-.36.22-.35.16.18.14.38"/><path class="cls-5" d="M9.18,11.78c0,.2-.13.36-.22.34s-.16-.17-.14-.38.12-.35.22-.34.16.18.14.38"/><path class="cls-5" d="M8.63,8.11c0,.2-.12.36-.22.35s-.16-.19-.15-.39.13-.35.23-.34.16.18.14.38"/><path class="cls-5" d="M8.45,11.18c0,.2-.12.35-.21.34s-.17-.18-.16-.38.13-.36.23-.34.16.18.14.38"/><path class="cls-5" d="M8.53,9.59c0,.2-.12.36-.22.35s-.16-.18-.14-.38.12-.36.22-.35.17.18.14.38"/><path class="cls-5" d="M11.9,8.18c0,.2-.12.36-.22.34s-.16-.18-.14-.38.11-.36.22-.34.16.17.14.38"/><path class="cls-5" d="M7.6,10c.07.2,0,.38-.06.42s-.23-.11-.29-.3,0-.38.07-.41.22.1.28.29"/><path class="cls-5" d="M7.05,8.94c.06.19,0,.37-.07.4s-.22-.1-.28-.29,0-.38.06-.41.23.1.29.3"/><path class="cls-5" d="M7.64,11.31c.06.2,0,.37-.06.4s-.23-.09-.29-.29,0-.37.07-.41.22.11.28.3"/><path class="cls-5" d="M8.17,13.87c.06.2,0,.37-.06.41s-.23-.1-.29-.29,0-.38.07-.41.22.1.28.29"/><path class="cls-5" d="M7.93,12.62c.06.2,0,.38-.07.41s-.23-.1-.28-.3,0-.37.06-.4.23.1.29.29"/><path class="cls-5" d="M9,3.58c-.07.19-.2.31-.3.27s-.11-.21,0-.4.21-.31.3-.28.11.22,0,.41"/><path class="cls-5" d="M8,4.12c-.07.2-.21.32-.3.28s-.11-.21,0-.41.2-.31.3-.27.11.22,0,.4"/><path class="cls-5" d="M10,3.17c0,.2-.07.36-.17.36s-.19-.16-.19-.36.08-.37.19-.37S10,3,10,3.17"/></svg>