<svg id="Capa_1" data-name="Capa 1" xmlns="http://www.w3.org/2000/svg" viewBox="0 0 16.6 16.89"><defs><style>.cls-1,.cls-2,.cls-3{fill:none;}.cls-1{stroke:#999;stroke-width:0.75px;}.cls-2,.cls-3{stroke:#000;}.cls-2{stroke-width:0.8px;}.cls-3{stroke-width:0.36px;}.cls-4{fill:#fff;}</style></defs><title>10.2.50 Foraminíferos pequeños, bentónicos</title><path class="cls-1" d="M-191.77-201.84V-174m-270.35-27.9V-174m175.33-27.88V-174M-26.41,343.4v27.9M-78,343.4v27.9m-66.82-488.15H25.23m-170.08,27.9H25.24M-144.85-61.06H25.23m-170.08,27.9H25.24M-144.85-5.27H25.23m-343,446.34h170.1m-343,0h170.1m2.78-27.89h170.1m-343,0h170.1m2.78-27.9h170.1m-343,0h170.1m2.78-27.89h170.1m-343,0h170.1m2.78-27.9h170.1m-343,0h170.1m175.65-27.89H25.25m-170.1-27.9H25.23m-170.08-27.9H25.24m-170.09-27.89H25.23M-144.85,190H25.24m-170.09-27.89H25.23m-170.08-27.9H25.24m-170.09-27.89H25.23m-170.08-83.7H25.24m-343-139.48h170.07m-170.07,27.9h170.08M-317.72-61.06h170.07m-170.07,27.9h170.08M-317.72-5.27h170.07M-317.72,301.6h170.1m-170.1-27.9h170.07m-170.07-27.9h170.08m-170.08-27.89h170.07M-317.72,190h170.08m-170.08-27.89h170.07m-170.07-27.9h170.08m-170.08-27.89h170.07m-170.07-83.7h170.08m-343-139.48h170.08M-490.6-88.95h170.09M-490.6-61.06h170.08M-490.6-33.16h170.09M-490.6-5.27h170.08M-490.6,301.6h170.1m-170.1-27.9h170.08M-490.6,245.8h170.09M-490.6,217.91h170.08M-490.6,190h170.09M-490.6,162.12h170.08m-170.08-27.9h170.09M-490.6,106.33h170.08m175.67-27.91H25.23m-170.08-27.9H25.21m-342.93,27.9h170.07m-170.07-27.9h170.05M-490.6,78.42h170.08M-490.6,50.52h170.05m-170-27.89h170.09"/><path class="cls-2" d="M25.24,371.1V329.3H-144.84v41.83Zm0,97.64V371.11H-144.84v97.65Zm0-139.46V-171.37H-144.85V329.31Z"/><path class="cls-3" d="M16,8.46a7.82,7.82,0,0,1-15.64,0M8.21-27.4v15.82"/><path class="cls-4" d="M11.8,14a3.48,3.48,0,1,0-3.47-3.47A3.47,3.47,0,0,0,11.8,14Z"/><path class="cls-3" d="M11.8,14a3.48,3.48,0,1,0-3.47-3.47A3.47,3.47,0,0,0,11.8,14Z"/><path class="cls-4" d="M8.16,7.68A3.48,3.48,0,1,0,4.69,4.2,3.47,3.47,0,0,0,8.16,7.68Z"/><path class="cls-3" d="M8.16,7.68A3.48,3.48,0,1,0,4.69,4.2,3.47,3.47,0,0,0,8.16,7.68Z"/><path class="cls-4" d="M4.61,14a3.48,3.48,0,1,0-3.47-3.48A3.48,3.48,0,0,0,4.61,14Z"/><path class="cls-3" d="M4.61,14a3.48,3.48,0,1,0-3.47-3.48A3.48,3.48,0,0,0,4.61,14Z"/></svg>