<svg id="Capa_1" data-name="Capa 1" xmlns="http://www.w3.org/2000/svg" viewBox="0 0 14.66 16.53"><defs><style>.cls-1,.cls-2,.cls-4{fill:none;}.cls-1{stroke:#999;stroke-width:0.75px;}.cls-2,.cls-4{stroke:#000;}.cls-2{stroke-width:0.8px;}.cls-3{fill:#fff;}.cls-4{stroke-width:0.36px;}</style></defs><title>10.2.59 Radiolarios</title><path class="cls-1" d="M-192.55-453.59v27.88M-462.89-453.6v27.88m175.33-27.88v27.89M-27.19,91.65v27.91M-78.8,91.65v27.91M-145.62-368.6H24.46m-170.08,27.9H24.47m-170.09,27.89H24.46m-170.08,27.9H24.47M-145.62-257H24.46m-343,446.33h170.1m-343,0h170.09m2.78-27.89h170.1m-343,0h170.09m2.78-27.9h170.1m-343,0h170.09m2.78-27.89h170.1m-343,0h170.09m2.78-27.9h170.1m-343,0h170.09m175.66-27.89H24.48M-145.62,22H24.46M-145.62-5.94H24.47m-170.09-27.9H24.46M-145.62-61.73H24.47m-170.09-27.9H24.46m-170.08-27.9H24.47m-170.09-27.89H24.46m-170.08-83.7H24.47m-343-139.48h170.08M-318.5-340.7h170.09M-318.5-312.81h170.08m-170.08,27.9h170.09M-318.5-257h170.08M-318.5,49.85h170.1M-318.5,22h170.08M-318.5-5.94h170.09M-318.5-33.84h170.08M-318.5-61.73h170.09M-318.5-89.63h170.08m-170.08-27.9h170.09M-318.5-145.42h170.08m-170.08-83.7h170.09m-343-139.48H-321.3m-170.07,27.9h170.08m-170.08,27.89H-321.3m-170.07,27.9h170.08M-491.37-257H-321.3M-491.37,49.85h170.09M-491.37,22H-321.3M-491.37-5.94h170.08m-170.08-27.9H-321.3M-491.37-61.73h170.08m-170.08-27.9H-321.3m-170.07-27.9h170.08m-170.08-27.89H-321.3m175.68-27.91H24.46m-170.08-27.89H24.44M-318.5-173.33h170.08M-318.5-201.22h170.06m-342.93,27.89H-321.3m-170.07-27.89h170.05m-170-27.9h170.08"/><path class="cls-2" d="M24.47,119.35V77.55H-145.61v41.83Zm0,97.64V119.37H-145.61V217Zm0-139.46V-423.12H-145.62V77.56Z"/><polyline class="cls-3" points="6.85 4.38 7.32 0.27 7.8 4.38"/><polyline class="cls-4" points="6.85 4.38 7.32 0.27 7.8 4.38"/><polyline class="cls-3" points="4.25 10.3 0.57 11.93 3.8 9.47"/><polyline class="cls-4" points="4.25 10.3 0.57 11.93 3.8 9.47"/><polyline class="cls-3" points="10.78 9.64 14.07 11.97 10.3 10.45"/><polyline class="cls-4" points="10.78 9.64 14.07 11.97 10.3 10.45"/><path class="cls-3" d="M11.1,8.14A3.79,3.79,0,1,1,7.32,4.35,3.79,3.79,0,0,1,11.1,8.14Z"/><path class="cls-4" d="M11.1,8.14A3.79,3.79,0,1,1,7.32,4.35,3.79,3.79,0,0,1,11.1,8.14Z"/><polyline class="cls-3" points="9.27 6.35 14.11 4.24 9.88 7.39"/><polyline class="cls-4" points="9.27 6.35 14.11 4.24 9.88 7.39"/><polyline class="cls-3" points="4.77 7.35 0.52 4.23 5.37 6.3"/><polyline class="cls-4" points="4.77 7.35 0.52 4.23 5.37 6.3"/><polyline class="cls-3" points="7.92 10.7 7.32 15.95 6.71 10.7"/><polyline class="cls-4" points="7.92 10.7 7.32 15.95 6.71 10.7"/></svg>